<?xml version="1.0" encoding="UTF-8"?><svg id="b" xmlns="http://www.w3.org/2000/svg" viewBox="0 0 1185.27 1163.07"><g id="c"><path d="M491.85,864.1c8-79.09-25.6-144.69-77.15-203.74-16.76-19.2-26.16-16.86-31.21,7.93-2.92,14.36-5.94,28.8-10.38,42.73-8.63,27.1-25.08,46.63-55.79,46.91-25.26.22-51.09-25.06-57.12-54.91-6.03-29.84-.59-58.75,11.91-85.95,19.18-41.72-21.04-30.62-36.05-39.66-20.32-12.24-28.43,3.61-31.14,20.84-3.08,19.6-4.42,39.49-6.16,59.29-2.64,30.15-21.9,52.05-51.1,54.44-28.58,2.33-48.77-12.35-58.55-38.36-18.56-49.34-.96-93.87,26.3-133.38,15.21-22.04,15.13-35.89-3.16-53.47-8.11-7.8-14.79-18.15-19.13-28.59-10.52-25.34-22.77-44.58-55.29-31.96-7.24,2.81-18.93,3.08-20.8-7.79-2.27-13.2,9.61-13.69,18.87-15.44,5.14-.97,10.34-1.94,15.24-3.68,3.61-1.28,9.54-3.71,9.6-5.78.17-5.53-5.71-4.29-9.52-5.02-13.36-2.55-26.78-4.8-40.07-7.68-6.48-1.4-12.27-5.06-10.98-12.76,1.24-7.34,7.46-9.36,14.25-9.5,1.05-.02,2.2-.23,3.13.12,45.71,17.11,51.24-6.67,54.7-45.87,5.23-59.07,39.22-105.7,84.71-142.34,20.7-16.68,28.76-36.64,32.07-61.68,3.28-24.84,8.26-49.8,15.8-73.66,12.24-38.74,41.63-46.17,71.87-18.56,24.38,22.27,42.68,50.42,52.14,81.38,9.57,31.32,31.41,27.49,54.27,28.74,24.7,1.35,24.15-18.95,30.6-33.2,8.63-19.07,15.42-39.05,24.99-57.61,21.03-40.78,56.48-44.25,83.84-7.49,26.64,35.8,41.21,77.6,53.18,120.2,4.01,14.28,7.4,27.71,23.78,34.24,168.35,67.12,252.98,198.94,284.98,371,7.09,38.15,13.68,76.56,12.23,115.46-.76,20.42,6.64,33.38,23.51,43.86,26.69,16.58,51.71,36.44,84.94,38,31.75,1.49,58.22-7.61,72.43-38.77,12.12-26.59,5.29-62.62-16.42-84.56-8.81-8.91-18.81-16.76-28.91-24.23-20.26-14.99-28.63-32.91-16.46-57.09,12.67-25.19,39.45-38.5,65.45-29.96,45.09,14.81,73.15,48.43,90.14,90.74,29.91,74.43,10.42,153.26-48.81,206.55-55.17,49.64-141.4,61.56-208.18,22.46-31.39-18.38-31.67-3.39-36.21,19.55-15.29,77.27-31.77,154.53-72.31,223.41-27.36,46.49-60.56,86.71-122.59,83.68-23.15-1.13-43.89-6-54.26-29.89-10.55-24.31.36-43.63,16.86-59.35,22.13-21.09,38.63-44.57,40.25-75.68.44-8.48,10.95-25.59-5.64-25.05-18.07.59-43.3-17.92-54.76,11.79-12.89,33.41-26.81,66.22-48.51,94.91-24.54,32.46-53.22,59.29-95.81,66.05-24.23,3.85-43.8-4.24-58.01-23.14-13.43-17.86-10.38-37.64-1.12-56.58,3.67-7.5,7.63-15.22,13.05-21.45,44.67-51.3,59.39-112.07,56.48-180.43ZM874.67,683.81c2.59-31.93-3.24-63.21-7.76-94.16-26.35-180.26-107.23-320.98-286.96-387.81-13.77-5.12-18.57-14.19-21.9-27.51-10.71-42.81-24.56-84.62-47.24-122.89-6.47-10.92-13.1-22.39-28.29-21.52-15,.85-21.29,12.67-26.15,24.23-10.57,25.13-19.97,50.76-29.96,76.14-4.73,12.01-10.2,25.34-25.88,22.8-34.67-5.61-68.96-2.36-103.41.93-7.54.72-16.16-.02-17.82-8.87-1.64-8.76,5.8-13.51,13.3-14.69,21.3-3.35,18.81-15.46,11.55-29.41-6.29-12.08-12.08-24.63-19.96-35.64-11.73-16.38-20.26-43.82-43.96-38.3-21.33,4.98-20.29,32.9-22.12,51.55-5.2,52.97-24.95,93.43-66.12,131.53-91.68,84.84-76.02,232.77,25.78,307.36,23.08,16.91,49.01,27.91,75.31,38.64,27.46,11.21,51.86,14.29,72.21-13.21,4.68-6.33,13.28-10.01,20.52-14.12,6.54-3.71,14.53-6.64,19.69,1.23,5.46,8.32-1.29,13.73-7.57,17.7-14.35,9.08-27.88,19.6-37.4,33.34-25.4,36.65-46.94,75.27-34.11,122.41,4.21,15.45,13.73,30.64,31.83,30.44,18.07-.2,26.58-15.06,31.1-31.06,6.84-24.21,12.59-48.73,19.66-72.87,8.18-27.94,23.6-51.38,46.84-69.21,5.77-4.43,12.99-9.83,19.71-3.5,8.99,8.47.64,14.67-4.81,20.98q-28.08,32.5,2.39,65.04c2.85,3.05,5.19,6.59,7.79,9.88,98.81,125.48,104.16,272.46,14.74,404.07-3.53,5.19-7.03,10.52-9.66,16.19-5.43,11.74-9.44,23.97.27,35.46,9.74,11.53,22.59,14.81,36.99,11.29,15.44-3.77,29.55-10.32,42.09-20.44,30.29-24.43,48.95-56.74,64.9-91.49,12.57-27.39,20.21-51.08-18.77-63.06-8.26-2.54-18.49-11.04-11.92-21.73,7.07-11.5,16.68-2.57,24.5,1.78,26.35,14.65,54.64,20.77,84.58,20.16,10.98-.22,21.17-1.19,23.62-15.12,1.4-7.95,1.57-18.92,13.22-17.62,12.28,1.37,12.99,13.06,12.54,22.17-2.67,54.62-3.49,109.97-49.99,150.21-11.32,9.8-22.61,21.83-13.77,37.93,7.85,14.29,23.76,16.63,38.69,16.13,15.98-.54,30.57-6.47,43.72-15.95,24.46-17.63,42.23-40.89,55.17-67.61,56.86-117.43,73.84-243.8,82.81-371.81ZM1005.22,832.77c84.72.04,152.43-64.07,155.27-149.07,1.95-58.6-19.73-106.34-71.59-137.45-17.34-10.4-34.5-10.76-47.2,7.02-13.48,18.87,2.92,27.91,14.52,38.19,10.15,9,21.13,17.37,29.88,27.61,38.04,44.48,29.64,108.14-17.79,139.84-48.65,32.52-93.42,16.07-137.87-10.23-10.56-6.25-22.19-23.29-30.74-17.45-12.8,8.75-8.53,28.56-8.76,44.06-.28,18.56,12.62,28.6,26.87,35.43,27.48,13.16,56.16,23.1,87.41,22.05ZM108.63,640.16c1.83,19.46,2.67,44.59,32.07,45.94,31.48,1.45,35.44-22.72,35.5-47.51.05-22.03,1.8-44.09,11.07-64.2,10.4-22.59-9.75-26.18-20.3-35.38-12.49-10.88-20.95-2.01-28.02,7.95-19.2,27.04-30.19,56.91-30.32,93.2Z" stroke-width="0"/><path d="M874.67,683.81c-8.96,128.02-25.95,254.38-82.81,371.81-12.94,26.72-30.71,49.98-55.17,67.61-13.15,9.48-27.73,15.41-43.72,15.95-14.93.5-30.84-1.84-38.69-16.13-8.84-16.11,2.45-28.14,13.77-37.93,46.5-40.24,47.32-95.59,49.99-150.21.45-9.11-.26-20.8-12.54-22.17-11.65-1.3-11.82,9.67-13.22,17.62-2.45,13.93-12.64,14.9-23.62,15.12-29.95.61-58.23-5.51-84.58-20.16-7.82-4.35-17.43-13.28-24.5-1.78-6.57,10.69,3.66,19.19,11.92,21.73,38.99,11.98,31.35,35.67,18.77,63.06-15.95,34.74-34.61,67.06-64.9,91.49-12.54,10.11-26.65,16.66-42.09,20.44-14.4,3.52-27.25.24-36.99-11.29-9.7-11.49-5.69-23.72-.27-35.46,2.62-5.68,6.13-11,9.66-16.19,89.41-131.61,84.07-278.59-14.74-404.07-2.6-3.3-4.93-6.83-7.79-9.88q-30.41-32.52-2.39-65.04c5.45-6.31,13.8-12.51,4.81-20.98-6.72-6.33-13.94-.93-19.71,3.5-23.25,17.83-38.66,41.27-46.84,69.21-7.07,24.14-12.82,48.66-19.66,72.87-4.52,16-13.03,30.87-31.1,31.06-18.1.2-27.63-15-31.83-30.44-12.84-47.14,8.71-85.75,34.11-122.41,9.52-13.74,23.05-24.26,37.4-33.34,6.28-3.97,13.03-9.39,7.57-17.7-5.17-7.87-13.16-4.94-19.69-1.23-7.24,4.11-15.84,7.79-20.52,14.12-20.35,27.49-44.75,24.42-72.21,13.21-26.3-10.74-52.23-21.73-75.31-38.64-101.8-74.58-117.45-222.52-25.78-307.36,41.17-38.1,60.92-78.56,66.12-131.53,1.83-18.66.79-46.57,22.12-51.55,23.7-5.53,32.23,21.92,43.96,38.3,7.88,11,13.67,23.56,19.96,35.64,7.26,13.94,9.75,26.05-11.55,29.41-7.5,1.18-14.94,5.93-13.3,14.69,1.66,8.85,10.28,9.59,17.82,8.87,34.44-3.28,68.74-6.54,103.41-.93,15.68,2.54,21.15-10.79,25.88-22.8,9.99-25.38,19.39-51,29.96-76.14,4.86-11.55,11.15-23.38,26.15-24.23,15.18-.86,21.81,10.6,28.29,21.52,22.69,38.27,36.53,80.08,47.24,122.89,3.33,13.32,8.13,22.39,21.9,27.51,179.72,66.84,260.61,207.55,286.96,387.81,4.52,30.95,10.36,62.23,7.76,94.16ZM273.65,492.86c15.65-3.11,23.41-14.13,25.72-30.19,2.75-19.06,5.58-36.94,31.44-38.7,8.87-.6,16.87-18.87,7.54-18.73-24.32.37-46.06-14.88-67.49-11.52-14.95,2.35-28.14,10.06-43.85,2.69-2.57-1.21-8.76,1.29-10.86,3.97-3.77,4.81-1.34,11.07,3.47,13.37,18.72,8.93,17.57,25.72,19.71,42.49,2.38,18.66,11.71,33.58,34.32,36.62ZM411.82,378.2c18.64-1.03,29.84-11.25,29.7-29.25-.12-16.15-9.75-27.37-27.4-27.58-18.83-.22-29.24,10.21-29.53,28.67-.28,17.51,10.92,25.74,27.23,28.16ZM203.9,336.02c-3.13-16.56-12.08-27.13-29.53-26.7-17.12.42-28.45,10.46-28.08,27.4.39,17.98,12.09,29.52,30.56,28.58,16.94-.87,25.33-12.72,27.06-29.28ZM506.28,445.26c10.8-1.43,20.01,1.05,21.97-8.38,1.99-9.58-6.79-11.76-13.59-13.39-18.09-4.35-36.33-8.05-54.55-11.88-7.41-1.56-15.36-2.19-17.69,7.13-1.91,7.59,4.56,11.25,10.5,12.89,18.88,5.22,37.95,9.74,53.37,13.63ZM449.42,439.19c-7.66.89-11.81,1.61-13.16,6.5-1.65,5.97,1.59,10.34,5.97,13.18,16.66,10.81,34.5,19.23,53.76,24.3,5.15,1.36,10.52,1.01,13.88-4.03,2.68-4.02,1.74-9.33-1.77-11.14-20.23-10.45-40.85-20.15-58.67-28.82Z" fill="#fff" stroke-width="0"/><path d="M1005.22,832.77c-31.24,1.05-59.93-8.88-87.41-22.05-14.25-6.82-27.15-16.86-26.87-35.43.23-15.5-4.04-35.31,8.76-44.06,8.54-5.84,20.18,11.2,30.74,17.45,44.45,26.29,89.22,42.75,137.87,10.23,47.43-31.71,55.84-95.36,17.79-139.84-8.76-10.24-19.73-18.61-29.88-27.61-11.6-10.28-28-19.32-14.52-38.19,12.71-17.78,29.87-17.42,47.2-7.02,51.86,31.11,73.55,78.85,71.59,137.45-2.84,85-70.55,149.11-155.27,149.07Z" fill="#fff" stroke-width="0"/><path d="M108.63,640.16c.13-36.29,11.12-66.16,30.32-93.2,7.07-9.96,15.53-18.83,28.02-7.95,10.56,9.2,30.71,12.79,20.3,35.38-9.26,20.11-11.01,42.17-11.07,64.2-.06,24.78-4.02,48.95-35.5,47.51-29.4-1.35-30.25-26.48-32.07-45.94Z" fill="#fff" stroke-width="0"/><path d="M273.65,492.86c-22.62-3.04-31.95-17.96-34.32-36.62-2.14-16.77-.99-33.56-19.71-42.49-4.82-2.3-7.24-8.56-3.47-13.37,2.1-2.68,8.29-5.17,10.86-3.97,15.72,7.37,28.9-.34,43.85-2.69,21.43-3.36,43.17,11.89,67.49,11.52,9.33-.14,1.33,18.13-7.54,18.73-25.86,1.76-28.7,19.64-31.44,38.7-2.31,16.06-10.07,27.08-25.72,30.19Z" stroke-width="0"/><path d="M411.82,378.2c-16.3-2.42-27.5-10.65-27.23-28.16.29-18.45,10.7-28.88,29.53-28.67,17.65.2,27.28,11.43,27.4,27.58.14,18-11.06,28.22-29.7,29.25Z" stroke-width="0"/><path d="M203.9,336.02c-1.73,16.56-10.12,28.41-27.06,29.28-18.46.94-30.17-10.61-30.56-28.58-.37-16.94,10.96-26.98,28.08-27.4,17.45-.43,26.4,10.15,29.53,26.7Z" stroke-width="0"/><path d="M506.28,445.26c-15.42-3.89-34.49-8.41-53.37-13.63-5.94-1.64-12.4-5.3-10.5-12.89,2.34-9.32,10.28-8.69,17.69-7.13,18.21,3.82,36.46,7.53,54.55,11.88,6.8,1.63,15.58,3.81,13.59,13.39-1.96,9.43-11.16,6.95-21.97,8.38Z" stroke-width="0"/><path d="M449.42,439.19c17.83,8.67,38.44,18.37,58.67,28.82,3.51,1.81,4.45,7.12,1.77,11.14-3.36,5.04-8.73,5.39-13.88,4.03-19.26-5.08-37.1-13.49-53.76-24.3-4.38-2.84-7.62-7.21-5.97-13.18,1.35-4.89,5.5-5.61,13.16-6.5Z" stroke-width="0"/><path d="M879.42,802.05c-14.69,59.83-27.2,120.3-44.66,179.31-18.17,61.42-41.56,120.89-99.97,157.83-22.23,14.06-45.61,15.6-69.26,8.88-33.52-9.52-40.9-39.91-12.1-65.1,51.98-45.47,52.2-103.91,49.77-164.41" fill="none" stroke="#000" stroke-linecap="round" stroke-linejoin="round" stroke-width="12.6"/><path d="M26.61,417.89c3.16-5.18,8.28-2.54,12.59-3.14q42.65-5.94,40.91-47.24c-3.53-82.81,30.6-148.62,95.09-197.48,19.56-14.82,23.01-32.8,23.6-51.31.88-27.21,9.34-52.66,14.66-78.45,7.06-34.24,35.16-39.63,58.17-12.46,21.29,25.14,41.59,52.36,50.18,84.8,5.42,20.46,15.27,25.84,35.23,25.48,51.66-.94,50.86-.4,72.81-50.64,7.86-18,11.05-38.17,24.63-53.82,22.69-26.15,38.44-25.74,59.85,3.29,25.08,34.02,39.64,73.32,49.54,113.53,6.18,25.11,17.04,37.34,41.37,47.96,144.87,63.24,228.18,176.45,262.13,329.57,13.18,59.43,17.61,119.44,20.44,179.65.53,11.31-3.83,25.38-7.2,38.05-12.74,47.85,13.86,77.89,77.49,94.2,106.82,27.39,207.7-40.14,215.78-157.58,4.05-58.9-21.92-110.57-74.15-144.77-29.79-19.5-52.84-16.14-72.19,12.75-18.37,27.43,6.75,42.09,22.5,52.36,25.86,16.85,42.06,37.84,46.27,67.2,11.13,77.6-65.95,108.55-119.47,88.52-31.01-11.61-54.58-35.33-84.82-47.63" fill="none" stroke="#000" stroke-linecap="round" stroke-linejoin="round" stroke-width="12.6"/><path d="M391.65,625.71c84.98,64.02,118.61,150.88,113.29,255.06-3.36,65.78-17.32,126.6-64.94,177.41-13.05,13.92-25.92,40.25-1.34,62.12,18.47,16.43,56.7,18.36,81.85-.44,49.81-37.22,77.45-89.26,94.68-147.74,1.31-4.43,4.09-8.43,6.19-12.63" fill="none" stroke="#000" stroke-linecap="round" stroke-linejoin="round" stroke-width="12.6"/><path d="M369.62,534.4c-32.38,1.25-46.38,28.8-65.75,47.58-36.65,35.53-44.57,118.56-16.07,147.65,29.13,29.73,57.01,22.49,72.36-18.9,9.94-26.81,15.71-55.03,23.57-82.33,8.21-28.52,24.32-46.19,45.68-62.51" fill="none" stroke="#000" stroke-linecap="round" stroke-linejoin="round" stroke-width="12.6"/><path d="M146.19,518.65c-33,36.7-53.36,78.49-50.2,129.09,1.45,23.18,10.73,41.91,34.45,50.42,22.23,7.97,36.21-4.1,50.67-18.62,10.11-10.15,5.49-21.27,5.68-31.8.59-31.27,3.31-61.7,22.33-88.16" fill="none" stroke="#000" stroke-linecap="round" stroke-linejoin="round" stroke-width="12.6"/><path d="M83.25,408.44c36.32,99.13,111.64,150.71,210.84,173.19" fill="none" stroke="#000" stroke-linecap="round" stroke-linejoin="round" stroke-width="12.6"/><path d="M520.67,433.63c-28.33,2.7-53.6-14.52-81.82-12.6" fill="none" stroke="#000" stroke-linecap="round" stroke-linejoin="round" stroke-width="12.6"/><path d="M571.02,931.15c39.06,28.66,82.96,32.46,129.02,25.19" fill="none" stroke="#000" stroke-linecap="round" stroke-linejoin="round" stroke-width="12.6"/><path d="M445.14,446.23c15.26,19.99,46.82,14.17,59.79,37.79" fill="none" stroke="#000" stroke-linecap="round" stroke-linejoin="round" stroke-width="12.6"/><path d="M14.02,370.66c21.07,1.15,41.42,9.62,62.94,6.3" fill="none" stroke="#000" stroke-linecap="round" stroke-linejoin="round" stroke-width="12.6"/><path d="M331.86,411.59c-16.36,5.88-35.44.89-50.35,12.6" fill="none" stroke="#000" stroke-linecap="round" stroke-linejoin="round" stroke-width="12.6"/><path d="M187.1,334.44c-8.39,2.58-16.78,2.58-25.18,0" fill="none" stroke="#000" stroke-linecap="round" stroke-linejoin="round" stroke-width="12.6"/><path d="M426.26,347.04c-6.29,1.05-12.59,2.1-18.88,3.15" fill="none" stroke="#000" stroke-linecap="round" stroke-linejoin="round" stroke-width="12.6"/></g></svg>