<?xml version="1.0" encoding="UTF-8"?><svg id="b" xmlns="http://www.w3.org/2000/svg" viewBox="0 0 827.9 1238.7"><g id="c"><path d="M674.05,308.73c43.11-46.24,64.6-101.32,63.55-164.16-.51-30.26-22.23-53.68-33.79-80.34-7.25-16.72-10.4-27.54,3.14-42.54,15.27-16.92,33.72-22.13,50.49-7.82,41.8,35.67,60.72,82.64,63.94,136.26,6.96,115.73-25.6,223.99-63.79,331.14-11.06,31.02-20.28,62.67-35.91,91.98-3.29,6.16-4.13,15.01-2.84,22.02,19.53,105.99-19.81,201.79-54.04,297.47-23.01,64.31-41.8,129.58-60.29,195.11-3.91,13.85-7.28,27.86-11.03,42.32,8.99,10.65,18.47,21.62,27.66,32.82,19.58,23.87,19.65,36.17-2.95,52.58-24.51,17.79-87.8,30.44-111.59-4.97-6.76-10.06-11.01-19.33-10.6-30.93.77-22.27-.97-45.07,3.31-66.67,9.07-45.75.12-89.24-8.05-133.84-5.73-31.29-13.28-61.62-22.89-91.74-2.95-9.24-7.2-15.23-16.94-16.62" fill="none" stroke="#000" stroke-linecap="round" stroke-linejoin="round" stroke-width="11.13"/><path d="M201.02,842.98c36.09,3.6,68.15,16.24,94.66,41.68,4.27,4.1,12,6.64,13.41,11.32,10.02,33.23,33.99,51.65,64.85,61.23-13.28,85.31-106.63,146.29-186.76,135.58-29.92-4-57.29-18.63-80.66-38.48-20.01-16.99-38.47-35.85-58.84-52.37-7.95-6.45-19.57-14.54-29.95-5.52-8.23,7.15-11.36,19.01-8.55,30.15,15.95,63.39,85.31,123.74,152.88,133.6,94.68,13.82,195.31-33.27,241.88-114.2,12.62-21.94,28.03-42.99,30.81-69.45" fill="none" stroke="#000" stroke-linecap="round" stroke-linejoin="round" stroke-width="11.13"/><path d="M290.06,394.99c-22.68-15.33-20.38-44-34.37-65.19-24.12-36.52-37.36-80.3-54.56-121.29-12.19-29.04-9-56.73,7.99-83.59,8.83-13.95,15.29-29.43,22.46-44.39,8.48-17.71,11.12-36.26-5.84-49.65-15.16-11.97-34.68-9.34-49.47.06-47.78,30.39-75.39,84.08-63.46,152.91,8.3,47.9,15.76,96.27,23.99,144.39,10.9,63.79,32.25,124.68,51.11,186.15,7.02,22.87,16.25,42.9-.77,64.28-1.26,1.59-2.75,3.7-2.7,5.53,1.81,69.62-55.1,96.46-97.64,133.42-30.42,26.43-59.98,53.44-74.83,92.04-16.9,43.93.2,78.89,44.26,97.54,38.5,16.3,80.17,18.84,119.92,29.75,21.26,5.83,38.81,12.45,53.19,30.86,25.07,32.11,44.77,31.95,74.54,3.07,9.88-9.58,18.65-20.31,27.92-30.51" fill="none" stroke="#000" stroke-linecap="round" stroke-linejoin="round" stroke-width="11.13"/><path d="M340.15,94.47c20.39,4.58,30.94,21.44,41.32,36.46,20.79,30.11,47.66,43.48,83.91,38.8,7.3-.94,14.85-.52,22.24-.07,38.34,2.33,70.57-6.53,89.39-44.42,5.44-10.96,14.99-19.88,23.63-31,28.78,19.29,29.24,49.82,36.51,75.55,8.66,30.66,11.63,62.91,17.56,94.38,1.95,10.36,4.09,21.05,8.48,30.51,10.97,23.66,4.53,65.87-14.35,83.42-1.49,1.39-5.4.18-8.18.18" fill="none" stroke="#000" stroke-linecap="round" stroke-linejoin="round" stroke-width="11.13"/><path d="M337.36,100.04c-16.66,14.99-16.6,36.39-19.01,55.71-6.66,53.4-14.33,106.41-27.45,158.76-3.41,13.61-8.18,23.95-17.54,33.18" fill="none" stroke="#000" stroke-linecap="round" stroke-linejoin="round" stroke-width="11.13"/><path d="M612.84,275.34c-26.62,17.37-52.94,29.26-78.21-2.55-1.44-1.81-7.13-.23-10.84-.23" fill="none" stroke="#000" stroke-linecap="round" stroke-linejoin="round" stroke-width="11.13"/><path d="M334.58,278.12c20.78,7.17,37.51,28.67,64.41,14.71,7.89-4.09,12.21-10.58,19.07-14.71" fill="none" stroke="#000" stroke-linecap="round" stroke-linejoin="round" stroke-width="11.13"/><path d="M518.23,342.12c-24.13.62-48.82-13.34-72.35,2.78" fill="none" stroke="#000" stroke-linecap="round" stroke-linejoin="round" stroke-width="11.13"/><path d="M484.84,970.98c-24.35-.73-48.95,3.02-72.51-7.99-10.13-4.73-22.09-5.66-33.22-.36" fill="none" stroke="#000" stroke-linecap="round" stroke-linejoin="round" stroke-width="11.13"/><path d="M270.58,823.5c.04,12.64-16.1,15.57-16.7,27.83" fill="none" stroke="#000" stroke-linecap="round" stroke-linejoin="round" stroke-width="11.13"/></g></svg>