<?xml version="1.0" encoding="UTF-8"?><svg id="b" xmlns="http://www.w3.org/2000/svg" viewBox="0 0 778.52 1068.59"><g id="c"><path d="M408.21,1068.46c-102.46-3.36-202.71-15-289.35-78.03-45.52-33.12-72.38-76.73-78.41-132.75-4.51-41.94,15.2-72.92,48.49-77.44,28.15-3.82,47.13,7.14,55.92,34.52,4.91,15.31,8.14,31.39,10.08,47.37,3.99,32.82,21.99,57,50.96,67.9,119.99,45.13,241.27,52.31,362.66,4.29,7.02-2.78,15.92-4.35,19.14-13.27-6.7-2.38-13.81-3.97-20.01-7.28-16.66-8.88-33.5-7.57-51.89-6.49-42,2.47-84.55,6.45-126.12-4.4-11.83-3.09-19.84-.09-29.44,6.71-34.76,24.64-71.58,27.95-108.24,4.44-14.19-9.1-29.69-11.81-45.26-15.79-42.27-10.8-57.81-47.34-26.82-76.2,43.75-40.75,36.92-84.3,19.54-130.33-15.53-41.13-35.12-80.71-52.58-121.12-15.66-36.24-20.02-74.75-18.35-113.55.74-17.07-2.65-29.25-16.08-39.81-27.29-21.47-50.01-46.81-59.73-81.2-5.15-18.22-18.43-9.53-28.68-9.29-9.65.23-22.16,5.26-23.93-8.66-1.52-12.03,11.57-10.67,19.68-13.38,6.3-2.11,18.3-.15,17.43-7.69-.82-7.09-12.27-2.5-18.94-3.52-7.76-1.18-18.49.7-18.25-10.68.24-11.31,11.6-10.7,18.82-9.96,22.28,2.3,25.72-8.29,26.45-28.24,2.83-77.29,31.64-147.07,67.73-213.97C121.41,15.13,133.69-1.63,154.24.13c22.12,1.9,31.35,21.53,35.47,39.67,6.54,28.78,23.95,39.92,51.12,41.44,6.2.35,12.46,2.07,18.42,4,44.65,14.51,87.24,20.71,117.25-27.43.9-1.44,2.66-2.41,4.14-3.42,16.1-11.06,31.5-27.42,53.25-17.86,22.64,9.96,22.68,32.66,23.99,53.31,2.98,46.85-4.15,93.33-5.73,140.02-1.93,57.16,16.67,103.45,69.84,132.44,37.04,20.19,73.63,41.52,108.79,64.82,74.18,49.16,116.82,119.87,135.06,206.17,17.79,84.18,19.58,167.05-12.24,249.31-22.93,59.26-61.47,102.84-116.78,132.26-71.38,37.97-147.75,55.44-228.59,53.61ZM434.1,1047.11c48.42,1.43,123.02-14.45,192.68-52.41,47.52-25.9,81.9-62.36,102.68-113.31,32.33-79.26,30.22-160.01,14.32-241.33-17.6-90-63-161.48-145.13-207.02-32.22-17.87-62.9-38.52-95.19-56.23-52.56-28.83-70.51-76.8-74.37-132.16-1.43-20.45,1.3-41.3,3.25-61.86,3.24-34.13,3.96-68.32,1.66-102.43-1.74-25.7-12.69-30.39-32.63-13.9-16.57,13.71-31.6,29.37-46.5,44.94-9.57,10-18.94,13.92-33.36,10.52-38.44-9.05-77.26-16.55-116.05-24.02-13.82-2.66-22.77-9.55-27.05-22.94-2.73-8.56-5.57-17.14-9.14-25.37-4.12-9.5-4.75-23.44-17.85-24.43-11.3-.85-15.55,11.11-20.47,19.29-30.93,51.4-50.56,107.18-61.27,165.99-14.04,77.14-4.76,147,64.72,197.05,15.63,11.26,17.39,28.21,16.43,46.05-2.56,47.69,7.8,92.62,27.79,135.96,19.15,41.53,42.71,81.25,51.92,127.02,8.45,42,13.78,81.76-28.59,111.39-12,8.39-21.5,24.08-6.34,39.37,14.58,14.7,38.32,13.18,51.28-2.62,10.25-12.5,20.02-25.41,29.83-38.27,4.26-5.58,7.86-14.48,16.35-8.74,6.96,4.7,4.87,13.54.84,19.6-7.44,11.2-15.54,22.08-24.4,32.2-15.14,17.3-8.34,26.74,10.3,33.33,27.13,9.59,61.95-.33,80.58-23.06,9.87-12.04,15.25-26.34,21.52-40.29,2.71-6.03,5.1-15.67,14.79-11.16,8.16,3.79,6.29,11.95,3.61,19.01-2.23,5.86-4.84,11.58-7.14,17.42-1.58,3.99-3.99,7.59-.14,12.22,10.07,12.13,136.94,15.24,138.27,2.2,3.62-35.27,55.78-54.97,30.11-98.16-2.93-4.93-.68-10.71,5.39-13.21,4.99-2.06,8.29.83,11.44,4.44,17.26,19.76,16.85,46.74-.74,65.59-4.86,5.21-9.51,10.92-12.89,17.15-12.43,22.89-5.72,36.07,19.6,39.64,44.93,6.33,72.3-13.22,81.37-58.17,1.07-5.28,1.56-10.71,2.99-15.88,1.45-5.26,3.83-10.87,10.56-10.14,8.03.87,9.85,7.21,8.99,13.95-2.98,23.41-8.48,45.76-24.32,64.6-27.8,33.09-61.64,57.38-101.72,73.36-66.86,26.66-136.56,29.77-207.02,24.36-53.81-4.13-107.63-9.76-156.74-35.13-37.4-19.31-62.27-48.07-66.83-91.66-1.03-9.82-3.11-19.55-5.12-29.23-3.61-17.35-11.15-30.52-31.99-29.39-21.41,1.16-29.13,14.11-30.78,33.66-4.79,56.43,18.79,99.58,62.54,132.66,82.19,62.14,177.83,77.83,307.94,79.56Z" stroke-width="0"/><path d="M434.1,1047.11c-130.12-1.74-225.76-17.42-307.94-79.56-43.74-33.08-67.33-76.22-62.54-132.66,1.66-19.55,9.37-32.5,30.78-33.66,20.84-1.13,28.38,12.04,31.99,29.39,2.01,9.68,4.1,19.41,5.12,29.23,4.56,43.59,29.43,72.35,66.83,91.66,49.11,25.36,102.93,31,156.74,35.13,70.46,5.4,140.16,2.29,207.02-24.36,40.08-15.98,73.92-40.27,101.72-73.36,15.84-18.85,21.33-41.19,24.32-64.6.86-6.74-.97-13.08-8.99-13.95-6.73-.73-9.1,4.88-10.56,10.14-1.43,5.17-1.93,10.6-2.99,15.88-9.07,44.95-36.44,64.5-81.37,58.17-25.33-3.57-32.04-16.75-19.6-39.64,3.38-6.22,8.03-11.94,12.89-17.15,17.59-18.86,17.99-45.83.74-65.59-3.15-3.61-6.45-6.5-11.44-4.44-6.07,2.51-8.32,8.29-5.39,13.21,25.67,43.19-26.49,62.89-30.11,98.16-1.34,13.05-128.2,9.93-138.27-2.2-3.84-4.63-1.43-8.22.14-12.22,2.31-5.83,4.92-11.55,7.14-17.42,2.68-7.06,4.55-15.21-3.61-19.01-9.69-4.51-12.08,5.13-14.79,11.16-6.27,13.94-11.65,28.25-21.52,40.29-18.63,22.72-53.46,32.65-80.58,23.06-18.64-6.59-25.44-16.03-10.3-33.33,8.85-10.12,16.95-21,24.4-32.2,4.03-6.06,6.12-14.9-.84-19.6-8.49-5.74-12.1,3.16-16.35,8.74-9.81,12.86-19.58,25.77-29.83,38.27-12.96,15.8-36.7,17.32-51.28,2.62-15.16-15.29-5.66-30.98,6.34-39.37,42.37-29.63,37.04-69.39,28.59-111.39-9.21-45.77-32.77-85.49-51.92-127.02-19.98-43.34-30.35-88.27-27.79-135.96.96-17.84-.8-34.79-16.43-46.05-69.48-50.05-78.76-119.91-64.72-197.05,10.7-58.81,30.33-114.59,61.27-165.99,4.92-8.18,9.17-20.14,20.47-19.29,13.1.98,13.73,14.93,17.85,24.43,3.57,8.23,6.41,16.81,9.14,25.37,4.28,13.4,13.23,20.28,27.05,22.94,38.79,7.47,77.61,14.98,116.05,24.02,14.43,3.4,23.79-.52,33.36-10.52,14.9-15.57,29.94-31.24,46.5-44.94,19.94-16.5,30.9-11.8,32.63,13.9,2.3,34.11,1.58,68.29-1.66,102.43-1.95,20.56-4.68,41.41-3.25,61.86,3.86,55.36,21.81,103.33,74.37,132.16,32.3,17.71,62.98,38.36,95.19,56.23,82.13,45.54,127.53,117.02,145.13,207.02,15.9,81.32,18.01,162.08-14.32,241.33-20.78,50.95-55.17,87.42-102.68,113.31-69.66,37.96-144.26,53.84-192.68,52.41ZM336.54,262.75c-16.46,1.59-27.78,10.4-28.35,28.3-.52,16.6,9.2,27.28,25.71,28.37,17.87,1.18,29.52-9.93,30.98-26.57,1.52-17.33-9.47-27.76-28.34-30.1ZM111.03,287.73c16.29-2.88,26.99-12.16,27-28.47.02-16.55-11.08-27.28-27.22-27.08-17.21.21-28.93,11.29-28.1,29.16.76,16.34,12.09,24.92,28.31,26.38ZM211.71,320.24c10.92-2.26,26.16-2.42,25.05-17.35-1.16-15.52-17.03-16.07-29.22-16.37-10.46-.26-24.29.91-23.79,14.75.56,15.52,15.24,17.09,27.97,18.97ZM384.34,357.24c-3.51,2.27-7.18,3.48-8.85,6-2.73,4.12-1.48,9.53,2.1,12.11,13.75,9.91,28.58,18.01,45.27,21.85,4.62,1.06,8.7-.93,10.8-5.67,2.17-4.88.45-9.47-3.54-11.58-14.86-7.86-30.1-15.01-45.77-22.72ZM416.1,357.88c8.95-1.6,21.36,3.54,22.25-9.62.67-10.01-10.51-12.46-18-12.09-12.65.63-33.34-13.84-36.06,6.56-1.99,14.93,20.82,10.68,31.81,15.15Z" fill="#fff" stroke-width="0"/><path d="M336.54,262.75c18.87,2.34,29.86,12.77,28.34,30.1-1.46,16.64-13.11,27.75-30.98,26.57-16.5-1.09-26.23-11.78-25.71-28.37.57-17.9,11.89-26.71,28.35-28.3Z" stroke-width="0"/><path d="M111.03,287.73c-16.22-1.46-27.55-10.04-28.31-26.38-.83-17.88,10.89-28.95,28.1-29.16,16.14-.2,27.23,10.53,27.22,27.08-.02,16.3-10.71,25.59-27,28.47Z" stroke-width="0"/><path d="M211.71,320.24c-12.72-1.88-27.41-3.46-27.97-18.97-.5-13.84,13.34-15.01,23.79-14.75,12.2.3,28.06.85,29.22,16.37,1.11,14.93-14.13,15.09-25.05,17.35Z" stroke-width="0"/><path d="M384.34,357.24c15.68,7.71,30.91,14.87,45.77,22.72,3.99,2.11,5.71,6.7,3.54,11.58-2.1,4.74-6.18,6.73-10.8,5.67-16.69-3.84-31.52-11.94-45.27-21.85-3.58-2.58-4.83-8-2.1-12.11,1.68-2.53,5.35-3.73,8.85-6Z" stroke-width="0"/><path d="M416.1,357.88c-10.99-4.47-33.8-.22-31.81-15.15,2.72-20.4,23.41-5.93,36.06-6.56,7.49-.37,18.67,2.08,18,12.09-.89,13.16-13.3,8.02-22.25,9.62Z" stroke-width="0"/><path d="M394.64,823.53c-12.21,63.37-40.57,94.46-97.14,94.5-2.7,0-5.75.84-8.04-.13-32.8-13.91-64.49-29.78-99.58-38.88-17.52-4.54-18.59-31.95-5.55-49.99,4.42-6.11,9.93-11.98,16.15-16.13,32.51-21.68,26.1-53.04,21.41-83.87-9.52-62.63-49.22-113.4-68.07-172.6-11.09-34.83-17-69.81-14.56-105.45,1.05-15.29-1-25.67-11.75-35.17-.95-.84-1.72-1.91-2.72-2.68C30.63,340.92,45.94,246.94,73.84,151.29c12.45-42.69,26.13-85.3,53.62-121.62,21.66-28.61,39.53-28.93,47.01,5.78,10.91,50.66,46.89,55.19,85.25,61.77,4.52.78,9.1,1.43,13.48,2.74,41.42,12.41,80.88,18.47,105.49-29.64,1.84-3.6,7.3-5.17,10.5-8.28,11.34-11.02,24.06-22.54,40.3-15.57,17.84,7.66,16.56,26.18,16.43,42.64-.33,40.57-.34,80.98-4.87,121.56-8.76,78.46,21.23,136.56,93.55,173.5,30.67,15.67,60.94,32.87,89.86,52.63,80.89,55.28,121.58,132.12,134.95,227.37,9.68,68.93,9.68,135.32-12.93,202.91-25.75,76.96-77.72,122.4-149.16,154.16-88.28,39.25-179.72,41.71-272.77,31.5-73.46-8.06-142.27-29.05-202.75-74.85-47.62-36.06-72.67-81.2-69.61-140.84,1.55-30.21,17.93-48.67,42.96-48.28,24.49.38,40.04,14.59,43.12,45.57,4.36,43.93,16.34,83.58,59.49,105.18,26.41,13.22,54.63,22.03,83.64,26.85,50.84,8.45,102.16,14.38,153.75,10.78,54.82-3.83,109.2-11.71,156.37-43.16,20.76-13.84,41.08-28.94,59.15-46.05,18.17-17.2,26.41-40.42,27.36-65.76" fill="none" stroke="#000" stroke-linecap="round" stroke-linejoin="round" stroke-width="10.8"/><path d="M378.45,885.63c55.22,18.63,111.21,13.74,167.3,5.4" fill="none" stroke="#000" stroke-linecap="round" stroke-linejoin="round" stroke-width="10.8"/><path d="M567.34,774.93c11.59,22.72,27.23,44.31-4.88,65.58-12.36,8.19-20.29,27.13-15.76,42.14,5.46,18.11,23.69,24.33,42.23,24.37,7.96.02,14.82,2.09,21.59,5.62" fill="none" stroke="#000" stroke-linecap="round" stroke-linejoin="round" stroke-width="10.8"/><path d="M286.71,826.23c-6.36,25.36-33.49,37.16-40.48,62.1" fill="none" stroke="#000" stroke-linecap="round" stroke-linejoin="round" stroke-width="10.8"/><path d="M389.25,332.11c.42,5.31-2.95,11.65,8.11,11.29,11.62-.38,23.37,3.11,35.06,4.91" fill="none" stroke="#000" stroke-linecap="round" stroke-linejoin="round" stroke-width="10.8"/><path d="M383.85,367.21c12.05,12.27,31.62,11.15,43.17,24.3" fill="none" stroke="#000" stroke-linecap="round" stroke-linejoin="round" stroke-width="10.8"/><path d="M51.94,307.81c-13.49,3.6-26.98,7.2-40.48,10.8" fill="none" stroke="#000" stroke-linecap="round" stroke-linejoin="round" stroke-width="10.8"/><path d="M6.07,283.51h43.17" fill="none" stroke="#000" stroke-linecap="round" stroke-linejoin="round" stroke-width="10.8"/><path d="M351.47,290.26c-4.5.45-8.99.9-13.49,1.35" fill="none" stroke="#000" stroke-linecap="round" stroke-linejoin="round" stroke-width="10.8"/><path d="M109.96,245.71c1.68,8.05.53,19.56,14.84,12.15" fill="none" stroke="#000" stroke-linecap="round" stroke-linejoin="round" stroke-width="10.8"/></g></svg>