<?xml version="1.0" encoding="UTF-8"?><svg id="b" xmlns="http://www.w3.org/2000/svg" viewBox="0 0 1194.28 967.55"><g id="c"><path d="M1185.24,795.43c-73.96,40.39-145.09,84.93-225.51,114.25-129.85,47.34-263.33,49.98-398.18,48.52-14.2-.15-26.79-2.15-31.64-18.15" fill="none" stroke="#000" stroke-linecap="round" stroke-linejoin="round" stroke-width="18.08"/><path d="M453.09,750.23c-24.1,12.05-48.71,23.21-72.21,36.34-47.12,26.33-98.44,22.53-149.25,22.3-61.73-.29-120.93,14.75-180.93,26.44-39.95,7.78-42.16,32.61-40.86,64.08.74,18,12.27,36.14-.8,53.39,20.32,7.57,40.23,5.58,59.89,5.25,129.58-2.23,259.16,3.92,388.79-7.71,63.73-5.72,110.88-37.25,158.18-73.4,5.26-4.02,11.95-6.16,17.97-9.17" fill="none" stroke="#000" stroke-linecap="round" stroke-linejoin="round" stroke-width="18.08"/><path d="M1185.24,9.04c-121.96,33.76-209.51,115.32-289.29,207.86-57.51,66.71-120.83,127.11-194.29,176.3" fill="none" stroke="#000" stroke-linecap="round" stroke-linejoin="round" stroke-width="18.08"/><path d="M1162.64,655.32c-5.37,40.81-41.34,55.3-68.11,76.42-93.7,73.94-202.4,117.22-316.06,149.5-11.94,3.39-24.09,6.08-36.14,9.09" fill="none" stroke="#000" stroke-linecap="round" stroke-linejoin="round" stroke-width="18.08"/><path d="M588.67,207.9c-41.76,28.36-67.73,69.59-90.07,113.15-13.63,26.58-31.06,38.56-58.94,22.22-24.3-14.24-43.16-.4-63.42,9.19-44.43,21.02-66.04,66.46-103.13,95.96-30.72,24.43-62.43,46.49-95.7,66.8" fill="none" stroke="#000" stroke-linecap="round" stroke-linejoin="round" stroke-width="18.08"/><path d="M597.71,203.38c58.87,53.42,74.7,128.39,99.01,199,1.7,4.92-2.59,11.91-4.1,17.93" fill="none" stroke="#000" stroke-linecap="round" stroke-linejoin="round" stroke-width="18.08"/><path d="M100.57,501.66c89.02,13.57,136.78,83.12,177.69,148.81,26.22,42.09,9.93,101.27-14.99,149.48" fill="none" stroke="#000" stroke-linecap="round" stroke-linejoin="round" stroke-width="18.08"/><path d="M534.44,253.09c-28.23-2.45-30.08-45.95-68.86-39.51-35.24,29.27-41.83,77.47-57.69,120.86" fill="none" stroke="#000" stroke-linecap="round" stroke-linejoin="round" stroke-width="18.08"/><path d="M281.35,483.58c65.19-7.07,110.43,37.14,162.7,63.27" fill="none" stroke="#000" stroke-linecap="round" stroke-linejoin="round" stroke-width="18.08"/></g></svg>