<?xml version="1.0" encoding="UTF-8"?><svg id="b" xmlns="http://www.w3.org/2000/svg" viewBox="0 0 1091.46 1074.05"><g id="c"><path d="M939.68,924.46c-3.95,16.51-12.81,18.53-26.34,9.58-5.68-3.76-12.41-11.87-19.21-3.83-5.23,6.19,2.02,11.74,5.81,16.63,5.59,7.23,15.22,15.29,5.29,23.55-11.29,9.4-19.13-2.25-24.3-10.17-16.69-25.57-29.14-18.01-44.98,1.83-26.03,32.62-55.54,62.23-89.34,87.07-8.9,6.54-18.43,12.55-28.39,17.29-34.6,16.43-53.71,6.41-51.74-31.28,1.69-32.3-11.62-52.52-35.98-69.45-11.39-7.92-22.61-16.37-32.63-25.92-31.28-29.81-65.26-50.31-111.26-41.82-13.44,2.48-29.59.81-37.09-13.17-8.53-15.88,3.56-28.52,12.52-39.84,17.77-22.46,36.04-44.63,55.63-65.5,11.21-11.95,8.28-15.91-5.67-18.58-5.44-1.04-10.88-2.44-16.06-4.37-6.51-2.42-11.68-6.52-9.21-14.54,1.96-6.34,7.62-7.56,13.41-7.52,3.68.02,7.37.58,11.02,1.14,7.97,1.23,22.41,6.61,22.63,1.56.49-10.94-13.28-14.84-22.46-16.01-25.73-3.29-51.67-4.5-75.13-17.44-41.26-22.77-54.21-60.77-33.18-97.77,20-35.19,56.43-36.75,78.99-3.02,3.79,5.66,6.62,10,14.37,10.83,43.41,4.66,87.83-38.01,78.77-79.8-13-59.96-47.97-105.35-101.32-136.31-12.22-7.09-22.17-3-33.73,2.4-41.56,19.4-84.49,32.94-131.43,24.75-39.41-6.87-67.87-34.62-62.87-61.72,5.37-29.1,41.48-48.82,80.2-43.8,46.33,6,72.97-18.43,70.62-64.38-.55-10.78-8.79-13.21-16.12-16.76-87.88-42.43-236.66,3.14-272.16,116.35-10.02,31.96-3.31,62.22.71,93.29,1.89,14.65,4.34,29.46,3.98,44.13-.8,32.73-33.03,49.96-61.48,33.32-29.74-17.39-41.69-46.21-47.46-78.16-19.81-109.66,33.45-215.64,135.35-272.39,84.23-46.91,172.33-59.04,265.42-32.93,23.4,6.56,46.2,13.93,63.51-13.61,11.19-17.81,5.17-26.23-11.88-29.64-19.15-3.83-38.77-2.62-58.05.76-14.74,2.58-29.58,4.07-44.09.14-15.46-4.2-30.25-10.26-34.26-28.55-3.77-17.22,3.14-30.44,15.29-42.19,20.86-20.18,47.87-25.12,74.37-26.69,130.57-7.73,257.95,5.87,372.95,74.06,128.81,76.39,194.45,197.19,224.88,339.26,13.31,62.13,7.49,125.47-.59,188.1-1.93,14.93.24,25.5,11.71,36.83,28.29,27.96,37.35,62.86,30.25,102.13-4.61,25.49-8.92,51.06-12.49,76.71-2.33,16.73,3.51,26.94,22,32.25,30.5,8.75,40.03,33.44,27.9,63.65-20.33,50.63-82.83,66.1-124.72,30.69-7.75-6.55-14.77-13.98-22.13-21-3.57-14.36-6.73-28.84-10.86-43.04-2.47-8.5,3.33-23.08-5.59-24.53-9.95-1.62-13.13,13.44-19.32,21.18-7.72,9.66-4.42,16.11,5.26,22.46,10.79,7.07,20.5,15.78,30.68,23.78ZM473.63,23.92c-10.19,0-20.39-.06-30.58.01-29.75.19-59.49.73-85.9,17.3-8.01,5.02-16.22,11.33-13.38,22.03,2.67,10.07,12.81,9.54,20.94,9.63,24.09.26,48.19-.39,72.28-.13,21.85.23,42.22,5.18,58.71,20.95,11.06,10.58,13.68,21.47,2.87,33.94-16.37,18.9-32.56,37.83-43.94,60.55-4.51,9.01-18.16,15.56-19.69,1.95-2.51-22.37-17.57-20.8-30.96-23.52-24.49-4.97-49.13-11.58-73.88-12.43-117.66-4.07-216.19,36.26-278.14,139.46-36.27,60.43-40.6,128.41-6.58,194.15,6.41,12.39,16.95,24.37,32.95,19.53,18.4-5.57,12.96-21.05,11.06-35.03-5.35-39.3-13.14-78.21-3.87-118.48,28.76-124.84,197.2-184.58,296.19-140.65,9.12,4.05,17.93,10.09,28.99,6.8,17.07-5.07,20.13,3.43,16.02,17.54-5.69,19.56-12.5,38.8-17.72,58.47-10.03,37.78-34.91,55-73.88,49.15-11.97-1.8-23.92-4.91-35.75-1.75-12.88,3.44-24.7,9.37-26.07,25.09-1.3,14.89,9.21,20.92,20.45,26.45,9.44,4.65,19.47,5.55,29.71,6.05,50.16,2.45,94.79-11.56,134.79-42.42,10.93-8.44,30.85-25.57,26.1,10.89-1.21,9.25,8.59,11.09,14.31,15.07,38.99,27.07,67.46,62.32,88.26,105.17,43.2,88.97-22.63,143.91-92.6,150.04-15.02,1.31-30.46-.75-34.44-20.09-1.57-7.66-3.71-14.72-12.91-15.74-10.52-1.16-18.1,4.32-22.85,12.84-10.73,19.27-9.44,37.53,7.74,52.63,25.39,22.33,55.85,28.16,88.3,24.15,33.4-4.13,65.59-12.43,92.53-34.42,5.35-4.37,11.42-7.33,17.22-1.15,4.78,5.09,2.61,11.06-1.7,14.78-23.87,20.62-30.56,52.62-50.83,75.63-30.62,34.75-60.86,69.85-90.99,105.02-4.51,5.26-12.99,10.33-8.51,18.67,4.43,8.25,13.29,3.27,20.32,3.67,20.74,1.16,42.89-10.23,62.02,4.78,37.9,29.73,75.18,60.25,112.66,90.51,12.33,9.95,17.53,22.86,18.19,38.84.51,12.36-7.44,29.94,5.41,35.97,12.79,6,24.74-8.93,36.43-15.61,7.89-4.5,14.19-11.82,21.1-17.99,62.66-55.99,110.24-124.84,162.36-189.86,16.37-20.42,23.13-38.33-3.21-55.37-6.07-3.93-10.15-9.2-5-15.99,4.75-6.25,11.19-4.34,17.6-1.54,19.33,8.45,33.58,37.61,29.77,60.07-5.29,31.26-8.25,62.71,3.16,93.28,8.18,21.92,25.21,34.26,48.11,36.94,22.2,2.6,40.03-7.23,52.62-24.91,14.96-21.02,7.21-41.17-18.21-43.75-21.45-2.18-24.5-15.2-27.31-31.72-5.65-33.23,6.08-64.28,11.08-96.13,5.01-31.91,2.58-63.15-22.39-84.92-22.01-19.19-22.11-40.32-18.36-64.97,8.1-53.28,12.59-106.46,3.1-160.38-22.44-127.45-79.3-235.37-183.15-313.95-97.21-73.55-211.88-93-330.59-95.1Z" stroke-width="0"/><path d="M473.63,23.92c118.71,2.1,233.38,21.55,330.59,95.1,103.85,78.58,160.71,186.5,183.15,313.95,9.49,53.91,5,107.1-3.1,160.38-3.75,24.65-3.64,45.78,18.36,64.97,24.96,21.77,27.39,53,22.39,84.92-5,31.85-16.73,62.89-11.08,96.13,2.81,16.52,5.86,29.54,27.31,31.72,25.42,2.58,33.17,22.73,18.21,43.75-12.59,17.69-30.42,27.51-52.62,24.91-22.9-2.68-39.93-15.02-48.11-36.94-11.41-30.57-8.45-62.02-3.16-93.28,3.8-22.46-10.44-51.63-29.77-60.07-6.41-2.8-12.86-4.71-17.6,1.54-5.16,6.79-1.07,12.06,5,15.99,26.34,17.04,19.58,34.94,3.21,55.37-52.12,65.02-99.71,133.87-162.36,189.86-6.91,6.17-13.21,13.49-21.1,17.99-11.7,6.67-23.64,21.61-36.43,15.61-12.85-6.03-4.91-23.61-5.41-35.97-.66-15.98-5.87-28.89-18.19-38.84-37.48-30.26-74.77-60.78-112.66-90.51-19.12-15-41.28-3.62-62.02-4.78-7.03-.39-15.89,4.58-20.32-3.67-4.48-8.34,4-13.41,8.51-18.67,30.13-35.18,60.38-70.27,90.99-105.02,20.27-23.01,26.96-55.02,50.83-75.63,4.31-3.72,6.48-9.69,1.7-14.78-5.8-6.18-11.87-3.22-17.22,1.15-26.95,21.99-59.14,30.29-92.53,34.42-32.45,4.02-62.91-1.82-88.3-24.15-17.18-15.11-18.48-33.37-7.74-52.63,4.75-8.52,12.33-14,22.85-12.84,9.2,1.02,11.33,8.08,12.91,15.74,3.98,19.34,19.42,21.41,34.44,20.09,69.97-6.13,135.79-61.07,92.6-150.04-20.8-42.85-49.27-78.1-88.26-105.17-5.72-3.97-15.51-5.82-14.31-15.07,4.76-36.46-15.16-19.33-26.1-10.89-39.99,30.86-84.62,44.88-134.79,42.42-10.24-.5-20.27-1.4-29.71-6.05-11.23-5.54-21.75-11.56-20.45-26.45,1.37-15.73,13.19-21.65,26.07-25.09,11.84-3.16,23.78-.05,35.75,1.75,38.97,5.85,63.86-11.37,73.88-49.15,5.22-19.67,12.03-38.92,17.72-58.47,4.1-14.1,1.05-22.61-16.02-17.54-11.06,3.29-19.88-2.75-28.99-6.8-99-43.94-267.44,15.81-296.19,140.65-9.28,40.27-1.49,79.18,3.87,118.48,1.9,13.98,7.34,29.47-11.06,35.03-15.99,4.84-26.53-7.15-32.95-19.53-34.02-65.73-29.69-133.72,6.58-194.15,61.94-103.19,160.48-143.53,278.14-139.46,24.75.86,49.39,7.46,73.88,12.43,13.39,2.72,28.45,1.15,30.96,23.52,1.53,13.61,15.18,7.06,19.69-1.95,11.38-22.71,27.57-41.65,43.94-60.55,10.8-12.47,8.18-23.36-2.87-33.94-16.49-15.77-36.85-20.72-58.71-20.95-24.09-.25-48.19.39-72.28.13-8.14-.09-18.27.44-20.94-9.63-2.84-10.7,5.37-17,13.38-22.03,26.41-16.57,56.15-17.1,85.9-17.3,10.19-.07,20.39-.01,30.58-.01ZM773.25,768.08c-1.81-10.6-6.95-18.88-16.49-13.62-16.27,8.97-32.89,13.8-51.17,16-6.46.77-12.64,8.39-10.74,17.12,1.65,7.58,9.52,5.97,14.07,8.61,13.24,7.68,31.82,8.84,38.64,24.97,2.66,6.3,2.85,13.53,11.31,11.81,9.18-1.88,15.22-10.27,13.5-18.43-3.4-16.11-10.53-31.58.87-46.45ZM800,891.36c-3.62-16.68-13.56-27.84-31.47-28.88-12.94-.75-22.1,7.13-20.97,20.06,1.45,16.52,12.77,26.26,29.33,27.78,12.71,1.17,21.02-5.07,23.11-18.97ZM633.82,756.1c-13.92.22-23.78,5.37-22.79,18.96,1.21,16.53,12.46,26.22,28.57,28.03,12.82,1.44,22.3-6.08,21.46-18.86-1.08-16.28-12.29-25.51-27.24-28.13Z" fill="#fff" stroke-width="0"/><path d="M939.68,924.46c-10.18-8-19.9-16.7-30.68-23.78-9.68-6.35-12.98-12.8-5.26-22.46,6.18-7.74,9.37-22.8,19.32-21.18,8.92,1.45,3.12,16.03,5.59,24.53,4.14,14.2,7.29,28.67,10.86,43.04,0,0,.18-.15.18-.15Z" fill="#fff" stroke-width="0"/><path d="M773.25,768.08c-11.4,14.87-4.27,30.34-.87,46.45,1.72,8.16-4.32,16.55-13.5,18.43-8.46,1.73-8.65-5.5-11.31-11.81-6.81-16.13-25.4-17.29-38.64-24.97-4.55-2.64-12.42-1.03-14.07-8.61-1.9-8.74,4.28-16.35,10.74-17.12,18.28-2.19,34.9-7.03,51.17-16,9.53-5.25,14.68,3.02,16.49,13.62Z" stroke-width="0"/><path d="M800,891.36c-2.09,13.9-10.4,20.13-23.11,18.97-16.56-1.52-27.88-11.26-29.33-27.78-1.13-12.93,8.03-20.81,20.97-20.06,17.92,1.04,27.85,12.19,31.47,28.88Z" stroke-width="0"/><path d="M633.82,756.1c14.95,2.62,26.16,11.85,27.24,28.13.85,12.78-8.63,20.3-21.46,18.86-16.11-1.81-27.36-11.51-28.57-28.03-1-13.59,8.86-18.74,22.79-18.96Z" stroke-width="0"/><path d="M447.45,164.96c15.18-7.07,22.38-22.22,33.04-33.69,18.42-19.83,15.41-29.59-10.84-41.33-23.26-10.4-48.2-5.79-72.21-4.77-9,.38-18.59,1.25-27.85,1.7-16.24.78-33.94-.72-38.29-19.43-4.33-18.62,7.04-30.3,24.1-39.37,17.06-9.08,35.66-14.51,53.17-15.29,104.17-4.64,207.8,2.05,305.61,41.42,114.05,45.9,190.6,130.05,243.03,241.09,48.56,102.85,53.04,208.48,37.7,317.56-1.29,9.19-6.15,18.29,3.17,24.97,49.18,35.2,46.32,83.46,32.72,133.51-2.77,10.2-2.71,20.6-6.7,31.16-10.49,27.8,2.28,47.28,32.29,58.02,19.06,6.82,28.16,30.25,19.46,50.08-11.46,26.13-38.02,42.74-66.73,41.73-28.61-1-48.17-19.37-61.93-46.92-12.35-24.74-.95-51.86-13.14-75.5" fill="none" stroke="#000" stroke-linecap="round" stroke-linejoin="round" stroke-width="11.13"/><path d="M466.91,376.41c46.09,29.71,84.4,65.88,108.84,116.66,37.14,77.15-6.57,124.73-86.62,136.35-7.72,1.12-15.9-2.51-16.32-10.97-1.03-20.46-11.7-30.28-30.86-27.39-20.92,3.16-32.59,17.73-36.21,38.53-6.63,38.09,24.68,59.26,58.25,72.68,21.08,8.43,43.25,1.52,64.09,8" fill="none" stroke="#000" stroke-linecap="round" stroke-linejoin="round" stroke-width="11.13"/><path d="M441.89,198.35c7.95-33.77,7.7-32.75-30.52-42.02-38.52-9.34-77.2-18.88-116.82-16.03-108.2,7.79-221.85,63.8-265.66,172.64-22.92,56.94-28.15,118.55,3.49,177.96,8.49,15.95,21.16,23.15,34.45,29.55,14.21,6.84,35.43-10.33,35.62-27.18.15-13.9.96-28.6-2.97-41.61-34.12-113.19,38.69-203.56,150.52-233.96,51.15-13.91,99.91-6.84,147.23,14.42,5.33,2.39,16.02,4.14,13.78,13.46-5.61,23.4-7.81,49.68-20.48,68.75-13.9,20.93-38.86,25.21-65.7,15.56-16.37-5.89-34.8.44-49.61,10.59-11.06,7.59-19.29,18.65-16.63,33.11,4.17,22.7,23.53,35.38,41.64,37.92,63.73,8.96,122.65-5.18,172.24-49.01" fill="none" stroke="#000" stroke-linecap="round" stroke-linejoin="round" stroke-width="11.13"/><path d="M461.35,877.21c9.11,10.82,19.6,10.21,33.43,9.39,25.57-1.51,52.39-7.72,75.58,15.08,23.4,23.01,51.02,41.8,77.39,61.66,23.52,17.72,33.85,39.17,31.19,69.74-2.87,32.87,7.08,37.5,35.49,22.27,51.37-27.53,86.48-72.78,124.82-114.39,9.24-10.03,15.75-22.45,30.84-24.8" fill="none" stroke="#000" stroke-linecap="round" stroke-linejoin="round" stroke-width="11.13"/><path d="M547.55,760.36c-12.65,31.35-43.68,47.4-62.14,74.46-9.78,14.34-18.73,30.52-32.39,42.4" fill="none" stroke="#000" stroke-linecap="round" stroke-linejoin="round" stroke-width="11.13"/><path d="M914.57,754.79c38.95,26.11,40.03,50.08,5.78,83.69-19.62,19.25-38.34,39.95-41.93,69.33" fill="none" stroke="#000" stroke-linecap="round" stroke-linejoin="round" stroke-width="11.13"/><path d="M758.86,768.7c-11.18,10.01-17.3,28.53-39.7,12.19-11.7-8.53-16.57,6.59-15.91,18.42" fill="none" stroke="#000" stroke-linecap="round" stroke-linejoin="round" stroke-width="11.13"/><path d="M544.77,754.79c-17.61-3.71-35.22-7.42-52.83-11.13" fill="none" stroke="#000" stroke-linecap="round" stroke-linejoin="round" stroke-width="11.13"/><path d="M897.89,963.46c-6.49-7.42-15.52-13.89-18.74-22.53-3.15-8.44-13.29-16.59-6.26-27.53,8.01-12.45,19.67-3.8,27.54-1.84,10.25,2.55,18.78,12.02,28.04,18.51" fill="none" stroke="#000" stroke-linecap="round" stroke-linejoin="round" stroke-width="11.13"/><path d="M625.4,772.88c6.49,4.17,12.98,8.35,19.46,12.52" fill="none" stroke="#000" stroke-linecap="round" stroke-linejoin="round" stroke-width="11.13"/></g></svg>