<?xml version="1.0" encoding="UTF-8"?><svg id="b" xmlns="http://www.w3.org/2000/svg" viewBox="0 0 1141.34 820.55"><g id="c"><path d="M1125.79,810.26c18.31-33.84,3.13-67.62-4.33-99.3-41.75-177.27-179.82-280.42-355.96-295.55-34.45-2.96-69.16-6.7-102.76-14.39-17.79-4.07-33.08-13.29-46.17-32.49-44.33-65.04-68.14-140.1-108.12-207.01-29.24-48.95-58.39-97.61-96.21-140.67-16.06-18.28-29.8-19.04-44.84.15-20.07,25.59-33.13,54.65-40.87,85.88-4.96,20.01-12.9,37.08-33.49,50.98-43.98-34.22-82.43-76.68-134.42-101.74-27.63,22.95-20.37,53.7-16.2,77.9,7.24,42-3.71,67.9-38.23,94.19-41.79,31.84-66.89,77.57-73.79,132.45-3.49,27.77-19.27,53.18-20.84,82.4-.34,6.23-4.41,16-1.89,20.32,35.68,61.04,70.96,122.4,122.85,172.03,32.72,31.3,63.62,64.51,96.39,95.75,25.73,24.52,47.5,51.76,65.02,82.55" fill="none" stroke="#000" stroke-linecap="round" stroke-linejoin="round" stroke-width="13.73"/><path d="M377.73,371.03c-33.11-3.23-65.76-11.69-99.55-7.12-11.26,1.53-23.06-.18-27.42,13.98" fill="none" stroke="#000" stroke-linecap="round" stroke-linejoin="round" stroke-width="13.73"/><path d="M106.65,432.8c1.23,10.18,5.27,14.65,17.17,14.14,29.69-1.26,59.46-.41,89.2-.41" fill="none" stroke="#000" stroke-linecap="round" stroke-linejoin="round" stroke-width="13.73"/><path d="M405.18,103.37c7.6,22.65-2.23,50.54,20.59,68.63" fill="none" stroke="#000" stroke-linecap="round" stroke-linejoin="round" stroke-width="13.73"/><path d="M34.58,371.03c11.26,8.27,27.79-2.77,37.75,10.29" fill="none" stroke="#000" stroke-linecap="round" stroke-linejoin="round" stroke-width="13.73"/><path d="M350.28,473.97c-10.09,18.3,5.75,36.6,0,54.9" fill="none" stroke="#000" stroke-linecap="round" stroke-linejoin="round" stroke-width="13.73"/></g></svg>