<?xml version="1.0" encoding="UTF-8"?><svg id="b" xmlns="http://www.w3.org/2000/svg" viewBox="0 0 1049.66 1059.78"><g id="c"><path d="M568.64,1012.67c-32.44,37.85-75.78,36.09-114.9,21.72-64.4-23.65-141.44-31.19-171.44-109.75-3.83-10.04-10.26-11.37-18.34-5.51-33.7,24.45-79.46,12.35-111.48,36.2-6.61,4.92,13.75,26.32,28.86,32.42,13.22,5.34,28.4,5.91,41.49,11.48,16.86,7.18,23.11,21.97,18.84,39.86-4.18,17.49-17.62,19.87-33.48,20.54-87.4,3.71-163.14-62.83-169.44-149.14-1.62-22.22,8.59-37.62,26.39-47.9,34.74-20.04,42.14-46.6,21.61-80.78-28.22-46.96-23.22-97.22-20.72-149.28,4.98-103.43-46.57-196.37-62.5-296.49C-15.83,214.3,46.2,64.7,140.22,17.53c8.62-4.33,17.32-8.75,26.43-11.79,13.58-4.52,29.67-11.71,39.66,3.27,8.33,12.49-2.28,24.82-10.19,34.62-53.13,65.8-83.01,141.73-93.82,224.56-10.34,79.24-6.83,157.32,31.08,231.08,10.7,20.81,18.66,28.6,43.53,20.49,136.7-44.6,273.22-39.18,406.79,12.04,107.02,41.03,200.9,11.77,282.07-55.81,43.33-36.07,94.42-13.13,136.71-37.47,9.77-5.62,15.19,7.85,9.32,18.71-9.94,18.4-20.29,36.58-30.47,54.85-1.78,5.06-5.35,7.74-10.68,8.04-11.92,9.35-7.5-37.22-26.14-7.56-3.49,5.55-14.6,5.06-16.44-1-13.33-43.86-34.92-18.26-52.35-5.7-105.58,76.04-214.68,81.67-338.25,40.37-113.51-37.94-234.68-44.22-350.9,1.02-41.37,16.11-59.97,3.55-76.98-34.61-68.1-152.78-45.87-297.74,31.92-439.29,6.16-11.22,15.96-20.18,22.29-38.56C75.75,87.21,42.18,165.35,32.82,256.87c-8.59,83.99,18.24,162.57,41.39,241.4,17.41,59.29,26.35,119.31,17.89,180.94-4.38,31.94,4.49,60.51,18.37,88.42,19.92,40.07,21.55,77.14-17.11,108.36-22.35,18.04-21.87,40.2-11.52,65.37,28.91,70.29,51.06,88.11,108.49,84.05-34.1-3.14-61.41-33.1-62.67-68.71-1.24-35.1,26.44-36.7,49.53-40.5,46.35-7.64,86.98-23.26,113.02-65.56,11.8-19.17,30.68-21.14,51.1-18.92,56.7,6.17,114.17,21.62,164.66-23.34,10.85-9.67,23.54,5.73,31.94,14.75,23.06,24.76,46.49,49.21,69.08,74.38,29.43,32.8,28.12,45.15-6.85,74.41-10.51,8.79-17.39,18.57-21.49,31.09-2.06,4.54-5.41,7.74-9.98,9.66Z" stroke-width="0"/><path d="M826.36,751.57c-25.11,44.17-59.92,80.94-57.25,140.75,1.85,41.34-15.3,89.34-77.93,90.08-16.04.19-31.64,19.62-47.83,29.58-24.6,15.13-49.61,22.37-74.7.69,1.97-2.06,3.94-4.12,5.91-6.19,16.17-12.01,37.2-8.47,54.62-17.89,46.8-25.32,58.69-69.31,28.9-112.81-4.54-6.63-10.36-12.43-14.28-19.48-6.25-11.23-15.28-24-6.27-35.81,11.85-15.53,23.36-.95,32.74,5.58,33.85,23.57,56.94,3.42,80.66-17.69,22.55-20.07,32.66-52.87,64.74-63.14,4.99-.28,8.62,1.72,10.68,6.35Z" stroke-width="0"/><path d="M981.32,512.08c25.16,12.46,38.03,34.13,42.67,60.52,5.17,29.43,6.32,57.99,21.89,86.73,18.44,34.05-34.16,80.75-81.36,70.44-50.27-10.99-94.92-3.3-138.17,21.8-2.08-2.25-4.18-4.47-6.33-6.66,22.45-40,61.91-54.6,123.45-45.69,49.42,7.16,73.85-22.42,60.18-69.48-10.6-36.48-14.44-74.81-28.18-110.59,1.94-2.36,3.89-4.71,5.85-7.06Z" stroke-width="0"/><path d="M975.48,519.14c23.33,17.82,33.35,41.28,33.41,70.72.03,15.68,1.44,33.33,8.61,46.64,16.7,31.01,3.94,39.82-20.44,62.22-25.52,23.46-41.83,10.4-62.76,9.92-42.3-.97-83.03,2.55-114.27,36.25-18.24,14.1-28.29,34.49-41.29,52.76-41.39,58.18-84.25,65.25-140.58,24.5,28.44,47.21,82.46,91.42,30.65,150.6-23.47,26.81-54.3,46.47-94.25,33.71-10.14-21.24-16.05-38.35,17.51-45.48,37.55-7.97,30.47-31,10.73-52.52-30.38-33.11-61.84-65.23-95.87-100.95,5.93,27.11-3.63,38.82-30.19,36.98-14.13-.98-29,6.7-42.93,5.11-70.64-8.07-137.35-12.39-186.86,56.68-16.08,22.43-53.43,19.94-81.85,23.62-39.35,5.1-36.79,22.82-19.01,48.49,7.13,10.3,39.31,29.25,52.06,30.2,13.9,1.04,27.07,4.71,26.01,21.64-.96,15.34-13.34,14.39-25.38,13.96-72.71-2.59-131.47-56.64-141.42-129.11-2.89-21.04,5.82-33.19,22.3-43.59,35.52-22.4,47.62-52.44,23.09-89.6-33.92-51.39-19.08-107.24-19.4-162.43-.51-88.16-40.33-168.22-57.83-253.09-21.05-102.1-2.51-194.76,56.78-279.97,25.89-37.21,60.93-59.52,115.39-71.57-55.12,68.91-90.82,137.42-105.47,216.04-19.77,106.09-12.72,207.58,40.1,304.37,8.66,15.86,14.82,12.56,24.86,8.2,104.87-45.56,213.69-38.16,323.39-26.24,56.63,6.15,106.14,35.13,162.57,43.89,49.06,7.62,92.64,4.8,135.3-17.85,50.81-26.98,100.95-55.24,150.72-82.59,19.66,16.31-6.1,34.51,5.54,51.34,23.65-8.49,9.55-56.36,50.13-45.02,9.75,17.68-38.56,29.29-9.34,52.14Z" fill="#fefefe" stroke-width="0"/><path d="M511.31,857.82c17.45-2.04,88.73,56.67,87.91,72.38-1.16,22.22-25.7,11.08-36.66,23.46-7.89,8.92.19,36.2-27.87,27.11-45.1-14.6-97.89-10.93-132.76-48.99-18-19.65,6.13-63.2,32.86-65.78,25.53-2.47,51.01-5.44,76.52-8.19Z" fill="#fbfbfb" stroke-width="0"/><path d="M390.12,890.23c-10.53,42.27,4.71,59.65,28.23,71.08,30.27,14.71,60.63,29.64,95.73,29.58,11.56-.02,24.62,3.71,24.56,17.27-.07,14.48-15.08,15.64-25.44,16.18-27.48,1.43-54.65-3.36-80.23-13.13-32.92-12.57-64.83-27.76-97.54-40.91-30.44-12.24-39.84-39.53-38.41-66.29,1.07-20.09,2.82-55.01,38.75-46.75,22.42,5.15,67.01-4.66,54.35,32.97Z" fill="#f9f9f9" stroke-width="0"/><path d="M754.21,854.36c7.17,34.64-2.65,64.38-20.82,92.31-6.69,10.28-16.08,19.01-27.67,13.36-12.26-5.97-1.31-16.69.22-25.15,5.93-32.66-18.31-82.06,48.27-80.52Z" fill="#fafafa" stroke-width="0"/></g></svg>