<?xml version="1.0" encoding="UTF-8"?><svg id="b" xmlns="http://www.w3.org/2000/svg" viewBox="0 0 1080.62 1003.71"><g id="c"><path d="M822.81,399.74c30.09-19.41,66.57-21.58,98.38-37.27,57.27-28.24,110.04-61.7,137.71-121.49,39.23-84.75,6.59-192.08-69.82-229.17-25.12-12.19-84.92-7.44-101.09,10.22-8.41,9.19-15.26,17.31-9.86,30.44,5.21,12.67,15.99,14.96,27.72,15.02,23.9.12,46.19,2.79,65.68,19.92,33.46,29.41,35.99,90.44,1.7,130.65-46.53,54.56-109.06,83.66-177.94,101.76-34.71,9.12-60.55.25-91.5-16.89-79.17-43.84-164.87-54.7-253.44-29.06-46.35,13.42-88.14,36.56-125.44,65.94-64.65,50.92-126.07,104.94-172.22,175.2-38.19,58.14-67.98,119.47-92.77,184.03-12.89,33.56-30.81,65.17-44.45,98.48-6.07,14.83-8.65,31.56-10.09,47.67-1.33,14.81.64,30.71,17.27,37.49,15.52,6.33,30.53,15.99,48.06.59,20.1-17.65,33.39-38.49,42.63-63.22,25.48-68.14,51.83-135.96,77.83-203.91" fill="none" stroke="#000" stroke-linecap="round" stroke-linejoin="round" stroke-width="10.07"/><path d="M812.75,394.71c20.44,25.22,31.9,54.54,40.43,85.52,10.43,37.88,13.2,78.5,33.15,112.94,14.37,24.8,26.78,50.41,39.51,75.92,23.19,46.49,44.96,93.57,60.75,143.3,12.98,40.9,17.9,82.08,4.48,123.25-10.34,31.7-25.23,39.96-49.97,32.83" fill="none" stroke="#000" stroke-linecap="round" stroke-linejoin="round" stroke-width="10.07"/><path d="M802.68,528.08c24.84,21.47,43.13,49.96,53.65,78.64,13.83,37.72,33.13,72.66,47.25,110.01,18.22,48.19,44.17,93.32,50.62,145.99,4.09,33.32,1.15,64.76-10.67,95.67-10.47,27.37-72.79,43.61-95.56,25.19-19.67-15.91-17.19-44.43,5.03-57.88,5.18-3.13,10.37-6.24,15.39-9.26-24.87-67.69-56.65-89.6-126.13-93.86-48.07-2.94-95.14-7.98-138.68-32.29-26.22-14.64-51.19-31.1-69.47-53.91-18.44-23.01-20.03-54.1-24.98-82.63-.52-3.03-.83-8.23-.91-12.43" fill="none" stroke="#000" stroke-linecap="round" stroke-linejoin="round" stroke-width="10.07"/><path d="M306.92,719.34c-38.5,46.29-81.38,90.49-104.44,146.48-14.85,36.05-37.11,64.02-60.99,93.14-23.01,28.06-51.32,32.66-83.71,32.35-24.74-.24-35.08-18.14-44.85-35.66-4.73-8.48-2.14-19.36,4.67-27.36,9.26-10.88,21.81-18.97,27.6-32.79" fill="none" stroke="#000" stroke-linecap="round" stroke-linejoin="round" stroke-width="10.07"/><path d="M523.34,731.92c-54.12.6-104.3,17.2-153.51,37.75" fill="none" stroke="#000" stroke-linecap="round" stroke-linejoin="round" stroke-width="10.07"/><path d="M228.91,905.56c-11.65,41.61-39.11,69.13-78.26,84.94-5.3,2.14-9.55,3.3-12.33,8.17" fill="none" stroke="#000" stroke-linecap="round" stroke-linejoin="round" stroke-width="10.07"/><path d="M344.67,736.96c14.92,13.61,22.09,27.39,18.88,50.51-4.4,31.76-21.65,57.88-29.48,87.76-3.38,12.9-16.45,16.83-29.66,15.18-25.27-3.16-49.43-3.68-73.46,9.24-8.79,4.73-23.3,3.25-34.76-1.63" fill="none" stroke="#000" stroke-linecap="round" stroke-linejoin="round" stroke-width="10.07"/><path d="M427.72,289.01c6.48,17.89,11.72,36,10.07,55.36" fill="none" stroke="#000" stroke-linecap="round" stroke-linejoin="round" stroke-width="10.07"/><path d="M314.47,895.5c2.95,19.05,13.9,35.05,20.13,52.85" fill="none" stroke="#000" stroke-linecap="round" stroke-linejoin="round" stroke-width="10.07"/><path d="M337.12,885.43c14.23,15.26,31.38,28.06,40.26,47.81" fill="none" stroke="#000" stroke-linecap="round" stroke-linejoin="round" stroke-width="10.07"/><path d="M357.25,331.8c12.19,9.63,16.85,22.78,17.62,37.75" fill="none" stroke="#000" stroke-linecap="round" stroke-linejoin="round" stroke-width="10.07"/><path d="M301.89,377.09c9.95,8.71,10.65,22.4,17.62,32.71" fill="none" stroke="#000" stroke-linecap="round" stroke-linejoin="round" stroke-width="10.07"/><path d="M311.96,822.52c3.73,13.04,14.39,19.16,25.17,25.17" fill="none" stroke="#000" stroke-linecap="round" stroke-linejoin="round" stroke-width="10.07"/></g></svg>