<?xml version="1.0" encoding="UTF-8"?><svg id="b" xmlns="http://www.w3.org/2000/svg" viewBox="0 0 715.8 1069.05"><g id="c"><path d="M232.65,173.01c-7.27,10.11-13.31,18.5-19.18,26.66-2.2-1.05-4.14-1.57-4.13-2.04.46-16.47,4.01-31-10.96-47.01-8.71-9.32-4.72-33.86,17.69-42.59,17.48-6.8,17.03-23.59,18.12-39.84C238.25,7.3,242.7,3.54,304.96.86c50.96-2.2,101.22-3.6,138.44,41.65,17.34,21.07,33.89,2.11,50.39-4.46,26.4-10.51,54.96-46.4,79.49-21.18,22.79,23.43-15.3,48.91-26.52,72.65-20.29,42.89-17.17,96.56-61.76,129.19-11.46,8.39-4.97,30.46,3.77,44.22,34.99,55.1,45.15,114.55,41.22,179.46-2.27,37.47,11.97,74.34,35.53,105.57,26.56,35.22,38.41,75.12,39.61,118.85,1.37,49.95,13.43,95.75,47.44,134.98,24.54,28.31,33.95,63.55,33.46,100.95-.3,22.65-14.77,45,21.32,60.88,19.14,8.42,2.05,40.81-14.64,50.31-48.9,27.82-100.04,57.3-158.86,28.99-19.61-9.44-33.49.88-48.6,5.65-138.4,43.72-270.42,9.98-401.93-31.51-4.43-1.4-8.9-3.6-12.53-6.46-28.45-22.37-76.19-32.55-70.29-79.28,5.49-43.49,47.96-59.42,82.5-77.11,19.61-10.05,45.84-15.96,59.44,7.26,14,23.91-19.7,26.25-28.59,43.67,20.26,19,45.72,23.69,76.66,31.72-24.84-90.9-6.32-171.35,39.82-247.03,4.39-7.2,4.98-18.67,3.24-27.34-12.89-64.13-4.55-128.85-6.97-193.24-2.17-57.79,5.08-112.29,34.66-163.56,29.29-50.76-8.82-89.01-28.6-132.66Z" stroke-width="0"/><path d="M269.62,950.51c-63,6.05-70.83-29.33-73.46-78.26-3.11-57.97,12.71-108.63,40.3-157.14,12.22-21.49,15.08-42.02,11.9-67.12-11.13-87.74-18.68-180.4,2.32-262.88,20.38-80.07,39.6-148.07,1.32-227.52-11.89-24.68,1-66.02-2.5-99.99-1.71-16.67,9.32-29.89,23.9-38.02,31.36-17.5,125.21-7.21,146.6,22.58,25.65,35.73,49.64,29.02,79.5,11.1,18.67-11.21,38.37-20.68,63.62-27.29-46.34,50.55-30.73,128.04-84.14,174.96-13.91,12.22-20.16,30.55-9.83,47.2,43.09,69.42,44.9,147.07,49.14,224.86,1.07,19.67,6.42,42.72,18.2,57.55,42.66,53.75,50.89,116.81,57.25,181.27,2.82,28.55,10.4,56.19,29.17,78.47,43.86,52.03,62.75,107.96,27.58,175.43,17.39,2.07,30.94,3.68,44.8,5.33-14.7,39.12-105.31,78.67-141.89,64.54-16.39-6.33-14.3-17.75-14.9-30.21-.76-15.56,15-28.42,4.53-50.69-23.87,105.32-111.49,90.83-180,94.2-105.17,5.18-210.94-10.23-304.74-63.69-63.32-36.09-61.12-58.85.55-100.15,19.64-13.16,39.87-26.04,66.44-18.85-.92,19.11-37.25,16.41-26.62,41.54,8.29,19.59,28.4,23.79,45.55,30.74,43.68,17.71,77.6,21.61,125.41,12.04Z" fill="#fefefe" stroke-width="0"/><path d="M397.41,228.47c6.62-53.41,1.9-96.44-15.06-138.85-23.68,7.35-15.91,37.88-36.86,45.31-1.95-1.57-5.93-4.56-5.82-4.71,14.06-20.24,8.51-62.76,41.01-58.83,28.79,3.47,28.06,42.16,31.96,66.89,4.21,26.72,13.79,56.9-15.23,90.2Z" fill="#7c7c7c" stroke-width="0"/></g></svg>