<?xml version="1.0" encoding="UTF-8"?><svg id="b" xmlns="http://www.w3.org/2000/svg" viewBox="0 0 728.24 1176.14"><g id="c"><path d="M726.95,405.57c.76,81.02,5.84,162.26-11.1,242.46-8.63,40.85-25.08,78.37-47.34,113.72-11.64,18.49-25.63,24.32-43.7,11.81-21.8-15.09-45.09-13.74-70.04-13.24-95.54,1.94-190.74,17.03-286.53,7.72-15.96-1.55-32.7-1.87-47.48-7.19-24.6-8.86-44.89-1.7-64.97,10.79-60.3,37.5-91.02,127.95-65.97,194.33,20.43,54.15,65.79,71.24,117.55,77.36,51.98,6.14,102.21-3.83,150.96-21.14,44.62-15.84,88.65-33.38,133.14-49.6,20.16-7.35,41.03-12.27,62.78-11.77,34.52.79,60.52,16.03,74.88,47.58,13.55,29.8,2.1,55.54-18.06,77.7-38.9,42.76-88.29,69.85-144.09,79.84-97.67,17.48-195.33,13.18-290.31-17.97C65.99,1111.67,7.68,1041.85.58,940.26c-7.15-102.16,52.75-208.97,145.28-254.57,18.76-9.24,25.37-18.67,23.47-39.34-3.64-39.58-4.24-79.34-.85-119.21,4.66-54.84,25.1-101.93,63.43-141.37,20.87-21.48,42.81-42.2,68.18-57.76,79.53-48.77,118.3-120.73,126.44-211.88,2.45-27.39,8.35-54.45,16.69-80.72,9.42-29.68,25.42-33.83,48.97-13.58,2.9,2.49,6.4,4.78,8.19,7.97,27.46,48.68,72.14,34.98,113.88,31.51,11.14-.93,16.71-9.83,22.43-18.03,7.42-10.64,13.76-22.27,22.43-31.77,16.17-17.72,29.39-14.96,36.44,8.02,10.14,33.09,11.44,67.8,15.07,101.95,10.03,94.4,15.49,189.11,16.32,284.08ZM462.38,450.7c15.47,2.88,16.21,11.54,18.75,18.27,6.76,17.87,12.9,35.97,19.35,53.95,17.82,49.63,34.55,99.7,59.34,146.51,16.59,31.32,36.66,60.06,63.18,83.88,5.78,5.19,12.39,9.69,20.69,6.35,8.71-3.5,9.39-11.58,8.9-19.35-.82-12.95-1.5-26-3.72-38.75-9.16-52.56-35.42-99.13-52.72-148.86-2.88-8.28-11.26-17.62,3.14-26.97,21.89,25.21,24.01,60.57,44.98,86.32,10.4-18.68,7.1-42.02,28.53-58.19,6.95,31.71-11.3,54.32-15.84,79.47-5,27.72,7.61,51.6,15.19,80.87,22.36-41.24,32.46-81.91,34.42-123.92,6.79-145.43,1.94-290.7-10.87-435.67-3.86-43.7-8.64-87.46-18.56-132.24-68.55,91.13-138.09,83.49-209.4,3.37-17.78,45.3-24.84,89.04-30.06,132.66-6.51,54.43-30.97,98.48-68.46,136.68-29.07,29.63-62.13,54.44-95.92,78.23-42.02,29.58-68.33,69.58-80.15,119.05-18.01,75.39-7.63,150.63,2.77,225.75,2.24,16.16,13.88,22.97,28.59,25.44,79.14,13.32,158.21,9.83,237.14.24,2.27-38.57-5.16-46.53-41.5-46.61-18.33-.04-36.7.1-54.98-1.03-8.87-.55-19.32-1.45-22.92-12.04-3.43-10.09,2.92-17.65,9.36-24.25,14.97-15.32,30.68-29.93,45.44-45.44,37.2-39.12,34.99-97.94-4.52-135.11-5.38-5.06-13.49-7.69-15.59-17.01,11.77-13.06,20.54-2.34,28.11,4.84,41.44,39.3,54.47,112.77,6.32,160.41-15.8,15.63-34.7,28.68-48.73,51.53,15.52,0,27.51,0,39.5,0q67.69.02,83.46,65.44c30.36.29,61.05-.32,94.8-4.15-28.81-47.32-53.68-92.89-72.29-141.41-18.24-47.55-40.5-94.19-45.7-148.27ZM172.42,697.94c-5.21.74-7.66.56-9.64,1.44-93.27,41.52-135.14,118.13-143.12,215.47-7.34,89.55,34.76,153.11,112.9,192.98,104.34,53.22,214.83,62.04,328.32,38.92,52.6-10.72,100.68-31.72,136.52-74.1,13.83-16.36,24.59-34.63,15.48-56.56-9.74-23.44-30.45-33.25-54.35-36.79-9.88-1.46-19.7.17-29.57,2.13-45.4,9.02-86.75,29.25-129.35,46-63.28,24.88-127.96,41.24-196.88,34.27-95.59-9.67-147.9-71.89-138.94-166.45,2.26-23.82,9.38-46.42,19.91-67.87,20.71-42.2,53.02-72.11,97.67-88.53-3.17-14.46-5.91-27-8.95-40.9Z" stroke-width="0"/><path d="M462.38,450.7c5.2,54.08,27.46,100.72,45.7,148.27,18.61,48.51,43.48,94.09,72.29,141.41-33.75,3.83-64.43,4.44-94.8,4.15q-15.77-65.41-83.46-65.44c-11.99,0-23.98,0-39.5,0,14.03-22.86,32.94-35.9,48.73-51.53,48.15-47.64,35.12-121.1-6.32-160.41-7.57-7.18-16.33-17.9-28.11-4.84,2.09,9.32,10.2,11.94,15.59,17.01,39.51,37.17,41.73,95.99,4.52,135.11-14.76,15.52-30.47,30.12-45.44,45.44-6.44,6.6-12.79,14.16-9.36,24.25,3.6,10.59,14.05,11.5,22.92,12.04,18.28,1.12,36.65.98,54.98,1.03,36.34.08,43.77,8.05,41.5,46.61-78.93,9.59-158,13.08-237.14-.24-14.7-2.47-26.35-9.28-28.59-25.44-10.39-75.12-20.78-150.37-2.77-225.75,11.82-49.47,38.13-89.47,80.15-119.05,33.79-23.79,66.85-48.6,95.92-78.23,37.49-38.2,61.96-82.25,68.46-136.68,5.22-43.62,12.28-87.36,30.06-132.66,71.31,80.12,140.85,87.76,209.4-3.37,9.92,44.78,14.7,88.54,18.56,132.24,12.81,144.96,17.66,290.23,10.87,435.67-1.96,42.01-12.06,82.68-34.42,123.92-7.57-29.27-20.19-53.15-15.19-80.87,4.54-25.15,22.79-47.76,15.84-79.47-21.43,16.17-18.13,39.51-28.53,58.19-20.97-25.75-23.09-61.11-44.98-86.32-14.4,9.35-6.02,18.69-3.14,26.97,17.29,49.73,43.56,96.3,52.72,148.86,2.22,12.75,2.9,25.8,3.72,38.75.49,7.77-.19,15.85-8.9,19.35-8.29,3.33-14.91-1.17-20.69-6.35-26.53-23.82-46.59-52.56-63.18-83.88-24.79-46.8-41.52-96.88-59.34-146.51-6.46-17.98-12.59-36.08-19.35-53.95-2.55-6.73-3.28-15.39-18.75-18.27ZM574.88,244.39c2.5-19.92,26.94-30.5,23.19-52.44-11.07-2.63-13.34,7.72-20.22,7.58-6.95-3.17-9.6-13.52-19.19-10.38-4.22,1.38-6.61,6.1-4.18,8.95,11.17,13.09,10.75,30.51,20.41,46.29ZM527.35,188.11c9.46-1.96,14.28-7.93,14.05-17.63-.22-9.18-3.34-17.5-13.95-17.24-9.07.22-12.42,7.88-13.07,16.08-.74,9.4,2.73,16.34,12.97,18.79ZM629.18,153.97c-9.32,1.98-12.86,8.11-11.9,16.65.95,8.47,2.99,18.33,13.84,17.2,9.91-1.03,11.9-10.25,11.73-19.22-.18-9.13-5.1-13.7-13.66-14.63Z" fill="#fff" stroke-width="0"/><path d="M172.42,697.94c3.04,13.89,5.79,26.44,8.95,40.9-44.65,16.42-76.96,46.33-97.67,88.53-10.53,21.45-17.66,44.05-19.91,67.87-8.96,94.56,43.34,156.78,138.94,166.45,68.92,6.97,133.6-9.39,196.88-34.27,42.61-16.75,83.96-36.98,129.35-46,9.88-1.96,19.69-3.59,29.57-2.13,23.9,3.53,44.61,13.35,54.35,36.79,9.12,21.94-1.65,40.21-15.48,56.56-35.84,42.38-83.92,63.38-136.52,74.1-113.49,23.12-223.98,14.3-328.32-38.92-78.15-39.86-120.25-103.42-112.9-192.98,7.98-97.34,49.85-173.95,143.12-215.47,1.98-.88,4.42-.7,9.64-1.44Z" fill="#fff" stroke-width="0"/><path d="M574.88,244.39c-9.66-15.78-9.24-33.2-20.41-46.29-2.43-2.85-.03-7.57,4.18-8.95,9.59-3.14,12.24,7.21,19.19,10.38,6.88.14,9.15-10.21,20.22-7.58,3.75,21.94-20.69,32.52-23.19,52.44Z" stroke-width="0"/><path d="M527.35,188.11c-10.24-2.45-13.71-9.39-12.97-18.79.64-8.19,4-15.86,13.07-16.08,10.61-.25,13.73,8.06,13.95,17.24.23,9.7-4.59,15.67-14.05,17.63Z" stroke-width="0"/><path d="M629.18,153.97c8.57.92,13.48,5.5,13.66,14.63.18,8.98-1.82,18.19-11.73,19.22-10.85,1.13-12.89-8.73-13.84-17.2-.96-8.54,2.58-14.67,11.9-16.65Z" stroke-width="0"/><path d="M176.19,685.03c-71.17,20.67-115.32,71.21-144.19,135.72-25,55.88-31.32,114.48-12.07,174.35,23.95,74.48,80.43,114.12,149.42,139.93,85.51,31.99,174.24,38.69,264.01,27.23,62.79-8.02,120.18-30.58,165.45-77.59,24.25-25.19,33.45-57.42,20.5-78.03-17.35-27.6-49.77-42.63-89.48-34.84-63.45,12.45-119.64,44.95-181.16,63.06-62.1,18.28-123.55,26.3-186.18,8.17-74.31-21.52-100.32-87.17-87.11-158.16,12.02-64.57,43.32-114.69,109.95-135.7,3.44-1.09,6.17-4.44,9.24-6.73" fill="none" stroke="#000" stroke-linecap="round" stroke-linejoin="round" stroke-width="9.19"/><path d="M470.17,462.26c29.06,97.25,65.22,191.68,120.37,277.29,10.34,16.05,31.31,26.91,55.07,33.13,30.45-44.36,57.39-90.93,66.08-147.3,17.33-112.5,2.4-225.15,3.34-337.67.47-56.61-7.58-113.37-13.19-169.92-2.9-29.26-9.27-58.16-13.25-87.33-1.16-8.54-3.34-16.22-11.8-17.94-7.42-1.51-11.51,6.1-15.96,11.12-3.25,3.66-7.44,7.16-9.02,11.52-12.86,35.47-42.11,37.68-73.67,39.46-33.6,1.9-61.72-3.14-80.86-34.67-6.51-10.73-17.63-23.46-31.5-20.13-15.28,3.67-13.02,20.82-16.62,33.53-11.51,40.72-14.69,82.92-23.42,123.95-12.5,58.76-47.44,104.61-95.65,140.29-21.54,15.94-42.99,32-64.3,48.23-63.69,48.51-89.84,116.01-91.13,192.91-.91,54.42-.49,109.41,12.87,163.09,3.81,15.32,9.76,24.88,27.62,28.03,52.63,9.28,104.57,14.39,158.67,10.05,52.42-4.21,105.35-9.63,158.37-6.17,20.29,1.32,40.09-3.98,59.7-8.97" fill="none" stroke="#000" stroke-linecap="round" stroke-linejoin="round" stroke-width="9.19"/><path d="M389.78,464.55c38.95,33.43,50.88,75.23,36.45,123.93-5.79,19.55-21.6,32.49-36.11,46.37-14.43,13.81-32.28,25.24-39.62,46.28,19.35,12.92,41.32,8.08,62.26,8.3,53.25.56,59.71,6.77,59.71,61.05" fill="none" stroke="#000" stroke-linecap="round" stroke-linejoin="round" stroke-width="9.19"/><path d="M598.78,526.56c2.06,24.61,13.69,45.85,25.54,66.44,20.63,35.85,24.71,76.58,35.96,115.14,2.16,7.4,5.55,14.26,7.39,21.67" fill="none" stroke="#000" stroke-linecap="round" stroke-linejoin="round" stroke-width="9.19"/><path d="M669.98,558.72c-7.94,22.38-8.09,47.72-25.26,66.6" fill="none" stroke="#000" stroke-linecap="round" stroke-linejoin="round" stroke-width="9.19"/><path d="M573.52,237.19c4.34-19.4,5.77-37.34-20.67-41.34" fill="none" stroke="#000" stroke-linecap="round" stroke-linejoin="round" stroke-width="9.19"/></g></svg>