<?xml version="1.0" encoding="UTF-8"?><svg id="b" xmlns="http://www.w3.org/2000/svg" viewBox="0 0 1037.75 747.84"><g id="c"><path d="M917.5,97.73c31.43-38.92,86.71-44.9,117.15-97.73,1.85,16.9,4.25,22.32,2.49,25.2-46.06,75.13-42.13,152.76-15.51,233.22,16.14,48.79-5.69,93.32-28.37,134.41-10.16,18.4-15.85,32.67-12.14,53.99,8.46,48.59,8.68,97.34-15.88,142.69-5.28,9.75-5.22,18.75-3.72,30.06,6.41,48.55-9.59,70.28-57.93,70.48-44.72.18-82.5,10.29-116.15,40.83-17.27,15.67-42.14,19.04-65.15,15.9-135.76-18.54-271.96-34.78-406.79-58.74-63.77-11.34-124.58-36.23-190.85-41.33-61.26-4.72-117.7-68.06-122.82-136.19C-11.61,331.65,45.94,122.45,283.39,32.73c110.31-41.68,206.21-21.64,290.1,59.85,15.2,14.76,28.98,30.98,47.62,51.05,15.91-52.29-8.43-96.88-6.32-143.04,28.84.42,42.32,20.41,57.03,36.71,29.74,32.96,60.32,54.15,110.27,48.98,44.54-4.61,90.71,6.54,136.15,10.74,1.03,27-19.33,23.61-34.8,22.26-50.08-4.4-100.04-9.75-150.34-11.96-32.79-1.44-53.7-26.5-80.9-50.3,2.33,32.35,4.6,60.52,1.7,88.51-1.45,13.97-4.42,28.27-19.58,33.47-14.35,4.92-22.02-7.58-30.31-15.78-31.43-31.07-60.73-64.28-99.1-87.71-53.22-32.5-107.92-43.49-170.39-27.92C155.66,92.18,32.93,245.44,32.26,430.16c-.08,22.89-.73,45.8.32,68.66,2.92,63.34,55.39,119.1,117.92,125.41,14.86,1.5,30.93,6.11,32.65-18.78,1.61-23.32,18.66-20.74,27.25-7.58,43.8,67.07,115.73,69.45,182.49,78.37,96.69,12.91,193.79,22.69,289.95,39.67,18.02,3.18,36.55,2.54,54.8.74,8.8-.87,19.96-1.46,20.83-13.12.78-10.35-8.2-16.05-16.68-19.64-24.19-10.21-49.83-13.86-75.89-15-7.62-.34-15.31.21-22.87-.69-19.21-2.28-47.3-.54-44.15-26.75,2.23-18.56,27.83-10.68,44.1-9.37,54.28,4.37,110.43-.41,157.15,37.46,12.01,9.74,26.98,5.4,37.34-5.7,22.13-23.74,50-39.84,75.44-59.21,34.4-26.19,44.85-63.95,47.43-104.83,1.75-27.78-2.88-40.66-35.51-23.9-101.98,52.38-210.16,28.49-284.87-57.82-32.56-37.61-38.05-81.89-38.96-128.23-.19-9.47,2.22-19.28,13.62-20.48,11.08-1.16,15.48,7.8,18.51,16.76,2.46,7.26,2.69,14.97,3.78,22.51,14.85,102.46,112.97,175.11,210.27,155.79,100.07-19.87,164.81-120.21,142.79-220.39-11.03-50.21-29.79-99.95-8.82-152.79-24.48-3.19-41.81,23.15-63.66,6.49Z" stroke-width="0"/><path d="M917.5,97.73c29.55-2.7,50.97-24.98,84.94-33.72-32.65,68.21-10.34,131.81,4.42,197.15,25.06,110.98-98.35,235.49-210.67,216-110.76-19.22-154.96-69.08-177.64-200.38-16.99,67.36,4.8,124.92,63.42,167.55,91.07,66.24,171.8,64.58,280.62-5.78,24.99,75.1,2.48,146.92-59.77,186.37-22.21,14.08-40.64,31.69-58.99,50.15-19.04,19.16-39.21,29.01-60.3-.25-12.06-16.72-32.6-22.69-52.05-26.32-44.5-8.31-90.05,1.47-142.72-16.46,22.81,32.05,45.95,25.71,66.19,26.04,32.21.52,64.28,1.81,94.62,12.95,17.31,6.36,36.2,18.34,32.53,38.78-3.45,19.21-24.83,19.31-41.67,20.08-53.88,2.46-105.85-11.18-158.6-18.68-82.88-11.78-166.56-18.64-248.89-33.29-55.76-9.92-116.38-18.69-138.49-90.94-11.05,22.45,7.99,33.71,3.71,48.5-125.91,5.19-184.62-51.72-181.84-176.25C21.04,247.1,124.24,102.55,310.27,42.63c82.22-26.49,155.36-16.04,223.58,37.32,36.09,28.23,67.92,60.02,98.23,99.31,23.83-51.09,5.78-101.14,2.21-151.32,18.87,3.41,24.85,19.09,35.2,29.44,27.67,27.68,56.12,46.55,100.04,42.62,40.31-3.61,81.76,5.58,122.72,9.07,10.89.93,25.33,9.23,25.99-12.05,0,0-.74.71-.74.71Z" fill="#fff" stroke-width="0"/><path d="M945.88,615.96c-1.87,56.4-11.07,62.25-73.7,53.34,19.92-23.91,46.38-33.43,73.7-53.34Z" fill="#f1f0f0" stroke-width="0"/><path d="M890.51,454.68h-50.91c-1.44-17.42,29.11-21.02,15.66-42.3-5.77-9.12-.84-17.85,10.15-20.2,8.74-1.86,18.79-3.6,25.54,4.04,8.25,9.34,1.57,17.06-5.99,22.39-16.95,11.96-7.03,22.06,5.55,36.06Z" stroke-width="0"/></g></svg>