<?xml version="1.0" encoding="UTF-8"?><svg id="b" xmlns="http://www.w3.org/2000/svg" viewBox="0 0 853.3 739.71"><g id="c"><path d="M620.76,575.73c-.63,13.7-.58,25.55-1.91,37.24-.83,7.3-2.73,14.84-5.89,21.44-7.38,15.4-27.21,18-39.17,5.74-11.65-11.95-15.95-27.3-19.62-42.9-1.39-5.91-2.43-11.9-3.42-16.8-12.33,0-24.15-.62-35.88.12-30.25,1.92-60.48,4.14-90.66,6.85-16.34,1.47-32.11,6.24-40.26,21.86-4.28,8.21-5.57,18.27-6.93,27.67-3.19,21.98-5.32,44.12-8.53,66.1-.95,6.49-3.48,12.96-6.35,18.93-10.53,21.84-38.83,23.9-52.95,4.02-7.42-10.45-10.4-22.66-11.2-35.03-1.79-27.87-2.42-55.82-3.95-83.71-.49-8.98-1.5-18.1-3.74-26.78-3.2-12.36-22.24-25.3-34.94-25.12-4.09.06-7.04,1.86-7.98,5.67-1.02,4.15-1.44,8.48-1.74,12.76-1.21,17.25-1.88,34.55-3.61,51.75-.61,6.09-3.23,12.15-5.77,17.85-4.47,10.04-12.53,15.51-23.64,15.77-10.65.25-17.73-5.62-22.66-14.4-6.86-12.23-10.18-25.72-11.32-39.46-3.22-39.03-5.39-78.14-8.64-117.16-1.58-18.98-3.66-38.03-7.35-56.68-3.52-17.78-4.57-17.47-22.28-17.68-31.16-.38-61.61-4.64-90.24-17.79-14.1-6.48-26.84-14.9-36.05-27.79-13.77-19.28-11.99-40.98,5.38-58.93,3.91-4.04,4.49-6.79,1.76-11.84C6.45,270.2.26,240.65.02,209.96-.49,147.3,10.88,87.05,38.73,30.49c3.79-7.69,8.75-14.95,14.09-21.68,6.77-8.53,14.26-9.69,22.51-2.64,7.52,6.43,14.22,14.1,20.05,22.13,5.5,7.58,9.67,16.2,13.88,24.63,1.82,3.64,3.57,4.65,7.62,3.97,35.29-5.89,70.82-7.82,106.49-4.6,13.26,1.2,26.4,3.73,38.71,5.53,8.48-13.87,16.62-27.74,25.38-41.21,2.94-4.53,7.14-8.41,11.33-11.92,7.93-6.64,14.67-6.46,20.82,1.79,7.14,9.56,13.84,19.68,19.16,30.33,21.97,43.99,37.13,90.17,42.02,139.32,3.6,36.16.17,71.53-13.44,105.55-.42,1.06-.77,2.15-1.38,3.87,3.29.17,6.13.25,8.96.49,9.63.8,17.83,4.27,23.94,12.2,1.15,1.5,3.82,2.55,5.81,2.58,14.76.23,29.53.16,44.3.16,81.71,0,163.41-.01,245.12,0,42.4.01,75.89-26.08,85.5-67.41,4.84-20.81,8.58-42.16.11-62.75-5.11-12.42-12.74-23.82-19.53-35.51-4.43-7.63-9.93-14.69-13.98-22.5-4.87-9.4-4.54-19.4-.42-29.16,6.8-16.13,22.09-23.06,40.04-17.65,21.37,6.44,35.75,21.57,47.28,39.76,18.58,29.31,22.4,61.82,19.21,95.43-4.33,45.53-22.29,85.26-52.69,119.44-1.18,1.33-2.19,4.04-1.65,5.51,18.33,49.34,16.45,99.24,4.04,149.32-6.15,24.82-13.31,49.38-19.73,74.13-6.27,24.17-7.99,48.88-7.93,73.77.04,13.97.21,27.99-.77,41.91-.54,7.69-2.16,15.77-5.34,22.74-9.62,21.11-39.62,24.2-52.32,4.75-7.04-10.78-11.42-23.69-15.02-36.21-5.32-18.49-9.02-37.47-13.14-56.29-3.01-13.74-7.23-19.07-21.04-20.92-15.11-2.02-30.43-2.48-45.94-3.64ZM171.5,412.55c2.07,7.06,4.89,13.34,5.65,19.86,3.08,26.36,5.81,52.77,8.12,79.2,2.71,31.16,4.24,62.44,7.56,93.54,1.21,11.3,4.96,22.71,9.64,33.13,4.55,10.14,15.61,9.49,21.05-.42,2.14-3.9,4.12-8.32,4.53-12.65,1.61-17.21,2.48-34.48,3.81-51.72.42-5.46.81-11.04,2.26-16.28,2.66-9.63,10.75-15.45,20.51-15.71,18.87-.51,43.71,16.18,48.58,34.39,3.06,11.45,4.08,23.61,4.76,35.52,1.36,23.96,1.52,48,2.85,71.96.64,11.57,2.42,23.16,8.96,33.28,4.22,6.52,10.4,9.53,18.05,9.13,7.24-.38,10.83-5.78,12.7-11.62,3.1-9.69,6.04-19.6,7.43-29.64,2.87-20.65,4.35-41.49,6.99-62.18,2.78-21.87,15.46-36.65,36-43.29,11.59-3.75,24.18-5.24,36.42-6.05,52.24-3.44,104.5-6.76,156.81-9.04,23.33-1.02,46.86-.58,70.15,1.22,23.56,1.82,32.21,11.05,37.19,34.08,2.74,12.69,5.14,25.49,8.68,37.96,4.28,15.09,9.18,30.04,14.64,44.74,2.99,8.05,10.25,10.23,18.5,9.38,7.71-.79,12-5.49,14.11-12.39,1.2-3.92,2.18-8.04,2.34-12.11.53-13.37,1.08-26.76.82-40.13-.69-34.74,4.2-68.63,13.78-101.98,5.54-19.27,10.89-38.62,15.52-58.12,10.68-44.91,11.92-89.76-4.58-133.65-3.69-9.81-2.14-15.5,4.91-23.1,29.24-31.56,44.35-69.72,48.54-112.25,3.16-32.1-2.42-62.4-20.79-89.57-9.36-13.84-20.68-25.37-37.73-29.33-11.48-2.67-20.49,2.28-22.7,13.75-1,5.19.32,11.21,1.98,16.41,1.39,4.35,4.8,8.06,7.32,12.04,7.25,11.46,15.29,22.49,21.59,34.45,12.08,22.93,10.94,47.48,6.59,72.11-10.52,59.65-55.71,87.87-103.63,87.42-93.32-.89-186.65-.26-279.98-.26-1.77,0-3.67-.38-5.28.13-1.56.5-3.72,1.67-4.09,2.99-2.74,9.61-9.63,15.53-17.53,20.66-1.75,1.13-3.51,2.23-4.3,2.73,6.23,5.89,13.29,10.92,18.16,17.55,8.72,11.87,4.16,27.79-8.82,34.77-7.94,4.27-16.49,5.04-25.25,4.13-16.42-1.72-31.19-8.12-44.82-17.03-5.45-3.57-9.99-4.8-16.02-1.52-4.96,2.7-10.58,4.23-15.95,6.14-37.56,13.33-75.94,23.27-116.03,27.39ZM35.63,294.66c10.42-4.48,19.93-9.29,29.92-12.67,10.02-3.39,20.53-5.27,30.77-8.03,1.38-.37,2.4-2.01,3.62-3.03,2.18-1.83,4.61-5.28,6.51-5.01,2.2.31,4.95,3.58,5.73,6.1,4.57,14.81,14.02,24.61,29.03,28.13,15.39,3.61,28.24-1.6,38.55-13.4,4.74-5.42,6.9-4.89,12.43.1,5.16,4.66,10.84,9.48,17.18,11.94,20.93,8.11,42.87-3.93,49.81-26.55,1.28-4.17,3-7.76,8.02-6.45,5.42,1.41,5.29,5.64,3.72,9.97-1.85,5.07-3.84,10.08-5.69,14.9,14.73,5.44,29.24,10.93,43.87,16.06,1.78.62,4.44-.27,6.34-1.19,9.89-4.78,19.72-9.69,29.43-14.83,2.23-1.18,4.62-3.08,5.68-5.26,8.27-16.92,13.2-34.87,15.79-53.51,4.68-33.66,1.16-66.74-7.01-99.47-9.57-38.35-23.07-75.15-43.87-108.99-2.01-3.27-4.56-6.2-7.29-9.87-3.38,3.72-6.74,6.4-8.78,9.85-8.55,14.53-16.89,29.19-24.89,44.03-3,5.56-5.09,7.29-10.98,5.78-50.23-12.94-100.65-10.03-151.07-1.49-6.02,1.02-9.63-.26-12.31-5.89-4.32-9.04-8.68-18.14-14.03-26.57-4.59-7.23-10.46-13.69-16.04-20.25-2.98-3.51-6.27-3.69-8.92.76-3.71,6.24-8.1,12.17-11.13,18.72C21.62,99.98,9.2,164.38,15.49,231.96c2.08,22.33,9,43.4,20.14,62.7ZM185.87,298.8c-.85.62-1.5,1.05-2.1,1.54-25.24,20.62-56.63,16.91-75.9-9.23-2.27-3.08-4.63-3.29-7.55-2.54-11.41,2.93-22.95,5.51-34.13,9.15-13.01,4.24-24.82,10.96-34.69,20.67-14.97,14.74-15.65,32.3-.14,46.45,8.41,7.66,18.49,14.32,28.95,18.76,38,16.1,78,17.71,118.34,12.86,44.01-5.29,86.19-17.83,127.09-34.71,5.78-2.38,9.89-1.32,15.23,1.73,11.36,6.49,23.21,12.31,35.35,17.16,7.83,3.13,16.57,3.69,24.81.07,6.8-2.99,8.46-9.67,3.8-15.43-1.58-1.96-3.46-4-5.66-5.08-7.55-3.71-15.19-7.28-23.02-10.34-3.97-1.55-7.46-3.08-7.53-7.79-.07-4.66,2.88-7.04,7.25-7.91,1.15-.23,2.37-.45,3.39-.99,8.09-4.3,16.9-7.72,24-13.3,7.73-6.07,5-15.39-4.72-17.53-5.61-1.23-11.79-1.24-17.49-.35-14.88,2.33-27.9,9.41-39.97,18.07-5.22,3.74-9.66,4.25-15.75,1.86-15.91-6.25-32.13-11.71-48.32-17.22-2.11-.72-5.19-.67-7.08.38-23.24,12.85-43.45,11.07-64.19-6.28ZM564.01,579.37c2.91,11.08,4.84,20.72,8.06,29.91,2.37,6.75,5.68,13.46,9.92,19.2,6.6,8.93,16.69,7.19,20.35-3.3,5.28-15.13,3.93-30.87,3.86-45.81h-42.18Z" stroke-width="0"/><path d="M171.5,412.55c40.09-4.12,78.47-14.05,116.03-27.39,5.38-1.91,10.99-3.43,15.95-6.14,6.03-3.29,10.56-2.05,16.02,1.52,13.62,8.91,28.39,15.31,44.82,17.03,8.76.92,17.31.14,25.25-4.13,12.98-6.98,17.53-22.9,8.82-34.77-4.87-6.63-11.93-11.65-18.16-17.55.79-.5,2.55-1.6,4.3-2.73,7.91-5.13,14.79-11.05,17.53-20.66.37-1.31,2.53-2.49,4.09-2.99,1.61-.52,3.51-.13,5.28-.13,93.33,0,186.66-.63,279.98.26,47.92.46,93.11-27.76,103.63-87.42,4.34-24.63,5.49-49.18-6.59-72.11-6.3-11.96-14.34-23-21.59-34.45-2.52-3.99-5.93-7.69-7.32-12.04-1.66-5.2-2.98-11.22-1.98-16.41,2.21-11.47,11.22-16.42,22.7-13.75,17.06,3.97,28.38,15.5,37.73,29.33,18.37,27.16,23.95,57.47,20.79,89.57-4.19,42.53-19.3,80.69-48.54,112.25-7.05,7.61-8.6,13.29-4.91,23.1,16.5,43.88,15.26,88.74,4.58,133.65-4.64,19.5-9.99,38.85-15.52,58.12-9.59,33.35-14.47,67.24-13.78,101.98.27,13.37-.29,26.76-.82,40.13-.16,4.07-1.14,8.19-2.34,12.11-2.11,6.9-6.41,11.6-14.11,12.39-8.25.84-15.51-1.33-18.5-9.38-5.46-14.7-10.36-29.65-14.64-44.74-3.54-12.47-5.94-25.27-8.68-37.96-4.97-23.02-13.62-32.26-37.19-34.08-23.29-1.8-46.82-2.24-70.15-1.22-52.3,2.28-104.56,5.6-156.81,9.04-12.25.81-24.83,2.3-36.42,6.05-20.54,6.64-33.22,21.42-36,43.29-2.63,20.69-4.12,41.53-6.99,62.18-1.39,10.04-4.34,19.95-7.43,29.64-1.87,5.84-5.46,11.24-12.7,11.62-7.65.4-13.83-2.61-18.05-9.13-6.54-10.12-8.32-21.71-8.96-33.28-1.32-23.97-1.49-48-2.85-71.96-.67-11.91-1.7-24.06-4.76-35.52-4.87-18.22-29.72-34.91-48.58-34.39-9.76.27-17.85,6.08-20.51,15.71-1.45,5.24-1.84,10.82-2.26,16.28-1.33,17.24-2.2,34.51-3.81,51.72-.41,4.34-2.39,8.76-4.53,12.65-5.44,9.91-16.5,10.56-21.05.42-4.68-10.42-8.43-21.84-9.64-33.13-3.32-31.09-4.85-62.37-7.56-93.54-2.3-26.44-5.04-52.85-8.12-79.2-.76-6.52-3.58-12.79-5.65-19.86Z" fill="#fff" stroke-width="0"/><path d="M35.63,294.66c-11.14-19.3-18.06-40.38-20.14-62.7-6.29-67.57,6.13-131.98,34.53-193.41,3.03-6.56,7.42-12.48,11.13-18.72,2.65-4.45,5.94-4.27,8.92-.76,5.58,6.56,11.45,13.01,16.04,20.25,5.35,8.43,9.72,17.53,14.03,26.57,2.69,5.63,6.29,6.9,12.31,5.89,50.42-8.53,100.84-11.44,151.07,1.49,5.88,1.51,7.98-.21,10.98-5.78,8-14.84,16.34-29.5,24.89-44.03,2.03-3.45,5.4-6.13,8.78-9.85,2.73,3.67,5.28,6.6,7.29,9.87,20.81,33.83,34.3,70.63,43.87,108.99,8.17,32.73,11.69,65.81,7.01,99.47-2.59,18.63-7.53,36.58-15.79,53.51-1.06,2.18-3.45,4.08-5.68,5.26-9.71,5.14-19.54,10.04-29.43,14.83-1.9.92-4.56,1.81-6.34,1.19-14.64-5.13-29.15-10.61-43.87-16.06,1.85-4.82,3.84-9.83,5.69-14.9,1.58-4.32,1.7-8.55-3.72-9.97-5.02-1.31-6.74,2.27-8.02,6.45-6.93,22.63-28.87,34.66-49.81,26.55-6.34-2.46-12.02-7.28-17.18-11.94-5.53-4.99-7.68-5.52-12.43-.1-10.31,11.79-23.16,17.01-38.55,13.4-15.01-3.52-24.46-13.32-29.03-28.13-.78-2.52-3.53-5.79-5.73-6.1-1.9-.26-4.33,3.19-6.51,5.01-1.22,1.02-2.24,2.66-3.62,3.03-10.24,2.76-20.76,4.64-30.77,8.03-9.99,3.38-19.51,8.19-29.92,12.67ZM118.38,212.41c.21-15.46-11.86-28.03-27.15-28.27-15.64-.25-28.3,12.07-28.45,27.67-.14,15.19,12.33,27.87,27.53,28.01,15.34.14,27.86-12.08,28.06-27.4ZM307.44,212.53c.32-15.41-11.7-28.03-27.03-28.38-15.52-.36-28.47,12.11-28.61,27.53-.14,15.23,12.19,27.86,27.46,28.12,15.31.26,27.86-11.88,28.18-27.27Z" fill="#fff" stroke-width="0"/><path d="M185.87,298.8c20.73,17.35,40.94,19.13,64.19,6.28,1.89-1.04,4.97-1.09,7.08-.38,16.19,5.51,32.41,10.97,48.32,17.22,6.1,2.39,10.54,1.89,15.75-1.86,12.07-8.66,25.09-15.73,39.97-18.07,5.7-.89,11.89-.88,17.49.35,9.72,2.13,12.44,11.45,4.72,17.53-7.1,5.58-15.91,9-24,13.3-1.02.54-2.24.76-3.39.99-4.37.87-7.32,3.25-7.25,7.91.07,4.71,3.56,6.24,7.53,7.79,7.83,3.05,15.47,6.63,23.02,10.34,2.2,1.08,4.07,3.12,5.66,5.08,4.66,5.76,3,12.44-3.8,15.43-8.24,3.62-16.98,3.06-24.81-.07-12.14-4.86-24-10.67-35.35-17.16-5.33-3.05-9.45-4.11-15.23-1.73-40.9,16.88-83.08,29.42-127.09,34.71-40.35,4.85-80.35,3.24-118.34-12.86-10.46-4.43-20.54-11.09-28.95-18.76-15.52-14.14-14.84-31.71.14-46.45,9.87-9.71,21.67-16.43,34.69-20.67,11.18-3.64,22.72-6.22,34.13-9.15,2.92-.75,5.27-.55,7.55,2.54,19.27,26.14,50.66,29.85,75.9,9.23.6-.49,1.25-.92,2.1-1.54ZM65.07,355.89c7.59.1,13.83-5.97,14.03-13.65.21-7.7-6.29-14.42-13.97-14.47-7.31-.05-13.98,6.48-14.1,13.81-.12,7.84,6.13,14.21,14.04,14.31Z" fill="#fff" stroke-width="0"/><path d="M564.01,579.37h42.18c.08,14.93,1.42,30.68-3.86,45.81-3.66,10.49-13.76,12.24-20.35,3.3-4.24-5.74-7.55-12.45-9.92-19.2-3.22-9.19-5.15-18.84-8.06-29.91Z" fill="#fff" stroke-width="0"/><path d="M118.38,212.41c-.2,15.32-12.71,27.54-28.06,27.4-15.2-.13-27.67-12.82-27.53-28.01.14-15.6,12.8-27.92,28.45-27.67,15.28.24,27.35,12.81,27.15,28.27ZM105.78,205.14c-.46-4.25-2.79-6.84-7.05-7.21-3.82-.33-7.81,3.53-7.54,7.34.3,4.21,2.81,6.8,7.08,7.17,3.99.35,7.5-3.21,7.51-7.3Z" stroke-width="0"/><path d="M307.44,212.53c-.32,15.39-12.87,27.53-28.18,27.27-15.27-.26-27.59-12.89-27.46-28.12.14-15.43,13.09-27.89,28.61-27.53,15.33.35,27.35,12.97,27.03,28.38ZM294.8,205.14c-.28-4.08-2.57-6.68-6.81-7.18-3.81-.45-7.69,3.25-7.81,7.09-.11,3.75,3.68,7.69,7.5,7.42,4.28-.3,6.66-2.82,7.11-7.33Z" stroke-width="0"/><path d="M65.07,355.89c-7.91-.1-14.16-6.47-14.04-14.31.12-7.33,6.78-13.86,14.1-13.81,7.69.05,14.18,6.78,13.97,14.47-.2,7.68-6.44,13.74-14.03,13.65Z" stroke-width="0"/><path d="M105.78,205.14c0,4.09-3.51,7.65-7.51,7.3-4.27-.37-6.78-2.95-7.08-7.17-.27-3.81,3.72-7.67,7.54-7.34,4.26.36,6.59,2.96,7.05,7.21Z" fill="#fff" stroke-width="0"/><path d="M294.8,205.14c-.45,4.52-2.83,7.03-7.11,7.33-3.83.27-7.62-3.67-7.5-7.42.12-3.84,4-7.54,7.81-7.09,4.23.5,6.53,3.1,6.81,7.18Z" fill="#fff" stroke-width="0"/></g></svg>