<?xml version="1.0" encoding="UTF-8"?><svg id="b" xmlns="http://www.w3.org/2000/svg" viewBox="0 0 933.67 1131.06"><g id="c"><path d="M152.85,12.01c16.73,14.12,18.28,35.85,8.49,49.38-45.2,62.44-28.58,132.25-25.91,199.45,2.2,55.45,10.11,111.16,21,165.65,14.27,71.46,30.63,79.87,102.05,63.54,43.07-9.85,85.87-20.9,128.9-30.95,73.37-17.14,146.2-17.01,218.14,7.76,17.79,6.12,35.69,11.94,64.15,21.43-29.5-54.49-27.18-98-10.22-145.37,9.03-25.21-2.33-57.31-2.27-86.29.04-17.38-1.06-39.83,19.37-46.06,18.32-5.59,32.48,12.13,37.17,26.08,17.29,51.43,57.96,44.31,97.63,44.86,27.64.38,26.94-24.86,39.08-38.2,12.88-14.16,21.2-38.61,44.36-31.76,23.41,6.92,31.53,33.45,26.19,52.97-16.95,61.97,11.1,127.14-16.7,188.25-6.06,13.31-4.92,34.3,1.22,48.03,35.68,79.81,20.5,156.88-6.78,234.51-6.23,17.72-17.99,36.02-6.88,56.38-3.53,5.35-7.41,5.63-11.66.83-18.41-20.38-14.04-34.58-1.18-61.18,39.08-80.85,48.33-166.62-.4-251.37-58.18,39.61-120.33,49.54-184.87,16.46-23.16-11.87-29.02,8.18-39.11,17.83-15.17,14.51-27.36,32.14-43.85,52.13-4.51-31.43,18.57-45.37,32.72-67.86-92.88-43.14-186.45-40.9-281.76-17.92-44.6,10.76-89.37,20.86-134.21,30.59-38.01,8.25-65.37-5.07-75.65-43.64-30.64-114.98-43.34-231.69-34.5-350.84,2.51-33.81,48.37-54.61,25.73-94.3-2.94-9.3-.32-13.35,9.77-10.37Z" stroke-width="0"/><path d="M839.81,1029.61c-13.99-28.67-12-57.27,5.4-82.92,16.65-24.53,8.42-34-16.82-40.51-31.66-8.17-59.69-25.36-90.37-43.69,1.01,43.7,9.52,81.89,20.03,119.69,7.22,25.99,16.97,48.6,49.34,53.47,16.19,2.43,30.13,14.17,30,34.03-.15,21.44-17.2,23.83-32.77,30.27-46.39,19.18-81.15,9.46-110.38-32.72-40.5-58.42-71.57-121.49-99.33-186.37-8.86-20.71-16.91-30.68-42.92-23.96-40.44,10.45-81.18-6.46-122.32-6.52-25.68-.04-43.09,2.86-53.36,30.21-11.68,31.09-34.83,55.32-59.17,77.86-12.86,11.91-32.96,22.57-24.17,43.72,7.97,19.19,30.19,30.21,47.78,29.81,29-.65,55.28-2.73,54.95,34.74-.1,11.16-2.92,18.66-7.46,23.78-14.57,16.44-42.25,15.89-55.51,15.05-63.38-4.04-115.22-71.66-127.21-87.95,10.39,6.06,120.02,69.69,144.93,68.04,4.43-.29,15.43-1.23,19.34-8.02,1.03-1.8,1.46-4.13,1-7.19-1.48-9.89-4.5-23.79-21.22-21.6-4.81.63-10.5,1.44-14.6-.44-23.66-10.82-52.9-18.15-60.84-45.64-8.23-28.51,18.14-42.42,35.74-59.08,26.24-24.85,50.88-51.03,60.13-87.29-19.75-15.31-37.14,8.55-60.11.87,24.42-24.86,52.91-26.87,81.1-25.68,49.22,2.08,98.38,6.04,147.51,9.89,29.28,2.29,41.84-8.54,39.37-39.44-1.74-21.76,2.39-44,3.79-64.45,12.81-1.92,14.16,4.09,13.57,7.9-20.52,132.19,61.59,225.58,123.33,326.58,2.88,4.71,16.48,19.31,35.29,23.77,9.08,2.15,18.28,1.59,18.28,1.59,6.23-.38,11.11-1.82,20.87-4.7,10.12-2.98,15.25-4.53,18.78-7.3,6.18-4.86,9.54-11.34,10.96-14.09,1.87-3.61,2.98-6.85,3.65-9.22-3.01-4.52-8.11-10.92-16.17-15.83-11.03-6.71-21.06-6.65-25.91-7.48-34.08-5.84-48.34-96.05-50.09-107.13-5.92-37.44-10.85-68.63,5.16-100.76,8.21-16.49,14.57-27.47,43.26-48.04,32.24-23.12,60.3-50.47,84.9-82.03,2.54,1.48,3.68,3.14,4.25,4.23,8.19,15.7-27.76,58.68-68.25,83.09-9.77,5.89-18.6,9.97-28.62,20.73-7.41,7.96-23.07,24.78-19.89,40.81,4.15,20.91,38.88,32.85,64.41,41.63,24.69,8.49,37.4,8.29,43.13,19.83,6.64,13.37-.85,32.95-2.09,36.17-3.59,9.39-5.94,8.54-10.09,18.78-2.51,6.19-7.72,19.55-4.7,35.83,2,10.74,6.89,19.05,11.32,24.73-.48.67-3.08,4.18-17.21,2.93Z" stroke-width="0"/><path d="M152.85,12.01c-3.26,3.46-6.51,6.91-9.77,10.37-50.22-14.03-72.93-2.17-89.61,45.16-25.53,72.47-11.99,145.98-5.44,218.95,8.03,89.44,12.65,179.79,47.03,264.64,5.98,14.76,2.71,29.13-1.38,43.18-10.73,36.89-13.58,75.61-7.34,112.03,9.21,53.78,10.46,98.55-47.49,126.63-20.06,9.72-26.97,32.99-21.16,55.86,10.76,42.31,8.06,83.91-.24,126.34-3.62,18.53-7.33,40.09,4.82,57.39,9.38,13.36,6.99,43.03,30.5,36.88,19.03-4.97,25.89-27.27,18.94-48.93-.83-4.79,1.07-6.45,5.71-4.97,17.87,23.09,35.16,51.86,1.67,69.42-28.82,15.12-55.62,1.56-67.56-35.01-7.8-23.88-15.03-45.66-9.65-71.37,8.11-38.79,9.28-78.48,2.29-117.58-7.58-42.43,6.74-76.21,42.58-96.24,27.05-15.12,29.57-34.54,27.69-60.64-3.9-53.94-9.12-108.11,8.12-161.16,5.63-17.32-6.73-31.43-10.63-47.06C34.44,385.61,9.91,233.83,34.31,78.93,45.86,5.64,89.84-16.47,152.85,12.01Z" stroke-width="0"/><path d="M71.7,1060.51c-20.31-43.42,7.94-81.33,14.5-121.64.64-3.92,10.17-9.34,15.35-9.12,72.5,3.16,135.65-24.95,197.96-58.07-22.25,35.74-59.85,46.47-95.56,56.81-39.25,11.36-37,31.41-17.81,57.25,23.48,31.62,57.2,52.63,84.41,80.78-45.75-19.72-89.21-45.37-106.87-94.04-10.02-27.63-26.21-26.81-46.89-29.48-29.85-3.85-27.03,22.02-28.8,35.73-3.3,25.61-17.35,49.96-10.59,76.81-2.01,1.52-3.91,3.18-5.7,4.96Z" stroke-width="0"/><path d="M839.81,1029.61c5.73-.98,11.47-1.96,17.21-2.93,4.86,2.37,9.07,2.89,12.68,2.4,35.7-4.89,69.15-116.91,32.99-199.45-7.71-17.59-17.01-30.28-22.52-37.14,3.88-.27,7.77-.55,11.66-.82,50.84,65.56,55.96,158.87,12.01,221.39-16.55,23.55-35.4,39.2-64.02,16.56Z" stroke-width="0"/><path d="M679.29,231.4c20.24,1.12,28.06,15.8,30.06,25.77,8.78,43.63,34.95,42.4,72.56,43.21,41.7.9,65.26-10.06,81.11-46.75,5.35-12.38,12.48-30.96,30.78-25.06,15.18,4.9,9.56,22.61,10.15,34.96,2.03,43-7.27,85.09-3.08,129.26,4.57,48.16-29.77,81.07-76.98,95.27-50.7,15.25-102.25,20.19-142.4-21.39-34.18-35.39-26.49-78.21-5.4-118.64,6.56-12.57,13.42-19.47,2.73-37.55-13.39-22.66-7.2-52.71.48-79.09Z" fill="#fcfcfc" stroke-width="0"/></g></svg>