<?xml version="1.0" encoding="UTF-8"?><svg id="b" xmlns="http://www.w3.org/2000/svg" viewBox="0 0 978.86 1056.61"><g id="c"><path d="M565.49,262.18c-3.37-12.13-14.97-13.82-24.03-17.74-48.84-21.12-61.78-67.82-76.46-111.34-5.14-15.25,11.02-33.27,5.55-53.65-7.89-29.43-12.48-34.01-36.56-17.51-18.73,12.83-36.08,27.67-54,41.67-14.43,11.28-29.78,16.55-47.91,9.03-22.22-9.21-46.48,3.24-67.76-5.95-11.93-34.31-13.44-72.51-41.54-100.71-23.56,9.49-40.61,26.37-51.34,44.3-36.55,61.07-76.52,119.69-88.93,193.73-18.62,111.13-32.45,219.57-6.07,332.64,45.56,195.21,156.44,334.43,333.24,424.99,40.46,20.72,82.44,36.18,126.05,46.75,22.59,5.48,46.48.17,68.62-8.38,13.29-5.13,14.63-15.93,8.75-26.7-7.93-14.53-16.06-29.52-26.99-41.74-26.2-29.29-48.77-61.18-71.48-93.04" fill="none" stroke="#000" stroke-linecap="round" stroke-linejoin="round" stroke-width="11.97"/><path d="M553.52,917.43c7.98-4.99,16.1-9.77,23.91-15,22.77-15.25,40.35-12.94,60.43,8.48,46.36,49.44,106.06,74.25,172.98,81.19,82.75,8.57,168.96-78.07,161.59-161.44-2.91-32.93-9.84-64.37-33-89.7-12.21-13.35-23.3-32.64-44.82-12.02" fill="none" stroke="#000" stroke-linecap="round" stroke-linejoin="round" stroke-width="11.97"/><path d="M595.41,441.7c13,38.06,39.13,67.02,65.75,95.81,51.87,56.1,106.32,109.91,149.94,173.29,17.11,24.86,25.56,50.94,23.84,80.98-1.24,21.71-22.22,39.83-41.9,32.48-18.69-6.99-37.83-15.22-53.48-27.2-13.34-10.22-28.08-15.93-42.43-23.23" fill="none" stroke="#000" stroke-linecap="round" stroke-linejoin="round" stroke-width="11.97"/><path d="M517.62,238.24c-.61,37.66,16.07,69.72,27.6,97.19,48.51,5.49,94.43-4.49,125.4,40.16,9.91,14.28,13.01,30.35,4.62,41.45-11.23,14.87-26.52,31.88-49.81,24.36-16.94-5.47-41.65,3.63-47.97-23.64" fill="none" stroke="#000" stroke-linecap="round" stroke-linejoin="round" stroke-width="11.97"/><path d="M347.08,477.61c15.59-6.89,30.49,8.01,48.44-1.98,24.24-13.49,42.26-37.94,17.33-69.78-25.51-32.57-62.07-40.75-98.38-31.75-38.31,9.5-65.42,38.87-77.1,76.89-5,16.29-15.44,32.08-12.96,50.56" fill="none" stroke="#000" stroke-linecap="round" stroke-linejoin="round" stroke-width="11.97"/><path d="M891.62,734.92c-2.86,20.82,5,40.27,9.46,59.73,21.83,95.18-65.11,146.15-146.99,113.55-31.14-12.4-55.53-34.88-78.02-59.47-11.65-12.73-8.69-29.29-1.95-38.33,15.9-21.32,19.51-45.01,23.02-69.5" fill="none" stroke="#000" stroke-linecap="round" stroke-linejoin="round" stroke-width="11.97"/><path d="M74.8,259.19H17.95" fill="none" stroke="#000" stroke-linecap="round" stroke-linejoin="round" stroke-width="11.97"/><path d="M332.11,447.68c17.12,27.93,10.37,55.85,0,83.78" fill="none" stroke="#000" stroke-linecap="round" stroke-linejoin="round" stroke-width="11.97"/><path d="M5.98,304.07h59.84" fill="none" stroke="#000" stroke-linecap="round" stroke-linejoin="round" stroke-width="11.97"/></g></svg>