<?xml version="1.0" encoding="UTF-8"?><svg id="b" xmlns="http://www.w3.org/2000/svg" viewBox="0 0 1167.41 903.02"><g id="c"><path d="M351.43,632.32c10.55-24.1-13.96-39.07-23.2-45.85-67.65-49.64-142.89-78.26-229.2-60.2-42.12,8.81-73.8,30.66-87.71,73.16-11.4,34.81,2.91,63.33,25.93,87.37,13.59,14.19,31.22,19.8,47.2.44,3.28-3.97,7.3-7.32,10.91-11.03,40.31-41.3,39.8-40.4,91.63-11.28,35.35,19.86,66.35,44.22,83.47,81.02,22.81,49.05-3.24,115.44-50.72,149.75" fill="none" stroke="#000" stroke-linecap="round" stroke-linejoin="round" stroke-width="14.63"/><path d="M929.41,888.39c2.44-25.61,1.98-51.99,8.54-76.49,3.29-12.28,5.46-26.79,20.1-37.75,66.38-49.71,93.58-117.05,85.53-200.43-3.37-34.92,3.12-70.68,2.34-106-.45-20.36,6.07-29.34,26.16-29.36,20.63-.02,39.37-8.3,58.52-14.58,30.25-9.92,34.06-31.95,25.52-58.47-32.74-101.68-116.16-112.28-168.5-77.33-32.93,21.98-45.61,56.12-61.44,88.49-10.79,22.07-17.5,46.13-26.04,69.29" fill="none" stroke="#000" stroke-linecap="round" stroke-linejoin="round" stroke-width="14.63"/><path d="M856.25,566.47c5.4-18.99,27.39-20.01,37.36-36.1,19.01-30.71,18.86-58.84-4.19-88.46-19.57-25.16-31.49-54.8-44.31-83.87-31.09-70.47-76.65-132.5-117.02-197.54-27.61-44.49-60.74-84.96-95.12-124.33-9.16-10.49-18.74-20.77-32.71-25.92-14.6-5.38-26.28-4.28-32.9,11.21-7.74,18.11-21.42,36.82-20.67,54.77,1.61,38.83-19.84,57.67-48.97,73.14-51.06,27.11-102.65,53.24-153.5,80.74-29.45,15.92-59.37,15.79-91.65,11.55-30.01-3.94-60.87-17.46-91.35-.77" fill="none" stroke="#000" stroke-linecap="round" stroke-linejoin="round" stroke-width="14.63"/><path d="M146.58,240.9c28.02,23.18,32.85,60.24,53.73,88.64,45.94,62.47,71.31,137.78,117.74,200.7,10.38,14.07,22.47,31.35,7.78,50.87" fill="none" stroke="#000" stroke-linecap="round" stroke-linejoin="round" stroke-width="14.63"/><path d="M903.81,295.77c-21.95,9.75-43.9,19.51-65.85,29.26" fill="none" stroke="#000" stroke-linecap="round" stroke-linejoin="round" stroke-width="14.63"/><path d="M205.11,456.73c19.51,2.44,39.02,4.88,58.53,7.32" fill="none" stroke="#000" stroke-linecap="round" stroke-linejoin="round" stroke-width="14.63"/><path d="M867.23,233.59c-22.3,10.22-31.87,34.15-51.21,47.56" fill="none" stroke="#000" stroke-linecap="round" stroke-linejoin="round" stroke-width="14.63"/><path d="M592.87,478.68c-5.86-6.34.42-23.5-18.37-18.61-15.44,4.02-31.62,5.2-47.47,7.64" fill="none" stroke="#000" stroke-linecap="round" stroke-linejoin="round" stroke-width="14.63"/></g></svg>