<?xml version="1.0" encoding="UTF-8"?><svg id="b" xmlns="http://www.w3.org/2000/svg" viewBox="0 0 923.46 573.09"><g id="c"><path d="M540.88,178.62c11.03-34.33,26.04-66.72,15.92-104.24-4.21-15.59-2.53-33.12-1.58-49.66,1.33-22.88,13.6-31.18,33.25-19.38,23.49,14.11,44.89,32.06,65.68,50.11,9.21,7.99,16.96,9.64,28.97,9.75,37.78.32,75.65,2.72,113.23,6.68,11.79,1.24,19.6,1.18,29.53-6.63,17.81-14.01,36.93-27.17,57.3-36.91,28.32-13.54,43.63-2.81,39.64,28.65-3.72,29.29-13.06,57.83-19.21,86.86-2.18,10.31-2.89,21.04-3.18,31.61-.89,31.61-1.46,63.24-1.65,94.87-.05,7.78-.42,16.82,3.14,23.16,22.33,39.73,17.01,77.65-7.3,113.55-34.58,51.08-84.71,83-139.75,107.68-93.99,42.14-193.92,56.27-295.68,58.02-104.11,1.8-207.99-2.02-308.2-35.36-39.85-13.26-77.15-31.67-106.25-62.79-49.5-52.94-54.84-114.84-31.1-180.06,40.8-112.07,127.46-167.08,240.42-185.42,98.31-15.96,187.89,11.62,272.13,60.89,4.75,2.78,9.48,5.57,14.69,8.64ZM623.77,246.58c-1.48,1.8-2.96,3.6-4.43,5.41-5.72-3.24-11.6-6.24-17.14-9.76-46.58-29.61-90.35-65.46-140.19-87.79-128.61-57.62-254.27-51.66-366.06,41.68C40.2,242.67,10.37,305.78,15.68,379.6c4.89,67.98,51.72,106.21,109.39,132.2,66.66,30.05,138.06,39.82,210.24,44.13,128.65,7.69,256.35,4.46,379.41-40.25,60.6-22.02,115.84-53.13,158.54-102.79,33.01-38.39,36.08-74.76,12.73-118.41-3.09-5.78-2.38-13.96-2.26-21.01.57-32.92,1.35-65.83,2.48-98.73.38-11.24-.18-23.18,3.4-33.51,11.58-33.33,22.52-66.45,18.22-105.59-10.08,3-18.67,3.75-25.16,7.83-18.09,11.36-36.74,22.54-52.39,36.85-10.4,9.5-18.34,9.34-30.95,7.21-31.83-5.37-64.73-13.27-96.11-9.92-31.23,3.34-52.85-1.29-73.74-25.35-14.25-16.41-35.16-27.03-53.1-40.24-2.47,1.52-4.93,3.03-7.4,4.55,0,14.72-1.14,29.55.23,44.15,3.18,34.04,10.53,67.56-8.11,100.57-8.55,15.15-5.59,31.37,13.4,41.64,12.6,6.82,23.36,17.24,34.36,26.74,5.64,4.87,9.99,11.23,14.92,16.92Z" stroke-width="0"/><path d="M623.77,246.58c-4.93-5.69-9.28-12.05-14.92-16.92-11-9.49-21.76-19.92-34.36-26.74-18.99-10.27-21.95-26.5-13.4-41.64,18.64-33.01,11.29-66.53,8.11-100.57-1.36-14.6-.23-29.43-.23-44.15,2.47-1.52,4.93-3.03,7.4-4.55,17.93,13.21,38.84,23.84,53.1,40.24,20.9,24.06,42.51,28.68,73.74,25.35,31.38-3.35,64.28,4.55,96.11,9.92,12.61,2.13,20.56,2.29,30.95-7.21,15.64-14.3,34.3-25.49,52.39-36.85,6.49-4.08,15.08-4.83,25.16-7.83,4.31,39.14-6.64,72.26-18.22,105.59-3.59,10.33-3.02,22.27-3.4,33.51-1.12,32.9-1.91,65.82-2.48,98.73-.12,7.05-.83,15.23,2.26,21.01,23.34,43.65,20.28,80.02-12.73,118.41-42.7,49.66-97.94,80.77-158.54,102.79-123.06,44.72-250.75,47.94-379.41,40.25-72.18-4.31-143.58-14.08-210.24-44.13-57.67-26-104.5-64.22-109.39-132.2-5.31-73.82,24.52-136.94,80.27-183.48,111.79-93.34,237.46-99.3,366.06-41.68,49.83,22.33,93.6,58.18,140.19,87.79,5.54,3.52,11.42,6.52,17.14,9.76,1.48-1.8,2.96-3.6,4.43-5.41ZM580.53,194.94c34.48,5.99,65.24,11.34,96.62,16.79-8.61-22.1-67.21-33.9-96.62-16.79ZM590.92,112.69c24.6,6.4,41.72-7.01,57.99-22.9-22.59-1.65-39.39,13.19-57.99,22.9ZM877.31,140.19c.45-1.48.89-2.95,1.34-4.43-11.94-11.89-23.66-24.02-36.03-35.44-1.98-1.82-6.87-.48-10.42-.61.55,3.64-.2,8.56,1.89,10.71,9.55,9.85,19.55,19.35,30.19,27.99,2.91,2.36,8.61,1.27,13.03,1.77ZM863.71,266.15c-.65-19.23-15-23.43-26.03-29.85-2.75-1.6-8.01,1.1-17,2.68,14.64,11.06,24.32,18.51,34.21,25.68,1.41,1.02,3.79.7,8.83,1.49Z" fill="#fff" stroke-width="0"/><path d="M580.53,194.94c29.41-17.1,88.01-5.3,96.62,16.79-31.37-5.45-62.14-10.8-96.62-16.79Z" stroke-width="0"/><path d="M590.92,112.69c18.6-9.71,35.39-24.56,57.99-22.9-16.27,15.89-33.38,29.31-57.99,22.9Z" stroke-width="0"/><path d="M877.31,140.19c-4.42-.5-10.12.59-13.03-1.77-10.64-8.64-20.64-18.14-30.19-27.99-2.09-2.15-1.33-7.07-1.89-10.71,3.55.12,8.44-1.22,10.42.61,12.37,11.42,24.09,23.55,36.03,35.44-.45,1.48-.89,2.95-1.34,4.43Z" stroke-width="0"/><path d="M863.71,266.15c-5.04-.79-7.42-.47-8.83-1.49-9.88-7.17-19.56-14.62-34.21-25.68,8.99-1.58,14.25-4.28,17-2.68,11.04,6.42,25.38,10.63,26.03,29.85Z" stroke-width="0"/></g></svg>