<?xml version="1.0" encoding="UTF-8"?><svg id="b" xmlns="http://www.w3.org/2000/svg" viewBox="0 0 820.51 983"><g id="c"><path d="M700.88,437.34c-16.16,1.85-29.85,4.36-43.61,4.81-36.15,1.19-57.3,15.87-63.32,54.65-1.55,9.97-24.28,21.56-38.5,23.52-22.17,3.06-45.73.35-67.99-3.74-8.4-1.54-17.62-12.45-21.72-21.29-22.77-49.06-28-52.46-77.61-44.7-14.55,2.28-29.35,4.86-43.95,4.47-30.26-.8-54.54,1.46-68.71,36.68-10.01,24.88-39.56,27.31-65.37,24.58-26.48-2.8-57.76-2.08-64.92-35.62-7.08-33.14-31.72-22.86-51.12-25.07-3.4-.39-10.99,10.31-11.77,16.5-18.27,145.52-36.21,291.08-53.28,436.75-3.16,26.97-1.3,27.19-29.01,41.99,1.89-35.35,2.53-67.23,5.48-98.9,9.11-97.78,18.85-195.51,28.97-293.19,2.13-20.56,6.25-40.99,10.62-61.23,4.58-21.21,14.29-42.77-13.42-56.47-2.36-1.17-3.11-12.36-1.91-12.9,9.05-4.07,18.78-6.65,31.18-10.61,19.4-84.9,38.25-172.92,60-260.21,10.52-42.21,25.35-83.48,40.33-124.41,13.55-37.01,29.11-36.73,60.74-12.06,42.49,33.14,51.34,83.76,73.46,127.16,21.66,42.49,26.17,49.29,74.05,48.36,35.72-.7,71.59-1.77,107-5.93,11.13-1.31,24.6-10.87,30.86-20.6,28.36-44.09,54.33-89.7,81.66-134.47,5.08-8.32,11.52-16.33,18.92-22.6,24.68-20.94,42.84-16.39,49.22,15.03,20.29,99.87,38.66,200.12,57.75,300.23,3.72,19.49,6.78,39.13,11.26,58.44,1.43,6.17,5.35,12.85,10.15,16.91,7.4,6.26,16.55,10.46,24.95,15.53-7.99,7.52-15.98,15.05-29.05,27.36,11.11,69.42,22.3,144.6,35.34,219.46,17.02,97.66,35.82,195.01,52.77,292.68,1.29,7.42-6.1,16.34-9.45,24.57-6.59-7.97-17.58-15.19-19.11-24.04-29.03-168.22-56.92-336.64-85.19-505-.8-4.75-3.14-9.24-5.73-16.62ZM702.26,407.1c-23.12-125.99-45.66-248.83-68.55-373.55-8.69,3.82-12.63,4.24-13.84,6.28-28.76,48.39-59.08,95.99-84.85,145.93-10.82,20.98-20.92,33.62-45.63,34.11-49.3.97-98.54,4.74-147.84,5.56-21.99.37-43.35-3.46-53.99-28.41-14.35-33.65-29.37-67.1-46.15-99.58-11.69-22.64-26.81-43.52-40.4-65.19-4.96.74-9.92,1.49-14.88,2.23-33.05,127.74-66.1,255.49-100.01,386.52,15.72,2.19,24.84,3.46,33.82,4.71,5.96-32.85,8.26-37.33,40.05-39.92,37.15-3.02,74.75-3.56,111.92-1.3,10.29.63,20.09,14.67,29.46,23.28,5.68,5.22,10.63,17.35,15.01,16.93,44.85-4.23,95.24,18.62,132.51-26.19,4.75-5.72,15.71-7.27,24.14-8.75,23.44-4.11,47.04-7.4,70.64-10.6,39.36-5.34,65.91,7,82.37,39.11,23.63-3.47,47.85-7.02,76.23-11.19Z" stroke-width="0"/><path d="M400.66,611.81c-4.56-1.17-13.91-1-19.45-5.5-13.66-11.11-25.12-8.27-40.28-2.31-30.1,11.84-63.36-14.77-62-47.95.21-5,4.8-9.82,7.36-14.72,5.55,3.14,14.62,5.13,16.08,9.6,12.09,37.09,29.9,27.69,52.17,9.27,4.29-3.55,20.11-.18,24.93,5.15,22.79,25.14,42.71,24.09,58.3-4.6,2.8-5.15,8.99-8.46,13.61-12.62,4.12,5.91,10.89,11.4,11.88,17.79,4.11,26.33-22.66,46.52-62.61,45.89Z" stroke-width="0"/><path d="M702.26,407.1c-28.38,4.17-52.6,7.72-76.23,11.19-16.46-32.12-43.02-44.45-82.37-39.11-23.59,3.2-47.19,6.48-70.64,10.6-8.43,1.48-19.38,3.03-24.14,8.75-37.27,44.81-87.66,21.95-132.51,26.19-4.38.41-9.33-11.71-15.01-16.93-9.37-8.6-19.16-22.65-29.46-23.28-37.17-2.26-74.77-1.72-111.92,1.3-31.8,2.59-34.09,7.06-40.05,39.92-8.98-1.25-18.1-2.52-33.82-4.71,33.9-131.04,66.96-258.78,100.01-386.52,4.96-.74,9.92-1.49,14.88-2.23,13.59,21.67,28.71,42.54,40.4,65.19,16.77,32.48,31.8,65.94,46.15,99.58,10.64,24.96,32,28.78,53.99,28.41,49.3-.82,98.54-4.59,147.84-5.56,24.71-.48,34.81-13.13,45.63-34.11,25.76-49.95,56.09-97.55,84.85-145.93,1.21-2.04,5.16-2.46,13.84-6.28,22.89,124.72,45.43,247.57,68.55,373.55Z" fill="#fff" stroke-width="0"/></g></svg>