<?xml version="1.0" encoding="UTF-8"?><svg id="b" xmlns="http://www.w3.org/2000/svg" viewBox="0 0 632.83 1203.78"><g id="c"><path d="M184.77,189.24c-5.23-3.4-11.42-6.46-16.3-10.94-3.41-3.14-5.03-8.22-7.45-12.44,4.77-.28,9.98-1.92,14.22-.55,7.8,2.52,15.02,6.82,22.51,10.3.28.13.91-.49,5.13-2.92-5.62-5.34-11.15-9.5-15.2-14.81-2.73-3.58-3.35-8.77-4.92-13.23,4.4.2,9.25-.7,13.11.85,7.03,2.83,16.38,11.86,19.61,9.89,9.63-5.88,18.46-14.79,24.54-24.45,13.96-22.18,25.53-45.86,39.25-68.21,6.35-10.34,14.77-19.68,23.45-28.27,15.97-15.8,28.82-15.28,44.56.38,1.91,1.9,3.92,3.71,5.74,5.44,21.38-9.93,41.64-20.58,62.82-28.84,23.04-8.99,47.26-16.79,71.83-6.64,9,3.72,20.72,11.2,22.6,19.03,2.12,8.81-2.76,22.48-9.37,29.58-14.74,15.83-33.09,28.22-48.72,43.29-10.72,10.34-19.93,22.42-28.7,34.53-5.78,7.99-4.24,13.49,7.32,16.35,15.6,3.86,30.94,9.55,45.59,16.21,12.34,5.61,21.28,4.36,32.02-4.31,15.65-12.61,26.33-28.07,35.91-45.33,7.77-13.99,17.76-26.94,28.09-39.25,9.79-11.68,23.22-19.75,38.66-14.56,16.41,5.52,21.1,22.29,21.54,36.78.71,23.41-.35,47.46-5.1,70.32-9.78,47.05-20.44,94.11-34.55,140-15.89,51.69-47.03,94.57-87.21,130.93-30.23,27.36-55.07,58.51-65.23,99.23-1.9,7.61-5.02,14.93-6.69,22.57-4.8,21.98-7.2,41,13.7,59.97,55.98,50.78,78.07,116.76,70.34,191.17-6.07,58.4-42.42,118.9-116.44,125.9-3.13.3-6.11,2.18-10.94,4,37.38,48.88,37.23,104.01,27.3,159.42-13.51,75.39-87.53,112.87-157.54,100.98-42.28-7.18-73.72-27.86-94.48-64.58-10.32-18.26-5.69-36.34,9.79-48.04,15.88-12.01,32.07-11.22,47.62,6.06,19.52,21.69,43.24,26.1,70.16,22.78,21.43-2.64,37.3-22.8,40.11-53.12,2.87-30.93-8.43-57.59-30.12-78.79-5.76-5.64-18.91-8.86-26.67-6.54-88.05,26.33-169.68-8.09-219.94-78.62-30.51-42.82-48.94-90.25-55.57-142.36-5.01-39.36,5.81-73.45,35.2-100.36,7.95-7.28,10.4-14.37,9.96-24.4-.82-19.09-.76-38.21-.98-57.32-1.27-111.18,28.71-213.49,87.78-307.4,16.63-26.44,33.95-52.44,51.62-79.67ZM270.7,963.56c-5.24-7.51-11-14.28-14.87-22.01-1.73-3.46.35-8.84.7-13.34,4.09,1.54,9.11,2.07,12.08,4.82,8.96,8.27,15.64,20.11,25.87,25.7,32.52,17.78,47.93,47.15,54.26,80.66,8.66,45.81-12.85,104.85-85.24,95.42-21.52-2.8-37.86-14.61-53.12-29.39-4.6-4.46-15.63-7.8-20.29-5.29-5.88,3.17-9.96,12.48-11.55,19.85-1.08,5.01,2.46,11.88,5.65,16.81,38.04,58.87,123.81,67.17,178,26.11,36.52-27.66,44.42-67.69,44.95-109.33.54-42.73-6.21-83.97-42.84-113.59-7.72-6.24-14.02-14.56-19.71-22.8-2.11-3.06-.6-8.62-.74-13.04,4.26.86,11.1.36,12.39,2.79,11.17,21.13,26.99,17.16,46.86,14.14,62.6-9.51,88.92-52.73,96.6-98.02,13.21-77.95-11.13-146-70.47-199.97-8.12-7.39-18.91-8-21.23,3.62-3.71,18.57-3.13,37.98-4.79,57-.41,4.72-2.49,9.29-3.8,13.93-3.38-2.98-8.07-5.31-9.93-9.05-12.81-25.73-5.34-64.5,15-83.88,3.69-3.52,6.69-8.71,7.94-13.66,3.14-12.45,5.37-25.16,7.48-37.85,8.78-52.87,37.82-93.92,76.63-128.54,34.13-30.45,61.02-66.4,75.99-108.9,14.8-42.03,25.3-85.83,34.29-129.56,6.16-29.94,8.36-61.04,8.78-91.68.29-20.53-13.98-26.2-28.22-11.54-15,15.45-26.39,34.42-40.68,53.62,29.16,4.89,38.82,20.59,29.89,46.31-9.86,28.41-21.91,56.08-33.71,83.78-9.11,21.39-8.04,24.44,13.73,30.81,2.53.74,5.94,3.78,6.07,5.93.13,2.11-3.02,5.66-5.42,6.42-5.85,1.86-12.09,2.47-17.86,3.53,6.78,7.74,12.47,14.23,18.15,20.72-7.35,1.66-14.71,3.32-24.31,5.49.72-1.31.23.43-.9,1.5-4.03,3.79-8.27,7.35-12.44,11-1.08-5.81-3.36-11.7-3-17.43.92-14.39,2.49-28.79,4.86-43.01,1.87-11.22,4.24-22.6,8.3-33.18,9.59-24.98,21.36-49.17,29.99-74.45,2.76-8.09-1.61-18.61-2.71-28.01-9.45,1.39-19.83.79-28.12,4.67-9.91,4.63-17.38,14.37-27.18,19.43-6.31,3.26-16.05,4.92-22.29,2.41-27.29-10.98-51.93-29.16-83.67-27.13-7.57.48-15.36-2.92-23.09-4.26-11.4-1.98-17.79-7.69-18.51-20.11-.91-15.66-2.07-31.48-5.19-46.8-3.48-17.09-6.67-35.08-26.31-48.95-11.91,14.61-24.63,27.72-34.39,42.75-14.51,22.36-23.18,49.6-40.98,68.52-40.5,43.06-75.82,89.16-106.36,139.72-36.99,61.27-60.58,127.02-73.39,196.96-9.68,52.9-6.43,106.29-4.98,159.62.87,31.86,9.07,61.79,20.36,91.27,1.9,4.96-.56,11.59-1,17.44-4.74-3.72-9.69-7.21-14.1-11.3-1.41-1.31-1.34-4.18-2.01-6.32-6.38-20.4-12.78-40.8-19.91-63.52-16.85,18.83-28.89,36.79-29.54,60.81-1.36,51.05,15.56,96.74,40.13,140.32,45.61,80.86,126.17,115.9,213.86,92.01ZM374.35,134.82c2.94.37,7.47.3,11.58,1.57,15.8,4.91,23.03-.04,26.27-16.95,1.69-8.82,10.06-17.26,17.21-23.97,18.31-17.17,37.72-33.15,56.49-49.84,13.27-11.8,11.91-20.31-4.36-26.83-4.51-1.81-9.79-2.78-14.62-2.51-37.43,2.09-69.54,19.03-100.76,37.69-3.24,1.93-5.08,9.65-4.37,14.17,3.41,21.44,7.93,42.7,12.56,66.67Z" stroke-width="0"/><path d="M270.7,963.56c-87.69,23.89-168.25-11.15-213.86-92.01-24.58-43.58-41.5-89.26-40.13-140.32.64-24.03,12.68-41.99,29.54-60.81,7.12,22.73,13.52,43.12,19.91,63.52.67,2.14.6,5.02,2.01,6.32,4.41,4.08,9.36,7.58,14.1,11.3.44-5.86,2.9-12.48,1-17.44-11.29-29.49-19.49-59.41-20.36-91.27-1.46-53.33-4.71-106.72,4.98-159.62,12.8-69.94,36.39-135.69,73.39-196.96,30.53-50.57,65.86-96.66,106.36-139.72,17.79-18.92,26.47-46.16,40.98-68.52,9.75-15.04,22.48-28.15,34.39-42.75,19.64,13.87,22.83,31.86,26.31,48.95,3.12,15.33,4.28,31.14,5.19,46.8.72,12.41,7.1,18.13,18.51,20.11,7.73,1.34,15.52,4.74,23.09,4.26,31.74-2.03,56.38,16.15,83.67,27.13,6.24,2.51,15.98.85,22.29-2.41,9.8-5.06,17.26-14.79,27.18-19.43,8.29-3.88,18.67-3.28,28.12-4.67,1.11,9.41,5.47,19.92,2.71,28.01-8.62,25.28-20.4,49.47-29.99,74.45-4.06,10.58-6.42,21.95-8.3,33.18-2.37,14.22-3.94,28.62-4.86,43.01-.37,5.72,1.92,11.61,3,17.43,4.16-3.65,8.41-7.21,12.44-11,1.13-1.06,1.62-2.81.9-1.5,9.6-2.17,16.95-3.83,24.31-5.49-5.69-6.49-11.37-12.98-18.15-20.72,5.77-1.06,12.01-1.67,17.86-3.53,2.4-.76,5.55-4.31,5.42-6.42-.13-2.15-3.54-5.19-6.07-5.93-21.77-6.37-22.84-9.43-13.73-30.81,11.8-27.7,23.84-55.37,33.71-83.78,8.93-25.72-.73-41.42-29.89-46.31,14.29-19.21,25.68-38.17,40.68-53.62,14.24-14.67,28.51-8.99,28.22,11.54-.43,30.63-2.63,61.74-8.78,91.68-8.99,43.72-19.49,87.53-34.29,129.56-14.97,42.5-41.86,78.45-75.99,108.9-38.81,34.63-67.85,75.67-76.63,128.54-2.11,12.69-4.34,25.4-7.48,37.85-1.25,4.94-4.25,10.14-7.94,13.66-20.35,19.38-27.81,58.15-15,83.88,1.86,3.74,6.55,6.07,9.93,9.05,1.31-4.64,3.39-9.21,3.8-13.93,1.67-19.02,1.08-38.43,4.79-57,2.32-11.63,13.12-11.01,21.23-3.62,59.33,53.97,83.68,122.02,70.47,199.97-7.68,45.29-34,88.52-96.6,98.02-19.86,3.02-35.69,6.99-46.86-14.14-1.29-2.43-8.12-1.93-12.39-2.79.14,4.42-1.37,9.98.74,13.04,5.69,8.24,11.99,16.56,19.71,22.8,36.63,29.62,43.39,70.86,42.84,113.59-.53,41.64-8.43,81.67-44.95,109.33-54.19,41.06-139.96,32.76-178-26.11-3.19-4.93-6.73-11.8-5.65-16.81,1.58-7.37,5.67-16.68,11.55-19.85,4.65-2.51,15.68.84,20.29,5.29,15.26,14.78,31.6,26.58,53.12,29.39,72.39,9.43,93.91-49.6,85.24-95.42-6.34-33.5-21.74-62.88-54.26-80.66-10.23-5.59-16.91-17.43-25.87-25.7-2.97-2.75-8-3.28-12.08-4.82-.35,4.51-2.43,9.88-.7,13.34,3.86,7.72,9.63,14.5,14.87,22.01ZM203.31,470.89c-22.88,3.41-40.07,5.57-57.05,8.82-3.64.7-6.53,5.35-9.77,8.18,3.87,2,7.93,6.04,11.57,5.69,39.64-3.79,79.14-8.14,117.76,7.01,3.94,1.54,9.76-1.72,14.71-2.76-3.43-4.29-6.16-11.35-10.4-12.42-23.68-5.98-47.72-10.52-66.81-14.53ZM203.17,538.79c-17.94,4.34-36.42,8.33-54.51,13.66-3.08.91-4.45,7.58-6.61,11.59,4.38.94,9.52,3.87,13.02,2.52,32.34-12.48,64.83-8.92,97.61-2.69,4.53.86,9.63-1.29,14.47-2.05-3.35-4.02-6.05-10.52-10.18-11.62-17.19-4.59-34.81-7.55-53.8-11.42ZM198.63,405.92c-2.83-.57-4.74-1.6-6.1-1.11-6.75,2.44-13.36,5.28-20.02,7.98,6.24,2.61,12.59,7.7,18.7,7.42,32.09-1.45,62.32,4.28,91.31,18.23,4.47,2.15,11.12-.21,16.76-.49-3.08-4.63-5.7-9.68-9.41-13.73-2.09-2.27-5.94-2.97-9.05-4.26-26.71-11.02-54.07-18.29-82.18-14.05Z" fill="#fff" stroke-width="0"/><path d="M374.35,134.82c-4.64-23.97-9.16-45.23-12.56-66.67-.72-4.52,1.13-12.23,4.37-14.17,31.22-18.66,63.33-35.59,100.76-37.69,4.83-.27,10.11.71,14.62,2.51,16.27,6.52,17.63,15.02,4.36,26.83-18.77,16.69-38.18,32.67-56.49,49.84-7.15,6.7-15.52,15.14-17.21,23.97-3.24,16.91-10.47,21.86-26.27,16.95-4.11-1.28-8.65-1.2-11.58-1.57Z" fill="#fff" stroke-width="0"/><path d="M203.31,470.89c19.09,4.01,43.13,8.55,66.81,14.53,4.24,1.07,6.97,8.13,10.4,12.42-4.95,1.03-10.77,4.3-14.71,2.76-38.62-15.15-78.11-10.81-117.76-7.01-3.64.35-7.7-3.69-11.57-5.69,3.24-2.83,6.12-7.48,9.77-8.18,16.98-3.25,34.18-5.41,57.05-8.82Z" stroke-width="0"/><path d="M203.17,538.79c18.99,3.87,36.61,6.83,53.8,11.42,4.13,1.1,6.82,7.6,10.18,11.62-4.84.76-9.94,2.91-14.47,2.05-32.78-6.23-65.27-9.78-97.61,2.69-3.49,1.35-8.64-1.58-13.02-2.52,2.16-4.01,3.54-10.69,6.61-11.59,18.09-5.33,36.58-9.32,54.51-13.66Z" stroke-width="0"/><path d="M198.63,405.92c28.11-4.24,55.47,3.02,82.18,14.05,3.11,1.28,6.97,1.98,9.05,4.26,3.71,4.05,6.34,9.1,9.41,13.73-5.64.28-12.29,2.64-16.76.49-28.99-13.95-59.22-19.68-91.31-18.23-6.11.28-12.46-4.81-18.7-7.42,6.66-2.7,13.27-5.54,20.02-7.98,1.36-.49,3.26.55,6.1,1.11Z" stroke-width="0"/></g></svg>