<?xml version="1.0" encoding="UTF-8"?><svg id="b" xmlns="http://www.w3.org/2000/svg" viewBox="0 0 1116.24 896.48"><g id="c"><path d="M869.64,412.45c20.68,40.65,27.05,80.84,22.68,122.54-3.78,36.04-15.59,69.07-40.54,96.55-18.27,20.12-19.72,82.5-1.37,102.47,6.07,6.6,16.27,11.27,25.3,12.92,22.54,4.12,33.24,12.31,34.68,30.43,1.3,16.39-12.92,34.44-30.3,40.54-36.71,12.89-66.03-2.38-90.82-26.29-16.57-15.98-28.52-36.75-42.63-55.31-1.21-1.6-3.07-2.71-5.08-4.44-13.65,24.63-16.79,50.32-12.39,76.58,1.14,6.81,7.79,13.92,13.76,18.48,18.49,14.16,25.75,29.74,19.5,45.93-6.1,15.79-23.35,25.16-44.78,23.42-45.21-3.67-74.07-30.83-87.65-70.88-11.09-32.7-14.21-68.11-20.74-102.34-.8-4.17-.82-8.48-1.32-14-9.55,1.91-18.03,3.62-26.52,5.31-38.76,7.72-76.5.92-113.73-9.03-59.89-16.01-116.1-40.82-159.15-86.37-24.83-26.27-45.62-57.11-64.36-88.23-25.36-42.12-60.67-58.23-107.66-49.59-16.37,3.01-32.33,9.2-47.89,15.41-28.53,11.39-56.03,6.61-75.32-14.43-17.61-19.2-18.18-41.59,1.07-59.69,34.93-32.86,77.71-40.1,123.69-33.77,8.6,1.18,17,3.84,28.12,6.42-6.96-43.56-6.58-88.4-49.3-114.58-8.59-5.27-20.47-7.12-30.84-7.15-26.6-.07-45.77-11.94-49.67-33.13-3.97-21.54,12.54-47.66,34.1-56.19,24.65-9.76,47.15-5.78,68.62,8.19,9.15,5.95,17.96,12.42,28.62,19.84,5.84-18.62,10.45-37.48,17.71-55.25,7.37-18.06,17.36-35.06,27.29-54.68-7.08-5.02-15.8-10.33-23.31-16.99-2.77-2.46-2.7-8.13-3.93-12.33,3.95-.07,8.6-1.52,11.71.06,9.43,4.81,18.27,10.79,27.34,16.32,1.34-1.37,2.68-2.75,4.03-4.12-5.7-6.17-12.08-11.86-16.86-18.68-3.5-5-4.89-11.47-7.22-17.29,5.45,1.83,11.14,3.15,16.26,5.65,3.84,1.87,6.94,5.25,11.09,8.53,11.37-11.18,22.55-17.56,40.37-10,7.88,3.35,21.13-5.67,31.85-9.32,37.16-12.62,74.9-11.79,111.8-1.11,21.2,6.14,37.79,3.39,54.46-10.36,12.97-10.7,26.89-20.61,41.54-28.82,15.12-8.48,27.43-1.84,29.26,15.51,1.53,14.49.31,29.28.31,44.93,15.82-5.18,30.81-11.21,46.37-14.92,22.1-5.27,32.49,3.49,32.56,25.89.13,37.38-18.1,68.48-36.47,98.75-18.65,30.72-41.87,58.62-49.72,95.11-7.42,34.53,15.31,66.37,50.28,63.57,31.35-2.51,62.24-10.86,93.32-16.72,50.18-9.46,97.01-5.42,137,31.17,5.19,4.75,14.73,6.21,22.37,6.54,34.47,1.49,69.52-1.52,103.37,3.63,72.47,11.04,129.17,47.63,158.16,117.43,23.65,56.94,23.09,115.49.68,173.16-18.85,48.51-50.45,87.29-96.06,112.27-13.77,7.54-32.59,8.21-49.02,7.89-16.35-.32-29.62-24.31-20.84-38.58,10.91-17.72,24.04-35.46,40.09-48.36,43.03-34.61,63.61-78,60.83-132.85-3.28-64.69-57.7-136.6-136.12-135.64-8.7.11-17.4.01-28.55.01ZM1100.02,561.86c-.95-12.13-1.45-19.81-2.17-27.46-8.04-84.66-75.3-153.76-159.62-161.43-34.83-3.17-70.1-1.17-105.07-3.17-10.02-.57-20.24-5.92-29.43-10.83-14.75-7.88-27.83-19.49-43.19-25.48-33.85-13.22-67.89-4.31-101.89,2.69-27.2,5.6-54.77,10.71-82.4,12.42-20.63,1.28-37.33-9.53-47.85-28.86-14-25.72-13.42-52.49-2.46-77.71,10.15-23.35,24.57-44.98,38.34-66.59,18.6-29.19,35.21-59.12,40.15-93.91,2.25-15.83-1.92-19.95-16.73-15.4-22.88,7.03-44.91,16.86-67.75,24.05-8.05,2.53-19.51,4.27-25.89.46-67.89-40.43-138.27-51.92-213.45-22.75-5.1,1.98-11.89-.85-17.6.18-6.05,1.09-16.93,4.52-16.8,6.24,1.52,19.78-14.1,29.96-22.98,43.69-31.83,49.23-43.99,104.45-48.01,161.65-2.85,40.53-1.69,81.13,9.08,120.93,1.5,5.56-1.35,12.3-2.18,18.5-4.93-1.67-9.98-3.07-14.78-5.07-47.68-19.81-93.46-16.14-135.53,13.77-23.86,16.96-19.14,43.28,7.94,54.81,19.06,8.12,36.17,1.81,53.65-5.8,43.57-18.96,88.88-23.55,128.24,5.43,21.48,15.81,37.1,41.46,51.12,65.18,55.69,94.21,142.69,136.92,246.38,150.67,27.52,3.65,56.47-1.77,84.56-4.81,18.47-2,20.22-.57,22.16,17.3,3.58,33.07,5.83,66.86,14.75,98.64,10.38,36.99,32.61,66.41,74.92,70.44,12.26,1.17,25.54,1.55,31.2-11.95,5.86-13.99-5.29-20.86-14.31-29.49-8.47-8.11-16.97-18.98-19.47-30-6.11-26.94.57-53.18,11.56-78.28,13.8-31.51,40.25-51.03,66.72-70.46,24.56-18.02,51.37-33.68,65.77-62.27,30.09-59.76,26.48-119.34-1.69-178.59-6.62-13.92-3.58-22.25,11.45-21.63,27.7,1.13,57.34-.04,82.53,9.44,109.65,41.25,136.31,193.9,49.67,272.8-16.49,15.01-32.93,30.39-47.19,47.44-10.9,13.04-2.61,28.26,14.36,27.16,11.68-.76,24.91-3.12,34.29-9.45,66-44.5,99.12-107.15,99.62-182.49ZM821.31,657.53c-17.5,13.22-35.31,27.21-53.71,40.38-13.41,9.59-13.56,20.23-6.31,33.73,13.72,25.54,31.69,47.6,56.53,62.15,12.53,7.34,28.2,11.11,42.84,12.6,15.98,1.63,34.48-14.4,33.98-27.39-.64-16.56-15.5-13.96-25.91-16.36-24.61-5.66-38.98-21.04-42.43-45.6-2.62-18.62-3.22-37.52-4.98-59.51ZM156.94,293.1c1.59-12.79,1.88-25.35,4.93-37.21,3.99-15.52,2.28-27.76-12.12-36.84-5.5-3.47-10.04-8.43-15.42-12.13-21.79-14.97-47.41-16.35-66.02-3.84-12.29,8.26-19.39,26.77-14.31,38.83,5.95,14.13,17.76,16.81,31.35,14.26,16.37-3.07,30.26,2.5,42.73,12.11,9.76,7.52,18.74,16.05,28.85,24.82ZM465.23,55.24c13.2,7.79,22.98,15.01,33.9,19.4,5.44,2.18,18.08.6,18.71-1.71,4.37-15.79,6.72-32.18,8.62-48.51.14-1.17-10.36-6.19-12.72-4.62-16.11,10.7-31.38,22.68-48.51,35.44Z" stroke-width="0"/><path d="M1100.02,561.86c-.51,75.34-33.62,137.99-99.62,182.49-9.38,6.33-22.62,8.69-34.29,9.45-16.97,1.1-25.26-14.12-14.36-27.16,14.26-17.05,30.7-32.42,47.19-47.44,86.65-78.9,59.98-231.55-49.67-272.8-25.19-9.48-54.83-8.31-82.53-9.44-15.03-.61-18.06,7.71-11.45,21.63,28.17,59.25,31.78,118.83,1.69,178.59-14.39,28.59-41.21,44.25-65.77,62.27-26.47,19.42-52.92,38.95-66.72,70.46-10.99,25.09-17.67,51.33-11.56,78.28,2.5,11.02,10.99,21.89,19.47,30,9.02,8.63,20.17,15.51,14.31,29.49-5.66,13.51-18.94,13.12-31.2,11.95-42.3-4.04-64.53-33.45-74.92-70.44-8.92-31.77-11.17-65.56-14.75-98.64-1.93-17.88-3.69-19.3-22.16-17.3-28.1,3.04-57.05,8.46-84.56,4.81-103.69-13.75-190.7-56.46-246.38-150.67-14.02-23.72-29.64-49.37-51.12-65.18-39.36-28.98-84.67-24.39-128.24-5.43-17.48,7.61-34.59,13.92-53.65,5.8-27.08-11.53-31.81-37.85-7.94-54.81,42.07-29.91,87.85-33.58,135.53-13.77,4.8,1.99,9.85,3.39,14.78,5.07.84-6.19,3.69-12.93,2.18-18.5-10.77-39.8-11.93-80.4-9.08-120.93,4.02-57.2,16.18-112.42,48.01-161.65,8.88-13.73,24.5-23.9,22.98-43.69-.13-1.72,10.75-5.15,16.8-6.24,5.71-1.03,12.49,1.8,17.6-.18,75.19-29.16,145.56-17.68,213.45,22.75,6.39,3.8,17.85,2.07,25.89-.46,22.85-7.19,44.87-17.02,67.75-24.05,14.81-4.55,18.98-.43,16.73,15.4-4.93,34.78-21.55,64.71-40.15,93.91-13.77,21.61-28.19,43.24-38.34,66.59-10.96,25.21-11.54,51.99,2.46,77.71,10.52,19.33,27.22,30.14,47.85,28.86,27.63-1.71,55.2-6.83,82.4-12.42,34-7,68.03-15.91,101.89-2.69,15.36,6,28.44,17.6,43.19,25.48,9.19,4.91,19.41,10.26,29.43,10.83,34.97,2,70.25,0,105.07,3.17,84.32,7.68,151.58,76.77,159.62,161.43.73,7.65,1.22,15.33,2.17,27.46ZM302.96,174.73c8.86,9.99,17.32,20.39,26.84,29.72,2.95,2.89,8.77,2.84,13.27,4.14-.77-4.82-.21-10.48-2.59-14.31-5.68-9.16-12.34-17.81-19.43-25.94-3.25-3.73-8.47-5.75-12.79-8.55-1.67,5.09-3.34,10.18-5.01,15.27-4.74-1.34-9.47-2.68-14.21-4.01-.32,5.11-1.96,10.56-.7,15.24,2.53,9.39,5.91,18.73,10.41,27.32,2.34,4.46,7.81,7.28,11.87,10.84.83-5.75,3.27-11.84,2.17-17.19-2.28-11.05-6.44-21.7-9.83-32.52ZM304.92,112.51c-.17,11.48,10.45,22.8,21.23,22.62,10.37-.17,21.5-11.75,21.81-22.7.31-10.97-10.62-22.49-21.36-22.51-10.59-.02-21.51,11.36-21.67,22.58Z" fill="#fff" stroke-width="0"/><path d="M821.31,657.53c1.76,21.99,2.37,40.89,4.98,59.51,3.45,24.55,17.82,39.94,42.43,45.6,10.41,2.39,25.27-.2,25.91,16.36.5,12.99-17.99,29.02-33.98,27.39-14.64-1.49-30.31-5.26-42.84-12.6-24.84-14.55-42.81-36.61-56.53-62.15-7.25-13.5-7.1-24.14,6.31-33.73,18.4-13.17,36.21-27.16,53.71-40.38Z" fill="#fff" stroke-width="0"/><path d="M156.94,293.1c-10.11-8.76-19.09-17.3-28.85-24.82-12.47-9.61-26.36-15.18-42.73-12.11-13.59,2.55-25.4-.13-31.35-14.26-5.08-12.06,2.02-30.57,14.31-38.83,18.62-12.51,44.24-11.13,66.02,3.84,5.38,3.7,9.92,8.66,15.42,12.13,14.4,9.08,16.11,21.32,12.12,36.84-3.05,11.85-3.34,24.42-4.93,37.21Z" fill="#fff" stroke-width="0"/><path d="M465.23,55.24c17.13-12.76,32.4-24.75,48.51-35.44,2.36-1.57,12.86,3.45,12.72,4.62-1.9,16.33-4.24,32.73-8.62,48.51-.64,2.3-13.28,3.89-18.71,1.71-10.92-4.39-20.7-11.61-33.9-19.4Z" fill="#fff" stroke-width="0"/><path d="M304.92,112.51c.16-11.22,11.08-22.6,21.67-22.58,10.74.02,21.68,11.54,21.36,22.51-.31,10.94-11.44,22.52-21.81,22.7-10.77.18-21.39-11.14-21.23-22.62Z" stroke-width="0"/><path d="M303.25,175.06c1.67-5.09,3.34-10.18,5.01-15.28,4.32,2.8,9.54,4.82,12.79,8.55,7.09,8.13,13.75,16.79,19.43,25.94,2.38,3.83,1.81,9.48,2.59,14.31-4.5-1.3-10.33-1.25-13.27-4.14-9.51-9.33-17.97-19.73-26.84-29.72l.29.33Z" stroke-width="0"/><path d="M302.96,174.73c3.39,10.82,7.55,21.47,9.83,32.52,1.1,5.36-1.33,11.44-2.17,17.19-4.06-3.56-9.53-6.38-11.87-10.84-4.5-8.59-7.88-17.94-10.41-27.32-1.26-4.68.37-10.14.7-15.24,4.74,1.34,9.47,2.68,14.21,4.02,0,0-.28-.32-.28-.32Z" stroke-width="0"/></g></svg>