<?xml version="1.0" encoding="UTF-8"?><svg id="b" xmlns="http://www.w3.org/2000/svg" viewBox="0 0 782.96 1142.7"><g id="c"><path d="M477.24,83.98c20.64-26.91,35.77-50.11,54.48-69.93,14.85-15.72,33.74-12.56,41.48,7.72,12.77,33.47,21.98,68.43,30.78,103.24,11.72,46.36,21.62,93.18,32.82,142.03,16.83-2.79,30.52-5.01,44.2-7.34,7.59-1.29,15.18-3.95,22.7-3.74,4.68.13,9.24,4.47,13.86,6.92-4.22,3.42-7.97,8.72-12.74,9.92-14.89,3.73-30.19,5.75-45.26,8.78-3.91.78-7.57,2.8-16.82,6.35,8.47,3.45,12.27,6.27,16.15,6.37,16.63.43,33.33-.72,49.88.47,4.76.34,9.1,6.59,13.63,10.13-4.88,2.27-9.66,6.26-14.64,6.51-16.49.83-33.05.31-53.86.31,10.69,29.56,19.68,56.1,29.84,82.17,30.38,77.98,49.69,158.09,49.75,242.32,0,7,3.27,14.92,7.31,20.84,38.84,56.91,48.44,119.39,38.56,186.54-5.14,34.94-18.76,64.46-46,87.06-34.39,28.53-86.28,10.4-96.66-33.44-1.64-6.9-3.83-13.67-5.12-18.24-40.28,11.77-80.08,23.39-121.7,35.54,5.09,41.58-20.76,60.79-57.97,69.21-13.11,2.97-27.25,3.53-40.7,2.46-54.47-4.35-107.37-17.69-151.27-50.34-33.85-25.17-63.22-56.92-91.95-88.16-11.41-12.4-15.96-31.22-23.23-47.3-3.85-8.51-6.83-17.42-12.07-30.96-7.87,11.74-15.16,19.42-18.76,28.55-15.75,40.03-8.98,77.63,14.05,113.25,31.34,48.48,78.42,74.77,131.88,88.77,45.07,11.8,91.79,17.2,137.51,26.72,18.92,3.94,37.86,9.63,55.48,17.46,20.19,8.97,30.08,27.55,29.12,49.04-.86,19.24-13.47,30.81-31.79,38.53-34.62,14.59-70.67,11.77-105.47,7.54-83.67-10.15-163.19-34.57-233.08-83.93C38.64,1003.83-3.37,934.51.21,843.7c2.44-61.93,27.08-115.78,75.6-156.8,1.36-1.15,2.6-2.87,4.17-3.29,27.83-7.32,27.14-27.88,26.37-51.06-2.32-69.83,7.25-138.44,25.98-205.74,10.78-38.74,21.93-77.38,32.62-116.14,1.38-4.99.97-10.47,1.52-17.33-17.03-2.59-33.34-4.66-49.44-7.79-4.23-.82-7.82-4.91-11.7-7.5,4.27-2.29,8.51-6.47,12.8-6.51,14.23-.14,28.48,1.47,42.73,1.85,5.09.13,10.22-1.34,15.33-2.08.24-2.13.47-4.25.71-6.38-11.81-4.1-23.6-8.26-35.45-12.22-2.21-.74-5.19.06-6.95-1.13-6.68-4.48-19.21-11.41-18.42-13.98,4.08-13.18,14.36-4.87,22.14-3.01,13.21,3.15,26.19,7.25,42.15,11.77,5.88-19.1,11.46-38.02,17.51-56.78,17.78-55.13,34.92-110.48,53.96-165.17,10.24-29.42,28.1-32.46,47.64-7.96,14.25,17.86,24.28,39.04,36.85,58.3,2.64,4.05,8.16,8.77,12.42,8.83,44.92.64,89.84.4,128.48.4ZM277.74,12.7c-6.42,10.94-11.14,16.55-13.28,23.01-14.89,44.88-30.21,89.66-43.53,135.01-20.5,69.79-38.92,140.19-59.28,210.02-25.9,88.79-43.06,178.72-37.42,271.68,1.21,20.03-.85,35.09-24.01,39.16-3.76.66-7.21,3.91-10.46,6.41-43.38,33.42-67.47,79.74-71.3,132.09-8.15,111.39,42.56,179.31,129.64,229.48,59.43,34.24,124.72,54.98,193.16,61.41,32.09,3.01,65.1.17,97.26-3.68,9.68-1.16,23.37-13.53,25.23-22.77,1.88-9.34-5.83-25.53-14.31-30.96-14.83-9.51-33.02-15.49-50.58-18.71-66.72-12.23-134.77-16.38-196.62-50.4-45.64-25.1-85.16-55.14-103.7-104.08-15.57-41.1-16.8-84.6,13.76-121.22,10.42-12.49,15.88-22.4,11.55-38.76-2.22-8.41,2.04-18.54,3.37-27.89,4.47,8.63,11.05,16.79,13.08,25.96,17.79,80.36,52.47,149.38,126.12,193.13,55.21,32.81,114.25,53.97,179.02,45.93,39.6-4.91,56.48-29.08,41.35-58.81-5.28-10.38-17.27-20.76-28.32-24.09-25.35-7.63-52.25-9.93-78.04-16.31-19.89-4.93-39.23-12.31-58.35-19.81-3.09-1.21-3.73-8.67-5.5-13.25,3.42-1.26,8.36-4.65,10.03-3.46,28.18,20.06,62.11,17.48,93.48,25.05,22.65,5.47,46.77,11.63,65.52,24.4,16.28,11.09,29.26,14.46,46.86,8.56,10.06-3.37,21.11-3.77,31.2-7.09,26.63-8.76,54.12-14.53,74.76-37.22,31.43-34.55,49.63-74.09,55.48-120.11.65-5.15,6.99-9.58,10.69-14.34,2.07,5.91,6.48,12.1,5.84,17.7-5.21,45.22-21.73,86.17-52.27,120.11-15.11,16.79-10.1,32.69-3.03,49.18,6.93,16.18,19.13,26.3,37.56,28.48,27.65,3.27,53.06-24.77,61.52-52.73,22.84-75.57,15-147.27-31.43-213.13-4.1-5.81-7.2-13.91-7.06-20.88,1.67-85.68-19.49-166.6-49.82-245.72-32.22-84.05-59.7-169.49-78.17-257.76-7.01-33.51-15.47-66.79-25.14-99.63-4.76-16.16-15.37-18.29-25.62-4.82-16.17,21.26-29.59,44.61-44.18,67.07-.17,3.7-4.31,4.28-8.24,3.62-47.26-8.02-94.38-9.34-141.65.57-4.52.95-11.98-3.5-15.35-7.65-5.11-6.28-7.35-14.79-11.65-21.84-11.8-19.36-24.03-38.45-38.14-60.9Z" stroke-width="0"/><path d="M277.74,12.7c14.11,22.45,26.34,41.54,38.14,60.9,4.3,7.05,6.54,15.56,11.65,21.84,3.38,4.15,10.83,8.59,15.35,7.65,47.27-9.91,94.39-8.59,141.65-.57,3.93.67,8.07.09,8.24-3.62,14.59-22.46,28.01-45.81,44.18-67.07,10.25-13.47,20.86-11.34,25.62,4.82,9.67,32.84,18.13,66.12,25.14,99.63,18.47,88.26,45.95,173.71,78.17,257.76,30.33,79.12,51.49,160.05,49.82,245.72-.14,6.97,2.97,15.07,7.06,20.88,46.42,65.85,54.27,137.55,31.43,213.13-8.45,27.96-33.87,56-61.52,52.73-18.43-2.18-30.63-12.3-37.56-28.48-7.06-16.49-12.07-32.38,3.03-49.18,30.53-33.94,47.05-74.89,52.27-120.11.65-5.6-3.77-11.79-5.84-17.7-3.7,4.76-10.03,9.19-10.69,14.34-5.85,46.02-24.05,85.56-55.48,120.11-20.64,22.69-48.13,28.46-74.76,37.22-10.09,3.32-21.14,3.72-31.2,7.09-17.61,5.9-30.58,2.53-46.86-8.56-18.75-12.77-42.87-18.93-65.52-24.4-31.36-7.57-65.29-4.99-93.48-25.05-1.67-1.19-6.61,2.2-10.03,3.46,1.77,4.57,2.41,12.04,5.5,13.25,19.12,7.49,38.46,14.88,58.35,19.81,25.79,6.39,52.7,8.68,78.04,16.31,11.05,3.33,23.04,13.71,28.32,24.09,15.13,29.74-1.75,53.9-41.35,58.81-64.77,8.04-123.81-13.13-179.02-45.93-73.65-43.76-108.32-112.77-126.12-193.13-2.03-9.17-8.61-17.33-13.08-25.96-1.33,9.35-5.6,19.48-3.37,27.89,4.33,16.37-1.13,26.27-11.55,38.76-30.56,36.62-29.33,80.12-13.76,121.22,18.54,48.94,58.07,78.98,103.7,104.08,61.85,34.02,129.9,38.17,196.62,50.4,17.56,3.22,35.75,9.2,50.58,18.71,8.48,5.44,16.2,21.62,14.31,30.96-1.87,9.25-15.55,21.62-25.23,22.77-32.16,3.85-65.16,6.69-97.26,3.68-68.44-6.43-133.72-27.17-193.16-61.41-87.08-50.17-137.79-118.09-129.64-229.48,3.83-52.34,27.91-98.66,71.3-132.09,3.25-2.5,6.71-5.75,10.46-6.41,23.15-4.07,25.22-19.13,24.01-39.16-5.63-92.95,11.52-182.88,37.42-271.68,20.37-69.83,38.79-140.23,59.28-210.02,13.32-45.36,28.65-90.13,43.53-135.01,2.14-6.46,6.86-12.07,13.28-23.01ZM413.48,626.11c3.41-41.05-52.69-104.75-103.65-114.99-4.09-.82-9.12,3.02-13.72,4.69,3.35,4.01,5.94,9.33,10.18,11.79,15.16,8.77,32.65,14.39,46.01,25.21,23.59,19.12,44.08,41.64,43.59,75.33-.26,17.91-11.88,34.63-27.43,40.19-15.98,5.71-35.19,1.01-45.72-14.61-7.68-11.39-13.73-24.96-16.47-38.38-6.51-31.88-29.6-55.82-56.14-53.58-5.26.44-10.11,5.63-15.16,8.63,4.93,2.74,9.76,7.6,14.8,7.83,18.6.85,29.5,10.47,34.94,27.3,3.81,11.81,6.42,24.02,10.56,35.71,10.48,29.61,41.12,51.29,65.86,47.24,29.73-4.87,52.47-31.96,52.33-62.35ZM536.44,648.89c-34.84.35-54.23-26.27-42.93-58.98,13.46-38.92,40.68-65.32,76.07-84.7,4.71-2.58,7.37-8.93,10.98-13.53-5.7-.86-12.89-4.39-16.89-2.17-43.73,24.27-79.39,55.91-89.09,108.1-4.35,23.42,2.78,44.06,23.09,57.37,19.72,12.92,41.28,17.49,63.65,5.08,26.37-14.63,36.35-39.52,40.77-67.12,3.03-18.95,4.6-37.58,24.78-47.71,3.27-1.64,3.95-8.47,5.82-12.9-4.98-.37-10.07-1.53-14.89-.83-3.18.47-6.03,3.53-8.93,5.58-20.18,14.31-21.76,36.58-25.54,58.24-4.59,26.3-21.02,56.48-46.89,53.55ZM559.67,273.72c.27-13.51-10.96-24.65-24.77-24.58-13.39.07-26.32,11.94-25.19,24.51,1.27,14.18,9.54,22.62,24.22,23.41,14.2.77,25.47-9.63,25.74-23.34ZM317.91,277.37c.07-14.57-10.15-25.51-23.7-25.38-12.83.13-25.15,12.66-24.04,25.82,1.18,13.98,8.76,23.13,23.58,23.98,14.41.82,24.1-9.29,24.16-24.42ZM417.11,317.43c14.78-.17,31.22-.44,30.93-17.21-.25-14.61-15.68-16.91-28.74-16.75-13.22.17-29.62.17-30.08,16.91-.49,17.84,16.47,16.38,27.89,17.04Z" fill="#fff" stroke-width="0"/><path d="M413.48,626.11c.13,30.39-22.6,57.48-52.33,62.35-24.73,4.05-55.37-17.64-65.86-47.24-4.14-11.68-6.75-23.9-10.56-35.71-5.43-16.83-16.34-26.45-34.94-27.3-5.04-.23-9.87-5.09-14.8-7.83,5.04-3,9.9-8.18,15.16-8.63,26.54-2.24,49.63,21.7,56.14,53.58,2.74,13.42,8.79,26.99,16.47,38.38,10.53,15.62,29.74,20.33,45.72,14.61,15.55-5.56,27.16-22.28,27.43-40.19.49-33.69-20-56.22-43.59-75.33-13.36-10.82-30.85-16.44-46.01-25.21-4.25-2.46-6.83-7.78-10.18-11.79,4.59-1.67,9.62-5.51,13.72-4.69,50.96,10.24,107.06,73.94,103.65,114.99Z" stroke-width="0"/><path d="M536.44,648.89c25.87,2.93,42.3-27.25,46.89-53.55,3.78-21.66,5.36-43.94,25.54-58.24,2.89-2.05,5.74-5.12,8.93-5.58,4.82-.71,9.92.46,14.89.83-1.87,4.43-2.55,11.25-5.82,12.9-20.17,10.13-21.75,28.76-24.78,47.71-4.42,27.6-14.4,52.49-40.77,67.12-22.36,12.4-43.92,7.84-63.65-5.08-20.31-13.31-27.44-33.95-23.09-57.37,9.7-52.19,45.37-83.83,89.09-108.1,4-2.22,11.18,1.31,16.89,2.17-3.61,4.6-6.26,10.95-10.98,13.53-35.4,19.38-62.62,45.78-76.07,84.7-11.31,32.71,8.09,59.33,42.93,58.98Z" stroke-width="0"/><path d="M559.67,273.72c-.27,13.71-11.54,24.11-25.74,23.34-14.69-.8-22.95-9.23-24.22-23.41-1.13-12.57,11.81-24.44,25.19-24.51,13.81-.07,25.03,11.07,24.77,24.58Z" stroke-width="0"/><path d="M317.91,277.37c-.07,15.13-9.76,25.24-24.16,24.42-14.82-.84-22.4-10-23.58-23.98-1.11-13.17,11.21-25.7,24.04-25.82,13.55-.13,23.77,10.81,23.7,25.38Z" stroke-width="0"/><path d="M417.11,317.43c-11.42-.66-28.37.8-27.89-17.04.46-16.75,16.86-16.75,30.08-16.91,13.06-.16,28.49,2.14,28.74,16.75.29,16.77-16.15,17.04-30.93,17.21Z" stroke-width="0"/></g></svg>