<?xml version="1.0" encoding="utf-8"?>
<!-- Generator: Adobe Illustrator 28.1.0, SVG Export Plug-In . SVG Version: 6.00 Build 0)  -->
<svg version="1.1" xmlns="http://www.w3.org/2000/svg" xmlns:xlink="http://www.w3.org/1999/xlink" x="0px" y="0px"
	 viewBox="0 0 665.3 1065.6" style="enable-background:new 0 0 665.3 1065.6;" xml:space="preserve">
<style type="text/css">
	.st0{fill:#FDFDFD;}
	.st1{fill:#F3F3F3;}
	.st2{fill:#E0E0E0;}
	.st3{fill:#888888;}
	.st4{fill:none;stroke:#000000;stroke-width:11.311;stroke-miterlimit:10;}
	.st5{fill:none;stroke:#000000;stroke-width:10.3074;stroke-miterlimit:10;}
</style>
<g id="b">
	<g id="c">
		<path d="M567.3,255.8c-2.7-11.4,5.9-17,12.8-22.5c16.7-13.1,33.2-33.9,56.6-23.1c24.5,11.3,21.1,38.9,15.1,58
			c-13.8,44.1-15.2,83.1,7.1,126.8c13.2,26,4.3,59.8-12.9,88.6c-67.1,111.6-89.9,244.3-166.8,351.7c-11.1,15.5-5.9,36.2,4.4,53.1
			c22.7,37.3,30.4,82.7,73.5,109.1c24.3,14.8,14.7,41.7-10.2,55.8c-22.5,12.7-48.4,15.8-72.2,8c-41.8-13.6-75.4-43.4-123.5-49.4
			c-32.3-4-22.3-43.9-4.7-74.8c-33.9,3.5-52.7-8.4-60.3-38.5c-4.1-16-13.6-31.3-23.1-45.2c-10.8-15.8-13.2-47.9-44.8-32.1
			c-27.3,13.6-49.6,33-38.2,69.3c1.4,4.4,3.1,8.8,4.3,13.2c6.7,23.1,22.9,47.5-1,68.9c-23.9,21.5-53.1,10-80.2,7.8
			c-17.3-1.4-23.6-14.4-20.4-30.2c14.9-73.4-12.3-139-45.3-199.7C-15.9,652.5-3.5,553.9,21,453.3c3.7-15.2,10.2-30.2,5.9-45.3
			c-26.7-94.8,7.5-172.5,65.9-244.4c37.3-45.9,36.8-47.1-15.3-72.9C57.9,81,41.9,70,44.9,45.9C48,20.8,66.3,7,88.8,4.3
			c49.3-5.8,101.4-12.7,138.4,30.9c35.3,41.7,27.9,89.1,7.9,135.7c-16.4,38.3-33.2,76.4-48.8,115.1c-8.1,20.2-5.9,31.5,22,26.9
			c32.4-5.3,64.5,2.2,95.1,14.6c31.8,12.9,39.2-0.2,32.4-30.2c-5.5-24.1-11.6-48.4-7.9-73.5c2.2-15.2,3.7-31.9,20.6-39
			c17.5-7.3,35.3,3.5,39.8,15.4c26.5,70.4,84.1,56.8,138,55.1c13.8-0.4,27.7-0.2,41.5-0.2c17.3,20.5,16,34.2-14.2,33.3
			c-23.1-0.7-46.3-3.7-69.4-2c-44.5,3.4-83.6-2.2-101.9-50.8c-1-2.8-4-4.7-6.4-6.6c-2.5-1.9-5.4-3-12.4-3.6
			c-12.1,18.8-6,39.4-0.6,59.3c4.6,16.9,10.7,34.9-3.2,48.2c-49.6,47.5-42.2,101.6-21,157.9c-0.4,5.1-3.1,8.6-7.9,10.3
			c-28-0.6-34.3-22.5-41.4-42.9c-4.1-11.8-1.8-24.7-3.8-36.8c-3.8-23.4,16.4-54.3-10-69.1c-31.9-17.9-69.1-14.5-103.7-1
			c-20.4,7.9-37.4,21.8-54.8,34.8c-7,5.3-15,14.3-24.2,6.3c-9.6-8.4-6.5-19.8-1.2-29.9c2.9-5.5,6.5-11,11.7-14.3
			c76.5-49.9,85.9-138.4,111.2-212.9c29.1-85.9-31.5-110.6-103-106.8C99.5,29.2,86,34,82.9,48c-2.8,12.7,8.9,18.2,17.7,24.6
			c58.6,42.9,60.2,51.5,14.2,108.1c-54.2,66.8-82.5,138-64.3,227.6c10.3,51-16.5,102.9-23.3,155.1c-6.5,49.9,1,95.1,20,140.3
			c31,74,70.2,145.8,65.2,230c-0.9,15.3,7.6,23.1,22.5,23.3c16.6,0.2,27-7.8,26.5-25.1c-0.6-21-6.9-39.7-26.2-51.4
			c-20.8-12.6-15.1-23.2,2.3-33.3c30.6-17.9,51.6-49.6,87.4-60.3c13.2-4,18.9-14.7,20.7-28.2c1.2-8.7,1.5-20.2,14.8-18.8
			c8,0.8,16,7.5,16.1,14.8c0.9,52.6,39.4,89.3,55.9,135.2c0.1,9-14.7,12.5-12.5,15.2c5.9,7.2,12.7-2.3,19.5-3.8
			c47.5,8.4,64.6,47.9,85.8,83.4c29.4,49.2,53.2,58.1,104.1,37.6c-40.7-39.2-53.1-92.4-74.8-140.9c-11.5-25.7-2.6-48.3,9.2-70.7
			c33.8-64.3,73.1-126,96.8-195.3c6.9-20,18.7-39.1,0.5-60.7c-15.2-18,2.1-28,14.5-36.4c25.2-17.1,43.2-39.5,55.1-67.2
			c9-21,13.2-44.5,0-62.6c-27.7-37.9-21.1-75-5.7-113.9c3.4-8.5,5-17.9,0.9-27.8C603.9,235.6,589.6,274.1,567.3,255.8L567.3,255.8z"
			/>
		<path class="st0" d="M567.3,255.8c15.2,3.1,20.4-11.5,30.4-17.6c11.3-6.9,21.6-20.6,36-10.9c11.8,8,10,24.3,5.7,34.3
			c-20.5,47.6-15.9,89.7,6.3,137.9c21,45.7-18.2,100.1-88.1,139.9c37.8,6.2,34.1,27.8,24.8,53.2c-25,68.3-54.2,135.2-94.8,195.2
			c-32,47.3-32.4,88.9-3.6,135.8c10.8,17.6,24.5,35.7,23.2,58.3c-0.8,13.5,8.2,15.4,16.9,16.7c15.1,2.3,28.8,6.2,25.9,24.8
			c-2.7,16.8-18.3,19.2-32,21.6c-44.4,7.7-78.5-4.8-98.5-48.4c-19-41.2-44.2-77.4-89.9-93.3l0.1,0.2c0.9-12.1-6.8-19.9-13.6-28.3
			c-30.5-37.4-55.3-77.3-51.6-132.1c1,39.2-14.2,54.4-50.1,60.8c-36.8,6.5-46.8,57.8-89.8,60.3c31.5,10.9,60.2,56.1,53.1,84.8
			c-7.7,31.1-33.5,20.9-53.6,21.5c-15.9,0.4-34-2.2-28.1-25.3c16.5-64.9-4.9-125-34.7-177.8C1.3,661.7,5.6,555.1,37.9,444.9
			c4-13.7,5.7-26.3,1.7-40.6c-22-80,3-148.9,52-211.7c6.7-8.5,13-17.3,19.6-25.9c40.1-52.8,39.2-56.8-21.5-86.1
			C75.8,73.8,57.8,69.9,58.4,51c0.7-20.4,18.5-28.5,35.2-31.3c43.3-7.4,89-10.5,121.3,24.9c31.9,34.8,23.9,77.8,6.9,118
			c-20.3,48.2-48.5,92.9-54.9,146.8c-2.9,24.7-32.7,25.2-47.6,40c-10.5,10.5-26.5,16.6-27.4,42.2c44.3-36.7,86.7-69.3,144.4-61.1
			c13.7,1.9,27.4,4,41.1,6c24.7,3.6,31.9,11.6,23.4,40c-13.6,45.6-13.4,92.6,32.4,125.2c21.8,3.4,36.3,23.7,58.5,26.2
			c-19.7-7.7-40-14.2-52.8-32.9c-45.3-59.7-44.2-104.3,5.7-161c12.1-13.7,23.2-24.6,4.8-41.1c-2.8-2.5-3.3-8.8-2.9-13.2
			c2.5-26.1-17.4-64.9,11.4-75.1c27.4-9.7,39.5,28.8,49,51.8c7.2,17.3,16.5,18.1,31.3,17.9c39.9-0.6,79.7-7.4,119.9,2.4
			c27.6,6.7,9.3-12.7,9.6-21.3L567.3,255.8L567.3,255.8z"/>
		<path class="st1" d="M376.2,1008c-17.5-2.1-32.4-9.1-30.6-30.9c1-11.7,6.2-30.1,16.7-28.6c21.4,3,30.6,24.2,36,43
			C402.6,1006.8,388.1,1006.9,376.2,1008L376.2,1008z"/>
		<path class="st2" d="M329.5,903.5c0,0-0.1-0.2-0.1-0.2c9,21.2-0.1,27-17.1,15.9c-10-6.6-17-20.6-10.7-37
			C311.4,889.6,320.5,896.5,329.5,903.5L329.5,903.5z"/>
		<path d="M517.9,471.3c-28.1-14.2-55.8-25.3-88.5-2.6c24.7-21.7,48.6-37.6,29.5-71.6c-4.2-7.5,0.3-16.2,8.8-18.1
			c6.9-1.5,15.3-0.3,22,2.4c7.2,2.8,14.6,11.1,8.3,18C464.8,435,499.8,448.3,517.9,471.3L517.9,471.3z"/>
		<path class="st3" d="M339,494.9c28.1,13.3,54.6,30.3,84.8,39.7c-37.1,7.3-65.6-8-90.5-33C334.5,498.8,336.4,496.5,339,494.9
			L339,494.9z"/>
	</g>
</g>
<g id="Layer_2">
	<path class="st4" d="M420.4,334.1c3.3,5.3,8.6,11.4,14.6,9.4c2-0.7,3.6-2.2,5.1-3.6c4.3-4.2,0.2-1.5,4.5-5.8"/>
	<path class="st4" d="M530.4,344.1c3.3,5.3,8.6,11.4,14.6,9.4c2-0.7,3.6-2.2,5.1-3.6c4.3-4.2,0.2-1.5,4.5-5.8"/>
	<path d="M515.2,393.6c24.5-0.2,48.9,1.2,73.1,4.1"/>
	<path d="M513.6,385.3c23.7-4.7,47.9-8,72.3-9.7"/>
	<path d="M513.6,400.8c23.7,4.7,47.9,8,72.3,9.7"/>
	<path d="M446.2,394c-16.7-0.1-33.5,1-50.1,3.5"/>
	<path d="M447.3,386.8c-16.2-4.1-32.8-6.9-49.5-8.4"/>
	<path d="M447.3,400.1c-16.2,4.1-32.8,6.9-49.5,8.4"/>
	<path class="st5" d="M476.1,392.5c-0.8,0.4-1.5,1-2.1,1.5c-0.5,0.4-0.8,0.9-0.7,1.5c0.4,1.3,3.5,1.4,5.5,0.8
		c2.8-0.9,5.4-2.8,4.3-4.6c-2.4,0-4.9,0-7.3,0"/>
</g>
</svg>
