<?xml version="1.0" encoding="UTF-8"?><svg id="b" xmlns="http://www.w3.org/2000/svg" viewBox="0 0 647.54 831.39"><g id="c"><path d="M606.3,2.47c-20.35,7.26-39.81,35.75-53.26,77.69-6.55,20.17-13.45,50.96-13.45,59.28,0,2.83-.71,3.89-1.59,2.83-.88-.88-10.09-21.05-20.53-44.94-10.44-23.89-21.41-48.31-24.42-54.32-5.84-12.22-10.26-15.22-15.57-10.08-1.77,1.94-14.86,24.06-28.84,49.37-14.16,25.31-26.72,45.83-27.96,45.83-1.24-.17-8.31-1.59-15.57-3.01-24.95-5.31-45.12-6.9-83.17-7.08-40.35,0-69.9,2.3-97.32,7.61-9.2,1.77-17.34,2.65-18.05,2.12-1.06-1.24-29.38-51.32-45.47-80.51-8.14-14.69-12.21-18.4-17.52-15.57-7.08,3.72-87.94,192.88-112.01,261.54-6.19,17.88-7.96,21.41-10.26,20.18-14.87-7.61-22.83-8.85-21.06-3.19.71,1.77,14.33,10.27,19.64,12.39.88.17-.53,7.61-3.19,16.28-2.48,8.85-5.13,22.47-5.66,30.43-1.06,13.98-1.24,14.51-5.66,15.04-7.44.88-5.84,5.66,2.12,6.37,5.31.53,7.08,1.59,8.32,4.96,2.47,6.55,14.33,23.36,23.71,33.44,4.42,4.78,7.96,9.2,8.14,9.73,0,.53-10.62,6.01-23.36,12.39-12.92,6.37-23.72,12.57-24.07,13.62-1.59,5.49,6.19,3.54,28.84-7.25,13.45-6.37,25.13-11.68,26.01-11.68.71,0,7.26,4.6,14.33,10.44,19.11,15.4,38.58,28.49,62.82,41.76,11.86,6.55,21.59,12.57,21.59,13.27s-4.6,9.2-10.09,18.76c-5.49,9.55-13.8,26.01-18.58,36.45-32.03,71.67-39.46,132.71-21.77,177.48,17.34,43.53,62.29,75.39,119.44,84.94,50.96,8.67,102.81-7.26,114.31-34.86l3.01-7.61,13.63-.18,13.62-.35,1.95,5.66c5.48,14.69,23.36,27.26,46.18,32.21,32.03,6.72,75.56-.53,112.01-18.94,55.39-27.78,78.92-59.45,82.11-110.41,2.48-35.92-8.32-82.46-30.44-132.71l-7.96-17.7,5.84-4.24c20.18-15.04,39.11-40.53,45.66-61.23,1.24-3.89,3.01-8.14,3.89-9.2,2.12-2.83,2.83-8.85,4.25-42.12,1.24-30.43-1.42-53.97-9.73-88.12l-4.96-20.88,5.66-2.29c6.9-3.02,8.31-4.78,6.19-8.14-1.42-2.12-2.65-2.3-7.26-.53-3.18,1.24-6.01,1.95-6.37,1.6-1.24-1.25-5.84-26.02-8.67-47.07-3.89-29.73-2.47-84.94,2.65-110.41,5.14-24.77,11.68-46.19,21.77-71.85,18.23-45.3,20.35-55.39,14.33-65.65-3.72-6.19-18.41-13.98-26.01-13.98-3.01.18-8.5,1.24-12.21,2.47h0ZM631.08,12.39c11.33,6.73,10.26,16.99-5.48,56.81-11.33,28.48-11.68,29.02-16.46,28.48-13.8-1.77-30.61-13.98-37.69-27.43l-4.07-7.78,7.79-14.69c17.34-32.74,38.4-46.19,55.91-35.39h0ZM175.07,89.54c25.84,46.36,27.43,48.83,31.67,47.95,48.31-8.85,77.51-11.85,113.61-11.85,27.07,0,61.75,3.19,81.22,7.26,9.2,2.12,18.76,4.06,21.23,4.42,4.07.88,6.01-2.13,30.08-45.48,14.16-25.48,26.54-47.6,27.78-49.19,2.3-3.19,2.65-2.65,35.92,73.25,36.81,84.23,76.97,184.56,79.1,198.19.71,4.6.18,5.66-5.13,7.78-24.24,10.62-52.73,25.49-52.73,27.79,0,5.48,5.49,3.89,32.38-9.03,15.21-7.26,28.49-13.27,29.2-13.27,2.65,0,11.15,38.23,10.62,47.24l-.53,8.5-35.74.53c-34.51.35-35.92.53-35.92,3.89s1.24,3.54,33.62,3.54c25.84,0,33.62.53,33.62,2.3,0,3.19-12.92,22.12-22.65,32.91l-8.5,9.56-15.75-7.43c-8.67-4.07-16.81-6.91-18.05-6.55-5.66,2.3-1.6,6.55,11.86,12.75,13.98,6.36,14.16,6.55,11.15,10.08-11.5,12.92-68.13,49.55-94.32,60.87l-4.42,1.77.7-21.94c.71-27.43-1.77-45.66-9.73-69.54-10.79-32.74-30.79-62.64-54.32-81.4-13.27-10.62-38.58-23.54-54.32-27.61-15.75-4.24-48.31-4.24-63.7-.17-58.75,15.75-102.81,67.24-116.26,135.54-1.95,9.91-2.83,23.72-2.83,39.29v24.24l-15.21-7.96c-29.02-15.22-60.34-35.57-76.97-49.9l-7.79-6.73,13.98-6.91c13.27-6.36,16.98-10.26,11.68-12.39-1.24-.35-9.02,2.3-17.16,6.19l-15.04,6.91-5.84-5.49c-7.96-7.61-22.12-25.48-25.83-32.56l-2.83-5.84,33.97-.35c29.02-.53,34.15-.88,34.15-3.19s-5.49-2.83-35.39-3.54l-35.39-.88v-13.27c.18-12.92,6.9-42.47,9.73-42.47.7,0,13.8,6.01,29.2,13.45,15.39,7.25,29.02,12.91,30.43,12.39,6.37-2.48-.17-7.26-26.9-20-15.57-7.26-28.84-13.8-29.73-14.51-1.59-1.6,12.57-40.88,32.56-90.96,23.36-58.57,79.27-186.86,81.4-187.04.53,0,13.27,21.94,28.13,48.84h0ZM570.56,81.93c6.72,9.38,19.82,18.23,31.85,21.59l9.38,2.83-3.37,10.62c-9.55,30.79-15.04,75.73-13.44,111.3,1.24,25.13,5.13,57.51,9.2,75.2,1.42,5.66,2.12,10.8,1.77,11.32-.88.88-.35,2.13-9.73-25.3-4.07-11.5-16.99-44.6-28.84-73.44-24.42-59.64-24.06-57.87-17.16-92.55,4.07-20.18,12.39-49.19,13.98-49.01.53,0,3.54,3.36,6.37,7.43h0ZM348.49,315.16c53.79,14.86,95.91,66.18,107.06,130.58,2.65,15.04,3.54,47.07,1.59,58.93-1.06,6.55-1.59,6.73-17.34,12.92-39.11,15.04-90.07,25.66-124.05,25.66-18.05,0-50.96-4.6-74.85-10.62-27.43-6.9-65.65-21.05-67.95-25.31-2.83-5.31-2.12-46.36,1.06-63.35,6.9-37.16,21.06-65.11,46.19-91.65,34.15-36.1,82.1-50.08,128.29-37.16h0ZM620.99,379.74c0,2.47-.71,4.06-1.59,3.54-.88-.53-1.24-2.65-.71-4.6,1.24-4.96,2.3-4.42,2.3,1.07h0ZM623.47,406.64c1.24,14.33.88,20.35-1.77,42.29-.53,4.25-1.59,7.61-2.65,7.61-2.65,0-36.98-16.28-36.98-17.51,0-.71,2.83-4.07,6.37-7.44,7.08-6.72,17.7-21.59,23.53-33.09,2.3-4.6,4.96-7.43,7.08-7.43,2.83,0,3.37,2.12,4.42,15.57h0ZM596.4,455.83c14.16,6.72,21.06,10.97,21.06,12.91-.18,4.6-9.55,25.49-15.39,33.98-6.02,8.67-22.12,24.95-29.91,29.9l-4.95,3.36-11.15-19.64c-6.19-10.8-11.15-19.82-11.15-20.35s2.65-4.25,6.01-8.31c6.19-7.26,15.4-24.42,17.88-32.92,1.24-4.42,4.07-8.85,5.66-8.85.35,0,10.27,4.42,21.95,9.91h0ZM554.46,467.51c-3.71,7.26-13.27,20.88-14.68,20.88-.71,0-2.48-2.12-3.9-4.6q-2.83-4.78,7.96-13.09c5.84-4.78,11.33-8.67,12.21-8.67.71-.18,0,2.47-1.6,5.48h0ZM535.7,498.47c26.36,40.7,48.48,90.43,59.1,132.36,7.43,30.08,8.85,64.24,3.37,85.82-7.08,27.96-17.7,43.35-43.35,62.29-11.86,8.85-43.53,26.19-47.6,26.19-.71,0-1.24-6.19-1.24-13.8,0-26.71-7.61-46.54-24.42-63.87-9.2-9.38-9.38-9.73-6.01-12.39,12.03-9.73,21.94-33.62,21.94-53.27,0-21.41-8.31-39.81-26.36-58.39-10.08-10.26-11.33-11.15-13.98-8.67-2.47,2.65-1.77,3.89,7.96,13.62,12.57,12.39,22.3,30.97,24.07,45.47,2.47,19.11-7.08,44.77-21.06,56.98-9.56,8.32-23.72,14.69-50.43,22.47-25.48,7.61-36.99,12.92-43.18,20.53-4.25,4.78-8.31,15.22-8.31,20.53,0,3.01-4.42,4.24-15.22,4.24-9.2,0-9.55-.18-9.55-4.96-.18-9.2-6.37-19.46-15.39-25.13-9.03-5.66-19.64-9.2-50.96-16.63-24.24-5.67-43-14.69-50.43-23.89-12.39-15.75-16.28-33.27-11.68-51.5,3.9-14.86,9.73-24.77,23.18-38.93,10.26-10.62,12.57-15.93,7.26-15.93-8.14,0-32.56,31.85-37.52,49.01-6.55,22.3,0,49.37,15.4,65.3l7.25,7.43-9.02,8.32c-13.27,12.39-18.23,23.71-19.29,44.24-.53,9.73,0,21.23,1.24,27.61,1.24,5.83,1.77,11.14,1.24,11.67-1.42,1.42-21.77-6.01-32.91-12.21-26.72-14.69-45.83-33.97-56.81-57.16-19.28-40.88-11.5-109.18,19.82-176.07,10.44-21.94,28.49-54.86,30.08-54.86.71,0,9.02,3.19,18.75,7.08,9.56,3.89,25.48,9.55,35.39,12.74l18.05,5.66,1.07,7.96c3.54,26.54,15.57,55.92,28.31,69.72,19.82,21.05,48.31,31.14,81.4,28.84,28.66-1.95,48.31-9.56,64.41-24.95,18.41-17.51,27.25-40.35,29.56-76.62l1.24-19.28,6.37-2.3c10.8-3.72,51.85-24.07,63.88-31.5,6.37-4.07,12.39-7.25,13.45-7.43,1.06,0,6.01,6.19,10.97,13.62h0ZM432.54,546.6c-4.6,59.28-30.26,87.95-83.87,93.26-7.08.7-18.58.17-27.61-1.07-42.29-6.01-69.19-36.09-76.62-85.47l-1.59-10.44,5.48.88c3.01.35,13.8,2.12,24.07,3.89,44.06,7.26,103.7,1.07,151.29-15.39,3.89-1.42,7.78-2.12,8.49-1.77.88.35,1.06,7.61.35,16.1h0ZM476.6,732.93c10.09,10.45,17.34,24.24,20.35,38.23,2.13,10.08,2.48,27.08.88,33.44-3.36,12.21-67.95,17.52-93.43,7.61-12.57-4.78-24.95-15.57-27.79-24.24-1.06-3.37-1.59-10.26-1.06-15.22.71-7.61,1.77-9.9,7.96-15.57,5.84-5.48,11.15-7.96,30.61-13.98,25.13-7.78,38.57-12.74,45.83-16.81,2.47-1.42,5.13-2.47,6.01-2.65,1.07,0,5.84,4.24,10.62,9.2h0ZM249.21,733.29c6.37,2.3,18.05,5.49,25.84,7.26,29.73,6.19,43.71,11.32,50.78,18.58,6.19,6.19,6.73,7.43,6.73,16.99,0,16.63-8.85,27.95-28.85,37.16-16.81,7.6-32.74,9.9-59.63,9.02-13.09-.53-25.66-1.42-27.78-2.12-5.31-1.59-7.43-9.73-8.85-31.15-1.24-19.82,1.06-31.32,7.96-41.94,4.96-7.25,16.98-18.05,20.35-18.05.88,0,6.9,1.95,13.44,4.24h0Z" stroke-width="0"/><path d="M235.94,168.99c-2.47,10.26.36,28.84,6.37,41.23,13.98,28.13,37.51,39.63,63.35,30.61,8.32-2.83,10.09-3.02,18.58-.71,15.75,4.25,33.62.71,46.89-9.38,7.25-5.66,16.46-19.82,20.35-31.49,4.07-12.03,3.89-15.57-.71-14.87-2.83.35-4.6,3.01-6.9,10.62-7.26,23.36-24.24,38.4-43.71,38.58-12.21,0-13.27-1.07-8.31-8.31,7.43-10.97,4.78-22.12-6.37-27.96-19.46-10.08-39.28,12.57-25.48,29.2,2.65,3.01,4.06,6.01,3.36,6.73-.71.7-6.9,1.24-13.8,1.24-10.27,0-13.98-.88-19.46-4.24-15.04-9.38-26.19-31.15-26.72-52.38-.18-10.08-.71-12.39-3.19-12.92-2.12-.35-3.37.88-4.25,4.07h0ZM323.36,206.33c5.84,4.06,4.6,12.21-2.65,17.87l-5.84,4.42-6.01-6.01c-6.9-6.91-6.9-11.85-.53-16.46,4.96-3.36,10.09-3.36,15.04.18h0Z" stroke-width="0"/><path d="M209.05,284.01c-7.25,9.2-6.9,29.02.53,37.69,3.36,3.89,4.78,4.42,7.43,2.83,9.03-5.31,12.03-24.06,5.84-37.51-3.89-8.67-8.5-9.73-13.8-3.01h0Z" stroke-width="0"/><path d="M407.41,284.36c-4.6,6.91-5.14,26.19-1.06,34.15,8.67,16.99,22.47-1.07,18.05-23.71-2.65-14.69-10.97-19.83-16.98-10.45h0Z" stroke-width="0"/><path d="M301.24,348.6c-12.92,5.84-12.21,18.93,1.24,24.24,6.72,2.65,7.08,3.19,7.08,10.45s-.35,7.96-10.97,15.04c-14.16,9.55-16.64,12.91-11.15,15.04,1.42.52,7.96-2.65,14.86-7.26l12.21-8.14,12.39,8.14c6.9,4.6,13.27,7.78,14.33,7.08,4.6-2.65,1.24-7.43-10.44-15.04-12.03-7.78-12.39-8.14-12.39-15.57,0-4.24.88-7.43,1.95-7.43,4.95,0,13.8-6.01,15.75-10.8,1.77-4.24,1.77-5.83-.88-9.73-6.01-9.37-20.88-12.03-33.97-6.01h0Z" stroke-width="0"/></g></svg>