<?xml version="1.0" encoding="UTF-8"?><svg id="b" xmlns="http://www.w3.org/2000/svg" viewBox="0 0 710.18 1243.14"><g id="c"><path d="M702.32,1092.11c-2.64-7.83-11.4-12.95-8.74-21.91,6.62-35.72,14.54-72.02,14.63-108.62-1.14-37.32-5.99-74.97-16.61-110.82-10.41-27.65-18.68-49.86-12.86-80.04,3.28-24.08,13.04-46.97,12.91-71.56,3.77-61.58-7.11-124.23-35.16-179.41-6.82-14.81-12.39-29.04-20.99-43.22-5.06-8.09-12.02-14.74-17.43-22.59-10.54-15.12-23.79-27.77-40.98-34.98-3.87-14.45-5.52-29.34-8.39-43.99-11.58-37.47-27.66-73.53-46.43-107.93-12.89-29.48-25.09-59.61-32.68-90.94-9.5-40.37-9.99-82.45-7.74-123.71,2.47-65.04-32.21-65.09-71.51-24.43-29.8,26.1-40.01,66.31-39.55,104.69-.21,17.91,0,35.98,4.66,53.4,6.74,28.61,19.51,55.46,34.95,80.35,8.44,12.68,18.5,24.27,25.63,37.79,12.75,24.86,27.98,48.86,32.81,76.83,2.5,13.28,11.19,25.53,8.24,39.45-11.96,9.33-26.81,14.93-39.08,24.06-8.72,6.99-17.23,14.31-25.74,21.55-23.72,24.93-38.49,57.83-40.96,92.18-1.43,29.35,1.36,58.78-.53,88.13-3.57,37.58-11.4,75.7-29.77,109-5.61,14.64-17.01,25.07-29.11,34.45,2.29-11.72,3.88-23.55,3.77-35.73.51-16.17.67-32.73-5.33-48.03-4.01-11.93-10.29-30.96-25.8-29.61-5.18,1.37-8.69,10.12-12.6,14.15-10.99,13.79-18.56,29.96-26.98,45.37-3.94,12.08-10.47,23.16-18.55,32.96-11-4.38-22.84-4.54-34.58-4.11-9.18.65-18.44.18-27.58,1.33-8.52,1.12-16.75,3.48-24.93,5.99-7.21.25-13.78,3.03-20.24,5.97-5.01-6.43-10.58-12.44-16.06-18.47-10.74-9.87-24.18-16.62-37.94-21.2-18.46-7.75-67.89-14.84-53.15,19.63.43,1.48,1.17,2.61,2.08,3.42.14.76.4,1.51.78,2.22.57,1.04,1.13,2.08,1.67,3.14,1.72,3.52,3.35,7.08,5.1,10.58,2.3,4.64,4.3,9.39,6.02,14.27,1.52,4.5,2.82,9.07,4.28,13.59,1.49,4.62,3.01,9.23,4.32,13.91,1.26,4.5,2.65,8.96,3.82,13.47.57,2.2,1.02,4.42,1.59,6.61.51,1.98,1.1,3.95,1.55,5.95.28,1.44.54,2.89.69,4.35.05,1.73,0,3.46,0,5.19-.01,2.25-.04,4.5-.15,6.75-.22,4.55-.36,9.1-.64,13.65-.24,3.47-.36,6.94-.56,10.41-.18,2.55-.35,5.1-.46,7.65-.21,4.66-.13,9.35.06,14.01.09,2.28.27,4.57.36,6.85.1,2.56.23,5.12.5,7.67.51,4.92,1.5,9.86,2.57,14.68,1.02,4.61,2.35,9.21,3.76,13.72,1.38,4.43,3.02,8.76,4.61,13.11-7.81.17-15.6.92-23.4,1.36-7.57.31-15.08,1.1-22.61,1.98-4.17.02-7.83,3.11-7.85,7.39-.18,4.77,5.12,8.39,9.5,6.67,4.51-.41,9-1.03,13.51-1.43,12.05-.28,24.27-2.37,36.32-1.68.07.15.13.3.19.45,1.38,3.08,2.89,6.15,4.55,9.11-2.71.69-5.41,1.46-8.07,2.36-9.64,2.55-19.05,5.74-28.13,9.86-5.65,2.85-16.86,3.84-15.96,12.18.48,3.72,4.21,6.76,7.99,6.04,0,0,0,.02,0,.03,13.93-5.02,27.42-11.56,41.95-15.05,3.54-1.13,7.13-2.08,10.75-2.89.9,1.06,1.82,2.11,2.74,3.15l.1.11c1.32,1.51,2.61,3.06,3.98,4.53-5.37,4.61-10.35,9.78-16.14,13.77-4.12,2.73-7.71,6.11-11.45,9.3-4.82,3.12-8.54,9.71-3.06,14.14,6.6,4.84,11.3-3.15,16.11-6.69,6.95-5.66,14.39-10.64,20.67-17.1,1.25-1.05,2.5-2.11,3.76-3.15.79.78,1.59,1.56,2.38,2.33,2.55,2.51,5.06,5.06,7.6,7.59,1.47,1.46,2.95,2.93,4.58,4.22,1.63,1.3,3.36,2.45,5.09,3.6,2.39,1.65,4.72,3.42,7.24,4.87,1.9,1.09,3.88,1.94,5.89,2.75-.08,6.59,2.64,14.68,3.67,19.26,2.06,8.61,7.58,18.59,14.74,27.74-.13,4.02.78,8.14,1.08,12.11.9,5.93.17,11.79.08,17.73-3.84,2.47-6.44,6.35-9.91,9.27-4.8,3.9-9.27,8.67-13.76,13.05-3.37,2.93-8.9,6.98-12.76,11.56-6.72-3.49-14.7-4.11-22.48-4.53-12.54-1.15-25.68-2.7-37.69,2.02-12.84,3.85-24.74,14.36-26.62,28.12-.67,9.65-1.5,25.94,5.12,33.47,11.52,9.28,27.26,10.25,41.46,10.36,12.92,1.46,25.95,1.33,38.92,2.11,11.7.05,24.5,1.59,35.39-3.4,9.52-5.75,19.69-10.74,27.48-18.9,12.17-9.67,23.68-20.34,34.1-31.84.7-.42,1.31-.92,1.83-1.47,11.72,4.88,24.79,5.62,37.14,8.26,11.05,2.55,22.36.9,33.52,1.55-16.33,21.22-16.22,53.7,16.4,62.25,27.13,3.73,55.6-.66,81.27-9.89,9.59-4.86,16.37-14.1,26.87-17.41,12.44-4.11,25.54-4.9,38.5-6.06,23.38-3.63,46.92-7.81,69.21-15.91,19.3-7.09,35.77-19.49,46.65-37.1,14.02-15.54,20.68-34.13,19.43-55.1-.08-12.04-4.46-25.49-11.52-38.45.62-1.08.95-2.38.83-3.86,21.15-31.09,41.38-64.24,54-99.95,6.5,12.74,9.76,27.3,10.76,41.56.84,16.98,3.93,35.9,3.21,53.64-.13,5.44-.16,10.9-.71,16.31-5.94,2.49-11.81,6.21-14.7,8.38-9.13,7.55-14.4,19.05-17.53,30.26-11.1,37.49,28.9,42.23,55.73,48.78,14.27,1.42,28.68-1.65,41.04-8.96,6.78-4.02,15.54-8.25,17.32-16.66-.13-13.13-3.6-26.85-7.86-39.29ZM88.81,996.68s-.04-.05-.07-.08c1.28-.39,2.51-.91,3.65-1.65,5.46-3.81,2.43-13.02-4.22-12.85-3.12.68-6.27,1.29-9.43,1.9-.88-1.43-1.72-2.87-2.52-4.33,2.35.18,4.7.16,6.99-.27,10.04-1.86,6.41-16.64-3.36-13.76-3.56-.07-7.05-.68-10.55-1.26-.11-.3-.23-.59-.33-.88-1.57-4.38-3.17-8.75-4.74-13.13-1.61-4.76-3.07-9.6-4.29-14.49,1.01.87,2.06,1.7,3.13,2.51,5.42,3.17,10.4,7.51,16.8,8.48,6.59,1.11,14.1,2.33,20.03-1.52.07,7.24,1.28,13.99,2.03,21.22-.58,12.06,8.63,20.55,18.22,26.32.39,5.44,2.35,10.88,3.4,16.18-1.49,1.75-4.26,1.5-6.28,2.47-1.74.6-3.38,1.5-5.19,1.89-2.57-.53-4.6-.08-6.08.93-1.31-1.32-2.63-2.65-3.95-3.97,2.82-1.29,5.16-3.09,5.12-6.8,0-3.87-3.23-7.1-7.1-7.1-2.63.12-4.95,1.54-7.42,2.31-.44.18-.86.39-1.28.59-.88-.88-1.75-1.77-2.59-2.69ZM78.74,930.81c9.95,1.39,16.69-8.61,17.14-17.95,1.14,4.04,1.59,8.53,2.68,12.42-3.03,2.23-3.66,7.71-7.66,8.44-5.03.14-9.93-.74-14.12-3.38.62.2,1.27.36,1.96.47ZM72.02,927.17c-3.39-2.22-6.57-4.97-8.2-8.68.91-3.5,2.92-6.56,5.57-9.02-1.66,5.81-1.2,13.26,2.63,17.7ZM126.44,979.95c-2.03-1.42-4.22-2.63-6.01-4.36,3.62-.62,7.41-.42,10.91.72-1.66,1.18-3.21,2.51-4.9,3.65ZM637.19,1138.97c-9.09-3.5-20.72-4.47-27.23-12.29,0,0,.06-.07.06-.07-4.62-12.27,4.01-30.44,13.64-38.38,1.54-1.55,3.49-2.62,5.59-3.47,3.45,3.76,10.1,2.05,11.74-2.62.09-.5.16-1.01.24-1.51,2.09-1.06,3.7-2.46,4.41-4.64.24-4.24-.94-6.7-2.98-7.94.44-6.42.56-12.88.68-19.29-1.11-24.27-2.02-48.99-6.87-72.82-2.49-12.39-8.31-23.59-13.99-34.75-.41-.78-.95-1.41-1.56-1.92,2-7.51,3.65-15.12,4.86-22.85,3.11-22.17-1.54-44.37-.16-66.57,3.27-44.89-1.04-89.95-8.07-134.3-.63-4.44-.95-8.93-1.41-13.39-1.13-9.19-15.35-7.08-14.07,1.93.79,9.27,2.02,18.49,3.62,27.66,5.86,40.4,8.58,81.31,5.56,122.1-.86,18.11,2.65,36.13,1.06,54.24-1.02,13.76-4.82,27.17-8.65,40.38-9.92,27.74-23.34,53.99-39.6,78.51-2.15,3.91-4.01,7.96-6.42,11.72-1.5,2.79-4.18,5.69-6.57,8.71-13.84-19.18-32.71-35.36-50.47-41.21-6.67-2.37-19.74-7.57-20.66,3.58-.13,10.79,20.04,4.83,40.63,24.73,15.44,13.91,26.67,31.39,34.69,50.55,4.14,15.73,3.51,34.44-4.59,48.83-10.78,13.85-19.64,30.4-35.73,38.83-24.46,12.56-51.89,17-78.74,21.53-19.94,1.93-41.62,2.58-58.26,15.13-11.43,11.64-27.4,15-43.04,17.21-.87-2.47-1.55-5.27-.86-8.81.25-2.49.55-4.98,1.32-7.37,1.24-1.46,2.32-3.16,2.26-5.27,0-3.87-3.23-7.1-7.1-7.1-6.55,0-8.86,7.33-9.84,12.65-.87,5.4-1.44,11.86-.3,17.66-4.61.52-9.46.94-14.2.95-2.75-7.67-3.64-16.57-.02-24.09,12.08-9.62-9.03-23.83-14.97-.58-2.05,7.28-2.14,15.14-.43,22.52-2.71-.94-5.18-2.25-7.29-4.03-19.07-17.72,5.7-49.08,27.56-48.75,34.86-1.71,38.21,8.26,70.68-13.6,21.22-10.44,39.75-25.58,60.59-36.76,5.42-2.79,4.15-11.61-1.7-12.97-6.33-1.05-11.2,5.15-16.88,7.19-18.24,11.56-35.94,23.96-55.28,33.71-6.14,3.28-11.88,8.38-19.01,9.03-15.82.3-31.74-2.93-47.46.36-4.35.83-8.46,2.33-12.26,4.35-1.36-.93-3.09-1.46-5.04-1.29-4.39,1.45-8.81,1.32-13.33.77-6.85.02-13.71.53-20.55.06-7.59-.58-15.01-2.53-22.51-3.69-7.37-1.1-14.87-2.41-21.68-5.52-7.18-4.04-15.08-7.01-21.71-11.89-4.4-3.47-12.15,1.03-10.92,6.85.89,5.15,8.31,8.88,15.14,12.06-9.28,10.52-19.92,19.9-30.81,28.73-5.87,5.83-12.63,10.58-20.03,14.27-4.5,3.41-9.44,5.31-15.15,5.11-13.61.43-27.26-.06-40.88-.87-.26-1.01-.56-2.03-.74-3.04-.97-5.28-1.27-10.71-.74-16.06,5.18-13.04-14.88-15.88-14.3.72-.3,5.77-.11,11.67.97,17.38-1.1-.08-2.2-.16-3.29-.24-3.08-.01-6.21-.07-9.31-.29-1.87-6.64-1.97-13.8.69-20.25,5.83-11.39-11.2-16.07-13.8-3.62-2.45,6.7-2.99,13.91-2,20.93-2.03-.75-4.01-1.66-5.92-2.79-1.5-8.99-3.55-19.59,1.13-27.92,11.01-15.24,31.9-13.38,48.45-11.46,6.13.66,13.05-.06,17.77,4.67,5.96,4.2,4.98,15.62,13.15,15.74,11.63-1.54,6.47-12.97,1.48-20.29,1.37-2.01,3.13-3.73,4.98-5.38,9.81-8.07,18.77-17,27.9-25.93,3.98-2.48,7.74-5.96,7.2-11.08.33-5.05.39-10.07.2-15.08,6.04,5.06,12.33,9,18.23,11.04,3.78.48,7.48-2.18,8-6.07.96-6.96-6.96-8.12-11.27-11.35-5.29-3.97-10.36-8.43-14.9-13.35-.42-2.54-2.39-4.61-4.79-5.63-6.77-8.66-11.81-18.54-13.76-29.54-.13-.85-.3-1.72-.46-2.58,1.49.45,2.97.9,4.44,1.41.05.02.16.05.26.09.07.03.15.05.22.08,2.45.84,5,1.65,7.7,2.12,2.19.38,4.41.56,6.63.74,2.07.16,4.15.28,6.22.48,2.32.23,4.64.47,6.96.62.04,0,.18.01.31.02,6.63.41,13.27.16,19.9.56.34.02.67.04,1.01.07,1.3.09,2.61.17,3.92.17.41,0,.81,0,1.22-.03,2.08-.09,4.16-.24,6.23-.47,3.49-.38,6.94-1.02,10.38-1.73,1.34-.27,2.68-.5,4.03-.63,2.86-.19,5.76-.47,8.39-1.67,1.19-.55,2.38-1.18,3.42-2,.4-.31.78-.65,1.17-.97.43-.22.86-.44,1.29-.67-.26.13-.51.26-.77.39-.09.03-.19.07-.28.1,0,0,0,0,0,0,3.03-1.14,5.05-4.26,4.59-7.61-.52-3.8-4.17-6.64-8-6.07-1.14.17-2.08.65-3.07,1.16-.8.39-1.6.79-2.3,1.36-.43.35-.84.71-1.27,1.05-.11.07-.22.13-.33.19-.11.05-.22.1-.34.15-.17.05-.35.09-.52.13-.79.13-1.59.23-2.39.3-1.37.09-2.74.2-4.1.45-1.34.25-2.68.53-4.02.81-3.48.67-6.99,1.17-10.52,1.46-2.08.11-4.12.1-6.2-.03-.29-.02-.59-.04-.89-.06-6.66-.41-13.33-.19-19.99-.57-.06,0-.13,0-.2-.01-3.09-.25-6.17-.6-9.26-.82-3.21-.23-6.42-.46-9.59-.98-1.72-.4-3.39-.93-5.07-1.51-2.54-.88-5.41-1.71-8.27-2.63-2.24-.81-4.42-1.77-6.63-2.67-2.28-.93-4.59-1.77-6.82-2.81-1.09-.59-2.14-1.21-3.17-1.89-.51-.35-1.02-.7-1.53-1.05.85-.33,1.7-.68,2.54-1.02,3.13-.55,6.31-1.84,9-3.73,2.17,1.28,4.51,2.36,6.4,3.55,4.58,2.5,9.36,4.52,14.6,5.05,9.99,1.09,20.33,1.44,29.91-2.08,6.25-2.69,18.29-7.69,12.51-16.16-5.51-6.84-11.85.98-17.62,2.93-8.11,2.72-16.73,2.01-25.1.91-5.11-1.26-9.64-4.2-14.11-6.89-.62-3.34-1.82-6.6-2.41-9.95-.63-2.02-.75-4.42-1.07-6.71,1.81-1.3,3.54-2.74,5.23-3.91,12.27-8.12,9.59-19.03-3.09-24.64-6.65-2.38-13.98-2.65-20.86-1.09-2.77-15.08-.61-30.63-4.52-45.6-1.73-7.83-3.77-16.07-9.77-21.84-12.56-12.03-34.67-4.52-45.32,8.3-.08-4.67-.02-9.35.29-14.02.22-3.06.37-7.09.61-11.12.02-.25.04-.5.06-.75.33-4.61.42-9.23.67-13.84.2-3.76.24-7.52.25-11.28,0-2.01-.04-3.99-.37-5.97-.4-2.4-.85-4.78-1.5-7.13-1.25-4.48-2.18-9.04-3.48-13.52-1.33-4.62-2.6-9.26-3.98-13.86-1.43-4.75-3.05-9.43-4.47-14.18-1.51-5.02-3.12-10.02-4.98-14.91-1.7-4.44-3.77-8.71-5.91-12.96-2.1-4.27-4.02-8.61-6.3-12.79-.35-.64-.79-1.19-1.3-1.66-.04-.2-.07-.39-.13-.59-.65-2.26-1.41-4.49-1.96-6.77,16.96-4.1,34.25,2.8,49.68,9.4,15.91,6.83,26.94,20.03,37.32,33.35.9.87,1.85,1.43,2.82,1.75,1.15.97,2.64,1.58,4.41,1.56,6.23-.83,11.43-5.46,17.67-6.66,14.72-1.97,28.7-8.52,43.91-7.36,13.25-.11,27.15-2.61,39.89,2.04.73.25,2.07.66,3.48,1.21,1.4,1.7,3.57,2.75,6.28,2.36,6.42-1.2,15.32-17.54,19.41-23.14,4.71-6.44,6.89-14.09,9.89-21.36,9.15-16.64,17.61-33.77,30.05-48.27,15.5,22.51,13.98,51.37,12.19,77.45-1.07,17.69-8.31,36.37-10.51,54.16,1.34,6.01,6.77,10.33,8.41,16.33,4.35,15.01,6.52,31.08,4.91,46.68-.2,5.76-1.08,10.42-2.3,16.32-1.47,5.82-4.89,13.16,3.02,15.8,12.75,4.11,12.78-28.95,14-37.03-.2-20.48-1.46-42.94-13.61-60.19.99-4.2,2.01-8.39,3.01-12.57,1.93.06,3.93-.71,5.59-2.69,13.5-10.59,28.69-20.96,36.41-36.77,17.61-31.39,28.55-66.31,32.96-102.01,11.75-77.78-20.36-144.74,53.87-203.53,10.67-10.31,24-16.84,36.57-24.43,11.45-5.09,20.3-12.48,18.85-26.11.52-11.99-6.11-22.5-8.63-33.93-4.89-28.2-18.92-52.96-32.33-77.83-7.01-14.92-17.69-27.56-27.02-41.04-9.05-13.79-16.47-28.64-23.26-43.66-14.03-31.31-17.65-65.63-15.09-99.58,1.73-29.31,11.29-58.81,33.85-78.67,6.53-6.94,30.3-29.13,39.96-24.39,14.65,15.46,6.2,43.16,7.38,62.92-.66,21.08-.14,42.12,2.93,63.02,2.35,32.59,11.84,64.19,24.37,94.24,7.99,25.43,21.26,48.38,32.85,72.22,10.95,23.73,21.25,47.98,28.53,73.11,2.94,15.47,4.04,31.82,9.75,46.55,6.32,7.75,17.78,9.26,24.94,16.37,7.43,6.98,13.62,15.15,19.64,23.35,7.14,8.83,14.79,17.3,19.43,27.81,11.24,23.57,22.44,47.67,32.04,72,8.89,30.91,16.31,62.6,16.72,94.92.17,21.08.82,42.47-3.32,63.25-7.31,28.01-14.75,56.94-10.62,86.08,3.59,19,12.6,36.45,17.21,55.18,8.75,36.83,14.35,75.17,12.33,113.11-1.87,20.9-5.11,41.67-8.4,62.38-2.87,13.02-7.54,26.54-5.41,39.96,1.32,5.78,6.51,9.52,8.86,14.84,4.43,10.25,5.84,21.72,7.7,32.65-16.11,14.42-38.97,17.95-59,10.29Z" stroke-width="0"/><path d="M169.51,937.53c.08,0,.13,0,.13,0-.04,0-.09,0-.13,0Z" stroke-width="0"/><path d="M217.79,910.92c-.06-12.45-5.5-17.44-15.14-24.05-12.66-8.06-29.45-5.51-42.16,1.19-5.79,3.66-10.42,9.12-14.01,14.91-5.76,10.66-9.32,22.83-10.24,34.9-.02,4.02,3.13,7.4,7.12,7.77,5.16,3.21,10.87,5.78,17.03,6,14.49.87,29.7-.73,41.33-10.21,7.8-7.18,16.67-19.51,16.07-30.5ZM138.91,943.4c.3.32.63.61.98.87-.36-.23-.7-.53-.98-.87ZM168.7,937.59c-6.21.4-12.55-.19-17.75-3.93,1.54-7.49,3.36-15.15,6.93-21.84-.05,1.91.1,3.7.45,5.23,1.65,6.48,5.27,13.24,11.63,16.08,5.89,2.62,12.82.32,17.13-4.16,4.43-4.64,5.44-11.18,5.74-17.35.47-6.09-2.47-11.93-7.13-15.48,2.44.16,4.83.64,7.1,1.47,3.5,1.94,7,4.52,9.7,7.48,2.23,5.63,1.15,11.32-2.59,16.15-6.07,12.15-18.24,16.44-31.21,16.36Z" stroke-width="0"/><path d="M168.68,937.59s.02,0,.02,0c.27-.02.54-.04.81-.06-.26.02-.83.06-.83.06Z" stroke-width="0"/><path d="M292.68,729.21c.08-7.34-5.27-15.88-13.16-10.69-3.05,2.73-5.51,6.36-8.28,9.7-3.43,5.01-5.63,10.7-8.58,15.99-3.45,6.98-7.35,13.71-10.36,20.9-3.05,6.5-12,19.08-9.4,26.03.37,4.46,5.06,6.61,8.33,8.89,5.3,5.08,11.55,8.93,18.14,12.12,2.9,1.37,4.95,3.97,7.83,5.38,4.87,2.63,11.4-1.45,10.77-7.05.61-4.57,1.66-9.17,2.07-13.8.85-13.29,4.12-26.26,5.39-39.5,1.43-9.49-1.55-18.67-2.75-27.96ZM279.91,767.06c-2,10.7-3.41,21.44-4.54,32.26-3.08-1.6-6.14-3.27-9.05-5.17-3.17-2.22-5.67-5.25-9.09-7.12,7.1-15.7,15.56-30.76,23.07-46.28,2.35,8.67.7,17.58-.38,26.31Z" stroke-width="0"/><path d="M74.82,767.98c-6.96-3.61-13.72-7.96-21.45-9.68-8.59-3.25-21.31.63-16.5,11.78,8.4,15.41,16.49,31.13,21.98,47.84,2.04,6.89,2.95,14.13,5.99,20.71.46,3.38,2.37,6,4.89,8.22,6.08,4.4,10.79-1.58,13.66-6.54,4.36-5.49,8.01-11.47,11.92-17.29,3.61-7.84,9.57-14.93,10.99-23.57.34-3.85-2.43-6.79-4.49-9.7-6.85-8.54-17.36-16.16-26.99-21.77ZM75.71,826.96c-3.86-18.85-11.97-36.43-20.91-53.37,8.88,4.41,17.94,8.78,25.49,15.31,4.2,3.47,8.28,6.24,11.32,10.98-4.66,9.24-10,18.5-15.9,27.09Z" stroke-width="0"/><path d="M280.95,952.33c-18.5-3.43-36.33-1.64-55.16-.25-14.82,1.13-29.64,3.09-43.72,7.93-8.63,1.28-7.73,14.03.96,14.13,5.69-.34,10.75-3.41,16.31-4.43,22.71-3.56,45.16-5.82,68.32-4.83,3.42.26,6.82.63,10.19,1.27,2.52.61,5.2,1.21,7.55-.26,6.69-4.23,3.04-13.45-4.46-13.57Z" stroke-width="0"/><path d="M260.09,979.14c-2.2-.53-4.31-1.39-6.5-1.97-19.18-3.72-39.45-8.09-58.75-2.85-2.34.58-4.62,1.63-7.02,1.87-3.87,0-7.1,3.23-7.1,7.1,1.98,13.95,18.22,2.77,26.64,3.12,17.99-1.36,35.64,3.16,52.98,7.11,6.02,1.16,10.5-6.71,6.58-11.37-1.62-2.19-4.28-2.77-6.84-3Z" stroke-width="0"/><path d="M234.64,1010.07c-10.89-7.5-23.21-12.93-35.83-16.78-19.03-5.97-19.22,13.02-7.92,13.09,6,.44,11.58,3.1,17.06,5.39,6.36,2.63,12.44,5.66,18.1,9.6,7.54,5.35,15.78-5.5,8.59-11.3Z" stroke-width="0"/></g></svg>