<?xml version="1.0" encoding="UTF-8"?><svg id="b" xmlns="http://www.w3.org/2000/svg" viewBox="0 0 612.93 1117.95"><g id="c"><path d="M527.04,981.46c.82,22.26-11.41,34.74-30.17,42.24-20.64,8.25-41.69,10.51-63.11,3.1-16.45-5.69-28.45-15.94-33.14-33.4-.47-1.74-1.26-3.39-2.02-5.37-29.78,8.44-59.4,7.87-89.72,1.13-3.32,13.6-9.44,25.38-22.2,33.17,3.54,2.62,6.38,4.62,9.12,6.76,17.74,13.86,24.63,34.09,17.4,56.51-6.33,19.61-22.16,29.22-41.59,31.98-7.21,1.02-16.4.12-22.29-3.64-25.07-16.04-53.31-19.4-81.61-23.46-36.91-5.29-73.44-12.26-107.59-28.14-23.61-10.98-43.15-26.37-53.67-51.06-10.44-24.5-8.16-48.06,6.46-70.24,16.67-25.27,40.27-42.04,67.56-54.13,2.32-1.03,4.63-2.07,6.38-2.85-4.88-16.86-10.5-32.98-14.17-49.54-14.17-63.95-7.18-126.25,17.27-186.6,14.4-35.56,30.81-70.32,44.9-106,11.07-28.04,19.99-56.94,29.82-85.47.75-2.17,1.14-4.47,1.83-7.25-6.33-2.3-12.51-4.3-18.5-6.76-45.54-18.74-72.36-51.7-76.94-101.55-2.53-27.54-4.49-55.07-1.44-82.72.29-2.65-1.14-5.81-2.56-8.27-14.16-24.49-28.82-48.7-42.54-73.42-3.76-6.78-5.61-14.9-6.97-22.65-1.76-10.05,3.16-17.67,13.29-18.72,10.77-1.11,22.17-1.26,32.65,1.06,20.73,4.59,41.08,10.99,61.46,17.09,4.53,1.35,7.66.98,11.52-1.74,37.61-26.58,78.16-46.12,124.73-50.65,4.59-.45,6.57-2.89,8.8-6.62,13.66-22.88,27.22-45.85,41.89-68.08,5.15-7.81,12.71-14.44,20.25-20.19,11.59-8.83,25.5-7.93,34.66,3.31,7.7,9.44,14.09,20.44,18.83,31.69,11.41,27.13,16.64,56.01,21.03,84.97.81,5.31,2.56,9.47,6.55,13.32,27.05,26.11,42.98,58.84,53.75,94.13,27.11,88.85,55.32,177.42,79.71,267.02,15.26,56.06,33.88,110.98,49.96,166.7,20.21,70.07,21.8,141.29,3.77,212.35-5.88,23.18-17.03,44-32.2,62.61-1.79,2.2-3.39,5.15-3.67,7.89-1.54,14.69-8.28,23.42-22.63,27.92-4.65,1.46-9.49,2.31-14.86,3.58ZM503.84,971.81c-2.29-1.96-3.8-4.15-5.81-4.8-8.71-2.81-11.21-9.59-11.18-17.51.08-25.94-.83-51.98,1.08-77.8,4.54-61.44,9.06-122.84,8.47-184.49-.17-17.33-.79-34.65-1.18-51.97-.13-5.85,2.65-9.53,8.57-9.84,5.69-.3,8.39,3.31,9.19,8.58.17,1.15.21,2.33.26,3.5,3.13,77.59-.83,154.94-7.2,232.26-1.96,23.75-1.74,47.68-2.12,71.53-.05,3.35,1.5,7.29,3.58,9.96,2.96,3.8,7.01,6.78,10.78,9.89,1.31,1.09,3.29,2.35,4.74,2.12,5.5-.88,11.05-1.92,16.31-3.71,5.2-1.77,7.91-5.98,6.85-11.61-1.03-5.45,1.03-9.4,4.51-13.3,16.2-18.16,27.47-39.18,33.14-62.73,16.37-67.94,14.6-135.89-5.2-202.64-15.9-53.58-33.54-106.58-48.32-160.58-24.88-90.93-53.57-180.81-80.94-271.05-8.21-27.06-20.04-52.45-38.22-74.5-2.41-2.93-4.39-5.31-9.23-4.13-5.41,1.32-8.68-2.38-9.79-7.67-.91-4.34-1.77-8.68-2.55-13.05-3.66-20.46-6.08-41.24-11.29-61.29-4.32-16.6-10.73-32.93-18.42-48.28-6.61-13.21-13.59-13.21-24.14-2.96-3.18,3.09-6.42,6.28-8.88,9.92-9.18,13.56-18.64,26.98-26.87,41.1-8.83,15.14-16.15,31.16-24.7,46.47-1.62,2.91-5.96,6.09-8.91,5.97-2.84-.11-5.57-4.28-8.21-6.82-.71-.69-.87-1.94-1.31-3-2.01.27-3.63.44-5.23.71-43.88,7.37-81.95,27.36-116.11,54.94-27.13,21.91-43.55,50.65-47.85,85.49-3.67,29.71-1.39,59.4,2.76,88.91,3.73,26.52,17.25,47.42,39.24,62.29,35.62,24.08,76.3,31.9,117.51,25.91,49.35-7.18,90.97-30.93,118.94-74.4,3.36-5.22,8.6-6.82,13.06-4.15,4.46,2.67,5.58,8.14,2.07,13.55-4.19,6.47-8.32,13.14-13.51,18.78-44.13,47.99-98.14,71.13-163.83,64.32-6.44-.67-12.86-1.52-18.6-2.2-8.98,26.22-16.68,52.04-26.63,76.97-15.17,38.02-32.1,75.34-47.9,113.11-23.61,56.45-33.72,114.69-23.09,175.77,9,51.69,29.99,96.34,73.1,128.42,5.64,4.2,8.35,8.43,5.14,15.4-2.41,5.22.84,9.07,5.07,10.73,5.17,2.03,10.92,2.62,16.47,3.59.4.07,1.06-1.93,1.74-2.87,3.83-5.28,6.99-11.34,11.75-15.61,6.53-5.86,7.76-12.41,7.35-20.63-3.07-60.85-9.93-121.29-18.26-181.63-4.03-29.18-5.43-58.72-8.04-88.1-.5-5.68.8-10.45,6.95-12.11,5.96-1.6,10.4,3.72,11.16,11.87,3.45,36.81,6.05,73.75,10.97,110.38,7.11,52.96,12.12,106.03,14.9,159.37.71,13.56-1.62,24.98-12.63,33.74-1.77,1.4-2.95,3.54-4.97,6.02,19.35,4.66,5.15,15.47,3.62,25.76,6.98-6.56,9.61-16.95,19.97-12.34,6.35,2.83,4.85,8.71,3.43,13.86,4.95,2.81,6.81.5,8.42-3.76,1.86-4.93,6.17-6.43,10.96-4.97,4.65,1.41,6.39,5.17,5.86,9.94-.19,1.73-.51,3.44-.87,5.87,2.56-.19,4.44,0,6.12-.5,12.4-3.73,22.54-10.43,24.56-24.14,2.46-16.63,4.85-33.41,5.22-50.18.76-34.64-.59-69.33.31-103.97,1.1-42.35,3.55-84.67,5.58-126.99.43-8.94,6.68-13.43,13.2-10.01,5.09,2.67,4.9,7.34,4.63,12.2-1.85,33.66-4.36,67.31-5.19,101-1.29,52.42-1.45,104.87-1.85,157.31-.01,1.68,2.32,4.51,4,4.91,24.05,5.72,48.17,6.18,72.3.19,5.33-1.32,7.14-3.9,7.08-9.82-.23-21.29-.17-42.62.85-63.88,1.8-37.46,2.98-74.89-.55-112.29-2.68-28.43-5.88-56.81-8.78-85.22-.75-7.35,1.81-11.51,7.26-12.28,5.61-.79,9.6,2.58,10.51,9.59,6.62,50.88,12.01,101.89,11.15,153.29-.53,31.83-3.01,63.65-2.95,95.47.03,15.22,3.04,30.63,6.43,45.56,2.46,10.84,12.52,14.53,22.63,17.75,1.34-7.28-1.35-17.02,9.07-16.92,12.84.11,7.77,11.91,10.38,19.73,4.46-.47,8.93-.94,14.58-1.53-1.36-4.4-2.39-7.88-3.52-11.32-1.75-5.3-.13-9.52,4.84-11.62,5.02-2.11,9.3-.2,11.65,4.76,1.68,3.54,2.83,7.34,4.22,11.02,8.81-2.56,9.69-8.23,2.52-15.75-5.19-5.45-4.37-12.05,1.9-14.89,1.62-.73,3.38-1.16,5.92-2.02ZM120.39,936.39c-7.68-11.34-14.74-22.08-22.25-32.49-1.09-1.51-4.82-2.65-6.53-1.96-25.92,10.46-48.26,25.74-63.94,49.44-11.18,16.9-12.9,34.81-4.53,53.4,9.4,20.9,26.65,33.3,46.77,42.34,33.46,15.04,69.18,21.38,105.15,26.29,28.42,3.88,56.23,8.56,81.37,24.07,14.11,8.71,37.68-4.11,40.65-20.59,3.11-17.23-2.86-30.91-20.62-38.7-15.47-6.78-32.08-11.69-48.67-14.99-22.91-4.56-46.33-6.41-69.41-10.22-18.26-3.01-36.29-7.34-52.16-17.63-10.84-7.02-15.96-17.86-11.78-29.52,2.63-7.35,8.15-13.92,13.33-20.02,3.35-3.94,8.43-6.4,12.61-9.44ZM34.11,151.35c9.39,29.75,25.73,53.49,41.05,78,7.32-14.07,14.24-27.36,21.89-42.06-11.87-1.95-23.28-4.03-34.75-5.62-6.82-.94-10.47-5.01-8.55-10.55,1.7-4.9,5.75-6.35,10.1-5.61,13.08,2.23,26.17,4.56,39.04,7.72,5.32,1.3,8.85,1.28,11.61-4.92-25.88-7.59-50.99-17.07-80.39-16.96ZM185.4,999.27c.15-.67.3-1.34.44-2.01-4.19-.87-8.43-1.58-12.58-2.63-15.22-3.85-26.31-14.64-25.85-27.42.34-9.49-7.2-11.54-11.81-16.48-.5-.53-2.42-.48-3.14.04-6.18,4.48-13,8.41-18.11,13.92-5.63,6.08-3.87,12.55,3.42,16.62,21.04,11.76,44.5,14.22,67.61,17.95Z" stroke-width="0"/><path d="M503.84,971.81c-2.54.85-4.3,1.28-5.92,2.02-6.27,2.84-7.08,9.45-1.9,14.89,7.17,7.53,6.29,13.19-2.52,15.75-1.38-3.68-2.54-7.47-4.22-11.02-2.36-4.96-6.63-6.88-11.65-4.76-4.98,2.09-6.59,6.31-4.84,11.62,1.13,3.44,2.15,6.92,3.52,11.32-5.65.59-10.12,1.06-14.58,1.53-2.61-7.83,2.46-19.62-10.38-19.73-10.42-.09-7.73,9.64-9.07,16.92-10.11-3.22-20.17-6.91-22.63-17.75-3.39-14.93-6.4-30.35-6.43-45.56-.07-31.82,2.42-63.64,2.95-95.47.85-51.4-4.53-102.4-11.15-153.29-.91-7.01-4.91-10.38-10.51-9.59-5.45.76-8.01,4.92-7.26,12.28,2.91,28.41,6.1,56.79,8.78,85.22,3.53,37.4,2.35,74.83.55,112.29-1.02,21.26-1.08,42.59-.85,63.88.06,5.92-1.75,8.5-7.08,9.82-24.13,5.99-48.25,5.52-72.3-.19-1.69-.4-4.02-3.23-4-4.91.4-52.44.56-104.89,1.85-157.31.83-33.69,3.34-67.34,5.19-101,.27-4.86.45-9.53-4.63-12.2-6.52-3.42-12.77,1.07-13.2,10.01-2.03,42.32-4.48,84.64-5.58,126.99-.9,34.63.45,69.33-.31,103.97-.37,16.76-2.76,33.55-5.22,50.18-2.02,13.71-12.16,20.41-24.56,24.14-1.68.5-3.56.31-6.12.5.36-2.43.68-4.14.87-5.87.53-4.77-1.22-8.53-5.86-9.94-4.79-1.46-9.1.05-10.96,4.97-1.61,4.26-3.47,6.57-8.42,3.76,1.42-5.15,2.92-11.04-3.43-13.86-10.36-4.61-12.99,5.77-19.97,12.34,1.53-10.28,15.74-21.09-3.62-25.76,2.02-2.49,3.21-4.62,4.97-6.02,11.01-8.76,13.34-20.17,12.63-33.74-2.78-53.34-7.79-106.42-14.9-159.37-4.92-36.62-7.52-73.56-10.97-110.38-.76-8.15-5.21-13.47-11.16-11.87-6.16,1.66-7.46,6.43-6.95,12.11,2.61,29.38,4.01,58.92,8.04,88.1,8.33,60.34,15.2,120.77,18.26,181.63.41,8.22-.82,14.76-7.35,20.63-4.76,4.27-7.92,10.32-11.75,15.61-.68.94-1.35,2.94-1.74,2.87-5.54-.97-11.3-1.56-16.47-3.59-4.23-1.66-7.48-5.51-5.07-10.73,3.21-6.97.5-11.2-5.14-15.4-43.12-32.08-64.11-76.73-73.1-128.42-10.63-61.08-.52-119.32,23.09-175.77,15.8-37.78,32.73-75.09,47.9-113.11,9.95-24.93,17.65-50.75,26.63-76.97,5.74.68,12.16,1.53,18.6,2.2,65.69,6.82,119.71-16.33,163.83-64.32,5.19-5.64,9.32-12.31,13.51-18.78,3.51-5.42,2.39-10.88-2.07-13.55-4.46-2.67-9.7-1.07-13.06,4.15-27.97,43.47-69.59,67.22-118.94,74.4-41.21,5.99-81.89-1.83-117.51-25.91-21.99-14.86-35.51-35.77-39.24-62.29-4.16-29.51-6.43-59.2-2.76-88.91,4.3-34.84,20.72-63.58,47.85-85.49,34.16-27.58,72.23-47.57,116.11-54.94,1.6-.27,3.22-.44,5.23-.71.44,1.06.6,2.31,1.31,3,2.63,2.54,5.37,6.71,8.21,6.82,2.96.12,7.29-3.06,8.91-5.97,8.55-15.32,15.87-31.33,24.7-46.47,8.23-14.13,17.69-27.55,26.87-41.1,2.47-3.64,5.7-6.83,8.88-9.92,10.55-10.25,17.52-10.25,24.14,2.96,7.69,15.35,14.1,31.68,18.42,48.28,5.21,20.05,7.63,40.83,11.29,61.29.78,4.36,1.64,8.71,2.55,13.05,1.11,5.29,4.37,8.99,9.79,7.67,4.84-1.18,6.81,1.2,9.23,4.13,18.18,22.04,30.02,47.43,38.22,74.5,27.37,90.24,56.06,180.13,80.94,271.05,14.78,54.01,32.42,107,48.32,160.58,19.81,66.75,21.58,134.7,5.2,202.64-5.68,23.56-16.94,44.57-33.14,62.73-3.48,3.9-5.54,7.85-4.51,13.3,1.06,5.62-1.65,9.84-6.85,11.61-5.26,1.79-10.81,2.83-16.31,3.71-1.45.23-3.42-1.03-4.74-2.12-3.76-3.11-7.82-6.09-10.78-9.89-2.08-2.67-3.63-6.61-3.58-9.96.38-23.85.16-47.79,2.12-71.53,6.37-77.31,10.33-154.66,7.2-232.26-.05-1.17-.08-2.35-.26-3.5-.8-5.27-3.5-8.88-9.19-8.58-5.91.32-8.7,3.99-8.57,9.84.39,17.32,1.01,34.65,1.18,51.97.59,61.65-3.94,123.06-8.47,184.49-1.91,25.82-1,51.86-1.08,77.8-.02,7.91,2.47,14.7,11.18,17.51,2.01.65,3.52,2.84,5.81,4.8ZM196.67,348.17c7.69,1.52,14.92,3.76,22.26,4.27,24.89,1.72,44.63-9.84,62.5-25.59,5.51-4.85,6.65-10.15,2.8-13.81-4.83-4.58-8.88-2.07-13.58,1.23-9.69,6.8-19.45,13.85-30.09,18.86-11.6,5.46-24.2,4.86-36.13-.5-7.77-3.49-8.74-10.92-3.16-17.12,5.28-5.87,10.57-12,14.46-18.81,5.96-10.42,1.69-16.71-10.41-16.25-12.24.47-23.36,4.67-33.42,11.5-5.82,3.95-12.49,8.28-11.5,16.32.96,7.79,8.5,9.82,14.75,12.44,1.08.45,2.28.64,3.29,1.2.97.54,2.29,1.25,2.54,2.14,1.76,6.44,4.3,12.7-.61,19.27-4.98,6.66-10.84,11.84-18.94,13.56-5.42,1.15-11.11,1.22-16.68,1.38-4.99.15-8.17,2.32-8.71,7.24-.55,5.02,2.31,7.97,7.13,8.72,3.21.5,6.53.76,9.77.56,19.33-1.2,34.48-9.46,43.75-26.6ZM311.53,111.72c8.78-17.77,16.46-35.09,32.2-49.46,2.17,6.84,4.48,11.78,5.24,16.95,2.66,18.03,4.97,36.12,7.03,54.22.66,5.79,2.88,9.8,8.86,9.41,6.04-.39,8.08-4.85,7.48-10.55-1.69-15.81-2.68-31.74-5.38-47.37-1.68-9.77-5.03-19.53-9.29-28.5-5.49-11.55-15.34-13.33-25.44-5.39-4.72,3.71-9.52,8.05-12.46,13.15-9.53,16.57-18.51,33.49-27.08,50.58-3.32,6.61-.16,11.12,7.32,12.48,8.96,1.63,17.94,3.18,26.92,4.72,5.06.87,9-.67,10.23-6,1.13-4.9-1.38-8.32-5.97-9.64-6.03-1.73-12.23-2.9-19.66-4.62ZM318.28,232.29c1.4,0,3.23.57,4.13-.1,2.88-2.17,7-4.41,7.72-7.35,1.1-4.45-2.19-8.05-7.19-8.44-24.46-1.91-44.28,7.56-59.99,25.74-1.71,1.98-1.14,7.87.6,10.47,2.69,4.02,7.36,3.34,11.1.23,1.79-1.49,3.25-3.36,4.96-4.95,10.89-10.16,23.76-15.46,38.68-15.58ZM135.53,305.06c1.63-1.49,5.79-3.62,6.72-6.72.72-2.39-1.83-7.42-4.3-8.8-9.09-5.06-30.82-.62-38.22,6.95-3.36,3.43-4.84,7.88-1.1,11.03,2.39,2.02,8.02,3.17,10.35,1.73,7.67-4.76,15.51-5.97,26.56-4.19Z" fill="#fff" stroke-width="0"/><path d="M120.39,936.39c-4.18,3.03-9.27,5.5-12.61,9.44-5.18,6.1-10.7,12.67-13.33,20.02-4.18,11.66.94,22.5,11.78,29.52,15.87,10.28,33.91,14.62,52.16,17.63,23.07,3.8,46.5,5.66,69.41,10.22,16.59,3.3,33.2,8.21,48.67,14.99,17.76,7.79,23.73,21.47,20.62,38.7-2.98,16.48-26.54,29.3-40.65,20.59-25.14-15.52-52.96-20.19-81.37-24.07-35.97-4.91-71.69-11.25-105.15-26.29-20.12-9.04-37.37-21.44-46.77-42.34-8.37-18.6-6.65-36.5,4.53-53.4,15.68-23.71,38.02-38.98,63.94-49.44,1.7-.69,5.44.45,6.53,1.96,7.51,10.42,14.57,21.16,22.25,32.49Z" fill="#fff" stroke-width="0"/><path d="M34.11,151.35c29.4-.12,54.51,9.36,80.39,16.96-2.76,6.2-6.29,6.23-11.61,4.92-12.87-3.16-25.97-5.48-39.04-7.72-4.35-.74-8.41.71-10.1,5.61-1.92,5.54,1.73,9.6,8.55,10.55,11.48,1.59,22.89,3.67,34.75,5.62-7.65,14.7-14.57,27.99-21.89,42.06-15.32-24.5-31.66-48.25-41.05-78Z" fill="#fff" stroke-width="0"/><path d="M185.4,999.27c-23.11-3.74-46.57-6.2-67.61-17.95-7.29-4.07-9.05-10.55-3.42-16.62,5.11-5.51,11.93-9.44,18.11-13.92.72-.52,2.64-.58,3.14-.04,4.6,4.93,12.15,6.99,11.81,16.48-.46,12.79,10.63,23.57,25.85,27.42,4.15,1.05,8.38,1.76,12.58,2.63-.15.67-.3,1.34-.44,2.01Z" fill="#fff" stroke-width="0"/><path d="M196.67,348.17c-9.27,17.15-24.43,25.4-43.75,26.6-3.24.2-6.55-.07-9.77-.56-4.82-.74-7.69-3.7-7.13-8.72.54-4.92,3.73-7.09,8.71-7.24,5.58-.17,11.26-.23,16.68-1.38,8.1-1.72,13.96-6.9,18.94-13.56,4.91-6.57,2.37-12.83.61-19.27-.24-.89-1.57-1.6-2.54-2.14-1.01-.56-2.21-.75-3.29-1.2-6.25-2.62-13.79-4.65-14.75-12.44-.99-8.04,5.68-12.37,11.5-16.32,10.06-6.83,21.19-11.03,33.42-11.5,12.1-.46,16.36,5.83,10.41,16.25-3.89,6.81-9.18,12.94-14.46,18.81-5.57,6.2-4.61,13.63,3.16,17.12,11.93,5.36,24.53,5.95,36.13.5,10.64-5.01,20.4-12.06,30.09-18.86,4.7-3.3,8.76-5.81,13.58-1.23,3.86,3.66,2.71,8.96-2.8,13.81-17.87,15.75-37.61,27.31-62.5,25.59-7.34-.51-14.57-2.74-22.26-4.27Z" stroke-width="0"/><path d="M311.53,111.72c7.43,1.72,13.63,2.89,19.66,4.62,4.6,1.32,7.1,4.74,5.97,9.64-1.23,5.33-5.17,6.86-10.23,6-8.98-1.54-17.96-3.09-26.92-4.72-7.48-1.36-10.64-5.87-7.32-12.48,8.58-17.09,17.55-34.01,27.08-50.58,2.94-5.11,7.74-9.44,12.46-13.15,10.1-7.95,19.94-6.16,25.44,5.39,4.27,8.97,7.61,18.73,9.29,28.5,2.7,15.64,3.69,31.57,5.38,47.37.61,5.7-1.44,10.15-7.48,10.55-5.99.39-8.2-3.62-8.86-9.41-2.06-18.11-4.36-36.2-7.03-54.22-.76-5.17-3.07-10.11-5.24-16.95-15.74,14.37-23.42,31.69-32.2,49.46Z" stroke-width="0"/><path d="M318.28,232.29c-14.92.12-27.79,5.42-38.68,15.58-1.71,1.59-3.17,3.46-4.96,4.95-3.74,3.11-8.41,3.8-11.1-.23-1.73-2.59-2.31-8.48-.6-10.47,15.71-18.18,35.53-27.65,59.99-25.74,4.99.39,8.28,3.99,7.19,8.44-.72,2.93-4.84,5.18-7.72,7.35-.89.67-2.72.1-4.13.1Z" stroke-width="0"/><path d="M135.53,305.06c-11.05-1.78-18.88-.56-26.56,4.19-2.33,1.44-7.96.28-10.35-1.73-3.74-3.15-2.25-7.6,1.1-11.03,7.4-7.57,29.12-12,38.22-6.95,2.47,1.38,5.02,6.41,4.3,8.8-.93,3.1-5.09,5.22-6.72,6.72Z" stroke-width="0"/></g></svg>