<?xml version="1.0" encoding="UTF-8"?><svg id="b" xmlns="http://www.w3.org/2000/svg" viewBox="0 0 1139.91 1082.58"><g id="c"><path d="M904.63,756.24c31.91-20.84,63.85-40.64,88.7-71.35,73.36-90.61,45.6-248.8-63.67-304.15-36.37-18.42-71.96-36.17-113.2-41.62-18.47-2.44-31.87-4.01-38.92,17.14-7.43,22.29-2,37.95,16.54,50.07,10.54,6.88,22.24,9.01,33.36,13.36,42.09,16.46,79.53,37.98,102.27,79.93,25.34,46.75,22.55,104.85-11.64,143.24-16.35,18.36-36.42,33.41-54.81,49.96" fill="none" stroke="#000" stroke-linecap="round" stroke-linejoin="round" stroke-width="11.03"/><path d="M5.52,532.84c26.39,17.68,57.02,9.95,85.57,13.11,37.28,4.12,70.04,13.48,99.65,38.79,57.41,49.07,50.49,27.98,24.09,99.68-31.5,85.55-61.19,171.9-101.76,253.84-10.95,22.11-22.26,44.03-33,66.24-6.31,13.04-18.95,26.23-5.41,41.17,15.2,16.76,32.23,29.08,57.81,22.54,31.8-8.13,48.92-26.49,49.22-60.99.21-24.39,5.69-46.24,19.61-66.22,21.86-31.4,41.68-64.19,65.94-93.98,7.15-8.79,13.75-16.61,25.12-19.06" fill="none" stroke="#000" stroke-linecap="round" stroke-linejoin="round" stroke-width="11.03"/><path d="M11.03,530.08c7.86-31.63,37.47-37.67,61.09-45.67,26.04-8.81,33.93-23.2,35.9-48.07,2.73-34.52,6.82-69.1,18.77-102.11,5.18-14.31,5.54-27.39-7.97-38.85-10.34-8.77-19.83-19.12-27.52-30.27-10.92-15.83-5.36-26.67,13.43-33.1,12-4.11,24.01-2.77,35.92-2.37,70.37,2.36,140.25,10.19,209.57,22.16,39.1,6.75,72.67,29.7,110.27,41.39,8.46,2.63,17.3,7.19,24.41,11.55,18.61,11.41,28.29,7.15,42.43-8.59,45.49-50.64,79.42-108.82,115.83-165.63,18.33-28.6,22.13-61.52,35.35-91.35,16.44-37.08,57.14-44.96,85.32-16.44,4.58,4.63,7.4,10.97,11.17,16.41,21.82,31.49,26.32,40.78-.91,62.31-64.09,50.67-65.88,126.95-90.17,194.18-10.28,28.44-15.81,58.37-29.67,85.83-6.03,11.97-9.25,23.62,9.6,36.72,54.47,37.87,90.89,92.74,122.01,150.6,21.94,40.78,47.7,79.27,70.71,119.17,33.02,57.24,70.06,111.22,111.97,161.65,36.81,44.29,76.04,87.11,129.09,113.58,2.21,1.1,3.5,3.91,5.6,5.37,27.46,19.13,37.15,38.45,27.55,55.21-13.04,22.76-46.65,30.88-74.59,19.6-12.92-5.21-25.57-10.67-32.76-22.49-27.5-45.27-72.82-64.16-118.78-82.68-47.03-18.95-94.11-37.84-140.51-58.25-14.73-6.48-25.07-7.11-39.1,2.72-43.62,30.55-92.64,48.65-145.9,52.36-18.17,1.26-37.01-1.8-55.05-5.4-19.73-3.93-34.17-14.47-30.41-38.24" fill="none" stroke="#000" stroke-linecap="round" stroke-linejoin="round" stroke-width="11.03"/><path d="M493.68,918.96c-15.97,13.95-18.03,32.47-19.66,52.37-6.2,75.76-38.52,89.6-99.15,100.96-21.68,4.06-45.48,7.5-68.88,1.7-8.77-2.17-17.16-4.57-24.56-9.05-13.09-7.94-23.94-16.64-17.06-35.79,6.99-19.47,21.19-20.2,36.13-16,18.8,5.29,33.1-.04,44.02-14.36,10.44-13.7-.87-26.46-5.74-38.26-7.5-18.17-20.42-34.28-26.69-52.74-21.49-63.32-31.07-122.64,40.92-148.78" fill="none" stroke="#000" stroke-linecap="round" stroke-linejoin="round" stroke-width="11.03"/><path d="M267.53,279.1c6.68,28.98,9.05,56.68-22.06,74.47" fill="none" stroke="#000" stroke-linecap="round" stroke-linejoin="round" stroke-width="11.03"/><path d="M421.97,193.6c-17.92,17.89-33.44,37.53-44.13,60.68" fill="none" stroke="#000" stroke-linecap="round" stroke-linejoin="round" stroke-width="11.03"/><path d="M358.54,190.85c-.92,19.31-1.84,38.61-2.76,57.92" fill="none" stroke="#000" stroke-linecap="round" stroke-linejoin="round" stroke-width="11.03"/><path d="M226.16,455.61c-13.78,25.82-21.28,55.99-49.64,71.71" fill="none" stroke="#000" stroke-linecap="round" stroke-linejoin="round" stroke-width="11.03"/><path d="M267.53,422.52c15.63,11.03,31.26,22.06,46.89,33.1" fill="none" stroke="#000" stroke-linecap="round" stroke-linejoin="round" stroke-width="11.03"/><path d="M206.85,615.58c-9.03,15.45-34.62,19.52-30.34,44.13" fill="none" stroke="#000" stroke-linecap="round" stroke-linejoin="round" stroke-width="11.03"/><path d="M165.48,604.55c-8.9,12.68-27.27,11.68-35.85,24.82" fill="none" stroke="#000" stroke-linecap="round" stroke-linejoin="round" stroke-width="11.03"/><path d="M653.65,414.24c-14.36.51-9.12,23.07-24.82,22.06" fill="none" stroke="#000" stroke-linecap="round" stroke-linejoin="round" stroke-width="11.03"/><path d="M336.48,428.03c-2.11,15.66-20.46,19.13-24.32,35.26,1.39,7.02,3.2,16.22,5.02,25.42" fill="none" stroke="#000" stroke-linecap="round" stroke-linejoin="round" stroke-width="11.03"/><path d="M264.77,411.49c-1.72,17.26-23.1,18.13-27.58,33.1" fill="none" stroke="#000" stroke-linecap="round" stroke-linejoin="round" stroke-width="11.03"/></g></svg>