<?xml version="1.0" encoding="UTF-8"?><svg id="b" xmlns="http://www.w3.org/2000/svg" viewBox="0 0 780.21 1113.34"><g id="c"><path d="M311.66,313.32c51.91,49.99,119.12,75.65,180.4,109.87,123.25,68.83,192.22,170.3,205.01,310.09,2.62,28.61,12.18,49.83,36.08,67.84,29.47,22.21,42.44,55.85,45.65,92.38,10.39,118.44-36.2,181.88-152.48,201.09-182.25,30.1-366.25,14.41-549.53,16.45-14.21.16-29.95-6.55-42.46-14.19-22.15-13.53-43.81-32.96-29.97-61.13,13.68-27.85,39.21-16.7,62.01-8.23,48.82,18.12,89.61-7.25,108.58-58.8,32.89-89.38,6.07-167.61-38.2-243.7-45.8-78.72-88.53-158.45-102.47-250.29-8.15-53.67-7.96-107.25-2.44-161.02,10.01-.53,14.01,6.29,17.28,14.04,9.56,74.87,9.36,151.07,35.2,223.77,18.22,51.27,43.41,98.54,70.52,145.25,12.3,21.2,25.15,42.57,27.56,68.13-.64-23.37-13.94-60.95,13.6-63.38,26.86-2.37,30.51,37.58,27.31,61.27-8.78,65.13-3.73,131.37-18.05,196.01-5.6,25.28-15.82,47.62-32.72,71.05,26.63,8.77,38.96-5.91,49.06-23.64,9.22-16.19,16.94-33.93,19-52.04,11.34-99.77,63.01-183.98,103-272.72,2.81-6.24,6.93-11.51,16.34-14.72,27.16,29.02,11.93,58.9-2.39,85.98-22.93,43.34-44.86,86.96-59.06,133.92-17.3,57.21-8.03,77.47,45.61,105.27,5.98,3.1,12.38,5.39,18.04,9.1,8.66,5.69,17.2,12.16,13.87,24.1-3.63,13.03-15.28,10.64-25.02,10.78-25.94.38-51.39-17.62-85.88,1.38,111.81,3.82,210.29-18.69,305.2-57.88,35.8-14.78,57.93-44.99,72.95-80.49,3.67-8.66,8.87-20.52,21.07-17.15,11.11,3.07,12.99,15.25,12.66,25.24-1.46,44.64-25.39,75.95-62.33,97.66-82.01,48.2-172.63,69.19-266.06,69.75-100,.6-201.22,14.84-304.49-19.71,15.61,24.89,35.26,23.54,52.67,23.19,166.65-3.37,333.64,10.93,499.96-9.51,11.71-1.44,23.52-2.11,35.03-4.83,45.28-10.68,87.82-23.12,102.26-77,16.72-62.36,30.83-123.17-28.38-171.71-25.62-21-36.4-48.74-39.33-79.33-14.54-151.77-102.55-246.82-233.26-312.63-48.63-24.49-103.03-43.44-134.43-93.82-.08-8.9,2.14-15.89,13.01-15.69Z" stroke-width="0"/><path d="M41.08,325.65c-3.08-3.99-6.16-7.99-9.24-11.98C48.09,246.23,13.49,183.29,14.29,117.13c.16-13.12-5.48-26.29-5.54-39.45-.14-30.39-1.3-66.77,33.78-76.2,32.54-8.74,48.77,22.85,64.05,46.73,19.38,30.3,108.79,44.22,139.82,22.18,22.88-16.25,43.98-55.13,75.19-30.62,28.97,22.76,8.78,59.29-.53,89.19-14.77,47.43-3.93,100.11-33.9,145.19-11.2,16.85,19.8,23.38,24.5,39.16-2.87,2.97-5.73,5.95-8.6,8.92-25.78-2.44-49.69-.68-75.87,7.46-43.49,13.52-92.09,15.53-131.44-11.71-25.59-17.72-38.78-11.62-54.67,7.66Z" stroke-width="0"/><path d="M41.08,325.65c4.48-14.23,8.95-28.46,14.87-47.27,40.7,35.76,88.23,50.58,142,45.7,15.34-1.39,33.3-.02,43.19-10.48,26.57-28.07,43.28-7.62,61.93,8.64,16.63,24.75,41.85,38.37,67.04,52.21,42.79,23.51,85.82,46.62,127.96,71.26,106.26,62.14,166.13,154.59,178.41,277.38,3.59,35.93,13.77,64.88,46.83,88.7,35.88,25.86,46.83,69.92,40.24,113.87-17.71,118.18-49.01,143.13-169.65,157.23-168.27,19.66-336.89,6.32-505.28,10.59-14.66.37-30.22-3.14-44.01-8.4-16.39-6.25-31.58-19.25-24.82-38.33,8.97-25.33,27.21-8.01,42.09-4.52,178.27,41.86,353.96,34.39,524.02-35.18,49.28-20.16,87.19-57.34,77.02-122.28-16,90.04-86.56,114.25-159.11,133.33-84.93,22.34-171.13,37.89-259.67,28.24q8.68-23.71,134.13-22.8c-25.45-20.55-56.22-20.21-76.5-41.52-20.2-21.22-31.86-41.17-24.27-70.82,13.4-52.4,31.07-102.84,60.28-148.81,17.13-26.96,32.56-54.67,21.7-89.15-6.52,48.46-37.6,85.26-59.07,126.26-33.49,63.93-37.51,135.83-59.27,202.87-13.32,41.03-40.56,49.91-77.98,45.22-8.89-1.11-17.33-4.92-18.8-13.77-.86-5.24,3.54-15.93,7.03-16.6,44.49-8.52,37.7-47.18,42.44-75.77,12.8-77.06,19.69-154.76-.16-232.51v81c-96.77-118.86-147.45-274.71-152.58-464.27Z" fill="#fdfdfd" stroke-width="0"/><path d="M300.36,51.71c3.11.62,8.3,2.11,12.52,6.26,16.2,15.93-1.51,51.92-17.74,114.78-16.21,62.78-7.87,62.98-19.23,79.99-25.21,37.73-80.82,58.52-131.03,48.36-58.92-11.93-95.62-63.49-105.44-101.13-1.67-6.41-4.58-26.91-10.39-67.91-3.59-25.3-4.42-33.46-4.39-44.45.06-21.44-.4-57.21,19.94-66.52,6.13-2.8,11.61-3.46,16.51-2.57,13.17,2.4,14.08,17.88,32.08,41.1,7.65,9.87,14.21,18.15,25.6,24.44,10.99,6.06,20.69,7.07,31.75,8.28,62.03,6.78,56.92,7.74,63.2,7.37,39.32-2.31,70.19-29.96,86.61-48Z" fill="#fcfcfc" stroke-width="0"/></g></svg>