<?xml version="1.0" encoding="UTF-8"?><svg id="b" xmlns="http://www.w3.org/2000/svg" viewBox="0 0 1180.44 687.78"><g id="c"><path d="M1092.28,143.98c8.39,9.46,20.69,15.08,33.22,16.08,5.97.77,16.09.81,17.65-6.56,1.63-6.28,2.39-12.78,2.21-19.28-.45-6.09-1.52-12.35-4.17-17.9-1.83-4.13-3.46-10.14-8.74-10.7-10.56-.94-21.54-1.43-31.71,2.2-8.21,2.87-15.97,8.71-15.37,18.3.63,6.39,2.77,12.88,6.91,17.87ZM1098.14,124.32c2.91-3.98,9.01-5.77,15.32-6.42-.55,3.4-.77,6.86-.6,10.3.38,6.69,2.7,13.54,7.69,18.19.02.02.05.05.07.07-4.33-1.01-8.49-2.66-12.23-5.18-3.31-2.3-6.62-4.82-8.4-8.55-.89-2.68-2.16-5.55-1.85-8.4Z" stroke-width="0"/><path d="M1074.19,169.54c12.45-.45,24.63,2.57,36.54,5.84,4.41,1.54,8.52,4.34,13.21,4.9,5.46.29,8.46-7.15,4.48-10.82-2.49-2.11-5.92-2.46-8.74-4.02-6.05-2.99-12.72-4.15-19.26-5.59-10.33-2.93-21.09-3.26-31.77-2.9-2.02.18-4.1-.06-6.03.68-3.19,1.32-4.71,5.14-3.37,8.31,2.66,5.96,9.87,3.13,14.93,3.6Z" stroke-width="0"/><path d="M1079.13,201.02c10.08-3.65,20.78-4.52,31.36-5.58,2.39-.09,4.8-.15,7.18.12,1.14.46,2.18.95,3.51.95,3.45,0,6.34-2.88,6.34-6.34-.04-5.5-6.14-7.27-10.66-7.38-15.05.04-30.48,1.87-44.61,7.29-3.03,1.22-5.85,2.92-8.92,4.05-3.34.86-5.54,4.48-4.55,7.83,3.74,9.89,14.02.93,20.36-.94Z" stroke-width="0"/><path d="M1147.43,535.94c-10.26-3.91-21.41-4.09-31.96-6.87-26.51-7.69-51.64-20.47-72.59-38.59-10.35-9.9-20.99-19.75-29.08-31.65-12.82-18.74-21.73-40.01-28.02-61.76-1.81-7-4.69-13.74-4.79-21.08-.34-4.59,1.06-11.61-2.84-14.27,4.73-9.25,9.23-18.61,13.6-27.99,12.97-27.34,37.44-45,65.13-55.55,14.84-6.46,31.54-6.84,46.45-13.45,18.55-10.53,38.23-21.45,51.96-38.12,1.99-2.44,4.58-5.57,7.33-9.15,1.42-1.37,2.62-2.81,3.28-4.38,10.86-14.97,21.74-35.07,8.33-45.92-2.13-2.26-5.31-3.84-6.63-6.72-.39-7.16.81-14.4-.42-21.55-6.06-27.08-22.54-51.23-45.99-66.21-7.42-5.46-15.65-9.41-24.32-12.17.11-1.39.13-2.8.4-4.11.74-7.26,2.05-14.49,2.04-21.8.84-13.27.77-43.5-20.31-32.04-10.72,7.26-19.9,16.9-27.25,27.53-3.5,4.5-6.9,9.14-9.43,14.26-6.03-10.89-8.4-23.73-16.36-33.43-10.87-11.88-27.53-1.02-33.65,10.47-8.52,13.69-8.74,30.44-12.43,45.75-1.67,8-3.09,17.52-7.44,24.99-30.13,23.33-56.46,52.25-92.42,66.87-22.41,10.56-45.95,18.72-70.03,24.5-43.55,7.42-87.89,7.14-131.87,9.8-21.06.84-42.89,1.36-64.05.92-37.35-3.23-74.25-10.91-111.65-13.29-30.37-.83-60.31,7-89,16.31-39.55,9.25-75.41,29.48-104.15,58.16-27.03,26.42-52.42,55.88-88.29,70.46-33.03,16.59-72.47,33.41-108.57,16.3-55.94-28.51-34.02-74.58-71.78-100.61-11.96-7.87-26.43.45-32.47,11.82-11.64,16.39-8.96,37.35-3.37,55.52,4.91,21.04,14.51,40.54,28.88,56.69,31.15,37.73,81.13,50.23,128.27,50.29.61,0,1.22.01,1.83.01,12.69,0,25.37-1.86,37.82-4.24,1.97-.54,4.04-.87,6.14-1.14-8.24,6.86-16.55,13.65-24.45,20.91-22.35,22.04-41.88,48.07-52.65,77.78-13.74,39.42-23.41,86.89-1.63,125.09,6.33,16.14,20.15,28.39,37.58,30.93,16.56,2.84,34.7-4.75,41.3-20.85,13.06-29.77,6.26-64.09,20.4-93.36,7.42-18.24,18.36-15.58,35.18-16.4,15.84-1.21,31.67-2.88,47.37-5.32,24.29-4.03,48.35-9.8,71.64-17.74.73,5.06,2.27,10.12,3.17,15.04,3.68,19.35,5.85,39.23,14.26,57.27,15.03,32.76,35.02,65.57,65.96,85.33,27.13,13.7,58.23,17.57,88.28,18.37,25.02,1.45,56.68-2.88,53.08-35.33-.11-15.92-13.41-24.29-27.46-27.51-6.45-2.19-13.03-2.98-19.68-2.92-.99-1.34-2.72-2.46-5.35-3.05-17.88-13.29-37.22-27.1-48.05-47.04-8.98-19.44-10.19-42.86-5.07-63.49.04-.07.08-.14.12-.21,21.2,2.33,42.54,3.52,63.77,3.84,43.51.08,86.95-4.24,129.8-11.62,11.62-1.66,23.34-2.57,35-3.87,1.69-.21,3.76-.36,5.82-.64-2.25,20.75-2.94,41.72-3.11,62.52,1.31,36.93-.67,79.17,19.02,111.78,9.16,12.08,32.96,8.93,46.95,12.08,36.62,2.79,79.44-13.16,53.11-55.91-4.71-6.55-12.05-10.66-19.55-13.25-.12-.02-.26-.05-.39-.07-.41-1.93-1.83-3.61-4.68-4.37-10.33-42.72,11.67-87.36,41.73-116.95,25.02,4.84,48.06,17.52,69.13,31.52,16.54,11.96,32.42,24.9,49.9,35.48,12.8,9.06,26.8,16.18,41.13,22.47,24.2,11.5,50.26,20.44,77.08,22.68,22.1,1.1,48.17,2.41,65.94-12.9,7.39-7.58,7.32-19.24,4.69-28.87-3.4-13.8-16.88-21.97-29.65-25.95ZM1063.63,35.33c5.92-8.47,13.52-16.04,21.98-21.94,2.88,14.49.3,29.38-1.16,43.98-10.46-1.99-21.26-2.54-31.8-2.15.2-.94.25-2.04.13-3.29,2.6-6.15,6.93-11.27,10.85-16.6ZM497.15,580.63c10.06,17.27,26.03,30.13,41.86,42.2-1.05.21-2.05.55-2.98,1.14-2.58,1.91-3.47,5.62-1.79,8.4,3,5.01,9.19,2.68,13.9,2.84,11.13-1.25,22.09-1.1,32.67,3.04,10.19,2.76,14.89,8.71,13.82,19.42-.25,20.52-29.44,17.02-43.75,17.03-18.28-.22-36.4-2.53-53.99-7.57-17.83-3.06-32.94-13-45.22-25.94-19.78-20.88-33.93-46-44.25-72.94-6.11-19.75-8.32-40.54-12.6-60.72.14-.19.27-.39.39-.59,10.12-3.85,20.07-8.15,29.81-12.91,1.92.59,4.05.71,5.95,1.35,19.12,4.89,38.6,8.52,58.25,11.12-6.51,23.52-3.38,53.62,7.95,74.13ZM812.4,589.5c.05,6.45.14,13.54,1.92,19.94-11.09-1.51-22.63-1.2-24,7.52.87,8.42,7.81,6.09,13.36,4.5,14.5,1.46,34.11,1.25,40.86,16.87,14.97,30.82-31.8,33.39-51.57,30.22-6.1-.71-12.25-.99-18.27-2.28-8.45-.68-12.89-1.71-16.05-10.2-15.76-39.45-12.77-85.04-12.49-126.92,2.46-26.49,3.4-53.14,11.01-78.83,11.48-32.25,28.2-62.82,48.76-90.22,7.72-9.29,15.31-18.79,23.91-27.3,2.35-1.43,3.56-4.43,2.77-7.17-5.98-12.35-16.66,3.37-21.76,8.98-5.93,6.93-11.98,13.79-17.48,21.07-12.94,18.1-25.21,36.66-33.81,57.28-5.76,11.95-12.39,23.68-15.31,36.74-2.8,10.86-4.91,21.87-6.5,32.96-6.66-.36-15.85,2.78-21.21,2.29-28.18,2.65-55.83,9.12-84.14,10.66-43.91,5.35-88.31,4.42-132.2-.71-.96-.42-2.04-.55-3.13-.37-10.53-1.28-21.03-2.8-31.48-4.53-8.07-.71-15.81-2.88-23.58-4.92,1.43-.81,2.85-1.62,4.27-2.45,41.13-24.69,72.03-64.17,93.83-106.36,3.08-6.07,7.61-18.72-3.31-18.55-7.41,1.81-5.98,11.91-10.03,17.22-5.35,9.81-11.58,19.15-17.56,28.6-28.47,45.16-72.04,74.31-120.67,92.57-1.45-.06-2.87.39-4.05,1.49-35.45,12.8-73.42,19.95-110.1,23.39-15.27,2.87-33.97-2.16-46.72,8.47-26.98,29.14-17.82,71.69-30.17,106.65-5.34,19.2-29.38,20.55-43.87,10.93-12.67-11-23.07-34.86-24.01-51.74-3.38-49.73,14.12-100.03,46.47-137.79,21.39-25.28,49.69-43.19,72.52-67.07,24.62-18.52,48.92-40.63,55.88-71.94,7.5-6.53-4.91-16.26-10.09-8.45-4.69,10.25-6.33,22.01-13.2,31.32-11.86,17.64-29.36,29.69-45.17,43.37-3.56,3.77-7.28,7.36-11.08,10.85-1.05-.53-2.27-.76-3.59-.5-2.25.41-4.1,1-6.61,1.57-27.65,5.3-55.73,9.14-83.79,4.24-28.07-3.23-55.28-12.69-76.36-32.03-15.09-13.95-27.76-30.79-33.88-50.59-4.66-16.93-13.07-36.57-4.47-53.43,3.11-5.46,6.51-13.01,13.53-13.69,26.45,9.14,23.13,48.28,38.68,68.24,34.71,51.88,90.82,50.5,142.06,25.56,23.23-10.67,46.69-22.3,65.95-39.52,38-37.48,75.64-80.49,129.93-92.93,89.15-31,112.24-15.73,200.42-6.26,59.88,2.25,120.15-2.25,179.95-6.69,48.97-5.63,97.36-23.78,137.84-51.92,14.98-10.95,28.92-23.32,43.21-35.18.87.28,1.81.39,2.75.28,8.61-2.29,15.85-19.59,18.35-27.69,2.56-10.26,4.26-20.74,6.49-31.09,1.8-11.76,5.64-33.62,19.88-35.43,5.3,3.99,6.38,11.44,9.13,17.16,3.34,8.92,8.19,17.09,13.16,25.18.89,2.39,2.96,4.61,5.41,6.16.06.12.11.24.17.36.22.47.39.95.53,1.44.74-.13,1.48-.24,2.22-.35,3.01,1.11,6.11,1.07,8.08-.89,38.6-2.53,79.2,18.79,94.25,55.22,16.01,31.17-5.46,35.41,19.61,55.98-2.08,9.74-6.09,18.55-11.45,26.55-.74.5-1.38,1.17-1.84,2-.62.5-1.1,1.14-1.6,1.75-5.45,3.94-7.33,8.07-14.87,9.43-16.04-.05-12.18-7.1-19.48-8.86-3.15-.61-6.46,1.43-7.27,4.56-1.22,4.25,2.42,7.66,5.38,10.14,4.36,3.94,9.89,5.81,15.6,6.5-10.37,8.36-21.84,15.49-32.94,21.68-13.62,6.23-28.88,6.97-42.9,12.08-11.45,4.25-22.12,10.22-33.02,15.66-24.53,14.35-39.94,38.97-51.04,64.41-8.93,19.19-19.66,37.44-31.24,55.13-9.94,17.3-27.61,27.11-41.14,41.09-12.01,13.5-26.74,24.17-37.36,38.94-9.77,11.78-21.85,21.68-29.01,35.46-13.08,22.6-21.91,47.79-21.28,74.17ZM1166.06,573.76c-.43,20.16-42.87,18.13-57.32,17.4-24.89-1.92-49.19-9.96-71.66-20.58-35.31-14.34-64.77-38.79-95.56-60.6-19.24-12.55-40.22-23.5-62.49-29.43-.17,0-.34,0-.51-.02,10.43-11.38,22.14-21.47,32.69-32.83,10.05-10.24,22.72-17.61,31.8-28.88,9.47-12.37,17.82-25.52,25.46-39.09,3.35,23.2,19.33,60.2,23.51,67.68,22.05,41.16,60.6,73.01,104.44,88.6,17.66,8.17,37.85,6.96,55.4,15.2,8.85,4.13,14.74,12.62,14.24,22.54Z" stroke-width="0"/></g></svg>