<?xml version="1.0" encoding="UTF-8"?><svg id="b" xmlns="http://www.w3.org/2000/svg" viewBox="0 0 886.66 1030.94"><g id="c"><path d="M849.32,409.62c9.72,1.06,19.35,2.93,28.19,7.31,8.06,3.29,13.07-8.78,5.17-12.24-7.57-3.52-15.57-6-23.84-7.23-.81-.13-1.62-.26-2.44-.38,3.35-6.32,6.5-12.76,9.57-19.22,6-12.6,9.41-27.6,5.79-41.35-1.97-6.77-5.63-12.84-8.52-19.23-2.1-3.64-5.41-12.96-9.6-19.5,4.1-7.29,6.85-18.05,9.01-22.22,7.71-21.11,13.99-42.77,18.19-64.86,2.17-12.44,4.18-24.86,3.7-37.54,1.45-12.43-10.51-10.97-18.62-7.96-14.49,3.54-29.03,6.99-42.51,13.57-19.59,11.68-38.17,27.24-54.91,42.9-18.07-8.18-38.02-9.72-57.63-10.05-19.11.17-38.44-2.57-57.09,2.88-10.81-14.27-26.42-23.81-39.46-35.88-19.19-16.4-41.21-32.76-67.31-34.23-14.18-1.45-7.67,34.81-6.65,43.47,3.18,26.72,7.49,53.47,15.05,79.33,1.66,4.14,4.23,13.22,8.11,19.44-2.02,5.1-3.6,9.73-6.09,15.22-9.57,16.31-18.68,36.6-10.28,55.22,1.97,6.88,3.94,13.79,6.03,20.68-12.85,5.47-26.3,9.71-40.04,12.64-13.72,2.38-27.71,2.45-41.48,4.23-10.21,2.26-20.46,4.23-30.91,5.06-10.46,1.51-20.61,4.75-31.21,5.35-16.98.58-33.97.64-50.96.65-18.89.07-37.74-1.44-56.64-.78-18.87.53-37.74.39-56.15-4.25-22.36-3.09-45.28-5.13-65.53-15.97-7.21-3.41-13.13-8.64-18.93-14-11.95-9.27-22.61-20.25-30.17-33.43-20.32-29.93-32.39-65.23-35.5-101.22-2.86-32.36-7.21-65.48-2.26-97.79,4.69-21.29,21.14-38.1,38.64-50.05,9.06-7.14,18.46-13.93,30.55-13.67,8.27-1.13,16.05,2,20.85,8.84,9.94,9.8,15.56,23.3,26.64,32.1,14.8,10.25,37.78,4.03,43.78-13.43,5.16-14.02,7.92-30.87,1.11-44.78-3.58-9.16-10.65-15.97-17.33-22.91-11.72-13.21-27.38-22.47-43.87-28.45C170.76-2.41,145.94-.47,122.04,2.86,71.37,11.66,41.23,37.77,19.79,83.65c-45.9,97.31-.16,234.94,19.12,335.88,2.73,20.25,4.26,41.07.72,61.3-5.22,33.46-15.95,66.76-11.61,101.01,1.58,31.22,18.15,58.92,20.73,89.88.29,13.08,1.25,26.36-.79,39.33-7.12,30.96-27.61,57.25-34.56,88.33-6.9,48.42-.04,97.63,12.63,144.53,5.51,18.47,10.44,37.13,17.69,55.01,3.59,11.32,8.49,17.89,20.59,20.42,7.97,1.13,15.99-.89,23.99-.13,10.68,1.06,21.28,2.84,31.97,3.85,13.46-.1,30.8,2.42,39.85-9.72,13.39-17.73,2.82-47.39-12.99-60.53-5.55-4.9-12.36-8.59-19.68-10.91-.26-.77-.69-1.52-1.32-2.21-1.53-26.41-2.57-54.34,9.35-78.72,14.96-26.49,40.02-45.16,66.21-60.28,1.51,12.58,5.16,24.87,8.34,37.11,1.1,7.24,3.05,14.27,5.72,21.09,4.48,12.92,7.36,26.4,13.08,38.88,5.9,12.93,12.58,25.48,19,38.15,8.01,13.49,14.44,27.82,23.65,40.61,4.8,7.77,9.58,15.49,16.54,21.53,6.18,8.28,9.57,9.55,19.92,9.04,11.95.24,23.89-.08,35.84-.17,8.76-.28,17.82.13,26.16-3,23.98-9.04,20.95-39.23,3.78-53.65-5.49-5.02-12.87-9.51-21-12.79-.44-1.7-1.55-3.15-3.02-4.05-4.62-9.01-8.94-18.18-13.24-27.35-8.52-15.72-14.92-33.03-17.41-50.7,2.85-24.33,16.25-45.97,27.91-67,2.06-2.73,4.44-5.21,6.74-7.74,25.82.64,51.49-2.96,77.09-5.76,24.1-1.22,47.97-4.89,71.8-8.48.02.2.03.4.04.6,2.04,13.77,2.2,27.75,3.96,41.56,3.08,17.18,6.92,34.21,10.44,51.31-12.91,26.75-20.56,56.5-26.4,85.58-2.42,21.67-.66,44.24,8.06,64.41,4.1,9.92,15.44,10.93,24.59,13.05,13.49,4.34,27.66,3.79,41.63,4.74.67.56,1.36,1.11,2.07,1.64,5.65,3.3,12.33.7,18.42.5,25.34-.08,50.59.05,75.69-3.9,22.32-4.76,28.59-40.18,16.53-56.76-9.31-11.75-25-19.41-41.28-22.49-.4-.57-.92-1.1-1.58-1.57-1.94-12.26-6.58-24.06-7.13-36.56-1.35-19.97-1.77-39.97-.54-59.88,3.6,1.16,8.22-.43,8.86-5.05,3.93-6.99,10.17-12.2,15.12-18.43,42.28-45.72,66.63-104.24,84.54-163.17,13.38-48.59,27.37-98.03,26.34-148.87.14-3.95-.2-7.9-1.05-11.75,15.47-8.12,29.34-19.01,42.09-30.93.96.41,1.92.82,2.86,1.26,11.82,5.55,22.47,13.03,32.6,21.14,3.08,1.82,7.26.75,9.09-2.38,3.01-5.18-1.64-8.79-5.44-11.55-8.96-7.45-19.01-13.43-29.42-18.62,3.09-3.65,6.06-7.41,8.93-11.24,1.35.44,2.7.87,4.04,1.31,8.18,2.03,15.81,5.4,23.43,8.93,8.68,2.85,16.82,6.81,24.77,11.28,8.02,3.21,13.06-8.48,5.3-12.18-11.53-6.99-24.42-10.8-36.54-16.56-4.23-1.36-8.48-2.76-12.74-4.15,2.31-3.26,4.61-6.53,6.92-9.78,4.59-5.81,8.72-11.93,12.53-18.25ZM557.3,390.76c.26.77.52,1.55.78,2.32-1.79.35-3.57.74-5.34,1.23-4.14.66-8.23,1.5-12.3,2.44.64-.23,1.28-.44,1.91-.68,2.61-1.32,9.47-3.15,14.94-5.31ZM306.22,850.53c-1.42,6.66.44,13.09,2.29,19.46,3.25,13.7,7.81,27.03,14.76,39.31,4,7.41,7.03,15.63,10.89,23.24-10.68-1.38-21.24-.12-29.52,5.14-8.12,6.33-.5,18.2,13.13,8.36,8.55-2.19,18.07.34,26.5,2.43,6.8,2.84,13.94,5.5,19.41,10.61,8.23,6.9,15.66,21.32,5.84,29.92-7.78,5.91-18.5,4.08-27.69,4.64-13.33.22-26.67.42-40.01.09-19.59-19.54-31.49-45.19-44.95-69.09-9.81-19.57-20.35-38.91-25.44-60.39-4.38-12.22-7.75-24.59-10.41-37.29-2.41-7.57-4.32-15.26-5.32-23.16-.54-3.37-1.13-6.73-1.37-10.12,1.3-.69,2.6-1.38,3.89-2.06,8.49-4.08,15.92-9.74,22.65-16.2,2.61,2.14,6.62,2.82,10.8-.14,18.53.48,37.02,3.15,55.61,3.35,10.19-.87,20.07-.07,30.09.82-5.57,7.77-9.99,16.36-14.41,24.9-7.12,14.71-14.56,29.84-16.76,46.2ZM504.72,984.56c-5.87-34.56,4.81-68.43,16.89-100.81.51,2.98,1.01,5.96,1.46,8.95,5.15,24.2,10.39,48.37,16.43,72.37,4.42,15.71,6.39,34.1,14.29,48.69-6.94-.25-13.89-.36-20.67-2.04-24.34-6.05-22.08-1.54-28.41-27.15ZM748.62,523.45c-.35,32.27-7.15,64.1-15.2,95.22-11.28,47.99-27.59,94.72-50.11,138.61-10.11,18.76-22.04,36.33-36.59,52.05-4.33,6.83-12.38,13.66-17.97,20.96.73-6.22,1.64-12.43,2.77-18.62,6.26-41.41,17.47-82.27,34.32-120.59,2.99-6.7,5.69-13.56,9.59-19.79,4.45-7.43-7.17-14.05-11.47-6.7-18.05,33.57-29.69,70.5-38.52,107.51-7.9,37.11-14.09,75-12.04,113.06.16,18.32,1.28,36.6,6.84,54.17.36,1.78.61,3.77.94,5.77-6.61-.07-13.02.65-18.82,2.21-7.58,2.66-3.61,15.04,4.22,12.57,11.95-2.88,25.21-1.67,36.77,2.44,10.2,3.92,22.05,8.53,26.26,19.53.95,9.97,1.15,22.25-7.23,29.23-28.4,8.71-59.47,2.77-88.77,6.59-14.22-12.55-14.9-33.66-20.1-50.85-6.54-28.43-14.1-56.71-18.68-85.53-1.13-5.69-2.28-11.37-3.43-17.05,1.51-3.03.38-7.09-1.97-9.64-3.08-15.06-6.2-30.11-9.2-45.19-2.29-14.77-2.22-29.79-4.44-44.55-.09-1.13-.15-2.26-.22-3.38,1.58-2.72,1.35-6.1-.41-8.2-1.08-31.87,3.25-63.55,6.61-95.2.17-6.37,2.91-12.96,1.87-19.14-4.78-9.46-14.32-3.66-13.51,5.56-4.2,36.07-9.36,72.28-8.22,108.64-24.5,3.52-49.09,7.48-73.85,8.66-24.69,2.71-49.51,6.33-74.41,5.57-1.47-.67-3.15-.84-4.77-.2-.16,0-.32-.01-.48-.02-16.46-2.33-32.91-1.94-49.47-2.04-7.99-.79-15.99-1.09-24.01-1.38-6.95-.76-14.35-1.9-21.61-1.82,2.37-2.87,4.67-5.78,6.91-8.7,24.5-25.06,40.23-58.83,41.78-94.01.78-14.06,4.06-28.05,2.74-42.16-1.32-6.22-3.84-18.12-12.52-15.05-7.12,3.2-2.57,10.44-.83,15.62,1.46,12.68-1.76,25.28-2.37,37.92-.95,13.44-2.68,26.85-7.51,39.51-9.09,26.78-29.25,47.27-47.03,68.46-6.56,5.12-12.39,11.35-19.87,15.15-10.26,4.55-19.73,10.55-29.17,16.57-23.35,13.89-45.35,32.55-59.66,55.88-12.19,21.25-14.26,46.11-13.6,70.11.54,5.19-.43,12.01.28,17.98-10.82-.56-21.68,1.88-30.48,7.87-2.59,2.53-2.53,6.86,0,9.39,5.11,4.94,10.87-1.34,16.21-2.6,19.04-4.99,40.77,3.47,50.09,21.14,4.22,9.61,8.23,25.26-1.17,32.93-13.29,3.45-27.42,2.14-40.86.03-6.7-.56-13.32-1.96-20.05-2.11-8.8-.7-18.44,3.13-26.15-2.57-9.49-20.46-15.01-42.38-21.5-63.9-8.03-31.78-14.81-64.36-14.43-97.28.04-14.09.27-28.3,2.72-42.21,6.99-23.47,19.02-44.95,28.79-67.58,8.98-22.86,7.9-48.35,5.03-72.34-2.62-20.04-11.89-38.26-16.21-57.85-8.22-35.95-1.75-72.4,6.59-107.67,5.73-29.84,5.15-61-1.69-90.61-11.06-50.9-23.78-101.65-30.58-153.34-6.06-39.93-7.99-80.93-.39-120.79,3.51-18.74,10.49-36.47,20.09-52.91,10.91-20.4,26.29-38.4,47.48-48.44,21.6-10.64,44.83-14.76,68.94-15.01,20.83-.92,40.79,5.55,58.18,16.78,12.98,10.61,27.5,22.43,32.25,39.15,1.49,15-1.97,42.27-22.95,37.3-7.68-2.02-10.95-9.79-16.12-15.38-5.08-9.1-12.41-16.72-19.92-23.87-15.82-11.09-40.91-6.87-55.21,5.19-15.62,10.61-30.77,22.64-40.7,38.99-19.09,29.93-11.15,67.6-10.33,101.13,1.96,19.7,3.35,39.62,7.73,58.96,9.13,33.37,23.86,65.76,46.41,92.23,32.12,33.53,55.64,44.03,101.66,48.81,9.97.97,19.59,4.01,29.55,4.98,18.15,1.28,36.37.32,54.54.4,29.38,1.09,58.79,1.23,88.19.35,12.92-.17,25.19-4.68,37.96-5.94,12.02-.63,23.49-4.73,35.47-5.57,15.53-.79,31.09-2.4,46.14-6.23-1.97,1.52-3.12,3.76-2.31,6.77,2.09,6.95,9.26,4.47,14.39,3.2,7.44-2.08,15.13-2.97,22.62-4.83.1-.01.19-.03.29-.04,2.23,5.7,4.65,11.31,7.35,16.8-3.6.97-7.18,2.07-10.71,3.33-7.28,2.13-14.21,5.12-21.03,8.43-5.25,1.92-6.35,9.41-1.36,12.27,2.26,1.33,5.02,1.14,7.13-.33,4.34-1.99,8.64-4.09,13.13-5.73,6.38-2.23,12.82-4.25,19.35-5.92,1.71,2.87,3.51,5.7,5.42,8.46,1.41,2.02,2.87,4.01,4.35,5.98-7.31,3.33-14.37,7.17-21.01,11.75-3.66,2.48-7.22,5.09-10.87,7.58-5.03,3.16-14.47,7.46-9.39,14.64,2.44,3.18,7.3,3.4,10.12.59,6.62-3.95,12.8-8.57,19.16-12.91,6.49-4.35,13.46-7.88,20.63-10.93,13.54,15.59,29.61,29.17,47.47,39.32,18.35,12.66,40.21,18.73,62.39,19.17,15.96.95,29.82-4.48,43.61-10.92.6,5.34.06,10.78.17,16.15ZM763.88,424.19c-6.91-.98-10.18,9.03-4.08,12.35,1.73,1.01,3.51.91,5.39.9,4.45-.11,7.5.1,12.34.83,10.37,1.13,20.59,3.61,30.68,6.57-2.67,3.46-5.5,6.79-8.48,9.97-12.5-4.36-25.66-6.85-38.35-10.5-5.51-1.86-10.87,4.89-7.71,9.8,1.21,1.93,3.27,3.26,5.58,3.3,5.3,1.84,10.72,3.19,16.25,4.12,4.49,1.17,9,2.4,13.45,3.78-7.9,7.02-16.44,13.35-25.25,19.16-8.68,5.82-18.71,9.16-27.89,14.08-10.87,5.39-23.28,7.01-35.29,6.24-17.79-1.16-35.14-6.15-49.93-16.3-14.83-8.28-28.35-18.76-39.74-31.39-.8-.84-1.6-1.68-2.39-2.53.29-.1.58-.2.87-.31,10.03-3.41,20.22-6.95,30.73-8.4,8.37-.07,8.79-12.54.53-13.26-5.59-.11-11.02,1.95-16.46,3.08-8.43,2.44-16.9,5.07-25.17,8.15-3.12-3.84-6.01-7.85-8.51-12.17.15-.02.31-.06.46-.08,11.26-2.57,22.68-4.84,34.3-3.97,5.7,1.03,13.83,2.27,14.28-5.79-.23-7.89-9.8-6.92-15.47-7.56-11.92-.61-23.68,1.48-35.23,4.21-1.83.31-3.64.65-5.46,1-2.53-4.77-4.77-9.66-6.81-14.65,7.1,0,14.23.48,21.29.54,12.14.7,23.8,3.76,35.45,6.88,6.71.18,9.08-9.45,3.19-12.44-6.16-2.87-13.26-3.58-19.8-5.34-12.08-2.35-24.39-2.83-36.67-2.72-2.8-.16-5.59-.19-8.37-.11-5.11-14.94-9.1-30.35-14.02-45.23-3-20.13,12.69-36.06,18.27-54.51.07-.04.15-.07.22-.12,4.57-3.64,2.27-8.88-1.2-12.32-1.66-2.65-2.85-5.55-3.97-8.47-4.69-11.47-6.93-23.73-9.81-35.73-3.25-18.17-6.23-36.38-8.34-54.72-1.14-7.4-1.97-14.89-.96-22.37,33.15,6.32,55.66,34.12,81.47,53.54,2.63,2.34,5.02,4.87,7.36,7.49,3.3,3.85,6.08,10.14,12.18,8.98,12.09-3.02,24.25-4.61,36.72-3.75,12.38.62,24.8.19,37.17,1.17,8.33.75,16.87,1.3,24.85,3.96,6.82,1.65,13.34,6.82,20.55,5.26,4.62-1.44,7.4-5.78,10.99-8.76,3.41-2.79,6.64-5.78,9.87-8.77,10.38-8.17,20.85-16.26,31.6-23.94,14.21-8.63,30.85-11.6,46.7-15.87-.9,31.31-10.17,61.92-20.26,91.35-2.52,6.55-4.86,13.17-7.6,19.62-.77,1.28-1.73,2.68-2.59,4.14-1.54,1.43-2.43,3.54-2.16,5.66-.16,1.9.47,3.75,2.52,5.39.16.11.32.2.48.3,5.31,9.29,9.68,19.1,14.37,28.76,11.08,20.67-3.55,42.47-12.86,60.83-.29.58-.59,1.15-.89,1.72-9.59-.97-19.24-1.35-28.9-.78-15.34,2.24-30.91,3.81-45.65,8.85-5.95,1.38-13.03,5.53-8.47,12.33,3.05,4.24,8.12,2.14,11.97.48,4.64-1.46,9.31-2.93,14.06-3.98,10.09-1.54,20.16-3.3,30.28-4.56,6.39,0,12.85-.09,19.26.26-5.74,8.77-12.18,17.09-18.4,25.53-17.13-5.19-34.57-9.32-52.52-9.2Z" stroke-width="0"/><path d="M733.6,451.31c-8.03.74-16.66-1.38-23.38-5.83-3.33-3.95-2.23-9.66-2.2-14.74,6.7-1.45,13.15-5.29,18.1-9.52,10.18-12.57-12.02-23.08-22.48-23.21-8.43-.71-18.13-1.76-25.55,3.06-4.72,2.82-6.88,9.9-3.09,14.26,4.45,7.02,12.09,10.3,19.38,13.73-.33,5.04-.26,10.3-4.95,13.34-4.44,2.76-10.11,4.3-15.35,4.18-2.3-.23-4.63-.5-6.87-1.09-1.16-.99-2.66-1.6-4.28-1.6-4.05-.18-7.55,3.57-6.92,7.6,3.43,13.25,34.98,8.56,42.46.58,6.72,8.6,17.98,11.24,28.53,12.56,20.06,2.97,17.81-15.04,6.61-13.33ZM712.8,414.58c-3.27,1.54-6.59,3.23-10.24,3.6-4.5-2.07-9.47-4.31-13.71-7.04,7.75-.84,16.81-1.02,23.96,3.45Z" stroke-width="0"/><path d="M677.7,369.61c.74-1.75,2.36-3.05,2.84-4.89,1.85-5.39,1.34-11.48.19-16.98-1.14-5.66-4.46-10.46-7.85-15-3.83-5.26-7.27-11.12-12.93-14.63-9.4-6.92-21.72-8.64-32.87-5.56-13.71,4.87-26.66,17.47-24.49,33.09.81,9.24,4.09,18.39,9.18,26.12,7.65,8.66,19.27,12.74,30.59,13.28,10.69.52,22.86-1.27,30.92-8.87,2.03-1.79,3.4-4.08,4.41-6.55ZM663.49,367.16c-4.72,3.79-10.99,4.05-16.75,4.82-10.21-.21-23.66-2.68-27.11-13.76-3.07-6.59-5.56-14.83-2.61-21.85,5.82-9.71,18.57-14.68,29.32-10.66,8.25,2.81,12.75,10.35,17.45,17.13,5.97,6.92,6.1,17.71-.31,24.32Z" stroke-width="0"/><path d="M644.3,331.66c-2.43-.35-4.87-.06-7.09.83-2.47-.23-4.99.67-6.76,2.42-7.38,8.2-3.47,24.09,7.7,26.62,19.44,4.12,25.81-26.27,6.16-29.88Z" stroke-width="0"/><path d="M796.92,374.59c6.32-7.12,8.43-17.16,9.04-26.43.65-14.32-.42-29.04-16.27-34.05-12.51-10.65-35.7,1.55-46.37,10.52-9.31,10.2-18.13,24.47-13.37,38.67,6.04,15.17,22.88,23.57,38.57,24.15,11.11,1.4,20.88-5.37,28.4-12.86ZM742.01,357.06c-.67-9.23,5.46-17.29,11.42-23.72,6.72-4.37,14-8.79,22.06-9.98,4.51,3.91,11.72,1.46,15.74,7.36,2.65,11.11,2.44,23.57-3.08,33.79-4.09,4.15-9.01,8.69-14.92,9.7-12.04.59-27.47-4.52-31.22-17.15Z" stroke-width="0"/><path d="M775.9,335.88c-15.83-9.71-29.05,20.59-10.66,25.26,17.96,3.89,22.89-14.66,10.66-25.26Z" stroke-width="0"/><path d="M615.48,251.99c5.54-7.55,21.79-16.69,12.24-26.91-12.48-13.71-25.8-26.81-42.09-35.91-6.12-3.93-12.65-10.96-20.58-8.2-6.86,2.82-4.02,11.12-3.82,16.81.68,12.3,5.74,23.63,7.94,35.63,1.5,7.54,2.54,15.2,4.89,22.55,2.42,6.58,3.63,21.37,11.36,23.3,7.19,4.36,10.41-4.22,14.57-8.44,2.76-3.89,6.38-6.98,9.37-10.67,2.11-2.68,3.93-5.56,6.14-8.16ZM597.78,253.29c-2.84,2.95-5.71,5.86-8.14,9.18-.69-2.3-1.31-4.61-1.93-6.93-3.54-11.2-4.88-22.9-7.64-34.29-2.36-7.76-4.9-15.51-5.55-23.66,4.49,3.36,9.35,6.15,14.14,9.04,9.87,7.5,19.07,16.19,27.38,25.46-6.64,6.6-12.8,13.6-18.26,21.22Z" stroke-width="0"/><path d="M804.18,265.22c3.47,4.53,8.29,7.69,12.51,11.46,3.96,3.78,6.49,9.97,12.36,11.16,6.92,1.1,8.23-6.77,9.8-11.72,1.24-5.41,3.23-10.55,4.76-15.88,3.85-9.81,5.78-20.22,8.57-30.34,2.59-11.74,4.97-24.06,3.52-36.07-1.69-5.96-7.87-6.25-12.43-3.38-6.86,1.71-12.29,6.23-18.09,10.01-13.36,7.57-25.05,17.74-36.5,27.9-11.98,9.31-.32,15.14,5.4,23.42,3.63,4.29,6.98,8.77,10.11,13.43ZM823.89,216.71c6.47-3.57,12.46-7.94,18.71-11.84-1.3,21.64-9.02,42.9-15.47,63.42-.79-.79-1.62-1.52-2.47-2.26-3.58-3.32-7.97-5.88-10.72-9.99-4.37-6.82-9.79-12.88-14.92-19.14,7.89-7.21,16.42-13.67,24.87-20.19Z" stroke-width="0"/><path d="M753.76,447.34s-.03.07-.04.1c.18-.31.38-.61.61-.89-.23.23-.38.53-.57.8h0Z" stroke-width="0"/></g></svg>