<?xml version="1.0" encoding="UTF-8"?><svg id="b" xmlns="http://www.w3.org/2000/svg" viewBox="0 0 685.87 1245.06"><g id="c"><path d="M87.74,606.16c-10.98-2.73-22.03-5.23-32.91-8.34-3.01-.86-5.5-3.53-8.23-5.37,3.38-1.35,6.96-4.2,10.1-3.78,9.18,1.24,18.18,3.8,28.51,6.12-.97-9.35-2.02-16.96-2.5-24.61-2-31.8,3.68-62.57,12.03-93.11,4.57-16.69.82-21.93-14.77-27.85-20.97-7.96-35.61-23.61-48.75-41.08C11.73,382.2,1.94,352.52.2,320.7c-2.5-45.68,18.51-81.88,49.81-113.12,2.37-2.37,4.98-4.5,7.94-7.16-19.63-23.71-13.92-48.18-2.46-72.9,5.67-12.23,11.15-24.56,16.2-37.06,1.74-4.31,2.61-9.24,2.65-13.9.06-8.84-.41-18.49-9.31-23.12-8.77-4.56-14.15,3.74-20.16,8.14-5.68,4.16-10.65,9.3-16.46,13.24-7.63,5.18-14.09,2.52-19.09-4.57-8.68-12.32-7.6-24.73.02-37C27.4,4.17,76.25-18.67,110.33,22.01c15.76,18.82,20,41.33,11.44,64.82-7.03,19.29-15.12,38.22-23.34,57.05-4.02,9.21-3.31,17.5.85,26.28,2.47,5.2,5.19,6.47,11,5.09,54.52-12.98,107.41-11.04,156.36,19.66,30.9,19.38,48.65,48.99,60.43,82.43,16.14,45.83,9.61,92.11,1.44,138.34-2.49,14.09-3.16,26.86,3.78,41.55,18.16,38.43,25.38,79.65,19.82,122.43-.25,1.96-.03,3.98-.03,7.38,9.4-1.24,18.22-2.82,27.1-3.34,3.28-.19,6.71,2.13,10.07,3.3-2.7,1.72-5.19,4.28-8.13,5.02-10.49,2.65-21.13,4.68-31.72,6.95.1,1.07.2,2.13.29,3.2,4.32,0,8.65.11,12.97-.02,7.75-.24,15.51-.97,23.24-.71,1.81.06,3.52,3.28,5.27,5.04-2.05,1.25-4.01,3.42-6.15,3.6-11.36.95-22.77,1.41-35.25,2.1,8.3,13.85,16.17,25.8,22.87,38.38,17.38,32.66,28.84,67.1,27.43,104.65-.61,16.36-5.25,30.97-16.19,44.59-7.37,9.17-11.57,22.55-12.93,34.53-2.66,23.42-4.31,47.26,4.95,70.16,12.89,31.91,36.24,51.1,69.67,58.35,1.3.28,2.71.21,4.06.1,1.29-.1,2.56-.46,2.73-.49,2.52-10.14,3.58-20.06,7.47-28.71,6.02-13.38,18.17-17.22,29.06-11.06,10.09,5.71,14.62,21.76,6.88,31.82-5.13,6.66-13.3,12.63-21.27,14.99-8.37,2.48-8.55,6.04-6.54,12.17,5.03,15.32,23.42,30.06,39.73,30.27,15.85.2,31.79-.63,47.58-2.19,45.12-4.44,87.89,6.9,109.63,49.75,20.96,41.32,29.65,85.48,9.84,129.88-15.17,34-43.11,52.81-80.71,55.38-40.97,2.81-72.39-13.94-92.87-49.26-31.31-53.98-3.42-121.81,53.4-140.79,43.62-14.57,79.28-1.08,111.25,33.06-5.6-21.84-15.74-38.16-31.87-50.53-25.2-19.33-54.15-20.67-84.12-16.84-22.56,2.88-44.96,5.02-66.24-6.81-13.64-7.58-21.09-19.27-26.49-33.2-1.22-3.15-4.68-7.55-7.32-7.71-54.13-3.22-95.1-56.85-90.36-115.94,1.42-17.69,4.84-35.22,7.5-53.84,1.12.66.31-.2-.58-.28-16.56-1.59-22.98-12.59-24.73-27.29-2.79-23.38-8.65-45.76-20.48-66.28-3.17-5.51-6.61-10.97-10.68-15.83-13.48-16.1-14-15.21-33.43-7.24-25.62,10.51-52.35,15.87-80.28,10.57-2.88-.55-5.86-.5-10.71-.87,1.8,9.29,3.42,17.38,4.92,25.49,2,10.81,2.09,21.53-8.39,28.16-9.86,6.24-23.11,3.19-33.19-6.81-16.09-15.97-24.36-36.22-29.93-57.6-2.8-10.74-2.24-22.59-6.28-32.71-4.64-11.63-12.53-21.99-19.44-32.63-.85-1.31-4.38-1.07-6.68-1.21-10.48-.66-20.98-.99-31.43-1.95-2.43-.22-4.68-2.42-7.02-3.7,2.23-1.64,4.35-4.47,6.71-4.69,6.02-.56,12.16-.03,18.24.22,4.59.19,9.18.64,13.77.98.14-1.02.29-2.05.43-3.07ZM103.66,453.19c9.69-11.6,17.35-11.97,26.86-.11,7.12,8.89,12.52,19.14,19.32,28.31,1.96,2.64,6.43,5.55,9.19,5.07,8.55-1.47,16.71-5.16,25.24-6.82,28.16-5.49,56.43-7.28,84.4.99,7.49,2.21,11.36.28,15.31-6.39,6.64-11.24,12.98-23.59,22.56-31.86,6.97-6.02,9.73-11.71,10.89-19.69,2.14-14.69,4.3-29.39,6.57-44.06,4.07-26.28,4.98-52.56-.9-78.66-8.05-35.72-23.77-67.26-52.89-90.6-23.09-18.51-50.23-27.05-79.31-30.42-45.09-5.22-88.24.28-124.99,28.59-33.43,25.75-54.48,59.96-55.86,103.4-1.24,38.79,12.62,72.81,37.36,102.23,9.09,10.81,19.5,20.77,35.19,26.02-6.1-9.11-11.46-16.46-15.99-24.28-1.36-2.36-.43-6.04-.55-9.12,2.96,1.36,7.08,1.91,8.7,4.22,9.84,14.01,19.12,28.41,28.91,43.17ZM116.73,454.16c-1.63,2.16-2.58,3.09-3.14,4.21-14.64,29.28-19.95,60.66-21.02,93.02-.73,22.22,1.6,43.88,11.34,64.19,23.48,48.98,79.19,84.58,142.74,70.02,47.73-10.94,77.73-40.33,91.47-84.85,15.48-50.16,3.73-98.89-17.15-145.68-3.27-7.33-8.04-8.21-12.56-1.44-6.89,10.34-13.49,20.92-19.52,31.78-3.8,6.84-7.56,10.79-15.74,6.35-3.48-1.88-7.59-2.97-11.54-3.56-32.17-4.78-63.97-3.66-95.37,5.73-18.16,5.43-18.19,4.96-28.12-11.94-3.92-6.68-8.15-13.21-12.69-19.48-2.2-3.04-5.46-5.32-8.7-8.37ZM304.27,672.37c5.15,5.68,11.83,11.89,17.14,19.11,18.27,24.81,26.51,53.43,30.08,83.59.95,7.99,3.57,15.09,11.84,16.88,8.83,1.91,15.73-2.6,20-10.45,8.17-15,7-31.23,5.99-47.46-1.89-30.35-14.04-57.33-27.77-83.68-5.28-10.12-12.09-19.44-17.99-28.78-13.91,17.98-26.56,34.33-39.28,50.78ZM92.9,179.79c-8.53-14.89-8.44-30.06-1.44-45.46,6.82-15.01,13.77-30.01,19.55-45.44,7.79-20.78,6.83-41.41-7.07-59.47C81.02-.34,41.11,6.24,21.37,34.02c-4.61,6.49-6.67,16.17-6.5,24.31.19,8.97,6.68,10.54,14.01,4.6,7.05-5.73,13.58-12.15,20.89-17.5,9.67-7.08,20.53-4.75,27.12,5.09,10.67,15.92,9.3,32.77,2.59,49.34-5.4,13.35-12.74,25.91-18.49,39.14-9.58,22-11.47,39.21,6.21,54.86,7.97-4.36,15.88-8.7,25.69-14.06ZM551.47,1092.31c31.48,4.74,51.84,23.38,65.71,49.47,13.78,25.93,19.45,53.57,12.62,83.03,17.27-26.94,20.15-55.65,7.07-84.22-15.97-34.86-43.81-55.07-83.08-59.17-.77,3.62-1.39,6.52-2.32,10.87ZM125.6,663.32c.53,18.4,7.12,33.92,14.29,48.91,5.45,11.4,11.94,22.75,24.05,29.01,9.23,4.76,17.32.52,17.86-9.78.22-4.31-.98-8.69-1.44-13.04-1.56-14.99-4.63-27.93-21.7-34.3-11.53-4.3-21.34-13.21-33.06-20.8ZM650.11,1206.87c21.46-16.92,14.41-70.45-11.49-104.94-18.55-24.7-64.01-42.54-80.41-30.31,32.73,4.68,58.26,20.25,76.76,46,19.08,26.56,24.59,56.29,15.14,89.26ZM611.48,1154.31c-1.66-9.54-6.59-12.4-15.29-11.21-34.3,4.69-56.92,25.15-73.69,53.71-4.01,6.83-2.14,12.03,5.24,15.68,16.7-35.06,46.72-51.3,83.74-58.17ZM619.15,1178.72c-.44-12.65-2.23-14.77-12.99-13.18-6.93,1.02-13.85,3.19-20.33,5.91-19.72,8.28-36.47,20.2-46.24,40.11-3.45,7.03-1.98,11.55,6.02,13.71,18.67-24.39,41.65-42.05,73.55-46.55ZM598.54,1133.01c-3.74-10.73-11.22-12.99-20.33-9.98-27.7,9.18-50.92,24.55-66.39,50.03-5.43,8.94-5.26,12.39.54,20.68,20.04-32.22,45.4-56.87,86.18-60.73ZM673.57,1163.29c10.75-64.43-44.12-106.02-82.1-103.01,44.27,12.13,66.59,40.13,82.1,103.01ZM620.91,1190.39c-22.04-2-59.78,22.21-64.12,43.21,5.36-2.76,9.69-3.95,12.6-6.66,12.39-11.52,26.41-20.3,43.16-22.54,9.97-1.34,10.82-5.61,8.36-14ZM533.08,1137.62c3.45-5.16,6.75-7.87,7.02-10.85,1.69-19.27,2.72-38.6,4.05-59.19-4.92,5.59-12.68,10.74-14.92,17.67-5.24,16.2-4.79,33.02,3.86,52.38ZM513.96,1098.86c-14.53,12.91-14.57,33.17,2.19,54.25,2.34-5.28,6.4-9.96,5.85-14.03-1.84-13.7-5.31-27.19-8.04-40.22ZM463.2,961.65c19.12-3.37,24.69-7.29,26.08-17.36.86-6.21-.54-11.68-7.53-13.53-6.57-1.74-11.85.85-13.79,7.1-2.24,7.22-3.05,14.87-4.76,23.79ZM619.18,1213.85c-16.92.72-29.65,8.1-40.41,20.55,9.51.65,18.77.27,27.88-1.12,10.23-1.57,12.96-8.89,12.53-19.43ZM550.65,1101.55v21.83c9.68-3.83,18.09-7.17,26.5-10.5-.01-.83-.02-1.65-.03-2.48-8.28-2.77-16.56-5.54-26.47-8.85ZM500.82,1171.51c9.45-11.79,2.7-18.2-3.42-24.78,1.03,7.47,2.06,14.93,3.42,24.78Z" stroke-width="0"/><path d="M103.66,453.19c-9.79-14.76-19.06-29.17-28.91-43.17-1.62-2.31-5.74-2.86-8.7-4.22.12,3.08-.81,6.76.55,9.12,4.53,7.82,9.89,15.17,15.99,24.28-15.69-5.25-26.1-15.21-35.19-26.02-24.74-29.42-38.6-63.44-37.36-102.23,1.39-43.44,22.43-77.65,55.86-103.4,36.76-28.31,79.91-33.81,124.99-28.59,29.08,3.36,56.22,11.91,79.31,30.42,29.12,23.35,44.84,54.88,52.89,90.6,5.88,26.1,4.97,52.38.9,78.66-2.27,14.67-4.43,29.37-6.57,44.06-1.16,7.98-3.92,13.67-10.89,19.69-9.58,8.27-15.92,20.62-22.56,31.86-3.95,6.68-7.82,8.61-15.31,6.39-27.97-8.27-56.25-6.48-84.4-.99-8.54,1.66-16.69,5.35-25.24,6.82-2.76.47-7.23-2.43-9.19-5.07-6.8-9.18-12.19-19.43-19.32-28.31-9.51-11.86-17.17-11.49-26.86.11ZM246.29,367.53c.25,1.04.49,2.09.74,3.13,2.14-1.58,4.28-3.17,6.41-4.75-2.22-2.14-4.31-5.95-6.69-6.15-18.7-1.56-37.71-4.75-56.13-2.78-14.44,1.55-28.27,9.51-42.11,15.26-2.01.83-2.56,5.2-3.78,7.93,2.94-.01,6.59,1.11,8.71-.22,15.27-9.56,31.78-14.64,49.73-14.32,14.38.25,28.74,1.24,43.12,1.9ZM230.58,320.41c1.45,2.36,2.9,4.72,4.35,7.08.54-2.71,1.98-5.65,1.36-8.06-.61-2.36-3.05-5.59-5.16-6-30.57-5.91-60.47-5.36-87.92,11.71-2.65,1.65-3.5,6.18-5.18,9.38,3.4-.39,7.47.28,10.1-1.35,13.6-8.43,28.42-12.25,44.16-12.68,12.75-.35,25.52-.07,38.28-.07ZM217.95,400.44c-16.03.24-31.04,3.17-44.45,11.95-2.23,1.46-3.13,4.94-4.64,7.48,3.07.24,6.77,1.71,9.12.52,20.48-10.39,41.55-12.4,63.65-6.32,2.3.63,5.28-1.25,7.95-1.97-1.63-2.46-2.86-6.58-4.96-7.09-8.74-2.12-17.75-3.14-26.66-4.57Z" fill="#fff" stroke-width="0"/><path d="M116.73,454.16c3.24,3.05,6.5,5.33,8.7,8.37,4.54,6.27,8.77,12.8,12.69,19.48,9.93,16.9,9.95,17.36,28.12,11.94,31.41-9.38,63.2-10.51,95.37-5.73,3.95.59,8.06,1.67,11.54,3.56,8.18,4.43,11.94.48,15.74-6.35,6.03-10.86,12.63-21.44,19.52-31.78,4.52-6.78,9.29-5.89,12.56,1.44,20.87,46.79,32.63,95.52,17.15,145.68-13.74,44.53-43.75,73.92-91.47,84.85-63.56,14.56-119.26-21.04-142.74-70.02-9.74-20.31-12.08-41.98-11.34-64.19,1.07-32.36,6.38-63.74,21.02-93.02.56-1.12,1.51-2.05,3.14-4.21ZM270.63,628.84c14.78.05,23.89-5.78,23.77-13.23-.13-7.78-5.71-9.89-12.4-9.95-9.95-.1-21.4,7.92-19.48,14.67,1.17,4.14,6.65,7.07,8.12,8.51ZM156.38,609.16c-5.31.16-12.04-.28-12.55,8.41-.37,6.32,9.13,13.19,18.06,12.58,5.52-.38,12.07-1.03,12.53-8.86.36-6.31-7.93-11.94-18.05-12.14ZM222.12,645.45c-2.73.17-5.13-.36-6.7.55-3.57,2.06-6.72,4.84-10.05,7.32,2.84,2.92,5.41,7.86,8.59,8.3,5.61.76,11.76-.69,17.35-2.35,1.93-.57,4.27-4.74,3.9-6.82-.41-2.32-3.38-4.75-5.81-5.99-2.25-1.15-5.27-.78-7.27-1.01Z" fill="#fff" stroke-width="0"/><path d="M304.27,672.37c12.73-16.45,25.37-32.8,39.28-50.78,5.9,9.34,12.71,18.66,17.99,28.78,13.73,26.35,25.88,53.33,27.77,83.68,1.01,16.23,2.18,32.46-5.99,47.46-4.27,7.84-11.17,12.36-20,10.45-8.28-1.79-10.9-8.89-11.84-16.88-3.57-30.16-11.81-58.78-30.08-83.59-5.31-7.21-11.99-13.43-17.14-19.11Z" fill="#fff" stroke-width="0"/><path d="M92.9,179.79c-9.8,5.37-17.72,9.7-25.69,14.06-17.68-15.65-15.79-32.85-6.21-54.86,5.76-13.23,13.09-25.79,18.49-39.14,6.71-16.57,8.08-33.42-2.59-49.34-6.6-9.84-17.45-12.17-27.12-5.09-7.31,5.35-13.84,11.78-20.89,17.5-7.33,5.95-13.82,4.38-14.01-4.6-.17-8.14,1.88-17.82,6.5-24.31C41.11,6.24,81.02-.34,103.93,29.43c13.9,18.06,14.86,38.68,7.07,59.47-5.78,15.42-12.73,30.42-19.55,45.44-7,15.4-7.09,30.58,1.44,45.46Z" fill="#fff" stroke-width="0"/><path d="M125.6,663.32c11.72,7.59,21.53,16.5,33.06,20.8,17.07,6.37,20.14,19.31,21.7,34.3.45,4.36,1.66,8.73,1.44,13.04-.53,10.3-8.63,14.54-17.86,9.78-12.11-6.25-18.6-17.61-24.05-29.01-7.17-14.99-13.76-30.51-14.29-48.91Z" fill="#fff" stroke-width="0"/><path d="M246.29,367.53c-14.37-.66-28.74-1.65-43.12-1.9-17.95-.31-34.46,4.77-49.73,14.32-2.12,1.33-5.77.2-8.71.22,1.22-2.73,1.77-7.09,3.78-7.93,13.84-5.75,27.66-13.71,42.11-15.26,18.42-1.97,37.43,1.21,56.13,2.78,2.38.2,4.47,4.01,6.69,6.15-2.14,1.58-4.28,3.17-6.41,4.75-.25-1.04-.49-2.09-.74-3.13Z" stroke-width="0"/><path d="M230.58,320.41c-12.76,0-25.53-.28-38.28.07-15.74.43-30.56,4.26-44.16,12.68-2.64,1.63-6.7.96-10.1,1.35,1.68-3.19,2.53-7.73,5.18-9.38,27.45-17.07,57.35-17.62,87.92-11.71,2.11.41,4.55,3.64,5.16,6,.62,2.41-.82,5.35-1.36,8.06-1.45-2.36-2.9-4.72-4.35-7.08Z" stroke-width="0"/><path d="M217.95,400.44c8.91,1.43,17.92,2.46,26.66,4.57,2.1.51,3.33,4.63,4.96,7.09-2.67.72-5.65,2.6-7.95,1.97-22.1-6.08-43.17-4.07-63.65,6.32-2.35,1.19-6.05-.29-9.12-.52,1.51-2.54,2.42-6.02,4.64-7.48,13.41-8.78,28.42-11.7,44.45-11.95Z" stroke-width="0"/><path d="M270.63,628.84c-1.47-1.44-6.94-4.37-8.12-8.51-1.91-6.76,9.53-14.77,19.48-14.67,6.7.07,12.27,2.17,12.4,9.95.13,7.45-8.99,13.28-23.77,13.23Z" stroke-width="0"/><path d="M156.38,609.16c10.12.2,18.41,5.83,18.05,12.14-.45,7.83-7.01,8.48-12.53,8.86-8.94.61-18.43-6.26-18.06-12.58.51-8.69,7.23-8.26,12.55-8.41Z" stroke-width="0"/><path d="M222.12,645.45c2,.23,5.02-.14,7.27,1.01,2.43,1.24,5.4,3.67,5.81,5.99.37,2.08-1.96,6.25-3.9,6.82-5.59,1.65-11.74,3.11-17.35,2.35-3.18-.43-5.75-5.38-8.59-8.3,3.32-2.48,6.48-5.26,10.05-7.32,1.57-.91,3.97-.38,6.7-.55Z" stroke-width="0"/></g></svg>