<?xml version="1.0" encoding="UTF-8"?><svg id="b" xmlns="http://www.w3.org/2000/svg" viewBox="0 0 917.12 970.47"><g id="c"><path d="M275.03,958.32c-20.15,10.5-38.62,5.22-52.2-13.53-34.59-47.77-40.42-176.49-4.22-223.98,37.37-49.01,32.68-94.13.5-140.19-27.56-39.45-37.33-81.14-28.79-128.64,5.96-33.16-1.66-63.05-24.2-90.95-24.8-30.69-45.18-65.05-68.84-96.86l.55.66c-27.68-39.18-55.14-78.34-76.05-121.91-12.17-25.36-15.94-51.32-13.31-78.29C12.54,22.85,51.66-2.65,87.46,11.75c6.73,2.71,13.38,5.45,13.15,14.15-.23,8.99-7.11,10.16-14.2,12.34-43.18,13.29-45.2,19.2-31.2,61.39,17.19,51.83,48.13,95.32,79.95,138.49,34.57,35.41,68.21,71.62,114.83,92.5,18.35,8.21,36.92,16.39,56.42,17.45,87.57,4.77,172.86,26.81,260.31,32.87,26.22,1.81,50.38.87,74.61-8.43,38.38-14.73,46.56-9.72,42.67,29.62-2.35,23.76,1.91,44.61,14.52,64.24,10.47,10.62,18.96,23.07,30.51,32.68,17.85,13.29,38.83,15.93,60.03,17.78,35.33,3.09,47.13,18.33,39.3,52.19-4.17,18.04-13.52,34.12-21.62,50.64-23.86,48.64-24.13,58.84,13.18,97.91,41.25,43.2,68.06,92.85,81.2,150.68,3.39,14.92,6.12,29.08-13.08,33.94-14.5,3.68-28.03-2.81-28.4-17.58-1.65-64.91-51.39-84.77-97.59-109.29-21.19-11.24-41.81-23.55-63.76-33.38-9.63-10.48-19.27-20.96-28.9-31.43-5.35-4.82-2.45-9.18-.64-14.63.65-1.94-4.51,1.54-6.48,2.65-39.04,21.86-49.47,59.27-52.07,99.84-1.61,25.13,20.64,30.38,37.33,40.33,9.58,5.71,28.19,7.69,19.85,25.8-6.27,13.63-18.89,19.63-35.07,17.9-36.15-3.87-62.05-30.15-60.83-67.06.99-30.08-5.5-58.26-13.61-86.54-1.27-6.75-2.53-13.49-3.8-20.24-18.99-30.89-51.74-23.37-79.86-28.4-56.96-10.19-107.33-3.92-136.67,55.2-3.67,7.4-11.07,12.93-17.46,18.52-51.51,45.05-61.59,99.93-35.59,161.24,8.07,19.04,9.09,33.51-9.47,43.18" fill="#fefefe" stroke-width="0"/><path d="M698.3,741.96c53.21,12.08,95.9,45.44,142.21,71.23,21.79,12.13,14.67,38.15,21.14,57.74,4.09,12.39,5.03,32.01,26.28,23.9,18.07-6.9,6.78-20.34,4.3-32.25-11.6-55.84-38.66-102.45-79.49-142.06-32.86-31.87-38.15-67.45-10.93-106.68,7.93-11.43,14.02-25.09,17.27-38.62,6.8-28.32,10.33-53.52-35.15-48.66-23.8,2.54-51.7.34-68.15-24.88,8.18-10.13,35.21,15.73,33.26-20.14-.76-13.92,23.19-19.91,35.39-1.49,18.71,28.25,34.83,14.77,50.66-1.97,14.94-15.79,24.2-34.95,26.75-56.55,2.53-21.4,10.34-40.91,19.14-60.92-60.36,6.27-112.08-25.2-168.43-32.52-19.98,48.7-13.82,102.07-10.11,155.28-48.65-28.32-24.46-74.62-26.92-117.93-84.12,44.2-167.02,12.16-249.89,3.74-39.41-4-79.09-6.85-118.02-13.78-75.1-13.38-131.08-57.17-175.6-117.25-4.11-3.97-3.84-7.6.82-10.91,17.17,16.86,33.64,34.51,51.65,50.41,42.41,37.42,89.44,61.61,148.4,65.78,70.54,4.99,140.48,18.29,210.78,27.17,21.03,2.66,42.54,4.69,63.59,3.32,49.66-3.23,75.05-27.13,83.49-74.92,1.62-9.17-2.63-21.53,9.89-25.37,11.76-3.6,16.41,8.47,24.19,13.89,49.18,34.28,100.33,60.15,162.31,34.5,7.72-3.2,15.7-9.02,23.79-2.66,7.9,6.21,7.48,16.03,3.07,23.34-32.57,53.98-19.08,128.49-76.44,171.29,10.34,57.8-30.11,103.09-37.81,155.84-3.16,21.66,19.28,40.84,35.63,55.86,42.05,38.61,56.67,90.31,73.14,141.54,6.55,20.38,3.39,37.64-18.75,44.72-21.05,6.73-37.63-8.34-37.3-24.64,1.38-68.47-53.76-82.54-97.49-108.55-19.34-11.5-41.49-18.8-56.67-36.76Z" stroke-width="0"/><path d="M279.24,966.26c-27.68,9.35-53.19,3.83-64.53-23.97-32.5-79.64-49.57-161.06,5.89-237.86,27.12-37.56,23.26-74.29.12-106.31-35.92-49.7-45.26-102.51-36.39-160.75,3.9-25.63-4.65-46.45-19.79-66.91-24.95-33.72-52.57-65.99-67.27-106.29,43.57,37.13,69.57,87.47,99.28,134.71,9.74,15.49,5.31,36.37,1.01,54.25-10.32,42.89-1.08,81.45,23.26,117.03,36.36,53.15,39.11,100.66,1.15,159.74-41.62,64.77-25.7,139.29,5.2,207.72,9.29,20.57,30.03,23.89,47.23,14.42,21.76-11.98,8.13-26.71-1.13-42.15-27.84-46.41-19.18-99.61,19.66-138.53,14.01-14.04,27.1-29,40.76-43.39,19.02-20.04,29.38-51.08,61.65-54.72,51.11-5.76,101.89.33,152.07,10.15,15.21,2.98,1.48,17.42,6.67,25.15-49.11-27.66-103.56-30.13-156.11-22.17-38.88,5.89-48.18,52.76-75.37,77.27-31.78,28.65-24.37,62.53-4.61,95.41,4.51,7.51,9.73,20.96,3.59,23.07-42.64,14.66-1.46,70.31-42.33,84.12" stroke-width="0"/><path d="M132.82,227.23c-.27,3.64-.55,7.27-.82,10.91-35.04-34.47-58.22-76.57-76.86-121.32C29.57,55.44,33.81,45.74,92.37,25.18,45.11,6.83,12.54,28.15,13.19,78.7c.61,47.53,26.42,85.76,49.32,125.04,11.84,20.31,32.91,35.37,35.31,61.1C52.2,222.82,23.13,170.38,4.26,112.23c-6.62-20.39-4.99-42.56,1.22-63.24C17.85,7.81,63.61-12.35,96.53,8.02c8.54,5.28,18.29,11.29,15.59,22.71-2.06,8.71-11,12.78-20.18,12.93-46.89.79-39.37,27.14-28.82,57.69,15.95,46.21,44.86,84.83,69.71,125.88Z" stroke-width="0"/><path d="M557.88,728.8c17.71,29.02,22.36,60.94,18.72,93.94-2.75,24.97,12.46,37.01,31.09,45.18,19.05,8.35,40.4,19.01,57.58-10.61-25.13-20.6-70.9-25-60.18-76.76,11.48-55.42,30.78-82.83,96.56-111.87-2.74,22.62-31.11,22.63-32.25,41.85-40.84,7.71-43.43,42.38-50.74,73.1-7.46,31.33,15.06,41.54,37.88,51.66,11.31,5.02,25.48,10.09,21.59,26.71-3.49,14.89-14.47,23.64-29.63,26.87-39.56,8.42-85.54-27.28-82.09-67.76,2.71-31.87-10.86-61.15-8.53-92.3Z" stroke-width="0"/><path d="M702.42,483.36c-36.3-63.83-3.16-125.86,4.67-203.87,16.65,59.31,61.46,40.72,90.47,56.53,33.28,18.14,65.25,29.93,101.1-2.42-25.38,44.49-20.07,94.89-43.39,136.79-10.68,19.19-23.96,35.3-46.41,40.77-15.31,3.73-28.67,3.29-29.89-17.56-.47-8.12,1.09-19.14-10.44-19.08-4.77.03-9.38,8.91-14.25,13.57-14.49,13.88,6.82,13.4,8.57,21.3-17.63,8.43-30.73-10.04-47.07-7.74-4.45-6.11-8.9-12.21-13.35-18.31Z" fill="#fcfcfc" stroke-width="0"/><path d="M289.74,790.82c6.29,31.26-1.56,54.74,16.58,74.04,10.62,11.29.46,20.26-10.96,25.55-13.02,6.03-16.77-1.65-20.45-12.45-9.7-28.49-5.64-54.17,14.82-87.14Z" fill="#f1f1f1" stroke-width="0"/></g></svg>