<?xml version="1.0" encoding="UTF-8"?><svg id="b" xmlns="http://www.w3.org/2000/svg" viewBox="0 0 1059.16 1096.63"><g id="c"><path d="M452.94,477.94c.08.45-.38,4.28,1.32,6.29,6.46,7.68,13.62,14.78,20.53,22.1,5.94-7.13,13.31-13.51,17.53-21.55,9.34-17.77,15.14-37.64,25.94-54.36,17.62-27.29,42.88-42.63,77.27-39.78,15.94,1.32,29.2,8.59,32.33,22.61,2.75,12.32-2.28,26.6-4.97,39.78-.74,3.63-4.93,7.22-8.4,9.52-38.35,25.36-34.63,64.7-33.04,102.58.2,4.8,11.21,11.49,18.23,13.26,39.45,9.95,70.66,32.09,97.29,61.95,29.75,33.35,35.84,74.53,36.91,116.47.56,21.77,8.07,36.94,27.29,45.39,42.38,18.64,84.61,37.84,127.89,54.2,52.93,20.01,104.99,40.75,143.87,84.18,27.5,30.71,34.32,68.46,15.93,102-19.43,35.43-50.75,54.04-91.74,54.05-18.05,0-32.15-7.57-38.02-25.86-5.55-17.3,1.95-34.8,19.06-45.66,3.07-1.95,6.61-3.13,9.78-4.94,26.4-15.09,27.72-37.29.39-52.16-24.49-13.33-51.22-23.03-77.75-32.01-46.26-15.66-93.12-29.54-139.75-44.09-1.05-.33-2.38.23-4.55.5-3.81,21.77,2.38,39.28,21.2,52.09,10.59,7.21,21.37,14.3,31.15,22.54,21.64,18.22,19.29,41.87-4.71,57.4-17.84,11.55-37.7,13.01-56.8,7.78-28.77-7.89-58.35-15.72-84.45-29.52-22.65-11.97-41.89-4.21-61.54.79-76.11,19.36-152.69,22.95-229.9,9.86-26.46-4.49-53.19-9.76-78.42-18.61-40.91-14.34-75.55-39.62-106.28-70.14-2.05-2.04-4.39-3.78-7.36-6.31-9.64,15.91-18.19,31.16-27.83,45.7-23.15,34.92-65.56,34.03-95.76,23.44-26.22-9.19-33.25-41.84-16.61-64.21,2.89-3.88,5.96-8.52,10.06-10.47,49.45-23.61,38.05-65.83,30.55-104.91-10.6-55.23-28.24-109.32-35.82-164.86-9.97-73.05-8.61-146.57,5.04-219.99,18.67-100.42,61.46-189.14,123.15-269.17,40.42-52.44,94.27-90.18,148.22-127.35,8.54-5.88,17.28-11.49,26.1-16.93,33.42-20.59,61.84-6.95,64.65,32.1,1.22,17.01-.4,34.4-2.42,51.42-1.84,15.49,1.62,26.69,14.9,36.39,15.72,11.49,30.02,25.04,44.16,38.52,8.12,7.74,15.41,9.36,26.32,5.58,24.21-8.39,48.9-15.56,73.7-22.05,7.35-1.92,16.03-1.2,23.59.54,19.63,4.53,27.95,19.59,16.72,35.81-15.14,21.88-33.08,42.19-52.06,60.9-12.3,12.13-18.26,23.6-17.77,41.29.84,30.3,6.95,61.76-10.17,90.13-6.19,10.27-13.15,20.07-20.87,31.77,10.82,15.87,17.06,35.9,3.9,55.19-4.26,6.25-16.89,6.8-28.02,10.79ZM533.79,908.99c-3.81-11.73-5.88-17.91-7.84-24.13-4.79-15.17-10.15-30.21-13.9-45.64-1.12-4.61,2.35-10.34,3.71-15.56,4.53,3.81,11.11,6.74,13.18,11.6,5,11.73,8.14,24.28,11.59,36.63,26.7,95.54,117.03,136.29,193.77,143.57,14.78,1.4,32.92,1.57,38.66-16.97,5.77-18.67-12.9-22.22-23.24-30.55-1.41-1.14-3.2-1.81-4.79-2.74-26.67-15.67-40.39-38.77-38.32-69.87,2.45-36.68,4.85-73.41,9.19-109.9,4.24-35.69-.1-70.07-13.26-102.87-15.44-38.47-47.42-61.44-82.97-79.29-26.32-13.22-52.38-16.79-79.3,2.49-11.75,8.42-28.23,11.46-43.06,13.94-11.77,1.97-24.41.06-36.44-1.7-3.26-.48-5.69-6.64-8.51-10.2,3.75-2.03,7.4-5.54,11.28-5.8,10.38-.7,21.75,2.67,31.11-.43,20.49-6.8,41.16-14.65,59.52-25.77,15.75-9.53,7.2-28.25,8.03-42.86,1.72-30.37,8.42-57.71,33.83-77.86,10.88-8.62,24.24-18.93,15.19-35.22-8.73-15.73-24.97-13.69-39.43-9.49-8.48,2.46-18.25,6.33-23.51,12.77-10.96,13.39-22.17,27.84-28.21,43.77-20.1,53.04-38.08,67.58-94.38,69.7-4.65.17-9.42-3.13-14.14-4.82,3.73-4.13,6.71-10.06,11.35-12.01,8.35-3.49,17.7-4.59,24.06-6.09-5.95-18.92-13.52-36.95-17.02-55.74-3.72-19.97-7.29-38.04-28.36-47.51-5.5-2.47-10.29-8.99-12.79-14.77-1.6-3.7,1.6-9.47,2.64-14.32,4.19,1.34,9.57,1.47,12.39,4.22,15.27,14.93,19.56,14.68,32.38-2.17,3.02-3.97,8.04-6.42,12.14-9.57,1.77,4.64,3.68,9.23,5.26,13.93.73,2.18.83,4.57,1.21,6.86,20.87-3.11,30.86-16.81,32.02-41.71-11.07-4.13-22.58-6.74-31.95-12.71-4.09-2.61-3.81-12.09-5.51-18.45,5.36,1.55,10.7,3.23,16.1,4.63,6.87,1.77,15.15,6.32,20.27,4.01,4.09-1.85,5.44-12.07,6.02-18.75.68-7.87-.09-16.04-1.43-23.87-3.62-21.06,5.18-35.76,20.55-49.56,17.11-15.36,32.69-32.61,47.54-50.22,9.07-10.75,4.94-19.69-8.47-19.31-30.93.89-59,11.79-87.11,25.89,7.46,11.9,14.43,21.27,19.28,31.62,1.97,4.22-.66,10.59-1.19,15.98-4.77-2.48-11.81-3.72-13.94-7.64-21.27-39.09-53.22-68.27-88.21-94.04-11.44-8.43-16.41-16.96-16.12-30.27.49-22.73,1.06-45.48.65-68.2-.42-23.65-13.66-31.4-33.52-19.36-19.82,12.03-38.75,25.51-58.19,38.17C170.98,126.42,105.71,219.27,62.71,329.7c-25.02,64.26-35.59,131.26-37.85,199.52-2.27,68.37,6.71,135.57,23.75,202.11,11.02,43.06,18.01,87.34,23.75,131.47,2.87,22.04-5.94,42.14-28.32,53.24-5.91,2.93-11.12,7.63-15.97,12.23-16.28,15.46-12.74,35.31,7.56,44.02,29.63,12.71,56.49,4.54,74.44-23.23,31.51-48.76,42.01-103.77,47.44-160.33.76-7.92-5.42-21.13,9.48-20.71,3.11.09,9.18,14.77,8.16,21.91-4.44,30.85-11.36,61.33-16.52,92.09-1.06,6.29-.52,14.63,2.85,19.62,28.69,42.53,71.51,67.05,118.36,81.78,71.74,22.56,146.45,22.46,220.68,16.05,29.3-2.53,58.06-11.36,88.8-17.68-13.78-16.29-26.69-28.66-35.89-43.36-7.33-11.7-15.56-13.94-28.21-14.92-16.69-1.29-33.18-6.33-49.43-10.94-2.81-.8-3.96-7.46-5.87-11.41,4.66-.97,9.57-3.38,13.95-2.64,15.29,2.59,30.39,6.27,49.91,10.47ZM731.34,802.87c-2.23,16.75-3.58,30.81-6.09,44.65-3.08,16.95,3.56,26.5,19.81,31.38,47.98,14.42,96.19,28.23,143.54,44.53,26.33,9.06,52.15,20.79,76.3,34.64,26.03,14.93,33.64,63.86-7.49,76.65-5.05,1.57-11.45,4.35-13.6,8.47-3.66,7.02-7.46,16.42-5.48,23.14,1.54,5.21,11.53,10.57,18.2,11.2,33.81,3.19,65.27-14.45,78.06-46.44,12.27-30.68,7.49-56.34-19.21-83.85-32.25-33.24-72.97-52.86-116.05-67.85-57.64-20.05-116.91-36.35-167.99-76.52ZM461.88,463.59c14.74-29-.4-51.54-30.12-52.28,9.75,16.93,18.77,32.58,30.12,52.28Z" stroke-width="0"/><path d="M533.79,908.99c-19.52-4.2-34.62-7.88-49.91-10.47-4.38-.74-9.28,1.67-13.95,2.64,1.92,3.95,3.06,10.61,5.87,11.41,16.24,4.61,32.74,9.64,49.43,10.94,12.65.98,20.88,3.22,28.21,14.92,9.21,14.69,22.12,27.07,35.89,43.36-30.74,6.32-59.5,15.15-88.8,17.68-74.23,6.4-148.94,6.51-220.68-16.05-46.84-14.73-89.67-39.25-118.36-81.78-3.37-4.99-3.91-13.32-2.85-19.62,5.16-30.76,12.08-61.24,16.52-92.09,1.03-7.13-5.04-21.82-8.16-21.91-14.9-.42-8.72,12.79-9.48,20.71-5.43,56.56-15.93,111.57-47.44,160.33-17.95,27.77-44.81,35.93-74.44,23.23-20.31-8.71-23.84-28.56-7.56-44.02,4.85-4.61,10.07-9.31,15.97-12.23,22.38-11.1,31.19-31.19,28.32-53.24-5.75-44.13-12.73-88.42-23.75-131.47-17.04-66.54-26.02-133.75-23.75-202.11,2.26-68.26,12.84-135.26,37.85-199.52,42.99-110.42,108.26-203.27,208.88-268.8,19.44-12.66,38.37-26.15,58.19-38.17,19.86-12.05,33.1-4.29,33.52,19.36.4,22.72-.17,45.47-.65,68.2-.29,13.31,4.68,21.85,16.12,30.27,34.99,25.77,66.94,54.95,88.21,94.04,2.13,3.92,9.18,5.16,13.94,7.64.54-5.39,3.17-11.77,1.19-15.98-4.85-10.36-11.83-19.72-19.28-31.62,28.11-14.11,56.18-25,87.11-25.89,13.41-.39,17.54,8.56,8.47,19.31-14.85,17.6-30.43,34.86-47.54,50.22-15.37,13.8-24.17,28.5-20.55,49.56,1.34,7.83,2.12,16,1.43,23.87-.58,6.68-1.93,16.9-6.02,18.75-5.12,2.31-13.4-2.24-20.27-4.01-5.4-1.4-10.74-3.07-16.1-4.63,1.7,6.36,1.42,15.84,5.51,18.45,9.37,5.97,20.88,8.58,31.95,12.71-1.16,24.89-11.15,38.59-32.02,41.71-.38-2.29-.48-4.68-1.21-6.86-1.58-4.7-3.48-9.3-5.26-13.93-4.1,3.15-9.12,5.6-12.14,9.57-12.82,16.85-17.11,17.1-32.38,2.17-2.81-2.75-8.19-2.88-12.39-4.22-1.05,4.84-4.24,10.62-2.64,14.32,2.5,5.79,7.29,12.3,12.79,14.77,21.07,9.46,24.65,27.53,28.36,47.51,3.5,18.79,11.07,36.82,17.02,55.74-6.36,1.5-15.71,2.6-24.06,6.09-4.64,1.94-7.62,7.87-11.35,12.01,4.72,1.69,9.49,4.99,14.14,4.82,56.3-2.12,74.28-16.66,94.38-69.7,6.04-15.93,17.25-30.37,28.21-43.77,5.27-6.44,15.04-10.3,23.51-12.77,14.46-4.2,30.69-6.25,39.43,9.49,9.04,16.29-4.32,26.6-15.19,35.22-25.41,20.14-32.11,47.49-33.83,77.86-.83,14.61,7.72,33.32-8.03,42.86-18.36,11.12-39.03,18.97-59.52,25.77-9.36,3.11-20.73-.27-31.11.43-3.87.26-7.52,3.77-11.28,5.8,2.81,3.55,5.24,9.72,8.51,10.2,12.03,1.76,24.66,3.66,36.44,1.7,14.83-2.48,31.31-5.53,43.06-13.94,26.91-19.28,52.97-15.71,79.3-2.49,35.55,17.85,67.54,40.82,82.97,79.29,13.16,32.8,17.5,67.19,13.26,102.87-4.33,36.48-6.73,73.22-9.19,109.9-2.08,31.1,11.65,54.2,38.32,69.87,1.59.93,3.37,1.6,4.79,2.74,10.33,8.32,29.01,11.87,23.24,30.55-5.74,18.54-23.88,18.37-38.66,16.97-76.74-7.28-167.07-48.04-193.77-143.57-3.45-12.34-6.59-24.9-11.59-36.63-2.07-4.86-8.65-7.79-13.18-11.6-1.36,5.22-4.83,10.94-3.71,15.56,3.75,15.43,9.11,30.47,13.9,45.64,1.96,6.22,4.02,12.4,7.84,24.13ZM358.28,320.53c3.05-.66,9.99-1.15,15.99-3.77,5.21-2.27,9.37-6.95,13.99-10.57-5.56-1.52-11.41-5.02-16.63-4.24-34.93,5.22-53.85-5.02-68.19-37.07-2.12-4.74-7.72-7.92-11.72-11.82-1.79,5.72-5.78,11.76-5,17.1,4.1,28.08,34.39,50.01,71.55,50.37ZM237.98,357.94c.1.5.19,1.01.29,1.51,2.45,0,5.13.65,7.3-.12,6.43-2.3,12.66-5.16,18.97-7.8-6.38-3.42-12.8-9.75-19.14-9.68-15.09.17-30.34,2.53-45.14,5.78-5.4,1.18-9.71,7.36-14.51,11.27,6.09,1.85,12.31,5.55,18.24,5.14,11.41-.8,22.67-3.93,33.99-6.09ZM254.36,362.75c-18.33,6.62-35.54,11.96-51.81,19.35-3.79,1.72-4.43,10.41-6.51,15.89,5.13-.47,10.5-.14,15.35-1.56,14.49-4.23,28.82-9.05,43.14-13.86,5.7-1.92,11.2-4.42,16.8-6.65-5.09-3.95-10.18-7.91-16.96-13.17Z" fill="#fff" stroke-width="0"/><path d="M731.34,802.87c51.08,40.17,110.35,56.47,167.99,76.52,43.09,14.99,83.81,34.61,116.05,67.85,26.69,27.52,31.47,53.17,19.21,83.85-12.79,31.99-44.25,49.63-78.06,46.44-6.67-.63-16.67-5.98-18.2-11.2-1.98-6.72,1.82-16.12,5.48-23.14,2.15-4.11,8.55-6.9,13.6-8.47,41.12-12.79,33.52-61.72,7.49-76.65-24.15-13.85-49.98-25.58-76.3-34.64-47.35-16.3-95.56-30.11-143.54-44.53-16.25-4.88-22.89-14.43-19.81-31.38,2.51-13.84,3.86-27.9,6.09-44.65Z" fill="#fff" stroke-width="0"/><path d="M461.88,463.59c-11.35-19.7-20.36-35.34-30.12-52.28,29.72.73,44.85,23.28,30.12,52.28Z" fill="#fff" stroke-width="0"/><path d="M358.28,320.53c-37.16-.35-67.45-22.29-71.55-50.37-.78-5.34,3.21-11.38,5-17.1,3.99,3.9,9.6,7.08,11.72,11.82,14.35,32.05,33.26,42.29,68.19,37.07,5.22-.78,11.07,2.72,16.63,4.24-4.62,3.62-8.78,8.3-13.99,10.57-6.01,2.62-12.94,3.11-15.99,3.77Z" stroke-width="0"/><path d="M237.98,357.94c-11.32,2.16-22.57,5.29-33.99,6.09-5.93.41-12.15-3.29-18.24-5.14,4.81-3.9,9.11-10.08,14.51-11.27,14.8-3.24,30.04-5.61,45.14-5.78,6.34-.07,12.76,6.26,19.14,9.68-6.31,2.64-12.54,5.5-18.97,7.8-2.17.78-4.85.12-7.3.12-.1-.5-.19-1.01-.29-1.51Z" stroke-width="0"/><path d="M254.36,362.75c6.78,5.26,11.87,9.22,16.96,13.17-5.59,2.23-11.1,4.73-16.8,6.65-14.32,4.81-28.65,9.62-43.14,13.86-4.85,1.42-10.22,1.09-15.35,1.56,2.09-5.48,2.72-14.17,6.51-15.89,16.28-7.39,33.48-12.73,51.81-19.35Z" stroke-width="0"/></g></svg>