<?xml version="1.0" encoding="UTF-8"?><svg id="b" xmlns="http://www.w3.org/2000/svg" viewBox="0 0 965.63 481.78"><g id="c"><path d="M103.26,401.93c-32.72-33.78-45.65-73.52-48.75-117.62-.57-8.16-5.61-16.44-10.01-23.8-13.05-21.81-28.91-42.21-39.75-65.02-11.84-24.93-1.03-40.94,26.63-41.13,19.08-.14,38.15,4.83,57.32,6.22,6.44.47,15.38-.9,19.42-5.06,36.93-38.05,82.9-57.11,134.3-62.13,21.64-2.11,33.14-9.9,40.19-30.06,4.67-13.36,12.91-26.12,21.99-37.14,14.27-17.33,29.82-15.78,41.92,3.15,6.21,9.71,10.59,20.58,14.14,27.63,56.94-15.19,112.17-32.11,168.41-44.36,62.37-13.58,126.08-17.47,189.27-5.28,98.98,19.1,168.28,78.02,215.82,165.21,23.36,42.84,37.89,86.61,28.64,136.69-6.08,32.89-19.2,59.85-45.92,80.41-16.87,12.98-32.8,27.21-48.75,41.33-35.43,31.36-79.55,39.82-123.95,47-61.04,9.88-120.85-3.93-181.21-9.71-54.71-5.24-109.88-5.71-164.85-8-27.53-1.15-56.79,9.38-81.11-13.37-2.12-1.98-10.21.97-14.71,3.25-14.14,7.17-27.47,16.04-41.88,22.54-24.26,10.94-48.8,13.19-73.73.17-5.73-2.99-14.07-1.71-21.14-1.23-14.3.97-28.94,5.53-42.75,3.62-35.56-4.9-47.33-34.31-27.14-63.91,1.9-2.78,4.24-5.27,7.61-9.41ZM438.81,439.75c61.82,7.49,117.15,14.62,172.59,20.74,27.4,3.03,55.04,6.25,82.51,5.82,69.47-1.08,136.91-9.51,186.08-67.58,3.46-4.09,8.58-6.96,13.29-9.79,51.9-31.09,69.52-74.69,54.21-141.97-22.87-100.54-103.52-202.95-231.53-225.4-96.1-16.86-189.66-.06-281.49,28.56-23.36,7.28-45.94,17.03-69.08,25.73,4.34,20.9,4.49,40.17,12.37,55.45,12.98,25.18,30.95,47.79,46.55,71.09,75.72-74.13,228.25-133.89,262.9-96.45-79.9,7.53-155.76,20.09-214.96,70.91,11.69,17.09,24.4,30.53,31.06,46.49,12.48,29.91-6.25,50.8-38.14,45.52-8.11-1.34-16.68-3.23-24.5-1.85-5.16.91-12,6.37-13.57,11.26-8.37,25.93-15.3,52.32-22.42,77.43,20.33,0,43.27-2.09,65.69.43,47.93,5.38,95.75,12.22,143.33,20.17,53.06,8.87,104.43,9.65,151.87-20.85,1.2-.77,3.69.46,10.78,1.57-6.3,7.17-9.63,14.57-14.8,16.22-25.96,8.29-52.64,21.86-78.62,20.95-51.38-1.8-102.45-12.02-153.69-18.44-8.02-1-19.29-3.8-23.89.18-22.51,19.55-43.27,41.11-66.54,63.8ZM119.56,161.9c4.9,9.83,7.3,14.64,9.7,19.44-5.59.59-11.41,2.47-16.73,1.54-26.35-4.6-52.4-11.24-78.89-14.56-16.17-2.03-23.91,7.56-15.2,23.2,10.34,18.57,18.47,42.54,34.71,52.55,17.67,10.89,15.09,22.52,15.74,36.25,3.32,70.13,33.77,116.12,90.96,137.06,48.72,17.85,96.44,9.45,143.74-5.8,4.56-1.47,9.16-6.12,11.54-10.49,10.26-18.9,26.72-28.86,46.35-35.45,7.53-2.53,16.17-5.64,21.13-11.28,32.68-37.14,40.5-112.57,18.4-156.33-41.29,0-82.19,4.5-121.61-1.22-42.57-6.18-73.61-35.23-97.02-76.22-22.19,14.58-43.07,28.3-62.84,41.29ZM109.69,411.55c-2.79,11.64-10.51,25.22-6.85,34.08,3.37,8.17,18.5,13.11,29.37,16.01,7.99,2.13,17.78-.26,26.17-2.71,4.88-1.42,12.27-7.27,11.96-10.49-.51-5.34-5.24-12.27-10.12-14.81-14.5-7.55-29.95-13.29-50.53-22.09ZM311.58,429.23c-43.64,5.1-84.83,9.92-125.77,14.7,4.88,16.88,11.32,21.67,31.37,23.06,37.24,2.58,62.15-23.68,94.4-37.76ZM325.79,61.11c-1.46-1.31-2.92-2.62-4.38-3.94-4.19,3.01-10.07,5.12-12.24,9.21-6.05,11.4-10.82,23.51-15.62,35.53-4.28,10.7.64,15.36,11.32,15.74,10.9.38,21.8.98,32.69,1.48-8.7-6.62-17.4-13.24-27.94-21.26,4.59-10.44,10.38-23.6,16.16-36.76Z" stroke-width="0"/><path d="M438.81,439.75c23.26-22.69,44.02-44.25,66.54-63.8,4.59-3.99,15.86-1.19,23.89-.18,51.24,6.42,102.31,16.64,153.69,18.44,25.98.91,52.66-12.66,78.62-20.95,5.17-1.65,8.5-9.05,14.8-16.22-7.09-1.11-9.58-2.34-10.78-1.57-47.44,30.5-98.8,29.72-151.87,20.85-47.58-7.96-95.4-14.79-143.33-20.17-22.42-2.52-45.36-.43-65.69-.43,7.11-25.11,14.05-51.5,22.42-77.43,1.57-4.88,8.41-10.34,13.57-11.26,7.82-1.38,16.39.51,24.5,1.85,31.89,5.28,50.62-15.61,38.14-45.52-6.66-15.96-19.36-29.4-31.06-46.49,59.2-50.82,135.06-63.38,214.96-70.91-34.65-37.44-187.18,22.32-262.9,96.45-15.61-23.3-33.58-45.91-46.55-71.09-7.88-15.28-8.03-34.55-12.37-55.45,23.14-8.69,45.73-18.45,69.08-25.73,91.83-28.62,185.39-45.42,281.49-28.56,128.01,22.45,208.66,124.86,231.53,225.4,15.31,67.29-2.31,110.88-54.21,141.97-4.71,2.82-9.83,5.7-13.29,9.79-49.17,58.06-116.61,66.5-186.08,67.58-27.48.43-55.11-2.79-82.51-5.82-55.44-6.12-110.77-13.25-172.59-20.74ZM905.62,253.79c-.49-59.34-47.11-117.56-100.62-125.66-31.56-4.78-52.27,12.38-49.03,44.09,2.43,23.77,7.76,47.7,15.31,70.38,12.69,38.12,42.24,56.44,81.2,60.41,34.51,3.52,53.43-14.23,53.14-49.22Z" fill="#fff" stroke-width="0"/><path d="M119.56,161.9c19.77-12.99,40.65-26.71,62.84-41.29,23.41,40.99,54.44,70.04,97.02,76.22,39.41,5.72,80.31,1.22,121.61,1.22,22.09,43.76,14.28,119.19-18.4,156.33-4.96,5.64-13.6,8.75-21.13,11.28-19.63,6.59-36.09,16.55-46.35,35.45-2.37,4.37-6.98,9.02-11.54,10.49-47.3,15.25-95.03,23.64-143.74,5.8-57.19-20.95-87.64-66.94-90.96-137.06-.65-13.73,1.93-25.36-15.74-36.25-16.24-10.01-24.37-33.97-34.71-52.55-8.71-15.64-.97-25.22,15.2-23.2,26.48,3.32,52.54,9.95,78.89,14.56,5.33.93,11.14-.96,16.73-1.54-2.4-4.81-4.8-9.61-9.7-19.44ZM318.48,326.52c.82-4.85,3.12-9.49,1.82-12.62-2.93-7.07-7.65-13.4-11.64-20.03-9.74,6.27-19.48,12.53-29.21,18.8,5.25,5.58,9.79,14.85,15.89,16.01,15.31,2.92,14.08,9.39,8.57,20.08-1.37,2.66.33,7.14,1.37,10.55.14.46,5.33.45,7.1-.83,8.61-6.21,16.85-12.92,27.6-21.31-6.85-3.39-13.11-6.49-21.48-10.64ZM69.54,230.69c2.01.23,4.02.46,6.02.69,15.83-18,20.34-32.6,12.22-39.52-14.13-12.03-39.37-14.3-49.14-2.57,12.53,4.25,24.38,8.27,34.76,11.79-1.46,11.19-2.66,20.4-3.87,29.61ZM247.21,329.55c-15.57-9.95-59.53,2.56-66.05,17.41-.92,2.1-.94,5.71.3,7.33,1.26,1.64,5.19,3,6.95,2.22,19.09-8.44,37.97-17.32,58.8-26.95ZM373.25,239.08c-13.88-10.99-21.58,2.14-28.21,9.13-7.01,7.39-10.45,18.17-15.44,27.47,3.91.27,9.71,2.32,11.42.51,11.03-11.65,21.18-24.15,32.24-37.11Z" fill="#fff" stroke-width="0"/><path d="M109.69,411.55c20.58,8.8,36.03,14.54,50.53,22.09,4.88,2.54,9.61,9.47,10.12,14.81.31,3.22-7.08,9.07-11.96,10.49-8.39,2.44-18.18,4.84-26.17,2.71-10.87-2.9-26-7.84-29.37-16.01-3.66-8.87,4.06-22.44,6.85-34.08Z" fill="#fff" stroke-width="0"/><path d="M311.58,429.23c-32.25,14.08-57.16,40.34-94.4,37.76-20.04-1.39-26.49-6.18-31.37-23.06,40.94-4.79,82.12-9.6,125.77-14.7Z" fill="#fff" stroke-width="0"/><path d="M325.79,61.11c-5.79,13.16-11.57,26.31-16.16,36.76,10.55,8.02,19.25,14.64,27.94,21.26-10.9-.5-21.79-1.09-32.69-1.48-10.69-.38-15.6-5.04-11.32-15.74,4.8-12.02,9.57-24.14,15.62-35.53,2.17-4.08,8.05-6.2,12.24-9.21,1.46,1.31,2.92,2.62,4.38,3.94Z" fill="#fff" stroke-width="0"/><path d="M905.62,253.79c.29,34.99-18.62,52.74-53.14,49.22-38.97-3.97-68.51-22.29-81.2-60.41-7.55-22.69-12.88-46.61-15.31-70.38-3.24-31.71,17.47-48.87,49.03-44.09,53.5,8.1,100.12,66.32,100.62,125.66Z" stroke-width="0"/><path d="M318.48,326.52c8.38,4.15,14.63,7.24,21.48,10.64-10.75,8.39-18.99,15.11-27.6,21.31-1.78,1.28-6.96,1.29-7.1.83-1.04-3.41-2.74-7.89-1.37-10.55,5.52-10.69,6.75-17.16-8.57-20.08-6.09-1.16-10.64-10.43-15.89-16.01,9.74-6.27,19.48-12.53,29.21-18.8,3.99,6.63,8.71,12.96,11.64,20.03,1.3,3.14-1,7.77-1.82,12.62Z" stroke-width="0"/><path d="M69.54,230.69c1.2-9.21,2.4-18.42,3.87-29.61-10.38-3.52-22.23-7.54-34.76-11.79,9.76-11.74,35.01-9.47,49.14,2.57,8.12,6.92,3.61,21.52-12.22,39.52-2.01-.23-4.02-.46-6.02-.69Z" stroke-width="0"/><path d="M247.21,329.55c-20.82,9.63-39.71,18.52-58.8,26.95-1.76.78-5.69-.58-6.95-2.22-1.24-1.62-1.22-5.23-.3-7.33,6.52-14.84,50.49-27.36,66.05-17.41Z" stroke-width="0"/><path d="M373.25,239.08c-11.06,12.96-21.2,25.46-32.24,37.11-1.71,1.81-7.51-.25-11.42-.51,5-9.3,8.43-20.08,15.44-27.47,6.64-6.99,14.33-20.12,28.21-9.13Z" stroke-width="0"/></g></svg>