<?xml version="1.0" encoding="UTF-8"?><svg id="b" xmlns="http://www.w3.org/2000/svg" viewBox="0 0 1064.76 1157.34"><g id="c"><path d="M0,554.71c10.89-78.17,37.55-149.89,83.75-214.56,32.11-44.94,74.49-70.95,128.67-77.67,27.11-3.36,52.21,2.74,68.36,26.95,16.08,24.09,14.2,49.75-1.54,73-17.22,25.43-38.2,47.47-60.63,69.04-45.34,43.59-60.83,102.54-67.43,163.14-4.16,38.15-1.21,76.58,8.05,114.11,1.3,5.27.09,13.21,7.83,14.33,1.13.16,4.49-8.3,5.17-13,4.58-31.58,23.58-57.21,34.85-85.99,5.24-13.37,10.28-25.97-5.03-38.74-21.87-18.23-31.27-42.17-14.23-68.73,16.14-25.15,59.65-34.53,86.88-19.79,17.67,9.57,32.13,22.84,38.74,42.67,6.22,18.64,11.61,37.56,18.14,56.08,3.14,8.89.29,25.45,12.71,24.18,11.54-1.18,20.57-14.18,20.81-27.8.69-38.75,15.11-67.95,52.77-83.28,19.22-7.82,4.96-20.97,3.26-31.57-1.77-11.01-6.69-20.12-20.83-16.34-3,.8-5.95,1.89-9,2.36-12.87,1.99-29.02,20.93-37.68,1.74-8.64-19.16,14.96-19.72,26.12-26.78,3.16-2,9.3-2.18,7.6-7.48-.52-1.64-7.16-1.93-10.95-1.77-6.17.26-12.29,1.8-18.46,2.04-6.46.25-12.9-1.42-15.12-8.3-2.87-8.94,3.84-12.95,10.33-16.51,1.78-.98,3.92-1.29,5.86-2.01,42.42-15.75,41.7-15.67,36.32-62.22-7.75-67.04-10.27-134.34,1.24-201.16,4.71-27.31,10.02-59.9,40.27-68.61,32.51-9.36,53.71,18.97,65.02,42.62,22.95,47.98,54.76,48.74,97.66,32.73,22.9-8.55,48.33-11.74,72.93-13.94,25.23-2.25,33.3-15.07,34.27-38.32.68-16.4,3.94-32.97,8.16-48.9,13.12-49.53,49.77-60.78,88.17-26.35,28.74,25.77,50.15,57.84,69.19,91.2,28.73,50.33,57.67,100.59,84.48,151.94,11.51,22.05,22.82,33.62,47.04,17.93,4.21-2.73,9.66-3.62,14.61-5.12,7.42-2.25,15.22-2.51,19.04,5.26,5.13,10.47-4.17,14.12-10.7,19.05-9.85,7.43-33.02,4.36-28.72,19.82,2.53,9.07,24.13-1.66,37.19-3.03,10.09-1.06,23.02-5.66,25.62,8.56,2.54,13.87-11.75,17.21-20.92,17.59-35.71,1.49-31.2,16.98-21.65,43.65,61.34,171.28,67.19,342.7-13.41,509.65-83.8,173.58-279.88,278.16-471.58,258.6-106.98-10.91-208.32-40.4-296.94-100.35C109.68,969.03,24.67,852.51,0,697.69v-142.98ZM1035.76,615.95c2.17-97.08-22.73-201.52-77.43-298.57-33.03-58.6-65.03-117.79-98.95-175.87-19.25-32.97-37.69-66.92-65.56-93.94-9.41-9.12-18.04-21.99-33.75-18.23-17.34,4.15-19.25,20.78-22.19,34.38-4.58,21.17-6.76,42.86-9.69,64.37-2.31,17.01-8.35,28.44-28.56,29.93-52.79,3.91-104.46,14.76-155.05,30.27-17.88,5.48-28.84.56-37.83-16.23-10.69-19.97-22.55-39.85-37.1-57.07-19.89-23.55-34.53-19.79-42.41,9.96-5,18.86-8.71,38.57-9.26,58.01-3.13,110.01-1.87,219.6,44.29,322.89,5.67,12.69,1.23,19.9-11.55,22.67-8.07,1.75-17.01,1.11-24.36,4.3-23.14,10.06-35.01,28.01-33.32,53.89,1.69,25.88,18.77,22.33,35.96,19,5.65-1.1,10.45,1.42,12.65,6.61,2.9,6.83-.48,12.89-6.2,15.71-7.22,3.56-17.62,9.44-22.86,6.79-38.2-19.24-53.19,10.36-71.71,32.37-29.33,34.86-52.27,72.3-45.91,120.85,1.25,9.52,7.65,23.36-8.93,23.74-12.94.3-13.74-13.16-14.84-23.5-4.22-39.8,5.48-75.56,29.01-108.28,23.68-32.93,4.43-133.58-28.92-155.61-5.09-3.36-11.04-5.88-16.94-7.44-17.72-4.66-33.95-.48-43.74,14.98-9.99,15.76,1.14,27.59,12.79,36.99,20.43,16.48,22.02,35.88,11.12,58.14-6.38,13.01-11.87,26.48-18.53,39.33-27.9,53.82-23.61,107.66-1.22,161.85,4.02,9.73,16.15,21.92,2.82,30.18-14.35,8.9-22.05-7.63-28.94-16.27-30.31-38.05-47.55-82.5-56.34-129.82-23.05-124.13-6.54-237.2,93.84-326.19,11.48-10.17,21.74-22.42,30.03-35.34,20.71-32.24,5.92-60.42-31.97-62.12-39.75-1.78-74.76,12.38-99.26,42.44C11.51,470.39-9.79,628.68,53.47,792.04c72.51,187.25,222.26,287.95,415.12,327.15,177.23,36.03,330.04-9.88,453.24-144.05,89.46-97.43,114.64-217.37,113.92-359.19Z" stroke-width="0"/><path d="M1035.76,615.95c.72,141.82-24.46,261.76-113.92,359.19-123.2,134.17-276.01,180.08-453.24,144.05-192.86-39.21-342.61-139.9-415.12-327.15C-9.79,628.68,11.51,470.39,124.98,331.15c24.5-30.06,59.52-44.22,99.26-42.44,37.89,1.69,52.67,29.88,31.97,62.12-8.29,12.92-18.56,25.17-30.03,35.34-100.38,88.99-116.89,202.06-93.84,326.19,8.79,47.33,26.02,91.77,56.34,129.82,6.88,8.64,14.59,25.17,28.94,16.27,13.32-8.26,1.2-20.44-2.82-30.18-22.39-54.19-26.69-108.03,1.22-161.85,6.67-12.86,12.16-26.32,18.53-39.33,10.91-22.26,9.31-41.66-11.12-58.14-11.66-9.41-22.78-21.23-12.79-36.99,9.79-15.46,26.02-19.64,43.74-14.98,5.91,1.55,11.86,4.08,16.94,7.44,33.35,22.03,52.6,122.68,28.92,155.61-23.53,32.72-33.23,68.48-29.01,108.28,1.1,10.34,1.89,23.8,14.84,23.5,16.58-.38,10.17-14.23,8.93-23.74-6.36-48.56,16.59-86,45.91-120.85,18.52-22.02,33.51-51.61,71.71-32.37,5.25,2.64,15.65-3.24,22.86-6.79,5.72-2.82,9.1-8.87,6.2-15.71-2.21-5.19-7-7.71-12.65-6.61-17.2,3.33-34.27,6.88-35.96-19-1.69-25.88,10.17-43.82,33.32-53.89,7.35-3.2,16.29-2.55,24.36-4.3,12.78-2.77,17.22-9.97,11.55-22.67-46.16-103.29-47.42-212.89-44.29-322.89.55-19.44,4.27-39.15,9.26-58.01,7.88-29.74,22.52-33.5,42.41-9.96,14.54,17.22,26.41,37.1,37.1,57.07,8.99,16.79,19.95,21.71,37.83,16.23,50.59-15.52,102.26-26.36,155.05-30.27,20.22-1.5,26.25-12.92,28.56-29.93,2.92-21.51,5.11-43.21,9.69-64.37,2.94-13.6,4.85-30.23,22.19-34.38,15.71-3.76,24.35,9.11,33.75,18.23,27.87,27.02,46.31,60.97,65.56,93.94,33.91,58.08,65.92,117.27,98.95,175.87,54.71,97.05,79.6,201.5,77.43,298.57ZM604.25,662.6c-1.75-39.63-5.84-74.63-30.07-103.1-19.6-23.02-44.01-29.37-72.5-17.47-28.34,11.84-39.35,34.88-32.96,62.69,7.8,33.94,3.89,64.84-9.22,96.33-6.28,15.08-9.66,31.75-11.93,48.04-3.5,25.17,1.46,45.75,28.2,58.91,26.78,13.18,31.9,35.22,20.42,63.02-9.65,23.36-26.73,38.73-50.12,47.79-6.8,2.63-14,6.82-10.4,16,2.67,6.81,9.47,6.88,15.91,6.23,26.34-2.67,62.97-39.39,71.23-71.47,9.5-36.91,1.03-61.81-31.65-82.03-14.76-9.14-18.75-20.08-18.03-35.83.91-20.07,6.9-38.94,14.59-56.82,11.56-26.9,13.17-53.78,7.34-81.92-4.44-21.4-5.86-42.92,20.92-50.68,27.85-8.08,43.37,8.51,51.72,31.95,14.27,40.08,14.96,81.24,2.16,121.76-5.82,18.42-.58,25.52,17.59,25.23,86.28-1.36,138.81,48.56,178.98,117.54,5.24,9,7.73,26.38,22.61,18.4,13.41-7.19,3.51-21.14-1.29-30.26-30.6-58.11-77.38-98.89-137.88-123.57-14.97-6.11-36.42-3.91-45.9-13.99-11.73-12.48,3.21-33.37.31-46.74ZM710.44,610.03c1.99,21.6,4.43,44.59,28.35,56.8,23,11.74,44.14,6.23,64-8.04,15.89-11.42,30.66-24.87,52.65-22.79,7.4.7,15.36-1.8,14.93-11.51-.4-9.04-8.47-11.16-15.56-12.46-15.01-2.76-28.76,1.75-41.34,9.58-8.77,5.46-16.74,12.19-25.44,17.76-12.97,8.3-27.08,11.69-40.95,3.14-14.99-9.24-13.62-25.05-11.32-39.24,4.43-27.34,22.93-43.11,47.91-51.93,28.09-9.93,54.95-4.87,81.12,7.55,6.65,3.16,14.61,6.15,18.7-2.83,3.86-8.47-3.08-13.17-9.34-17.13-17.1-10.82-36.34-15.22-56.05-16.21-55.2-2.77-106.79,38.8-107.64,87.32ZM701.1,428.97c24.14,1.42,41.44-8.53,49.98-32.03,2.27-6.23,1.12-12.64-4.48-16.69-6.23-4.51-12.18-2.12-15.59,3.96-16.36,29.18-32.5,22.59-48.97.24-3.16-4.29-7.45-7.98-12.99-6.44-6.76,1.88-9.63,7.54-9,14.35,2.67,28.99-11.59,32.21-34.15,22.55-7.26-3.11-14.17-5.08-18.27,3.83-3.67,7.98.69,14.13,6.83,18.62,17.2,12.57,34.98,10.88,51.94-.05,10.72-6.9,20.83-13.7,34.68-8.34ZM787.96,299.65c-25.79,2.41-54.64,8.69-71.95,38.05-3.76,6.38-6.82,13.63.48,19.5,4.52,3.64,10.54,2.62,13.95-1.72,29.56-37.74,66.33-36.07,105.93-20.01,6.2,2.51,12.81,3.07,16.48-3.34,4.56-7.95-.34-14.06-6.83-18.11-16.2-10.09-34.16-14.28-58.06-14.37ZM551.04,343.41c-31.74,3.08-59.37,12.72-77.52,40.23-3.5,5.3-5.61,11.58-.26,17.03,5.46,5.56,12.09,4.11,16.39-.87,29.53-34.28,64.12-37.84,103.21-18.46,6.55,3.25,14.6,5.05,18.67-3.91,3.88-8.55-2.58-13.72-8.52-17.76-15.82-10.73-33.79-15.06-51.97-16.26Z" fill="#fff" stroke-width="0"/><path d="M604.25,662.6c2.91,13.37-12.04,34.26-.31,46.74,9.48,10.08,30.93,7.88,45.9,13.99,60.49,24.68,107.28,65.46,137.88,123.57,4.8,9.12,14.7,23.06,1.29,30.26-14.88,7.99-17.37-9.39-22.61-18.4-40.17-68.98-92.7-118.9-178.98-117.54-18.17.29-23.4-6.81-17.59-25.23,12.8-40.52,12.11-81.69-2.16-121.76-8.35-23.44-23.87-40.03-51.72-31.95-26.78,7.77-25.36,29.28-20.92,50.68,5.84,28.14,4.23,55.02-7.34,81.92-7.68,17.88-13.67,36.75-14.59,56.82-.72,15.75,3.27,26.69,18.03,35.83,32.68,20.23,41.15,45.13,31.65,82.03-8.26,32.08-44.88,68.8-71.23,71.47-6.44.65-13.24.58-15.91-6.23-3.6-9.17,3.6-13.36,10.4-16,23.39-9.06,40.47-24.43,50.12-47.79,11.48-27.8,6.36-49.84-20.42-63.02-26.74-13.16-31.71-33.74-28.2-58.91,2.27-16.29,5.65-32.96,11.93-48.04,13.11-31.49,17.02-62.39,9.22-96.33-6.39-27.81,4.63-50.85,32.96-62.69,28.49-11.9,52.9-5.55,72.5,17.47,24.23,28.47,28.33,63.46,30.07,103.1Z" stroke-width="0"/><path d="M710.44,610.03c.85-48.52,52.44-90.08,107.64-87.32,19.72.99,38.95,5.4,56.05,16.21,6.26,3.96,13.2,8.67,9.34,17.13-4.09,8.98-12.05,5.99-18.7,2.83-26.17-12.42-53.03-17.48-81.12-7.55-24.97,8.83-43.48,24.59-47.91,51.93-2.3,14.19-3.67,30,11.32,39.24,13.87,8.55,27.98,5.16,40.95-3.14,8.71-5.57,16.68-12.3,25.44-17.76,12.58-7.84,26.33-12.34,41.34-9.58,7.09,1.3,15.16,3.42,15.56,12.46.43,9.71-7.53,12.21-14.93,11.51-21.98-2.08-36.76,11.37-52.65,22.79-19.86,14.28-41,19.78-64,8.04-23.92-12.21-26.36-35.2-28.35-56.8Z" stroke-width="0"/><path d="M701.1,428.97c-13.86-5.36-23.97,1.44-34.68,8.34-16.97,10.93-34.74,12.61-51.94.05-6.15-4.49-10.5-10.65-6.83-18.62,4.1-8.91,11.01-6.94,18.27-3.83,22.56,9.67,36.82,6.44,34.15-22.55-.63-6.81,2.23-12.47,9-14.35,5.54-1.54,9.83,2.16,12.99,6.44,16.48,22.35,32.62,28.94,48.97-.24,3.41-6.08,9.36-8.46,15.59-3.96,5.6,4.05,6.75,10.46,4.48,16.69-8.54,23.5-25.84,33.44-49.98,32.03Z" stroke-width="0"/><path d="M787.96,299.65c23.9.09,41.86,4.29,58.06,14.37,6.49,4.04,11.38,10.16,6.83,18.11-3.67,6.41-10.29,5.86-16.48,3.34-39.6-16.06-76.36-17.73-105.93,20.01-3.4,4.34-9.43,5.35-13.95,1.72-7.29-5.87-4.24-13.12-.48-19.5,17.3-29.36,46.15-35.63,71.95-38.05Z" stroke-width="0"/><path d="M551.04,343.41c18.18,1.2,36.15,5.52,51.97,16.26,5.94,4.03,12.4,9.2,8.52,17.76-4.07,8.96-12.12,7.15-18.67,3.91-39.09-19.38-73.67-15.81-103.21,18.46-4.3,4.99-10.93,6.43-16.39.87-5.35-5.45-3.24-11.73.26-17.03,18.15-27.51,45.78-37.15,77.52-40.23Z" stroke-width="0"/><path d="M170.85,756.75c-34.68-18.48-29.46-56.33-32.3-84.12-9.16-89.78,4.72-176.49,66.68-248.29,16.22-18.8,34.92-35.49,52.62-53,19.46-19.25,28.61-44.43,17.45-67.85-12.24-25.68-37.44-29.63-67.29-26.47-67.47,7.14-101.93,50.92-133.88,103.37C-31.62,554.03-9.09,806.23,148.38,965.72c95.94,97.16,212.25,151.91,342.66,171.83,200.31,30.59,364.65-38.12,480.53-207.23,45.92-67.02,69.64-143.59,73.13-226.37,1.17-27.85,6.3-55.85,5.11-83.96-3.85-90.54-14.59-179.6-58.28-261.43-1.41-2.65-8.78-10.04-.6-15.22" fill="none" stroke="#000" stroke-linecap="round" stroke-linejoin="round" stroke-width="12.44"/><path d="M1046.86,327.8c-1.04,1.04-2.24,3.1-3.08,2.96-20.29-3.29-42.61,17.84-57.92,5.02-16.38-13.71-23.67-38.17-35.34-57.68-36.21-60.56-65.21-125.12-104.92-183.86-16.33-24.16-32.98-47.75-53.8-67.59-26.6-25.36-55.69-15.52-64.53,21.49-6.07,25.44-9.62,51.61-12.39,77.66-1.4,13.11-5.87,17.66-19.01,18.94-47.45,4.64-94.33,12.75-139.83,27.62-17.61,5.76-31.09,5.02-40.94-15.26-11.3-23.26-27.77-43.89-46.17-62.31-18.96-18.99-32.7-17.54-46.14,6.26-13.38,23.71-18.97,50.44-18.72,77.52.67,70.62-6.1,141.74,12.18,211.37,2.73,10.38-5.1,18.44-6.21,27.97" fill="none" stroke="#000" stroke-linecap="round" stroke-linejoin="round" stroke-width="12.44"/><path d="M785.92,881.08c-9.16-67.95-112.31-156.19-177.04-151.86-28.73,1.92-23.41-15.99-21.53-31.5,4.91-40.49,7.48-80.51-12.72-118.12-14.59-27.18-37.55-37.35-62.09-28-31.91,12.16-40.21,27.22-30.76,62.08,6.69,24.66,7.87,47.73-3.04,71.74-8.09,17.8-15.76,36.75-18.22,55.88-2.77,21.61-6.39,44.26,23.64,56.86,27.3,11.46,37.37,36.9,28.45,67.39-9.7,33.16-40.7,65.33-80.84,65.25" fill="none" stroke="#000" stroke-linecap="round" stroke-linejoin="round" stroke-width="12.44"/><path d="M285.79,800.26c-11.53-44.31.56-84.1,28.62-117.56,17.12-20.41,19.49-40.44,11.41-62.59-10.55-28.95-12.53-60.5-30.32-87.42-20.64-31.23-60.68-40.92-87.36-18.4-20.51,17.32-24.33,40.22-2.46,54.99,32.75,22.12,22.98,44.49,8.56,69.29-19.69,33.87-28.14,71.42-37.17,108.85" fill="none" stroke="#000" stroke-linecap="round" stroke-linejoin="round" stroke-width="12.44"/><path d="M885.33,554.71c-32.84-13.95-64.49-29.03-102.71-16.14-37.87,12.78-62.79,43.8-58.82,81.41,4.09,38.77,35.96,54.11,68.04,30.67,24.77-18.1,48.45-34.69,81.06-24.46" fill="none" stroke="#000" stroke-linecap="round" stroke-linejoin="round" stroke-width="12.44"/><path d="M602.64,374.42c-52.27-29.73-82.02-25.39-120.85,18.91-4.77,5.44-8.87.67-12.73,2.84" fill="none" stroke="#000" stroke-linecap="round" stroke-linejoin="round" stroke-width="12.44"/><path d="M848.05,327.8c-33.62-19.11-66.96-21.98-102.88-3.85-13.77,6.95-15.53,19.98-24.48,28.71" fill="none" stroke="#000" stroke-linecap="round" stroke-linejoin="round" stroke-width="12.44"/><path d="M447.32,514.3c-51.46,12.94-67.34,28.84-68.34,68.38-.9,35.8,20.8,50.28,52.46,33.53,5.05-2.67,8.92-.27,12.78-2.45" fill="none" stroke="#000" stroke-linecap="round" stroke-linejoin="round" stroke-width="12.44"/><path d="M739.32,377.53c7.07,20.79-4.48,30.91-21.77,37.24-22.55,8.25-35.66-4.55-46.57-21.7" fill="none" stroke="#000" stroke-linecap="round" stroke-linejoin="round" stroke-width="12.44"/><path d="M351.02,421.05c56.8-13.13,70-5.32,83.49,52.93,3.74,16.13,8.32,30.38,22.13,40.32" fill="none" stroke="#000" stroke-linecap="round" stroke-linejoin="round" stroke-width="12.44"/><path d="M1040.65,284.28c-24.06,2.21-45.34,11.71-65.23,24.87" fill="none" stroke="#000" stroke-linecap="round" stroke-linejoin="round" stroke-width="12.44"/><path d="M677.2,411.72c-15.64,16-31.01,32.93-55.92,15.54" fill="none" stroke="#000" stroke-linecap="round" stroke-linejoin="round" stroke-width="12.44"/></g></svg>