<?xml version="1.0" encoding="UTF-8"?><svg id="b" xmlns="http://www.w3.org/2000/svg" viewBox="0 0 1050.63 460.11"><g id="c"><path d="M740.45,13.73c1.33,1.38,2.65,2.77,3.98,4.15,16.09,35.85,39.23,56.53,82.47,44.89,16.54-4.45,35.99-4.16,52.68-.04,35.22,8.69,61.42-.93,83-29.23,6.43-8.43,15.72-18.71,28.44-12.37,15.47,7.71,9.43,22.12,6.65,34.06-7.91,33.96-12.59,67.6-14.61,103-4.1,71.55-54.11,116.19-117.14,138.87-50.36,18.12-87.9-16.44-120.75-51.55-22.22-30.31-28.92-62.67-16.4-99.22,10.81-31.55.67-62.57-4.86-93.93-2.37-13.46-20.96-39.92,16.55-38.62Z" fill="#fcfcfc" stroke-width="0"/><path d="M759.19,32.47c-3.99,2.61-30.54-12.23-30.15-11.1,24.44,72.1-15.59,152.31,27.82,221.85-1.69,1.56-3.39,3.11-5.07,4.69-23.49-1.48-33.35-19.02-38.8-37.46-10.07-34.09-36.26-42.11-66.13-46.17-127.33-17.31-239.18,14.59-330.39,107.19-37.68,38.25-77.07,72.55-128.93,89.98-19.93,6.7-39.89,13.24-61.1,11.4-18.67-1.62-42.11,2.34-51.71-17.88-12-25.27,12.92-35.99,26.83-50.15-3.6-5.67-8.77-3.83-12.76-2.03-25.7,11.58-62.18,18.54-55.31,55.49,6.85,36.87,42.38,38.88,73.83,39.07,43.14.25,87.47,5.41,116.54-39.2,7.78-11.94,21.59-8.45,23.98,6.9,4.78,30.79,26.89,31.99,50.17,32.32,19.33.27,38.43,2.27,57.47,5.56,13.59,2.35,26.18,1.9,28.04-16.43,3.29-6.93,8.89-10.12,16.37-10.32,47.67,27.71,97.91,39.96,152.51,24.81,9.8-2.72,19.13-2.96,27.89,2.5,61.52,38.29,132.25,17.18,197.68,30.43,7.14,1.45,16-.71,23.23-11-50.09-32.11-114.01-23.69-165.61-52.03,11.19-22.55,28.95-22.54,43.95-20.64,60.56,7.68,122.67,13.47,172.47,53.73,19.07,15.42,30.81,10.94,45.11-3.26,18.89-18.77,41.84-29.95,68.13-33.69,10.73-1.53,24.78-6.1,29.78,7.24,5.53,14.74-7.33,22.96-17.91,30.45-11.53,8.16-28.97,5.3-39.41,22.94,27.12,13.45,50.53,5.87,69.95-11.3,18.61-16.45,6.02-35.55-2.04-53.04-3.41-7.39-6.02-14.92-5.33-23.26,1.19-4.9,4.07-8.41,8.61-10.54,9.23,11.05,19.79,21.26,27.47,33.3,30.8,48.26,10.13,97.41-46.54,94.06-141.04-8.35-283.67,23.4-423.8-21.21-41.31-13.15-89.8-9.51-134.29-5.56-68.01,6.04-132.98-8.87-199.29-16.5-32.5-3.74-66.5,5.59-99.82,8.98-9.59.97-19.18,2.56-28.79,2.65C44.57,425.77-2.69,390.44.12,348.07c2.6-39.21,71.67-85.29,118.89-78.62,10.71,1.51,22.8,2.8,27.56,15.89,5.4,14.85-2.24,24.75-12.81,33.12-8.43,6.68-17.51,12.54-33.13,23.6,52.75,12.23,91.82-3.9,126.95-28.66,26.07-18.38,48.63-41.89,71.98-63.92,109.86-103.64,237.93-143.3,385.6-105.96,37.36,9.45,43.99-4.96,39.86-34.67-3.74-26.88-10.83-53.3-16.24-79.96-2.27-11.17-5.15-24.04,9.04-28.6,10.16-3.26,36.5,23.11,41.37,32.19Z" stroke-width="0"/><path d="M756.86,243.22c34.31,24.18,65.19,66.5,113.76,40.19,57.45-31.12,112.25-70.21,105.35-146.91-3.46-38.45,20.42-70.72,17.12-107.71-4.13-1.29-9.1-3.44-9.44-2.87-9.7,16.53-20.88,27.64-33.07,35-40.54,24.48-109.65,41.52-160.34,14.6-25.49-13.54-55.21-41.09-50.06-53.25,1.16-2.75,3.92-4.26,6.16-5.13,3.89,5.89,10.25,14.2,19.93,22.17,7.04,5.8,16.21,13.36,29.24,16.41,11.91,2.79,17.11,4.11,38.29-2.65,11.7-3.74,26.29-3.49,38.29-.3,36.27,9.64,64.37,1.98,86.6-29.86,7.57-10.84,19.96-23.23,36.74-14.19,15.64,8.43,16.87,25.81,12.24,38.42-34.67,94.55-8.61,188.34,1.23,282.36-2.03,2.13-3.99,4.33-5.87,6.59-10.24,11.92-20.64,16.82-28.03-1.91-2.91-7.38.19-15.9,1.67-23.82,3.9-21.02,8.07-47.16-10.89-57.77-17.16-9.6-27.85,16.45-40.76,27.02-53.18,43.53-103.65,46.68-153.09,7.35-12.38-9.85-27.4-18.94-20.11-39.16,1.7-1.51,3.39-3.03,5.06-4.57Z" stroke-width="0"/><path d="M846.98,237.23c15.99,3.14,8.16,18.06,12.66,26.82,5.33,10.37-4.64,12.5-12.58,12.84-13.95.6-12.99-9.98-13.92-19.25-1.08-10.79,1.94-18.44,13.84-20.41Z" fill="#777676" stroke-width="0"/><path d="M751.8,247.79c64.13,82.22,108.9,77.61,221.64-25.08,13.52,34.67,26.91,65.36,10.28,103.78-11.95,27.61,11.47,8.34,19.29,9.6.8,3.11.94,6.62,2.52,9.27,14.33,24.09,42.6,47.87,21.38,77.29-19.44,26.95-54.86,22.15-85.14,23.17-12.33.42-29.21,1.7-30.91-14.78-1.74-16.9,14.12-24.06,27.87-28.77,17.73-6.07,44.47,7.74,50.66-27.44-38.82,8.68-79.32,8.85-98.4,53.18-7.94,18.46-30.19,16.46-35.31,6.44-36.36-71.18-109.93-53.42-167.51-72.68-12.46-4.16-28.53-5.46-46.75,4.51,35.58,7.86,67.61,13.94,99.07,22.16,30.56,7.99,62.8,12.18,89.65,31.22-2.07,18.42-17.39,23.85-27.37,23.07-76.28-5.96-154.74,14.29-228.8-28.29-17.6-10.12-55.66.49-84.26,2.18-36.91,2.18-68.67-5.83-92.37-36.05-37.1-6.26-74.26-11.53-112-8.81,35.01.99,70.87-6.38,102.33,17.07,11.14,11.47,22.91,27.56-4.53,27.3-43.05-.4-86.32-5.83-128.96-12.53-28.39-4.47-19.32-26.4-14.11-48.18-30.99,71.4-92.79,51.36-145.77,54.13-36.65,1.91-70.64-10.96-78.17-49.74-7.21-37.16,27.41-50.27,54.01-64.35,18.81-9.95,39.27-14.19,62.84-7.19-4.12,24.94-27.68,28.33-42.94,39.94-8.01,6.09-16.31,12.64-13,23.42,3.39,11.03,13.52,2.45,20.41,4.22,66.42,17.08,119.24-10.94,167.21-52.21,28.05-24.13,52.68-52.47,81.87-74.99,94.56-72.96,201.14-95.99,318.66-73.92,31.03,5.83,54.03,13.55,58.17,49.94,1.98,17.37,13.28,32.48,28.45,43.13Z" fill="#fdfdfd" stroke-width="0"/><path d="M387.65,388.82c-38.4-15.95-82.89,4.4-119.67-23.15,43.76-1.36,87.73-6.13,129.34,14.88-3.23,2.75-6.45,5.51-9.68,8.26Z" fill="#828182" stroke-width="0"/></g></svg>