<?xml version="1.0" encoding="UTF-8"?><svg id="b" xmlns="http://www.w3.org/2000/svg" viewBox="0 0 846.62 933.73"><g id="c"><path d="M580.57,531.76c47.27,37.59,92.04,75.69,132.71,118.29,47.55,49.81,90.5,102.9,117.04,167.39,8.17,19.85,15.84,40,16.28,61.84.86,42.95-33.32,65.68-73.08,48.91-19.89-8.39-33.79-23.75-46.43-40.36-18.14-23.85-30.71-50.86-42.87-78.03-33.88-75.69-74.58-146.83-135.88-204.23-5.93-5.56-11-12.44-19.66-15.28-10.96,8.72-19.3,19.68-26.99,31.1-9.1,13.52-11.42,27.84-4.4,43.23,8.9,19.5,17.38,39.18,26.15,58.73,7.08,15.79,14.28,31.52,16.09,49.03,2.95,28.59-13.27,41.4-40.81,32.35-10.08-3.31-18.46-9.27-26.46-15.99-20.32-17.08-37.05-37.45-51.67-59.33-34.62-51.82-78.38-94.65-126.78-133.37-62.67-50.15-128-96.99-187.75-150.75-31.97-28.76-62.54-58.89-85.47-95.68-6.56-10.52-12.04-21.79-17.1-33.12-4.75-10.64-5.57-21.84,3.22-31.05,8.22-8.62,18.98-7.42,29.23-4.84,16.3,4.11,30.59,12.65,44.59,21.68,9.71,6.26,19.5,12.41,29.93,19.03,6.49-10.73-1.25-17.16-4.76-23.48-21.14-38.09-45.06-74.62-63.8-114.07-7.72-16.26-15.46-32.62-18.15-50.58-3.27-21.81,5.72-29.95,27-25.41,2.71.58,5.73.69,8.02,2.03,37.38,21.83,66.81,7.02,94.68-19.24,9.42-8.87,12.46-16.91,7.48-29.11-4.95-12.1-9.18-24.72-11.78-37.5-3.35-16.48,4.92-23.35,21.22-19.61,9.8,2.25,17.43,8.3,25.22,13.96,32.97,23.97,65.81,48.13,100.84,73.79.62-12.57-5.2-20.45-8.25-28.91-3.75-10.43-8.27-20.57-8.69-31.85-1.02-27.32,15.19-38.19,40.12-26.91,16.09,7.27,29.09,18.51,40.43,31.85,14,16.45,25.63,34.6,34.47,54.13,24.57,54.27,63.29,96.63,107.96,134.97,59.86,51.37,118.56,104.1,177.53,156.5,31.64,28.11,61.08,58.3,84.41,93.94,9.16,14,16.83,28.56,20.02,45.2,5.38,28.05-8.38,40.82-36.4,34-12.34-3.01-22.83-9.76-33.71-15.69-13.35-7.28-26.36-15.19-39.53-22.8-45.36-26.17-55.22-24.71-94.22,15.26ZM38.73,122.34c4.96,28.35,15.8,50.59,27.91,72.27,19.56,35.02,39.33,69.93,59.16,104.8,6.76,11.88,9.11,24.45-1.03,34.51-10.73,10.64-21.8,2.32-31.89-3.65-16.66-9.85-32.95-20.35-49.93-29.6-6.86-3.74-15.97-9.54-22.86-2.14-6.58,7.07-1.03,15.85,2.51,23.17,14.41,29.78,37.31,53.12,59.79,76.56,51.46,53.68,110.99,97.92,169.63,143.12,73.15,56.39,143.22,115.72,194.25,194.3,10.18,15.67,23.27,29.32,38.01,40.97,6.42,5.08,13.6,9.87,21.22,12.63,11.93,4.32,19.02-.42,17.63-13.91-1.44-13.91-6.33-26.93-12.05-39.54-9.13-20.15-18.9-40.01-28.12-60.11-10.03-21.85-9.35-43.72,4.99-63.01,31.85-42.82,66.24-83.45,107.74-117.56,19.45-15.98,40.73-17.41,62.09-6.99,21.06,10.28,40.66,23.52,61.21,34.91,10.84,6.01,21.98,11.81,33.61,15.94,12.86,4.56,18.61-1.04,15.48-14.69-3.3-14.35-9.88-27.25-17.49-39.69-14.95-24.42-33.9-45.61-54.98-64.65-63.68-57.53-127.18-115.3-192.06-171.47-53.87-46.64-102.87-96.4-131.19-163.43-6.71-15.87-17.56-29.76-29.57-42.41-8.14-8.57-17.06-16.14-27.27-22.22-5.05-3.01-10.36-5.11-15.54-1.82-5.53,3.51-4.37,9.47-3.47,15.03,2.13,13.11,6.29,25.66,12.69,37.14,11.77,21.13,24.54,41.7,36.64,62.64,3.6,6.22,10.17,12.18.76,25.26-56.29-49.51-113.14-98.03-182.4-140.3,5.69,17.45,8.54,28.79,13.05,39.43,7.27,17.14,3.22,31.1-10.04,42.97-31.72,28.39-64.9,50.74-109.52,26.39-4.59-2.51-10.43-2.75-18.98-4.85ZM538.22,576.76c6.36,4.23,12.27,6.94,16.6,11.23,55.03,54.57,99.92,116.28,131.69,187.28,10.16,22.7,20.88,45.17,32.2,67.31,12.66,24.78,27.55,48.15,51,64.4,13.8,9.56,29.35,14.2,44.9,5.75,15.73-8.54,16.56-24.54,14.83-40.19-3.42-30.91-16.45-58.49-32.23-84.6-55.1-91.14-126.5-167.47-212.16-230.53-5.82-4.29-11.2-10.38-20.4-10.15-7.51,8.38-15.22,16.98-26.43,29.5Z" stroke-width="0"/><path d="M38.73,122.34c8.55,2.1,14.38,2.34,18.98,4.85,44.62,24.35,77.8,2,109.52-26.39,13.26-11.87,17.31-25.83,10.04-42.97-4.51-10.64-7.36-21.98-13.05-39.43,69.26,42.26,126.11,90.79,182.4,140.3,9.41-13.08,2.83-19.04-.76-25.26-12.11-20.94-24.87-41.51-36.64-62.64-6.39-11.48-10.56-24.03-12.69-37.14-.9-5.56-2.06-11.52,3.47-15.03,5.18-3.28,10.49-1.18,15.54,1.82,10.21,6.08,19.13,13.64,27.27,22.22,12.01,12.65,22.86,26.53,29.57,42.41,28.32,67.03,77.32,116.79,131.19,163.43,64.87,56.17,128.37,113.94,192.06,171.47,21.08,19.05,40.03,40.24,54.98,64.65,7.62,12.44,14.2,25.34,17.49,39.69,3.14,13.65-2.62,19.26-15.48,14.69-11.63-4.13-22.77-9.93-33.61-15.94-20.55-11.39-40.14-24.63-61.21-34.91-21.36-10.42-42.64-9-62.09,6.99-41.51,34.11-75.9,74.74-107.74,117.56-14.34,19.28-15.02,41.15-4.99,63.01,9.22,20.11,18.99,39.97,28.12,60.11,5.72,12.61,10.61,25.63,12.05,39.54,1.4,13.49-5.7,18.23-17.63,13.91-7.62-2.76-14.79-7.55-21.22-12.63-14.73-11.65-27.83-25.29-38.01-40.97-51.02-78.58-121.09-137.91-194.25-194.3-58.64-45.21-118.18-89.44-169.63-143.12-22.48-23.45-45.38-46.78-59.79-76.56-3.54-7.32-9.09-16.1-2.51-23.17,6.89-7.4,16-1.6,22.86,2.14,16.98,9.25,33.27,19.75,49.93,29.6,10.09,5.96,21.16,14.29,31.89,3.65,10.14-10.06,7.79-22.63,1.03-34.51-19.83-34.87-39.6-69.78-59.16-104.8-12.11-21.69-22.96-43.93-27.91-72.27ZM203.15,214.85c-5.73,1.39-15.41-9.05-17.22,4.39-1.33,9.88,5.49,15,14.28,17.15,6.81,1.67,12.3-1.76,15.98-6.99,4.1-5.83,8.37-10.06,15.93-11.48,14.55-2.73,17.64-13.86,16.49-26.53-.67-7.38-1.94-16.99-12.28-15.11-9.12,1.66-4.37,9.68-3.24,15.29.76,3.75.11,6.71-3.7,9.01-7.69,3.28-12.21-8.88-20.73-4.75-6.29,4.63-2.54,12.67-5.51,19.02ZM153.94,217.35c7.27-1.8,11.52-6.66,10.15-14.75-1.56-9.21-5.18-18.48-16.33-17.87-8.29.45-10.53,8.5-9.81,15.67.88,8.83,5.3,15.6,15.99,16.94ZM248.64,142.23c-1.06-9.52-6.34-15.53-15.6-15.97-7.2-.34-11.2,4.89-10.52,12.1.88,9.24,6.58,15.22,15.68,15.94,7.68.61,10.18-5.31,10.44-12.07Z" fill="#fff" stroke-width="0"/><path d="M538.22,576.76c11.21-12.51,18.92-21.12,26.43-29.5,9.2-.22,14.58,5.87,20.4,10.15,85.66,63.06,157.06,139.39,212.16,230.53,15.78,26.11,28.81,53.69,32.23,84.6,1.73,15.65.9,31.65-14.83,40.19-15.56,8.44-31.1,3.81-44.9-5.75-23.45-16.25-38.34-39.62-51-64.4-11.31-22.14-22.04-44.61-32.2-67.31-31.77-71-76.65-132.72-131.69-187.28-4.33-4.29-10.24-7-16.6-11.23Z" fill="#fff" stroke-width="0"/><path d="M203.15,214.85c2.97-6.35-.78-14.39,5.51-19.02,8.52-4.13,13.04,8.03,20.73,4.75,3.81-2.3,4.46-5.25,3.7-9.01-1.13-5.61-5.87-13.63,3.24-15.29,10.34-1.89,11.6,7.72,12.28,15.11,1.16,12.67-1.94,23.8-16.49,26.53-7.56,1.42-11.83,5.65-15.93,11.48-3.68,5.23-9.17,8.66-15.98,6.99-8.79-2.15-15.61-7.27-14.28-17.15,1.81-13.45,11.49-3.01,17.22-4.39Z" stroke-width="0"/><path d="M153.94,217.35c-10.7-1.35-15.11-8.11-15.99-16.94-.72-7.17,1.52-15.21,9.81-15.67,11.15-.61,14.77,8.65,16.33,17.87,1.37,8.09-2.88,12.94-10.15,14.75Z" stroke-width="0"/><path d="M248.64,142.23c-.26,6.76-2.75,12.67-10.44,12.07-9.1-.72-14.8-6.71-15.68-15.94-.69-7.2,3.32-12.44,10.52-12.1,9.25.44,14.54,6.45,15.6,15.97Z" stroke-width="0"/><path d="M345.24,148.48c-25.08-43.38-74.01-58.46-108.4-90.98-15.73-14.87-35.33-25.79-53.75-37.59-8.22-5.27-17.87-12.46-26.96-.07,2.78,10.27,5.05,20.83,8.5,30.99,10.75,31.63,9,34.74-14.43,54.29-27.54,22.98-55.65,31.98-89.79,14.81-7.24-3.64-18.44-11.61-26.31-2.24-6.4,7.62-1.55,17.39,1.33,26.74,14.65,47.57,43.5,87.74,67.12,130.58,6.25,11.34,10.39,24.06,19.96,33.89,2.2,2.26,2.8,11.06-1.59,16.14-4.92,5.71-10.5,5.82-16.62,2.08-15.91-9.72-32.17-18.91-47.64-29.28-8.46-5.67-17.66-8.66-27.16-9.96-17-2.31-23.09,5.68-18.67,22.61,9.89,37.9,37.21,64.25,62.6,91.13,64.81,68.63,142.86,121.84,216.07,180.57,53.37,42.81,102.45,89,140.87,145.83,14.16,20.95,30.09,40.19,49.88,56.08,2.28,1.83,3.83,4.79,6.32,6.08,12.51,6.5,26.17,15.98,39.03,3.87,9.9-9.33,5.05-23.01,2.41-34.9-6.74-30.45-24.4-56.41-36.18-84.79-9.55-23.01-9.66-42.64,5.38-60.35,32.98-38.83,63.02-80.56,103.61-112.35,17.45-13.67,35.88-13.75,56.16-4.53,28.06,12.77,51.96,32.67,80.67,44.43,12.24,5.01,24.6,13.49,34.98,3.1,10.47-10.48,3.75-24.23-1.31-36.94-14.44-36.29-39.4-65.08-67.01-90.97-52.22-48.94-106.41-95.78-159.59-143.69-40.4-36.39-84.13-69.37-118.32-112.22-24.19-30.31-37.19-67.36-58.23-99.64-11.72-17.98-27.61-31.85-43.62-45.72-8.7-7.54-20.49-9.26-28.75-5.39-10.52,4.93-9.34,17.13-6.87,28.34,2.6,11.85,7.42,22.45,12.46,33.3,4.44,9.56,8.43,19.84,6.51,31.03" fill="none" stroke="#000" stroke-linecap="round" stroke-linejoin="round" stroke-width="8.31"/><path d="M571.65,534.82c57.33,44.81,112.34,92.23,159.81,147.59,43.6,50.84,83.45,103.99,102.4,170.07,4.47,15.6,6.56,31.81,2.8,45.6-9.26,33.86-52.2,32.14-73.75,14.58-31.62-25.76-51.11-60.23-66.73-97.39-37.6-89.48-88.86-169.67-161.92-234.76" fill="none" stroke="#000" stroke-linecap="round" stroke-linejoin="round" stroke-width="8.31"/><path d="M237.23,181.71c7.48,24.63,6.97,25.42-18.69,29.08" fill="none" stroke="#000" stroke-linecap="round" stroke-linejoin="round" stroke-width="8.31"/><path d="M212.3,194.17c.69,4.15.17,9.12,2.3,12.31,6.48,9.71-3.21,14.3-6.95,18.4-6.8,7.45-11.4-1.54-16.13-5.79" fill="none" stroke="#000" stroke-linecap="round" stroke-linejoin="round" stroke-width="8.31"/></g></svg>