<?xml version="1.0" encoding="UTF-8"?><svg id="b" xmlns="http://www.w3.org/2000/svg" viewBox="0 0 832.52 1072.5"><g id="c"><path d="M617.55,576.79c.11-.62.2-1.24.31-1.86.08-.46.61-.44.85-.15l180.19-374.09c-3.18-2.62-8.01-5.98-14.09-6.04-12.43-.13-21.96,13.74-30.91,21.02-118.88,96.59-109.35,184.57-109.35,184.57-22.94,78.33-19.32,112.53-27.01,176.56Z" fill="#706f70" stroke-width="0"/><path d="M546.99,723.68l-.09.2c2.04,12.17,3.98,24.88,5.8,38.17-.73-12.98-2.12-25.86-5.7-38.37Z" fill="#706f70" stroke-width="0"/><path d="M544.12,715.02c-.07-.2-.02-.35.1-.46-.07-.22-.09-.45-.08-.68-.43-1.7-.72-3.44-.86-5.19-.14-1.78-.13-3.55-.03-5.33-26.28-139.93-67.85-201.28-105.42-229.97-10.68-8.16-43.19-38.48-81.54-83.07-25.36-29.48-59.92-69.65-45.82-101.89,25.8-59,7.24-121.12,29.33-179.12,9.49-24.92,28.46-66.34-4.93-84.33-32.53-17.53-50.67,23.15-73.88,40.57-15.55,11.67-22.02,34.48-50.41,29.84-48.9-7.99-104.28-.62-118.8-67.89-.89-4.15-5.94-7.48-9.26-11C57.93-9.61,39-4.33,32.3,29.47c-15.51,78.19-21.72,158.12,1.12,234.91,14.57,48.98,17.68,93.68.96,141.3-28.13,80.11-27.06,161.03-8.58,243.57,19.45,86.85,29.31,175.27,28.23,264.57-.33,27.54,1.08,54.69-33.25,67.51-17.95,6.7-24.16,25.71-19.06,45.18,5.69,21.72,21.89,30.63,43.21,32.06,20.09,1.35,38.48-3.41,54.84-15.25,8.09-5.86,12.48-18.27,25.56-2.18,29.52,36.34,68.03,32.05,104.78,13.31,13.88-7.08,24.82-10.22,40.22-7.71,37.35,6.09,74.27,5.61,112.46,17.84l164.11-340.7c-.07-.42-.14-.84-.21-1.26-.76-2.55-1.6-5.08-2.56-7.6Z" fill="#706f70" stroke-width="0"/><path d="M831.56,247.06c-2.31-12.17-9.59-28.87-32.66-46.38l-180.19,374.09c.09.11.14.25.11.42-.37,2.07-.71,4.15-1.03,6.22-2.61,16.81-3.83,33.79-5.38,50.72-.76,8.34-1.61,16.67-2.74,24.97-1.11,8.19-2.57,16.32-4.01,24.45-2.71,15.3-5.75,30.57-9.98,45.54-4.35,15.39-10.09,30.22-17.15,44.56-7.17,14.58-15.11,28.78-21.67,43.65-.17.38-.86.29-.91-.12-1.04-7.33-1.63-14.72-2-22.11-1.17-23.26-.52-46.93-6.96-69.4l-164.2,340.9c86.05,17.39,118.92,3.15,132.7-13.96,8.57-10.64,26.69-24.81,43.75-60.37,3.84-8.01,12.54-14.27,20.12-19.83,31-22.72,49.46-54.03,66.5-87.8,51.05-101.15,67.26-207.51,57.66-319.73-6.11-71.46,7.31-107.33,11.21-118.68,35.48-103.27,128.2-137.3,116.82-197.15Z" fill="#706f70" stroke-width="0"/><path d="M143.53,741.34c.33,79.2-12.55,154.15-24.69,229.08-6.34,39.14-22.12,71.74-68.11,75.54-16.04,1.32-28.67-6.23-34.66-21.28-5.96-14.99,2.8-27.61,15.06-31.54,40.99-13.13,40.73-45.74,39.94-78.6-2.32-95.54-11.34-190.29-33.48-283.57-16.79-70.76-13.43-141.09,7.77-210.62,9.42-30.88,20.64-61.41,14.93-106.42,84.31,61.94,160.39,60.69,232.26-14.19,17.36,72.11,63.44,117.59,111.04,161.96,65.03,60.62,96,135.82,118.18,222.32,25.34,98.85,9.24,196.4,17.39,294.09,2.86,34.27-14.58,59.52-52.23,63.8-32.08,3.65-64.23,7.37-96.46,8.75-16.46.71-33.3-4.66-36.84-24.54-3.89-21.83,10.42-34.4,28.34-39.16,21.16-5.62,43.58-6.46,69.75-9.95-63.21-18.93-85.22-11.85-115.27,37.18-19.21,31.34-47.8,21.55-72.45,15.47-27.97-6.9-10.79-29.07-7.4-44.19,13.2-58.75,40.91-111.95,65.06-166.59,12.05-27.27,29.17-54.49,18.75-91.18-29.83,103.93-95.15,190.62-107.49,297.24-2.41,20.85-23.94,24.95-42.38,24.36-16.79-.53-38.39,7.74-48.24-12.1-8.95-18.03,12.09-27.38,18.27-41.2,30.54-68.32,51.4-138.86,48.1-215.24-2.02-46.78-45.89-19.23-65.14-39.43Z" fill="#fefefe" stroke-width="0"/><path d="M54.27,9.41c13.08,12.46,21.88,16.89,23.95,23.44,20.25,63.95,65.35,80.18,128.17,77.41,21.6-.95,35.81-4.15,49.91-17.79,13.9-13.45,27.61-27.15,42.2-39.83,8.14-7.07,17.03-18.9,29.03-11.99,11.4,6.57,6.53,20.74,5.12,30.88-7.38,53.1-23.43,103.87-23.19,159.47.22,51.03-84.6,116.08-133.42,116.92-54.98.95-123.58-53.81-134.81-112.65-14-73.38-9.96-146.59,13.05-225.87Z" fill="#fdfcfc" stroke-width="0"/><path d="M813.47,248.8c.35,2.2.7,4.41,1.04,6.61-.5,1.16-1.34,3.12-2.43,5.53-31.51,69.89-71.59,87.48-100.09,148.64-6.94,14.89-10.54,26.67-12.96,34.7-18.63,61.81-10.87,111.88-8.03,139.31,0,0,17.91,138.52-71.35,316.65-12.39,24.73-29.11,45.82-59.98,58.5-9.32-48.79-3.79-88.38,21.43-128.95,44.81-72.07,50.15-155.44,54.25-238.2,4.72-95.43,12.04-190.51,59.25-276.89,18.74-34.29,40.39-66.35,73.27-89.03,4.27-2.94,11.36-12.16,19.46-10.62,2.5.47,4.38,1.76,5.59,2.79" fill="#fbfbfb" stroke-width="0"/><path d="M151.5,765.69c35.3.13,49.15,16.37,43.66,45.88-8.18,43.97-18.4,87.58-28.3,131.21-2.17,9.55-7.33,19.27-19.42,16.36-13.49-3.25-9.11-15.41-7.62-23.77,9.9-55.42,12.28-111.35,11.66-169.67Z" fill="#f7f7f7" stroke-width="0"/><path d="M186.37,305.49c.54,8.25,14.31,23.97-9.98,18.15-7.11-1.7-24.16.77-12.71-14.33,9.09-11.99-9.77-34.67,10.51-36.05,24.68-1.69,10.27,20.28,12.19,32.24Z" fill="#595859" stroke-width="0"/></g></svg>