<?xml version="1.0" encoding="utf-8"?>
<!-- Generator: Adobe Illustrator 28.1.0, SVG Export Plug-In . SVG Version: 6.00 Build 0)  -->
<svg version="1.1" xmlns="http://www.w3.org/2000/svg" xmlns:xlink="http://www.w3.org/1999/xlink" x="0px" y="0px"
	 viewBox="0 0 869.2 1168.8" style="enable-background:new 0 0 869.2 1168.8;" xml:space="preserve">
<style type="text/css">
	.st0{fill:#FDFDFD;}
	.st1{fill:#FCFCFC;}
	.st2{fill:#EEEDED;}
	.st3{fill:#5A5859;}
	.st4{fill:none;stroke:#000000;stroke-width:5;stroke-miterlimit:10;}
</style>
<g id="b">
	<g id="c">
		<path d="M296.4,777.9c27.2-26,26.4-65.3,47.2-93.4c43.8-58.9,88-118.6,151.7-156.5c66.3-39.4,74.1-96.4,62.2-162.4
			c-10-55.1-24.4-109.4-33.3-164.6c-13.5-83.8,19.5-158.4,80.1-188.7C624.6,2.3,647.4-8,666.1,9.3c20.4,18.9,1.3,38.9-9.6,54
			c-30,41.4-26.1,86.3-19,132.1c11.3,72.3,37.8,140.7,55.7,211.1C720,512,766.1,608.9,810.5,706.6c47.9,105.5,42,218.9,57.6,329.1
			c4.8,33.7-6.5,68.2-25.1,97c-16.5,25.5-43.8,36-70.6,17.9c-27.5-18.7-21.2-40.3,1.3-63.3c22.6-23,10.5-72.5-22-89.6
			c-27.2-14.3-51.6-32.3-80.2-52.6c-5.9,22.2-11.1,42.4-16.6,62.5c-27.8,101-103.5,162.2-207.2,161.2c-96.6-0.9-193.7,1-289.1-19.1
			c-12.7-2.7-22.6,1.4-34.2,4.3c-40.9,10.2-100-18.3-114-56c-10.3-27.8,1.7-49.2,31.2-51.3c54.5-3.9,51.3-38.7,27.4-64
			c-52.7-56-23.5-135.8-65.3-194.8c-15.4-21.7,19.2-21.2,27.6-16.8c52,27,101.2,6.8,152.1-2.3c29.6-5.3,55.6-11.4,76.1-35.2
			c8.9-10.3,19.2-29.5,36.4-18.7c13.5,8.5,2.4,24.9,1.2,38C296.6,760.3,287,767,296.4,777.9L296.4,777.9z"/>
		<path class="st0" d="M657.7,902.7c-25.9,220.6-124.8,263.4-291.4,245.3c-72.1-7.8-146.1,6.9-216.9-19.4
			c-19.3-7.2-36.5,14.9-58.1,10c-15-3.4-33.6-2.5-35.8-21.1c-2.5-21.1,17.5-22.3,31.9-24.5c41.1-6.3,82.4-11.4,124.2-21.6
			C163.8,1060.7,97,1085.7,95,998.8c27.5,5,55.1,10.3,82.8,15.1c87.7,15.2,178.5-87.2,145.3-169.8c-13.7-34.2-11.1-55.2,3.2-88.1
			c35.8-82.5,88.2-153.5,161.2-198.9c94.8-59,98.2-137.4,77.2-228.6c-14.5-63-30.3-125.4-23.4-190.9c5.8-55.3,32.5-95.6,83.1-119
			c9.1-4.2,20.6-7.2,28.3,1.6c3.1,3.5,2.5,14.1-0.6,18.5c-73.9,105.8-16.7,209.2,6.9,312.1c32.5,142.1,100,271.8,150.8,407.4
			c37.5,100.3,31.8,206.7,36.5,311.1c1.2,26.8-4.4,59-39.9,69.2c-12,3.5-23.7,4.8-32.2-6.8c-10.1-13.8,1.4-20.4,9.4-29.4
			c29.4-33,20.4-92.7-20.3-116.5C726.4,964.1,691.8,940.5,657.7,902.7L657.7,902.7z"/>
		<path class="st1" d="M14.3,779.6c99.7,41.1,178.1,6.4,259.4-25.1c-5.2,21.2-1.2,42.3,18,64.4c28.5,32.8,34.8,74.4,6.6,112.2
			c-29.6,39.6-61.8,77.8-120.6,65.8c-19.8-4.1-40.7-4.7-59.6-11.2c-34.7-11.8-67.7-29.6-67.7-72.1C50.4,870.2,37.6,831,14.3,779.6
			L14.3,779.6z"/>
		<path class="st2" d="M105.6,1066.2c-19,13.7-42.3,7.5-56,23.8c-6.5,7.8-17,14.4-24.7,3.1c-7.7-11.3-3.8-23,10.4-27.1
			C57.2,1059.7,79.6,1043.1,105.6,1066.2L105.6,1066.2z"/>
		<path class="st3" d="M214.4,929.1c-26.6,4.5-35.5-8.2-26.6-38.1C206.2,897.5,201.8,918.7,214.4,929.1z"/>
	</g>
</g>
<g id="Layer_2">
	<path d="M175.9,921.8c-19.3,6.1-38.1,13.4-56.1,21.8"/>
	<path d="M174.3,914.7c-20.3,2.2-40.4,5.7-60.2,10.5"/>
	<path d="M179.6,927.1c-17,9.8-35,18.5-53.5,26.1"/>
	<path d="M213.3,908.8c18.8-7.5,37.9-13.8,57.3-18.6"/>
	<path d="M210.1,902.3c17.1-11.1,34.9-21.2,53.2-30"/>
	<path d="M213.8,915.3c19.4-3.2,38.8-7.8,58-13.7"/>
	<path class="st4" d="M95.2,869.9c15.9,2.3,32.8-3.7,43.7-15.4"/>
	<path class="st4" d="M205.2,838.9c15.9,2.3,32.8-3.7,43.7-15.4"/>
</g>
</svg>
