<?xml version="1.0" encoding="UTF-8"?><svg id="b" xmlns="http://www.w3.org/2000/svg" viewBox="0 0 665.29 1065.6"><g id="c"><path d="M567.34,255.84c-2.69-11.42,5.93-17.04,12.83-22.48,16.66-13.13,33.17-33.9,56.59-23.13,24.55,11.29,21.06,38.94,15.11,57.98-13.78,44.11-15.15,83.13,7.06,126.76,13.23,25.99,4.34,59.83-12.93,88.57-67.07,111.64-89.91,244.34-166.75,351.73-11.13,15.55-5.88,36.25,4.36,53.11,22.68,37.32,30.39,82.74,73.51,109.13,24.27,14.85,14.68,41.71-10.22,55.84-22.46,12.74-48.43,15.77-72.18,8.04-41.83-13.62-75.42-43.38-123.46-49.38-32.28-4.04-22.3-43.94-4.72-74.83-33.92,3.54-52.66-8.41-60.29-38.49-4.07-16.05-13.63-31.28-23.14-45.22-10.78-15.79-13.19-47.94-44.82-32.13-27.3,13.64-49.64,32.95-38.2,69.31,1.39,4.42,3.05,8.77,4.34,13.22,6.73,23.14,22.85,47.49-.98,68.92-23.87,21.46-53.13,9.95-80.2,7.78-17.33-1.39-23.57-14.39-20.37-30.15,14.9-73.44-12.27-139.05-45.31-199.7C-15.91,652.52-3.54,553.87,20.97,453.27c3.69-15.16,10.16-30.17,5.9-45.29C.17,313.17,34.37,235.51,92.72,163.58c37.28-45.95,36.82-47.14-15.29-72.89-19.57-9.67-35.49-20.71-32.5-44.83,3.11-25.08,21.36-38.87,43.89-41.55,49.28-5.85,101.44-12.74,138.42,30.9,35.29,41.65,27.87,89.08,7.92,135.7-16.39,38.3-33.24,76.42-48.78,115.07-8.12,20.19-5.92,31.46,22.03,26.91,32.39-5.27,64.46,2.19,95.11,14.59,31.79,12.87,39.18-.17,32.35-30.17-5.48-24.07-11.62-48.43-7.9-73.46,2.25-15.16,3.74-31.95,20.64-38.98,17.54-7.3,35.3,3.51,39.78,15.44,26.48,70.4,84.14,56.77,138,55.11,13.84-.43,27.7-.17,41.54-.22,17.27,20.53,16.01,34.17-14.23,33.3-23.12-.66-46.32-3.73-69.37-1.95-44.54,3.44-83.64-2.2-101.89-50.84-1.03-2.75-3.97-4.67-6.42-6.57-2.53-1.95-5.36-3.01-12.38-3.64-12.08,18.83-5.97,39.45-.62,59.27,4.56,16.88,10.73,34.86-3.18,48.19-49.58,47.54-42.25,101.55-20.97,157.93-.41,5.14-3.06,8.57-7.91,10.31-27.96-.58-34.31-22.52-41.4-42.93-4.09-11.76-1.82-24.73-3.81-36.84-3.84-23.36,16.42-54.34-9.95-69.09-31.94-17.87-69.14-14.45-103.66-1-20.35,7.93-37.37,21.79-54.75,34.84-7.01,5.26-14.98,14.28-24.17,6.26-9.63-8.41-6.47-19.78-1.19-29.91,2.87-5.5,6.5-10.95,11.66-14.32,76.5-49.94,85.93-138.39,111.19-212.89,29.12-85.89-31.52-110.57-103.03-106.76-12.33.66-25.81,5.44-28.9,19.48-2.79,12.68,8.93,18.2,17.65,24.58,58.57,42.86,60.17,51.55,14.25,108.12-54.23,66.83-82.46,137.95-64.28,227.6,10.34,51.01-16.49,102.89-23.32,155.05-6.53,49.86,1.03,95.14,19.97,140.31,31.03,73.98,70.15,145.75,65.18,230.01-.91,15.35,7.64,23.08,22.46,23.28,16.57.23,26.96-7.83,26.47-25.11-.59-20.97-6.89-39.72-26.23-51.44-20.76-12.59-15.09-23.15,2.26-33.31,30.59-17.91,51.59-49.6,87.36-60.29,13.25-3.96,18.86-14.71,20.68-28.19,1.18-8.69,1.5-20.15,14.79-18.77,8.04.83,15.96,7.52,16.08,14.84.86,52.63,39.43,89.31,55.89,135.19.11,9.04-14.68,12.48-12.47,15.17,5.89,7.16,12.74-2.33,19.54-3.81,47.47,8.41,64.58,47.88,85.78,83.43,29.36,49.22,53.21,58.07,104.1,37.56-40.68-39.15-53.08-92.39-74.79-140.92-11.5-25.69-2.6-48.26,9.2-70.73,33.8-64.35,73.09-125.99,96.84-195.3,6.86-20.01,18.71-39.11.45-60.65-15.22-17.96,2.14-28.04,14.53-36.42,25.24-17.06,43.23-39.5,55.09-67.25,8.97-20.97,13.19-44.52-.02-62.61-27.71-37.94-21.13-74.96-5.73-113.87,3.36-8.49,5.01-17.85.87-27.8-21.68-11.13-35.92,27.35-58.26,9.17Z" stroke-width="0"/><path d="M567.34,255.84c15.25,3.07,20.38-11.51,30.36-17.58,11.27-6.86,21.58-20.61,35.99-10.89,11.82,7.97,10,24.29,5.67,34.34-20.48,47.56-15.86,89.71,6.28,137.85,21.01,45.69-18.15,100.06-88.11,139.89,37.79,6.19,34.09,27.77,24.77,53.18-25.05,68.32-54.24,135.2-94.81,195.17-32.02,47.35-32.37,88.9-3.58,135.77,10.79,17.56,24.53,35.72,23.19,58.29-.8,13.48,8.24,15.37,16.86,16.67,15.09,2.27,28.84,6.22,25.89,24.81-2.67,16.78-18.3,19.24-31.96,21.61-44.41,7.72-78.46-4.78-98.53-48.44-18.95-41.2-44.19-77.4-89.94-93.27l.1.23c.9-12.08-6.76-19.92-13.64-28.35-30.52-37.38-55.27-77.26-51.56-132.1.95,39.24-14.17,54.41-50.11,60.81-36.79,6.55-46.75,57.81-89.82,60.34,31.52,10.92,60.17,56.14,53.08,84.84-7.67,31.08-33.52,20.93-53.57,21.46-15.91.42-34.03-2.15-28.14-25.32,16.5-64.94-4.93-124.96-34.73-177.75C1.33,661.69,5.57,555.13,37.87,444.87c4.01-13.68,5.65-26.3,1.71-40.62-22.05-80.02,2.95-148.91,51.97-211.72,6.66-8.54,13.03-17.3,19.58-25.93,40.09-52.79,39.18-56.85-21.52-86.11-13.83-6.67-31.83-10.57-31.21-29.52.66-20.44,18.49-28.47,35.21-31.31,43.34-7.36,89.01-10.46,121.3,24.86,31.86,34.85,23.86,77.82,6.9,118.01-20.32,48.16-48.5,92.95-54.92,146.79-2.94,24.7-32.68,25.17-47.56,39.97-10.54,10.48-26.48,16.64-27.4,42.19,44.29-36.68,86.72-69.27,144.41-61.14,13.72,1.94,27.42,4.05,41.14,6.03,24.73,3.56,31.91,11.65,23.44,40.05-13.62,45.63-13.41,92.62,32.36,125.23,21.84,3.41,36.31,23.74,58.54,26.15-19.66-7.67-39.98-14.17-52.83-32.93-45.32-59.67-44.21-104.3,5.74-161.02,12.08-13.72,23.25-24.57,4.83-41.09-2.76-2.47-3.3-8.83-2.89-13.2,2.46-26.14-17.43-64.93,11.44-75.12,27.35-9.66,39.48,28.78,49.03,51.81,7.16,17.28,16.45,18.11,31.32,17.91,39.93-.56,79.74-7.42,119.88,2.36,27.6,6.72,9.35-12.69,9.6-21.31,0,0-.59.63-.59.63Z" fill="#fdfdfd" stroke-width="0"/><path d="M376.25,1008.04c-17.53-2.14-32.41-9.1-30.64-30.86.95-11.69,6.23-30.06,16.73-28.6,21.36,2.97,30.6,24.18,35.95,42.95,4.35,15.26-10.23,15.41-22.04,16.5Z" fill="#f3f3f3" stroke-width="0"/><path d="M329.52,903.48s-.07-.2-.08-.22c8.98,21.17-.1,27.01-17.06,15.91-10.05-6.57-17.04-20.61-10.7-37.03,9.73,7.46,18.78,14.4,27.84,21.34Z" fill="#e0e0e0" stroke-width="0"/><path d="M517.91,471.33c-28.09-14.16-55.83-25.31-88.53-2.64,24.7-21.72,48.56-37.59,29.5-71.62-4.22-7.53.26-16.23,8.75-18.07,6.92-1.5,15.3-.29,21.99,2.35,7.22,2.84,14.64,11.15,8.26,18.02-33.11,35.66,1.95,48.89,20.03,71.96Z" stroke-width="0"/><path d="M338.98,494.88c28.14,13.33,54.57,30.27,84.84,39.72-37.15,7.3-65.62-8.04-90.55-32.95,1.2-2.84,3.11-5.1,5.71-6.77Z" fill="#888" stroke-width="0"/></g></svg>