<?xml version="1.0" encoding="UTF-8"?><svg id="b" xmlns="http://www.w3.org/2000/svg" viewBox="0 0 1097.88 1007.97"><g id="c"><path d="M700.37,405.21c.79.66,1.57,1.32,2.36,1.99,7.05-.21,9.4,4.84,11.42,10.24,1.01,1.71,2.01,3.42,3.02,5.13,0,6.4-4.39,4.22-7.41,3.44-5.75-1.47-11.35-3.6-17.4-1.66-1.3.07-2.57-.12-3.8-.53-12.79-9.28-24.28-20.29-37.9-28.46-1.07-.66-2.08-1.39-3.09-2.13-5.46-4.06-11.34-7.45-17.34-10.64-3.05-2.02-5.99-4.22-9.3-5.83-3.3-1.78-6.67-3.39-10.1-4.91-16.56-7.92-32.61-17.05-52.45-22.51,3.04,10.62,7.05,18.82,10.61,27.16,2.54,5.95,3.14,11.72-2.01,16.64-5.18,4.94-10.67,4.84-16.18.39-11.49-14.8-14.99-33.78-25.78-49.03-4.79-6.78-8.8-14.15-13.55-21.01-3.15-5.9-8.15-10.35-12.23-15.52-14.66-18.59-32.9-33.7-48.07-48.38,3.59,11.1-3.59,24.21-2.27,37.58-.86,5.5-2.39,10.84-3.56,16.27-3.12,11.33-5.38,22.93-10.3,33.71-2.88,6.88-6.43,13.45-9.58,20.2-19.37,35.33-47.31,61.77-83.08,80.11-9.54,4.46-18.68,9.9-29.27,11.76-7.1.46-13.47-.95-15.13-8.97-1.76-8.52,3.97-12.82,10.73-15.84,5.53-2.47,11.12-4.8,16.58-7.4,3.03-1.49,6.18-2.77,9.24-4.2,7.52-3.05,13.73-8.25,20.42-12.66,2.06-1.35,4.18-2.62,6.07-4.23,12.11-12.18,25.6-23.1,34.37-38.27,3.77-5.33,7.02-10.96,9.58-16.99,6.75-14.53,13.29-29.12,14.53-45.42,5.13-22.65,6.02-45.62,5.54-68.69,2.33-4.69-2.32-20.57,11.43-7.19,2.39-5.47,6.11-4.36,10.09-2.06,7.01,5.39,15.95,8.4,20.66,16.65,4.82,4.06,9.63,8.11,14.45,12.17,3.28-.26,4.82,1.41,5.03,4.54,10.47,11.14,20.94,22.29,31.41,33.43,9.24,4.81,13.3,13.5,16.9,22.54v-.07c21.25,1.43,39.84,11.36,59.05,19.06,23.27,9.32,44.96,21.83,66.02,35.4,3.89,2.51,7.85,5.04,9.42,9.82,2.67,1.87,5.35,3.74,8.02,5.61,9.82,3.58,16.81,10.6,22.88,18.75Z" fill="#202020" stroke-width="0"/><path d="M445.33,229.59c-1.67-.66-4.16-2.36-4.87-1.8-3.84,3.01,3.34,4.66,1,8.16-5.69-.73-6.98-7.49-12.06-9.57-.37,2.5-.7,4.75-1.03,7-4.33-1-4.92-4.6-5.67-8.09-1.07-7.16-1.8-14.4-4.93-21.08-1.08-1.68-1.92-3.46-2.42-5.39-.53-2.64-.38-5.22.87-7.65,1.17-1.85,3.78-3.57,2.06-6.02-10.68-15.23-10.27-22.73,2.48-38.82,1.7.76.23-3.11.57-1.27-7.36,1.29-7.79-4.44-9.29-9.14,1.44-24.9,8.63-49.17,7.32-74.38-.55-10.61-.44-21.24-1.92-31.75-3.51-10.52-13.54-7.94-20.93-10.62,4.08,3.04,11.5-1.46,13.55,6.23-4.51,7.34-12.99,8.13-19.73,11.63-11,5.72-21.75,11.77-31.89,18.89-11.68,8.12-22.6,17.2-33.49,26.31-3.84,3.21-7.22,7.24-13.01,6.55-8.51-8.23.65-16.59-.19-24.9,3.97-8.22,9.75-14.33,19.11-16.22,2.78-2.01,5.57-4.02,8.35-6.04,3.62-5.36,8.1-9.48,14.85-10.34.93.11,1.57-.27,1.9-1.15,17.64-17.25,38.74-26.41,63.45-25.78,8.7.22,16.08,4.39,19.01,13.67-.4,6.04-3.62,11.82-1.69,18.1-7.19,10.35-11.99,21.37-9.22,32.54.27-2.92-.17-7.74.02-12.53.11-2.71-.29-5.97,3.48-6.44,4.21-.52,6,2.82,6.18,5.98,1.02,17.73,5.45,35.63-1.76,53.1-1.17.82-2.63,1.37-3.65.28-2.1-2.25-1.41-4.79-1.44-4.56.13,7.93,5.07,17.47,6.59,27.61-5.12,21.81-1.56,42.71,6.79,63.07,2.92,7.11-.21,14.57,1.52,21.72.18,1.43.35,2.86.53,4.29,1.8,2.9,2.45,5.75-.45,8.41Z" fill="#232323" stroke-width="0"/><path d="M26.22,161.49c-1.13-12.5-2.27-25-3.4-37.5-1.69-4.51-1.86-9.13.39-13.38,4.36-8.21,4-16.83,2.96-25.6.39-3.85,1.71-7.25,4.79-9.77,1.51-.58,2.9-.37,4.18.63,2.34,3.11,2.59,6.77,2.77,10.45.04,4.79-.09,9.61,1.48,14.25.84,13.02,6.28,25.1,7.25,38.37,4.54-1.45,5.47-5.42,7.71-8.08,15.07-17.91,15.29-22.41,2.87-42.37-3.46-5.55-7.79-10.43-11.71-15.62-4.98-6.59-7.34-13.59.73-19.41,7.46-5.37,14.15-2.58,19.62,3.78,11.09,12.86,18.4,27.87,24.48,43.56,1.87,6.76-.5,14.86,6.33,20.08-1.24,11.01-12.94,13.51-17.74,21.76-2.96,5.08-8.24,8.55-11.29,13.75-10.16,14.01-18.51,28.9-22.69,45.87-1.97,6.6-3.73,13.24-4.56,20.1-2.23,6.75-1.37,14.97-9.08,19.11-6.13-1.19-6.06-6.51-6.42-10.8-.84-10.04-2.91-19.81-5.26-29.56,0-13.57,11.15-25.28,6.58-39.61Z" fill="#1f1f1f" stroke-width="0"/><path d="M807.02,733.28c-1.02,1.01-2.03,2.01-3.05,3.02-6.4-4.8-8.45-11.47-8.23-19.1.33-32.16,6.03-64.34-.22-96.51-.63-3.22.19-6.32,1.65-9.41.6-1.28,6.88,1,2.14-4.13-5.63-6.1-3.83-14.96-4.72-22.66-.73-6.22,4.16-7.71,9.24-8.38,6.69,5.77,13.41,8.21,21.02,1.3,2.37-2.15,5.63-3.29,9.1-2.79,2.25.81,5.17,2.37,3.4,4.71-5.29,7.01,2.43,6.72,4.78,9.43,1.02.88,1.58,1.99,1.66,3.34-3.99,7.54-12.3,9.61-18.44,14.42-4.5,3.53-9.94,6.94-8.8,13.22,2.58,14.21,1.33,28.64,2.83,44.56,8.39-4.52,15.08-9.34,22.09-13.57,4.59-2.59,9.39-4.79,14.11-7.14,4.83-2.1,9.7-4.1,15.09-4.23,5.65.96,11.22.85,16.62-1.38,5.84-1.75,12.6-3.96,16.33,2.24,3.7,6.13-5.97,6.82-6.81,11.69-11.88,9.01-26.08,12.52-39.92,16.91-2.71,1.28-5.42,2.56-8.13,3.84-6.54,7.7-13.75,14.52-23.4,18.23-1.71,1.96-3.41,3.92-5.12,5.87-5.11,11.92-5.05,25.71-13.21,36.52Z" fill="#222" stroke-width="0"/><path d="M272.09,954.33c-1.74.1-4.37.97-5.07.17-4.94-5.67-4.47-31.05.25-37.78,3.81-5.43,2.71-11.7,1.26-17.27-1.58-6.05-7.65-3.46-11.9-3.83-4.12-.36-8.3-.08-12.45-.08-2.32-4.56-5.89-6.37-11.11-6.02-3.86.26-8.65.87-9.03-5.32,6.67-7.29,17.24-8.63,23.98-15.79,9.62-8.34,12.8-20.24,17.35-31.38.9-.92,1.97-1.53,3.23-1.81,6.93,4.78,4.53-5.85,8.88-5.4,12.11,3.51,20.14,14.05,31.82,18.36,2.57.95,4.23,3.98,3.75,6.86-1.73,10.4.92,21.19-2.78,31.4-1.54,2.63-3.99,4.22-6.52,5.71-22.39,10.71-33.53,27.76-30.12,53.12.42,3.13,1.26,6.43-1.54,9.05Z" fill="#fafafa" stroke-width="0"/><path d="M272.09,954.33c-7.55-32.31,3.77-56.26,30.5-64.57,3.85-2.1,6.75,3.19,11.62.54-2.62-19.34,4.15-39.12,1.51-59.35-1.16-8.87,1.18-17.56,2.78-26.2.7-3.77,1.56-8.82,7.86-6.92,4.48,5.75,5.46,12.27,4.4,19.26-2.42,10.24-2.47,20.49,0,30.73,1.7,10.59,1.95,21.28.07,31.81-1.86,10.39-.71,18.39,11.19,21.51,4.68,1.23,7.84,4.77,9.4,9.49-3.26,11.6-9.24,15.12-21.23,12.45-3.65-.81-7.1-2.24-10.25-4.2-7.29-4.55-14.3-9.42-21.89-.28-6.37,7.66-7.72,21.71-2.11,29.95,2.87,4.22,6.6,7.74,10.95,10.52,5.98,4.3,13.55,5.6,19.35,10.25,1.57,1.46,2.74,3.17,3.34,5.25.21,1.44.02,2.82-.56,4.14-8.51,8.64-19.08-.92-28.12,3.21-6.44.19-10.99-2.78-13.94-8.39-4.96-6.41-9.92-12.81-14.89-19.22Z" fill="#1f1f1f" stroke-width="0"/><path d="M798.29,716.46c-1.13,7.48,5.29,12.8,5.68,19.84-.05,2.67-.11,5.34-.16,8.01-2.68,24.57-16.85,43.88-29.51,63.81-4.74,7.45-10.48,14.27-15.86,21.31-14.24,13.34-26.61,28.69-42.95,39.82-3.91,2.66-7.5,5.51-12.45,5.69-6.91-1.92-12.34-5.65-15.22-12.49,3.88-10.97,14.76-15.02,22.74-21.44,16.87-13.59,30.12-30.11,43.23-46.93,2.25-3.15,4.3-6.44,6.35-9.72,7.69-14.31,15.79-28.41,20.54-44.08,1.48-4.39,2.95-8.79,4.19-13.27,2.4-6.38,2.29-13.71,7.26-19.1,7.12-.8,5.43,4.75,6.17,8.55Z" fill="#202020" stroke-width="0"/><path d="M445.25,216.89c-5.1-17.13-8.53-34.68-14.81-51.55-4.18-11.23,4.43-22.22,3.8-33.74-1.37-1.88-1.13-3.92-.61-6,1.47-4.2-.58-8.57.65-12.79,2.41-9.41,1.8-19.31,4.73-28.62-.25-15.09.91-30.2-.84-45.25-.81-2.82-1.28-5.75-2.76-8.36-.81-3.7.51-7.19,1.14-10.74-5.02-13.6-16.16-13.82-27.82-12.55-19.91,2.18-35.61,14.24-52.78,22.83-1.95-2.78-1.35-5.08,1.12-7.26,1.73-1.53,4.83-3.77,4.52-5.01-7.62-30.95,22-5.58,26.62-17.71,16.02,2.14,32.05.11,48.07-.15,9.06-.15,12.28,3.66,12.25,12.53-.19,59.43-.17,118.86,0,178.29.03,8.9-.47,17.59-3.3,26.06Z" fill="#f5f5f5" stroke-width="0"/><path d="M692.01,422.63c6.27-6.19,12.48-1.89,18.4.48,2.72,1.09,4.69,2.51,6.75-.55,12.64,9.11,20.39,22.76,31.25,33.53,6.45,2.57,9.16,7.84,10.28,14.26,1.21,1.79,2.43,3.58,3.64,5.37,5.34,2.33,5.64,7.78,7.56,12.22.13,2.07.28,4.12,2.73,4.88,5.15,3.26,7.36,8.23,8.14,14.02,1.19,5,3.01,9.71,6.28,13.76,9.03,8.65,11.62,19.91,12.89,31.69-2.65,3.75-7.09,6.3-7.75,11.43-.66,1.01-1.54,1.78-2.61,2.34-2.62-1.72-5.47-.64-8.27-.66-8.14-12.7-10.45-28-18.29-40.82-1.19-2.95-2.04-6.03-3.38-8.92-6.48-10.58-11.16-22.25-19.42-31.75-1.27-1.43-2.33-2.99-3.23-4.67-5.8-9.72-13.17-18.2-20.86-26.42-2.93-3.12-5.98-6.12-8.89-9.26-3.66-4.66-6.58-9.99-11.9-13.17-2.12-2.16-5.23-3.91-3.33-7.78Z" fill="#222" stroke-width="0"/><path d="M78.98,431.44c-5.53-3.99-11.06-7.97-16.6-11.96-6.05-.95-8.96-5.44-11.54-10.28-2.88-2.91-5.75-5.82-8.63-8.73-8.45-4.37-13.04-11.76-15.99-20.44.11-.9-.23-1.57-1.03-2.01-5.06-3.04-7.06-7.71-7.12-13.41,2.41-8.56,9.89-8.66,16.67-9.97,10.25,6.52,12.43,19.27,20.98,27.11,14.76,17.05,32.48,30.25,52.51,40.45,1.21.51,2.37,1.1,3.53,1.71,11.89,7.31,26.55,8.75,37.62,17.77.54,1.28.53,2.56,0,3.84-5.31,4.67-10.99,3.12-17.04,1.55-16.21-4.2-20.31-1.36-21.8,14.76-.42,4.55-1.89,8.79-2.97,15.62,1.25-4.34.9-7.07,3.71-7.88,1.45.23,2.54.95,3.26,2.23,3.46,11.69-1.97,22.85-2.03,34.33-.47,1.45-1.27,2.68-2.37,3.72-1.54.53-2.9.24-4.11-.85-1.33-1.85-2-3.95-2.31-6.18-.6-6.42.15-13-2.14-19.25-.94-4.24-1.13-8.54-1.18-12.85-.6-7.89,2.07-16.06-2.01-23.64-5.81-6.05-15.3-7.53-19.42-15.65Z" fill="#1f1f1f" stroke-width="0"/><path d="M112.9,550.7c.5-.81.38-1.52-.37-2.11-6.36-7.36-6.14-16.44-6.65-25.34.24-4.93.27-9.92,3.97-13.85h0c1.01-1.74,3.65,1.96,3.76-.71.52-12.83,3.37-25.75-.95-38.46h0c-.54-1.79-.18.61-.73-1.17-1.75-5.67-4.89-13.16,1.88-15.8,7.65-2.98,6.05,7.08,9.58,10.5,2.11,6.5,1.42,13.21,1.63,19.86-.24,5.93-.48,11.85,1.51,17.59.77,14.23,5.44,27.68,8.36,41.47,2.59,10.77,4.6,21.64,5.86,32.65-.03,2.16-.53,4.18-1.83,5.94-11.99,6.38-3.69-7.69-7.72-8.36.63,6.89-1.1,14.46,3.17,21.06,3.38-3.23-.93-9.43,4.16-12.17,6.58.19,7.84,5.55,9.56,10.16,3.21,8.59,5.79,17.4,8.9,26.03,1.58,5.33,3.67,10.56,3.43,16.26-.46,2.69-.84,6.28-3.96,6.37-4.43.13-2.85-4.99-4.75-7.33-1.14-1.41-1.43-2.89-.65-1.19,0,.02-.1.09-.12.1.86,2.85,4.32,6.06.32,8.44-2.92,1.74-4.34-1.55-6.17-3.63-1.72-1.96-1.93,3.73-4.55,1.77-5.52-2.59-2.91-8.57-5.23-12.49-.9-5.74-2.29-11.32-5.57-16.25-9.98-13.1-11.35-28.98-14.55-44.32-1.04-4.99-.09-10.23-2.27-15Z" fill="#202020" stroke-width="0"/><path d="M669.47,380.85c-41.56-28.27-87.21-47.99-134.51-64.28,22.3-5.82,44.82-2.83,67.17-.79,3.44.31,2.24,9.44-.24,10.97-8.53,5.28-2.21,5.38,1.66,7.1,8.41,3.75,17.7,3.14,26.08,2.67,13.47-.76,21.49,1.09,19.41,16.88-.33,2.53,1.07,5.3,1.67,7.95,23.81-4.39,24.02-4.17,18.77,19.5Z" fill="#f6f6f6" stroke-width="0"/><path d="M608.81,915.58c-1.21.84-2.42,1.69-3.64,2.53-9.25,4.3-14.07,15.41-25.4,16.51-1.17.83-2.34,1.65-3.51,2.48-9.21,12.41-22.39,17.04-36.99,18.93-2-.56-3.52-1.78-4.67-3.47-.95-4.19-3.32-8.1-2.54-12.66,3.08-3.13,8.73-2.49,10.64-7.31,1.59-3.23,5.8-4,6.9-7.52-5.41-2.24-10.15.94-15.17,1.62-15.16,1.15-30.26,2-44.1-6.12-.45-11.39,5.75-15.48,16.28-14.67,23.4,1.81,46.86-.31,70.25,1.06,4.69.28,9.73.79,13.58-1.29,11.77-6.36,15.83-.02,18.34,9.91Z" fill="#242424" stroke-width="0"/><path d="M918.87,537.48c5.51-.04,9.21-3.94,13.61-6.37,5.77-8.77,14.77-13.19,23.76-17.63,5.3-1.38,8.95-6.1,14.35-7.2,8.42-1.71,4.92-6.49,2.92-10.92-.11-5.82,2.2-10.08,7.85-12.2,7.94-.64,13.7,2.4,16.75,10.01-.38,8.41-6.39,13.89-10.58,20.32-8.65,8.6-16.83,17.69-26.19,25.57-8.98,5.9-16.99,13.5-27.82,16.24-3.11.71-9.5-6.38-8.69,3.7-5.59,7.23-13.89,8.69-22.05,10.49-5.03-1.6-9.89.63-14.77.63-7.75,0-16.47-.2-14.95-12.18,4.13-5.89,11.37-5.8,16.98-8.87,9.55-4.02,19.37-7.34,28.83-11.59Z" fill="#242424" stroke-width="0"/><path d="M109.5,524.57c-1.49,8.33,3.41,15.84,3.03,24.03-3.58,5.86-6.95,2.17-9.91-.36-4.31,2.46,6.95,10.1-4.65,10.55-9.83.38-7.64-5.54-7.66-10.64-.09-30.47.08-60.94-.24-91.41-.03-3.37,3.81-10.09-5.46-9.4-4.92.37-11.79,3.84-14.75-2.43-3.87-8.19,7.57-7.85,9.12-13.45,8.15,1.94,13.28,9.91,21.87,10.99,4.96,9.35-.43,19.83,3.17,29.32-1.39,4.23-.42,8.36.53,12.48,2.76,6.59-.65,13.84,2.2,20.42.19,1.58.37,3.15.56,4.73,2.49,4.81-.15,10.35,2.19,15.18Z" fill="#f6f6f6" stroke-width="0"/><path d="M407.08,968.45c-6.87,5.48-12.95,12.2-22.03,14.27-8.17-.36-15.49-2.24-19.28-10.58-.15-1.44.12-2.82.78-4.11,4.14-3.87,9.94-4.72,14.44-7.95,21.16-13.92,23.65-37.84,31.59-58.85,2.67-7.07,1.33-16.12,9.88-20.35,10.81,5.81,12.44,16.27,13.67,26.96-3.66,20.19-10.64,38.89-24.38,54.58l.05-.06c-1.13,2.38-2.51,4.57-4.73,6.1Z" fill="#212121" stroke-width="0"/><path d="M1078.13,475.82c2.89-.57,4.52-8.48,8.38-2.13,5.23,8.59,6.45-.72,10.88-2.6.74,18.96,1.48,36.89-4.34,54.23-3.84-2.7-2.17-8.87-4.3-12.11-13.32,18.79-11.57,42.96-21.53,63.43,4.37,1.7,4.29-3.63,7.97-2.94-.63,7.37-5.4,10.15-11.27,7.71-6.28-2.61-9.5,1.15-13.7,3.61-3.87-2.16-6.16-5.4-6.75-9.82,1.41-6.6,6.19-11.18,10.01-16.27,11.58-15.41,17.98-32.94,21.78-51.61,4.88-10.14-1.45-21.31,2.87-31.49Z" fill="#f6f6f6" stroke-width="0"/><path d="M175.01,70.38c25.39-2.92,50.82-4.75,76.38-2.98,4.57.32,9.35-.5,13.57,2.1-1.08,4.08,4.97,1.17,4.47,4.51-.4,2.69-2.55,3.59-4.89,4.15-21.07,5.13-42.22,8.94-65.75,2.53,6.66,4.59,14-1.88,17.79,5.4-7.6,7.54-17.23,3.85-26.02,4.78-5.1-.14-10.24-.71-15.23.95-1.39.39-2.82.6-4.26.69-3.57-.14-7.13-.33-8.62-4.46,2.7-3.41,7.19-3.02,11.03-5.44-3.82,1.93-7.7,2.19-10.64,4.71-6.56,1.32-12.23-1.17-17.78-4.17-.74-2.12-.49-4.12.66-6.04,8.34-8.45,19.61-4.11,29.29-6.72Z" fill="#1f1f1f" stroke-width="0"/><path d="M175.01,70.38c-9.59,2.74-19.19,5.48-28.78,8.22-5.34,4.6-10.61,5.12-15.41-.66-5.6-6.75-13.09-11.27-19.6-16.94-11.52-9.22-23.7-17.46-36.72-24.44-4.53-3.28-11.85-3.5-12.41-11.19,6.26-1.52,12.42-3.77,19.04-2.84,2.25.32,6.27.32,6.46,1.17,2.7,11.64,10.28,12.2,19.72,9.46,1.92-.56,4.9-1.77,4.33,2.42-1.77,13.05,6.11,11.68,14.48,9.83,10.86-2.4,8.87,6.96,8.04,11.12-1.83,9.14.96,10.99,9.54,11,10.43.01,21.06-.19,31.29,2.85Z" fill="#f4f4f4" stroke-width="0"/><path d="M26.22,161.49c6.82,13.92-1.42,26.63-3.22,39.85-.87,11.8-1.11,23.68-4.6,35.15-2.94,11.04-5.86,22.08-8.1,33.29-.85,4.28-.49,9.51-6.47,10.82-6.43-16.2-2.84-33.12-2.72-49.62.09-11.88.99-23.79-.5-35.6-1.33-10.55,1.45-16.8,14.08-15.41-3,6.61-11.43,10.93-10.21,22.04,11.94-12.62,20.69-24.44,21.75-40.53Z" fill="#f6f6f6" stroke-width="0"/><path d="M224.6,884.75c3.02,3.19,6.6,2.68,10.19,1.4,9.84-3.51,11.63.9,9.38,9.4-26.14-.03-52.28-.11-78.42-.03-4.01.01-7.3-.64-9.26-4.54-2.97-5.91-7.95-5.16-13.07-3.84h.01c-.17-3.65,1.24-8.35-1.79-10.62-10.18-7.64-6.75-16.62-3.57-25.8,5.4-.35,5.59,4.84,8.1,7.57,10.04,16.07,26.14,20.67,43.47,22.92,9.72,3.42,19.51,1.73,29.3.42,2.29.31,4.3,1.12,5.65,3.12Z" fill="#f4f4f4" stroke-width="0"/><path d="M703.68,873.44c20.1-11.94,35.3-29.53,52.09-45.28,3.33-1.59,4.81.56,6.13,3.03-.36,1.81-1.4,3.8-.97,5.4,3.54,13.12-4.41,14.37-13.97,13.52-8.36-.74-9.01,3.47-7.68,10.09,1.79,8.97-.39,14.05-11.36,12.16-8.07-1.39-14.74.28-11.03,11.62,1.37,4.2-.27,7.98-5.69,9.3-4.4,1.07-8.84,4.42-12-1.49-1-1.87-2.01-6.02-3.64-2.96-6.77,12.74-17.83,4.35-26.62,6.45-.41-1.25-.26-2.42.5-3.51,2.28-2.23,5.15-3.51,7.9-5,9.03-3.95,15.83-12.33,26.35-13.32Z" fill="#f4f4f4" stroke-width="0"/><path d="M1045.07,576.55c3.34,1.83,5.13,4.6,5.15,8.45,5.25,16.08,4.17,18.06-12.7,18.52-5.55.15-8.65,1.11-9.85,6.84-1.83,8.78-7.88,12.45-16.47,14.37-13.26,2.95-27.63,2.11-39.43,10.57-.38-.46-.76-.92-1.15-1.38-1.08-3.53,1.39-6.69,1.09-10.16,13.24-9.12,28.78-14.26,41.49-24.35,6.51-5.16,12.79-10.51,18.73-16.3,3.63-3.54,7.41-7.06,13.12-6.57Z" fill="#f3f3f3" stroke-width="0"/><path d="M761.9,831.19c-2.04-1.01-4.09-2.02-6.13-3.03,20.21-25.54,36.34-53.43,48.04-83.85,5.4,22.49,7.85,44.05-18.68,56.85,8.1-1.48,14.83-4.11,20.62-12.21.6,10.95-.08,16.51-11.85,15.72-5.45-.37-16.95.69-10.32,13.76,1.94,3.83.09,11.14-8.63,10.15-4.32-.49-9.43-1.78-13.05,2.62Z" fill="#f6f6f6" stroke-width="0"/><path d="M1016.54,444.66c-8.22-.86-7.83-6.61-7.54-12.69.32-6.55,4.3-7.18,9.33-6.5,16.42,2.21,32.98-2.17,49.49,1.44,5.41,1.19,8.22,2.02,7.57,8.1-.97,9.06,1.96,18.55-3.02,27.18-11.05-.26-15.09-13.79-26.25-13.82-1.97-.31-3.92-.74-5.85-1.24-7.62-3.71-16.31,2.87-23.74-2.47Z" fill="#f6f6f6" stroke-width="0"/><path d="M608.81,915.58c-1.82-2.05-3.4-4.4-5.51-6.09-2.59-2.08-5.59-10.39-8.58.52-.49,1.8-10.68,1.34-16.37,1.24-24.71-.43-49.48-.32-74.09-2.13-8.6-.63-9.19,6.38-14.04,8.91-7.8,4.81-13.85.4-19.95-3.77-4.88-6.91-14.85-12.98-3.83-22.59,1.3-.32,2.61-.29,3.89.15,2.23,8.46,8.64,4.49,13.69,4.55,8.91,1.37,17.58,3.99,26.53,5.17,5,1.64,10.13,1.44,15.28,1.16,11.72-.04,23.44-.12,35.15-.02,5.16.21,10.33.66,15.36-1.09,2.79-.77,5.62-1.39,8.49-1.79,8.35-2.03,16.5-5.13,25.3-4.77,7.91,3.34,21.99-2.61,21.18,13.97-2.68,5.45-8.58,3.86-12.84,5.85-3.21.25-6.43.49-9.64.74Z" fill="#1f1f1f" stroke-width="0"/><path d="M14.52,67.29c-3.33,2.83-2.32,6.74-2.63,10.36-1.24,14.33,5.39,29.92-7.9,42.54C-2.24,95.53,1.58,70.33,1.09,45.36c-.03-1.31.95-2.62,1.2-3.98,1.04-5.8-5.36-13.62.28-16.87,6.4-3.69,15.03-.45,22.65.63,3.38,4.8-1.5,7.67-2.63,11.43-5.4,9.53-1.15,21.6-8.07,30.72Z" fill="#f5f5f5" stroke-width="0"/><path d="M140.8,638.11c3.8-10.19,6.1-1.17,10.01,1.72-.72-4.81-1.27-8.52-1.78-11.98,2.55-2.08,2.13.51,2.92.95,2.52,1.38-1.36,9.28,5.84,5.73,8.96,3.7,7.75,13.02,11.01,19.88,1.3,8.36,6.06,16.05,4.97,24.9-1.26,4.63-1.56,9.53-3.65,13.94-2.86,4.25-1.14,8.85-1.07,13.36.08,4.83.53,9.94-4.28,13.01-5.59-2.59-.88-8.23-4.29-10.8,1.75,2.87,1.86,5.72-.64,8.44-.9-3.04-1.79-6.08-2.69-9.13-6.91-23-16.4-45.39-16.35-70.01Z" fill="#232223" stroke-width="0"/><path d="M957.45,514.22c-8.55,5.3-15.05,13.62-24.97,16.89-2.67-2.54-5.2-5.23-8.04-7.56-2.39-1.96-6.81-3.29-3.67-7.15,2.07-2.54,6.66-2.56,9.08-.62,8.44,6.76,10.16,1.32,11.11-5.63,1.11-8.1-3.12-17.94,13.69-15.1,13.23,2.23,16.7-7.98,9.33-23.42,7.58,1.45,14.58,2.78,21.59,4.12,2.24,3.82-.09,5.85-3,7.66-2.76,3.96-5.53,7.92-8.29,11.87-1.73,9.76-9.04,14.56-16.83,18.94Z" fill="#f1f1f1" stroke-width="0"/><path d="M3.83,280.6c3.77-15.11,7.54-30.22,11.3-45.33,7.29,1.47,5.75,7.68,5.65,12.12-.28,11.94.39,24-3.17,35.71-1.91,6.29-1.64,12.7,1.09,18.84,1.8,3.34,2.23,7.14,3.64,10.62.96,2.35,2.01,4.67,2.82,7.08.38,1.26.57,2.55.65,3.86-.86,3.44-.23,9.07-6.6,4.59-1.86-1.31-.38.94-1.01.93.7,5.03,2.15,10,1.73,15.14-.37,4.47.39,9.95-6.91,9.46-10.32-10.62-9.49-24.06-9.43-37.3-.09-1.87-.19-3.74-.28-5.6-1.86-7.45-1.84-14.9,0-22.36.18-2.58.35-5.17.53-7.75Z" fill="#1f1f1f" stroke-width="0"/><path d="M140.8,638.11c5.58,23.31,15.52,45.6,16.35,70.01-1.94,3.64-4.91,6.95-9.02,5.61-4.2-1.37-1.54-5.32-.67-7.92,1.64-4.91,2.43-9.68.28-15.27-3.17,7.75-4.5,15.3-6.37,23-.47-5.58-.93-11.17-1.4-16.75-.55,0-1.09.01-1.64.02-.28,5.36-.56,10.71-.85,16.07h-2.19c0-28.87,0-57.74,0-86.61,1.84,3.94,3.67,7.89,5.51,11.83Z" fill="#f4f4f4" stroke-width="0"/><path d="M20.31,33.73c1.64-2.86,3.28-5.72,4.92-8.58,12.35-8.61,24.6-2.51,36.88.23,4.68,2.93,9.37,5.85,14.05,8.78-4.02,9.45-13.38,8.44-21.03,10.76-6.75.33-15.32-5.11-18.7,5.94-3.02,8.02,1.58,17.53-4.93,24.81-.93,2.8-1.87,5.6-2.8,8.4-3.93.85-5.19-2.18-5.04-4.71.88-15.38-.99-30.52-3.34-45.63Z" fill="#1e1e1e" stroke-width="0"/><path d="M1047.29,445.26c11.48,1.03,17.62,9.96,25.09,16.93.86,2.7,1.72,5.39,2.58,8.09-4.27,14.88-12.46,3.51-19.06,2.88-1.22-.39-2.36-.94-3.44-1.62-2.04-1.66-3.32-3.73-3.4-6.41-2.32-8.87-6.29.6-9.27-.78-4.96,1.28-9.89,1-14.83-.08-6.33-3.41-17.72-.37-16.78-13.08,4.43-.09,5.34-4.68,8.39-6.53,8.73-.85,17.44-4.9,26.2-.18-.58,1.33-1.67,1.77-3.03,1.73,2.62.43,5.22.68,7.58-.95Z" fill="#252525" stroke-width="0"/><path d="M286.98,973.55c4.18,2.08,8.37,4.16,12.55,6.24,5.29,1.83,12.87-.71,14.72,7.69.29,2.44-6.25,4.04-2.03,5.9,4.92,2.17,5.2,13.36,12.73,8.13,10.92-7.59,23.06-.72,33.48-5.42-.56,15.07-11.44,11.04-19.85,11.35-6.47.24-13.24,1.21-19.39-.23-11.74-2.75-28.79,1.45-28.17-20.21.09-3.32-9.82-6.4-4.04-13.44Z" fill="#f5f5f5" stroke-width="0"/><path d="M834.26,576.38c-9.24,2.02-15.62,9.38-24.14,12.94-5.16-3.07-2.24-9.8-5.99-13.5-4.3-1.11-5.43-3.74-3.71-7.74,1.19-.94,2.4-.91,3.61-.04,3.49-3.71,7.08-3.98,12.43-4.74,14.54-2.06,32.24,3.18,43.38-11.93.45-.42.9-.84,1.35-1.26,13.4-1.14,4.28,7.36,5,11.67-5.11,7.35-14.29,7.37-21.08,11.71-3.29,2.21-7.35,1.49-10.85,2.89Z" fill="#f4f4f4" stroke-width="0"/><path d="M20.31,33.73c8.02,13.03,8.49,27.17,6.07,41.71-.54,3.27-.79,6.38,2.32,8.63,3.55,10.43,4.01,20.23-3.78,29.48-2.01,2.38-1.46,6.91-2.09,10.45-1.83-8.65-3.65-17.3-5.48-25.95-3.12-6.48.68-13.77-2.39-20.26-.14-3.5-.29-7-.43-10.5,1.26-11.3-.45-23.12,5.79-33.56Z" fill="#272727" stroke-width="0"/><path d="M468.78,892.43c-11.63,7.85,2.11,13.01,2.08,19.63-6.07,2.5-11.79,5.01-4.52,12.49,1.85,1.9,3,4.48,2.48,7.4-.25.39-.47.81-.77,1.15-3.49,3.88-6.48,1.85-9.41-.82.33,4.81-1.05,8.18-6.71,7.92-1.11-1.11-2.21-2.23-3.32-3.34.25-4.4-.51-7.92-6.23-7.17-2.37-1.43-3.54-3.51-3.52-6.27,2.41-9.68,2.78-19.69,4.63-29.47,1.05-5.53,2.39-10.66,7.97-13.41,7.98.76,14.6,3.49,17.32,11.9Z" fill="#202020" stroke-width="0"/><path d="M314.25,987.48c-4.91-2.56-9.82-5.13-14.72-7.69,5.07-2.81,10.06-3.77,15.84-1.39,4.18,1.73,9.01,2.56,12.77-1.69,5.04-4.82,11.16-2.02,16.84-2.65,6.28-.7,13.63,4.33,18.84-3,1.07-.82,2.2-.91,3.38-.27,3.57,7.55,12.85,6.55,17.85,11.94-22.9,11.96-46.85,8.37-70.8,4.76Z" fill="#262626" stroke-width="0"/><path d="M138.24,826.41c-8.35-12.14,3.04-25.38-4.57-39.04,7.68,4.2,8.45,9.52,8.64,15.4,11.33-7.17-1.24-11.19-.63-16.6,14.19,3.98,18.61.25,17.16-19.2-.73-9.73,1.57-18.78,1.57-28.17,1.64-.79,2.99-.44,4.05,1.03,3.82,16.08,2.83,32.65,4.77,48.94,1.14,9.6-6.78,14.38-13.05,19.69-6,4.59-9.86,11-14.18,17.01-1.11.85-2.36,1.19-3.75.94Z" fill="#f2f1f2" stroke-width="0"/><path d="M856.87,668.81c12.14-9.14,27.32-11.79,40.38-18.95,3.73-3.65,7.63-6.57,12.99-2.86,2.78,3.88.34,6.31-2.28,8.87-2.27,2.21-4.44,4.66-.54,7.42.99,2.47,1.97,4.94,3.14,7.87-17.85-2.21-36,4.68-53.69-2.36Z" fill="#f5f5f5" stroke-width="0"/><path d="M3.58,316.31c3.46,12.24,6.92,24.48,10.37,36.72,5.66,2.24,5.14,7.45,5.81,12.09,1.81,4.3,3.63,8.6,5.44,12.9-5.33.66-10.67,1.79-16,1.8-3.65,0-8.6-2.07-7.94-6,3.2-18.85-3.96-37.87,1.33-56.57.11-.38.64-.63.98-.95Z" fill="#f2f2f2" stroke-width="0"/><path d="M150.56,808.41c16.74-8.06,15.32-22.41,13.5-37.37-1.23-10.09-1.07-20.36-1.53-30.55-2.32-5.95.91-12.57-2.21-18.43-.16-1.61-.33-3.21-.49-4.82.36-3.09.72-6.19,1.5-12.92,1.36,6.39,1.97,9.24,3.08,14.48,1.95-8.23,1.97-13.84-.2-19.46-1.64-4.25-1.97-7.69,4.45-5.3.37.52.74,1.03,1.12,1.55-.13,4.02,1.11,8.15-.52,12.07,1.62-3.84.32-7.99.94-11.96.37-1.45,1.33-2.16,2.79-2.24,4.52,2.31,4.15,6.76,4.77,10.78.19,1.38.29,2.76.37,4.15.75,4.86,2.36,9.58,2.42,14.55.13,3.62.41,7.34-.73,10.79-2.45,7.47-6.07,6.89-10.09,1.1-.63-.68-1.03-1.48-1.3-2.34-.53-1.75.46-3.32.57-4.99-.42,1.27-.92,2.56-.88,3.91.06,1.9,1.55,3.28,2.04,5.07,2.49,19.27,3.76,38.62,1.97,57.92-1.27,13.66-8.44,17.68-21.6,14.01Z" fill="#1c1c1c" stroke-width="0"/><path d="M1008.15,451.19c1.76,9.64,12.23,5.36,16.8,10.51-10.76,8.98-14.59,24.18-27.8,30.96-4.86-3.08-9.72-6.17-14.58-9.25,1-2.55,2-5.11,3-7.66,1.08-1.7,2.15-3.4,3.23-5.1,1.57-10.01,7.72-16.18,16.75-19.93.92-.14,1.79.01,2.61.47Z" fill="#202020" stroke-width="0"/><path d="M971.78,635.31c-.73,10.27-4.58,15.05-16.4,13.44-10.76-1.47-22.05-.2-32.96,1.05-4.43.51-6.83-1.03-9.59-3.37,1-7.65,8.64-5.64,12.74-8.81,12.52-3.52,24.67-8.17,36.93-12.48,1.98-.4,3.93-.3,5.79.55,3.84,2.23-3.25,8.46,3.51,9.63h0Z" fill="#f5f5f5" stroke-width="0"/><path d="M630.37,909.57c-1.87-12.72-13.66-8.01-20.64-11.75.31-2.28,1.72-3.74,3.59-4.87,11.01-3.48,21.18-9.78,33.16-10.12,3.95.94,4.68,9.01,11.89,3.99,3.87-2.69,9.5.71,11.68,6.18-.46.71-.83,1.47-1.12,2.26-2.56,1.19-5.12,2.38-7.69,3.57-1,1.58-1.94,3.21-3.65,4.17-3.41,1.67-7.04,2.82-10.39,4.65-5.45,2.04-10.6,6.83-16.83,1.92Z" fill="#252525" stroke-width="0"/><path d="M112.9,550.7c5.61,19.77,11.21,39.55,16.82,59.32-9.31.93-7.21,12.32-16.82,16.75v-76.07Z" fill="#f6f6f6" stroke-width="0"/><path d="M217.3,84.61c-6.86-.34-13.72-.68-20.57-1.02,10.74-1.36,21.18-4.6,32.17-2.66,11.14,1.96,13.29.68,19.42-8.22,2.13-3.1,3.91-1.13,5.56.15,3.96,3.08,8.18,3.56,12.45,2.12,3.89-3.35-11.29-.32-1.37-5.47,9.84,1.75,19.68,3.5,29.53,5.26,1.83-1.08,3.77-1.24,5.8-.72,2.87,1.45,6.39,2.85,5.38,6.83-.98,3.88-4.43,4.22-7.84,3.41-5.01-1.18-10.25.95-15.06-.61-8.09-2.62,1.92,5.19-2.65,4.32-2.44,1.72-5.19,2.12-8.06,2.13-2.25-.03-4.44-.36-6.62-.87-8.19-2.29-16.53-1.23-24.83-1.15-7.85-.6-16.15,1.75-23.3-3.48Z" fill="#1e1e1e" stroke-width="0"/><path d="M537.99,954.14c14.2-2.45,25.72-10.91,38.28-17.04,6.81,8.8,3.69,18.95-6.75,21.81-9.45,2.58-19.19,5.8-28.72,1.95-7.64-3.08-15.23,4.65-22.37-1.01.47-2.18,1.77-3.69,3.72-4.71,5.19-1.69,10.36-3.93,15.84-.99Z" fill="#f3f3f3" stroke-width="0"/><path d="M440.77,923.39c.81,1.89,1.61,3.79,2.42,5.68.68.65.89,1.28.62,1.89-.26.6-.51.9-.75.9-9.57,6.33-21.3,9.79-17.85,26.63,1.72,8.41-7.78,5.87-13.46,3.93,9.22-17.86,17.7-36.01,22.14-55.76-1.4-3.38-.15-6.42,1.42-9.28,1.2-2.19,3.24-3.34,5.82-2.64,2.88.78,3.64,3.26,2.56,5.43-3.72,7.47-1,15.62-2.91,23.23Z" fill="#eee" stroke-width="0"/><path d="M138.24,826.41c.73-.23,1.41-.55,2.05-.97,10.13-3.54,15.86.38,17.91,10.56.71,4.47,2.32,8.88,1.16,13.5-1.63,11.05,6.62,9.82,13.23,10.61,3.38.87,6.63,1.91,7.87,5.71-10.74,9.36-19.49,8.45-30.71-5.41-3.24-4-4.97,1.17-6.73-1.06-4.32-1.35-1.25-6.93-4.95-8.64.06-8.1.11-16.2.17-24.3Z" fill="#212121" stroke-width="0"/><path d="M451.93,940.2c3.39-7.46,9.99-8.6,17.12-8.72,17.2,2.56,34.48,4.64,51.61,7.71,1.21,1.17,1.54,2.56,1.02,4.16-4.96,4.54-11.25,3.01-17.03,3.73-4.77.45-9.17,2.36-13.75,3.56-7.47,1.25-15.33-1.66-22.59,2.09-6.38-.54-11.08-3.74-14.36-9.14-.67-1.13-1.34-2.26-2.01-3.4Z" fill="#262626" stroke-width="0"/><path d="M804.04,568.03c-.73.08-1.47.13-2.2.13-5.88-3.45-7.33-8.05-3.66-14-3.71-11.19-7.42-22.38-11.12-33.56,2.42-1.19,4.85-2.38,7.27-3.57.61,7.72,15.29.74,12.87,13.72-2.25,12.08-.12,24.97-3.15,37.27Z" fill="#f3f3f3" stroke-width="0"/><path d="M299.83,74.94c-1.78-.06-3.56-.12-5.34-.18-2.84-10.48,1.02-19.57,6.02-28.38,5.23,2.86,10,14.7,16.29-.18,1.62-3.84,9.42-1.05,14.06,1.45-5.69,5.28-11.38,10.55-17.07,15.83-2.37,6.6-7.05,10.38-13.96,11.45Z" fill="#f2f2f2" stroke-width="0"/><path d="M630.37,909.57c5.65-1.65,11.31-3.29,16.96-4.94,4.12-.09,8.34.08,10.77-4.27,1.05-.51,2.1-1.02,3.14-1.52,2.76,3.12,5.42,6.35,8.32,9.34,2.41,2.49,1.88,5.82.81,7.8-1.95,3.61-4.46,1.21-6.44-.85-4.98-5.17-4.82,3.94-9.68,3.25-11.82-1.68-24.15.98-35.8-3.55,3.97-1.75,7.94-3.51,11.92-5.26Z" fill="#f2f2f2" stroke-width="0"/><path d="M918.87,537.48c-7.34,8.84-18.2,10.53-28.24,13.88-9.72,3.88-17.97-1.2-26.56-4.31-.48-.42-.95-.85-1.42-1.27-.99-2.49-1.99-4.98-3.25-8.16,19.9,2.58,39.68.42,59.48-.14Z" fill="#f5f5f5" stroke-width="0"/><path d="M926.91,640.39c-4.69,2.01-9.39,4.03-14.08,6.04l-1.38-.11-1.2.69c-4.33.95-8.66,1.91-12.99,2.86-5.71-7.32,3.79-4.54,4.94-7.52-4.13-6.55-9.53-1.54-14.36-1.45-2.91-1.54-4.6-3.53-2.53-6.9,7.98-6.91,17.72-8.86,27.8-9.84,3.81.23,7.01,2.01,9.82,4.41,1.94,1.65,5.23,3.19,3.39,6.43-1.56,2.74-4.74,1.43-7.3,1.41-1.86-.2-.18,2.84-.55,1.01-.1-.5.32-.77,1.22-.61,2.74.49,6.85-1.72,7.21,3.58Z" fill="#1e1e1e" stroke-width="0"/><path d="M807.02,733.28c3.68-12.44,1.8-26.88,13.21-36.52,7.31.44,9.38,5.13,8.73,11.42-.43,4.13,2.26,11.07-7.62,8.14-1.77-.53-3.31,10.69-5.19,16.08-4.05,11.57-6.62-.89-9.13.89Z" fill="#f2f2f2" stroke-width="0"/><path d="M453.94,943.59c4.76,2.36,9.52,4.72,14.28,7.08,8.43.48,16.68,1.8,24.49,5.21,1.2,1.04,1.53,2.3,1,3.79-10.32.87-20.65,2.6-30.95,2.42-14.97-.26-16.5-4.12-8.82-18.51Z" fill="#f1f1f1" stroke-width="0"/><path d="M1054.96,470.54c6.63-2.53,13.45,10.04,19.98-.26.23,1.52.45,3.04.68,4.56,1.36,4.29,2.37,8.63,2,13.17-2.91,6.42-7.83,12.09-6.03,20.16.59,2.65-1.75,5-5.06,5.19-3.31-.66-4.59-3.12-5.38-6.02-1.33-6.03.17-12.37-1.91-18.32-1.29-4.42-3.56-8.46-5.11-12.79-.48-2-.45-3.94.81-5.69Z" fill="#212121" stroke-width="0"/><path d="M579.78,934.62c8.3-5.76,13.43-16.4,25.4-16.51-.67,1.68-1.91,3.37-1.9,5.05.03,5.47,5.85,13.16-1.05,15.76-6.94,2.61-16,2.47-22.45-4.29Z" fill="#f2f2f2" stroke-width="0"/><path d="M445.33,229.59c.15-2.8.3-5.6.45-8.41,3.49,1.64,6.05,4.08,11,3.54,13.13-1.42,16.59,5.59,10.41,19.24-7.29-4.79-14.57-9.58-21.86-14.37Z" fill="#f0f0f0" stroke-width="0"/><path d="M700.37,405.21c-7.63-6.25-15.25-12.5-22.88-18.75,5.63,2.17,2.96-6.59,8.86-6.12,11.28.9,13.08,2.73,10.33,13.98-.93,3.81,5.31,6.22,3.69,10.89Z" fill="#f4f4f4" stroke-width="0"/><path d="M825.34,690.88c6.22-8.1,14.44-13.64,23.4-18.23.43,1.78,1.07,3.54,1.27,5.35,1.62,14.75.11,16.25-13.74,14.16-3.62-.55-7.28-.86-10.92-1.28Z" fill="#efefef" stroke-width="0"/><path d="M534.98,316.64c-7-6.49-12.12-14.39-16.9-22.54,20.46-5.51,22.83-2.34,16.9,22.54Z" fill="#efefef" stroke-width="0"/><path d="M1005.54,450.72c-5.58,6.64-11.16,13.29-16.75,19.93-4.84-5.65-3.9-14.21-1.99-18.33,3.54-7.63,12.08-3.82,18.74-1.6Z" fill="#ededed" stroke-width="0"/><path d="M26.23,380.03c5.33,6.81,10.66,13.63,15.99,20.44q-20.32,3.73-15.99-20.44Z" fill="#e9e9e9" stroke-width="0"/><path d="M769.89,487.94c-2.52-4.07-5.04-8.15-7.56-12.22,4.97-5.29,11.15-4.45,17.57-4.05,6.49.4,4.39,4.83,4.17,7.86-.32,4.58-4.9,3.56-7.79,4.35-.53.15-.99-5.17-4.07-2.23-1.45,1.38-1.59,4.14-2.32,6.28Z" fill="#f0f0f0" stroke-width="0"/><path d="M714.15,417.44c-3.81-3.41-7.61-6.83-11.42-10.24,6.07-14.95,14.95-5.45,27.14-1.96-12.5-.5-13.15,6.71-15.72,12.2Z" fill="#f4f4f4" stroke-width="0"/><path d="M758.69,470.35c-3.43-4.75-6.85-9.5-10.28-14.26,2.84-2.23-1.03-10.62,8.42-7.38,7.09,2.43,4.98,6.38,4.57,10.36-.39,3.81-1.77,7.52-2.71,11.27Z" fill="#eee" stroke-width="0"/><path d="M50.85,409.2c4.52,2.67,8.55,5.89,11.54,10.28-3.52,7.03-9.99,6.98-14.49,3.2-5.49-4.6-1.73-9.73,2.95-13.48Z" fill="#eaeaea" stroke-width="0"/><path d="M354.06,31.28c-4.3,4.38-9.23,7.86-14.85,10.34-.56-1.65-2.02-3.24-.22-5.02,3.95-3.9-6.76-9.62,1.24-12.61,6.7-2.5,8.46,6.2,13.83,7.3Z" fill="#ececec" stroke-width="0"/><path d="M1075.3,489.83c.11-4.99.22-9.99.33-14.98.87.24,1.7.57,2.5.97,1.23,11.19,4.56,22.39-.03,33.58-1.67.88-3.06.55-4.17-.99-3.05-6.45-2.54-12.64,1.36-18.58Z" fill="#131313" stroke-width="0"/><path d="M407.08,968.45c1.58-2.03,3.15-4.07,4.73-6.1-.95,9.96,8.32,13.64,12.64,20.42q-9.33.63-17.37-14.32Z" fill="#eee" stroke-width="0"/><path d="M780.77,506.84c-4.11-3.87-5.99-9.02-8.14-14.02,13.33-2.32,13.71-1.66,8.14,14.02Z" fill="#f0f0f0" stroke-width="0"/><path d="M486.67,260.67c-2.53-.57-4.02-2.3-5.03-4.54.1-4.97,3.11-7.62,7.51-8.71,2.24-.55,4.23,1.56,2.38,2.98-3.62,2.79,4.45,10.71-4.86,10.27Z" fill="#f3f3f3" stroke-width="0"/><path d="M443.07,931.85c.02-.93.06-1.86.12-2.78,2.74-1.21,3.78-7.52,8.23-3.32,5.2,4.91-1.47,7.48-2.81,11.11-1.85-1.67-3.7-3.33-5.54-5Z" fill="#262626" stroke-width="0"/><path d="M493.71,959.69c-.49-.7-.99-1.4-1.49-2.1,9.97-6.65,19.96-6.89,29.95-.04-1.25.77-2.49,1.54-3.74,2.3-8.24-.05-16.48-.11-24.72-.16Z" fill="#1f1f1f" stroke-width="0"/><path d="M143.43,887.15c-.41,2.85-1.39,5.94-4.84,4.89-5.61-1.71-2.48-6.67-4-10.95,4.24,1.62,4.41,6.92,8.85,6.07,0,0-.01-.01-.01-.01Z" fill="#f4f4f4" stroke-width="0"/><path d="M274.19,975.42c2.36,1.2,4.72,2.75,4.77,5.66.03,1.95-1.83,3.35-3.7,2.18-1.76-1.11-3.56-2.86-4.26-4.73-.64-1.72,1.06-3.04,3.19-3.1Z" fill="#ececec" stroke-width="0"/><path d="M3.29,288.35c0,7.45,0,14.9,0,22.36-4.01-7.45-4-14.9,0-22.36Z" fill="#f2f2f2" stroke-width="0"/><path d="M14.95,77.79c2.9,6.5,2.58,13.39,2.39,20.26-4.99-6.26-2.08-13.45-2.39-20.26Z" fill="#f5f5f5" stroke-width="0"/><path d="M907.06,663.3c3.18-4.36,5.88-6.56,10.69-6.16-1.19,6.36-5.85,6.13-10.69,6.16Z" fill="#f5f5f5" stroke-width="0"/><path d="M160.32,722.07c4.92,5.64,2.14,12.2,2.21,18.42-.69-.59-1.4-1.15-2.13-1.69-.03-5.58-.05-11.15-.08-16.73Z" fill="#232223" stroke-width="0"/><path d="M859.85,551.36c-1.94-.53-5.14-.35-4.06-3.47,1.04-2.99,4.39-1.85,6.86-2.11h0c1.77,3.21-1.3,4.01-2.8,5.6h.01Z" fill="#f5f5f5" stroke-width="0"/><path d="M266.54,86.7c1.51.18,3.03.36,4.54.54,3.71,1.72,7.77.58,11.59,1.38,3.8,6.04-1.99,8.7-4.59,12.28-2.7,3.72-6.18,6.96-1.29,11.37,2.29,2.07,5.56,2.82,7.42,5.46.87,6.08-1.04,10.54-6.86,12.4q10.05-.97,7.18-15.87c1.08-5.36,4.48-8.47,9.6-9.91,8.61,3.81,20.31-.69,26.49,9.75-4.56,14.23-3.19,16.23,10.9,16.04,4.53-.06,9.04-.61,13.59-.31,1.29.33,2.4.98,3.33,1.93-.32,7.7,7.61,9.84,10.6,14.96-1.51,4.14-4.91,2.47-7.36,3.26,3.66-.57,5.87,1.95,8.74,3.33,3.03,1.46,7.71-2.17,12.01-1.4,1.96.45,3.57,1.48,4.9,2.95,2.4,3.48,4.97,2.4,8.37,1.09,17.8-6.89,21.8-4.11,23.09,15.29.36,2.64.32,5.25-.63,7.79-.79,1.83-1.94,3.41-3.31,4.85-4.11,4.47-14.28,4.07-11.35,14.15-.89.96-2.01,1.28-3.32.94,1.33.86,2.23-.02,3.19-.79,2.74-2.19,1.92-8.42,6.86-7.42,3.87.78,4.76,5.36,5.56,8.92,1.21,5.34,2.47,10.74,1.48,16.25,2.28-5.72,2.57-12.36,6.83-17.41,1.17-.79,2.41-.89,3.72-.4.88,1.23,1.76,2.47,2.64,3.7,3.33,7.03-4.23,16.62,5.24,22.2.89,3.13,1.78,6.25,2.67,9.38,1.08,25.06.85,50.02-5.31,74.56-3.29,4.06-3.79,13.99-12.32,7.8-5.26-3.82-7.01-10.11,1.15-14.26.19-.1.18-.95-.01-1.3-.18-.35-.71-.51-3.47-2.27-2.88,19.12.38,37.37-1.71,55.21-1.21,6.43-4.9,11.47-9.05,16.26-4.19,1.62-6.75-2.53-11.92-3.1.32,11.64-2.41,21.18-17.58,18.9-4.84-.73-5.7,3.84-5.36,7.89.43,5.12,1.1,10.22-1.26,15.1-1.73,1.3-3.46,2.61-5.18,3.91-8.42-4.6-16.59-8.87-16.15,7.09.06,2.19-2.28,3.94-3.71,5.76-2.64,1.19-5.27,2.37-7.91,3.56-9.09-.79-17.6,5.75-26.98,2.12-1.18-.46-2.58.67-3.52,1.83-2.32,2.87-2.34,32.05.39,32.42,6.52.89,12.99-.86,15.74-8.32,9.24-3.87,18.48-7.73,27.72-11.6,6.82-1.14,13.76-.72,20.64-1.59,5.06-.63,10.14-2.6,11.79-6.35,4.41-9.99,9.12-17.51,21.97-16.82,4.53.24,2.89-5.97,3.01-9.4.31-8.49,4.2-13.37,12.95-12.45,7.72.81,9.87-2.61,9.47-9.58-.42-7.4.47-14.79,1.27-22.15,2.97-6.47,5.94-12.95,8.92-19.42,4.36-1.39,5.69,4.24,11.16,4.05-5.06-12.67,5.84-24.89-.28-37.71-.33-5.84,1.12-11.36,3.03-16.8,1.94-5.22,3.52-10.6,9.91-12.45,1.18-.34,6.07,1.69,3.28-3.74-1.5-2.93,1.93-4.84,5.09-4.53,4,.39,7.07,2.51,8.45,6.37,2.85,8,3.26,16.93,15.54,18.28,4.1.45,6.28,9.6,9.34,15.77,1.31-3.31.95-7.66,4.58-9.59,4.88,3.96,8.69,8.73,11.02,14.62,1.09,5.42-5.07,3.72-6.51,6.65-2.03.08-4.4-1.38-6.15,1.73,3.54.75,5.58-1.92,8.16-2.92,8.13,3.91,10.63,10.76,10.56,19.28-.07,8.76-.49,17.57,1.3,28.2,4.12-5.72,8.97-8.5,14.4-4.46,5.91,4.4,8,10.88,8.13,18.11.08,4.49-3.34,11.1,5.93,10.41,3.28-.21,6.53.06,9.79.12,17.95.36,18.03.36,18.16-17.14.04-5.35,2.92-9.15,7.47-6.77,7.1,3.71,13.85-.52,20.57,1.09,5.94,2.99,11.61-.05,17.38-.81,3.56.92,6.9,2.25,9.36,5.17,2.33,5.54,6.31,10.59,4.24,17.99,4.88-3.69,7.46-10.16,14.26-6.33l-.05-.03c3.43,8.55,6.17,17.38,10.62,25.95.41-2.32,1.16.11,1.14-.26-.15-2.99-2.62-6.7,2.94-7.2,3.44-.31,7.71.98,8.41,3.79,2.45,9.73,10.58,6.6,16.56,8.34.76.1,1.52.18,2.28.26,1.76,2.12,3.53,4.24,5.29,6.36,4.04,3.85-3.31,19.06,11.82,11.83,2.77,3.01,5.55,6.02,8.32,9.04,1.97,5.53,5.31,10.75,3.12,17.12-.47,1.37-3.64,3.03,1.89,4.32,6,1.4,2.17,10.63,4.38,16-.23.91-.66,1.67-1.31,2.26-.99.89-2.19.42-3.31.47,1.3.23,2.57.33,3.59-.77,2.8-13.55,3.75-14.31,13.46-10.66.95,1.22,1.89,2.43,2.84,3.65.37,1.35.82,2.79.64,4.12-2.05,15.22,4.71,24.47,19.14,28.63,1.25,2.68,2.49,5.35,3.74,8.03-.3,16.04-.81,32.08,2.69,47.87.65-4.05-5.95-10.98,1.26-11.44,10.06-.64,7.33,10.69,9.95,16.29,1.17-2.66.86-7.74,6.54-3.43,1.19,2.06,1.76,4.27,1.93,6.63.6,49.65,1.39,99.28-.32,148.91-1.3,4.56-2.6,9.13-3.9,13.69-13.81.75-19.05,8.2-18.27,21.72.45,7.71.03,15.72-3.68,22.97-.88,3.52-2.85,6.31-5.69,8.51-5.05,1.5-5.4-6.48-10.38-5.15-2.76,1.89-2.69,4.83-2.36,7.54,1.19,9.66-2.91,14.15-12.6,13.36-7.02-.57-10.72,2.08-9.89,9.56.99,8.89-3.17,13.52-11.95,12.9-7.46-.52-10.37,2.52-9.81,9.62.68,8.6-4.02,11.59-11.84,11.64-5.12.03-10.25.12-15.37.11-10.12-.02-18.94,1.31-18.99,14.62-.01,3.77-1.8,8.62-6.26,7.68-12.26-2.58-23.09,8.17-34.84,2.45-4.72,6.53.95,10.96,1.67,16.1-1.26.88-2.51,1.76-3.77,2.63-8.02,1.69-16.05,3.38-24.07,5.06-11.25-5.91-23.53-2.47-35.27-3.45-15.2-1.27-30.58-.23-45.88-.37-7.11-.07-13.86-1.41-19.57-5.98-4.88-3.92-3.51-6.85,2.34-9.34-5.37,1.17-9.82,5.2-14.81,1.61-11.16-8.05-11.13-8.09-22.17-7.84-.92.02-1.85-.1-2.79-.21-4.79-1.43-6.87-4.73-6.66-9.62,1.35-6.15,1.16-12.81,5.87-17.85,3.12-2.49,7.12-4,5.67-9.72-1.96-7.74,7.47-9.79,9.33-16.32.85-2.98,4.75-.43,4.76,3.04.02,4.23.89,8.31,1.78,12.43-4.6-21.26-.22-42.63-.76-63.96-.18-6.89-1.26-12.84-6.14-17.8-1.49-2.62-2.18-5.62-3.84-8.15-2.55-4.18-6.48-3.67-10.45-3.03-1.26.01-2.47-.18-3.66-.53-4.79-1.8-11.18-4.99-11.95,3.1-2.58,27.07-4.01,54.23,2.52,81.09,1.58,9.66.59,18.79-5.42,26.89-6.59-5.87-8.03,13.73-15.59,3.16-1.05,1.55.52,2.24,1.19,2.99,2.03,2.26,3.82,6.27,1.95,7.45-14.9,9.41-5.84,24.38-8.26,36.41-2.26,11.22-2.84,22.21-13.6,28.56-11.06,6.52-7.58,19.08-12.68,27.99-3.91,3.43-8.52,5.03-13.67,5.24-5.58.08-9.65,4.6-15.1,5.12-9.26.44-18.52,1.18-27.45-2.21-6.5-3.17-13-6.33-19.5-9.5-.31-18.86,7.01-27.45,25.03-25.55,8.57.9,13.96-4.84,21.45-5.88,4.23-.59,1.43-10.53,1.48-16.29,2.33-9.09-4.75-11.87-10.63-13.46-7.25-1.96-10.26-5.97-10.2-12.75.28-35.36-1.62-70.71-.45-106.05.58-8.36.33-16.75.67-27.31-6.53,8.78-12.98,8.59-19.45,2.14-.8-1.07-1.33-2.27-1.62-3.57-.32-9.9,7.26-5.64,12.75-6.68-9.13-1.53-13.35-6.72-13.92-14.96-.41-6.04-.91-12.09-1.12-18.14q-.54-15.87-16.68-14.52c-7.9.57-16.22-3.02-23.65,2.41-1.31.28-2.63.32-3.96.16-5.75-2.18-11.15-4.81-13.95-10.8.03-7.41,7.21-8.46,13.12-12.97-17.87-2.47-33.88-2.41-49.86-1.73-9.85.42-6.97,8.92-8.45,14.55-.35,1.9.8.67.62.11-1.12-3.5.45-6.05,3.89-7.64,8.77-4.06,10.94,3.97,15.26,8.12,1.34,1.46,2.34,3.11,2.87,5.03q.08,18.13,16.96,13.36c2.98.29,5.39,1.57,7.18,4,.33,1.47.3,2.94-.03,4.4-4.16,25.26-1.88,50.71-2.11,76.07-.07,7.38.17,14.76-.28,22.12-2.23,13.36-19.58,26.58-31.88,24.24-4.46-.85-4.45-4.15-3.77-7.55.83-4.15,3.44-7.65,4.48-11.73,1.48-5.79.59-10.9-6.39-11.21-13.95-.61-14.69-9.77-14.85-20.38-.22-15.22,1.46-30.55-2.69-45.73,4.79,11.94-3.38,22.7-2.48,34.28.22,2.83-1.05,5.67-4.4,6.23-3.48.59-4.96-1.96-5.92-4.69-1.57-4.45-.98-9.25-2.03-13.8-.2-1.3-.23-2.6-.15-3.91,1.53-10.47,5.72-21.08-1.68-31.08-.62-1.85-.65-3.72-.19-5.61,6.01-2.15,4.16-4.92.63-7.83-1.51-3.16-2.21-6.74-4.71-9.42.21-.97.42-1.93.63-2.9,2.46-14.75.27-29.58.69-44.37.22-7.88-6.49-4.36-10.13-5.88-2.72-6.78-5.45-13.57-8.17-20.35-1.2-5.28-2.41-10.55-3.61-15.83,1.15-9.23-1.12-18.32-1.05-27.55.07-8.86-9.3-10.07-14.41-14.75-2.22-10.99-4.44-21.97-6.66-32.96-2.99-21.09-.68-42.22-.58-63.34.04-9.04,5.14-13.31,13.79-14.12,3.62-.34,7.47.44,10.71-1.98,1.85-.95,3.82-1.32,5.89-1.08,4.14,1.53,8.26,3.25,12.83,1.58,5.03-.77,10.01-.62,14.96.53,21.34,2.25,42.69,1.27,64.01.23,5.16-.44,12.71.95,10.88-7.62-2.21-10.36-10.22-2.75-15.59-3.53-18.69,4.39-37.41,1.37-56.11.38-2.97-.18-5.93-.45-8.79-1.38-2.02-.66-3.89-1.65-5.69-2.75-2.13-2.7-6.99-2.2-6.35-8.67.5-5.04-.42-11.03-11.69-11.3-16.76-.4-34.39,1.23-50.88-4.78-.92.23-1.67-.04-2.23-.81-2.26-5.43-4.75-10.85.42-17.32-12.99-.52-24.29-1.21-22.69-17.58.37-3.75-4.19-4.13-7.39-4.67-4.79-.81-10.4.75-13.7-4.56-1.89-8.93-2.3-18.55-15.31-19.28-4.37-.25-5.75-5.6-6.09-9.94-.47-6.01-1.28-12.02-1.09-18.03.23-7.21-1.7-12.74-9.07-15.37-6.16-2.2-9.4-7.17-11.71-12.95-1.58-12.02-3.27-24.04,3.42-35.23q5.91,1.13,7,10.09c-2.18-9.69-.24-19.7-2.07-29.42.13-1.39.47-2.71,1-4,4.96-8.41,10.79-12.3,18.99-3.58,1.12,1.81,1.38,3.78,1.03,5.85-5.25,14.96-5.11,15.22,10.2,15.98,6.88.34,13.07,1.21,11.16,10.69,3.09-.81,2.22-4.65,4.32-6.33.95-.83,2.08-1.26,3.33-1.34,3.32.85,6.69,1.89,9.45-1.37,1.42-1.2,2.99-2.12,4.71-2.8,5.3-2.29,8.92-7.15,14.83-9.26-13.23-.17-20.56-17.67-35.44-10.81-5.15-.55-10.15-1.68-14.88-3.85-4.41-3.15-1.32-7.09-1.18-10.69-2.06-2.3-4.89-1.46-7.4-1.87-2.61-.28-5.08-.87-7.06-2.75-2.86-4.75.1-9.24.6-13.83.02-6.96,2.42-13.86,9.52-14.5,7.89-.71,4.96-12.23,13.19-10.92,1.94,3.39.87,7.04.99,10.58-.01-4.2,1.47-8.7-2.48-12.13-2.38-8.42.5-16.45,1.74-24.6,3.74-9.42,14.06-3.4,18.73-7.56,4.58-4.08.57-13.48,6.42-18.64,1.43-1.26,3.14-2.43,4.9-2.24,14.65,1.64,11.61-8.17,10.84-16.54,3.43-4.98,8.27-7.01,14.18-6.83,11,2.22,22.15.9,33.23,1.29,14.04.5,19.98-8.95,25.4-19.4,3.03-1.45,6.66,0,9.59-1.97,9.52-.36,19.1.02,28.43-2.5,7.49-.13,14.98-.27,22.47-.4,8.7,3.29,18.07-.69,26.77,2.49Z" fill="#fefefe" stroke-width="0"/><path d="M605.11,377.91c-7.21-2.13-15.29,9.05-22.37-1.65-.93-1.41-5.04,1.8-3.08,5.1,1.7,2.86,3.45,5.47,3.02,8.96-.94,7.73-.82,16.13-13.12,11.88-6.43-2.22-13.73,1.11-20.31-1.9-2.15,1.54-5.2,1.89-5.44-.82-.41-4.75,2.62-7.54,7.71-7.41,4.74,2.69,9.59,4.28,13.97-.37,4.3-4.57,2.23-9.62.18-14.34-4.61-10.63-9.43-21.16-15.44-34.6,23.37,7.49,44,15.53,63.23,27.11.28,5.86-4.22,6.77-8.36,8.05Z" fill="#f7f7f7" stroke-width="0"/><path d="M423.02,366.6c5.34,10.2.69,21.18,2.4,31.75.88,5.43-4.58,5.29-8.02,4.12-11.88-4.01-16.99.59-14.73,12.2,1.9,9.81-2.44,11.01-10.05,9.56-7.16-1.36-13.8,1.36-12.21,8.41,2.59,11.53-10.98,7.22-11.69,14.34-8.83-2.01-18.3,4.28-26.79-2.05,33.82-19.09,61.03-45.02,81.11-78.33Z" fill="#f4f4f4" stroke-width="0"/><path d="M502.04,306.82c-.48,5.89.43,12.3-7.57,16.73,2.81-9.24-6.97-12.77-7.29-20.57-.03-.74-1.85-2.03-2.83-2.02-7.87.12-12.88-3.68-14.04-13.31-.49-4.07-.44-7.15-4.55-8.68-1.19-.44-2.57-.37-3.87-.53,3.49,13.86-15.69,7.8-16.05,18.27.73-13.36,1.45-26.72,2.31-42.54,20.97,16.15,39.74,31.93,53.88,52.65Z" fill="#f2f2f2" stroke-width="0"/><path d="M551.53,392.06q-5.65,6.46-2.28,8.23c-8.99,5.94-13.23,1.64-10.58-6.93,2.24-7.22-.37-12.34-2.65-17.88-2.16-5.26-5.18-4.94-8.4.46-2.15,3.6-5.84,2.06-8.67,2.55-4.23.72-1.87-2.93-2.01-4.77-.5-6.92-1.71-13.92-1.14-20.77.83-9.97-.86-18.56-8.56-25.42l-.03-.04c-1.38-5.23,4.95-3.01,5.84-6.05,17.84,20.81,27.96,45.81,38.46,70.62Z" fill="#f5f5f5" stroke-width="0"/><path d="M314.2,456.53c1.65,8.97,1.64,9.11-5.21,8.67-2.75-.18-2.67-.08-3.48,3.04-1.11,4.26-6.97,2.02-10.56,1.21-3.43-.77-2.36-4.02-2.26-6.88.34-8.96.32-17.94.02-26.9-.14-4.1,1.95-9.73,4.26-8.8,10.58,4.25,21.53-5.32,31.6,1.62-5.24,4.83-12.09,6.47-18.41,9.07-5.71,2.35-11.61,4.25-10.22,12.33,1.55,9.04,8.67,6.23,14.26,6.65Z" fill="#f0f0f0" stroke-width="0"/><path d="M361.52,408.16c-3.47-4.95-1.21-10.76-2.34-16.14-1.92-9.19,2.46-13.54,11.71-10.54,6.29,2.04,10.81.43,11.36-5.72.47-5.23-3.77-12.98,1.24-15.35,6.03-2.84,8.65,6.83,14.14,8.96-9.23,15.55-20.89,28.82-36.12,38.79Z" fill="#f2f2f2" stroke-width="0"/><path d="M406.69,353.12c-6.79-18.51-.55-37.68-2.8-56.44-.37-3.12,2.87-6.54,4.88-4.6,3.43,3.31,8.41,4.76,10.82,8.3,1.93,2.83-1.83,4.78-4.9,4.24-3.42-.6-5.76-.15-5.13,3.8.34,2.11,1.33,4.67,2.91,5.91,3.3,2.6,4.6-.85,6.36-2.86,1.2-1.36,2.8-2.37,4.23-3.54-1.92,16.34-7.89,31.21-16.37,45.17Z" fill="#f5f5f5" stroke-width="0"/><path d="M689.73,422.37c-7.09,1.47-16.81,10.94-17.78-6.23-.11-1.85-4.75-3.95-8.27-3.65-1.87,3.87,3.88,3.46,3.48,6.54-3.92.92-7.85,1.84-12.13,2.84,4.2-11.21-10.04-18.97-4.95-30.13,14.55,8.49,28.01,18.39,39.67,30.62Z" fill="#f2f2f2" stroke-width="0"/><path d="M442.82,313.51c10.58,3.89,7.13,15.78,4.63,18.37-5.13,5.31-2.41,8.86-1.11,13.06,1.41,4.58,3.74,9.3-1.94,12.11-6.56,3.24-7.32-3.24-9.77-6.74-.78-1.12-1.78-2.09-2.68-3.13,3.63-11.22,7.25-22.44,10.88-33.67Z" fill="#eee" stroke-width="0"/><path d="M336.47,424.92c.46-2.71.67-5.48,1.43-8.1,1.32-4.5-3.33-11.34,2.92-13.39,6.97-2.28,12.52,1.79,15.5,8.64-5.65,5.78-12.32,9.99-19.86,12.85Z" fill="#eee" stroke-width="0"/><path d="M650.1,391.77c-4.89.63-8.85,2.54-9.99,7.84-1.13,5.24-5.65,1.44-5.62,1.15.75-7.16-5.98-13.28-2.89-20.65,6.8,2.89,13.28,6.28,18.51,11.67Z" fill="#f2f2f2" stroke-width="0"/><path d="M605.11,377.91c1.23-4.3,5.96-4.96,8.36-8.05,3.43.82,6.48,2.28,8.77,5.08-4.35,8.8-10.58,6.81-17.12,2.97Z" fill="#e9e9e9" stroke-width="0"/><path d="M406.56,170.81c-3.05-18.21-6.36-19.84-22.53-9.51-7.17,4.58-7.63.51-8.22-4.77,9.02-3.78,10.04-11.32,9.28-19.72,2.41-6.88,13.86-2.74,14.39-11.12.89-14.19,2.82-28.57-2.85-44.04-6.72,10.68-13.68,19.04-27.26,13.31,7.75,2.65,15.97,4.4,14.71,14.63-.86,6.92,3.37,15.14-4.54,20.54-6.93,1-11.36-3.67-16.34-7.13-5.94-5.93-17.01-5.75-19.3-16.07,6.58-16.01,20.36-25.42,32.94-35.93,5.44-4.99,11.97-8.5,17.74-13.03,3.47-2.73,8.75-5.72,5.14-10.94-3.11-4.49-7.46-.91-11.03.9-2.86,1.45-5.41,3.45-8.14,5.16-6.29,3.33-11.25,9.15-18.83,10.08-4.81-1.31-6.61-4.4-5.46-9.23,15.86-12.94,33.87-21.89,53.03-28.74,3.78-1.67,7.5-2.64,10.88.84,8.49,34.23,1.62,67.94-3.48,101.71-.62,4.09-1.08,8.19-1.61,12.29,1.09,11.34-.37,21.97-8.5,30.75Z" fill="#f7f7f7" stroke-width="0"/><path d="M356.24,53.95c1.96,2.63,3.92,5.26,5.89,7.89.95,4.26-1.61,7.19-4.26,9.66-15.23,14.19-29.09,29.33-36.04,49.53-3.66-1.03-4.05-3.42-2.71-6.52-7.31-5.26-17.36-2.16-24.47-8.03-.96-1-1.29-2.17-.92-3.52,4.94-6.84,9.71-13.92,18.9-15.65,14.94-10.59,27.65-24.1,43.61-33.37Z" fill="#f0f0f0" stroke-width="0"/><path d="M437.49,30.4c2.34.62,3.76,1.81,2.8,4.49,1.84,16.88,1.86,33.75,0,50.63-1.1,9.77-2.19,19.53-3.29,29.3-2.27.74-3.27-.56-3.93-2.43-.06-1.28.4-2.33,1.36-3.17,1.8-19.03.57-37.93-2.1-56.9-5.98,8.02-1.32,17.64-6.12,25.91,0-10.44.92-20.99-.3-31.28-.93-7.83,10.53-5.88,8.57-13.23.29-1.75,1.31-2.85,3.02-3.3Z" fill="#202020" stroke-width="0"/><path d="M312.63,87.32c-5.86,5.53-11.72,11.06-17.57,16.59-2.19,1.14-4.37-.28-4.03-1.84,1.98-9.05-4.12-12.19-10.47-15.32-1.74-4.31-8.49-.59-10.2-7.64,10.08,5.02,19.93-1.84,29.31,2.81,2.07,1.03,4.25.56,3.97-1.63-.25-1.92-2.46-3.58-3.8-5.35,4.65-3.82,9.31-7.63,13.96-11.45,1.42,8.03-3.57,15.75-1.16,23.83Z" fill="#1f1f1f" stroke-width="0"/><path d="M406.56,170.81c4.86-9.69,2.8-21.3,8.5-30.75,5.3,2.89,11.41,5.49,4.55,12.71-6.32,6.65-4.88,15.24-6.2,23.23-.78,4.74-.33,3.67,3.62,3.01,7.86-1.31,4.53,7.15,6.74,10.68,1.56,2.49-3.67,1.38-6.06.71-4.04,4.63-7.98,5.82-11.74-.33-2.39-3.94-1.25-7.8.23-11.65.12-2.54.24-5.07.36-7.61Z" fill="#202020" stroke-width="0"/><path d="M420.16,26.06c-3.63-.28-7.26-.56-10.88-.84-3.3-4.09-7.25-2.27-11.32-1.64-1.93.3-4.14-1.26-6.22-1.97.77-1.59,1.76-3.12,2.25-4.8.95-3.26,3.29-2.94,5.29-1.84,6.55,3.63,11.97,8.56,21.06,4.09,3.25-1.6-.23,4.45-.17,7Z" fill="#252525" stroke-width="0"/><path d="M425.71,224c-17.73-3.62-5.85-14.24-5.24-22.2,4.52,6.74,4.8,14.49,5.24,22.2Z" fill="#f5f5f5" stroke-width="0"/><path d="M434.43,109.21c0,.95.02,1.91.02,2.86-1.04,5.05,3.34,9.97.34,15.06-.18,1.49-.37,2.98-.55,4.47-5.25-9.51-5.96-19.78-5.02-31.62,2.1,3.73,3.66,6.48,5.21,9.23Z" fill="#212121" stroke-width="0"/><path d="M409.28,190.45c2.85,6.33,5.6-3.34,8.43-.05.04,2.56.08,5.13.12,7.69-.98.3-1.96.59-2.94.89-5.01,1.39-8.11-.59-9.61-5.42.39-2.25,1.18-3.98,4-3.11Z" fill="#0f0f0f" stroke-width="0"/><path d="M437.49,30.4c-1.01,1.1-2.01,2.2-3.02,3.3-5.81-5.6-.39-9.51,2.09-13.86.31,3.52.62,7.03.93,10.55Z" fill="#212121" stroke-width="0"/><path d="M33.98,47.72c3.15-13.9,12.4-6.04,19.6-5.5,21.68,4.7,37.62,19.32,54.9,31.66,2.42,2.09,4.53,4.47,6.68,6.83,5.36,5.88,4.24,10.4-2.64,14-5.24,2.74-10.59,5.3-15.59,8.49-3.1,1.31-6.23,3.75-9.3-.05-5.21-16.61-13.49-31.48-25.18-44.42-4.42-4.89-9.44-8.46-15.56-3.25-6.36,5.41-3.16,10.67,1.39,15.5,1.59,1.69,3.16,3.43,4.58,5.26,7.75,10.02,13.7,21.09,17.59,33.08,5.07,15.64-12.73,18.29-17.11,28.74-1.37,3.26-4.44,5.81-8.54,10.94-2.91-17.42-5.47-32.79-8.03-48.16-2.28-4.88.12-10.43-2.15-15.32-.23-3.27-.46-6.55-.7-9.82-1.57-9.33-1.67-18.65.06-27.98Z" fill="#f4f4f4" stroke-width="0"/><path d="M26.31,268.84c-3.47,12.84-4.73,25.84-2.91,39.07,2.46,3.82,3.15,7.59-.37,11.21-2.24-1.28-2.71-3.42-2.83-5.74-2.63-6.15-.68-12.54-1.16-18.7-.7,2.41.66,5.43-1.58,7.64-4.23,1.82-5.63,1.14-4.99-4.03,1.98-16.06,3.64-32.18,4.87-48.31.37-4.86,1.82-10.31-2.21-14.69,2.62-11.31,5.25-22.61,7.87-33.92,6.58,12.33,2.37,26.98,8.45,39.42,1.54,1.8,1.73,3.67.27,5.62-.71.71-.85,1.51-.4,2.4-2.3,6.53,2.47,14.82-5.02,20.05Z" fill="#252525" stroke-width="0"/><path d="M107.1,115.81c8.69,14.28,7.36,18.17-7.92,17.55-8.47-.35-10.36,4.56-9.74,9.48,1.64,12.93-4.39,15.02-15.02,13.15-2.06-.36-4.35.55-6.54.87-1.23-.55-2.03-1.48-2.38-2.79,7.61-13.83,20.42-22.69,31.63-33.08,2.09-4.1,3.91-8.7,9.96-5.18Z" fill="#f3f3f3" stroke-width="0"/><path d="M65.51,154.07c.79.93,1.58,1.86,2.38,2.78,1.07,9.52-1.34,18.69-2.82,27.95h0c-4.97,4.77-.85,17.89-14.63,15.15-2.72-.54-5.74,5.36-4.99,10.04-6.93-.99-3.58-5.39-2.96-8.89,3.44-17.75,11.85-33.07,23.02-47.03Z" fill="#f5f5f5" stroke-width="0"/><path d="M107.1,115.81c-3.32,1.73-6.64,3.46-9.96,5.18-13.22-.59-5.82-12.18-9.52-17.85,3.39,1.13,5.43-1.57,7.98-2.81,7.54,1.11,15.37-9.18,22.71.55,1.39,1.33,2.53,2.85,3.32,4.62.34,1.28.1,2.45-.7,3.52-5.29.9-9.56,3.86-13.84,6.79Z" fill="#262526" stroke-width="0"/><path d="M31.73,246.39c-.09-1.87-.18-3.75-.27-5.62,1.99-6.51,3.97-13.02,5.96-19.53,3-1.55,3.22,2.45,5.33,2.67,2.78.03,5.56.06,8.34.09,2.79,4.56,7.95-.34,11.11,2.77-1.83,3.58-3.65,7.15-5.48,10.73-1.65,3.8-4.66,5.65-8.67,6.09-5.79-1.13-11.72-3-16.32,2.8Z" fill="#efefef" stroke-width="0"/><path d="M42.74,223.91c-3.81,3.17-2.95-2.99-5.33-2.67.66-6.97,1.64-13.86,5.08-20.14.5,3.13-.41,6.72,2.96,8.89-.9,4.64-1.81,9.27-2.71,13.91Z" fill="#eee" stroke-width="0"/><path d="M33.98,47.72c-.02,9.33-.04,18.65-.06,27.98-.81-.01-1.61-.02-2.42-.02,1.07-9.3-2.63-19.02,2.48-27.95Z" fill="#272727" stroke-width="0"/><path d="M34.61,85.51c2.37,4.87,2.45,10.07,2.15,15.32-4.26-4.61-2.08-10.12-2.15-15.32Z" fill="#272727" stroke-width="0"/><path d="M1054.96,470.54c.35,1.59.7,3.18,1.05,4.76,3.45,14.98-1.77,30.38,2.19,45.35-5.25,21.47-16.86,38.6-35.06,51.22-5.08,1.16-4.61-5.06-8.31-6.23-4.46,4.55-.99,10.72-3.18,15.66-1.07,1.81-2.7,2.87-4.65,3.52-7.27,1.59-14.7,2.11-22.08,2-10.12-.15-19.53-.97-19.37,13.93.07,6.16-6.55,6.95-11.79,7.19-11.57.52-23.15-.21-34.72.43-8.75.48-16.51,2.23-18.44,12.96-1.18,6.54-6.69,8.4-12.56,8.91-6.46.56-12.96.08-19.44.32-12.05.45-13.48,2.4-11.68,15.47-4.38,2.16-8.75,4.33-13.13,6.49-14.86.51-17.59-1.8-18.44-15.57-.14-2.33-.09-4.66-.11-6.99-.18-24.83-.42-26.47,23.94-30,14.07-2.04,14.09-12.73,19.57-20.37,1.1-.85,2.36-1.39,3.72-1.7,20.78.34,41.76,3.46,62.11-5.08,3.41-3.08-2.2-8.75,2.36-12.88,4.13-3.74,9.09-3.9,14.2-4.38,13.12-1.22,5.31-12.51,8.64-18.48,8.48-8.37,16.96-16.75,25.44-25.12,3.57-.66,6.56-3.45,10.55-2.69,7.29,1.38,8.99-2.94,8.62-8.91-.63-10.07,4.48-14.19,13.57-11.35,5.93,1.85,2.41-1.64,2.7-3.14,3.77-19.28,12.93-23.72,32.18-15.6.69.15,1.39.25,2.1.29Z" fill="#fefefe" stroke-width="0"/><path d="M856.95,646.01c-6.71-3.99-4.97-11.11-3.92-16.13,1.2-5.76,7.92-2.36,12.17-2.85,4.6-.53,9.33-.43,13.95-.05,11.12.92,20.97.65,19.31-14.95-.54-5.04,3.89-3.91,6.68-4.83,14.55-4.8,29.56-2.5,44.34-2.46,9.49.03,15.97-1.34,13.85-12.71-1.33-7.14,2.94-10.01,8.34-9.26,12.43,1.72,24.64-1.34,36.95-.45.45,6.4-4.88,8.43-8.78,11.45-15.76,12.17-34.75,17.44-52.87,24.57-11.08,4.38-22.58,7.11-34.42,8.39-9.16,2.97-18.32,5.94-27.48,8.91-3.1,5.76-8.03,6.96-13.98,5.61-4.71,1.58-9.43,3.17-14.14,4.75Z" fill="#f5f5f5" stroke-width="0"/><path d="M871.06,579.69c-1.09,1.94-2.19,3.88-3.27,5.83-3.18,5.72,7.2,7.87,3.79,13.11-3.91,6.02-10.18-2.1-15.24,1.89-3.95,3.12-9.06,4.75-14.36,3.98-10.59-1.54-14.29,3.2-13.03,13.34.51,4.09.65,8.39-.02,12.44-2.03,12.27,1.98,20.12,14.86,22.23-8.67,6.02-17.34,12.03-28.35,19.68.21-20.35-.49-39.24-3.01-57.96-.62-4.62,4.07-5.76,6.92-7.7,7.96-5.43,16.16-10.51,24.26-15.72,1.13-3.13,3.8-4.87,6.2-6.87,1.02-.8,2.11-1.47,3.24-2.1,5.85-1.91,11.21-8.07,17.99-2.15Z" fill="#f1f1f1" stroke-width="0"/><path d="M784.31,576.49c-.21-1.81-.41-3.62-.62-5.44-1.27-1.75-1.1-3.42.29-5.02.97-8.92,3.91-.66,5.9-.68,3.35-3.3-4.25-14.7,8.29-11.19,1.22,4.67,2.44,9.33,3.66,14-2.07,3.4,1.27,5.18,2.29,7.65-.15,2.79-.3,5.57-.46,8.55-4.4.26-1.33-4.96-3.55-5.09-2.91-.17-3.84,3.47-3.04,4.85,4.49,7.75,3.16,16.97,4.7,25.04,1.11,5.84-1.51,14.36-1.02,22.22,1.45,23.2,2.58,46.55-2.36,69.56-1.14,5.29,6.12,10.44-.11,15.52-1.74-2.79-3.47-5.59-5.21-8.38-4.34-4.86-.82-9.77-.14-14.68,2.07-5.75,1.53-11.71,1.31-17.64-1.24-33.3-4.64-66.38-9.95-99.26Z" fill="#222" stroke-width="0"/><path d="M834.26,576.38c2.97-1.62,5.95-3.24,8.92-4.87,12.71,1.64,13.66,3.17,8.5,13.83l.14-.14c-3.64,2.19-8.19,2.44-11.5,5.33-11.05-.85-8.32-7.6-6.06-14.15Z" fill="#272727" stroke-width="0"/><path d="M871.09,641.26c4.66-1.87,9.32-3.74,13.98-5.61.92,1.75,1.85,3.5,2.77,5.25-5.53,2.55-11.06,5.09-16.75.37Z" fill="#212121" stroke-width="0"/><path d="M840.32,590.53c2.19-5.33,6.56-5.94,11.5-5.33-1.47,3.7-4.68,4.88-8.19,5.6-1.1-.09-2.21-.18-3.31-.27Z" fill="#202020" stroke-width="0"/><path d="M266.51,700.14c.95-.15,1.9-.31,2.85-.46,7.08.33,13.59,2.61,19.8,5.86,1.61.95,2.87,2.2,3.35,4.08,3.02,5.41,6.86,10.39,9.11,16.23,1.57,4.09,1.61,8.17-1.74,11.47-4.15,4.09-7.46.73-10.85-1.5-1.96-1.31-3.75-3-6.35-2.38-2.44,3.79.32,7.16.7,10.67,2.16,11.76-2.49,23.29-1.08,35.02-7.37,6.84-11.13,14.46-5.06,24.16.59,4.11-1.14,7.95-1.3,11.98-.24,3.45-.56,6.89-1.43,10.26-1.73,3.74-1.94,8.23-5.39,11.14-.63.49-1.29.92-1.99,1.3-.35-.3-.7-.59-1.05-.89-.35-.3-.7-.6-1.04-.89-.34,2.3,1.01,5.77-2.89,5.87-2.67.07-3.31-2.78-4.06-4.88-3.53-9.81-2.94-20.05-.79-29.75,1.8-8.06,1.37-15.23-1.7-22.59-1.66-14.7,1.26-29.21,2.79-43.65,1.08-10.25.25-18.95-6.09-26.99l.48-.95c.53-8.61,6.67-11.35,13.74-13.12Z" fill="#242424" stroke-width="0"/><path d="M143.03,859.36c2.67-2.14,3.07-8.61,8.92-.98,6.24,8.14,15.72,16.61,27.86,6.73,1.11-1.7,2.79-2.12,4.67-2.12,1.2.1,2.38.31,3.54.59,4.09,1.06,8.25.74,12.41.64,3.04-.07,6.07-.04,9.1-.08,3.02-.03,5.99-.37,8.86-1.34,1.75-.6,3.51-1.12,5.27-1.67,4.26-1.21,8.17-3.8,12.87-3.29,6.99,1.56,12.9,4.3,13.55,12.66-6.23,8.8-16.56,10.26-25.47,14.26-1.89-.19-3.78-.37-5.67-.56-10.25-.16-20.49-.65-30.73.18-18.87-1.46-34.98-7.9-45.18-25.01Z" fill="#252525" stroke-width="0"/><path d="M275,803.34c-9.08-14.28-8.32-17.42,5.4-22.51,4.54.96,6.75,3.94,7.3,8.36-1.7,5.38,0,10.77-.11,16.11-.15,6.9,4.93,4.87,8.22,6.08,2.46.9,4.61,2.13,5.19,4.97-2.02,7.7,6.1,9.52,8.54,14.61,6.04,2.76,9.85,5.76,8.53,14.14-2.23,14.12-3.26,28.52-2.86,42.92.08,2.98-.59,6.24-4.23,5.7-4.18-.62-4.83-3.72-2.72-7.29-.04-1.39-.25-2.81-.1-4.18,1.85-17.27,5.89-35.29-18.66-40.77-5.73-1.28-7.24-9.64-13.88-10.68-.54-.39-1.09-.79-1.63-1.18-1.24-4.57.04-9.2-.31-13.79.27-4.18,4.69-7.92,1.33-12.5Z" fill="#201f20" stroke-width="0"/><path d="M250.07,870.49c-3.66-5.05-8.64-8.39-14.26-10.87.06-4.24,2.62-7.53,4.18-11.21,5.84-11.84,10.89-23.89,10.38-37.49,3.67-7.85-.51-18.27,8.08-24.49,8.92,3.62,3.43,11.1,2.8,15.68-1.71,12.53-2.62,24.75.46,37.31,3.94-1.55.64-5.75,3.91-8.58.56,2.66,1.03,4.89,1.5,7.12-2.14,12.7-6.61,24.18-17.05,32.53Z" fill="#1f1f1f" stroke-width="0"/><path d="M308.25,886.44c.33,1.33.32,2.93,1.08,3.93,1.45,1.91,2.71,1.87,3.22-.93,3.28-17.94-.49-36.22,4.55-53.9-5.87-1.07-3.01,7.2-7.69,4.43-3.11-1.84-2.73-5.49-.87-8.6.32-1.1.72-2.16,1.17-3.21,1.25-3.31,1.22-6.72.76-10.16,1.85-7.34-5.18-11.2-6.76-17.2.18-1.28.62-2.46,1.33-3.54,6.29-3.5,8.47-11.33,15.18-14.39,2.27.14,3.68,1.5,4.79,3.33,1.39,3.85,3.95,7.74-.3,11.44-5.66,3.98-3.73,10.58-3.75,15.38-.14,26.02-6.08,52.04-.66,78.05.94,4.52.18,5.89-4.6,5.35-5.33-.61-9.65-2.63-13.1-6.66,1.89-1.11,3.77-2.22,5.66-3.32Z" fill="#282828" stroke-width="0"/><path d="M269.11,836.66c.02-4.15-.07-8.32,2.56-11.91,2.67,1.23.91,5.32,4.03,6.26,0,0-.1-.21-.1-.21-1.95,3.31,3.37,6.72.13,9.44-.71.6-4.34-2.29-6.62-3.58Z" fill="#e3e2e3" stroke-width="0"/><path d="M356.18,917.93c4.44,6.17-1.23,13.28,1.97,19.55-.16.03-10.51,1.93-10.51,1.93-4.05-1.19-8.75,1.17-11.82.26-20.66-6.14-24.15,9.45-29.95,22.4-20.68-8.19-23.37-33.04-8.97-48.14,5.71-5.99,11.02-9.38,19.46-1.48,13.31,12.46,25.73,11.86,33.7.86-.42-1.19-1.08-2.52.46-3.31,1.96-1,3.46.08,3.98,1.82.59,2.02-.13,4.41,1.68,6.12Z" fill="#f7f7f7" stroke-width="0"/><path d="M356.18,917.93c-3.93.96-.17-8.25-6.12-4.62-2.59-4.96-5.08-9.12-11.88-10.1-10.55-1.53-14.36-8.2-12.14-19.17,2.39-11.83,3.05-23.97,1.94-36.09-2.12-10.2-1.55-20.42-.32-30.66.77-6.81-.77-13.28-2.96-19.65-.7-3.75-1.4-7.49-2.1-11.24,2.01-8.43,8.25-6.25,13.9-5.55,0,36.67.27,73.35-.17,110.02-.1,8.24,6.52,5.89,9.45,6.56,12.45,2.83,15.27,9.43,10.4,20.5Z" fill="#f1f1f1" stroke-width="0"/><path d="M364.49,971.39c.63,2.64,1.26,5.28,1.86,7.79-12.76-.82-25.49-1.65-38.22-2.47,0-.91.02-1.83.04-2.74,10.42-3.85,21.71,1.13,32.09-3.17,1.55-.79,2.96-.59,4.23.6Z" fill="#181818" stroke-width="0"/><path d="M361.75,971.56c-10.88,5.19-22.41,1.26-33.58,2.4-.93-.8-1.87-1.59-2.8-2.39,10.25-.23,20.49-.46,30.74-.68,2.06-1.31,3.99-1.55,5.64.67Z" fill="#262626" stroke-width="0"/><path d="M327.66,817.29c1.44,10.2,1.56,20.42.32,30.66-4.38-10.17-3.85-20.4-.32-30.66Z" fill="#131313" stroke-width="0"/><path d="M288.22,962.3c1.29,1.4,3.1,2.54,3.57,4.08.56,1.83-1.44,1.6-2.57,1.37-2.16-.45-2.89-2.12-2.66-4.11.05-.48,1.03-.85,1.65-1.34Z" fill="#323232" stroke-width="0"/><path d="M613.5,895.19c-8.29-2.84-6.85-10.51-7.96-16.69-.57-3.18,3.26-6.4,4.95-4.78,8.93,8.57,16.97-1.64,25.19-.39,10.66,1.62,16.69-.38,14.44-12.92-1-5.56,3.85-6.46,7.75-8.03,6.3-2.54,12.86-1.71,19.27-1.48,11.47.41,22.6,2.24,18.12-16.2-1.87-7.72,6.2-6.99,10.77-5.66,9.57,2.8,12.97.22,11.17-9.72-1.88-10.34,2.5-13.75,12.94-12.26,4.09.58,13.13,3.32,9.86-8.34-1.27-4.52-4.17-12.54,4.94-14.88,9.62-2.47,7.17,7.55,11.18,10.91-16.91,27.82-41.53,47.98-66.94,67.36-4.85,8.68-14.17,11.21-21.89,15.95-6.66,2.3-12.13,8.27-20.09,6.56-11.4,2.99-21.81,9.17-33.7,10.59Z" fill="#f5f5f5" stroke-width="0"/><path d="M784.31,576.49c10.06,27.63,11.57,56.57,13.11,85.5.25,4.63.42,9.27.63,13.91-2.56,5.82.03,12.23-2.04,18.1-.26,4.84-4.31,8.89-2.92,14.07-1.8,6.59-3.61,13.18-5.41,19.76-5.15-7.74-3.18-16.57-3.24-24.87-.31-42.16-.13-84.31-.12-126.47Z" fill="#f1f1f1" stroke-width="0"/><path d="M761.82,786.22c.57-9.55.23-19.08,1.07-28.68,1.62-18.42,3.03-20.11,20.88-16-4.8,16.13-12.43,30.87-21.95,44.69Z" fill="#f4f4f4" stroke-width="0"/><path d="M666.41,875.8c7.59-4.57,15.19-9.14,22.78-13.71,4.83,3.78,9.66,7.56,14.49,11.34-7.75,6.74-16.53,11.8-25.84,16.02-7.58-1.39-10.59-6.62-11.43-13.65Z" fill="#282828" stroke-width="0"/><path d="M440.29,85.51c0-16.88,0-33.75,0-50.63,4.16,16.87,3.43,33.75,0,50.63Z" fill="#212121" stroke-width="0"/><path d="M434.8,127.14c1.59-5.06-5.09-9.93-.34-15.06.85.91,1.7,1.83,2.55,2.74.38,4.31.06,8.49-2.21,12.32Z" fill="#232323" stroke-width="0"/><path d="M783.98,566.04c-.1,1.67-.2,3.35-.29,5.02-1.18,2.84-2.37,5.69-3.66,8.79-5.79-4.94-3.84-13.83-10.99-20.19.49,6.68.87,11.73,1.24,16.78-9.41-17.2-11.97-34.93-4.65-53.42,9.09,13.07,11.59,28.95,18.36,43.02Z" fill="#f5f5f5" stroke-width="0"/><path d="M739.27,478.6c-4.59-3.05-8.33.78-10.15,3.12-3.1,3.98,4.17,4.11,4.87,8.08h-8.47.01c-3.38-13.17-9.97-25.7-8.08-39.95,8.36,8.76,17.3,17.07,21.83,28.75Z" fill="#f4f4f4" stroke-width="0"/><path d="M761.89,514.99c-5.46.25-10.11-3.58-16.4-1.52-5.42,1.78-6.11-4.45-5.85-8.53.47-7.59,1.6-15.13,2.46-22.69,9.02,9.45,14.9,20.8,19.79,32.75Z" fill="#f4f4f4" stroke-width="0"/><path d="M709.12,440.82c-1.49,5.27-6.61,9.23-10.04,6.44-5.32-4.33-4.57-11.79-1.79-18.27,4.84,3.05,8.63,7.14,11.82,11.83Z" fill="#e9e9e9" stroke-width="0"/><path d="M23.03,319.12c.12-3.74.25-7.47.37-11.21,5.07,1.96,8.35,6.46,14.03,8.25,5.3,1.67,8.73,7.4,7.82,14.71-.84,6.74.02,13.71.29,20.57.17,4.3.39,8.08,6.82,7.83,16.69-.64,13.37,11.29,12.76,21.34-2.39,4.55-4.31,5.04-11.1,2.81-9.22-7.44-12.98-18.75-19.75-27.93-11.63-8.91-9.58-22.16-10.9-34.35.51-.78.4-1.46-.34-2.03Z" fill="#f6f6f6" stroke-width="0"/><path d="M54.02,383.43c3.7-.94,7.4-1.87,11.1-2.81,3.5,2.56,7.33-.34,10.73.5,6.93,1.72,17.91-.68,12.69,13.75-2.54,7.01,3.98,7.86,10.16,8.59,5.12.6,21.12-3.26,7.98,11.35-3.14,3.5,9.22,6.18.54,9.99-20.72-9.95-39.09-22.93-53.19-41.37Z" fill="#f5f5f5" stroke-width="0"/><path d="M109.45,425.61h69.35c-5.98,8.79-5.6,15.79,1.02,22.23-11.48,5.33-21.42,1.68-30.79-5.29-13.64-4.59-27.15-9.5-39.58-16.94Z" fill="#f5f5f5" stroke-width="0"/><path d="M120.64,461.84c-5.87.96-1.08-6.89-5.91-7.01-5.11,4.52,1.77,10.74-2.07,15.39-3.17,1.76-2.39,5.54-5.57,8.14,0-5.63-.04-11.25,0-16.88.15-17.92,8.1-24.48,24.88-18.43,6.02,2.17,11.27,2.27,17.06,2.02,8.58,3.65,20.35-.3,25.77,10.85-5.24,5.21-11.71,1.09-17.48,2.33-8.15-4.3-16.47,1-24.67-.36-4.58-.42-8.31,1.72-12.01,3.96Z" fill="#272727" stroke-width="0"/><path d="M23.37,321.15c3.63,11.45,7.27,22.9,10.9,34.35-3.68,4.95-12.5,2.15-14.51,9.62-1.94-4.03-3.87-8.06-5.81-12.09,6.69-3.96,2.04-10.21,2.31-15.07.31-5.64-4.69-12.53,6.58-11.31.18-1.83.36-3.67.53-5.5Z" fill="#252525" stroke-width="0"/><path d="M112.65,470.22c6.51,12.5,7.26,25.37,3.37,38.9-2.27,7.9-4.16.04-6.17.28-1.84-13.26,3.73-25.98,2.8-39.17Z" fill="#272727" stroke-width="0"/><path d="M174.19,456.19c-6.5-7.99-18.23-4.13-25.16-11.13,0-.84,0-1.67,0-2.51,10.42.84,20.12,5.87,30.79,5.29,1.22.76,2.44,1.52,3.65,2.28-1.16,4.98-2.87,9.1-9.27,6.07Z" fill="#212121" stroke-width="0"/><path d="M104.02,471.76c-1.06-9.77-2.11-19.55-3.17-29.32,7.31,9.1,1.97,19.57,3.17,29.32Z" fill="#272727" stroke-width="0"/><path d="M106.75,504.66c-2.87-6.58-2.53-13.5-2.2-20.42,4.77,6.37,1.91,13.56,2.2,20.42Z" fill="#272727" stroke-width="0"/><path d="M109.5,524.57c-2.6-4.79-2.57-9.96-2.19-15.18.85,0,1.7.01,2.54.01-.12,5.06-.24,10.11-.35,15.17Z" fill="#272727" stroke-width="0"/><path d="M120.64,461.84c-1.12-11.62,5.82-7.88,11.7-6.14,7.81-1.54,14.41,3.86,21.96,3.82,2.02.95,3.51,2.24,3.22,4.75,2.65,7.73-2.61,5.99-6.61,5.4-11.56-1.71-16.8,1.96-16.14,14.82,1.02,19.66.12,39.39-2.73,58.96-4.09-13.91-8.35-27.78-8.59-42.47-2.31-5.9.35-12.39-2.13-18.27-.23-6.95-.46-13.9-.69-20.85Z" fill="#f2f2f2" stroke-width="0"/><path d="M138.71,576.39c19.55,4.93,25.23,20.48,15.46,42.31-7.41-11.42-5.59-26.86-16.08-36.94l.14.13c.16-1.83.32-3.67.47-5.5Z" fill="#f2f2f2" stroke-width="0"/><path d="M138.09,581.76c-1.61,7.01,6.85,15.22-2.53,21.32q-8.32-12.37-4.94-37.5c5.1,4.24-.31,13.39,7.62,16.31,0,0-.14-.13-.14-.13Z" fill="#272727" stroke-width="0"/><path d="M121.33,482.69c2.66,5.86,2.04,12.11,2.13,18.27-4.5-5.65-1.81-12.14-2.13-18.27Z" fill="#272727" stroke-width="0"/><path d="M521.23,940.45c-18.16,1.48-35.77-.31-52.19-8.98-1.93-1.9-3.89-3.77-5.8-5.69-4.03-4.06-8.11-9.37-5.38-14.5,3.47-6.51,8.43,2.1,12.99.78,5.97,3.54,12.15,6.4,19.35,5.97,15.53,5.23,31.5,6.68,47.76,5.64,6.54-2.35,13.07-2.36,19.6.02-2.73,6.64-10.67,5.95-14.85,10.55-2.31,4.13-6.9,3.35-10.43,4.85-3.51,1.92-6.91,4.67-11.06,1.37Z" fill="#f3f3f3" stroke-width="0"/><path d="M522.17,957.54c-9.98.01-19.96.03-29.95.04-8.97,1.05-16.64-2.39-24-6.91,6.77-7.83,14.77-1.81,22.22-1.96,3.24.61,6.3-.93,9.31-1.04,4.74-.18,2.66-2.28,2.07-4.29,6.47-.09,12.94-.18,19.41-.27,2.52,6.47,12.49.27,14.1,8.28.89.92,1.78,1.83,2.67,2.75-5.12,1.85-10.12,4.26-15.82,3.4Z" fill="#1c1c1c" stroke-width="0"/><path d="M535.32,951.39c-4.41-2.4-9.29-2.17-14.07-2.89-7.21-1.09.55-3.53-.03-5.39,0-.89,0-1.77,0-2.66,3.73-.94,7.46-1.88,11.19-2.82.97.6,1.29,1.19.97,1.78-.32.59-.65.89-.97.89,3.13,3.13,6.72,6.14,2.9,11.1Z" fill="#1f1f1f" stroke-width="0"/><path d="M532.42,940.3c0-.89,0-1.78,0-2.67,3.43-1.13,6.87-2.26,10.3-3.39,1.81,10.93-6.96,3.88-10.3,6.06Z" fill="#1a1a1a" stroke-width="0"/><path d="M557.57,923.69c-6.53,0-13.07-.01-19.6-.02,6.54-4.72,13.07-4.67,19.6.02Z" fill="#0c0c0c" stroke-width="0"/><path d="M959.81,537.05c5.37,5.25,2.16,12.12,2.8,18.09.67,6.21-5.62,4.54-9.42,4.35-8.27-.41-18.09-4.05-13.02,11.62,2.09,6.47-2.29,8.63-8.45,4.86-2.59-1.59-3.91-.37-5.97.9-16.9,10.44-34.57,3.82-52.02,2.09,6.61-10.49,17.66-10.09,28-11.43,7.97-2.74,16.02-5.31,22.94-10.37,1.68-3.2,4.35-4.3,7.82-3.72,9.11-5.46,18.21-10.93,27.32-16.39Z" fill="#f6f6f6" stroke-width="0"/><path d="M1052.87,470.25c-3.24-.06-6.71.61-9.68-.31-14.96-4.63-18.98,8.27-19.19,16.18-.23,8.95-2.68,6.54-7.28,5.16-4.65-1.4-10.02-.01-9.05,4.62,4.91,23.43-10.22,17.39-22.41,16.04,3.97-6.42,7.93-12.84,11.9-19.27,8.94-10.61,13.64-25.03,27.8-30.96,5.6,0,11.21,0,16.81.01,3.59-1.32,5.93.1,7.45,3.36,1.22,1.72,2.44,3.45,3.66,5.17Z" fill="#f3f3f3" stroke-width="0"/><path d="M901.74,567.53c-9.33,3.81-18.67,7.62-28,11.44-.89.24-1.78.48-2.67.72-6.46,1.88-12.92,3.77-19.38,5.65,3.67-8.6-2.13-11.39-8.5-13.83,7.65-3.79,15.31-7.58,22.96-11.37,1.96-2.73,4.28-2.47,6.77-.81,4.98,7.25,11.1,11.11,19.85,6.32,3.67-2.01,6.75-2.41,8.97,1.89Z" fill="#1f1f1f" stroke-width="0"/><path d="M872.92,559.32c-2.26.27-4.51.54-6.77.81-3.9-1.63,3.98-11.74-6.31-8.76.93-1.87,1.87-3.74,2.8-5.61,4.41-.13,9.03-4.36,12.91,2.3,2.93,5.03,7.41,3.06,11.6.02,5.21-3.79,4.85-.53,3.48,3.28-5.9,2.65-11.81,5.3-17.71,7.96Z" fill="#fefefe" stroke-width="0"/><path d="M957.45,514.22c5.61-6.31,11.22-12.62,16.83-18.94,3.68,1.97,7.96,4.16,7.74,8.72-.3,6.18-6.98,4.87-9.74,4.57-6.4-.69-7.72,10.06-14.82,5.64Z" fill="#1c1c1c" stroke-width="0"/><path d="M932.49,553.44c-2.61,1.24-5.21,2.48-7.82,3.72-2.7-.49-6-.79-2.84-4.67,3.9-4.78,7.53-4.12,10.66.95Z" fill="#1d1d1d" stroke-width="0"/><path d="M381.59,963.42c-3.49-16.84,3.29-28.9,17.76-36.97,3.11-1.73,3.22-3.49,3.21-6.51-.07-12.7,4.54-25.1,1.61-38.14-.82-3.63-4.1-13.22,7.75-10.09,3.23.85,3.2-3.97,1-6.02-3.92-3.65-4.42-7.63-2.8-12.21,3.82-1.55,6.93,18.12,10.94.18,1.82.96,3.64,1.91,5.45,2.87,2.31,2.31,2.46,5.22,2.27,8.22-1.73,5.35-.84,11.71-6.02,15.75-6.55,18.61-10.21,38.2-18.88,56.09-5.21,10.76-10.05,21.89-22.3,26.85Z" fill="#f5f5f5" stroke-width="0"/><path d="M422.77,880.49c.84-5.3-1.07-11.22,3.57-15.66,2.94-1.03,6.15,6.66,8.7-.03,1.48-3.88,3.15,7.04,3.86-.29.19-1.99,1.81-3.41,3.76-2.22,2.52,1.54,1.22,3.93.51,6.03,0,3.82.82,7.18,4.96,8.62,2.46.46,3.82,1.72,3.21,4.41-5.82,9.55-6.25,20.44-6.71,31.02-.2,4.52-1.37,7.75-3.85,11.01-4.99-9.04.32-18.3.5-29.48-5.78,4.11-5.49,9.07-7.38,12.75-3.71-8.72-7.42-17.44-11.13-26.17Z" fill="#1b1b1b" stroke-width="0"/><path d="M361.75,971.56c-1.88-.22-3.76-.44-5.64-.67,3.33-3.94,7.17-5.19,11.81-2.23-.17.73-.42,1.44-.72,2.13-.9.2-1.8.4-2.71.6-.91.06-1.83.11-2.74.17Z" fill="#e5e5e5" stroke-width="0"/><path d="M946.51,615.53c21.57-9.45,44.81-15.76,62.11-33.19.98-.93,1.95-1.86,2.93-2.79.85-5.58,5.3-7.17,9.73-8.79,15.44-13.94,28.56-29.49,34.57-49.95,1.48-4.92-1.53-11.22,4.53-14.73,1.35-.58,2.6-.41,3.75.51.06,2.3.54,4.4,2.79,5.61,4.07,2.82,5.14-3.33,8.43-2.83.92.02,1.83.02,2.75.03-2.5,26.57-18.32,46.59-33.03,67.16-21.82,20.78-45.81,38.36-73.76,50.13-.52,1.09-1.3,1.34-2.35.74-1.55-.03-3.09-.06-4.64-.09-8.41,1.42-1.54-6.1-2.91-5.94-5.12.57-9.81-.05-14.28-2.36-1.21-.63-1.33-2.16-.62-3.5Z" fill="#202020" stroke-width="0"/><path d="M118.24,103.66c-5.17-4.03-10.34-7.23-16.14-.89-4.03,4.42-4.93-.02-6.49-2.44,7.4-4.02,14.79-8.04,23.64-12.86-4.75-4.21-8.85-7.85-12.96-11.49,2.84-3.91,6.58-7.41,3.42-13.11-.99-1.78-.84-4.69,2.91-3.98,6.11,4.72,12.61,9.02,18.22,14.28,4.56,4.27,9.23,6.5,15.38,5.44,0,1.81,0,3.62,0,5.42-1.28,4.49-5.32,4.36-8.78,5.18,2,4.06,10.71,2.02,8.64,9.67-2.13,1.77-4.68,2.23-7.33,2.38-7.09-1.42-13.71,1.3-20.51,2.4Z" fill="#1f1d1e" stroke-width="0"/><path d="M138.99,98.45c2.37-.36,4.73-.71,7.1-1.07,6.6-9.87,17.53-4.52,26.1-7.42.82.45,1.5.29,2.04-.46,2.01-1.4,3.9-1.53,5.6.51-5.16,4.39,1.28,13.49-5.63,16.33-17.28,7.09-35.16,8.81-53.26,2.68.15-.78.38-1.53.68-2.27,4.15-6.19,11.15-6.42,17.36-8.3Z" fill="#f2f1f1" stroke-width="0"/><path d="M172.19,89.96c-8.7,2.47-17.4,4.95-26.1,7.42-4.6-4.41-15.85-2.18-15.47-8.58.46-7.63,11.18.38,15.61-4.77,6.78-6.06,11.26,1.51,16.79,2.84h0c2.24,3.45,5.96,2.51,9.17,3.09Z" fill="#262526" stroke-width="0"/><path d="M163.02,86.87c3.51-4.21,8.04-5.73,14.87-5.39-5.07,4.3-9.73,5.49-14.87,5.39h0Z" fill="#262526" stroke-width="0"/><path d="M179.84,90.01c-1.87-.17-3.73-.34-5.6-.51,4.28-4.43,9.65-2.26,14.64-2.39-3.01.97-6.02,1.93-9.03,2.9Z" fill="#262526" stroke-width="0"/><path d="M112.63,58.89c-.67,6.23,7.89,15.88-6.33,17.09-17.27-11.73-34.05-24.21-52.71-33.77,7.71-2.16,15.6-3.82,22.57-8.06,13.33,6.52,25.56,14.66,36.47,24.74Z" fill="#252525" stroke-width="0"/><path d="M188.2,884.37c10.22-4.6,20.46-4.38,30.73-.18-10.23,2.93-20.47,3.31-30.73.18Z" fill="#101010" stroke-width="0"/><path d="M666.41,875.8c6.05,2.68,5.85,10.59,11.43,13.65-2.28,1.88-4.57,3.73-7.79,3.55-4.92-2.04-9.18-6.21-15.42-2.83-5.45,2.95-5.31-3.18-7.42-5.58,6.4-2.93,12.8-5.86,19.2-8.8Z" fill="#1c1c1c" stroke-width="0"/><path d="M968.96,627.42c.62-.77,1.4-1.02,2.35-.74,3.86,2.68-.41,5.8.48,8.64-2.13-.35-4.26-.71-6.38-1.06,1.18-2.28,2.37-4.56,3.55-6.84Z" fill="#fefefe" stroke-width="0"/><path d="M1057.27,429.45c5.02-1.65,7.62-.17,8.59,4.05.13.56-.74,1.92-1.23,1.96-4.32.36-5.73-2.57-7.36-6.01Z" fill="#fefefe" stroke-width="0"/><path d="M1072.21,443.77c-.33,2.49-1.05,4.58-3.15,4.5-2.47-.1-2.05-2.5-1.89-4.19.19-1.93,1.03-3.84,3.34-3.2.87.24,1.29,2.14,1.7,2.89Z" fill="#fefefe" stroke-width="0"/><path d="M1047.29,445.26c-3.18,3.48-6.95,2.93-12.66,1.25,3.77-.94,5.94-1.49,8.12-2.03,1.52.26,3.03.52,4.55.78Z" fill="#111" stroke-width="0"/><path d="M451.33,881.35c-1.07-1.47-2.14-2.94-3.21-4.41,11.6-8.98,22.95.18,35.74.51-4.14,2.21-7.25,3.87-11.52,6.15,9.22,1.71,14.67-2.51,20.8-10.44-.6,8.52-2.29,13.21-9.45,14.82,7.23,6.9,15.13,7.73,23.6,7.66,23.59-.21,47.17.04,70.76-.1,5.32-.03,7.85,2.02,7.6,7.35-2.83.45-5.66.9-8.49,1.35-4.95,2.32-10.59-.06-15.54,2.25-12.08-.02-24.16-.04-36.24-.05-4.89-2.23-10.39.01-15.3-2.06-9.04-2.58-18.88-1.63-27.44-6.29-4.07-1.36-9.67.91-11.83-4.99l-.89-.73-1.15.07c-5.81-3.69-11.63-7.38-17.44-11.08Z" fill="#f3f3f3" stroke-width="0"/><path d="M470.81,893.09c3.94,1.66,7.89,3.32,11.83,4.99-4.14.91-7.38,6.27-12.16,3.29-3.82-2.39-.76-5.52.33-8.27Z" fill="#202020" stroke-width="0"/><path d="M510.08,904.37c5.19-.01,10.41-.29,15.29,2.06-5.17-.13-10.66,2.08-15.29-2.06Z" fill="#242424" stroke-width="0"/><path d="M561.62,906.48c4.9-2.71,10.23-2.39,15.54-2.25-4.66,4.37-10.3,1.93-15.54,2.25Z" fill="#242424" stroke-width="0"/><path d="M165.95,654.88c4.42-.81,5.95-8.85,11.28-5.71,4.53,2.67,2.97,8.61,2.43,12.95-1.79,14.31,4.98,29.48-4.27,43.01-.48-4,1.31-8.74-3.73-11.22-2.93-4.47-1.7-9.11-.57-13.75-1.71-8.43-3.43-16.86-5.14-25.29Z" fill="#f3f3f3" stroke-width="0"/><path d="M171.1,680.17c2.58,4.48-.23,9.19.57,13.75l-.47.23c-.91,1.24-1.76,1.14-2.56-.12,0,0,.03.03.03.02.63-4.66-1.85-9.86,2.43-13.88Z" fill="#0c0c0c" stroke-width="0"/><path d="M17.46,302.31v-10.64c.91-.02,1.83-.04,2.74-.05,0,7.25,0,14.51,0,21.76-4.04-2.92-2.26-7.27-2.74-11.07Z" fill="#161616" stroke-width="0"/><path d="M1049.21,465.08c-2.48-1.12-4.96-2.24-7.45-3.36,2.69-4.24,5.81-8.15,10.62-2.81,3.28,3.64.97,5.68-3.17,6.17Z" fill="#1b1b1b" stroke-width="0"/><path d="M179.73,724.84c.13,1.88.26,3.76.38,5.63,4.63,9.91,4.27,20.27,2.75,30.73.02.95.05,1.9.07,2.85,1.91,3.88.69,8.02,1,12.03-2.55,13.86-.32,27.29,4.64,40.74,1.84-3.51,4.96-6.3,9.3-7.39,9.07-.69,13.4,4.11,12.08,12.52-1.35,8.63-7.49,12.32-16.27,11.09-1.84-.26-3.93-.42-5.31-1.49-13.57-10.53-24.43-7.75-33.13,6.45.89-11.17-8.25-10.42-14.95-12.56.48-7.45,4.85-12.55,10.27-17.03,20.94-.76,17.97-10.11,18.74-26.1.79-16.35-3.88-32.65-.69-49.06h0c3.37.96,8.88,8.81,8.39-2.66-.13-3.07.22-6.16.35-9.24,1.14-.37,2.17-.17,3.09.62.51,1.15.27,2.1-.72,2.88Z" fill="#232223" stroke-width="0"/><path d="M168.62,733.25c-6.07-6.04.83-10.25,1.36-16.8,8.2,7.79.58,11.89-1.36,16.8,0,0,0,0,0,0Z" fill="#232223" stroke-width="0"/><path d="M179.39,722.94c-.74-.46-1.41-.98-2.04-1.59,2.42-5.08-4.32-8.37-2.59-13.31,5.38.44,5.03,4.63,5.45,8.31,1.39,2.4,1.28,4.62-.82,6.59Z" fill="#f3f3f3" stroke-width="0"/><path d="M168.64,694.03c.85.04,1.7.07,2.56.12,0,4.51,0,9.03,0,13.54-.85.03-1.7.07-2.56.1v-13.76Z" fill="#232223" stroke-width="0"/><path d="M946.51,615.53c6.1,2.94,12.33,7.29,17.3-1.6,7.51,4.18-5.41,9.14.51,13.41-11.85,6.14-24.62,9.63-37.41,13.06-2.9-3.88-7.95-.87-12.12-4.03,3.62-.7,6.5-1.25,10.55-2.03-5.1-2.43-7.59-7.04-12.78-7.59,11.32-3.74,22.64-7.48,33.96-11.21Z" fill="#222" stroke-width="0"/><path d="M658.1,900.36c-.77,8.54-5.5,7.09-10.77,4.27,3.59-1.42,7.18-2.85,10.77-4.27Z" fill="#fefefe" stroke-width="0"/><path d="M280.55,86.75c13.48-1.58,15.93,6.16,14.51,17.17-.33.83-.46,1.68-.41,2.57-2.82,2.81-5.64,5.61-8.47,8.42-.58,1.3-1.57,2-2.99,2.11-3.1.3-6.35,1.3-8.62-1.99-1.03-6.49-1.15-12.45,6.17-15.88,4.39-2.06,6.14-5.24,1.54-9.14-3.73-.92-7.46-1.84-11.19-2.76,3.15-.16,6.31-.33,9.46-.49Z" fill="#282828" stroke-width="0"/><path d="M266.54,86.7c-9-.02-18.03.25-26.77-2.49,8.91.95,18.26-2.76,26.77,2.49Z" fill="#1f1f1f" stroke-width="0"/><path d="M155.24,838.01c1.47-3.85,2.46-7.99,4.51-11.5,4.3-7.36,8.91-13.09,17.98-4.37,3.76,3.62,9.76,5.04,14.9,7.07,6.44,2.55,12.66,1.67,14.7-5.56,2.37-8.39-2.89-11.78-10.75-11.94-10.42.85-14.05-6.13-15.02-14.43-.74-6.28-1.5-12.91.83-19.21.18-4.67.36-9.34.55-14,5.46,4.88-.33,12.81,5.86,19.19,3.17-16.62,3.49-32.22,2.26-48.88,8.92,2.63,11.33,7.55,11.21,14.82-.24,15.35.04,30.7-.11,46.05-.06,6.22.66,10.41,8.72,10.95,14.84.98,17.85,7.84,10.42,21.39-1.71,3.12-4.7,5.79-3.74,9.94,3.65,1.88,3.53-1.21,4.45-3.06.77-1.55,1.8-2.98,2.68-4.4,3.98,1.63,2.18,6.76,6.68,7.69,1.04-3.43-2.59-9.97,6.64-8.42,7.29,1.23,10.09-4.96,8.98-12.12,2.41-1.47.52-7.92,6.32-5.45-1.27,13.79-2.73,27.54-11.29,39.24-3.97,2.71-7.32,7.59-13.19,3.73-.48-.31-.88-.07-.83.63.27,3.53-1.42,6.25-3.43,8.88-1.67.27-3.34.54-5.02.81-2.85,1.3-6.49-.86-8.97,2.05-3.75.04-7.49.08-11.24.11-4.4-2.64-9.75.53-14.11-2.33l.12.04c-1.27-2.06-5-.95-5.4-3.53-.62-3.99,2.93-4.34,5.43-4.2,6.1.34,11.91-.21,20.2-4.61-15.77,2.55-28.83.79-41.78,2.78-2.91-.43-5.16-1.58-5.4-4.92-1.05-4.14-2.11-8.29-3.16-12.43Z" fill="#f9f9f9" stroke-width="0"/><path d="M162.7,853.69c16.01-6.31,32.61-.79,49.05-2.81-7.57,5.59-14.17,12.84-24.81,9.22-1.27-.43-4.62-3.03-4.09,1.62.13,1.15,1.63,2.14,2.5,3.2-1.85.06-3.7.12-5.56.19-2.76-1.06-5.53-2.12-8.29-3.18-3.83-1.79-9.86-1.22-8.81-8.24Z" fill="#f3f3f3" stroke-width="0"/><path d="M162.7,853.69c1.37,4.42,6.22,5.12,8.81,8.24-9.79,5.43-13.39-3.41-18-8.5-1.34-1.48,2.87-2.38,4.89-2.99,1.43,1.08,2.86,2.17,4.3,3.25Z" fill="#252525" stroke-width="0"/><path d="M150.39,842.83c-1.98-2.91-1.73-5.74-.12-9.56,2.07,3.65,2.2,6.46.12,9.56Z" fill="#232223" stroke-width="0"/><path d="M501.82,943.38c1.69,3.52,6.11,1.33,10.71,6.71-9.27-6.02-14.84,8.23-22.08-1.38,2.86-3.77,7.75-3.19,11.38-5.33Z" fill="#1f1f1f" stroke-width="0"/><path d="M1061.6,506.61c-3,4.29-1.42,10.44-5.75,14.19-5.6-15.19-1.85-30.34.17-45.5,4.05,2.87,3.47,7.96,5.63,11.75,1.58,6.52,1.71,13.04-.05,19.56Z" fill="#eee" stroke-width="0"/><path d="M1075.35,509.37c-2.12,3-3.63,7.84-8.43,2.83,5.11-6.59-4.92-18.85,8.38-22.37.02,6.51.04,13.03.05,19.54Z" fill="#252525" stroke-width="0"/><path d="M1061.6,506.61c.02-6.52.04-13.04.05-19.56,4.82,6,1.52,13.04,2.48,19.54-.84,0-1.69.01-2.53.02Z" fill="#252525" stroke-width="0"/><path d="M112.95,307.29c-1.03-7.3-1.16-14.48,2.8-21.12,14.64-18.43,45.61-11.77,53.04,1.61,5.89,10.6,3.61,23.24-7.94,28.53-10.88,4.98-13.26,11.76-10.16,22.08-.35,6.43,1.84,10.39,9.17,9.38,5.32.96,11.14,1.09,12.95,7.82.43,14.8-6.11,20.97-18.76,15.13-11.72-5.41-22.06-10.19-34.2-1.98-2,1.35-5.36-.44-7.82-1.88-4.28-3.18-7.14-6.9-4.73-12.59,1.66-2.71,3.69-5.18,5.74-7.62,12.11-14.41,12.19-14.45,2.85-30.39-1.68-2.87-1.92-6-2.95-8.97Z" fill="#212121" stroke-width="0"/><path d="M171.77,355.49c-4.77-1.91-9.53-3.81-14.3-5.72-4.95-.57-8.84-2.33-9.03-8.16-6.82-18.22-6.36-19.6,9.31-26.26,7.44-3.17,12.33-8.16,11.96-16.72-.39-8.99-6.08-14.59-13.77-17.37-14-5.07-27.76-4.55-40.19,4.93-4.78-16.84-2-18.89,14.83-16.71,11.7,1.52,23.85-.56,35.89-.18,10.16.33,13.2,4.01,12.06,13.45-.59,4.91-.38,9.99.12,14.93.71,7.11,4.52,14.82-6.61,17.84-2.55.69-1.86,5.08,1.51,7.09,2.86,1.71,1.19,2.99.06,3.97-5.44,4.68-.44,5.41,2.11,8.55,5.27,6.49,7.52,14.21-1.4,20.41-.88,1.31-1.73,1.29-2.55-.05Z" fill="#f3f3f3" stroke-width="0"/><path d="M244.08,254.71c15.75-6.7,31.67-12.48,49.25-11.6,6.58.33,12.59,1.39,12.63,9.31.04,7.76-5.46,9.33-12.33,9.39-9.19.08-18.46.51-27.02,4.64-9.35,7.25-17.96,15.87-30.84,16.54-9.69-2.22-13.09-7.53-8.3-16.87,3.01-7.49,9.34-10.14,16.62-11.41Z" fill="#232323" stroke-width="0"/><path d="M319.94,783.17c-4.76,4.66-2.08,16.46-13.83,14.42-3.61-.86-5.44-3.57-6.35-6.78-4.45-15.67-9.31-31.23-12.65-47.19-.77-3.67-1.15-7.44,2.12-10.37,3.66-1.38,5.52,6.36,9.17,2.28,3.09-3.46,2.45-7.93-1.34-10.83-3.66-2.79-.31-11.18-8.52-10.27-.99.11-1.11-.98,4.12-4.01,10.49-4.17,13.33,3.84,15.66,10.73,3.55,10.48,4.72,21.54,5.49,32.59-.47.79-.31,1.42.48,1.89,5.58,8.42,10.11,17.06,5.66,27.54Z" fill="#1f1f1f" stroke-width="0"/><path d="M460.16,746.19c3.59,2.39,1.69,6.37,2.75,9.49,3.01,23.12-1.13,45.3-8.72,67.02-2.64-2.01-4.83-3.77-4.1,2,.37,2.9-1.74,4.86-5.03,4.76-5.86-1.62.37-10.75-7.1-11.41-1.94-5.43-1.83-11.27-3.51-16.75-.28-15.73,4.03-30.94,5.21-46.5.33-4.28,2.5-7.84,6.24-10.24.84-.25,1.69-.29,2.54-.12,2.75.12,6.76-.47,7.63,2.02,2.31,6.63,2.77-.62,4.07-.28Z" fill="#262626" stroke-width="0"/><path d="M257.44,467.07c-23.26,6.38-46.6,4.43-69.95.69,3.22-2.53,6.68-2.09,10.22-.86-.57-2-2.15-.77-3.21-.88-3.72-.38-3.68-.3-3.52-4.74.07-2-1.35-.96-2.3-1.03-3.66-.25-6.77-2.09-5.96-5.87.85-3.99,5.91-1.15,8.25-3.47,20.46.78,40.93,2.46,61.38-.16,9.57,2.98,11.65,8.3,5.1,16.31Z" fill="#212121" stroke-width="0"/><path d="M171.77,355.49c.85,0,1.7.02,2.55.05,4.52,6.56,1.62,14.44,3.8,21.48.94,3.03-1.85,3.59-4.39,3.57-18.31-.15-37.11,2.05-54.65-1.67-6.14-1.3-20.3,4.93-22.67-10.63,3.16,1.27,5.47,2.19,8.56,3.43-1.42-6.69-7.27-12.86-.7-19.03.42.43.85.87,1.28,1.3,1.47,4.06-.27,10.27,7.01,10.43,4.74,1.17,10.2,4.57,13.84-.86,6.78-10.12,12.74-5.83,19.34-.12,2.03,1.75,4.84,2.65,7.36,3.78,13.89,6.19,18.18,3.48,18.68-11.73Z" fill="#f3f3f3" stroke-width="0"/><path d="M253.3,811.75c-2.11,1.82-4.22,3.63-6.32,5.45.2-30.4.67-60.8.32-91.2-.06-5.36,1.18-8.76,4.99-11.8,10.39.71,12.19,6.78,11.15,16.01-2.1,18.69-3.38,37.47-4.99,56.22-1.72,8.44-3.43,16.88-5.15,25.33Z" fill="#f2f2f2" stroke-width="0"/><path d="M512.45,565.28c2.1-3.48,4.21-6.96,6.31-10.43,1.16-4.27,3.1-7.62,8.33-7.13,4.09,3,7.59,4.89,3.21,11.64-2.96,4.56-1.16,12.18-.96,18.46-1.93,8.82-4.71,17.24-11.56,23.66-.94,2.04-1.95,4.04-2.8,6.11-2.61,6.37-2.56,16.73-13.19,13.47-10.21-3.12-8.56-12.02-5.83-20.13,2.7-13.17,4.83-26.61,16.49-35.64Z" fill="#1f1f1f" stroke-width="0"/><path d="M445.92,744.56c-2.77,19.57-5.54,39.13-8.31,58.7-.88,8.63,4.47,18.71-5.85,25.15-12.52-3.3-3.65-12.92-4.22-18.64-1.93-19.22-2.83-38.77-.55-58.13,1.75-14.82,5.37-15.99,18.94-7.08Z" fill="#f3f3f3" stroke-width="0"/><path d="M451.79,823.87c6.2-22.33,6.49-45.62,11.13-68.2,5.98,3.97,7.97,9.1,8.26,16.67.95,25.19-5.49,50.23.62,77.46-8.35-8.33-5.64-17.1-7.08-25.16-6,1.09,1.69,13.36-8.85,9.61-.82-.29-2.4,4.41-.77,6.08,12.33,12.68-3.55,7.5-6.5,10.45-6.12-9.82-1.07-18.32,3.2-26.91Z" fill="#f6f6f6" stroke-width="0"/><path d="M527.17,577.31c-1.62-6.22-.49-16.83,2.13-20.77,2.84-4.28-3.02-5.76-3.02-9.15,4.45-18.59,19.13-25.98,35.04-32.03,1.55.82,3.1,1.63,4.65,2.45,2.06,3.55,4.18,7.08,5.27,11.1-4.12,8.25-14.37,9.83-19.02,17.51-1.95,4.49-3.97,8.91-9.42,10.15-3.73,2.9-6.43,6.52-7.83,11.07-1.57,4.05-1.8,9.18-7.79,9.67Z" fill="#242424" stroke-width="0"/><path d="M225.13,693.87c-3.56-.88-5.28-3.34-6.27-6.73-1.32-4.5-4.46-1.59-6.81-1.3-1.92.23-2.73,1.38-2.93,3.68-.17,1.84,9.6,1.86.9,4.37-2.86.83-5.42.6-5.79-4.78-1.12-16.24-.62-15.41,15.49-16.39,13.75-.84,27.25,1.59,40.8.34,4.31-.4,8.58-3.31,7.66,4.66-.46,3.95,2,8.85-5.88,6.21-4.75-1.59-6.95,3.52-9.68,6.51-3.35,3.18-6.13.34-8.15-1.46-9.08-8.06-15.02-5.18-19.34,4.87Z" fill="#f5f5f5" stroke-width="0"/><path d="M451.79,823.87c-1.07,8.97-2.13,17.94-3.2,26.91-1.81,5.85-3.62,11.7-5.43,17.54-4.82.42-10.3-.34-11.53,6.58-4.69-1.94-1.11-8.05-5.29-10.08.06-2.77.12-5.54.18-8.31,3.14-9.11,5.06-18.45,5.23-28.11,1.95-8.38,3.9-16.77,5.85-25.15,4.54,5.02,1.64,11.15,2.48,16.72,1.89,2.25.57,4.61.23,6.93-.37,1.95.93,3.8.37,5.77,1.54-.67.36-2.23,1.04-3.21.39-.38.77-.73,1.14-1.08,7.65-.35,4.24-7.42,6.61-11.15,3.05,1.55,1.29,4.58,2.31,6.63Z" fill="#212121" stroke-width="0"/><path d="M313.8,753.74c-4.77-9.96-5.96-20.91-8.42-31.47-1.67-7.19-5.16-11.47-12.73-11.84-1.22-.86-2.45-1.73-3.67-2.59-1.66-4.3-4.13-8.81,2.76-10.95,3.55-.9,7.05-2.23,10.66-2.61,7.87-.84,13.22,2.23,11.23,10.91-2.14,9.31,1.13,18.19.85,27.34-.18,5.77,1.55,12.93,10.52,9.21,2.88-1.2,5.86-4.93,7.32-.02,1.17,3.91-3.49,5.73-6.48,7.85-3.67,2.61-10.77-4.93-12.04,4.19Z" fill="#f7f7f7" stroke-width="0"/><path d="M364.48,120.53c4.47,2.86,8.94,5.71,13.42,8.57,5.08,1.14,8.14,4.09,8.54,9.46,5.91,13.8,4.12,16.81-10.63,17.98-.95-.84-1.9-1.68-2.85-2.53-9.86-5.63-17.65-13.66-25.37-21.77-.43-.83-1.09-1.13-2-.92-1.31-.76-1.65-1.87-1.15-3.27,5.3-6.18,12.77-6.57,20.04-7.51Z" fill="#252525" stroke-width="0"/><path d="M225.13,693.87c-1.12-5.13-2.13-10.39,3.47-13.62,5.42-3.13,9.57-.23,13.72,3.29,3.13,2.66,6.85,4.63,10.3,6.91,4.63,3.23,9.26,6.46,13.89,9.69-4.58,4.37-9.16,8.74-13.74,13.12-2.7.8-4.97.38-6.49-2.24-7.88-2.7-15.54-5.7-18.75-14.46-.8-.9-1.6-1.79-2.41-2.69Z" fill="#202020" stroke-width="0"/><path d="M561.32,515.36c-13.28,8.93-26.55,17.87-35.04,32.03-2.5,2.49-5.01,4.97-7.51,7.46-7.43-12.51,2.67-25.55-.05-38.62,13.71,7.95,27.88-5.81,42.61-.88Z" fill="#f1f1f1" stroke-width="0"/><path d="M319.94,783.17c-1.89-9.18-3.77-18.36-5.66-27.54,9.78,8.05,14.61-1.01,22.23-9.03,0,13.41,0,23.83,0,34.25-2.78,6.49-10.5.62-13.9,5.55-.89-1.08-1.78-2.15-2.67-3.23Z" fill="#f7f7f7" stroke-width="0"/><path d="M112.95,307.29c2.95,3.52,6.13,6.87,8.81,10.59,6.14,8.52,8.87,16.99-.64,25.35-4.08,3.58-7.56,7.84-11.31,11.8-1.63-1.33-3.95-.97-5.56-2.34,0,0,.01.01.01.01-.36-10.96,13.11-17.09,9.7-29.81-1.2-4.47-5.52-10.2-1.01-15.6Z" fill="#f3f3f3" stroke-width="0"/><path d="M92.48,265.69c-.79.89-1.58,1.78-2.37,2.66-3.54,3.37-7.29,2.69-11.13.61l-.14-.06c-6.19-2.03-12.79-3.49-15.08-10.91,2.15-6.63,1.9-15.08,11.95-15.77,16.61,3.67,21.71,10.81,16.77,23.46Z" fill="#202020" stroke-width="0"/><path d="M512.45,565.28c-5.5,11.88-10.99,23.76-16.49,35.64-4.27-11.16-4.08-23.38-2.02-34.15,2.83-14.79,11.86-4.74,18.51-1.5Z" fill="#f1f1f1" stroke-width="0"/><path d="M527.17,577.31c2.6-3.22,5.2-6.45,7.79-9.67.39,3.14,11.33-.18,4.24,8.34-5.98,7.18.94,17.16-.86,22.83-7.37.3-14.02,6.4-20.56,2.66.76-8.97,7.1-15.78,9.39-24.16Z" fill="#f2f2f2" stroke-width="0"/><path d="M65,257.71c4.61,3.73,9.23,7.46,13.84,11.19-1.63,5.28-3.57,10.29-10.83,11.12,3.81-11.34-.67-13.84-11.28-11.6-4.26.9-11.1,3-13.27-3.51-1.87-5.63-2.21-12.06,4.6-15.76,6.4,1.37,12.16,4,16.94,8.56Z" fill="#efefef" stroke-width="0"/><path d="M92.48,265.69c2.4-14.23-8.14-18.13-18.01-22.58-2.21.02-2.54-.77-.99-2.35,7.07-1.48,15.06-9.08,19.52,4.48.87,2.66,8.73,4.14,13.39,4.2,10.06.13,5.37,5.92,4.74,10.32-7.49-2.03-10.59,9.75-18.65,5.93Z" fill="#f4f4f4" stroke-width="0"/><path d="M235.77,283c10.16-5.73,18.94-14.05,30.84-16.54,2.17,7.72-4.32,21.99-10.88,23.76-2.12.57-3.96-.72-4.28-2.48-1.34-7.49-2.9-4.03-6.07-.78-5.5,5.64-9.44,4.76-9.61-3.95Z" fill="#f3f3f3" stroke-width="0"/><path d="M190.96,450.91c-2.18,1.46-4.35,2.93-6.44,4.33,1.15,5.22,7.12,2.09,9.47,5.47-2.19.89-4.13,1.68-6.31,2.58,3.81,2.95,8.56-.57,12.28,3.5-4.54.36-8.51.67-12.48.98-5.37-.07-10.74-.14-16.11-.2-2.99-.15-5.73-1.13-8.34-2.51-1.84-.26-3.67-.52-5.51-.79-.96-.86-1.92-1.71-2.88-2.57-1.68-3.14,1.27-3.95,2.77-5.49,5.58-6.33,11.19,2.06,16.78-.02,4.67.38,5.87-4.52,9.27-6.07,2.5.26,5,.53,7.5.79Z" fill="#181818" stroke-width="0"/><path d="M405.92,194.38c2.99,1.53,5.98,3.07,8.97,4.6-.26,8.52-4.22,15.86-7.49,25.4-4.54-11.22-2.22-22.2-7.53-31.47-3.09,1.09-.28,10.03-7.38,5.87h0c2.48-6.83-5.16-11.11-5.16-19.44,5.76,3.9,10.65,9.45,16.11,2.64,3.22,3.65,1.32,8.32,2.47,12.39Z" fill="#f5f5f5" stroke-width="0"/><path d="M73.47,240.77c.25.81.58,1.6.99,2.35-3.16,4.87-6.31,9.73-9.47,14.6-6.78-.61-13.06-2.22-16.94-8.56,0-1.86,0-3.71,0-5.57,2.34-2.81,4.84-5.39,8.67-6.09,5.59,1.09,11.17,2.18,16.76,3.27Z" fill="#2b2b2b" stroke-width="0"/><path d="M347.59,132.23c10.77,4.56,18.93,12.17,25.37,21.77-11.43,6.6-19.53-2.46-28.66-7.18,3.67.56,7.34,1.11,11,1.67-4.47-4.75-14.87-6.18-7.71-16.26Z" fill="#f1f1f1" stroke-width="0"/><path d="M344.55,129.02c.47.71.81,1.47,1.04,2.29-7.59,4.47-16.14.45-24.1,2.73-3.26.93-6.49-1.95-6.79-5.47-.43-5.09-3.24-11.36,4.41-14.07,1.01,2.01,2.02,4.01,3.03,6.02,2.47-2,4.96-.83,7.46-.09,5.13,2.58,11.64,2.8,14.94,8.58Z" fill="#f1f1f1" stroke-width="0"/><path d="M227.53,696.56c6.41,4.62,13.66,8.13,18.75,14.46-5.33,5.21-13.12,8.53-18.39,4.42-5.15-4.02-2.87-12.41-.36-18.87Z" fill="#f2f2f2" stroke-width="0"/><path d="M283.19,117.02c1-.7,1.99-1.41,2.99-2.11,3.14,5.59,7.18,12.2,3.4,17.68-3.07,4.45-10.23,1.65-15.58,1.46-3.38-.12-4.44-2.76-4.32-5.82.11-2.7,1.72-4.93,4.24-3.53,10.2,5.67,6.09-5.3,9.27-7.69Z" fill="#f4f4f4" stroke-width="0"/><path d="M257.44,467.07c3.06-6.92,1.01-12.25-5.1-16.31,16.69-4.36,16.94-3.75,15.76,11.67-.77,10.15-5.39,7.12-10.67,4.65Z" fill="#eee" stroke-width="0"/><path d="M244.08,254.71c-5.54,3.8-11.08,7.61-16.62,11.41-.05-.45-.1-.91-.17-1.36-.82-5.97-4.63-13.82.64-17.39,6.6-4.47,10.59,4.86,16.14,7.34Z" fill="#eaeaea" stroke-width="0"/><path d="M282.28,90.01c2.81-.15,6.9-.3,7.12,2.5.24,3.07-2.4,9.18-3.52,9.12-10.27-.55-8.1,8.61-11.31,13.41-6.89-3.55-5.99-8.52-2.15-13.6,3.03-4,6.55-7.63,9.86-11.43Z" fill="#1e1e1e" stroke-width="0"/><path d="M291.73,696.88c-.92,3.65-1.84,7.3-2.76,10.95-7.14-1.27-13.63-4.1-19.61-8.16,6.22-10.81,14.9-1.95,22.37-2.8Z" fill="#ebebeb" stroke-width="0"/><path d="M182.86,761.21c-1.59-10.18-3.37-20.35-2.75-30.73,12.64,9.19,6.04,20.11,2.75,30.73Z" fill="#f9f9f9" stroke-width="0"/><path d="M26.31,268.84c.6-6.95,1.73-13.77,5.02-20.05,5.97,11.13-1.56,22.11.64,36.13-5.01-6.45-1.22-12.72-5.65-16.08Z" fill="#efefef" stroke-width="0"/><path d="M542.79,556.57c2.35-4.12,5.29-7.69,9.42-10.15,2.51,2.91,8.48,5.03,5.63,9.55-3.91,6.18-9.93,1.22-15.05.61Z" fill="#e8e8e8" stroke-width="0"/><path d="M507.25,327.53c-.76,5.06-2.12,9.34-8.77,6.71-3.13-1.24-4.46-2.73-1.81-6.02,3.44-4.27,6.64-5.98,10.54-.72,0,0,.03.04.03.04Z" fill="#f5f5f5" stroke-width="0"/><path d="M153.03,576.97c-1.12-6.63-1.85-10.95-2.58-15.27,1.82.02,4.62-.7,5.29.19,3.1,4.12,2.15,8.37-2.71,15.08Z" fill="#f2f2f2" stroke-width="0"/><path d="M179.39,722.94c.27-2.2.54-4.39.81-6.59,5.08,1.25,10.95,3.49,9.02,9.35-1.41,4.28-6.25.13-9.5-.85-.83-.51-.94-1.15-.33-1.91Z" fill="#f9f9f9" stroke-width="0"/><path d="M175.47,629.49c1.54,6.26-2.74,9.81-5.3,14.16-1.5-5.93,2.87-9.87,5.3-14.16Z" fill="#f3f3f3" stroke-width="0"/><path d="M460.16,746.19c-5.33,9.04-7.7-1.86-11.7-1.74,4.63-4.3,8.44-3.16,11.7,1.74Z" fill="#0e0e0e" stroke-width="0"/><path d="M392.49,198.79q-5.06-.61-6.52-7c5.1-.34,2.92,6.05,6.52,7.01h0Z" fill="#f5f5f5" stroke-width="0"/><path d="M350.61,966.46c-4.22,2.54-8.31,1.9-14.03.47,5.93-3.74,9.89.07,14.03-.47Z" fill="#e5e5e5" stroke-width="0"/><path d="M98.66,344.3c2.42-4.19-7.03-3.17-3.35-7.37.94-1.07,5.17-1.1,5.99-.08,2.58,3.21-.33,5.42-2.65,7.44h0Z" fill="#f3f3f3" stroke-width="0"/><path d="M78.98,268.97c3.71-.2,7.42-.41,11.13-.61-3.32,7.33-7.05,7.13-11.13.61Z" fill="#efefef" stroke-width="0"/><path d="M405.92,194.38c-4.77-3.34-2-8.19-2.47-12.39.92-1.19,1.83-2.38,2.75-3.57,1.03,4.01,2.05,8.02,3.08,12.03-1.12,1.31-2.24,2.62-3.36,3.93Z" fill="#232323" stroke-width="0"/><path d="M571.24,528.91c-1.85-3.66-7.45-5.53-5.27-11.1,4.78,2.27,8.52,5.02,5.27,11.1Z" fill="#111" stroke-width="0"/><path d="M583.26,525.06c-3.83-2.84-7.94-3.74-6.54-7.24,1.07-2.66,3.75-1.02,4.98,1.05.63,1.06.66,2.47,1.55,6.19Z" fill="#eaeaea" stroke-width="0"/><path d="M725.51,489.8c-6.57,4.31-7.13-.59-9.05-7.06,4.05,3.16,6.56,5.12,9.06,7.07,0,0-.01-.01-.01-.01Z" fill="#f4f4f4" stroke-width="0"/><path d="M325.56,464.82c2.44.19,4.09.84,3.06,2.41-.86,1.3-2.8,2.16-4.43,2.61-1.38.38-3.08-.6-2.1-2.25.81-1.38,2.65-2.15,3.47-2.77Z" fill="#f0f0f0" stroke-width="0"/><path d="M169.25,627.75c-.27,3.97-2.46,6.06-5.39,8.26-1.14-4.87.44-7.36,5.39-8.26Z" fill="#f3f3f3" stroke-width="0"/><path d="M62.19,226.77c-3.6-1.32-9.59,6.89-11.11-2.77,3.83.42,8.21-1.39,11.11,2.77Z" fill="#eee" stroke-width="0"/><path d="M474.29,313.03c-2.96-2.48-1.98-5.59-2.58-8.65,5.64,1.64,5.42,4.54,2.58,8.65Z" fill="#f2f2f2" stroke-width="0"/><path d="M65.07,184.81c3.68,3.19,3.36,6.97,1.65,11.55-3-3.89-1.02-7.92-1.64-11.56,0,0,0,0,0,0Z" fill="#f5f5f5" stroke-width="0"/><path d="M390.43,921.04c1.92.07,3.3.55,2.62,2.17-.41.97-1.75,1.88-2.83,2.15-1.53.38-2.59-.85-2.09-2.26.33-.95,1.69-1.55,2.31-2.06Z" fill="#f5f5f5" stroke-width="0"/><path d="M39.81,258.07c-.23,2.48-.2,7.04-.74,7.11-3.46.44-1.54-2.6-1.84-4.16-.21-1.11.48-2.38.78-3.59.6.21,1.2.43,1.8.64Z" fill="#efefef" stroke-width="0"/><path d="M98.65,344.29v12.56c-4.11-5.59-3.4-9.16,0-12.55,0,0,0,0,0,0Z" fill="#f3f3f3" stroke-width="0"/><path d="M199.61,719.94c-.92,1.2-1.57,2.05-2.23,2.9-.86-.84-2.17-1.55-2.44-2.55-.19-.69,1.05-1.77,1.66-2.67.9.69,1.8,1.38,3.01,2.32Z" fill="#f9f9f9" stroke-width="0"/><path d="M163.04,465.05c3.1-.21,6.2-.45,8.34,2.51-4.38,4.48-6.19.41-8.34-2.51Z" fill="#f2f2f2" stroke-width="0"/><path d="M328.19,122.9c-2.01-.79-4.03-1.58-6.04-2.36-2.18-8.05,1.99-14.19,5.9-20.56,9.07-14.78,22.05-26.02,34.08-38.12,5.49-3.65,10.97-7.3,16.46-10.95,7.18,1.03,7.44,5.47,5.82,11.22-1.16,4.1-5.69,6.23-5.88,10.76-11.84,10.61-23.23,21.66-33.44,33.89-3.37.52-4.32,3.07-4.36,5.84-.13,8.5-5.6,10.23-12.54,10.29Z" fill="#252525" stroke-width="0"/><path d="M386.44,138.55c-2.85-3.15-5.69-6.3-8.54-9.46,5.72-7.78,4.61-17.62,2.1-24.7-2.59-7.3-11.67-7.52-19.5-2.21,5.36-3.97,5.42-12.57,16.68-9.63,8.12,2.12,14.48-6.41,15.61-16.27,16.52,8.11,8.82,23.37,11.03,35.7,2.64,14.72-2.13,23.89-17.37,26.57Z" fill="#fefefe" stroke-width="0"/><path d="M378.52,72.88c-3.7-4.16-3.56-4.01-1.08-6.29,5.23-4.8,8.5-9.91,1.14-15.7,4.16-2.8,8.21-5.8,12.51-8.36,4.87-2.91,9.8-3.04,13.23,2.18,3.86,5.88,1.4,10.45-3.93,13.94-7.28,4.77-14.59,9.49-21.88,14.23Z" fill="#202020" stroke-width="0"/><path d="M328.19,122.9c5.73-2.8,11.3-5.12,9.15-13.87-.63-2.59,2.16-11.37,7.75-2.26,4.18,7.81,14.44,7.04,19.4,13.76-4.96,6.77-13.87,4.3-19.93,8.5-5.4-2.2-11.65-2.11-16.36-6.13Z" fill="#1e1e1e" stroke-width="0"/><path d="M138.99,98.45c-5.38,3.63-10.82,7.1-17.36,8.3-1.13-1.03-2.26-2.06-3.38-3.1,5.37-7.88,13.22-5.88,20.75-5.21Z" fill="#1b191a" stroke-width="0"/><path d="M1021.28,570.75c-2.05,4.25-5.6,6.84-9.73,8.79-3.74-1.9-1.07-5.94-2.84-8.5,3.96-2.31-4.28-9.47,4.33-10.25,8.21-.75,7.26,5.2,8.24,9.96Z" fill="#ededed" stroke-width="0"/><path d="M796,694c-.21-6.13-.21-12.23,2.04-18.09-.52,6.04,2.24,12.47-2.04,18.09Z" fill="#222" stroke-width="0"/><path d="M789.84,565.29c2.31,1.45,5.93,2.96,4.25,5.87-1.81,3.14-3.47.65-3.99-1.76-.28-1.31-.19-2.7-.27-4.12Z" fill="#222" stroke-width="0"/><path d="M289.22,733.26c3.46,22.01,10.11,43.19,16.88,64.34-.66.56-.86,1.26-.6,2.09-.97,2.31-2.89,2.47-4.99,2.2-6.1-2.91-12.14-5.9-14.09-13.23-2.01-2.61-4.01-5.22-6.02-7.82-4.23-13.07,1.07-26.19-.24-39.27-.91-4.67-2.66-9.41,1.02-13.75,5.05-1.68,6.61,1.78,8.03,5.45Z" fill="#efeeef" stroke-width="0"/><path d="M275,803.34c4.93,3.51,3.19,7.34.54,11.22-.93,1.18-1.83,1.16-2.71-.06.72-3.72,1.45-7.44,2.17-11.16Z" fill="#dfddde" stroke-width="0"/><path d="M272.83,814.49c.9.21,1.8.23,2.71.06.05,5.48.1,10.97.16,16.46-3.11-.95-3.2-3.84-4.03-6.26.39-3.42.77-6.84,1.16-10.26Z" fill="#fafafa" stroke-width="0"/><path d="M281.18,727.81c-.34,4.58-.68,9.16-1.02,13.75-3.28-4.85-4.31-9.53,1.02-13.75Z" fill="#0f0f0f" stroke-width="0"/><path d="M224.57,864.24c.7-10.18,1.1-10.62,9.5-11.72,2.67-.35,5.29-1.01,7.94-1.53-2.07,2.88-4.14,5.75-6.2,8.63-3.75,1.54-7.49,3.08-11.24,4.62Z" fill="#f3f3f3" stroke-width="0"/><path d="M210.58,867.09c1.41-7.62,5.59-3.09,8.97-2.05-2.59,2.45-5.69,2.62-8.97,2.05Z" fill="#f3f3f3" stroke-width="0"/><path d="M185.24,864.88c4.78.32,9.95-1.77,14.11,2.33-4.89.39-9.8.84-14.11-2.33Z" fill="#f3f3f3" stroke-width="0"/><path d="M286.42,788.65c4.72,3.58,9.44,7.16,14.15,10.74,2.4,6.76-.3,11.48-5.99,15.01-1.98-3.81-8.02,4.28-8.81-3.01-.82-7.61-7.52-15.38.65-22.73Z" fill="#242424" stroke-width="0"/><path d="M294.58,814.39c2-5,3.99-10,5.99-15.01,1.65.1,3.29.2,4.94.3,5.75,4.44,8.06,10.57,8.6,17.56-1.27,1.44-1.87,3.5-3.93,4.21-4.38.66-7.87-.58-10.02-4.68-1.86-.79-3.72-1.59-5.58-2.38Z" fill="#1e1c1d" stroke-width="0"/><path d="M300.16,816.78c3.58,1.33,7.16,2.67,10.74,4,2.57,3.49,2.9,6.92-.26,10.27l-1.1-.18-1,.5c-4.13-2.86-8.93-5.1-12.22-8.72-4.17-4.59-1.06-6.25,3.85-5.88Z" fill="#d4d3d4" stroke-width="0"/><path d="M245.63,856.81c2.4-4.19,3.89-6.79,5.74-10.02,3.76,5.4,2.88,8.34-5.74,10.02Z" fill="#2c2c2c" stroke-width="0"/><path d="M310.63,831.05c.09-3.42.17-6.85.26-10.27,1.07-1.18,2.14-2.36,3.21-3.54-.81,4.69,2.33,10.38-3.48,13.81Z" fill="#121011" stroke-width="0"/><path d="M157.42,456.21c-.92,1.83-1.85,3.66-2.77,5.49-8.33,1.32-14.81-4.22-22.3-5.99,8.43-3.19,16.76-2.01,25.08.51Z" fill="#1b1b1b" stroke-width="0"/><path d="M182.39,778.07c.37,4.57,1.41,9.2.99,13.7-.98,10.45,4.22,16.34,13.2,19.94-8.46,10.59-11.77,8.79-14.47-4.31-2.09-10.17-3.78-19.56.27-29.33Z" fill="#181818" stroke-width="0"/><path d="M147.5,299.47c-4.03.12-7.12-.62-7.65-3.59-.59-3.3,2.59-4.31,5.27-4.67,3.45-.46,7.12.79,7.43,4.23.23,2.55-3.08,4.15-5.04,4.03Z" fill="#bababa" stroke-width="0"/><path d="M104.25,352.69c2.66-1.13,5.52-2.75,5.56,2.34-.31,3.49-.55,6.96,2.74,9.41q-7.9.17-8.31-11.74Z" fill="#fefefe" stroke-width="0"/><path d="M148.44,341.61c3.01,2.72,6.02,5.44,9.03,8.16-7.63,2-9.64.18-9.03-8.16Z" fill="#191919" stroke-width="0"/><path d="M437.36,825.66c.91-1.89,1.81-3.78,2.72-5.67,1.62-.11,4.27-.87,4.69-.21,2.08,3.23-1.02,5.75-1.91,8.62-3.16,1.75-4-1.17-5.51-2.73Z" fill="#232323" stroke-width="0"/><path d="M437.36,825.66c1.84.91,3.67,1.82,5.51,2.73.44,4.17.87,8.34,1.31,12.51-.79.17-1.57.35-2.36.52-1.48-5.25-2.97-10.51-4.45-15.76Z" fill="#262626" stroke-width="0"/></g></svg>