<?xml version="1.0" encoding="UTF-8"?><svg id="b" xmlns="http://www.w3.org/2000/svg" viewBox="0 0 988.02 1243.37"><g id="c"><path d="M470.92,990.83c-70.41,36.45-138.3,76.21-188.74,141.91,10.13,34.2,38.79,34.02,64.31,33.85,55.38-.36,109.85-12.32,162.17-28.07,108.99-32.8,212.58-78.66,304.13-148.61,25.06,14.59,46.51,32.65,65.76,52.99,12.42,13.12,21.74,28.16,21.22,48.17-1.48,56.83-.39,53.87-52.08,69.16-14.78,4.37-29.06,10.8-44.94,10.33-15.94-.47-30.84,4.66-33.9,20.86-3.67,19.46,9.31,31.18,26.96,37.95,57.97,22.24,137.02-10.51,166.6-61.88,33.69-58.52,17.75-112.6-15.11-155.45-18.7-24.39-41.67-46.55-68.72-62.34-21.71-12.67-22.28-26.16-14.33-48.98,41.17-118.09,36.24-236.63-17.54-348.39-86.09-178.92-195.6-343.79-320.92-497.84-14.2-17.46-29.52-35.63-52.2-47.57-27.82,19.1-22.23,50.27-25.5,75.06-4.06,30.8-15.14,44.45-46.16,49.15-26.75,4.06-53.82,12.21-79.11,21.29-23.55,8.45-37.88,4.68-52.33-11.9-18.37-21.1-41.59-32.1-67.71-35.32-17.83,48.95,1.13,95.73,6.71,142.36,6.91,57.76,11.11,116.35,26.44,172.96,6.58,24.29,11.72,49.23,21.07,72.45,28.16,69.99,26.94,72.11-21.03,114.32-28.15,24.78-56.39,49.6-82.79,76.19-32.94,33.17-33.04,44.04-7.13,86.14,16.36,26.59,3.46,55.55,5.31,83.08,5.04,74.66,41.3,133.34,91.53,181.17,20.89,19.89,54.21,30.2,75.94,53.76" fill="none" stroke="#000" stroke-linecap="round" stroke-linejoin="round" stroke-width="13.83"/><path d="M170.21,942.44c-54.89,22.86-105.94,52.06-152.3,89.59-12.55,10.16-12.12,23.01-9.5,34.69,3.18,14.22,17.89,20.17,30.47,20.39,68.01,1.19,134.34-6.61,193.55-44.44" fill="none" stroke="#000" stroke-linecap="round" stroke-linejoin="round" stroke-width="13.83"/><path d="M512.39,683.21c-8.26,35.08-21.74,68.44-38.52,99.97-14.17,26.62-50.25,23.82-65.17-3.2-25.22-45.69-5.78-88.33,20.77-110.55,18.21-15.24,36.83-30.01,55.26-44.98" fill="none" stroke="#000" stroke-linecap="round" stroke-linejoin="round" stroke-width="13.83"/><path d="M246.25,679.75c-19.62,43.52-34.44,91.2-89.87,103.69" fill="none" stroke="#000" stroke-linecap="round" stroke-linejoin="round" stroke-width="13.83"/><path d="M311.92,358.3c-3.46,0-9.54-1.01-9.99.15-11.95,31.14-39.38,31.99-66.06,34.42" fill="none" stroke="#000" stroke-linecap="round" stroke-linejoin="round" stroke-width="13.83"/><path d="M650.65,413.61c-28.61,8.58-50.32-13.15-76.04-17.28" fill="none" stroke="#000" stroke-linecap="round" stroke-linejoin="round" stroke-width="13.83"/><path d="M249.71,482.73c-24.29,10.13-45.42-11.27-69.13-6.91" fill="none" stroke="#000" stroke-linecap="round" stroke-linejoin="round" stroke-width="13.83"/><path d="M508.94,309.91c-4.79,18.26-21.12,24.96-34.57,34.56-12.76-11.81-29.22-11.6-44.93-13.82" fill="none" stroke="#000" stroke-linecap="round" stroke-linejoin="round" stroke-width="13.83"/><path d="M381.05,382.5c3.52,19.49,17.06,24.68,34.56,24.19" fill="none" stroke="#000" stroke-linecap="round" stroke-linejoin="round" stroke-width="13.83"/></g></svg>