<?xml version="1.0" encoding="utf-8"?>
<!-- Generator: Adobe Illustrator 28.1.0, SVG Export Plug-In . SVG Version: 6.00 Build 0)  -->
<svg version="1.1" xmlns="http://www.w3.org/2000/svg" xmlns:xlink="http://www.w3.org/1999/xlink" x="0px" y="0px"
	 viewBox="0 0 780.2 1113.3" style="enable-background:new 0 0 780.2 1113.3;" xml:space="preserve">
<style type="text/css">
	.st0{fill:#FDFDFD;}
	.st1{fill:#FCFCFC;}
	.st2{fill:none;stroke:#000000;stroke-width:8.0171;stroke-miterlimit:10;}
	.st3{fill:none;stroke:#000000;stroke-width:6;stroke-miterlimit:10;}
</style>
<g id="b">
	<g id="c">
		<path d="M311.7,313.3c51.9,50,119.1,75.6,180.4,109.9c123.2,68.8,192.2,170.3,205,310.1c2.6,28.6,12.2,49.8,36.1,67.8
			c29.5,22.2,42.4,55.8,45.7,92.4c10.4,118.4-36.2,181.9-152.5,201.1c-182.2,30.1-366.2,14.4-549.5,16.4c-14.2,0.2-30-6.6-42.5-14.2
			c-22.1-13.5-43.8-33-30-61.1c13.7-27.8,39.2-16.7,62-8.2c48.8,18.1,89.6-7.2,108.6-58.8c32.9-89.4,6.1-167.6-38.2-243.7
			C91,646.3,48.2,566.5,34.3,474.7c-8.1-53.7-8-107.2-2.4-161c10-0.5,14,6.3,17.3,14c9.6,74.9,9.4,151.1,35.2,223.8
			c18.2,51.3,43.4,98.5,70.5,145.2c12.3,21.2,25.1,42.6,27.6,68.1c-0.6-23.4-13.9-61,13.6-63.4c26.9-2.4,30.5,37.6,27.3,61.3
			c-8.8,65.1-3.7,131.4-18.1,196c-5.6,25.3-15.8,47.6-32.7,71.1c26.6,8.8,39-5.9,49.1-23.6c9.2-16.2,16.9-33.9,19-52
			c11.3-99.8,63-184,103-272.7c2.8-6.2,6.9-11.5,16.3-14.7c27.2,29,11.9,58.9-2.4,86c-22.9,43.3-44.9,87-59.1,133.9
			c-17.3,57.2-8,77.5,45.6,105.3c6,3.1,12.4,5.4,18,9.1c8.7,5.7,17.2,12.2,13.9,24.1c-3.6,13-15.3,10.6-25,10.8
			c-25.9,0.4-51.4-17.6-85.9,1.4c111.8,3.8,210.3-18.7,305.2-57.9c35.8-14.8,57.9-45,73-80.5c3.7-8.7,8.9-20.5,21.1-17.2
			c11.1,3.1,13,15.2,12.7,25.2c-1.5,44.6-25.4,76-62.3,97.7c-82,48.2-172.6,69.2-266.1,69.8c-100,0.6-201.2,14.8-304.5-19.7
			c15.6,24.9,35.3,23.5,52.7,23.2c166.7-3.4,333.6,10.9,500-9.5c11.7-1.4,23.5-2.1,35-4.8c45.3-10.7,87.8-23.1,102.3-77
			c16.7-62.4,30.8-123.2-28.4-171.7c-25.6-21-36.4-48.7-39.3-79.3c-14.5-151.8-102.5-246.8-233.3-312.6
			c-48.6-24.5-103-43.4-134.4-93.8C298.6,320.1,300.8,313.1,311.7,313.3L311.7,313.3z"/>
		<path d="M41.1,325.6c-3.1-4-6.2-8-9.2-12c16.2-67.4-18.4-130.4-17.6-196.5c0.2-13.1-5.5-26.3-5.5-39.5C8.6,47.3,7.4,10.9,42.5,1.5
			c32.5-8.7,48.8,22.9,64.1,46.7C126,78.5,215.4,92.4,246.4,70.4c22.9-16.2,44-55.1,75.2-30.6c29,22.8,8.8,59.3-0.5,89.2
			c-14.8,47.4-3.9,100.1-33.9,145.2C276,291,307,297.5,311.7,313.3c-2.9,3-5.7,6-8.6,8.9c-25.8-2.4-49.7-0.7-75.9,7.5
			c-43.5,13.5-92.1,15.5-131.4-11.7C70.2,300.3,57,306.4,41.1,325.6L41.1,325.6z"/>
		<path class="st0" d="M41.1,325.6c4.5-14.2,9-28.5,14.9-47.3c40.7,35.8,88.2,50.6,142,45.7c15.3-1.4,33.3,0,43.2-10.5
			c26.6-28.1,43.3-7.6,61.9,8.6c16.6,24.8,41.9,38.4,67,52.2c42.8,23.5,85.8,46.6,128,71.3c106.3,62.1,166.1,154.6,178.4,277.4
			c3.6,35.9,13.8,64.9,46.8,88.7c35.9,25.9,46.8,69.9,40.2,113.9c-17.7,118.2-49,143.1-169.6,157.2
			c-168.3,19.7-336.9,6.3-505.3,10.6c-14.7,0.4-30.2-3.1-44-8.4c-16.4-6.2-31.6-19.2-24.8-38.3c9-25.3,27.2-8,42.1-4.5
			c178.3,41.9,354,34.4,524-35.2c49.3-20.2,87.2-57.3,77-122.3c-16,90-86.6,114.2-159.1,133.3c-84.9,22.3-171.1,37.9-259.7,28.2
			c5.8-15.8,50.5-23.4,134.1-22.8c-25.5-20.5-56.2-20.2-76.5-41.5c-20.2-21.2-31.9-41.2-24.3-70.8c13.4-52.4,31.1-102.8,60.3-148.8
			c17.1-27,32.6-54.7,21.7-89.2c-6.5,48.5-37.6,85.3-59.1,126.3c-33.5,63.9-37.5,135.8-59.3,202.9c-13.3,41-40.6,49.9-78,45.2
			c-8.9-1.1-17.3-4.9-18.8-13.8c-0.9-5.2,3.5-15.9,7-16.6c44.5-8.5,37.7-47.2,42.4-75.8c12.8-77.1,19.7-154.8-0.2-232.5v81
			C96.9,671.1,46.2,515.2,41.1,325.6L41.1,325.6z"/>
		<path class="st1" d="M300.4,51.7c3.1,0.6,8.3,2.1,12.5,6.3c16.2,15.9-1.5,51.9-17.7,114.8c-16.2,62.8-7.9,63-19.2,80
			c-25.2,37.7-80.8,58.5-131,48.4C86,289.2,49.3,237.6,39.4,200c-1.7-6.4-4.6-26.9-10.4-67.9c-3.6-25.3-4.4-33.5-4.4-44.4
			c0.1-21.4-0.4-57.2,19.9-66.5c6.1-2.8,11.6-3.5,16.5-2.6c13.2,2.4,14.1,17.9,32.1,41.1c7.7,9.9,14.2,18.2,25.6,24.4
			c11,6.1,20.7,7.1,31.8,8.3c62,6.8,56.9,7.7,63.2,7.4C253.1,97.4,283.9,69.7,300.4,51.7L300.4,51.7z"/>
	</g>
</g>
<g id="Layer_2">
	<path d="M183.9,221.9c18.9,1.9,37.7,5,56.2,9.2"/>
	<path d="M183.3,215.3c18.7-1.7,37.7-2.2,56.7-1.6"/>
	<path d="M182.1,227.3c18,5.6,36.4,10.1,55.1,13.5"/>
	<path class="st2" d="M163.5,218.9c-0.7,0.3-1.3,0.6-1.8,1c-0.4,0.3-0.7,0.7-0.7,1.1c0.2,1.1,2.6,1.4,4.2,1c2.2-0.4,4.4-1.7,3.7-3.2
		c-1.9-0.2-3.8-0.4-5.6-0.6"/>
	<path class="st3" d="M101.7,146.2c11.9,2.8,24,5,36.1,6.6"/>
	<path class="st3" d="M213.7,160.8c12.2,1,24.4,1.3,36.7,1"/>
	<path d="M145.4,218.5c-18.8-0.9-37.7-0.7-56.4,0.5"/>
	<path d="M146.8,212.8c-18.1-4-36.7-7.1-55.4-9"/>
	<path d="M146.4,223.5c-18.4,2.5-37.1,4-55.9,4.4"/>
</g>
</svg>
