<?xml version="1.0" encoding="UTF-8"?><svg id="b" xmlns="http://www.w3.org/2000/svg" viewBox="0 0 1112.32 734.62"><g id="c"><path d="M491.53,693.5c-33.04-4.97-62.56-19.37-91.16-35.47-8.8-4.96-15.92-5.22-25.95-5.26-67.67-.29-135.67-1.26-201.35-20.45-37.32-10.9-68.51-30.83-87.11-67.46-7.73-15.22-9.83-30.88-11.23-47.04-1.22-14.09-3.99-27.93-18.98-32.37-13.17-3.9-23.62,4.9-32.62,13.69-26.03,25.43-20.18,56.35-8.78,84.01,29.59,71.79,86.31,111.04,160.84,129.62,61.23,15.27,123.42,13.24,185.19,15.13,92.04,2.81,184.28,2.59,276.34.09,64.65-1.75,123.63-23.34,178.53-59.5,42.9-28.26,82.12-60.56,113.55-99.71,82.62-102.89,151.02-213.59,169.77-348.36,4.56-32.78,10.71-65.33,8.65-98.41-1.74-28.1-7.53-31.41-34.83-25.79-3.9.8-7.81,1.56-11.71,2.35" fill="none" stroke="#000" stroke-linecap="round" stroke-linejoin="round" stroke-width="9.37"/><path d="M165.96,42.36c6.25-8.59,11.17-18.7,18.99-25.47,21.96-19.03,38.01-15.61,56.07,9,11.9,16.21,16.6,35.55,17.93,54,3.9,54.14,31.61,90.61,75.29,119.95,31.22,20.97,64.39,36.78,98.73,51,11.14,4.61,23.4,7.44,30.45,18.72" fill="none" stroke="#000" stroke-linecap="round" stroke-linejoin="round" stroke-width="9.37"/><path d="M383.78,648.99c.24-14.14-12.25-21.96-19.53-29.71-35.94-38.27-48.28-86.75-61.97-134.39-10.75-37.42-23.68-73.87-38.06-109.91-4.88-12.24-7.8-23.05-5.86-37.68,2.8-21.11-13.48-39.21-22.2-58.37-.43-.94-1.5-1.6-2.3-2.36-42.95-40.34-53.68-91.19-49.44-147.58,1.8-24-1.25-47.78-11.34-70.3-6.88-15.36-31.37-27.42-44.62-21.03-12.9,6.22-16.87,24.07-9.37,42.16,17.11,41.25,27.54,83.83,28.39,128.82.42,21.84,6.43,43.08,23.29,58.39,27.12,24.63,53.43,49.84,74.97,79.68,1.81,2.51,6.07,3.25,9.2,4.81" fill="none" stroke="#000" stroke-linecap="round" stroke-linejoin="round" stroke-width="9.37"/><path d="M814.75,278.92c-95.77-20.78-192.82-25.17-290.44-23.71-18.42.28-35.08,4.34-51.59,11.85-16.37,7.44-27.79,42.26-21.17,56.43,8.65,18.5,26.26,25.57,49.35,18.7,8.53-2.54,17.27-4.39,25.74-7.12,29.59-9.55,32-6.75,49.67,20.84,19.6,30.61,30.15,63.73,37.01,98.67" fill="none" stroke="#000" stroke-linecap="round" stroke-linejoin="round" stroke-width="9.37"/><path d="M995.11,136.05c10.82-22.62,16-48.8,39.52-63.45,31.4,21.85,31.56,29.62,2.77,51.9-8.43,6.53-18.86,10.19-23.59,18.55-64.46-17.23-126.21-20.81-187.4,4.56-11.01,4.56-21.54,7.91-26.2,21.05-1.85,5.21-7.45,11.64-15.9,9.55" fill="none" stroke="#000" stroke-linecap="round" stroke-linejoin="round" stroke-width="9.37"/><path d="M730.43,398.37c-24.92-2.23-44.05-18.26-65.3-28.69-21.02-10.32-42-20.67-63.57-29.75-8.88-3.73-18.19-7.62-28.06-2.46" fill="none" stroke="#000" stroke-linecap="round" stroke-linejoin="round" stroke-width="9.37"/><path d="M882.68,182.89c9.13,31.04,29.97,45.54,53.87,37.48" fill="none" stroke="#000" stroke-linecap="round" stroke-linejoin="round" stroke-width="9.37"/><path d="M941.23,297.66q-18.24-4.86-39.82-30.45c-20.1,15.2-20.94,19.12-9.45,37.53,4.61,7.39,12.05,13.48,11.79,23.37" fill="none" stroke="#000" stroke-linecap="round" stroke-linejoin="round" stroke-width="9.37"/><path d="M889.71,510.8c20.36,7.68,26.93,31.61,46.84,39.82" fill="none" stroke="#000" stroke-linecap="round" stroke-linejoin="round" stroke-width="9.37"/><path d="M753.86,157.13c-.1,8.13,7.7,7.09,11.86,9.06,16.24,7.72,27.72,25.92,17.69,39.46-14.93,20.16-5.18,39.54-6.13,59.22" fill="none" stroke="#000" stroke-linecap="round" stroke-linejoin="round" stroke-width="9.37"/><path d="M788.99,618.54c3.25,18.13,24.26,24.43,28.11,42.16" fill="none" stroke="#000" stroke-linecap="round" stroke-linejoin="round" stroke-width="9.37"/><path d="M845.2,571.7c11.71,12.49,23.42,24.98,35.13,37.48" fill="none" stroke="#000" stroke-linecap="round" stroke-linejoin="round" stroke-width="9.37"/><path d="M777.28,124.33c13.82,4.36,11.81,21.91,23.42,28.11" fill="none" stroke="#000" stroke-linecap="round" stroke-linejoin="round" stroke-width="9.37"/><path d="M786.65,208.65c10.32.5,12.79,14.08,23.42,14.05" fill="none" stroke="#000" stroke-linecap="round" stroke-linejoin="round" stroke-width="9.37"/></g></svg>