<?xml version="1.0" encoding="UTF-8"?><svg id="b" xmlns="http://www.w3.org/2000/svg" viewBox="0 0 779.32 935.2"><g id="c"><path d="M528.56,198.9c-6.19-11.37-14.66-21.89-26.13-28.29-.73-.4-1.44-.66-2.14-.82-.54-.47-1.15-.86-1.84-1.16-3.6-1.57-7.25-2.88-11.09-3.73-3.55-.79-7.11-1.8-10.73-2.24-2.67-.32-5.5-.32-8.15.13-2.43.4-4.84.98-7.23,1.59-2.42.62-4.82,1.33-7.16,2.21-2.1.79-4.15,1.71-6.27,2.45-4.45,1.57-8.58,3.87-11.77,7.39-.74.82-1.5,1.62-2.17,2.5-1.22,1.6-2.08,3.81-1.67,5.85.07.33.15.64.24.95-.05.66-.04,1.32.02,1.98-.04,18.79,11.16,37.1,27.59,46.06,6.37,4.6,13.92,7.85,21.79,8.56,9.96,1.07,20.49-1.17,28.24-7.75,10.16-8.59,21.9-21.29,18.48-35.67ZM496.56,226.56c-10.53,4.26-22.18.74-30.79-6.02-7.37-3.7-12.08-10.87-15.98-17.88-2.07-4.87-3.18-10.19-3.11-15.48.18-.57.31-1.15.39-1.74.09-.09.18-.19.27-.28.24-.2.49-.4.75-.59.6-.37,1.21-.72,1.83-1.06,1.7-.78,3.47-1.33,5.21-2.03,1.72-.69,3.43-1.41,5.17-2.05.51-.16,1.02-.31,1.54-.47.22,3.32,1.15,6.65,1.83,9.85,2.54,9.88,5.67,24.68,16.18,28.77,11.71,4.11,18.99-9.06,20.53-18.82.17-3.34,1.06-8.05.7-12.01,5.71,4.61,10.12,10.69,13.96,16.95-1.02,9.37-10.77,18.19-18.47,22.86Z" stroke-width="0"/><path d="M610.95,237.52c15.89,2.38,38.44-6.01,47.08-20.04,5.73-7.83,9.04-17.21,10.32-26.79.71-4.24,2.91-8.57,1.81-12.9-.55-2.27-2.38-3.68-3.77-5.42-1.44-1.63-3.44-4.07-5.31-5.48-9.2-6.27-20.64-9.2-31.66-9.88-17.52.6-34.67,9.12-45.13,23.28-3.99,5.3-8.99,10.15-10.3,16.94-3,6.4.5,14.33,4.95,19.24,7.64,10.59,19.27,18.26,32.01,21.05ZM589.73,198.33c0-.53-.06-1.05-.18-1.55,4.23-5.92,8.68-11.89,14.42-16.42-.41,2.09-.57,4.23-.67,6.38-.4,9.23,3.06,20.86,12.33,24.58,8.33,4.65,16.29-3.72,17.6-11.63,1.95-5.64,3.63-19.86.31-28,.29.05.59.08.88.13,7.78,1.52,16.44,3.33,21.47,10.06,0,0,0,0,0,0-.08-.09-.16-.19-.25-.28.08.1.16.2.24.3-2.2,9.4-3.19,19.4-9.34,27.28-5.97,9.58-17.87,13.24-28.58,14.63-12.66-.07-24.66-9.53-30.55-20.26,1.42-1.31,2.33-3.17,2.33-5.22Z" stroke-width="0"/><path d="M485.55,326.14c3.54,4.71,10.57,5.21,16.02,6.07,13.37,1.51,26.92-1.42,39.08-6.98,2.23-1.03,4.28-1.99,6.11-3.02,9.74,6.91,32.07,9.29,38.97,9.53,6.44-.34,13.54.93,19.43-2.23,8.34-3.11,4.28-15.8-4.33-13.52-7.44,2.88-16.17,1.44-24.02.74-5.86-1.61-12.12-1.49-17.76-3.96-1.34-.65-2.51-1.55-3.68-2.43.12-.87.2-1.77.22-2.76.16-3.74.47-7.49.47-11.23,6.67-.66,13.24-2.52,19.16-5.64,3.87-1.6,8.7-3.04,8.58-8.21,0-3.81-3.23-7.17-7.1-7.1-4.52.25-8.21,3.25-12.38,4.7-5.49,1.82-11.26,2.64-17.04,2.31-9.72.92-16.9-3.15-24.33-9.01-8.54-3.42-13.73,8.89-6,13.17,7.12,5.95,15.67,9.23,24.68,10.01-.22,4.13.57,8.78-.53,12.37-8.26,5.08-17.85,8.03-27.44,9.37-4.79.2-9.67.1-14.41-.75-2.56-.46-4.85-2.06-7.48-2.08-5.26-.33-9.12,6.14-6.23,10.66Z" stroke-width="0"/><path d="M776.68,664.29c-1.98-14.4-3.35-28.99-7.56-42.97-8.14-24.17-17.72-47.99-23.46-72.9-5.08-19.05-6.53-38.75-9.54-58.17.41-13.8.19-27.64-.8-41.52-2.93-39.66-9.25-78.91-14.88-118.26,7.11,3.25,14.08,6.82,21.03,10.28,8.05,4.6,15.09-7.5,7.16-12.26-10.01-5.06-20.09-10.18-30.49-14.45-1.58-11.65-3.06-23.31-4.31-35,11.4-.24,22.79.77,34.14,3.9,8.87,2.57,12.64-11.43,3.77-13.69-12.46-3.43-25.17-4.59-37.92-4.37.44-2.51-.55-4.67-2.23-6.18.65-1.83,1.29-3.65,1.9-5.46,1.27-4.96,2.31-9.97,3.16-15.02,5.81-.32,11.64-.39,17.44-.43,6.87-.7,16.74,6.08,20.83-2.27,4.4-12.49-18.78-12.85-36.43-11.66,1.71-18.66.86-37.58-1.85-56.07-2.5-16.66-4.35-34.45-12.42-49.46,4.26-30.48-2.89-60.88-11.36-90.01-11.93-34.21-15.62-36.31-43.18-12.31-13.02,11.68-24.86,24.81-32.79,40.55-1.05,2.35-2.4,4.75-3.66,7.21-16.69-3.93-33.46-6.49-50.69-5.5-20.68.25-41.48,1.81-60.19,11.39-2.49.93-5.5,1.9-8.25,3.24-4.04-4.66-8.47-9.23-12.69-13.77-9.02-10.36-16.25-22.18-26.24-31.7-6.33-6.28-22.74-21.97-35.29-24.03-2.93-1.65-6.45-.71-8.79,1.58-1.45,1-2.73,2.44-3.78,4.41-.71,1.49-1.39,2.99-2.07,4.49-1.74,3.28-3.21,6.87-4.32,10.49-.86,2.27-1.69,4.55-2.48,6.84-1,2.13-1.67,4.52-2.26,6.86-.41,1.32-.82,2.65-1.21,3.98.06,0,.12,0,.18-.01-.07.25-.14.51-.22.76-3.37,19.74.26,39.88.68,59.72.47,8.62,3.5,17.26,4.56,25.82-.16.32-.32.64-.47.97-.49,1.09-.96,2.19-1.45,3.28-6.09,4.87-9.62,22.46-12.58,30.21-5.85,15.99-8.65,33.73-1.8,49.76.54,5.3,1.23,10.59,2.11,15.84-11.43-1.36-22.92-1.95-34.36-1.59-1.93.29-3.84.71-5.74,1.15-5.95,1.35-6.99,10.13-1.7,12.98,3.77,2.22,7.96-.35,11.97-.34,9.53-.16,19.01,1.34,28.48,2.13,1.47.14,2.93.29,4.39.47.91,3.72,1.93,7.42,3.09,11.09,2.43,5.43,4.8,10.93,7.3,16.37,0,.93,0,1.86-.05,2.77-10.63.78-21.21,2.12-31.63,3.84-7.24,1.16-14.37,2.91-21.46,4.74-5.61.82-12.68,4.45-9.93,11.18,1.47,3.5,6,5.51,9.46,3.7,5.93-1.8,11.99-3.12,18.03-4.47,11.25-2.35,22.62-3.81,34.05-4.6-1.05,9.77-2.04,19.54-2.18,29.38-2.71.97-5.41,1.94-8.11,2.93-7.81,4.45-39.65,8.55-32.55,21.21,2.36,4.08,7.63,4.35,11.16,1.75,5.22-2.58,10.9-3.98,16.34-6.02,4.36-1.62,8.72-3.21,13.09-4.79-.04,3.15-.07,6.29-.08,9.43-6.86,2.34-12.09,14.7-16.97,19.37-28.43,40.06-47.31,86.92-58.14,134.69-1.24,9.8-3.65,19.39-4.64,29.21-8.12,13.18-14.12,27.61-21.34,41.3-13.6,32.53-18.54,68.08-22.31,102.91-2.41,29.63-.39,59.41,5.75,88.3-7.72-3.69-16.89-6.47-21.27-8.13-33.71-11.14-70.18-10.36-104.91-4.99-29.07,2.26-57.78,9.13-84.18,21.66-28.89,14.49-59.72,36.33-66.91,69.77-2.47,13.29,2.94,32.07,17.88,35,11.65,2.06,23.64,1.35,35.19-.98,11.81-.95,23.56-1.84,35.26-3.95,28.42-5.99,56.53-14.76,85.88-14.73,56.78-5.09,115.81,3.65,165.71,32.07.91.27,1.77.35,2.58.28,25.55,22.14,57.43,37.23,91.36,39.2,1.57.1,2.96-.39,4.08-1.24,9.42,6.75,21.94,10.41,32.72,13.09,17.14,3.04,60.19-4.4,74.35-14.09,8.71-10.7,11.97-30.15,12.7-49.63.4,4.2.87,8.39,1.44,12.58,2.32,20.54,6.58,41.19,29.78,46.34,16.55,2.78,33.1-3.63,48.71-8.46,18.29-4.96,29.1-10.62,39.8-25.15,6.49,5.52,14.92-4.89,19.83-9.65,10.12-10,19.39-21.86,27.52-33.56,4.78-5.95,9.42-11.98,13.34-18.56,4.38-5.66,8.29-11.61,11.05-18.23,4.54-7.16,8.07-14.73,10.93-22.69,1.84-4.02,4.09-7.9,5.09-12.25,1.37-9.8,4.44-19.11,6.77-28.68,2-14.99,5.18-29.75,6.65-44.83.31-14.45.28-29.11-2.52-43.35ZM702.9,308.57c-.38-.12-.76-.24-1.14-.35-4.04-1.14-8.15-1.92-12.3-2.54,4.06-6.35,7.69-13.03,10.96-19.87.7,7.59,1.54,15.17,2.48,22.76ZM471.71,253.28c-7.51-5.47-16.36-8.08-25.15-10.67-14.84-5.13-30.2-9.25-45.79-12.02-.96-5.17-1.73-10.37-2.34-15.59.78-2.63.08-5.41-.07-8.14-.79-4.17-.56-8.41-.45-12.62-.11-5.01.13-10.01.7-14.98.84-1.51,1.3-3.31,1.31-5.09,2.81-7.63,3.52-15.87,6.25-23.47,3.03-6.25,8.24-12.62,8.72-19.66,3.03-6.35,1.81-6.95-1.38-22.02-2.73-16.76-2.92-34.69-1.78-51.72.15-7.68,1.24-15.31,2.44-22.88.79-4.45,3.56-8.58,3.34-13.15,0-.06-.02-.11-.03-.16.53-.96,1.09-1.9,1.67-2.83,20.4,8.43,33.78,27.84,46.99,44.67,6.4,8.2,14.27,15.1,20.62,23.33,1.42,1.84,3.21,2.65,5,2.72.07.02.14.04.2.05,1.36,1.46,3.36,2.3,5.35,2.3,4.19.14,6-4.04,9.56-5.39,5.59-2.44,11.58-3.52,17.53-4.65,24.75-6.64,50.97-5.05,75.96-.51,2.39.59,4.75,1.35,7.01,2.31,4.5,2.45,10.54,5.72,15.38,2.16,7.14-7.14,7.07-18.27,11.82-26.83,1.84-4.36,4.33-8.31,7.09-12.13,1.5-1.48,2.64-3.38,3.1-5.34,8.21-9.42,17.75-17.75,27.93-25,10.08,22.48,15.42,47.34,18.17,71.77,1.26,11.53-.86,22.79-.72,34.25,8.59,15.46,10.52,33.71,12.76,51.2,2.94,17.22,2.74,34.63.97,51.99-.99.1-1.84.18-2.49.24-19.77,3.43-38,12.3-56.9,18.62-8.2,3.75-15.88,8.49-23.86,12.68-4.11,2.42-9.98,4.43-9.9,10.11.76,8.4,8.9,8.49,14.14,3.82,7.13-4.08,14.4-7.89,21.57-11.9,17.84-6.73,35.57-14.38,54.18-18.78.43-.08.86-.13,1.29-.2-1.61,8.29-4.4,17.35-8.09,26.47-11.22,1.26-22.39,3.25-33.36,5.36-7.39.97-14.62,2.81-22,3.87-4.09,1.09-9.3,0-12.17,3.8-3.34,4.08-.6,10.85,4.65,11.37,18.51-2.05,37.18-6.36,55.88-9.12-4.01,7.85-8.56,15.45-13.45,22.3-.56-.06-1.13-.12-1.69-.18-12.98-1.04-25.47-6-38.55-5.84-14.78-2.09-14.3,16.55.29,14.22,9.97.09,19.6,3.14,29.42,4.8-2.83,3.03-5.72,5.75-8.63,8.08-11.08,9.83-26.25,9.98-38.79,17.04-26.81,15.81-53.08,28.01-85.06,21.25-15.63-3.4-27.94-14.48-40.78-23.43-8.83-5.62-18.09-10.56-26.86-16.32-4.39-2.36-8.37-5.26-12.12-8.46,6.35-1.23,12.88-.4,19.3-1.04,4.88-.34,11.5-1.45,12.34-7.29.59-3.82-2.29-7.48-6.07-8-9.78,2.1-19.95.53-29.76,2.72-2.61.66-5.21,1.34-7.81,2.05-2.83-2.93-5.62-5.88-8.48-8.73-2.06-2.44-3.95-4.99-5.73-7.61,4.47.05,8.94.19,13.4.39,11.92.4,23.67,5.73,35.6,3.51,8.22-1.6,7.07-14.26-1.33-14.18-4.19.86-8.43.54-12.62-.34-14.26-2.89-28.83-3.97-43.41-3.79-.65-1.29-1.3-2.59-1.92-3.9.29-1.59.03-3.33-.76-4.69-.53-1.65-1.66-2.89-3.06-3.67-1.95-4.41-3.83-8.84-5.74-13.22-.14-.52-.28-1.04-.42-1.56,16.76,3.36,33.11,8.65,49.35,14,7.78,2.97,14.26,8.51,21.86,11.92,4.81,3.3,12.17.69,12.16-5.6-.56-7.89-10.79-8.27-15.82-12.68ZM470.69,300.28c.4-.4.91-.69,1.41-.94-.51.26-.98.57-1.41.94ZM411.49,293.35c1.47,2.26,3.01,4.48,4.67,6.62,2.35,2.64,4.72,5.29,7.12,7.93-4.4,1.36-8.79,2.78-13.16,4.25.26-6.28.69-12.55,1.37-18.81ZM178.32,836.75c-19.77.5-39.58,2.68-58.8,7.45-19.48,4.34-38.79,10.28-58.9,10.7-13.81.63-28.33,5.89-41.84.95-15.55-22.91,13.36-50.78,31.22-63.25,30.06-20.75,66.12-31.27,102.32-34.02,26.97-4.36,54.77-5.37,81.78-.69,10.88,2.91,22.01,5.35,32.18,10.33,3.97,2.12,9.03,2.98,12.04,6.42,1.2,1.27,2.71,1.92,4.26,2.06,7.81,27.88,19.51,54.7,34.85,79.46.08.1.16.2.23.3-13.03-5.15-26.52-9.24-40.03-12.7-32.31-8.29-66.16-9.47-99.31-7.01ZM657.88,897.39c-14.25,9.71-32.45,12.61-48.81,17.52-37.26,9.12-33.72-26.31-37.2-51.87-2.16-29.75-.85-59.6-1.02-89.4-.99-35.18,1.02-70.12,5.61-104.99,2.79-17.48,5.85-35.05,10.86-52.05,2.31-6.21,3.84-12.66,5.85-18.97,2.3-4.97,3.31-12.05-3.26-14.01-9.86-1.95-9.97,10.94-12.57,17.5-2.19,7.92-5.33,15.55-6.88,23.68-13.35,54.58-14.62,110.93-13.89,166.85-.01,11.39-.16,22.8-.12,34.2-4.84-49.09-11.9-98.07-23.09-146.16-5.17-24.45-7.86-49.62-16.31-73.24,2.33-11.54-18.02-13.85-15.49-1.06,11.74,30.6,13.83,63.81,22.09,95.4,6.29,32.05,11.81,64.21,15.34,96.68,3.75,33.23,11.57,82.29-3.31,112.77-22.77,6.96-48.89,15.93-72.32,7.28-9.27-3.41-20.78-6.87-24.09-17.31-2.19-14.41,1.71-30.84,10.86-42.69,4.76.6,8.87-3.92,8.37-8.31,5.17-3.18,10.71-5.62,16.28-7.98,7.61-4.29,1.39-16.28-6.49-12.59-4.22,1.58-8.28,3.53-12.25,5.66-4.93-42.29-20.85-71.43-39.39-110.71-14.12-31.61-27.98-63.4-35.75-97.3-5.27-30.05-6.58-61.05-5.03-91.45,1.04-4.76,3.64-10.53-1.8-13.68-6.07-3.49-11.21,2.6-11.55,8.41-2.39,9.43-1.14,19.24-1.32,28.87.44,24.98,1.25,50.18,6.71,74.65,12.58,50.77,36.59,97.47,58.53,144.64,7.16,17.74,13.24,36.04,14.64,55.25,1.02,3.08,1.01,7.43,1.32,11.61-13.57,14.36-19.2,35.96-17.77,55.36.44,2.87,1.24,5.49,2.33,7.9-.9-.1-1.79-.25-2.64-.5-8.73-.96-16.89-4.24-25.25-6.74-26.03-8.53-47.25-26.84-65.54-46.7-19.96-28.32-32.81-62.05-41.51-95.49-11.1-53.9-6.8-109.28,6.9-162.31,6.43-23.73,19.04-45.26,30.44-66.74,1.7-11.37,3.69-22.69,5.58-34.05,8.95-37.54,23.26-73.65,42.56-107.18,5.68-9.14,11.82-17.95,18.42-26.43.35,7.31.96,14.6,2,21.89-.08,9.22,14.28,9.15,14.19,0-.07-7.11-1.64-14.12-2.27-21.18.04-11.7-.17-23.43-.07-35.15,8.15-2.79,16.34-5.44,24.6-7.87,6.04,5.81,12.49,11.15,19.69,15.42,11.36,7.34,23.61,13.31,34.32,21.63,15.44,12.03,33.74,22.43,54.12,22.45,2.64.25,5.25.37,7.85.37,26.03,0,49.98-12.1,72.14-25.02,9.53-5.54,21.08-5.65,30.47-11.39,10.52-6.38,19.43-14.63,27.07-24.04,3.91.45,7.82.95,11.71,1.61,4.5.97,8.9,2.25,13.22,3.75,5.6,40.61,13.1,81.18,16,121.98.31,4.71.53,9.43.7,14.16-.71,1.67-.78,3.59-.34,5.37.18,3.55.21,7.12.3,10.68.08,4.12.04,8.25.24,12.36-.79,34.52-5.29,68.94-13.59,102.45-10.08,49.81-26.79,97.78-40.07,146.71-5.41,32.2-7.54,65.33-5.8,97.98-5.78-2.83-12.16-4.67-18.13-6.33-10.23.79-8.78,13.71.67,15.03,17.35,3.74,24.26,13.12,25.25,30.6,1.83,9.75-6.88,15.58-12.31,22.22ZM760,739.45c-.8,12.71-6.22,24.33-7.68,36.92-2.49,8.02-6.7,15.44-9.51,23.39-3.17,5.15-6.11,10.44-8.64,15.94-5.63,8.73-11.33,17.57-17.9,25.64-6.83,9.4-13.52,18.98-21.49,27.46-3.13,3.98-6.67,7.65-10.44,11.04,1.16-11.56-2.78-24.08-8.86-33.55,1.13-1.32,1.74-3.11,1.4-5.3-.91-5.86-.74-11.82-.93-17.73.16-21.04.71-42.06,3.25-62.96,1.42-18.26,6.9-35.97,12.86-53.2,3.92-12.13,6.13-24.74,10.63-36.72,11.68-40.08,22.14-80.97,28.19-122.39.38,1.59.78,3.18,1.2,4.77,4.26,18.34,10.76,36.11,16.79,53.93,5.03,12.75,9.45,25.78,10.96,39.48,1.56,11.56,3.52,23.07,4.88,34.65.07,7.58.52,16.21.49,24.01-1.14,11.65-2.97,23.15-5.21,34.63Z" stroke-width="0"/><path d="M456.52,114.13c4.43-2.05,8.53-4.75,12.68-7.29,7.22-2.82,13.85-8.71,8.33-16.59-4.36-6.71-8.55-13.98-13.09-20.7-4.78-5.56-9.1-11.51-14.1-16.87-7.45-7.15-13.13-20.05-25.08-19.61-9.09,1.8-7.14,13.47-8.13,20.47-1.54,14.21-1.05,28.57.7,42.74,1.75,7.61-.59,28.23,8.77,30.04,7.35,4.07,15.38-3.68,21.14-7.7,2.96-1.43,5.99-2.69,8.77-4.48ZM433.55,111.44c-.13-.9-.24-1.8-.33-2.71-.25-2.79-.44-5.59-.67-8.38-2.14-16.02-2.86-32.17-1.15-48.27,3.22,4.42,6.64,8.63,10.58,12.42,2.86,3.56,5.57,7.23,8.68,10.58,4.9,5.79,8.28,12.68,12.49,18.95,0,0,0,0,0,0-5.71,3.3-11.35,6.7-17.19,9.82-4.71,1.57-8.39,4.8-12.41,7.6Z" stroke-width="0"/><path d="M640.98,104.46c9.83,6.06,21.4,8.67,30.74,15.66,5.4,3.6,13.08-.66,12.06-7.26-.86-8.43-1.68-16.86-2.44-25.3-.8-13.82-1.83-27.87-3.83-41.61-1.52-6.18-.89-15.59-5.87-19.93-8.74-5.84-16.04,4.61-19.51,11.58-3.17,4.35-6.76,8.4-8.89,13.4-4.7,8.88-8.98,18.04-12.57,27.42-1.48,5-6.23,10.93-2.01,15.77.42,6.32,7.59,7.94,12.33,10.25ZM663.23,46.49c2.82,18.34,3.36,36.71,5.19,55.19-1.34-.64-2.68-1.27-4.02-1.92-7.77-3.15-15.27-6.73-22.68-10.63,5.92-14.73,11.51-30.12,21.51-42.64Z" stroke-width="0"/></g></svg>