<?xml version="1.0" encoding="UTF-8"?><svg id="b" xmlns="http://www.w3.org/2000/svg" viewBox="0 0 1197.93 881.55"><g id="c"><path d="M910.67,73.84c0-14.88-.41-29.04.09-43.18.87-24.4,16.04-36.63,39.08-27.8,17.73,6.8,34.39,18,49.43,29.9,60.32,47.74,103.74,107.2,122.23,183.11.42,1.74,2.47,3.08,3.15,3.89,14.32-2.96,27.9-7.07,41.69-7.95,5.4-.34,11.27,6.57,16.93,10.18-5.06,3.18-9.76,7.33-15.25,9.34-12.6,4.6-29.64-1.52-39.02,16.39,19.28,1.12,36.63,1.16,53.63,3.65,5.59.82,10.23,8.01,15.31,12.28-6.15,2.33-12.19,6.28-18.46,6.68-15.22.98-30.54.32-47.65.32,0,29.21,1.36,56.27-.31,83.15-2.57,41.44-13.76,81.06-35.7,116.44-16.53,26.67-35.05,52.31-54.82,76.68-9.25,11.41-6.97,15.31,3.06,23.4,47.89,38.66,62.6,98.9,38.84,154.38-10.79,25.2-38.07,43-65.72,42.88-23.38-.1-39.63-14.1-41.87-37.64-1.73-18.14.15-36.84-3.43-54.52-2.25-11.1-9.19-24.78-18.28-30.26-21.76-13.12-47.19-14.21-69.53-1.5-30.85,17.54-65.37,33.24-88.33,58.72-22.36,24.82-33.23,60.52-46.53,92.54-2.83,6.82,4.61,18.85,9.06,27.59,16.14,31.7,2.03,56.72-33.72,58.74-44.94,2.54-64.34-12.06-69.87-55.9-3.08-24.44-2.57-49.32-3.6-72.22-42.7,2.1-87.51,3.71-132.14,7.39-4.43.36-12.54,14.88-10.79,20.13,4.75,14.31,14.1,27.05,21.19,40.64,6.83,13.11,22.24,24.19,12.7,41.76-7.19,13.25-36.87,21.02-55.51,14.99-33.09-10.7-55.82-33.95-74.08-62.48-11.94-18.66-22.54-38.61-37.06-55.04-8.34-9.43-22.87-17.17-35.38-18.51-66.14-7.05-130.41,4.53-193.06,25.35-9.12,3.03-18.04,9.78-24.29,17.16-3.84,4.53-5.75,15.7-2.84,20.15,19.93,30.44-6.25,58.08-39.15,57.25-29.5-.74-54.29-14.66-70.61-40.57-16.88-26.79-11.05-54.47,6.65-75.71,31.2-37.43,65.03-73.13,101.11-105.87,26.59-24.14,58.49-42.42,89.07-64.05-15.63-9.78-32.95-18.74-48.13-30.47-65.17-50.37-68-155.56-7.32-212.73,41.55-39.14,90.83-64.13,143.49-83.92,23.13-8.7,42.91-19.6,47.88-48.44,3.09-17.92,13.93-34.31,36.99-33.23,22.22,1.04,38.11,14.93,43.16,38.74,8.23,38.84-9.48,69.02-39.38,88.76-30.49,20.13-65.82,32.8-98.4,49.93-21.28,11.19-44.75,21.15-61.46,37.55-42.61,41.85-38.8,85.43,19.63,110.33,50.75,21.63,102.19,13.06,153.05,1.12,137.4-32.26,231.34-118.07,292.21-242.37,16.22-33.11,10.21-68.9.8-103.22-4.07-14.83-10.79-28.97-16.75-43.24-10.76-25.78.31-44.73,27.43-39.47,34.7,6.73,68.76,18.41,101.84,31.22,16.45,6.37,31.01,7.71,46.64,1.94,20.22-7.46,40.14-15.72,62.12-24.4ZM686.55,82.23c9.23,26.53,16.68,45.92,22.72,65.75,10.47,34.35,15.49,70.23-.37,103.19-17.41,36.21-35.94,73.44-61.57,103.85-63.48,75.32-139.66,134.1-238.92,155.9-52.95,11.63-106.13,23.02-159.69,4.27-29.56-10.35-58.84-23.25-68.23-57.02-10.29-36.99,3.18-68.2,31.38-91.98,16.22-13.68,35.09-24.77,54.06-34.53,33.97-17.47,70.3-30.72,103.06-50.09,31.28-18.5,43.38-53.99,31.04-79.5-3.32-6.87-13.29-12.42-21.23-14.36-3.89-.95-13.93,7.12-14.74,12.15-7.07,43.7-39.62,59.9-75.72,72.7-45.59,16.16-86.12,40.39-122.26,72.77-53.73,48.14-53.28,158.26,19.59,194.58,13.25,6.61,25.68,14.85,38.68,21.99,22.37,12.29,22.36,15.02,1.84,28.57-34.68,22.9-70.26,44.73-103.09,70.08-37.31,28.82-72.9,60.36-95.37,103.14-9.24,17.59-11.2,36.73,2.61,53.18,15.03,17.91,34.57,28.82,58.71,25.06,16.37-2.55,22.9-15.94,12.98-24.87-16.24-14.62-11.17-28.92,1.15-39.79,14.27-12.6,30.7-24.2,48.2-31.3,19.68-7.98,41.79-9.71,62.49-15.45,50.59-14.02,102.5-14.51,152.87-5.52,73.16,13.06,146.29,18.07,219.97,13.2,66.41-4.38,130.76-20.17,190.01-51.14,30.19-15.78,57.84-36.44,86.55-55.04,50.9-32.96,127.36-13.72,128.24,55.25.11,8.74,1.19,17.48,1.09,26.21-.37,31.22,21.23,44.61,48.17,28.11,10.35-6.34,21.59-16.35,25.54-27.2,24.45-67.1-12.93-137.88-79.63-150.71-17.82-3.43-36.4-2.76-54.41-5.45-4.52-.68-8.19-7.07-12.26-10.83,4.59-2.83,9.41-8.4,13.72-8.03,23.44,2,46.7,5.92,70.13,8.09,5.49.51,12.71-1.6,16.86-5.16,45.58-39.15,71.36-90.53,84.35-147.73,17.99-79.24,12.08-157.24-23.33-231.41-30.86-64.63-80.54-111.38-145.26-149.51-2.66,10.15-5.61,17.29-6.18,24.63-.68,8.69.37,17.57,1.26,26.31,1.78,17.64-5.54,27.39-22.95,32.39-20.61,5.92-40.2,15.4-60.8,21.35-11.07,3.2-24.37,5.67-34.86,2.5-25-7.54-48.59-19.65-73.42-27.91-15.47-5.15-32.15-6.66-52.98-10.71ZM755.39,720.27c-23.92,7.43-42.93,13-61.68,19.33-6.62,2.23-15.08,4.69-18.45,9.84-12.33,18.83-5.91,84.41,8.53,101.35,10.66,12.51,41.35,17.11,54.28,6.32,15.92-13.29-.49-24.52-3.61-37.08-3.36-13.56-5.18-28.96-2.13-42.28,4.09-17.86,13.51-34.51,23.05-57.49ZM391.75,750.25c23.65,32.2,42.53,62.31,65.97,88.3,16.08,17.82,38.42,30.31,66.88,13.75-14.4-30.56-45.36-53.8-38.36-91.4-30.15-3.4-58.27-6.57-94.49-10.65Z" stroke-width="0"/><path d="M686.55,82.23c20.83,4.05,37.51,5.56,52.98,10.71,24.83,8.26,48.42,20.37,73.42,27.91,10.49,3.17,23.79.7,34.86-2.5,20.6-5.96,40.19-15.43,60.8-21.35,17.4-5,24.73-14.75,22.95-32.39-.88-8.74-1.93-17.62-1.26-26.31.57-7.33,3.52-14.48,6.18-24.63,64.72,38.13,114.4,84.88,145.26,149.51,35.41,74.16,41.33,152.16,23.33,231.41-12.99,57.19-38.77,108.58-84.35,147.73-4.14,3.56-11.37,5.67-16.86,5.16-23.43-2.18-46.69-6.09-70.13-8.09-4.31-.37-9.14,5.2-13.72,8.03,4.06,3.76,7.73,10.16,12.26,10.83,18.01,2.69,36.59,2.02,54.41,5.45,66.7,12.83,104.08,83.61,79.63,150.71-3.95,10.85-15.19,20.85-25.54,27.2-26.94,16.51-48.54,3.11-48.17-28.11.1-8.73-.98-17.47-1.09-26.21-.88-68.97-77.34-88.21-128.24-55.25-28.71,18.59-56.36,39.26-86.55,55.04-59.26,30.97-123.61,46.75-190.01,51.14-73.68,4.86-146.82-.14-219.97-13.2-50.37-8.99-102.28-8.5-152.87,5.52-20.7,5.74-42.81,7.47-62.49,15.45-17.5,7.09-33.93,18.7-48.2,31.3-12.32,10.87-17.39,25.17-1.15,39.79,9.92,8.93,3.38,22.32-12.98,24.87-24.14,3.76-43.68-7.15-58.71-25.06-13.81-16.45-11.85-35.59-2.61-53.18,22.47-42.78,58.06-74.32,95.37-103.14,32.83-25.35,68.4-47.18,103.09-70.08,20.52-13.55,20.53-16.28-1.84-28.57-13-7.14-25.43-15.38-38.68-21.99-72.86-36.32-73.32-146.44-19.59-194.58,36.14-32.38,76.67-56.61,122.26-72.77,36.1-12.8,68.65-28.99,75.72-72.7.81-5.03,10.85-13.11,14.74-12.15,7.95,1.95,17.91,7.49,21.23,14.36,12.34,25.51.24,61.01-31.04,79.5-32.76,19.38-69.09,32.62-103.06,50.09-18.97,9.75-37.84,20.85-54.06,34.53-28.2,23.78-41.67,54.99-31.38,91.98,9.39,33.77,38.68,46.67,68.23,57.02,53.56,18.75,106.74,7.36,159.69-4.27,99.26-21.81,175.44-80.58,238.92-155.9,25.62-30.4,44.15-67.63,61.57-103.85,15.85-32.96,10.84-68.84.37-103.19-6.04-19.83-13.49-39.22-22.72-65.75ZM900.93,266.3c4.69.52,9.66,2.25,13.99,1.22,4.43-1.04,8.22-4.78,12.3-7.34-3.13-3.87-5.48-9.56-9.53-11.31-35.42-15.36-80.14,5.79-89.37,42.49-1.23,4.89,2.97,11.14,4.65,16.77,4.43-3.04,11.52-5.19,12.87-9.25,9.05-27.34,28.24-36.04,55.1-32.58ZM969.35,322.05c6.68-2.98,13.59-4.03,17.19-8.05,10.69-11.93,22.24-17.97,39.14-19.02,13.37-.83,19.57-14.05,14.83-27.62-1.01-2.89-10.43-2.83-15.98-4.14-2.76,15.4-13.42,13.43-24.77,12.23-3.6-.38-9.66,3.19-11.25,6.54-6.78,14.3-15.21,21.5-31.56,13.33-2.63-1.31-8.75,1.65-11.44,4.41-1.24,1.27.81,8.24,3.29,10.15,6.15,4.75,13.41,8.08,20.55,12.16ZM1095.17,210.38c-7.14-8.7-9.84-13.37-13.76-16.53-24.54-19.79-65.92-5.1-79.56,24.42-1.44,3.11,1.76,8.36,2.81,12.62,4.98-1.87,11.49-2.35,14.69-5.85,20.22-22.08,28.05-23.86,55.94-12.67,4.22,1.69,10.15-.86,19.88-1.98ZM865.84,357.76c-.98-2.74-1.97-5.47-2.95-8.21-5.96-.83-13.72-4.48-17.57-2.02-17.37,11.13-34.08,23.44-49.9,36.68-3.22,2.69-1.58,11.2-2.18,17.02,5.21-1.14,11.37-.87,15.45-3.66,15.36-10.49,29.97-22.08,45.03-33.03,3.72-2.7,8.06-4.54,12.11-6.78ZM823.52,429.23c6.58.64,10.34,2.11,11.51.96,15.48-15.34,30.74-30.93,45.57-46.9,1.23-1.33-.02-7.21-1.9-8.63-2.61-1.98-8.5-3.62-10.21-2.16-17.87,15.27-36.49,30.2-44.96,56.73Z" fill="#fff" stroke-width="0"/><path d="M755.39,720.27c-9.54,22.98-18.95,39.62-23.05,57.49-3.05,13.33-1.23,28.73,2.13,42.28,3.11,12.56,19.53,23.79,3.61,37.08-12.93,10.79-43.62,6.19-54.28-6.32-14.44-16.95-20.86-82.52-8.53-101.35,3.37-5.14,11.83-7.6,18.45-9.84,18.75-6.33,37.76-11.9,61.68-19.33Z" fill="#fff" stroke-width="0"/><path d="M391.75,750.25c36.22,4.08,64.34,7.25,94.49,10.65-7.01,37.6,23.96,60.85,38.36,91.4-28.46,16.56-50.8,4.08-66.88-13.75-23.44-25.99-42.32-56.1-65.97-88.3Z" fill="#fff" stroke-width="0"/><path d="M900.93,266.3c-26.86-3.46-46.05,5.24-55.1,32.58-1.34,4.06-8.43,6.21-12.87,9.25-1.68-5.62-5.88-11.88-4.65-16.77,9.23-36.69,53.95-57.84,89.37-42.49,4.05,1.76,6.39,7.45,9.53,11.31-4.07,2.56-7.87,6.29-12.3,7.34-4.33,1.02-9.3-.7-13.99-1.22Z" stroke-width="0"/><path d="M969.35,322.05c-7.14-4.09-14.4-7.41-20.55-12.16-2.47-1.91-4.53-8.88-3.29-10.15,2.69-2.76,8.82-5.73,11.44-4.41,16.35,8.17,24.77.97,31.56-13.33,1.59-3.35,7.65-6.92,11.25-6.54,11.35,1.2,22,3.18,24.77-12.23,5.55,1.3,14.97,1.25,15.98,4.14,4.74,13.57-1.45,26.8-14.83,27.62-16.9,1.05-28.45,7.09-39.14,19.02-3.6,4.02-10.51,5.07-17.19,8.05Z" stroke-width="0"/><path d="M1095.17,210.38c-9.73,1.12-15.66,3.68-19.88,1.98-27.89-11.18-35.72-9.41-55.94,12.67-3.21,3.5-9.71,3.98-14.69,5.85-1.05-4.26-4.24-9.51-2.8-12.62,13.64-29.52,55.02-44.21,79.56-24.42,3.92,3.16,6.62,7.83,13.76,16.53Z" stroke-width="0"/><path d="M865.84,357.76c-4.05,2.24-8.39,4.08-12.11,6.78-15.06,10.95-29.67,22.54-45.03,33.03-4.08,2.79-10.25,2.52-15.45,3.66.6-5.82-1.04-14.33,2.18-17.02,15.82-13.23,32.53-25.55,49.9-36.68,3.84-2.46,11.61,1.19,17.57,2.02.98,2.74,1.97,5.47,2.95,8.21Z" stroke-width="0"/><path d="M823.52,429.23c8.47-26.53,27.09-41.46,44.96-56.73,1.71-1.46,7.61.18,10.21,2.16,1.88,1.42,3.13,7.3,1.9,8.63-14.83,15.97-30.08,31.56-45.57,46.9-1.17,1.15-4.93-.32-11.51-.96Z" stroke-width="0"/></g></svg>