<?xml version="1.0" encoding="UTF-8"?><svg id="b" xmlns="http://www.w3.org/2000/svg" viewBox="0 0 973.38 786.29"><g id="c"><path d="M361.11,339.64c53.52,2.45,104.39-5.6,154.12-21.25,41.22-12.98,81.68-28.8,123.52-39.14,22.92-5.66,48.02-2.32,72.1-3.63,5.52-.3,12.29-1.47,16.14-4.89,21.36-18.93,24.1-44.03,19.86-70.17-4.92-30.32-12.74-60.22-16.43-90.65-2.39-19.74-2.44-40.66,1.49-60.04,5.06-25,20.37-44.15,47.67-49.01,15.2-2.71,29.42.9,39.36,13.46,10.17,12.84,15.09,28.85,6.66,43.16-21.73,36.92-18.99,75.76-13.77,115.51,2.1,16,3.04,32.24,3.22,48.39.34,31.23-4.45,61.29-25.12,87.51,48.12,42.13,62.4,99.71,74.18,158.48,2.22,11.09,5.17,22.04,7.38,33.13,5.87,29.5,17.12,55.3,40.12,76.65,22.57,20.94,39.43,47.13,51.64,75.69,4.09,9.57,7.1,19.87,8.79,30.13,3.08,18.65,1.79,36.94-15.28,49.22-18.37,13.22-38.74,13.59-58.76,4.57-19.61-8.84-22.61-27.62-8.08-50.5-43.74-38.71-101.07-47.91-149.72-69.74-26.98,30-52.38,58.7-78.33,86.9-13.21,14.36-27.62,27.22-48.21,30.54-21.3,3.44-40.05-5.35-44.75-21.82-5.57-19.51,4.82-37.27,26.05-45.77,3.95-1.58,8.69-5.06,10-8.75,8.88-25.1,16.95-50.48,26.07-78.2-51.68,12.15-100.88,23.71-151.21,35.54,8.85,13.1,18.27,25.53,26.01,38.93,7.43,12.86,14.42,26.28,19.26,40.27,6.23,17.99-.67,36.2-14.57,45.09-16.69,10.68-44.45,10.36-57.35-.98-9.69-8.52-11.83-19.98-6.83-30.92,3.59-7.88,1.5-12.37-3.83-16.55-13.32-10.48-26.95-20.56-40.53-30.71-4.53-3.39-9.32-6.43-13.92-9.73-20.33-14.6-21.73-16.3-41.04-.08-29,24.36-55.53,51.64-83.62,77.13-17.58,15.96-35.02,32.45-54.48,45.88-18.07,12.47-39.81,15.67-61.72,10.9-20.27-4.42-33.08-19.38-32.62-36.74.49-18.44,13.59-33.46,34.06-36.84,8.58-1.42,13.1-5.3,17.39-12.41,24.24-40.21,33.96-85.24,45.37-129.95,5.16-20.21,5.84-35.88-11.56-51.07-8.05-7.03-14-11.81-25.17-12.04-36.22-.77-68.93-12.02-96.94-35.89-20.66-17.61-28.88-41.89-30.39-66.76-1.93-31.95-11.14-59.51-28.66-86.16-9.22-14.02-13.16-32.03-17.23-48.78-5.06-20.87,2.69-28.08,24.07-23.49,18.54,3.98,36.69,9.81,55.24,13.78,5.09,1.09,12.21.13,16.32-2.8,26.13-18.62,54.42-31.51,86.24-36.73,3.83-.63,7.77-4.68,10.36-8.12,12.85-17.08,25.01-34.67,38-51.64,3.58-4.68,8.82-8.4,13.93-11.53,11.91-7.31,21.64-5.1,26.4,7.98,8,21.96,13.99,44.64,21.03,66.96,1.28,4.05,2.55,8.99,5.52,11.5,32.99,27.83,55.11,62.02,62.5,106.2ZM222.65,522.75c1.63-4.61,1.89-7.32,3.33-9.02,3.26-3.85,8.03-10.77,10.54-10.11,8.72,2.26,4.4,9.11,2.77,14.84-5.32,18.64-11.29,37.16-15.38,56.08-10.05,46.43-22.23,91.94-47.24,133.07-5.67,9.32-10.44,16.73-23.82,16.09-13.14-.62-23.61,10.92-24.54,22.55-.92,11.44,6.98,21.06,20.66,24.75,3.08.83,6.38.96,9.6,1.17,28.5,1.87,50.91-11.15,70.27-30.08,26.87-26.28,52.43-53.93,79.71-79.76,25.88-24.5,55.64-41.54,91.79-48.66,75.31-14.84,150.43-30.92,224.98-49.13,21.92-5.35,38.47-5.79,57.98,7.48,40.76,27.73,88.33,41.38,134.1,58.56,29.56,11.1,58.83,22.92,81.94,45.75,6.94,6.86,10.21,12.35.94,20.84-11.2,10.25-7.95,22.61,6.04,28.71,29.6,12.9,56.14-5.98,52.97-37.87-.55-5.56-2.01-11.15-3.85-16.45-13.93-39.96-40.26-71.44-68.87-101.55-6.98-7.34-12.97-16.6-16.45-26.07-6.25-17.02-10.56-34.78-15.12-52.37-8.41-32.44-14.27-65.71-25.02-97.34-25.48-74.99-85.15-113.44-163.93-105.29-25.79,2.67-51.53,10.36-76.13,19.03-60.38,21.27-120.65,42.31-185.38,45.31-13.97.65-27.99.09-39.8.09-22.7,83.99-76.29,131.06-157.37,151.78,4.95,5.7,9.53,10.96,15.3,17.6ZM176.54,234.02c-24.24,4.59-46.36,15.79-67.49,29.81-28.32,18.8-46.34,44.05-49.36,78.17-1.55,17.61-1.7,35.66.3,53.19,3.11,27.32,9.79,54.33,35.43,69.97,15,9.15,31.24,18.02,48.11,22.06,64.25,15.41,118.04-6.15,162.7-52.24,21.3-21.98,39.2-47.35,40.73-79.27,1.93-40.3-18.15-71.97-44.78-100.07-1.69-1.78-5.16-1.75-7.33-3.24-3.81-2.62-9.28-5.12-10.47-8.82-4.32-13.44-6.73-27.47-10.65-41.06-4.42-15.32-9.7-30.39-15.42-48.1-7.75,6.49-14.1,9.96-17.83,15.26-15.3,21.76-29.69,44.15-44.7,66.11-2.49,3.65-6.43,6.3-9.7,9.42-2.85-3.35-5.71-6.7-9.55-11.21ZM778.7,299.49c11.43-12.96,19-28.18,19.59-44.88,1.02-28.97,1.36-58.2-1.37-87.01-3.67-38.74-6.75-76.48,14.53-111.96,7.45-12.43,3.01-28.19-7.18-36.05-9.81-7.56-26.37-7.23-37.44,1.17-23.43,17.78-27.92,43.2-24.77,69.76,3.37,28.43,9.52,56.56,14.98,84.71,7.25,37.39,11.13,74.04-18.44,105.06,13.47,6.45,26.17,12.53,40.1,19.2ZM723.89,611.62c-22.73-13.03-43.36-24.88-64.01-36.71-8.53-4.89-13.25-2.84-16.02,6.49-6.44,21.68-12.95,43.33-19.62,64.93-4.88,15.79-9.13,31.16-29.45,35.57-11.18,2.43-16.07,15.47-13.13,25.41,3.38,11.38,12.52,13.73,22.86,13.95,16.31.34,28.58-8.11,39.16-19.06,18.25-18.88,36.21-38.06,53.75-57.6,9.39-10.45,17.65-21.92,26.45-32.97ZM385.79,631.42c10.36,7.24,18.78,12.64,26.66,18.74,14.95,11.57,30.04,23.02,44.16,35.55,7.09,6.29,10.98,14.18,3.39,24.39-5.57,7.48-2.73,15.6,5.84,20.31,10.18,5.59,30.68,3.34,39.27-3.96,8.68-7.37,12.27-19.62,4.88-33.28-13.17-24.35-28.67-47.45-43.56-70.85-1.32-2.07-5.51-3.78-8.01-3.38-23.36,3.72-46.64,7.93-72.63,12.48ZM45,334.16c11.93-33.43,11.01-35.88-15.17-53.81-3.12-2.14-4.1-7.41-6.07-11.23,4.56-.12,10.17-2,13.47-.02,8.88,5.33,16.77,12.31,25.63,19.08,3.93-4.87,8.24-10.21,13.71-17-21.57-5.5-41.11-10.49-62.38-15.92,2.88,31.01,14.67,54.82,30.8,78.9Z" stroke-width="0"/><path d="M222.65,522.75c-5.77-6.63-10.34-11.9-15.3-17.6,81.08-20.72,134.68-67.79,157.37-151.78,11.82,0,25.84.55,39.8-.09,64.73-3.01,125-24.04,185.38-45.31,24.61-8.67,50.34-16.37,76.13-19.03,78.78-8.15,138.45,30.3,163.93,105.29,10.75,31.63,16.61,64.9,25.02,97.34,4.56,17.59,8.87,35.36,15.12,52.37,3.48,9.47,9.48,18.72,16.45,26.07,28.62,30.12,54.94,61.6,68.87,101.55,1.85,5.29,3.3,10.88,3.85,16.45,3.17,31.89-23.37,50.77-52.97,37.87-13.98-6.09-17.24-18.46-6.04-28.71,9.27-8.49,6-13.98-.94-20.84-23.11-22.84-52.38-34.66-81.94-45.75-45.77-17.18-93.34-30.84-134.1-58.56-19.51-13.27-36.07-12.83-57.98-7.48-74.55,18.21-149.68,34.29-224.98,49.13-36.14,7.12-65.91,24.16-91.79,48.66-27.28,25.83-52.83,53.48-79.71,79.76-19.36,18.93-41.77,31.95-70.27,30.08-3.22-.21-6.52-.34-9.6-1.17-13.68-3.7-21.58-13.31-20.66-24.75.94-11.63,11.4-23.17,24.54-22.55,13.38.63,18.15-6.77,23.82-16.09,25.01-41.12,37.19-86.63,47.24-133.07,4.09-18.92,10.07-37.44,15.38-56.08,1.63-5.72,5.95-12.58-2.77-14.84-2.52-.65-7.28,6.26-10.54,10.11-1.45,1.71-1.71,4.42-3.33,9.02Z" fill="#fff" stroke-width="0"/><path d="M176.54,234.02c3.84,4.51,6.7,7.86,9.55,11.21,3.27-3.11,7.21-5.77,9.7-9.42,15.01-21.96,29.4-44.36,44.7-66.11,3.73-5.3,10.08-8.77,17.83-15.26,5.72,17.71,11,32.78,15.42,48.1,3.92,13.58,6.33,27.62,10.65,41.06,1.19,3.7,6.67,6.2,10.47,8.82,2.17,1.5,5.64,1.46,7.33,3.24,26.62,28.1,46.7,59.77,44.78,100.07-1.53,31.92-19.43,57.29-40.73,79.27-44.66,46.09-98.45,67.65-162.7,52.24-16.87-4.05-33.11-12.91-48.11-22.06-25.64-15.64-32.32-42.65-35.43-69.97-1.99-17.53-1.85-35.58-.3-53.19,3.01-34.11,21.04-59.37,49.36-78.17,21.13-14.02,43.25-25.22,67.49-29.81ZM192.25,433.42c8.62-.42,15.52-.04,22.07-1.39,3.01-.62,5.32-4.63,7.95-7.11-3.04-1.77-5.89-4.43-9.15-5.08-4.24-.85-8.88.47-13.21-.14-13.34-1.87-19.72-14.14-13.84-26.01,5.15-10.39,1.13-17.89-10.5-17.45-6.53.25-13.74,2.31-19.14,5.85-4,2.62-7.99,9.21-7.52,13.54.45,4.1,6.05,9.17,10.54,11.04,17.39,7.24,20.16,11.96,15.97,29.97-.57,2.44.84,6.85,2.71,7.92,1.82,1.04,6.21-.2,8.07-1.94,2.81-2.63,4.39-6.56,6.04-9.2ZM203.64,340.08c-.39,12.72,3.12,16.96,14.35,17.3,15.75.49,29.09-8.93,29.47-20.8.39-12.09-8.55-21.87-20.44-22.38-14.51-.62-22.85,8.61-23.38,25.88ZM107.96,376.57c-13.91-.87-21.57,5.03-22.51,17.33-.91,11.86,6.29,20.07,18.26,20.84,13.55.87,24.65-9.51,25.26-23.62.39-8.88-6.48-13.63-21.02-14.54ZM233.45,225.92c6.06-13.03,11.89-24.41,16.52-36.26,1.19-3.05-1.36-7.57-2.19-11.42-3.3,1.58-8.42,2.32-9.58,4.87-6.84,15-13.24,30.25-18.53,45.85-.94,2.78,3.3,10.07,6.37,10.93,8.84,2.49,18.3,3.23,27.55,3.63,2.79.12,5.72-3.11,8.59-4.81-2.13-2.86-3.7-7.22-6.51-8.26-5.95-2.22-12.55-2.7-22.21-4.53Z" fill="#fff" stroke-width="0"/><path d="M778.7,299.49c-13.93-6.67-26.63-12.75-40.1-19.2,29.58-31.02,25.7-67.67,18.44-105.06-5.46-28.16-11.61-56.28-14.98-84.71-3.15-26.56,1.34-51.97,24.77-69.76,11.06-8.4,27.63-8.73,37.44-1.17,10.19,7.86,14.63,23.62,7.18,36.05-21.28,35.49-18.2,73.22-14.53,111.96,2.73,28.81,2.39,58.04,1.37,87.01-.59,16.69-8.15,31.92-19.59,44.88Z" fill="#fff" stroke-width="0"/><path d="M723.89,611.62c-8.81,11.06-17.07,22.52-26.45,32.97-17.54,19.54-35.5,38.72-53.75,57.6-10.58,10.95-22.85,19.41-39.16,19.06-10.33-.22-19.48-2.57-22.86-13.95-2.95-9.94,1.94-22.98,13.13-25.41,20.32-4.41,24.57-19.77,29.45-35.57,6.67-21.6,13.19-43.26,19.62-64.93,2.77-9.33,7.49-11.38,16.02-6.49,20.65,11.83,41.28,23.67,64.01,36.71Z" fill="#fff" stroke-width="0"/><path d="M385.79,631.42c25.99-4.54,49.27-8.76,72.63-12.48,2.5-.4,6.7,1.32,8.01,3.38,14.89,23.39,30.38,46.5,43.56,70.85,7.39,13.66,3.8,25.91-4.88,33.28-8.59,7.3-29.08,9.55-39.27,3.96-8.57-4.71-11.4-12.82-5.84-20.31,7.59-10.21,3.7-18.1-3.39-24.39-14.12-12.53-29.21-23.99-44.16-35.55-7.88-6.1-16.3-11.5-26.66-18.74Z" fill="#fff" stroke-width="0"/><path d="M45,334.16c-16.13-24.08-27.92-47.89-30.8-78.9,21.27,5.43,40.81,10.42,62.38,15.92-5.48,6.79-9.78,12.13-13.71,17-8.87-6.77-16.75-13.75-25.63-19.08-3.3-1.98-8.91-.1-13.47.02,1.97,3.82,2.95,9.09,6.07,11.23,26.18,17.93,27.1,20.38,15.17,53.81Z" fill="#fff" stroke-width="0"/><path d="M192.25,433.42c-1.65,2.65-3.24,6.58-6.04,9.2-1.86,1.74-6.24,2.98-8.07,1.94-1.88-1.07-3.28-5.48-2.71-7.92,4.19-18.01,1.42-22.73-15.97-29.97-4.49-1.87-10.09-6.94-10.54-11.04-.47-4.33,3.52-10.92,7.52-13.54,5.4-3.54,12.61-5.6,19.14-5.85,11.62-.45,15.65,7.06,10.5,17.45-5.88,11.86.49,24.14,13.84,26.01,4.33.61,8.97-.71,13.21.14,3.26.65,6.11,3.31,9.15,5.08-2.63,2.47-4.94,6.48-7.95,7.11-6.55,1.35-13.46.97-22.07,1.39Z" stroke-width="0"/><path d="M203.64,340.08c.53-17.28,8.87-26.5,23.38-25.88,11.89.51,20.83,10.29,20.44,22.38-.38,11.87-13.72,21.29-29.47,20.8-11.23-.35-14.75-4.58-14.35-17.3Z" stroke-width="0"/><path d="M107.96,376.57c14.54.91,21.41,5.66,21.02,14.54-.61,14.11-11.72,24.49-25.26,23.62-11.98-.77-19.17-8.98-18.26-20.84.94-12.3,8.6-18.2,22.51-17.33Z" stroke-width="0"/><path d="M233.45,225.92c9.67,1.83,16.26,2.31,22.21,4.53,2.81,1.04,4.38,5.41,6.51,8.26-2.87,1.7-5.8,4.93-8.59,4.81-9.26-.4-18.71-1.14-27.55-3.63-3.07-.87-7.31-8.15-6.37-10.93,5.29-15.59,11.69-30.85,18.53-45.85,1.16-2.55,6.29-3.29,9.58-4.87.83,3.85,3.38,8.36,2.19,11.42-4.63,11.85-10.45,23.23-16.52,36.26Z" stroke-width="0"/></g></svg>