<?xml version="1.0" encoding="UTF-8"?><svg id="b" xmlns="http://www.w3.org/2000/svg" viewBox="0 0 545.31 958.44"><g id="c"><path d="M469.21,836.86c.74,21.04-11.42,31.97-29.09,38.5-18.8,6.95-37.76,8.26-56.79.83-13.18-5.15-22.49-14.02-26.49-27.93-.51-1.77-1.22-3.48-1.94-5.51-26.46,7.49-52.81,7.02-80.11.89-2.43,12.39-8.31,22.6-19.61,29.55,3.84,2.92,7.24,5.26,10.39,7.92,17.54,14.83,19,36.6,11.5,53.5-7.28,16.4-30.6,27-47.99,23-2.61-.6-5.44-1.23-7.6-2.69-19.71-13.23-42.22-16.94-65.07-20.01-35.37-4.76-70.46-10.96-103.19-26.17-21.44-9.96-38.97-24.19-48.09-46.78-8.89-22.02-6.04-42.93,7.25-62.38,14.67-21.46,34.99-35.98,58.43-46.49,2.25-1.01,4.52-2,7.35-3.24-1.1-3-2.09-5.66-3.05-8.32-21.57-60.01-23.2-120.55-1.98-180.72,11.62-32.94,25.73-65.06,39.73-97.1,17.66-40.4,33.14-81.32,41.01-124.97,2.54-14.1,1.66-24.05-11.07-33.45-15.62-11.54-27.23-27.49-36.36-44.84-18.83-35.78-17.96-71.67,2.29-106.18,13.26-22.59,29.06-43.68,43.55-65.56,1.61-2.43,2.56-5.53,3.02-8.45,3.05-19.52,4.61-39.37,9.11-58.53,5.4-22.98,18.73-27.76,38.17-14.1,11.48,8.07,21.32,18.53,31.55,28.27,2.81,2.67,5.12,4.1,9.14,3.63,43.6-5.05,86.1-1.61,126.74,16.53,2,.89,5.5-.28,7.77-1.49,20.39-10.84,40.44-22.36,61.09-32.66,7.66-3.82,16.53-5.97,25.09-7.1,15.11-1.99,25.87,5.62,27.32,20.68,1.19,12.45,1.12,25.69-1.87,37.72-5.85,23.58-14.15,46.56-21.34,69.81-.71,2.29-1.67,5.06-1.01,7.13,11.39,36.18,7.57,72.1-1.54,107.94-3.08,12.11-6.82,24.07-9.54,36.25-1.02,4.59-1.11,9.95.23,14.4,10.65,35.29,23.06,70.1,32.33,105.73,9.4,36.12,19.09,72.04,31.32,107.31,6.07,17.5,12.49,35.09,16.13,53.17,11.83,58.68,13.99,117.49-2.92,175.77-5.52,19.03-15,36.11-27.56,51.47-1.36,1.67-2.59,3.86-2.87,5.94-2.04,15.27-7.65,21.96-22.58,26.19-3.38.96-6.84,1.61-10.87,2.54ZM171.64,328.71c-.52,2-1.01,3.34-1.21,4.73-5.41,37.56-16.23,73.6-31.01,108.45-13.01,30.68-26.79,61.03-39.83,91.7-22.34,52.56-31.67,106.81-20.73,163.68,8.57,44.56,27.57,82.82,65.04,110.22,4.7,3.44,6.43,7.32,3.83,12.88-1.98,4.25.11,7.85,3.74,9.36,4.79,1.99,10.09,2.74,15.21,3.87.29.07.87-1.29,1.36-1.94,4.49-5.97,9.23-11.77,13.37-17.97,1.92-2.88,3.95-6.6,3.77-9.82-1.5-27.05-2.74-54.14-5.53-81.07-4.37-42.06-10.04-83.99-14.84-126.01-1.51-13.24-2.14-26.59-2.89-39.9-.32-5.63,3.08-9.53,7.75-9.34,5.23.21,7.76,3.42,8.15,8.49.05.62,0,1.25.07,1.87,3.59,35.23,6.35,70.57,10.98,105.66,6.24,47.37,10.59,94.83,12.43,142.56.27,6.96-1.94,12.57-6.81,17.42-3.04,3.03-5.81,6.32-8.84,9.64,9.83,4.86,10.44,7.38,4.96,16.58-.87,1.46-1.03,3.35-1.51,5.04,5.7-4.21,8.23-12.82,17.07-9.23,5.81,2.36,4.85,7.84,3.63,13.51,2.5-.41,5.33-.86,6.01-2.31,2.31-4.99,5.43-8.29,11.09-6.38,5.89,1.99,5.76,6.89,4.47,11.94-.09.34.19.77.51,1.97,1.8-.19,3.82-.08,5.62-.64,11.65-3.6,19.36-10.79,21.75-23.28,5.18-27.03,3.99-54.37,4.47-81.65.88-50,2.13-99.99,3.32-149.98.14-6.03.7-12.07,1.39-18.08.65-5.75,4.11-8.84,8.96-8.22,5.41.7,7.22,4.3,6.92,9.34-.09,1.46-.23,2.91-.29,4.37-1.63,39.14-3.73,78.27-4.73,117.42-.82,31.87-.26,63.77-.45,95.66-.04,5.99-.73,11.97-1.13,18.13,14.46,4.45,28.77,5.68,43.15,4.69,9.07-.62,18.08-2.59,27.01-4.48,1.68-.36,3.99-3.18,4.04-4.93.95-29.57,1.4-59.15,2.34-88.72,1.55-48.93-3.12-97.43-9.41-145.84-.88-6.75,1.19-10.95,6.04-11.83,5.31-.96,8.7,2.25,9.71,9.46,1.01,7.22,1.91,14.46,2.75,21.71,5.43,47.05,8.84,94.16,6.22,141.61-1.3,23.49-1.58,47.08-1.28,70.61.12,8.99,2.38,18.19,5.05,26.86,2.94,9.52,11.06,13.62,20.87,15.93,0-2.45-.03-4.1,0-5.75.14-5.9,2.91-9.29,7.68-9.4,4.65-.1,7.92,3.38,8.27,9.06.18,2.8.03,5.62.03,9.07,4.98-.6,8.82-1.06,13.69-1.64-1.12-3.85-2-6.95-2.94-10.03-1.4-4.6-.47-8.48,4.15-10.41,4.89-2.04,8.57.05,10.68,4.67,1.44,3.16,2.48,6.5,3.7,9.77,7.46-3.21,8.05-8.03,2.11-14.42-4.07-4.39-4.19-9.44-.01-12.36,1.75-1.23,3.98-1.78,7.5-3.27-2.05-1.39-3.3-2.71-4.81-3.17-10.18-3.1-11.26-11.68-11.32-20.03-.15-19.77-.2-39.57.81-59.3,2.3-44.74,5.93-89.42,7.69-134.18,1.05-26.83-.42-53.76-.73-80.64-.08-6.8,2.73-10.5,7.87-10.57,4.96-.06,7.86,3.41,8.14,9.73,2.73,62.37.18,124.59-4.62,186.78-2,25.95-2.96,51.99-4.07,78-.34,7.93.22,15.9,9.06,20.07,1.75.83,2.78,3.07,4.36,4.41,1.02.87,2.56,2.04,3.62,1.82,5.65-1.16,11.61-1.93,16.64-4.46,2.48-1.26,3.42-5.95,4.64-9.23,1.37-3.66,1.22-8.41,3.56-11.1,15.22-17.56,25.47-37.59,30.76-60.07,12.65-53.76,11.12-107.7-1.32-161.08-5.93-25.47-16.33-49.86-23.66-75.04-8.91-30.58-16.17-61.65-25.18-92.2-9.42-31.95-19.96-63.58-30.29-95.26-2.3-7.04-2.47-13.54-.37-20.7,4.56-15.58,8.69-31.31,12.4-47.12,5.71-24.33,8.16-48.89,3.41-73.77-.62-3.25-1.38-5.56-5.07-6.85-4.6-1.61-5.94-5.6-4.25-10.24,1.14-3.13,2.54-6.16,3.8-9.25,11.3-27.62,21.64-55.56,25.93-85.27.94-6.51.86-13.35,0-19.87-1.01-7.6-4.2-9.73-11.72-8.51-5.7.93-11.53,2.34-16.75,4.72-12.68,5.79-25.34,11.75-37.45,18.62-13.57,7.71-26.39,16.73-39.85,24.65-2.95,1.73-7.67,2.48-10.78,1.4-4.28-1.49-4.39-6.04-2.92-10.21.12-.33-.11-.78-.22-1.49-1.35-.59-2.84-1.29-4.36-1.89-20.99-8.2-42.85-12.16-65.29-12.9-29-.96-57.55.91-84.06,14.49-17.17,8.8-31.26,21.11-42.37,36.69,5.14,3.16,10.01,5.93,14.62,9.06,4,2.71,5.42,6.67,2.39,10.77-3.01,4.08-6.94,3.71-10.99.92-3.07-2.11-6.33-4-9.67-5.64-3.59-1.75-6.4-1.2-8.84,2.68-7.41,11.82-15.57,23.19-22.8,35.11-22.64,37.32-21.07,73.9,4.37,109.33,16.57,23.08,38.18,40.54,62.35,55.07,5.44,3.27,7.02,7.54,4.52,11.83-2.45,4.22-6.99,5.01-12.5,1.97-3.95-2.18-7.78-4.57-12.12-7.15ZM84.85,764.6c-25.87,10.24-48.57,24.91-62.87,50.04-7.57,13.3-7.88,27.41-1.98,41.55,7.59,18.21,21.97,29.47,39.15,37.67,28.36,13.54,58.84,19.34,89.6,23.81,27.85,4.05,55.6,7.42,80.44,22.85,11.76,7.3,32.29-4.18,35.03-17.83,2.92-14.57-1.43-25.04-14-33.19-12.3-7.97-26.15-11.99-40.36-14.34-22.8-3.76-45.78-6.4-68.58-10.16-16.46-2.71-32.78-6.48-46.95-16.02-10.13-6.81-14.2-17.34-9.72-28.17,2.37-5.73,6.85-10.79,11.15-15.44,3.28-3.55,7.78-5.97,11.55-8.75-7.49-10.67-14.75-21.03-22.45-32.01ZM165.35,852.72c.07-.53.13-1.06.2-1.59-4.95-1.21-10.07-1.98-14.81-3.73-10.32-3.82-19.21-10.2-19.15-22.08.05-8.56-5.83-11.16-10.41-15.48-.64-.61-2.61-.72-3.34-.2-5.5,3.99-11.58,7.54-16.06,12.51-5.2,5.78-3.76,11.02,3.19,14.77,18.86,10.19,39.71,12.67,60.38,15.8ZM219.42,43.39c-9.32-9.72-18.61-19.16-30.48-25.47-1.65-.88-6.03-.25-6.53.87-6.92,15.29-8.17,31.73-9.95,49.14,8.17-5.28,15.2-9.82,23.08-14.91-3.98-3.58-7.2-6.75-10.71-9.56-3.67-2.93-4.92-6.51-2.29-10.31,2.85-4.12,7.06-4.24,10.9-1.22,3.74,2.94,7.37,6.1,10.62,9.56,6.28,6.69,6.15,6.8,15.36,1.89Z" stroke-width="0"/><path d="M171.64,328.71c4.34,2.57,8.17,4.97,12.12,7.15,5.51,3.04,10.04,2.25,12.5-1.97,2.5-4.29.92-8.55-4.52-11.83-24.16-14.54-45.77-32-62.35-55.07-25.44-35.43-27.01-72.01-4.37-109.33,7.23-11.93,15.39-23.29,22.8-35.11,2.43-3.88,5.25-4.43,8.84-2.68,3.35,1.63,6.61,3.53,9.67,5.64,4.05,2.79,7.98,3.16,10.99-.92,3.02-4.09,1.61-8.05-2.39-10.77-4.61-3.13-9.48-5.9-14.62-9.06,11.11-15.58,25.2-27.89,42.37-36.69,26.51-13.58,55.06-15.45,84.06-14.49,22.44.74,44.3,4.7,65.29,12.9,1.52.6,3.01,1.3,4.36,1.89.12.71.34,1.16.22,1.49-1.47,4.16-1.36,8.72,2.92,10.21,3.11,1.08,7.84.33,10.78-1.4,13.46-7.92,26.28-16.94,39.85-24.65,12.11-6.88,24.77-12.83,37.45-18.62,5.23-2.39,11.05-3.8,16.75-4.72,7.52-1.22,10.71.9,11.72,8.51.87,6.52.94,13.37,0,19.87-4.29,29.71-14.63,57.65-25.93,85.27-1.26,3.09-2.67,6.12-3.8,9.25-1.68,4.64-.34,8.63,4.25,10.24,3.69,1.29,4.45,3.59,5.07,6.85,4.75,24.87,2.3,49.44-3.41,73.77-3.71,15.81-7.85,31.53-12.4,47.12-2.09,7.16-1.92,13.66.37,20.7,10.33,31.68,20.87,63.3,30.29,95.26,9.01,30.55,16.27,61.62,25.18,92.2,7.34,25.18,17.73,49.58,23.66,75.04,12.44,53.38,13.97,107.32,1.32,161.08-5.29,22.47-15.55,42.51-30.76,60.07-2.33,2.69-2.19,7.44-3.56,11.1-1.23,3.29-2.16,7.98-4.64,9.23-5.03,2.54-10.99,3.3-16.64,4.46-1.05.22-2.6-.95-3.62-1.82-1.57-1.35-2.61-3.59-4.36-4.41-8.83-4.17-9.39-12.14-9.06-20.07,1.11-26.01,2.06-52.05,4.07-78,4.8-62.19,7.35-124.41,4.62-186.78-.28-6.32-3.18-9.8-8.14-9.73-5.15.06-7.95,3.76-7.87,10.57.31,26.88,1.78,53.81.73,80.64-1.76,44.76-5.39,89.44-7.69,134.18-1.01,19.73-.97,39.53-.81,59.3.07,8.35,1.15,16.92,11.32,20.03,1.51.46,2.76,1.78,4.81,3.17-3.52,1.5-5.75,2.04-7.5,3.27-4.17,2.93-4.06,7.98.01,12.36,5.93,6.39,5.35,11.21-2.11,14.42-1.22-3.27-2.25-6.62-3.7-9.77-2.11-4.62-5.79-6.71-10.68-4.67-4.63,1.93-5.55,5.81-4.15,10.41.94,3.08,1.81,6.18,2.94,10.03-4.87.59-8.7,1.05-13.69,1.64,0-3.45.14-6.27-.03-9.07-.36-5.68-3.62-9.16-8.27-9.06-4.76.11-7.54,3.49-7.68,9.4-.04,1.65,0,3.29,0,5.75-9.81-2.3-17.93-6.41-20.87-15.93-2.68-8.67-4.94-17.86-5.05-26.86-.3-23.53-.02-47.11,1.28-70.61,2.62-47.45-.79-94.56-6.22-141.61-.84-7.24-1.73-14.49-2.75-21.71-1.01-7.21-4.4-10.42-9.71-9.46-4.85.88-6.92,5.08-6.04,11.83,6.28,48.41,10.96,96.91,9.41,145.84-.94,29.57-1.39,59.15-2.34,88.72-.06,1.75-2.37,4.58-4.04,4.93-8.92,1.89-17.93,3.86-27.01,4.48-14.38.99-28.7-.24-43.15-4.69.4-6.16,1.1-12.14,1.13-18.13.19-31.89-.37-63.79.45-95.66,1-39.16,3.1-78.28,4.73-117.42.06-1.46.21-2.91.29-4.37.29-5.04-1.51-8.65-6.92-9.34-4.85-.62-8.31,2.47-8.96,8.22-.68,6-1.24,12.04-1.39,18.08-1.19,49.99-2.44,99.98-3.32,149.98-.48,27.28.71,54.61-4.47,81.65-2.39,12.49-10.1,19.68-21.75,23.28-1.81.56-3.82.45-5.62.64-.32-1.2-.6-1.63-.51-1.97,1.3-5.05,1.42-9.95-4.47-11.94-5.66-1.91-8.78,1.39-11.09,6.38-.67,1.45-3.51,1.91-6.01,2.31,1.22-5.67,2.18-11.14-3.63-13.51-8.84-3.59-11.37,5.02-17.07,9.23.49-1.69.64-3.58,1.51-5.04,5.47-9.2,4.87-11.72-4.96-16.58,3.03-3.32,5.8-6.62,8.84-9.64,4.86-4.84,7.08-10.46,6.81-17.42-1.84-47.72-6.19-95.19-12.43-142.56-4.62-35.09-7.39-70.43-10.98-105.66-.06-.62-.02-1.25-.07-1.87-.39-5.06-2.91-8.28-8.15-8.49-4.68-.19-8.07,3.72-7.75,9.34.75,13.32,1.37,26.66,2.89,39.9,4.8,42.02,10.47,83.94,14.84,126.01,2.8,26.93,4.03,54.02,5.53,81.07.18,3.22-1.85,6.95-3.77,9.82-4.14,6.2-8.88,12-13.37,17.97-.49.66-1.07,2.01-1.36,1.94-5.12-1.13-10.42-1.89-15.21-3.87-3.63-1.51-5.72-5.11-3.74-9.36,2.6-5.56.87-9.44-3.83-12.88-37.47-27.4-56.47-65.66-65.04-110.22-10.94-56.87-1.62-111.12,20.73-163.68,13.04-30.67,26.82-61.02,39.83-91.7,14.78-34.85,25.59-70.89,31.01-108.45.2-1.38.69-2.72,1.21-4.73ZM240.43,209.34c6.84-.97,14.08-1.77,21.24-3.08,6.24-1.14,8.94-4.55,7.69-9.14-1.51-5.53-5.62-5.67-10.43-5.04-7.82,1.03-15.73,2.4-23.56,2.17-14.31-.42-26.94-5.36-35.76-17.42-4.84-6.61-2.49-12.68,5.11-14.94,5.76-1.72,11.72-3.46,16.78-6.54,3.71-2.26,8.48-6.75,8.4-10.14-.08-3.31-5.21-8.28-9.02-9.36-9.46-2.69-19.38-4.13-29.21-4.98-5.72-.49-12.27.73-15.13,6.71-3.11,6.51,1.68,11.46,5.3,16.23,4.25,5.6,3.11,14.06-2.81,18-12.48,8.32-24.45,5.99-36.12-1.84-3.99-2.68-7.99-3.04-10.99,1.15-3.02,4.22-1.54,8.16,2.62,10.6,4.81,2.83,9.8,5.56,15.05,7.39,3.72,1.3,5.06,3.02,5.73,6.83,1.34,7.54,2.67,15.29,5.57,22.3,6.77,16.4,22.8,21.49,37.35,11.35,7.15-4.98,12.75-12.36,18.49-19.12,2.17-2.56,3.74-3.75,7.14-3.13,5.31.97,10.73,1.32,16.58,2ZM449.43,63.15c-2.09,7.94-3.16,14.69-5.65,20.87-5.43,13.49-11.57,26.7-17.47,40-1.85,4.16-1.63,7.94,2.49,10.34,4.1,2.39,7.97,1.12,10.08-2.99,9.88-19.26,19.78-38.58,23.35-60.26,2.92-17.72-5.69-25.3-23.05-20.65-.6.16-1.21.3-1.81.49-19.28,6.36-35.67,17.77-51.57,29.92-4.58,3.5-4.21,8.45.18,12.18,3.95,3.36,7.99,6.62,11.88,10.05,3.35,2.96,6.85,3.21,10.08.32,3.3-2.95,3.23-6.61.6-10.07-1.72-2.26-3.71-4.32-5.99-6.95,14.45-9.27,27.93-19.3,46.9-23.25ZM345.64,144.78c-.77-1.06-1.86-3.76-3.86-5.09-17.7-11.77-36.8-13.18-56.7-6.84-4.16,1.33-5.9,4.75-4.61,8.94,1.3,4.24,4.69,5.6,8.9,4.76,2.24-.45,4.38-1.33,6.62-1.79,13.44-2.75,25.97-.61,37.68,6.75,5.73,3.6,11.72.8,11.97-6.73Z" fill="#fff" stroke-width="0"/><path d="M84.85,764.6c7.7,10.99,14.97,21.34,22.45,32.01-3.77,2.78-8.27,5.21-11.55,8.75-4.3,4.65-8.79,9.71-11.15,15.44-4.47,10.83-.41,21.36,9.72,28.17,14.18,9.54,30.5,13.3,46.95,16.02,22.8,3.76,45.78,6.41,68.58,10.16,14.21,2.34,28.06,6.36,40.36,14.34,12.57,8.15,16.92,18.61,14,33.19-2.74,13.65-23.27,25.13-35.03,17.83-24.84-15.42-52.59-18.8-80.44-22.85-30.76-4.47-61.24-10.27-89.6-23.81-17.18-8.2-31.56-19.46-39.15-37.67-5.9-14.14-5.58-28.25,1.98-41.55,14.3-25.13,37-39.8,62.87-50.04Z" fill="#fff" stroke-width="0"/><path d="M165.35,852.72c-20.66-3.13-41.52-5.61-60.38-15.8-6.94-3.75-8.39-9-3.19-14.77,4.47-4.97,10.55-8.52,16.06-12.51.73-.53,2.69-.41,3.34.2,4.58,4.32,10.46,6.92,10.41,15.48-.07,11.87,8.83,18.25,19.15,22.08,4.75,1.76,9.86,2.52,14.81,3.73-.07.53-.13,1.06-.2,1.59Z" fill="#fff" stroke-width="0"/><path d="M219.42,43.39c-9.21,4.91-9.09,4.8-15.36-1.89-3.25-3.46-6.88-6.62-10.62-9.56-3.84-3.02-8.05-2.91-10.9,1.22-2.63,3.8-1.38,7.38,2.29,10.31,3.51,2.81,6.73,5.98,10.71,9.56-7.88,5.09-14.91,9.63-23.08,14.91,1.78-17.41,3.03-33.85,9.95-49.14.51-1.12,4.88-1.75,6.53-.87,11.87,6.3,21.15,15.75,30.48,25.47Z" fill="#fff" stroke-width="0"/><path d="M240.43,209.34c-5.85-.67-11.27-1.03-16.58-2-3.4-.62-4.97.58-7.14,3.13-5.75,6.76-11.34,14.14-18.49,19.12-14.55,10.13-30.57,5.04-37.35-11.35-2.9-7.01-4.23-14.76-5.57-22.3-.68-3.82-2.01-5.54-5.73-6.83-5.24-1.83-10.23-4.56-15.05-7.39-4.16-2.45-5.65-6.38-2.62-10.6,3-4.19,7-3.83,10.99-1.15,11.67,7.83,23.65,10.16,36.12,1.84,5.91-3.94,7.06-12.4,2.81-18-3.62-4.77-8.41-9.72-5.3-16.23,2.86-5.98,9.4-7.21,15.13-6.71,9.83.85,19.76,2.29,29.21,4.98,3.81,1.08,8.94,6.05,9.02,9.36.09,3.39-4.69,7.88-8.4,10.14-5.06,3.08-11.02,4.82-16.78,6.54-7.59,2.27-9.94,8.33-5.11,14.94,8.82,12.06,21.45,17,35.76,17.42,7.83.23,15.74-1.13,23.56-2.17,4.81-.64,8.93-.49,10.43,5.04,1.25,4.59-1.45,7.99-7.69,9.14-7.15,1.31-14.4,2.11-21.24,3.08ZM204.87,202.61c-6.17-5.77-10.8-10.23-15.6-14.51-1.07-.95-2.86-1.98-4.09-1.74-14.8,2.85-16.95,6.57-12.4,20.99.56,1.78,1.21,3.56,2.01,5.24,3.42,7.13,8.75,9.15,15.13,4.45,5.55-4.09,10.04-9.6,14.95-14.43Z" stroke-width="0"/><path d="M449.43,63.15c-18.97,3.95-32.44,13.98-46.9,23.25,2.28,2.63,4.27,4.69,5.99,6.95,2.63,3.46,2.7,7.12-.6,10.07-3.23,2.89-6.73,2.64-10.08-.32-3.89-3.43-7.93-6.69-11.88-10.05-4.39-3.73-4.76-8.68-.18-12.18,15.9-12.15,32.29-23.56,51.57-29.92.59-.2,1.2-.33,1.81-.49,17.36-4.65,25.97,2.93,23.05,20.65-3.57,21.68-13.47,41-23.35,60.26-2.1,4.1-5.98,5.37-10.08,2.99-4.11-2.4-4.33-6.18-2.49-10.34,5.91-13.3,12.04-26.51,17.47-40,2.49-6.18,3.55-12.93,5.65-20.87Z" stroke-width="0"/><path d="M345.64,144.78c-.24,7.53-6.24,10.33-11.97,6.73-11.71-7.37-24.24-9.5-37.68-6.75-2.24.46-4.38,1.34-6.62,1.79-4.21.85-7.6-.51-8.9-4.76-1.29-4.2.45-7.62,4.61-8.94,19.9-6.34,39-4.94,56.7,6.84,2,1.33,3.09,4.03,3.86,5.09Z" stroke-width="0"/><path d="M204.87,202.61c-4.91,4.83-9.4,10.34-14.95,14.43-6.37,4.7-11.71,2.68-15.13-4.45-.81-1.68-1.45-3.46-2.01-5.24-4.54-14.42-2.4-18.14,12.4-20.99,1.22-.24,3.02.79,4.09,1.74,4.8,4.27,9.43,8.73,15.6,14.51Z" fill="#fff" stroke-width="0"/></g></svg>