<?xml version="1.0" encoding="UTF-8"?><svg id="b" xmlns="http://www.w3.org/2000/svg" viewBox="0 0 2586.24 1016.89"><g id="c"><path d="M1137.63,4.49c-3.63,9.32-15.71,50.93-20.54,70.61-21.93,88.74-31.77,182.32-23.31,220.64,3.45,15.88,15.54,41.44,25.55,54.38,10.71,13.98,33.15,34.7,49.03,45.41,16.06,10.7,47.48,26.06,66.64,32.63,11.05,3.8,13.99,5.52,13.64,8.11-.17,1.73-4.66,22.1-10.01,45.23-8.46,37.12-15.36,65.44-33.67,135.88-13.47,52.3-15.54,117.4-5.18,159.18,5.18,19.85,15.71,40.23,27.28,51.79,11.74,11.74,23.83,17.95,42.64,21.92,8.98,1.73,14.33,3.8,15.36,5.7,3.8,6.91,16.06,17.26,22.62,19.16,8.81,2.42,41.09,2.42,49.89,0,6.56-1.73,6.56-1.89,5.53-8.63l-1.04-6.73h21.24l-1.21,6.73c-1.38,8.63-.35,8.98,24.68,10.19,28.49,1.21,36.26-.86,48.69-13.47,7.59-7.59,11.91-10.36,18.3-11.91,12.43-3.29,31.42-12.6,41.44-20.55,25.38-20.2,40.75-55.93,43.16-100.48l1.04-20.03,11.39-8.63c31.6-23.99,53.18-66.29,58.88-116.02.86-8.29,2.41-33.32,3.45-55.59,7.42-163.33,23.31-231.35,57.84-247.06,3.8-1.73,7.94-3.28,9.15-3.28,5.18,0,14.5-5.87,16.75-10.53,8.63-16.57-5.7-34.35-27.97-34.35-15.19,0-37.12,9.15-49.9,21.06l-7.59,7.08v-9.67c0-27.62-6.91-84.25-15.71-128.1-10.18-51.79-30.56-122.75-35.56-124.65-1.9-.7-5.01,1.38-9.84,6.56-3.8,4.14-18.3,19.68-32.11,34.35-13.99,14.67-28.49,30.21-32.28,34.53l-7.08,7.77-10.18-2.25c-50.59-11.05-90.29-14.84-142.78-13.64-40.92.86-66.47,3.8-104.63,11.91l-17.95,3.63-15.71-16.4c-8.46-8.98-26.42-27.8-39.53-41.78-13.3-13.81-25.03-25.21-26.42-25.21-1.21,0-3.11,2.07-3.97,4.49h0ZM1194.6,65.09l26.76,28.14,6.04-1.73c9.84-2.93,39.36-8.63,58.7-11.4,58.7-8.46,140.53-4.83,195.95,8.63,9.5,2.25,17.95,3.63,18.99,3.11,1.73-1.03,47.3-49.03,68.54-71.99l7.94-8.46,5.18,17.09c24.17,79.59,37.46,152.79,39.53,218.4.86,31.08.69,34.71-2.76,47.13-12.44,45.06-50.24,84.6-108.08,112.56-47.65,23.13-95.82,33.84-151.07,33.84s-105.31-10.36-152.79-32.8c-64.06-30.39-100.65-73.21-107.9-126.03-3.28-24.69,1.55-84.6,11.4-139.16,6.91-38.85,15.71-75.1,27.79-115.5l4.66-15.19,12.26,12.6c6.73,7.07,24.17,25.38,38.85,40.74h0ZM1704.25,247.23c6.39,4.32,8.81,10.36,6.56,16.06-1.55,4.14-9.67,9.5-14.67,9.5s-19.34,8.46-25.55,15.36c-20.37,22.62-33.84,76.48-40.74,164.19-1.04,11.91-2.94,45.93-4.49,75.79-2.94,58.7-5.18,75.62-13.12,99.45-7.77,23.48-17.43,39.19-34.7,56.45-8.11,8.46-15.71,15.19-16.58,15.19-1.03,0-2.25-5.18-2.93-11.74-.69-6.39-1.9-16.06-2.59-21.58-1.38-9.15-1.21-10.7,2.41-16.57,19.17-30.39,25.38-57.33,27.8-122.75,2.24-61.98,7.25-119.65,13.81-157.11,3.63-21.92,4.49-24.17,12.77-37.81,8.98-14.85,16.06-33.84,18.3-49.2,1.04-7.26,2.41-9.85,10.18-17.26,20.72-20.21,49.2-28.32,63.54-17.96h0ZM1590.65,372.23c-3.45,19.5-8.98,78.38-11.05,115.5-.86,17.95-2.42,46.44-3.45,63.02-1.55,30.73-4.14,46.96-10.02,63.88-3.97,11.4-12.25,28.31-13.47,27.1-.34-.34-3.1-10.36-6.04-22.1-2.76-11.73-8.63-33.15-12.77-47.3-7.25-24.69-35.74-132.25-37.98-143.3-.86-5.18-.69-5.36,17.78-14.16,27.62-13.29,61.29-36.6,75.27-52.14,1.9-1.9,3.45-3.63,3.63-3.63s-.69,5.87-1.9,13.12h0ZM1492.24,446.63c8.29,34.01,24.52,94.61,35.22,132.77,17.61,61.98,22.96,92.71,23.13,132.76,0,27.1-.52,31.6-5.01,51.79-6.04,27.8-24.51,54.9-45.75,67.85-8.46,5-27.45,12.77-28.66,11.74-.17-.35,1.56-5.01,4.15-10.53,15.54-35.39,25.38-85.98,25.55-132.07.18-19.68-.17-23.31-2.41-23.31-2.77,0-2.59-.52-6.73,50.93-5.53,68.88-29.7,129.48-55.25,138.46-5.87,2.07-43.86,3.29-45.58,1.38-.34-.52.69-10.18,2.42-21.4,6.56-42.99,8.98-74.07,9.15-117.58.18-44.71-.69-53.34-5.18-52.31-2.24.52-2.59,7.95-3.1,54.04-.52,51.27-2.25,74.06-8.12,109.97l-1.9,11.74h-7.94c-14.5,0-15.36-.69-17.43-13.47-5.7-34.35-7.6-60.59-7.94-109.97-.35-30.56-1.21-51.97-2.25-52.31-.86-.17-2.59.86-3.97,2.42-1.9,2.24-2.24,11.73-2.24,44.54,0,44.2,2.07,71.3,8.46,115.85,2.24,15.19,3.63,27.97,3.28,28.49-1.38,1.21-35.74.86-42.64-.52-9.66-2.07-18.82-12.95-29.69-34.87-15.19-30.39-30.21-80.62-30.21-100.82,0-7.95-2.25-11.4-6.04-9.85-2.77,1.04-2.93,2.59-1.9,12.78,2.25,23.83,14.68,66.64,27.11,93.4,3.62,7.95,6.73,14.67,6.73,14.85,0,.34-4.84-.52-10.7-1.9-27.28-6.39-45.23-24.68-56.45-57.48-12.78-37.29-11.57-110.85,2.59-165.05,3.1-12.43,8.46-32.63,11.73-45.06,5.18-19.5,27.8-116.18,31.25-133.28.86-4.48,1.9-5.52,3.97-4.66,1.73.69,11.91,2.93,22.79,5.18,63.19,13.12,130.35,9.67,187.32-9.15,8.63-2.93,15.88-5.18,16.4-5.35.52-.18,3.11,8.98,5.87,20.02h0Z" stroke-width="0"/><path d="M1222.23,230.48c0,1.38,2.93,5.7,6.39,9.67,3.45,3.96,6.56,8.28,6.74,9.5,1.55,10.01,24.51,18.81,37.46,14.5,11.74-3.8,9.84-14.5-3.8-21.06-5.87-2.93-11.22-3.8-20.55-3.97-12.25,0-12.95-.18-17.26-5.7-5.01-5.87-8.98-7.25-8.98-2.93h0Z" stroke-width="0"/><path d="M1489.48,233.76c-4.66,5.53-5.18,5.7-17.26,5.53-18.47-.18-30.73,6.91-30.73,17.95,0,5.36,10.36,9.32,20.54,7.77,10.71-1.55,22.27-8.46,23.66-14.16.69-2.42,4.32-7.6,7.94-11.22,3.8-3.8,6.39-7.77,6.04-8.81-1.21-3.97-5.52-2.76-10.18,2.93h0Z" stroke-width="0"/><path d="M1352.58,282.62c-5.36,1.38-11.22,7.6-11.22,11.92s8.81,12.77,13.12,12.77c1.73,0,2.42,2.25,2.42,8.46,0,12.09-2.42,17.1-9.32,20.03-8.46,3.63-15.89.69-19.17-7.25-2.59-6.22-6.39-6.91-7.43-1.56-1.03,5.01,2.93,12.26,8.11,15.37,7.26,4.32,19.17,3.8,26.25-1.04l5.87-3.97,5.87,3.97c13.47,9.15,32.8,2.42,33.5-11.57.35-5-.34-6.04-2.93-6.04-2.42,0-3.8,1.73-4.84,5.52-2.42,9.67-17.1,11.22-23.83,2.59-2.59-3.11-3.45-6.91-3.45-13.98,0-9.5.17-10.02,6.04-12.78,6.04-2.93,9.15-8.98,7.08-14.16-2.42-6.73-15.54-10.88-26.07-8.29h0Z" stroke-width="0"/><path d="M1144.54,291.08c-12.95,5.69-17.09,14.16-11.05,22.96,9.5,13.3,43.67,14.33,57.14,1.56,8.46-7.95,2.25-21.58-11.74-25.55-8.63-2.59-27.45-1.9-34.35,1.04h0ZM1178.89,297.99c16.92,6.73,6.22,19.68-16.05,19.68-17.26,0-29.18-7.77-23.14-15.02,6.04-7.43,26.42-9.84,39.19-4.66h0Z" stroke-width="0"/><path d="M1543.17,289.87c-7.94,2.42-11.91,5.36-14.67,10.71-3.62,7.07-.86,13.98,7.6,19.16,8.46,5.18,30.04,6.39,40.92,2.42,18.47-7.08,19.33-22.62,1.9-30.57-7.43-3.28-26.93-4.32-35.74-1.73h0ZM1579.09,299.72c2.59,2.07,4.84,5,4.84,6.73,0,11.57-35.39,15.36-46.61,5-4.32-3.96-4.49-4.66-2.07-8.11,3.62-5.52,12.6-8.11,26.59-7.59,9.5.34,13.64,1.21,17.26,3.97h0Z" stroke-width="0"/></g></svg>