<?xml version="1.0" encoding="UTF-8"?><svg id="b" xmlns="http://www.w3.org/2000/svg" viewBox="0 0 487.56 829.76"><g id="c"><path d="M86.18,417.02c1.25,2.89,2.19-.19,3.3-.17,5.14,2.87,8.06,7.41,9.76,12.89,2.91,6.62,1.69,15.16,9.26,19.59,1.76,1.03,3.27,3.26,5.45,2.4,2.32-.92,1.77-3.57,1.68-5.52-.49-11.62,1.18-23.16,1.17-34.78-.12-129.57-.1-259.14.04-388.71,0-4.27-2.51-9.75,3.5-12.55,4.3.85,5.52,4.11,6.04,7.84.53,3.85.37,7.73.37,11.6,0,99.44.95,198.9-.46,298.32-.57,39.72-.97,79.45-1.53,119.18.12,1.19-1.46.1-.29.33.25.05.39-.19.38-.72-.16-25.6-.02-51.21-.06-76.81,0-2.08-.09-4.17.08-6.25.13-1.57.69-2.9,2.59-2.9,1.92,0,2.46,1.35,2.57,2.93.14,2.08.07,4.17.08,6.25,0,27.69,0,55.38,0,83.03.15,2.26-.16,4.41-1.82,6.18-.55,1.06,1.65.48.49.22-1.16-.27.2.34.25-.81.05-1.06.97-1.98,1.13-3.12-.02-28.32-.05-56.61.02-84.91.01-5.73-.5-10.93-3.93-16.06-3.44-5.14-1.71-10.68,1.92-15.64,3.04-4.14,6.19-7.38,11.83-4.94.57.64,1.1,1.34,1.63,2.04.35.47.75.9,1.13,1.35-.3-.52-.78-.89-1.18-1.38-.42-.8-.32-1.5.28-2.14,1.48-.98,3.12-1.04,4.79-.9,6.65-.64,8.41,2.04,7.67,8.76-.46,4.19-2.73,8.12-1.85,12.46-3.51,2.84-7.07,2.69-10.63.19.06-5.12-7.99-3.01-7.64-8.73.19,2.96,2.18,5.36,1.35,8.25-.27,38.26.78,76.49-.52,114.69-.35,1.41-.76,2.89-2.03,3.75-4.64,3.16-8.7-3.92-13.25-.91-4.86,3.22-8.32,1.5-11.04-2.83-1.33-2.12-3.01-1.18-4.66-1.02-5.64-1.03-8.66-6.07-13.29-8.66-2.7-2.64-5.62-5.08-7.51-8.44-1.42-3.05-1.28-6.26-1.26-9.54.05-8.4-2.54-10.2-10.19-7.3-2.47.94-4.77,2.39-7.52,2.49-3.59-.18-5.54-2.33-6.66-5.49-3.59-9.81-6.92-10.69-13.56-3.57-.97,3.21-1.6,6.55-3.45,9.44-1.15,1.39-2.65,2.24-4.31,2.87-1.24.39-2.51.51-3.81.42-11.07-1.2-13.36,1.39-10.39,11.87.39,1.39.92,2.75.95,4.23-.69,4.42-4.16,6.03-7.67,7.6-3.12-.22-6.26-.41-8.86-2.53-1.86-3.4-2.87-7.11-4.02-10.77-.32-2.66-.25-5.32-.16-7.98,1.89-10.93,8.11-17.85,19-20.35,3.29-.76,5.9-2.43,7.9-5.11,1.82-1.89,2.37-4.67,4.42-6.41,2.92-2.89,6.78-3.98,10.47-5.39,2.5-1.31,5.15-1.16,7.82-.8,5.45,1.22,10.6,3.16,14.79,6.98,2.81,2.56,5.89,3.56,9.58,2.47,3.66.12,7.3.29,9.85,3.52Z" fill="#070707" stroke-width="0"/><path d="M458.5,371.95c-1.59,1.37-2.39,3.11-2.36,5.21-2.11,8.36-5.6,15.91-12.57,21.42-1.61.63-1.54,2.22-1.99,3.51.11,3.57-2.11,6.07-3.96,8.75-6.6,9.54-13.94,18.49-21.62,27.18-4.15,2.56-5.19,6.82-6.45,11.13-2.13,7.28-2.73,15.19-8.22,21.18-2.14,1.83-2.27,4.41-2.6,6.91-.89,8.49-4.43,15.66-10.73,21.44-2.54,2.33-5.3,4.58-3.26,8.64-1.04,2.07-2.52,3.84-3.82,5.75-1.8,2.22-3.48,4.66-6.89,4.28-2.46-1.25-5.28-3.78-3.83-5.86,2.92-4.2-2.24-4.78-2.31-7.36,1.6-7.74,7.03-13.56,10.26-20.49,3.9-6.66,6-14.08,8.87-21.18,2.62-7.81,4.64-15.79,6.7-23.76,1.3-4.26,4.73-6.96,7.46-10.18,2.48-3.14,4.84-6.38,7.38-9.48,2.72-2.88,5.13-6.03,7.69-9.06,5.38-6.74,9.87-14.08,14.42-21.37,10.53-15.95,18.8-32.98,24.56-51.21,2.67-8.46,1.79-11.07-6.21-14.8-8.35-3.89-17.14-6.64-26.24-8.36-20.84-4.92-41.91-5.08-63.07-3.17-3.3.3-6.54.38-9.7-.81-.51-.28-1.29-.61-1.31-1.04-.64-10.42-7.33-17.78-12.95-25.68,1.15-8.03,8.26-6.04,13.15-7.81,3.7.98,6.64,2.68,6.67,7.1.62,2.36,1.92,4.16,4.24,5.1,5.93,3.12,12.12,3.17,18.79,3.23,21.11.18,42.15,2,62.35,8.96,2.06.92,3.98,2.22,6.32,2.41,5.91,2.65,11.66,5.62,17.43,8.58,1.58.9,3.04,1.97,4.35,3.23,6.1,5.83,6.36,13.23,5.64,20.9-.09.91-.29,1.8-.56,2.67-4.61,8.48-5.68,18.37-10.51,26.77-1.33,2.67-2.28,5.62-5.12,7.22Z" fill="#060606" stroke-width="0"/><path d="M120.11,10.32c-2.46,2.87-1.24,6.29-1.24,9.44-.07,143.45-.06,286.9-.06,430.35,0,2.97,0,5.94,0,9.76-14.17-6.7-22.83-16.18-21.85-32.29-.72-3.16.74-4.19,3.68-3.77-.26,3.44,1.6,7.27,4.5,5.74,3.24-1.71,9.16-.19,9.71-6.06.25-2.66.09-5.35.09-8.03,0-131,0-261.99.02-392.99,0-6.19.45-12.38.3-18.56C115.16.36,117.12-.02,119.71,0c6.75.05,13.51.21,20.26.18,2.02,0,2.39.67,2.36,2.59-.12,7.29,3.14,14.06,3.09,21.45-.19,34.83-.09,69.67-.09,104.5,1.25,5.87,6.79,11.24,2.07,17.83-2.36,3.84-4.85,7.59-8.39,10.4-4.9,3.88-7.35,2.98-8.48-3.04-.6-3.23-.37-6.54-.37-9.82-.03-40.83.08-81.67-.07-122.5-.04-10.33-1.25-11.44-10-11.28Z" fill="#fefefe" stroke-width="0"/><path d="M349.19,277.18c-3.78,2.63-9.6.4-12.44,5.24-7.25.44-9.13-6.85-14.08-9.73-19.91-17.92-43.04-30.36-67.86-39.93-3.35-1.29-6.54-2.36-10.24-.54-6.68,3.29-10.7.05-13.08-6.14-.74-1.93-1.09-4.01-1.71-5.99-.74-2.88-1.29-5.8-2.3-8.6-3.57-10.92-9.01-21.01-14.08-31.25-3.36-6.55-7.1-12.87-11.75-18.61-1.74-3.21-4.89-5.62-5.49-9.49,2.9-4.05.23-10.9,6.63-13.2,6.14.72,8.27,6.07,11.61,10.05.75.96,1.44,1.96,2.11,2.99,3.33,5.63,7.37,10.79,10.75,16.39,5.73,11.5,12.87,22.43,14.63,35.56v-.04c3.19,6.96,9.95,9,16.22,11.73,9.46,3.2,19.64,4.88,26.82,12.82,1.41,1.27,2.7,2.78,4.92,2.41,3.51.83,7.05,1.61,10.05,3.79,4.61,2.97,9.57,5.41,13.84,8.9,1.66,1.59,3.97,2.24,5.64,3.82,1.66,1.48,3.48,2.76,5.36,3.94,2.4,1.44,3.19,4.14,4.84,6.16l.02.02c5.68,3.66,11.77,6.79,16.04,12.28,1.72,2.2,4.81,3.79,3.55,7.43Z" fill="#070707" stroke-width="0"/><path d="M188.4,684.91c-1.26,1.74-2.51,3.48-3.77,5.22-1.01,3.19-2.38,6.19-4.68,8.69-5.54,5.8-9.91,12.65-16.04,17.9-2.62,2.25-4.73,5.61-8.97,4.53-.17-.14-.44-.29-.63-.51-.18-.21-.29-.5-.42-.75-3.5,7.8-11.84,6.59-17.89,8.33-5.81,1.67-8.15-4.33-7.9-10.08,1.13-26.68.18-53.37.54-80.05.15-10.68-.63-21.35-.19-32.01.13-3.09-1.11-7.78,5.01-6.45,2.66,4.03,1.89,8.6,1.9,12.99.07,31.75,0,63.5.09,95.24,0,3.13-1.01,6.5,1.52,9.76,8.56-4.82,12.65-14,19.79-20.04,11.24-11.34,20.75-24.08,29.71-37.25,1.27-2.01,2.83-3.85,3.94-5.94,9.22-17.28,20.84-32.09,38.88-41.25,11.32-5.75,16.24-17.72,23.77-27.13,6.53-2.18,9.99,1.44,12.6,6.68.3.77.43,1.57.4,2.4-.26,1.62-.93,3.09-1.63,4.56-2.44,5.55-5.98,10.3-10.48,14.34-1.42,1.4-2.84,2.81-4.23,4.25-4.36,4.23-8.35,8.88-13.6,12.11-.94.72-1.92,1.39-2.92,2.03-3.8,2.59-8,4.54-11.7,7.29-3.14,2.95-5.16,6.67-7.2,10.38-5.87,9.65-12.41,18.85-18.82,28.13-1.9,2.74-4.2,4.96-7.07,6.63Z" fill="#090909" stroke-width="0"/><path d="M156.07,729.61c3.28,9.1,2.08,12.09-6.28,14.42-4.77,1.33-4.43,4.91-4.43,8.47-.02,17.8-.18,35.6.09,53.4.09,6.04-1.54,11.7-2.59,17.47-.49,2.71-1.47,7.08-6.44,4.59-2.49.21-5.79-2.86-7.17,1.79-3.58,0-7.16,0-10.73,0-1.07-1.86-1.04-4.44-3.56-5.34,0-5.28,0-10.57,0-15.85,0-65.03-.08-130.07.12-195.1.02-7.21-.14-13.29-9.06-14.4,1.82-3.25,3.12-6.75,5.25-9.88,1.54-2.26,3.22-2.14,5.33-1.55,4.83,3.1,4.49,7.98,4.49,12.78-.09,68.53-.03,137.06-.02,205.6,0,3.25-.46,6.58.73,9.74.67,1.78,1.99,3.13,3.94,3.12,2.05-.01,3.03-1.62,3.56-3.43.84-2.9.77-5.9.77-8.87.03-17.28.34-34.57-.11-51.84-.25-9.67,2.91-16.79,11.43-21.4q5.99-.63,8.08,5.18c3.77-1.79,1.8-7.87,6.62-8.88Z" fill="#fefefe" stroke-width="0"/><path d="M7.83,461.36c2.71-.92,5.11-.66,6.95,1.79.31.25.62.5.94.74,1.42,2.39,3.01,4.71,3.57,7.51.07,2.99.18,6.45,3.85,6.85,8.86.95,12.75,7.14,16.13,14.11,2.66,4.55,5.17,9.19,8.73,13.14,6.81,9.76,14.87,18.41,23.51,26.55,2.1,2.27,3.94,4.67,4,7.96-.34,5.23-4.1,7.42-8.24,9.29-4.26.63-6.18-2.16-7.82-5.36-.68-.69-1.36-1.37-2.04-2.06-6.67-2.86-9.72-9.5-14.69-14.13-5.08-6.33-9.55-13.13-14.68-19.42-3.34-5.76-5.71-12.49-13.65-13.69-4.91-2.37-9.08-5.54-11.45-10.64.14-3.99-3.22-7.77-.74-11.91.11-.57.22-1.15.33-1.72.68-3.65.05-8.07,5.31-9.02Z" fill="#0a0a0a" stroke-width="0"/><path d="M374.58,517.51c1.81-1.99,3.63-3.98,5.44-5.96,2.93-.66,4.22,1.03,4.97,3.48.94,1.87.73,4.02,1.19,5.85,1.59,6.27-.51,8.91-6.66,7.95-6-.94-7.49,2.07-7.02,7.07.59,6.25-1.53,8.76-8.15,7.37-4.46-.93-8.5-1.06-6.47,6.38,1.71,6.26-2.8,9.33-8.99,6.87-4.87-1.94-8.84,2.02-13.7,1.33-8.58-1.21-5.76,6.47-7.52,10.68-.49,1.18,1.9,5.08-2.1,3.56-5.4-2.06-10.48,1.09-15.71.17-.6-.66-.95-1.43-1.03-2.32.1-.85.4-1.63.91-2.32,2.45-.87,2.83-2.59,1.46-6.67.73-2.86,3.33-3.17,5.49-3.9,18.91-6.41,35.33-16.61,48.58-31.67,3.23-2.46,5.3-6.29,9.28-7.86Z" fill="#fcfcfc" stroke-width="0"/><path d="M213.27,150.29c-3.52-3.73-7.05-7.46-10.57-11.19-3.66-.18-5.53-3.1-7.87-5.24-11.31-10.35-17.64-10.79-30.4-1.98-6.06,3.39-8.34,12.22-17.01,11.84,2.42-5.43-6.92-9.24-2.07-15.01,5.19.53,10.9,3.11,14.29-3.57.39-1.19.4-2.37.01-3.56-.59-1.2-1.19-2.39-1.78-3.59,3.77-3.41,8.41-.74,12.52-1.79,8.44-4.88,17.17.64,25.8-.43,1.36-.17,4.88,3.8,3.83,7.93-.61,2.41-.38,6.54,3.32,5.66,14.43-3.44,10.75,5.49,9.42,13.03-.03.17.36.42.56.63,3.52,2.44,3.98,4.86-.04,7.25Z" fill="#f5f5f5" stroke-width="0"/><path d="M442.02,302.86c-23.46-7.25-47.44-10.35-71.92-8.41-5.67.45-7.87-2.74-10.28-6.49,3.35-2.19,7.13-1.9,10.87-1.85,4.93,3.29,10.33,1.47,15.56,1.44,3.57-1.94,7.84,1.6,11.28-1.44,6.56,1.6,13.12-.03,19.67,0,1.15.04-1.34,3.71,1.78,1.78,1.79-.59,3.58-1.19,5.37-1.78,5.09,3.08,10.68,1.64,16.1,1.79q2.84-.12,1.79,7.16c-3.91.37-6.93-2.59-9.95-2.67-1.87-.5-.63,1.62-.73.44,6.32.39,10.74,2.76,10.46,10.03Z" fill="#f6f6f6" stroke-width="0"/><path d="M7.83,461.36c-1.77,3.01-3.54,6.02-5.31,9.02-3.25-13.61-1.57-27.46-2.05-41.21,3.03-.98,2.76-3.06,1.79-5.37-3.23-4.75-2.18-7.79,3.57-8.94,2.98,3.61,5.96,2.11,8.94,0,4.77,0,9.54,0,14.31-.01.99.21,1.62.8,1.81,1.81-.94,3.05-1.29,6.57-5.7,6.7-12,.37-17.73,7.99-21.11,18.31-1.87,2.54-.7,5.43-.88,8.16-.08,1.17.48,1.81.28.63,0-.05.5-.18.76-.28,1.78,3.54,3.57,7.07,3.58,11.17Z" fill="#f5f5f5" stroke-width="0"/><path d="M401.34,470.33c2.34-8.48,4.75-16.94,6.99-25.44,1.05-4.01,4.11-6.2,7.04-8.58,5.76,1.07,6,3.55,1.84,7.17-1.15-.08-3.7-1.48-2.9.91,1.85,5.54.95,11.06,1.04,16.57.2,11.55-2.53,13.28-14,9.38Z" fill="#fcfcfc" stroke-width="0"/><path d="M417.2,443.48c1.86-3.02,1.91-5.58-1.84-7.17,7.11-9.05,14.23-18.1,21.34-27.15,6.87,11.53,6.2,15.07-3.41,18.23-2.26,1.31-5.05,2.6-4.37,5.73,2.35,10.73-4.9,10.22-11.72,10.35Z" fill="#f2f2f2" stroke-width="0"/><path d="M156.53,720.88c8.76-6.8,14.53-16.42,22.59-23.88,3.95,2.08,2.43,5.1,1.54,8.16-.93,3.18,2.23-.59,2.24,1.21.98,1.19,1.14,2.38,0,3.57-1.4,1.46-2.73,4.08-4.2,4.16-5.61.3-7.81,2.04-7.69,8.29.14,7.42-5.5,4.59-9.58,3.69-1.92.53-3.95.22-5.87.77-1.29-.42-2.01-1.32-2.21-2.65.18-1.94,1.38-2.91,3.17-3.32Z" fill="#f2f2f2" stroke-width="0"/><path d="M241.88,203.92c-5.43-11.74-10.87-23.48-16.3-35.22-1.15-3.78-1.25-7.05,3.83-7.75-.94,7.08-.17,12.64,9.28,11.61,5.48-.6,5.1,3.57,5,7.11-.24,8.11-.14,16.25-1.8,24.26Z" fill="#fefefe" stroke-width="0"/><path d="M188.4,684.91c8.25-12.04,16.49-24.07,24.74-36.11,3.25,1.82,2.96,4.56,1.96,7.49-.23,3.08-.77,6.17-.63,9.23.21,4.77-1.73,7.06-6.53,6.87-1.19-.87-2.38-2.86-3.57,0-1.98.24-3.68,1.13-3.45,3.29,1.1,10.35-4.68,11.13-12.52,9.24Z" fill="#f4f4f4" stroke-width="0"/><path d="M15.17,493.39c9.42-.27,11,7.6,14.26,13.73,1.11,3.64-3.09,2.45-3.93,4.32-2.22,3.7-6.07,3.65-9.13,2.6-2.98-1.02-2.07-4.95-1.42-7.06,3.04-9.92-6.05-5.48-9.12-8.06,1.01-5.4,4.28-6.98,9.34-5.53Z" fill="#fefefe" stroke-width="0"/><path d="M349.19,277.18c-5.37-7.72-13.66-12.54-19.59-19.71,4.16,1.59,8.33-.38,12.49.03,8.86.65,10.54,7.6,12.51,14.28,6.32,3.16,3.17,7.16.98,11.08-2.13-1.89-4.26-3.78-6.39-5.68Z" fill="#fcfcfc" stroke-width="0"/><path d="M284.92,228.43c-8.99-3.96-17.98-7.93-26.96-11.89-.46-.45-.61-.9-.44-1.33.17-.43.34-.65.5-.65,5.81,0,11.62.08,17.42,0,12.24-.18,13.55,1.7,9.48,13.88Z" fill="#f4f4f4" stroke-width="0"/><path d="M309.88,568.66c0,.6,0,1.19,0,1.79-5.78,2.46-12.12-.76-17.89,1.79h-12.52c-1.93,1.71-4.53,2.38-6.31,4.41-2.05,2.33-3.42.98-4.36-1.29-.83-10.59.71-12.7,11.04-12.81,6.08-.06,12.11-2.26,18.22-.47.52.29,1.27.63,1.28,1.07.08,2.15-1.3,5.1,3.28,3.54,2.43-.83,5.25-.23,7.25,1.98Z" fill="#f6f6f6" stroke-width="0"/><path d="M443.57,398.58c4.19-7.14,8.38-14.28,12.57-21.42,4.98,6.65,2.59,14.68,1.14,20.95-1.16,5-8.87,1.75-13.71.47Z" fill="#fcfcfc" stroke-width="0"/><path d="M472.35,337.12l-.17-.57.46-.37c5.01-1.99,4.64-6.08,4.07-10.3-.42-3.1-2.19-6.15-.51-9.37,2.99-1.47,6.28-3.17,9.05-.26,2.98,3.14,2.86,8.05.94,10.87-2.84,4.16-2.77,8.24-2.81,12.63-2.27,4.12-5.7,2.47-8.94,1.79-3.74-.04-2.36-2.5-2.09-4.43Z" fill="#fcfcfc" stroke-width="0"/><path d="M229.4,160.94c-2.51,1.98-3.35,4.77-3.83,7.75-3.68-5.51-7.37-11.01-11.05-16.52,2.12-.63,1.39-2.19,1.47-3.72.08-1.51-.87-4.43,2.67-3.63,5.81-2.68,10.57-3.28,10.73,5.36-.35,1.59-2.54-1.81-2.19.68.31,2.21.02,4.82,2.2,6.47,0,1.21,0,2.41,0,3.62Z" fill="#f5f5f5" stroke-width="0"/><path d="M258.01,214.57c-.02.66-.04,1.32-.06,1.98-7.05-2.07-16.08-1.65-16.09-12.67,2.71-1.64,4.63-7.17,8.76-1.02,1.45,2.15,3.39-2.91,6.33-1.66.34,4.3.7,8.83,1.06,13.37Z" fill="#fefefe" stroke-width="0"/><path d="M76.12,415.13c-3.62,2.23-6.69,2.52-9.61-1.47-3.43-4.69-9.15-5.76-14.19-7.81-.61-2.15-9.58,1.31-3.55-5.29,4.17.59,8.35,1.17,12.52,1.76,2.37-.62,5.12.3,7.13-1.77,2.34.05,3.53,1.25,3.6,3.58,2.07,3.4,1.89,7.64,4.09,11Z" fill="#f2f2f2" stroke-width="0"/><path d="M25.5,511.44c-4.62-6.84,4.18-1.46,3.93-4.32,4.84,6.6,10.94,12.32,14.09,20.11.45.49.58.97.4,1.42-.18.45-.35.67-.52.67-1.73,0-3.49-.22-5.18.03-7.08,1.05-10.33-1.65-9.12-8.96.82-.46,1.51-.35,2.01.49.64-.66.21-1.9-2.02-5.87-1.2-1.19-2.4-2.38-3.59-3.58Z" fill="#f3f3f3" stroke-width="0"/><path d="M388.02,498.69c3.58-7.15,7.15-14.29,10.73-21.44,5.2,6.99,2.06,14.87,1.06,21.95-.34,2.42-7.72,1.16-11.79-.51Z" fill="#fcfcfc" stroke-width="0"/><path d="M215.09,656.29c-.65-2.5-1.31-4.99-1.96-7.49,1.75-3.92,3.12-8.09,7.08-10.52,4.29-.59,5.46,2.98,7.4,5.53.28,8.63-3.92,12.76-12.52,12.47Z" fill="#fefefe" stroke-width="0"/><path d="M76.12,415.13c-6.63-1.71-4.62-6.63-4.09-11,.59,0,1.19,0,1.78,0q13.38,0,12.38,12.88c-3.36-.63-6.71-1.26-10.07-1.89Z" fill="#fefefe" stroke-width="0"/><path d="M234.58,629.38c4.88-4.02,9.76-8.03,14.64-12.05,2.05-.17,4,.37,5.98.74.34.21.68.44,1.02.66,1.59,10.29-6.06,9.82-12.51,10.75-1.22.79-2.03,1.97-2.96,3.05-1.27,1.48-2.39,3.62-4.76,2.78-3.25-1.14-.74-3.98-1.41-5.93Z" fill="#f2f2f2" stroke-width="0"/><path d="M113.67,588.07c-3.26,2.74,1.1,2.96,1.49,4.5,0,0-3.65,3.47-3.65,3.47-1.04,2.47-4.63.28-5.52,3.02-5.05.89-5.14-2.94-4.79-5.87.4-3.35.53-6.18-2.36-8.42,1.76-1.7,3.15-3.9,5.87-4.29,4.16,1.14,8.09,2.55,8.96,7.59Z" fill="#f1f1f1" stroke-width="0"/><path d="M433.29,427.4c9.61-4.49,4.88-11.67,3.41-18.23,1.63-2.35,3.25-4.71,4.88-7.06,3.83,7.52,3.06,15.78,1.98,23.43-.6,4.26-6.09,4.88-10.27,1.87Z" fill="#fcfcfc" stroke-width="0"/><path d="M354.6,271.78c-1.08.03-2.17.07-3.25.1,1.95-8.04-5.04-10.32-9.26-14.38,1.64-.57,3.29-1.64,4.92-1.62,3.95.06,8.6-1.82,11.63,1.77,3.51,4.16-1.97,6.58-2.82,9.97-.35,1.4-.81,2.77-1.21,4.16Z" fill="#fefefe" stroke-width="0"/><path d="M476.2,316.52c2.32,6.24,4.25,12.24,2.04,19.26-2.11,6.71-3.73,1.13-5.61.4,1.42-7.97.06-15.22-5.49-21.41,1.8-3.63,3.65-1.68,5.49-.04,1.19.59,2.37,1.19,3.56,1.78Z" fill="#f2f2f2" stroke-width="0"/><path d="M98.85,581.22c-7.46,6.79-9.48,6.15-11.8-3.49-.46-1.91-.36-4.26-2.49-5.49-.87-2.06.29-3.27,1.81-4.33,7.43.04,11.13,5.33,14.85,10.59-.13,1.48-1,2.32-2.37,2.72Z" fill="#f1f1f1" stroke-width="0"/><path d="M463.78,312.44c-5.56-2.72-11.13-5.44-16.69-8.16,1.1-4.19,6.08-.65,7.68-3.85,5.37.55,10.74,1.93,16.11,0,2.24,6.73-3.55,8.71-7.1,12.02Z" fill="#f0f0f0" stroke-width="0"/><path d="M270.69,577.61c1.71-3.78,2.66-8.82,8.79-5.37,0,3.2-.07,6.4,0,9.59.11,4.94-2.55,6.75-7.12,6.5-2.88.84-4.74.01-5.19-3.16-.08-3.1.58-5.87,3.52-7.56Z" fill="#fefefe" stroke-width="0"/><path d="M86.53,568.15c-.66,1.36-1.32,2.72-1.98,4.08-1.46,0-2.93-.14-4.37.03-5.58.65-9.09-.38-7.63-7.36.56-2.66-.4-5.64-.67-8.48.37-.22.74-.45,1.11-.68,5.87,2.66,11.93,5.11,13.55,12.41Z" fill="#fefefe" stroke-width="0"/><path d="M313.47,244.95c-4.76-2.99-9.52-5.97-14.28-8.96.2-.22.4-.45.6-.67,1.3-2-.37-5.36,2.94-6.44,3.85,2.55,10.23-.83,12.52,5.36-1.88,1.79-1.87,3.58,0,5.38.01,1.19.02,2.38.04,3.57-.22.98-.81,1.58-1.81,1.76Z" fill="#f4f4f4" stroke-width="0"/><path d="M252.84,613.44c3.48-4.87,6.96-9.75,10.44-14.62,2.63,2,6.62,3.22,3.06,8.01-.64.86,5.1,2.87,2.4,6.52-1.79.61-3.58,1.21-5.36,1.82-1.79-1.1-3.58-1.94-5.37,0-.03,1.47-.33,2.8-1.77,3.57,0,0,.01,0,.01,0-2.2-1.08-3.66-2.64-3.4-5.3Z" fill="#f2f2f2" stroke-width="0"/><path d="M43.39,529.32c.04-.7.08-1.39.12-2.09,6.04,3.55,10.18,8.9,13.89,14.66-11.39,3.21-14.01.86-14.01-12.57Z" fill="#f1f1f1" stroke-width="0"/><path d="M234.58,629.38c2.3.84,1.07,2.98,1.63,4.55,3.72.53,2.42-7.45,7.51-4.45,0,1.44-.16,2.9.02,4.32.74,5.87-.73,8.83-7.41,6.54-2.07-.71-4.57-.14-6.88-.15-1.04-3.93,1.96-6.48,3.28-9.6.62-.4,1.24-.81,1.86-1.21Z" fill="#fefefe" stroke-width="0"/><path d="M472.35,337.12c.33,1.65.41,3.41,2.09,4.43-4.04,6.68-3.58,14.11-3.57,21.47-3.11.11-4.91,6.99-9.05,1.75,3.51-9.21,7.02-18.43,10.53-27.64Z" fill="#f2f2f2" stroke-width="0"/><path d="M15.17,493.39c-3.89.54-6.62,3.03-9.34,5.53-9.53-1.78-4.77-7.68-3.62-12.54.23-1.26.94-2.08,2.19-2.42,2.9,3.93,6.86,6.66,10.78,9.43Z" fill="#f0f0f0" stroke-width="0"/><path d="M43.6,406.51c-2.8,1.67-5.59,3.34-8.39,5.01-2.07.75-4.14,1.43-6.12-.22q1.91-11.25,14.31-7.16c.85.72.91,1.51.2,2.37Z" fill="#f2f2f2" stroke-width="0"/><path d="M154.35,724.5c.59.51,1.17,1.02,1.76,1.53.59.4.79.79.6,1.19-.2.4-.39.6-.59.6-.03.59-.05,1.19-.05,1.79.12,5.13-2.93,10.47-6.37,11.47-4.61,1.34.14-6.62-4.28-7.86.07-5.88,3-8.84,8.93-8.71Z" fill="#eaeaea" stroke-width="0"/><path d="M182.9,706.36c-2.01,1.44-4.03,2.88-7.17,5.12,1.8-5.58,6.32-9.35,3.39-14.49,1.84-2.29,3.67-4.58,5.51-6.87,2.4,5.73,3.78,11.35-1.73,16.24Z" fill="#fefefe" stroke-width="0"/><path d="M268.73,613.35c-3.48-4.22-3.12-9.88-5.45-14.53.05-1.37-.19-2.86,1.55-3.47,6.85-1.44,6.25,2.95,5.7,7.3-.07,3.66,5.1,8.2-1.8,10.71Z" fill="#fefefe" stroke-width="0"/><path d="M454.77,300.42c.83,2.09,1.28,4.2-2.11,3.21-2.09-.61-3.8-.33-5.57.64-1.7-.44-3.75.39-5.06-1.41-1.81-6.13-6.54-8.8-13.66-10.11,6.26-2.74,9.89.66,13.87,2.31,1.99,6.89,7.66,5.2,12.53,5.36Z" fill="#fcfcfc" stroke-width="0"/><path d="M59.44,543.95c3.4.31,4.14,4.25,7.1,5.17.38.12.75.24,1.13.36.97.81,1.46,1.82,1.35,3.1-.86,3.02-3.87,3.67-5.94,5.36-9.82-2.42-3.71-8.99-3.64-13.99Z" fill="#f1f1f1" stroke-width="0"/><path d="M461.82,364.76c3.7,2.95,5.21-5.39,9.05-1.75,1.72,4.82,1.24,3.71-2.49,5.34-3.25,1.42-6.29,3.11-9.86,3.59.56-2.65,1.45-5.14,3.31-7.19Z" fill="#fcfcfc" stroke-width="0"/><path d="M232.72,630.59c-1.09,3.2-2.18,6.4-3.28,9.6.88,1.96,1.28,3.67-1.83,3.62-4.08.31-4.81-3.85-7.4-5.53,4.17-2.56,8.34-5.13,12.5-7.69Z" fill="#f2f2f2" stroke-width="0"/><path d="M100.63,423.81c-1.23,1.26-2.45,2.51-3.68,3.77-2.15-3.81-6.49-6.1-7.47-10.73,2.37-1.2,4.77-2.28,7.54-1.98-1.31,3.47,3.14,3.09,3.59,5.38,0,1.18,0,2.37.01,3.55Z" fill="#ebebeb" stroke-width="0"/><path d="M463.78,312.44c.73-4.97,7.13-6.6,7.1-12.02,4.77,4.26-2.05,9.94,1.77,14.32-1.82.99-3.67-2.14-5.49.04-1.12-.78-2.25-1.56-3.37-2.34Z" fill="#fcfcfc" stroke-width="0"/><path d="M323.36,252.38c-2.08-.61-3.57-1.96-4.73-3.73-.05-2.72,1.82-4.12,3.78-5.46,3.85.85,9.79.14,5.37,7.18-.92,1.88-2.23,2.93-4.42,2.01Z" fill="#f0f0f0" stroke-width="0"/><path d="M270.53,602.64c-.6-3.45-1.37-6.77-5.7-7.3.18-.55.21-1.11.06-1.68-.22-3.19-.87-6.61,3.84-7.16,1.21.61,2.41,1.22,3.62,1.82-3.68,4.38,3.13,10.09-1.82,14.31Z" fill="#f2f2f2" stroke-width="0"/><path d="M440.45,287.9c-5.71,2.52-11.32,4.04-16.1-1.79,5.39.4,11-1.2,16.1,1.79Z" fill="#fcfcfc" stroke-width="0"/><path d="M170.38,116.21c.21,1.36,1.82,3.95-1.57,2.72-3.66-1.33-7.31-.65-10.95-.93,3.39-6.08,7.93-4.08,12.52-1.79Z" fill="#fefefe" stroke-width="0"/><path d="M14.78,414.87c.52,1.71,1.33,3.43-1.71,3.6-3.15.18-6.28.66-9.79,1.05.92-1.67,1.74-3.16,2.56-4.65,2.98,0,5.96,0,8.94,0Z" fill="#fefefe" stroke-width="0"/><path d="M229.41,157.33c-6.82-1.22-.88-8.11-6.98-10.29,5.38-1.28,4.85,2.72,6.97,3.15,0,2.38,0,4.76,0,7.14Z" fill="#fefefe" stroke-width="0"/><path d="M218.67,144.83c-2.11,1.42-1.69,3.2-.99,5.26,1.48,4.31-1.79,1.84-3.15,2.1l-1.26-1.89c1.67-2.41,1.7-4.82.04-7.25,1.96.06,4.07-.31,5.36,1.79Z" fill="#fefefe" stroke-width="0"/><path d="M4.39,483.96c-.73.81-1.46,1.61-2.19,2.42-.93-4.76-3.42-9.51-.01-14.27.73,3.95,1.47,7.9,2.2,11.85Z" fill="#fefefe" stroke-width="0"/><path d="M322.41,243.19c-1.26,1.82-2.52,3.64-3.78,5.46-1.72-1.23-3.44-2.46-5.16-3.7.6-.59,1.21-1.17,1.81-1.76,2.38,0,4.75,0,7.13,0Z" fill="#fefefe" stroke-width="0"/><path d="M386.79,287.9c-5.63,1.8-11.4,4.82-16.1-1.79.6,0,1.2,0,1.79,0,4.26,2.07,8.82.28,13.19,1.03.37.25.75.5,1.12.76Z" fill="#fefefe" stroke-width="0"/><path d="M299.19,235.99c-3.12-1.72-6.24-3.44-9.35-5.15,2.46-1.85,5.02-.35,7.54-.2,4.02.14,2.41,2.85,2.25,4.91l-.43.45Z" fill="#f4f4f4" stroke-width="0"/><path d="M292,572.24c5.66-3.65,11.95-.96,17.89-1.79v1.79h-17.89Z" fill="#fefefe" stroke-width="0"/><path d="M63.08,557.94c1.25-2.5,3.1-4.37,5.68-5.5,1.59-.52,2.66.29,3.61,1.42.3.67.29,1.34-.04,1.99,0,0-.45.56-.45.56-2.79,1.35-5.74,1.73-8.8,1.52Z" fill="#fefefe" stroke-width="0"/><path d="M29.09,515.01c5.46,1.4,2.38,6.42,4.91,9.74-4.01.1-2.68-3.88-4.91-4.35,0-1.79,0-3.59,0-5.38Z" fill="#fefefe" stroke-width="0"/><path d="M43.6,406.51c-.07-.79-.13-1.58-.2-2.37.17-3.63,2.77-3.61,5.37-3.58-2.67,4.35,3.03,3.08,3.55,5.29-2.91.22-5.82.44-8.73.65Z" fill="#fefefe" stroke-width="0"/><path d="M385,515.02c-1.66-1.16-3.31-2.32-4.97-3.48.82-2.25,1.69-4.45,4.73-4.21-.55,2.58,3.44,5.02.24,7.69Z" fill="#e8e8e8" stroke-width="0"/><path d="M299.63,235.55c-.62-1.7-.27-3.84-2.25-4.91,1.29-2.08,3.4-1.7,5.36-1.76-.37,1.35-1.35,2.9-.99,4.01.92,2.83,1.16,2.75-2.12,2.66Z" fill="#fefefe" stroke-width="0"/><path d="M114.95,824.42c7.29-2.29,5.08,1.75,3.56,5.34-3.63-.15-3.59-2.75-3.56-5.34Z" fill="#eee" stroke-width="0"/><path d="M129.24,829.76c.02-2.61,1.21-4.93,3.51-5.65,2.91-.91,1.35,3.53,3.66,3.86-1.75,3.15-5.23-.61-7.17,1.79Z" fill="#efefef" stroke-width="0"/><path d="M397.52,286.11c-2.56,6.75-7.45-.54-10.74,1.79h0c-.59-.39-.78-.79-.59-1.19.19-.4.39-.6.58-.6h10.74Z" fill="#fcfcfc" stroke-width="0"/><path d="M386.78,286.11c0,.6,0,1.19,0,1.79-4.74-.79-9.91,1.79-14.31-1.79,4.77,0,9.53,0,14.3,0Z" fill="#f6f6f6" stroke-width="0"/><path d="M2.26,423.81c2.19,1.77,3.75,3.98,1.88,6.61-1.91,2.66-2.21-1.4-3.66-1.24.6-1.79,1.19-3.58,1.79-5.37Z" fill="#fefefe" stroke-width="0"/><path d="M98.85,581.22c.76-.69,1.53-1.38,2.29-2.07,1.94-.49,3.79-.87,3.01,2.26-1.08,2.2-2.81,3.38-5.29,3.37,0-1.19,0-2.37,0-3.56Z" fill="#fefefe" stroke-width="0"/><path d="M485.68,332.71c.84,3.36,2.42,6.9-2.32,10.72,1.01-4.65,1.66-7.69,2.32-10.72Z" fill="#fcfcfc" stroke-width="0"/><path d="M182.9,709.94c0-1.19,0-2.38,0-3.57,2.25,1.17,4.11,2.59,2.53,5.44-.39.71-.51,2.82-2.07,1.46-.64-.55-.33-2.19-.46-3.33Z" fill="#fefefe" stroke-width="0"/><path d="M29.09,411.3c2.04.07,4.08.15,6.12.22-1.43,1.72-2.87,3.43-4.3,5.15-.6-.6-1.21-1.21-1.81-1.81,0-1.19,0-2.37,0-3.56Z" fill="#fefefe" stroke-width="0"/><path d="M323.36,252.38c1.47-.67,2.95-1.34,4.42-2.01,1.21,2.21,2.05,4.51,1.79,7.09-2.58-1.08-4.62-2.8-6.22-5.08Z" fill="#fefefe" stroke-width="0"/><path d="M68.43,400.56c-1.62,3.63-4.24,3.27-7.13,1.77,1.88-2.59,4.67-1.51,7.13-1.77Z" fill="#fefefe" stroke-width="0"/><path d="M100.62,420.26c-1.84-1.36-5.72-1.37-3.59-5.39,3.67.15,3.64,2.76,3.59,5.39Z" fill="#fefefe" stroke-width="0"/><path d="M418.98,287.89c-1.12,2.66-3.51,3.93-5.11,1.51-1.48-2.25,3.19-1.07,3.32-3.29.59.59,1.19,1.19,1.78,1.78Z" fill="#fcfcfc" stroke-width="0"/><path d="M204.36,672.38c.13-2.18-.41-4.6,2.45-6.15.39,2.14.75,4.14,1.12,6.15h-3.57Z" fill="#fefefe" stroke-width="0"/><path d="M159.64,121.59c.93.46,2.54.77,2.67,1.4.41,1.95-1.38,1.91-2.68,2.16-1.82-1.19-1.8-2.38.01-3.56Z" fill="#fefefe" stroke-width="0"/><path d="M257.99,615.16c-1.44-1.09-.84-2.21.4-2.48,2.14-.47,3.76.76,4.98,2.48-1.79,0-3.58,0-5.37,0Z" fill="#fefefe" stroke-width="0"/><path d="M315.24,239.62c-2.35.19-2.6-1.12-2.61-3.11,0-2.07,1.14-2.2,2.61-2.27,0,1.79,0,3.59,0,5.38Z" fill="#fefefe" stroke-width="0"/><path d="M156.12,727.82c0-.6,0-1.19,0-1.79,1.79-1.12,3.56-1.11,5.32.05-.42,4.69-3.58,1.05-5.32,1.74Z" fill="#fefefe" stroke-width="0"/><path d="M229.14,211.03c1.58,2.48,2.3,5.2,2.31,8.13,1.47,3.43.04,6.99.49,10.54.74,5.83,4.71,7.79,9.25,9.56,4.44,1.74,7.35-.08,9.64-3.85,1.08-1.78,2.66-3.84,4.94-2.99,4.55,1.7,5.32,8.77,13.24,7.01,4.8-1.07,10.53,4.52,15.14,8.33.46.38.96.72,1.32,1.19,2.77,3.57,1.12,5.74-.78,6.85,14.15-3.94,18.06-1.91,19.88,11.58,10.06-1.39,14.82,1.13,15.45,8.16-1.2,1.98-3.21,4.2-1.25,6.33,1.62,1.75,3.69-.92,5.69-.79,1.26-.08,2.45.17,3.54.81,1.86,1.62,3.32,3.8,3.44,6.06.33,6.69,2.59,10.58,10.16,10.88,4.21.17,5,4.37,4.91,8.22-.1,4.55,2.3,4.8,5.71,3.16,14.35,1.04,28.7,2.12,43.08,2.05,8.25-.04,16.48-.37,24.69.69,1.8-.1,3.49.82,5.22.8,5.66-.07,8.28,3.26,8.11,8.24-.19,5.59-3.13,9.51-9.41,9.6-10.88.14-21.82,1.5-32.52-1.86,1.15.52-.44.19-.2.23,6.02,1.12,10.74,2.81,2.06,7.44-3.97,2.12-8.08,3.54-10.05,7.97-.71,1.06-1.61,1.89-2.87,2.26-1.55,1.13-2.48-3.04-3.97-.61-1.59,2.59-1.64,5.43-.25,8.27,1.78,3.66,3.64-2.29,5.38.09.59.6,1.01,1.3,1.25,2.11.69,4.13-3.02,10.31,5.16,10.93,3.59,3.76,4.72,8.25,3.96,13.3-3.42,3.96-.19,8.82-1.72,13.18-.65,1.87,2.26,3.16,3.76,2.31,4.83-2.73,9.16.2,13.69.6,10.25.9,11.28,2.4,9.65,13.6-1.22,3.99-4.74,6.03-7.44,8.76-3.27.92-3.05-2.1-4.21-4.09-3.03,4.04-1.05,8.85-2.84,12.78-2.35,3.08-4.71,6.16-7.06,9.24-4.48.73-4.16-2.61-4.91-5.39.31,5.93-1.07,11.69-1.13,17.65-.1,9.75-5.32,12.55-14.41,8.49,1.85,1.02,3.62,2.09,3.59,4.58-.15.82-.54,1.52-1.17,2.07-.51.99-3.98-1.11-2.3,2.35.91,1.87.14,4.01-.27,6-.5,2.34.11,4.52,1.05,6.64.61,1.51,1.11,3.04.77,4.71-.48,1.14-1.7,1.56-2.41,2.38-3.42,3.94-13.53-3.19-12.59,7.44.47,5.32-2.05,10.82,1,15.96.03,1.79-.58,3.37-1.53,4.85-.77,1.07-1.77,1.82-3.04,2.2-.57.13-1.15.22-1.73.19q-8.76-.38-6.83,7.66c-1.05,2.52-3.05,4-5.47,5.04-5.34,2.21-11.01.05-16.53,1.34-5.37,1.25-10.37,1.89-10.06,9.2.07,1.68-1.57,3.06-3.05,4.12-.73.44-1.52.69-2.36.81-6.19-.09-12.68-.8-18.44,1.2-5.89,2.04-10.26-2.11-15.48-1.84-6.9.35-7.52-4.9-9.17-9.76-1.81-5.34-7.69-3.26-11.48-5.14-.78-.35-1.44-.86-2.02-1.49-1.44-6.7-3.02-13.23-12.45-10.05-1.81-.27-3.16-1.13-3.78-2.94,1.35-8.48-2.47-12.54-11.06-12.85-8.79-.32-17.54-.37-26.28.71-2.72.14-5.18-.38-6.88-2.76,2.22-7.38.12-10.56-7.88-12.5-4.62-1.12-8.81.44-13.12,1.5-4.3-1.42-8.11-3.43-10.86-7.31-5.56-7.84-12.74-10.63-21.88-6.25-3.87.14-6.62-1.55-8.3-5.03-1.68-12.4-.66-24.86-.74-37.29-.17-25.51-.09-51.02.11-76.53.02-2.57-1.93-6.06,1.96-7.82,2.67-.58,4.81.41,6.67,2.23,3.9,1.91,7.8,2.6,11.68-.06.93-4.69,3.25-8.91,4.58-13.48,3.6-12.43.93-22.87-9.25-31.17-2.28-1.86-4.89-3.45-6.15-6.33-3.96-21.8-2.59-43.82-2.69-65.79-.02-5.75,2.89-8.62,8.46-9.52,10.41-1.68,20.75.46,31.14.3,5.52-.08,10.59-3.95,16.51-1.34,1.62.72,2.4-2.2,2.02-4.04-.66-3.18-1.1-6.4-1.83-9.55-1.22-2.05-2.37-4.73.61-5.55,2.09-.58,3.02,2,2.99,2.53-.41-2.96-1.66-7.68-.27-10.49-.19.66-.34,3.46-2.19,5.44-2.2,2.35-3.43,4.73-1.33,7.76.78,3.15,1.19,6.37-2,8.37-2.57,1.61-4.32.21-5.24-2.41-.84-10.34-1.17-20.75-3.96-30.84-.87-6.72-1-13.47-.65-20.24.14-2.67.26-4.95-3.56-5.84-11.12-2.57-12.98-5.44-12.33-17,1.11-2.51,2.87-4.18,5.72-4.47,3.83,1.36,7.79,1.79,11.84,1.6,5.97,1.73,10.01,5.47,11.95,11.42,1.86,2.81,3.71,5.61,5.57,8.42,1.54,3.43-.32,7.76,2.93,10.76.65.6.69,1.56.62,2.47q-.71,8.78,7.29,7.08c2.66,6.02,3.97,12.3,3.96,18.91,0,6.01,4.96,10.85,11.48,11.61Z" fill="#fefefe" stroke-width="0"/><path d="M46.71,506.71c-3.84-3.74-6.64-8.17-8.71-13.09-.59-4.25,1.77-3.98,4.59-2.98-2.61-4.4-12.18-5.05-7.27-13.49,2.21.45,3.36,3.18,8.23,2.65-4.09-.21-5.6-1.21-7.11-2.2-6.71-1.67-10.2-6.06-10.86-12.85-.28-1.63-.28-3.27-.13-4.91.32-3.76,1.22-7.54,1-11.27-.29-5.11,1.78-8.31,6.22-10.35,1.1-.08,2.21-.16,3.31-.23.79-1.37,4.67,2.09,3.56-2.27.86-3.36,1.73-6.71,2.59-10.07,2.35-.38,4.36,1.02,7.27-.85,3.48-2.24,7.9-.29,9.77,4.38.65,3.1,2.13,5.3,5.7,5.23,1.55,8.4,9.21,9.66,15.27,11.95,2.68,1.02,3.11,2.77,4.53,4.24,2.44,2.19,4.87,4.39,7.31,6.58-1.63,4.18-3.07,7.76,3.76,8.97,4.59.82,7.41,5.54,11.5,7.89,1.28.74,2.85,2.62,2.24,4.51-1.17,3.61-5.04.16-6.9,2.33-.2.4-.62.74-.37,1.28.07-.89.59-1.47,1.33-1.9,2.62.18,6.54-.28,7.58.94,4.82,5.61,10.29,2.12,15.5,2.1.85.02,1.66.22,2.45.54,3.49,9.87,10.41,13.85,20.71,12.07,8.86,2.24,17.54,4.9,24.54,11.21.96,2.57,1.06,4.93-.92,6.65,4.74-.69,10.3-2.37,15.18,2.41,2.92,2.86,6.07-1.27,9.25-.68,3.11.41,6.3.6,8.64,3.12-2.84,5.3-7.92,1.27-11.65,2.8-.81.61-1.72,1.06-2.66,1.45,1.1.07,1.54-1.03,2.45-1.37,3.58-.34,7.16-.41,10.69.01,1.53.18,2.77,1.43,2.71,3.06-.1,2.74-2.45,1.82-4.61,2.27,8.27-.36,15.91-.93,23.41-2.86,22.73,7.15,37.35,32.45,31.79,54.89-.73,2.95-1.48,5.79-4.17,7.61-8.3,16.43-20.76,28.83-37.03,37.21-6.34,3.26-10.84,7.6-14.15,13.97-4.37,8.4-9.33,16.53-15.4,23.89-6.4-.84-12.68-1.59-13.22,7.75-.1,1.72-1.41,3.24-2.91,4.31q-9.24,6.58-10.95,20.57c-.14,1.15-.53,2.3-1.04,3.38-7.58,9.85-16.25,18.62-26.96,27.87v-126.39c.39-.17.77-.34,1.15-.52,13.46,3.58,25.26,11.74,39.1,14.27,4.4.8,10.63,4.47,12.32-1.53,1.51-5.37-5.71-5.33-9.48-7.04-4.45-2.02-10.2-1.18-13.33-6.11-.55-4.33,3.66-5.58,5.5-8.32-8.38-.95-16.98,1.73-25.11-1.97-7.44-5.68-12.91-15.2-24.61-12.58-2.65-.43-4.9-1.44-6.05-4.09-.22-.86-.26-1.74-.26-2.63q.04-8.22-7.96-4.52c-2.81.05-4.97-.99-6.1-3.7q.13-12.56-11.96-14.93c-.44-.39-1.05-.82-1.09-1.34-.54-8.16-3.8-13.47-13.03-12.86-.74.05-1.47-.89-2.05-1.56-.42-6.59-1.53-12.18-10.27-12.3-3.8-.05-4.86-3.8-4.56-7.4.14-1.7,1.42-3.01,1.67-4.69-2.94,2.96-7.48-4.83-9.93,1.48Z" fill="#fefefe" stroke-width="0"/><path d="M143.56,302.11c20.09,12.37,23.78,32.17,9.39,50.32-4.52-3.46-1.28-8.82-.96-11.97.56-5.46-1.89-5.09-4.85-5.91-.02-.59.05-1.17.13-1.74.34-2.47,1.92-6.09-1.84-6.43-3.82-.35-2.5,3.72-3.03,6.05-.13.57-.25,1.13-.53,1.66-.03.7-.07,1.39-.1,2.09h-.01c-7.64-2.21-20.11,8.9-15.59,13.63,9.9,10.35,3.23,21.46,4.53,31.95,1.45,11.7.33,23.72.33,35.6,0,12.18.04,24.36-.1,36.53-.01,1.31-1.1,2.6-1.68,3.9v-95.3c-.88-.02-1.75-.04-2.63-.06v93.06c-.91.02-1.82.04-2.73.06v-8.58c0-141.22,0-282.44,0-423.66,0-4.71.77-9.62-3.78-12.99.71-3.84,3.56-4.5,6.67-4.01,3.36.53,5,3.16,5.49,6.28.37,2.33.2,4.75.2,7.13,0,46.15,0,92.31,0,140.63,5.76-6.4,10.35-11.5,14.95-16.61,6.11-3.43,9.57-10.08,15.99-13.13,6.13.98,11.23,2.37,4.39,9.47-.65.68,0,2.3-.15,3.49-.94,5.08-5.22,7.64-8.43,10.91-5.55,5.65-11.14,11.23-15.62,17.82-6.37,6.09-8.82,13.47-8.37,22.27.47,9.08-.13,18.19.19,27.3.09,2.04.12,4.07-.04,6.1.3,19.95.07,39.89.18,59.83.02,3.36-1.47,7.25,2.12,9.92,2.37.92,4.16,2.61,5.89,4.4Z" fill="#060606" stroke-width="0"/><path d="M129.22,484.96c-.22-.56-.62-.76-1.2-.6-9.54-3.85-18.86-8.01-23.8-17.95,2.42-3.07,4.73-5.18,6.26.65.74,2.81,3.65,6.04,5.28,4.17,6.59-7.57,11.74,1.32,17.52.68,2.74,1.3,5.47,2.6,8.21,3.89,11.24,3.24,20.66,10.29,31.24,14.9,7.52,3.41,16.24,4.07,22.72,9.86,2.06,1.5,4.33,2.27,6.9,2.04,13.74,1.63,27.52,3.14,37.82,14.03,1.18.68,2.35,1.36,3.53,2.04,5.87,1.63,10.23,4.97,12.31,10.88v-.06c5.49,1.98,8.27,6.65,10.3,11.52,2.44,5.85,6.53,7.08,12.45,7.53,11.87.92,23.25-2.19,34.88-2.97l-.08.02c2.58-1.92,5.42-3.41,8.25-4.92,2.52-1.18,5.04-2.37,7.49-3.7,4.83-2.75,9.92-4.97,14.83-7.56,1.67-1.41,3.33-2.82,5-4.22,1.73-4.07,5.37-6.16,8.78-8.5.82-.53,1.64-1.07,2.46-1.6,2.51-.05,4.02.73,2.96,3.61-2.95,1.78-5.18,4.37-7.94,7.25,3.38-3,5.47-6.71,9.72-7.64,3.92,1.74,3.63,4.66,2.22,7.89-14.69,18.01-34.47,27.92-55.92,35.19-3.64,3.15-7.59,4.57-12.23,2.22-6.7.44-13.44,1.6-20.07,1.14-6.92-.48-9.76,1.48-8.49,8.49.26,1.42.07,2.91.09,4.37-.65,2.97-1.3,5.93-1.95,8.9-1.28,2.39-2.56,4.77-3.84,7.16-3.23-2.77-5.04-7.63-10.48-7.18,7.41-29.03-2.37-50.23-28.12-60.93-7-1.49-14.33-2-20.16-6.9-2.54-1.52-6.22,1.34-8.24-2.14-8.71-.8-17.14-2.39-23.96-8.51-8.28-3.82-16.55-7.63-24.83-11.45-8.27-1.05-14.29-5.96-19.89-11.59Z" fill="#060606" stroke-width="0"/><path d="M120.6,457.19V16.69c.29,0,.57,0,.86,0v440.84c-.29-.11-.57-.22-.86-.34Z" stroke-width="0"/><path d="M104.21,466.41c7.93,5.98,15.87,11.97,23.8,17.95-9.5,6.33-17.02-2.61-25.6-3.32h0c4.88-3.3,3.78-2.25-1.15-7.4-3.29-3.44-6.85-5.15-10.53-7.35-1.85-1.1-3.74-1.6-3.84-5-.14-4.72,4.55-1.49,5.07-4.11,4.08,3.08,8.16,6.16,12.24,9.24Z" fill="#f6f6f6" stroke-width="0"/><path d="M84.66,450.59c-7.31.07-11.61-6.83-19.04-7.61-8.02-.84.95-5.72-.76-8.58q18.91-8.11,18.98,11.84c0,1.45.53,2.9.81,4.35Z" fill="#f4f4f4" stroke-width="0"/><path d="M32.67,438.21c-6,6.19-3.1,14.66-5.56,21.76-1.59.43-2.73-.37-3.79-1.38-.66-.86-.79-1.96-1.24-2.91-3.64-5.02-6.49-10.55-2.15-16.16,3.27-4.24,8.15-4.16,12.75-1.3Z" fill="#f1f1f1" stroke-width="0"/><path d="M141.87,334.09c-2.56-3.69-3.98-7.39.7-10.49,2.61-1.73,5.12-.98,6.91,1.41,3,4.02,1.1,7.02-2.34,9.55-1.76-.16-3.51-.31-5.27-.47Z" fill="#e9e9e9" stroke-width="0"/><path d="M59.17,429.17c-3.13-3.49-7.86-4.42-11.07-2.42-3.32,2.07-3.9-1.9-5.97-1.1,1.49-4.61,4.56-6.64,9.4-5.73,5.11.96,7.46,4.22,7.64,9.26Z" fill="#eee" stroke-width="0"/><path d="M141.27,352.49c-2.56.27-4.79-.47-6.67-2.23.07-2.15-5.02-2.34-2.34-5.16,2.86-2.99,3.88-1.11,4.87,2.15.63,2.05,3.28,3,5.88,2.71,1.96-.22,1.88.84.71,1.81-.6.5-1.62.49-2.45.71Z" fill="#060606" stroke-width="0"/><path d="M141.77,336.18c3.26.28,5.65,1.86,6.39,5.09.34,1.46-1.24,1.98-2.41,1.76-3.88-.71-4-3.78-4-6.84,0,0,.01,0,.01,0Z" fill="#060606" stroke-width="0"/><path d="M22.07,455.68c.62.53,1.25,1.06,1.87,1.59,1.27,3.99-2.12,5.74-4.07,8.01-3.43,3.98-3.8-.4-5.09-2.13,0,0,0,0,0,0,1.2-3.69,6.26-3.61,7.29-7.47Z" fill="#0a0a0a" stroke-width="0"/><path d="M130.62,460.86c-.09,1.65-.66,3.21-2.39,2.67-1.19-.37-2.03-1.89-3.03-2.9,1.08-.83,2.06-2.11,3.27-2.4,2.07-.5,1.2,1.94,2.14,2.64Z" fill="#060606" stroke-width="0"/><path d="M4.25,450.2c-.41.81-1.43,2.51-1.5,1.93-.44-3.51-1.81-7.35,1.34-10.44.05,2.84.11,5.68.16,8.52Z" fill="#fefefe" stroke-width="0"/><path d="M39.54,435.71c1.18,1.92,2.35,3.84,4.87,7.95-4.11-2.77-6.27-4.23-8.43-5.68,1.19-.76,2.38-1.51,3.56-2.27Z" fill="#f1f1f1" stroke-width="0"/><path d="M381.46,345.24c.97-8.57,8.69-8.44,14.7-10.99-1.04-2.11-2.45-3.84-4.41-2.4-1.23.91-1.39,3.32-3.69,1.72-.36-.25-.6-1.06-.49-1.52.49-2.03,2.14-2.77,3.98-2.9,9.63-.67,19.31.15,28.89.37,7.22.17,10.92-1.88,10.94-7.97.02-5.93-4.96-7.76-10.6-6.84.1-3.81,2.6-2.28,4.52-2.03,10.75,1.3,20.41,5.66,29.83,10.66,4.17,2.21,5.71,5.11,3.98,10.18-6.78,19.92-15.01,39.09-26.85,56.59-2.6,1.3-4.42.66-5.34-2.17,1.38-7.27.07-14.76,1.68-22.04.55-2.47.57-4.92-2.62-5.58-3.32-.69-6.64-.85-8.3,3.03-1.41,3.3-2.13,6.66-1.56,10.37.52,3.37-.89,5.37-4.6,3.54-2.24-1.1-1.91-3.67-2.61-5.64-.74,3.83-3.1,2.48-5.3,1.67-.68-.47-1.16-1.1-1.5-1.85-.07-3-1.91-5-3.94-6.91-5.27-10.5-3.34-13.96,8.23-14.59,4.16-.23,8.35.11,12.51-.15,3.63-.23,9.34,1.08,9.52-3.8.17-4.61-5.71-4.22-9.27-4.84-9.31-1.63-18.32.94-27.34,2.77-3.43.69-6.66,2.84-10.37,1.31Z" fill="#f9f9f9" stroke-width="0"/><path d="M427.91,386.27c.16,2.74,1.98,3.6,4.35,3.85-4.28,7.61-8.83,15.03-15.01,21.31-.61-2.86-1.29-5.71-1.81-8.59-.26-1.43-.15-3.67-2.18-2.89-6.34,2.42-12.06-4.23-18.81-.49-4.05,2.24-9.26.33-6.52-5.6,1.76-3.82-2.3-8.44,2.42-11.17,1.18.32,2.01,1.08,2.68,2.09,1.76,2.66,1.06,8.03,6.04,7.16,4.29-.75,2.76-5.92,4.66-8.7,4.31-2.24,4.57,1.15,5.55,3.86,2.05,5.65,5.69,5.44,8.88,1.44,2.94-3.68,5.81-4.44,9.75-2.25Z" fill="#f2f2f2" stroke-width="0"/><path d="M425.29,312.69c-1.72.2-3.47.35-4.52,2.03-16.38-1.31-32.89,1.87-49.24-1.66-4.82-1.04-9.56,1.77-15.01.56-2.27-.5-2.84-4.41-5.49-2.46-2.15.16-2.46-.78-1.49-2.48,11.78-.44,23.57-1.15,35.35-1.26,13.68-.12,27.26,1.01,40.4,5.28Z" fill="#f7f7f7" stroke-width="0"/><path d="M349.54,308.67c.5.83.99,1.66,1.49,2.48,0,3.99-3.45,2.96-5.19,2.83-2.8-.21-1.2-2.88-1.08-4.31.67-8.01-2.8-11.08-10.7-9.95-.75.11-5.12,1.47-3.68-2.76,1.81-5.33-1.85-9.6-2.62-14.42-1.44-2.75-3.68-5-5.06-7.76-.63-1.26-1.66-3.42,1.56-3,4.16,3.55,8.32,7.1,12.48,10.65.91,1.1,1.72,2.31,2.76,3.28,6.7,6.21,11.84,13.06,10.03,22.97Z" fill="#f4f4f4" stroke-width="0"/><path d="M361.92,511.86c-6-5.98-.83-13.78-3.27-20.59-1.18-3.31,3.83-5.17,6.93-4.61,4,.71,7.11-.81,10.49-2.05.42-.59,1-.92,1.72-.98.71.1,1.3.43,1.78.96-2.16,7.31-7.59,12.84-10.7,19.63-1.45,3.34-2.01,7.48-6.95,7.63Z" fill="#f4f4f4" stroke-width="0"/><path d="M377.84,464.94c.14-2.97-2.07-4.62-5.01-6.78,13.71,2.16,14.36,1.41,14.24-11.54-.04-4.66,1.67-9.06.12-14.06-1.21-3.91,2.69-1.96,4.8-2.08,3.63-.21,3.52.34,1.4,2.97-1.96,2.42.6,3.55,2.32,4.66-.96,8.77-3.46,17.11-7.08,25.14-3.69-.06-6.95,2.63-10.78,1.7Z" fill="#f5f5f5" stroke-width="0"/><path d="M361.92,511.86c2.32-2.54,4.64-5.09,6.95-7.63,1.37,2.21,12.26,1.2,2.56,7.43-.14.09,2.05,3.82,3.15,5.85-1.57,3.61-4.2,6.34-7.27,8.71-.16-3.09-.26-6.21-3.78-7.63h0c-1.06-1.15-2.13-2.32-3.19-3.48.52-1.08,1.05-2.16,1.57-3.24Z" fill="#121212" stroke-width="0"/><path d="M377.84,464.94c3.42-1.68,6.38-6.26,10.78-1.7-2.08,7.51-4.69,14.8-9.05,21.35-.57,0-1.14,0-1.71,0-.67-6.55-4.98-13.11-.02-19.66h0Z" fill="#fefefe" stroke-width="0"/><path d="M402.77,428.87c-.29-1.99-1.18-4.14-.72-5.93.68-2.65-3.41-6.33,2.08-8.08,5.77-1.83,2.31,5.2,5.68,5.33-1.07,3.93-4.21,6.19-7.05,8.69Z" fill="#f1f1f1" stroke-width="0"/><path d="M324.26,271.77c-2.32,4.72,7.37,5.53,3.5,10.76-1.19,0-2.38,0-3.58,0-3.26-1.3-7.81-1.64-5.39-7.19,2.59-5.9-8.03-.89-5.54-6.71-3.98-1.32-6.53,2.99-10.36,2.48-3.78-3.77,3.47-12.21-5.13-13.75-5.33-.95-10.98-.18-17.86-.18,6.84-3.39,6.9-6.2,1.02-9.02-6.03-2.89-10.39-10.91-19.1-5.25-2.2,1.43-5.7.51-3.61-3.86,1.32-2.77-1.07-3.94-2.52-4.97-1.76-1.24-2.64.87-3.05,2.1-2.38,7.22-7.03,7.29-13.22,5.01-7.31-2.68-11.3-6.95-9.51-15.11.51-2.31,1.02-4.62,1.53-6.92.94,2.77,1.69,5.62,2.86,8.28,1.68,3.85,5.84,6.13,8.48,3.46,5.07-5.14,9.34-1.79,13.51-.1,24.8,10.05,48.59,21.87,67.96,40.96Z" fill="#f4f4f4" stroke-width="0"/><path d="M167.13,143.84c-2.22-3.57-4.81-7.25,3.89-7.51-3.24-2.44-5.43-4.09-7.61-5.74,10.48-9.42,19.09-9.9,29.45-1.29,3.54,2.94,7.53,5.55,9.83,9.78-3.18,3.64-.89,9.61-5.4,12.69-4.14-3.69-8.29-7.39-12.43-11.08-3.6-.76-7.19-1.68-10.93-1.32-2.46.48-3.97,2.16-5.26,4.13l-.69.54-.85-.21Z" fill="#0d0d0d" stroke-width="0"/><path d="M229.14,211.03c-4.2,3.54-6.43,4.99-10.19-1.94-5.05-9.31-2.98-19.18-5.67-28.44-.57-1.49.12-1.93,1.5-1.8,6.12,10.14,11.17,20.75,14.36,32.19Z" fill="#f6f6f6" stroke-width="0"/><path d="M214.79,178.85c-.5.6-1,1.2-1.5,1.8-1.44,1.42-2.65,3.39-4.38,4.13-2.25.96-4.91,1.02-7.33-.16,2.92-2.52-3.32-6.75,1.69-8.94,1.84-.8,2.78-3.45,1.37-3.98-7.87-2.95-1.31-7.7-1.77-11.49,5.08,5.51,8.85,11.86,11.93,18.64Z" fill="#f3f3f3" stroke-width="0"/><path d="M113.2,570.32c1.82,1.21,3.65,2.42,5.47,3.63,7.81,2.4,14.39,6.83,20.36,12.27,2.81,6.64-.49,10.3-6.23,12.77l-.05.04c-5.1,4.19-2.08,10.02-2.03,14.65.33,34.66.83,69.32-.32,103.98-.09,2.67-1.87,6.47,2.49,8.52,3.39,1.6,5.22.93,7.48-1.89.97-1.22,3.77-1.3,5.74-1.31,4.03-.02,7.95.28,4.22-5.53-.8-1.24-.37-2.52.92-2.75.98-.18,2.41.31,3.17,1.02,1.41,1.32-.86,4.32,2.11,5.16-.73,1.21-1.45,2.42-2.18,3.63-3.51,2.36-6.43,5.32-8.93,8.71-10.51,5.72-14.01,14.23-13.23,26.31,1.11,17.21.32,34.55.24,51.84-.01,2.63-.3,5.33-.92,7.88-.72,2.94-3.17,4.48-6.01,4.48-3.28,0-5.7-1.96-6.32-5.22-.49-2.6-.36-5.33-.37-8-.02-70.63-.01-141.26-.07-211.88,0-4.22,1.49-9.39-5.08-10.54-2.74-2.84-5.9-5.1-9.53-6.67-1-.75-2-1.5-3.01-2.26-4.87-3.66-9.73-7.33-14.6-10.99-4.74-4.1-9.47-8.2-14.21-12.3-.05-.52-.15-1.02-.31-1.51-.38-3.31-2.94-4.29-5.56-5.21h.07c1.65-4,7.95-4.41,7.63-9.91,3.33-.98,5.26,1.33,7.42,3.13,1.44,1.35,2.76,2.83,4.17,4.22,3.85,4.91,10.79,6.79,13.02,13.29,1.06,2.24,3.36,2.81,5.27,3.9,4.41.3,7.29,2.72,9.15,6.57Z" fill="#070707" stroke-width="0"/><path d="M159.71,697.56c-.56-4.31-1.24-8.6-1.62-12.92-.12-1.36.26-3.87.86-4.02,11.21-2.71-.66-4.11-.25-6.45,2.01-1.42,4.72-2.21,7.02-1.58,6.15,1.68,7.05-2.07,7.68-6.52,1.26-8.83,6.37-10.43,14.42-4.52-8.08,13.01-17.56,24.93-28.12,36.01Z" fill="#f6f6f6" stroke-width="0"/><path d="M252.84,613.44c1.13,1.77,2.27,3.53,3.4,5.3-2.77,1.68-5.29,2.15-7.02-1.41,1.2-1.3,2.41-2.6,3.61-3.89Z" fill="#fefefe" stroke-width="0"/><path d="M27.23,464.77c.34,6.12,6.12,8.38,9.02,12.68h-.01c-3.37,3.1.34,4.8,1.64,6.42,5.51,6.88,5.64,6.77.12,9.74-3.85-6.57-7.33-12.75-16.77-13.22-5.18-.26-6.54-5.35-3.13-10.18,2-3.56,4.79-5.81,9.13-5.45Z" fill="#f3f3f3" stroke-width="0"/><path d="M46.71,506.71c.43-3.59-.63-7.47,6.06-4.38,4.41,2.03,5.57,2.96,4.13,7.4-1.22,3.75.24,5.38,4.74,5.94,10.42,1.3,10.86,2.52,8.59,13.64,1.14,1.49,1.04,2.91-.25,4.25-8.89-7.97-16.84-16.75-23.27-26.85Z" fill="#f3f3f3" stroke-width="0"/><path d="M69.98,533.56c.08-1.42.17-2.84.25-4.25.58.08,1.19.32,1.74.22,13.28-2.4,14.76,5.87,14.37,15.85-.3.2-.59.4-.89.6-1.73-.16-2.77-2.32-4.79-1.65-2.16-1.7-4.33-3.4-6.49-5.11-1.4-1.89-2.79-3.77-4.19-5.66Z" fill="#f5f5f5" stroke-width="0"/><path d="M27.23,464.77c-2.49,2.75-5.44,4.72-9.13,5.45-3.07-1.44-3.49-4.11-3.32-7.07,6.53,3.45,5.82-4.37,9.16-5.88,1.05.9,2.11,1.8,3.16,2.7.04,1.6.08,3.2.12,4.8Z" fill="#070707" stroke-width="0"/><path d="M299.16,563.62c4.08-.74,8.16-1.48,12.23-2.22,3.73-.37,2.85,6.69,7.57,4.68-3.03.86-6.06,1.73-9.09,2.59-2.97,0-5.96-.2-8.92.04-7.27.58-1.05-3.46-1.8-5.08Z" fill="#fefefe" stroke-width="0"/><path d="M66.46,549.13c4.26-.83,9.25-2.44,5.56,5.21-1.09-.63-2.18-1.27-3.27-1.9-.76-1.1-1.53-2.2-2.29-3.31Z" fill="#1c1c1c" stroke-width="0"/><path d="M188.21,443.6c-1.69-3.01-4.19-5.84-4.89-9.06-1.13-5.21-3.87-4.9-7.57-3.54-6.04.55-11.64-.11-15.44-5.67-2.69-4.07-5.37-8.13-8.06-12.2-3.13-4.2-1.21-7.62,1.68-10.89,1.31-.62,2.62-1.25,3.93-1.87,5.01-1.87,7.1,1.91,8.57,5.19,2.53,5.64,5.64,10.09,12.5,8.05,7.42-2.21,8.69-7.69,6.63-14.65-.54-1.84.36-4.07-.7-5.99.43-.47.4-.92-.08-1.34-1.54-2.29,1.1-3.51,1.37-5.34,2.49-1.88,3.53-5.67,7.45-5.66,8.47-3.1,13.43-1.7,19.74,5.59,1.8,1.92,3.68,3.76,5.37,5.76,3.65,4.31,5.62,9.23,3.35,14.74-2.39,5.8-7.64,6.77-13.25,6.8-11.93.06-16.51,8.04-11.07,19.19,3.85,1.49,7.82,2.14,11.96,1.97,3.05-.13,6.04.09,6.99,3.87,3.11,8.23-1.3,11.34-8.55,12.14-2.86.32-5.8-.14-8.71-.25-4.73-.64-9.2-1.72-11.2-6.83Z" fill="#070707" stroke-width="0"/><path d="M404.87,382.68c0,2.08.12,4.16-.05,6.22-.31,3.73-2.24,6.08-6.16,6.3-3.97.22-5.96-1.93-6.67-5.66-.44-2.31-1.08-4.58-1.63-6.87-.02-5.08-1.36-9.82-3.76-14.27-3.91-2.68-3.73-7.22-5.04-11.09.14-.61-.04-1.09-.55-1.44-3.08-2.61-4.32-5.45-1.13-8.86.53-.59,1.06-1.18,1.59-1.77,13.85-6.27,28.31-7.9,43.32-6,4.69.59,8.49,2.24,8.01,7.37-.48,5.04-4.35,6.3-9.17,5.88-5-.44-10.09-.68-15.08-.28-14.92,1.2-14.18.7-7.93,12.73,2.09,1.3,2.08,3.3,1.8,5.39.15.53.3,1.07.45,1.6,2.46,3.24,4.22,6.62,2.01,10.74Z" fill="#070707" stroke-width="0"/><path d="M186.23,184.85c2.51,10.79,6.33,21.43,3.6,32.79-1.78,5.2-6.32,4.85-10.31,4.65-10.64-.55-21.13.01-31.63,2.03-7.76,1.49-10.32-1.09-11.57-10.15.27-1.49.89-2.81,1.93-3.92,2.49-2.26,5.68-3.1,8.72-4.21.82-.28,1.67-.47,2.52-.61,5.91-.27,11.63-2.54,17.6-2.02,7.01.61,7.38-2.9,5.37-8.12-.63-2.11-1.36-4.17-2.26-6.17-1.59-3.83-3.3-7.61-4.37-11.61-1.36-5.1.64-8.83,5.47-10.58,4.65-1.68,8.23.51,10.24,4.64,2.05,4.22,3.34,8.79,4.68,13.3Z" fill="#080808" stroke-width="0"/><path d="M292.08,411.53c2.95-.1,5.91-.21,8.86-.31,2.26-.86,4.06-.06,5.62,1.57-3.2,5.31-3.06,10.82-.9,16.44-.12,1.68-.8,3.17-1.45,4.68-2.62,2.87,2.17,8.7-4.02,10.15,5.28,4.04-.22,5.54-1.83,8.05-1.54,2.39-1.42,2.47-5.31,2.32-3.03.31-5.81-.25-8.13-2.36,1.62-6.83-.61-8.47-9.13-6.72l.03.03c-1.03-2.75-4.02-3.75-5.5-6.11-.39-.72-.62-1.48-.69-2.29.54-3.6.38-7.19-.34-10.76,3.63-11.03,12.88-13.35,22.78-14.68Z" fill="#030303" stroke-width="0"/><path d="M186.23,184.85c-1.99-3.93-3.95-7.88-5.98-11.79-2.17-4.19-5.43-6.75-10.05-4.23-4.14,2.25-4.04,5.96-1.97,9.99,1.73,3.38,3.96,6.64,4.21,10.63-12.75.71-14.76-1.35-17.64-18.09,1.06-.55-1.59-1.23-.51-.73-4.28,4.47-8.05,3.41-11.49-1.08,7.02-9.6,16.09-17.26,24.33-25.71.51-.13,1.03-.24,1.55-.33,3.39,1.95,1.54,6.02,2.29,8.63,1.76,6.07,4.42,6.79,9.21,5.71,4.74-1.06,6.39.23,6.05,5.36-.47,7.18-.05,14.43,0,21.64Z" fill="#f7f7f7" stroke-width="0"/><path d="M137.97,212.78c0,9.36,2.16,11.23,10.88,8.94,9.92-2.61,19.94-3.06,30.07-1.98,3.88.41,7.72.94,10.91-2.1,7.71,2.71,3.41-4.69,5.59-6.64h0c.62.97,1.29,1.91,1.84,2.92,2.28,4.14,5.99,9.18,2.77,13.02-2.71,3.23-7.91,1.43-12.04-1.2-3.39-2.16-4.22,4.05-9.04,3.3-9.66-1.5-19.71-.44-29.6-.59-6.16-.09-7.85,2.73-7.73,8.75.42,21.65-.39,43.33,1.93,64.92-2.03.27-3.82-.27-5.37-1.62-2.79-3.25-2.88-7.15-2.28-11.01,2.48-16.01.87-32.12,1.37-48.17.17-5.27-1.19-9.99-4.34-14.2,0-1.8,0-3.6,0-5.4,1.73-1.96,1.27-4.41,1.37-6.68.12-2.78.95-3.93,3.67-2.25Z" fill="#f7f7f7" stroke-width="0"/><path d="M304.5,429.13c-3.06-5.66-5.84-11.28,1.79-15.72,3.49-1.87,5.42.33,7.25,2.78,7.67,7.31,13.87,15.39,13.95,26.68-3.62,7.83-10.69,9.92-18.36,11.01-5.36-.01-10.6,3.4-16.06.54,3.92-1.97,7.99-3.87,4.66-9.42,6.41-2.25.95-8.99,4.65-12.27,1.11.48,1.72,1.48,2.48,2.35,1.49,1.7,3.28,2.85,4.94.42,1.21-1.77.12-3.28-1.49-4.32-1.21-.78-2.68-1.1-3.8-2.05Z" fill="#090909" stroke-width="0"/><path d="M184.86,392.95c1.55,6.21,8.11,11.87,1.23,18.95-3.64,3.75-7.49,5.79-12.43,4.62-4.52-1.07-7.99-3.86-8.38-8.98-.36-4.73-3.24-6.56-7.43-7.19.38-1.92.91-3.46,3.46-2.34,3.89,1.72,7.85,3.3,12.94,5.43-2.9-6.52,4.27-10.54,1.12-16.5,4.79,4.41,2.06,10.39,4.31,15.42,4.89-1.64,4.7-5.71,5.17-9.42Z" fill="#f7f7f7" stroke-width="0"/><path d="M313.63,545.58c-13.66,5.99-28.1,5.91-42.58,5.53-2.4-.06-3.45-1.14-4.3-3.47-2.44-6.68-6.62-12.42-10.76-18.14,8.07.14,17.36-1.81,16.77,11.44-.14,3.08,3.53,2.06,5.63,2.76,9.22,3.09,18.52.62,27.75.49,2.78-.04,5.16,0,7.5,1.39Z" fill="#f6f6f6" stroke-width="0"/><path d="M292.08,411.53c-8.81,3.21-17.16,7.09-22.27,15.59.11,1.45-.69,2.32-1.84,2.99-.8.28-1.63.4-2.47.34-.83-.22-1.53-.65-2.1-1.28,0-.6,0-1.19,0-1.79.97-.9,1.72-1.96,2.25-3.16-.7,1.09-1.21,2.3-2.25,3.16-3.44-1.51-6.43-3.17-4.93-7.9,1.34-4.24,4.55-4.71,7.63-3.22,6.59,3.17,6.59-6.93,12.46-4.8-2.38-2.82-7.09-2.87-5.78-7.37,1.23-4.21,4.99-3.63,8.15-3.47,4.9.24,10.12-1.39,15.25,2.49-2.71.91-5.15,1.37-7.17,2.55-1.25.73-4.49-1.74-3.84,2.27.58,3.53,2.58,2.9,4.97,2.15.45-.14,1.29.93,1.94,1.45Z" fill="#f6f6f6" stroke-width="0"/><path d="M240.16,516.64c-11.92-6.53-25.1-9.66-37.82-14.03,10.45-3.36,21.25-.3,31.81-1.72.29,6.01,8.31,1.51,9.34,7,.73,3.87-1.74,6.03-3.33,8.74Z" fill="#f4f4f4" stroke-width="0"/><path d="M195.44,500.57c-8.21-1.67-15.98-4.5-23.18-8.84.33-.83.91-1.43,1.73-1.79,7.06-5.52,19.03-4.4,24.52,2.28,3.73,4.53.22,6.4-3.07,8.35Z" fill="#f6f6f6" stroke-width="0"/><path d="M173.99,489.93c-.58.6-1.15,1.19-1.73,1.79-11.07-3.75-21.22-9.28-30.79-15.92,4.04-2.45,8.65-2.8,13.13-3.79,5.3-1.18,2.19,4.13,4.82,5.72,5.36,3.23,9.76,8.04,14.56,12.21Z" fill="#f6f6f6" stroke-width="0"/><path d="M160.3,425.33c5.15,1.89,10.3,3.78,15.44,5.67,2.33,3.13,5.28,6.31,3.04,10.5-1.98,3.7-5.17,1.07-7.93.85-1.4-.11-2.85.76-4.3.87-1.68.12-3.4-.12-5.09-.2,2.95-1.43.88-4.39,1.78-6.01.91-1.63,3.1.12,4.54,1.17.7.51,1.49.91,3.08,1.87-.47-2.93-.83-5.23-1.2-7.54-3.26,2.42-8.1-3.54-11.1,1.98.8-3.02-3.21-6.77,1.74-9.16Z" fill="#f8f8f8" stroke-width="0"/><path d="M213.32,386.21c-6.25-3.04-12.36-6.55-19.74-5.59-2.59-1.94-3.09-5.69-7.43-6.59,9.3-2.96,15.57,2.57,22.48,3.94,7.88,1.56,6.47,3.55,4.69,8.25Z" fill="#f3f3f3" stroke-width="0"/><path d="M344.12,529.42c-4.08,4.19-9.03,7.08-14.26,9.54-2.35-.74-3.03-3.4-5.08-4.5-.98,2.47-2.1,4.86-1.96,7.57-2.69,2.22-5.76,3.45-9.27,3.57.41-.78,1.11-1.53,1.2-2.34,1.68-16.11,13.38-13.68,24.12-13.15,1.73.08,3.5-.45,5.25-.69Z" fill="#f6f6f6" stroke-width="0"/><path d="M153.92,402.23c-2.28,3.37-1.49,7.21-1.68,10.89-1.11,4.07-4.23,7.53-3.64,12.13.19,1.46.29,3.32-1.86,3.14-2.09-.17-2.96-1.84-2.54-3.84,1.55-7.44-.24-14.84-.1-23.68,3.28,5.73,6.55,3.09,9.81,1.35Z" fill="#f1f1f1" stroke-width="0"/><path d="M188.21,443.6c3.73,2.28,7.47,4.56,11.2,6.83-.12,6.35,7.83,1.37,8.9,6.86-3.98.56-7.81,1.34-11.53-.98-.74-.46-1.4-1.33-2.17-1.43-7.29-.91-8.13-2.33-6.4-11.29Z" fill="#f2f2f2" stroke-width="0"/><path d="M309.13,453.88c6.12-3.67,12.24-7.34,18.36-11.01,2.11,4.04,1.82,11.37-.2,11.39-5.97.05-12.51,7.26-18.16-.37Z" fill="#f2f2f2" stroke-width="0"/><path d="M216.67,438.54c-2.48-1.54-4.99-2.85-8.06-1.68-4.85,1.84-8.15-.46-10.9-4.16,4.21-1.49,8.19-2.63,12.99-2.84,8.63-.38,8.37,2.78,5.96,8.69Z" fill="#ededed" stroke-width="0"/><path d="M263.39,429.17c.6,0,1.19,0,1.79,0,2.3,2.39,2.3,5.19,1.44,8.13-.22.75-.55,1.44-.92,2.13.75-.86,1.36-1.89,2.6-2.18.88-.05,1.63.22,2.25.85h0c.88,1.68,2.6,3,2.16,5.22-2.38.05-4.77.26-7.14.12-3.02-.18-7.07,1.21-7.44-3.93-.32-4.45-1.25-9.31,5.26-10.33Z" fill="#f5f5f5" stroke-width="0"/><path d="M256,529.56c-4.1-3.63-8.21-7.26-12.31-10.88,3.69-5.58,8.84-2.17,11.39-.08,2.45,2.01,3.04,7.06.92,10.96Z" fill="#eee" stroke-width="0"/><path d="M379.87,347.01c-.89,3.12-.19,6.03,1.13,8.86-2.25,1.19-4.18,5.41-7,.53-2.4-4.15-2.19-7.78,1.19-11.31,3.38-3.52,3.16,1.2,4.68,1.92Z" fill="#f5f5f5" stroke-width="0"/><path d="M357.89,516.7c-2.15,3.63-5.06,6.48-8.78,8.49-1.08-2.85-6.68-4.48-4.12-7.76,3.27-4.2,8.49-1.31,12.9-.73Z" fill="#eaeaea" stroke-width="0"/><path d="M195.42,211c-4.98-7.39,3.63-11.54,4.78-17.65v19.02c-2.69-4.3-3.15-4.79-4.6-3.95-.42.24-.14,1.68-.18,2.57,0,0,0,0,0,0Z" fill="#f7f7f7" stroke-width="0"/><path d="M275.8,445.34c2.76.73,2.39-6.31,6.46-2.55,2.22,2.05,5.24,2.35,8.44,2.96-3.91.64-2.13,5.81-5.77,6.31-3.75-1.28-7-3.24-9.13-6.72Z" fill="#0e0e0e" stroke-width="0"/><path d="M377.85,464.94c-1.73,6.56,3.28,13.11.02,19.67-.6,0-1.2,0-1.79,0-.61-1.19-1.21-2.38-1.82-3.57,1.1-2.81-.39-4.97-1.77-7.16,2.83-3.38.7-6.94.06-10.9,2.04.75,3.67,1.36,5.31,1.96Z" fill="#f5f5f5" stroke-width="0"/><path d="M309.89,409.5c-.23-3.21-5.34-2.21-4.93-5.44.14-1.08,2.05-3.74,3.74-2.76,1.86,1.08,5.03-2.65,5.46,1.48.32,3.1,1.84,7.49-4.27,6.71h0Z" fill="#f6f6f6" stroke-width="0"/><path d="M381.56,357.32c2.87,3.15,4.04,7.08,5.04,11.09-1.96,2.21-3.36,3.48-5.5-.31-2.26-4-.03-7.22.45-10.77Z" fill="#f5f5f5" stroke-width="0"/><path d="M313.54,416.19c-2.42-.93-4.83-1.86-7.25-2.78-1.78-.73-3.57-1.46-5.35-2.19,2.13-4.99,6.04-.71,8.94-1.72,0,0,0,0,0,0,1.15,2.27,7.49,1.71,3.66,6.7Z" fill="#f6f6f6" stroke-width="0"/><path d="M318.8,275.34c-.35,4,3.61,4.78,5.39,7.19-2.79.74-5.24,6.04-8.02,1.96-1.1-1.6-2.97-7.48,2.63-9.15Z" fill="#f4f4f4" stroke-width="0"/><path d="M173.93,139.38c4.31-5.11,7.69-2.48,10.93,1.32-4,2.52-7.84,3.67-10.93-1.32Z" fill="#e8e8e8" stroke-width="0"/><path d="M329.57,416.63c-1.36,2.01-1.22,4.43-3.6,4.14-1.67-.21-3.57-.84-4.15-2.67-.55-1.75.8-2.81,2.34-2.73,1.74.09,3.45.78,5.4,1.26Z" fill="#efefef" stroke-width="0"/><path d="M186.14,386.27c-.46,1.78-.91,3.56-1.37,5.34-1.84-.15-3.75-.65-3.43-2.87.38-2.64,3.54-.93,4.8-2.47Z" fill="#f7f7f7" stroke-width="0"/><path d="M276.96,454.5c-.33,1.63-1.05,2.58-2.4,2.12-.59-.2-1.35-1.4-1.21-1.93.27-1.01,1.13-1.86,1.75-2.78.67.93,1.33,1.85,1.86,2.59Z" fill="#e6e6e6" stroke-width="0"/><path d="M372.48,473.88c2.91,1.81,5.28,3.76,1.77,7.16-1.2-2.24-2.08-4.55-1.77-7.16Z" fill="#f4f4f4" stroke-width="0"/><path d="M272.71,443.32c-.72-1.74-1.44-3.48-2.16-5.21,2.86,1.62,5.33,3.53,5.28,7.27-1.04-.69-2.08-1.37-3.12-2.06Z" fill="#0e0e0e" stroke-width="0"/><path d="M167.99,476.11c-.73-.05-1.53.09-2.13-.2-.7-.33-1.63-.97-1.72-1.58-.18-1.16.85-1.11,1.62-.78,1,.43,2.25.69,2.23,2.56Z" fill="#f6f6f6" stroke-width="0"/><path d="M292.69,406.9c2.6-1.19,4.7-1.48,5.38.17.84,2.03-1.07,1.08-1.93.93-.79-.14-1.55-.48-3.45-1.1Z" fill="#f6f6f6" stroke-width="0"/><path d="M132.8,599c1.54-4.16,7.56-6.33,5.38-12.14,2.33-1.8,3.94.25,5.77,1.09,6.24,3.5,14.05,3.76,19.26,9.36,5.69,3.36,12.1,4.68,18.4,6.16,4.92,1.15,8.81,3.46,7.47,8.84-1.38,5.56-6.28,5.37-10.95,4.27-15.92-3.78-30.73-10.42-45.34-17.57Z" fill="#080808" stroke-width="0"/><path d="M206.14,518.65c7.22.82,14,2.96,20.16,6.9-9.22,4.22-18.37,4.44-28.27.11,3.18-3.21,5.92-.19,9.73-.8-5.02-4.22-9.84-2.06-14.13-2.7h0c3.36-4.05,9.12.44,12.51-3.51Z" fill="#f6f6f6" stroke-width="0"/><path d="M163.21,597.31c-7.11-1.71-13.71-4.6-19.75-8.73-.45-.48-.59-.95-.41-1.4.18-.44.35-.66.51-.66,7.55,2.52,15.41-.14,23.01,1.39,1.54.31,3.4-2.54,4.44.15.83,2.16-.28,3.5-2.7,4.5-2.01.84-3.42,3.11-5.1,4.74Z" fill="#f2f2f2" stroke-width="0"/><path d="M98.78,559.85c-5.26-3.69-10.38-7.55-14.53-12.52.22-1.12,1.32-1.31,2.04-1.91,0,0,.05-.04.05-.04,14.46-2.95,17.06.08,12.44,14.48Z" fill="#f2f2f2" stroke-width="0"/><path d="M143.57,586.52c-.03.69-.07,1.37-.1,2.06-1.76-.57-3.52-1.14-5.28-1.71-6.19-4.78-13.97-7.16-19.51-12.91,9.33-4.39,14.67,2.2,20.41,7.49,1.65,1.52,3,3.37,4.48,5.06Z" fill="#f1f1f1" stroke-width="0"/><path d="M129.22,484.96c6.63,3.86,13.26,7.73,19.89,11.59-1.8,2.84-3.86,4.47-7.07,1.76-1.11-.94-2.68-2.7-3.49-2.44-12.25,4.04-7.3-6.4-9.33-10.91Z" fill="#f1f1f1" stroke-width="0"/><path d="M173.94,507.99c7.99,2.84,15.97,5.68,23.96,8.51-4.22,1.49-7.76,6.34-12.8-.47-1.9-2.57-9.39-1-16.09-1.42,4.18-1.37,3.78-4.35,4.94-6.62Z" fill="#f6f6f6" stroke-width="0"/><path d="M113.2,570.32c-3.55-1.5-6.57-3.73-9.15-6.57,1.74-3.79,4.64-7.23,8.66-4.62,4.15,2.69,1.74,7.34.49,11.19Z" fill="#f2f2f2" stroke-width="0"/><path d="M36.25,477.45c1.94,1.74,11.55-2.94,4.76,6.51-1.72-2.35-3.24-4.43-4.77-6.51,0,0,.01,0,.01,0Z" fill="#f3f3f3" stroke-width="0"/><path d="M192.69,646.92c-.62,1.73-.88,3.82-3.39,1.77-.65-.53-2.76,2.34-2.61-.83.09-1.88,1.23-3.46,3.29-3.52,1.57-.05,2.79.81,2.71,2.59Z" fill="#e9e9e9" stroke-width="0"/><path d="M102.42,481.03c1.3,1.51,2.6,3.02,4.44,5.18-3.81-.47-7.27-.12-4.44-5.18,0,0,0,0,0,0Z" fill="#f6f6f6" stroke-width="0"/><path d="M193.63,522.17c-1.55,1.71-3.13,3.36-5.93,2.62,1.11-3.27,3.77-2.37,5.94-2.62h0Z" fill="#f6f6f6" stroke-width="0"/><path d="M137.97,212.78c-5.57.78.39,8.06-5.03,8.93-.17-12.13-.48-24.26-.44-36.39.02-7.31,6.32-10.86,10.3-15.76,1.37.54,2.91,1.79,4.09,1.52,8.75-1.99,13.5-.12,11.09,10.14-.61,2.6.87,5.09,3.88,4.57,4.39-.75,6.81,3.22,10.58,3.66,1.76,1.22,1.68,3.09,1.73,4.92,2.22,6.92-.29,10.21-7.53,9.42-6.35-.69-11.72,2.89-17.72,3.62l-.51.44-.65-.19c-1.38.47-3.29,1.28-4.18.49-5.27-4.73-1.89,2.53-3.63,2.52-.66.7-1.32,1.4-1.98,2.11Z" fill="#fdfdfd" stroke-width="0"/><path d="M132.95,227.11c6.03,1.34,7.31,5.16,7.18,11.07-.43,20.78.37,41.59-1.94,62.32-3.99.69-5.86-.47-5.79-5.04.34-22.78.39-45.56.54-68.34Z" fill="#fdfdfd" stroke-width="0"/><path d="M322.82,542.04c-3.54-3.32-2.07-7.42.82-8.84,4.97-2.45,4.92,2.9,6.23,5.77-2.11,1.56-4.32,2.91-7.04,3.07Z" fill="#fefefe" stroke-width="0"/><path d="M363.53,518.58c-1.95,4.22-7.15,6.02-8.45,10.72-1.04-6.44,3.22-8.94,8.46-10.71,0,0,0-.01,0-.01Z" fill="#131313" stroke-width="0"/><path d="M404.87,382.68c-.67-3.58-1.34-7.16-2.01-10.74,3.63,1.43,5.91.35,6.14-5.2,1.6,4.49,1,8.24,5.97,10.34-2.26-4.94-.95-8.84-.19-13.08,1.18-6.59,4.52-6.44,9.19-6.4,5.83.05,10.26,1.5,6.93,8.4-3.17,6.58,2.3,14.18-2.98,20.27-2.61,1.84-9.32-2.07-7.82,5.82.35,1.85-2.66,3.08-3.87,1.48-2.37-3.14-7.74,3.63-8.86-3.24-.4-2.47,1.7-6.28-2.5-7.65Z" fill="#fdfdfd" stroke-width="0"/><path d="M402.41,370.34c-.6-1.8-1.2-3.59-1.8-5.39,2.67,1.11,5.51,2.16,1.8,5.39Z" fill="#fdfdfd" stroke-width="0"/><path d="M120.6,813.06v-209.82c.29,0,.57,0,.86,0v210.17c-.29-.12-.57-.24-.86-.35Z" stroke-width="0"/><path d="M86.29,545.42c-.68.64-1.36,1.27-2.04,1.91-1.2-1-2.4-2-3.59-3.01,2.61-3.4,3.67,1.18,5.63,1.1Z" fill="#fefefe" stroke-width="0"/><path d="M211.55,395.14c2.46.88,4.91,2.01,4.98,5.08.04,1.68-1.56,2.43-3.11,2.14-2.71-.52-4.97-1.94-5.08-4.96-.06-1.65,1.56-2.19,3.21-2.26Z" fill="#e4e4e4" stroke-width="0"/><path d="M148.92,207.41c5.76-2.46,11.12-6.33,17.88-5.34,6.15.9,7.66-2.51,7.37-7.7,2.23,3.27,2.45,7.02,2.86,11.47-9.59-.63-18.84.54-28.1,1.57Z" fill="#f2f2f2" stroke-width="0"/><path d="M139.95,210.67c-.11-.57-.32-1.14-.3-1.7.11-2.4-4.72-2.82-2.9-4.91,2.41-2.77,3.42,1.46,5.23,2.2,1.81.75,3.84.95,5.78,1.39-2.6,1-5.21,2.01-7.81,3.01Z" fill="#f2f2f2" stroke-width="0"/><path d="M304.5,429.13c4.57-1.89,8.23-1.22,9.37,4.12.69,3.23-.89,5.79-4.36,6.48-5.67,1.13-7.01-2.36-7.13-6.99.71-1.2,1.42-2.41,2.13-3.61Z" fill="#e7e7e7" stroke-width="0"/><path d="M270.55,438.1c-.39-.16-.8-.23-1.22-.2-2.65-2.41-4.09-5.09-1.97-8.59.82-.73,1.64-1.46,2.45-2.19,4.54,3.37,2.26,7.2.74,10.98Z" fill="#0e0e0e" stroke-width="0"/><path d="M267.35,429.31c.66,2.86,1.31,5.72,1.97,8.59-1.31-1.24-3.26,6.18-4.08-.25-.36-2.78-.07-5.65-.07-8.48.73.05,1.45.09,2.18.14Z" fill="#fefefe" stroke-width="0"/><path d="M263.38,427.39c.41-2.98,1.36-5.69,5.18-8.82-1.4,4.36-.38,8.08-5.19,8.81h0Z" fill="#fefefe" stroke-width="0"/></g></svg>