<?xml version="1.0" encoding="UTF-8"?><svg id="b" xmlns="http://www.w3.org/2000/svg" viewBox="0 0 945.3 954.48"><g id="c"><path d="M944.09,624.4c-3.71-28.19-13.91-56.74-32.45-78.6-17.53-17.28-45.63-25.71-68.64-14.79-37.25,20.21,3.07,72.37,12.24,99.12,9.17,29.54,2.24,63.17-13.9,89.1-8.37,17.53-23.63,29.49-37.79,42.12-12.59,14.04-28.58,23.34-46,30.11-15.53,6.38-31.88,9.95-48.13,13.93,5.09-24.68-4.23-81.01-4.02-91.82-2.26-28.13-3.79-56.41-8.4-84.28-12.57-79.02-43.46-160.11-107.89-211.11-33.06-23.15-68.39-44.07-107.69-54.39-17.04-6.39-34.96-10.58-53.24-10.09-21.96-32.94-43.31-68.34-75.36-92.48-1.8-15.26-.64-31.02-2.02-46.39-2.26-18.94-8.2-37.24-14.3-55.24-14.66-41.62-28.12-61.09-60.64-90.47-25.31-21.39-56.89-37.87-90.55-39.66-16.44.73-35,2.01-49.38,10.45-2.82-1.99-6.43-3.55-8.9-4.7-12.99-6.78-27.36-10.77-39.91-18.34-11.18-6.76-50.42-32.77-45.58-2.64.85,5.61,2.06,11.16,3.57,16.62-10.66-2.78-21.28-5.8-32.45-5.42-6.19-.63-14.24.66-12.37,8.79,2.88,5.23,6.34,10.24,9.49,15.36,14.35,22.3,31.9,42.09,52.53,58.8-8.93,16.33-16.66,33.19-16.74,52.39-.21,21.63.9,51.35,14.78,69.66-9.68,13.99-16.3,29.86-16.43,47.09.38,6.79-1.24,14.8,2.98,20.64,21.84,22.7,55.77,28.78,86,31.03,9.22-.06,18.88-1.29,27.95-4.02-28.06,82.7-6.79,193.32,37.97,265.8.14.24.28.46.44.66-3.41,40.9-3.21,82.18-3.13,123.28.43,50.81-4.26,102.56,2.96,152.95-9.46-.05-19,2.9-26.53,8.49-15.81,17.06-3.4,40.29,14.01,50.48,3.57,2.61,7.83,3.83,11.99,5.12,6.86,3.13,14.24,4.04,21.62,5.08,10.24,2.12,20.78,2.44,31.21,2.61,2.03.04,3.59-.48,4.72-1.33,3,1.67,6.13,3.02,9.28,3.95,23.49,7.05,48.6,5.31,72.87,6.92,29.46,1.06,58.71,5.23,88.21,5.29,38.89-.54,77.82-.44,116.67-2.69,35.05-.96,70.68-1.56,104.24-12.85,8-3.04,15.46-7.36,22.84-11.67,13.63-2.67,27.5-3.31,41.28-5.45,27-2.84,53.49-10.98,78.41-21.61,25.79-13.96,52.02-29.17,70.07-52.92,32.88-39.7,58.63-85.56,72.32-135.39,9.18-28.14,15.86-57.8,11.8-87.5ZM47.82,77.59c-11.84-11.75-21.55-25.33-30.43-39.4,10.88.03,21.21,4.88,31.86,6.48.13,0,.26-.01.38-.02,5.88,15.23,14.27,29.49,24.81,41.92-1.92,3.58-3.92,7.15-5.94,10.72-7.26-6.19-14.49-12.42-20.69-19.7ZM56.11,281.52c.25.28.52.56.76.85,3.73,4.21,5.84,9.32,7.43,14.61-1.56-1.14-3.1-2.36-4.59-3.69-2.5-2.32-3.52-6.68-3.61-11.78ZM921.82,703.11c-10.59,39.07-27.92,75.95-50.94,109.24-14.97,20.26-29.92,41.3-51.09,55.57-10.5,6.58-21.16,12.9-31.81,19.24-24.98,11.41-51.96,19.39-79.28,22.32-12.64,1.73-25.01,2.89-37.97,4.78-6.3.63-11.17,4.96-16.57,7.82-7.11,3.46-14.33,6.3-22.07,8.09-37.31,10.22-76.63,7.79-114.93,10.17-56.05,2.27-112.04,2.07-167.91-3.1-26.42-2.35-53.75.13-79.54-6.77-12.68-3.91-27.92-16.74-20.76-31.15,4.54-7.31,13.1-11,19.96-15.88,13.13-10.27,29.32-15.22,45.58-18.41,21.17-4.78,43.06-7.69,64.79-7.21,10.55,1.01,21,2.79,31.32,5.22,4.91,1.48,13.03,2.83,14.01-4.13.62-9.5-12.54-7.24-18.55-9.72-25.72-5.54-52.72-4.66-78.95.15,0-3.23-2.29-6.15-7.79-5.67-10.94-9.2-17.58-22.23-25.15-34.11-11.45-14.94-22.72-30.24-26.48-49.16-14.51-50.66,11.61-105.18,48.45-139.71,12.59-11.74,25.94-23.08,40.95-31.58,4.42-4.01,14.07-4.82,13.49-12.24-2.82-17.61-40.6,16.52-47.93,21.21-53.59,41.49-90.14,116.43-61.62,182.54,3.73,10.46,10.21,19.28,16.84,27.99-1.13,2.01-1.4,4.72-1.23,7.1-.86,8.09-2.19,16.14-2.57,24.29-.86,8.84-2.48,17.58-3.21,26.44-.08.36-.13.73-.17,1.09-12.34,7.35-26.51,14.84-33.25,26.7-5.87,11.66-2.56,23.48,4.92,32.64-8.66-.4-17.21-1.58-25.8-3.13-14.57-2.1-30.58-8.3-37.16-22.48-2.73-4.87-1.69-11.93,2.07-15.96,7.64-4.26,16.38-6.13,24.95-3.85,2.24.15,4.13,1.48,6.15,2.25-.49-.2-.95-.47-1.37-.79.65.48,1.42.86,2.27,1.08-.22-.05-.44-.12-.65-.2.98.35,1.98.55,3.08.41,6.2-.67,7.32-9.71,1.68-12.01-1.86-.94-3.79-1.72-5.77-2.35-.85-4.25-1.75-8.48-1.79-12.84-1.7-16.25-1.19-32.64-2.11-48.94-.69-40.18,1.24-80.36.98-120.55-.27-55.23.68-110.92,13.63-164.86,4.55-13.19-9.63-18.26-11.82-6.64-4.21,18.1-7.2,36.34-9.35,54.67-8.83-15.84-15.22-32.84-21.42-49.85-20.02-61.86-28.93-138.9-3.82-200.37.82-1.01,1.42-1.98,1.85-2.91,1.05-.66,2.09-1.34,3.09-2.07,2.93-4.57-1.92-10.95-7.11-9.24-17.84,9.12-36.98,12.04-56.35,9.17,4.73-5.08,8.94-10.67,11.93-16.93,2.3-6.14,3.3-12.73,3.86-19.25,7.52-1.29,15.13-2.07,22.64-3.4,5.34-1.1,10.78-1.46,16.22-1.13,3.24.12,6.62,2.05,9.67.19,2.95-1.65,4.01-5.73,2.26-8.61-2.74-4.26-8.89-3.74-13.38-4.23-11.22-.15-78.26,7-73.45,22.64,1.19,5.2,9.03,6.54,11.82,2.05,3.29-1.58,6.69-2.96,10.13-4.18.35-.12.71-.22,1.07-.33-.49,4.13-1.14,8.23-2.79,12.06-3.44,6.32-8.22,11.82-13.4,16.78-.58.33-1.15.71-1.68,1.11-8.03-1.97-15.97-4.05-23.47-7.14.15-3.81-1.64-8.3-2.63-11.45-2.33-7.19-5.06-14.46-10.46-19.96-2.62-2.31-4.9-6.14-7.98-8.05,1.23-5.56,2.88-10.58,4.31-13.61,2.72-5.24,5.87-10.26,8.98-15.27.1-.17.19-.35.28-.52,7.34-3,9.93-16.09-2.13-14.46-13.22-25.53-14.69-57.6-6.74-85.16,3.21-15,27.46-42.35,24.11-53.64-15.52-20.53-29-43.22-32.63-69.26,11.78,4.14,21.96,11.6,32.78,17.63,7.91,3.86,16.27,6.73,24.24,10.5,7.05,1.49,20.65,13.46,26.32,9.22,2.62,1.06,5.78.68,7.88-2.32,42.6-16.37,88.61.92,121.69,29.41,14.04,14.37,30.43,27.16,39.7,45.39,15.58,29.92,27.81,62.51,31.83,96.14,1.84,13.91-2.51,39.15,4.92,50.26,23.73,17.24,41.02,41.96,57.82,65.68,6.42,8.93,11.26,18.99,18.28,27.46,5.21,5.27,13.46,2.64,20.08,3.5,21.58,1.91,41.55,10.97,62.23,16.76,31.19,13.3,60.92,30.24,87.7,51.31,56.46,50.76,83.91,124.87,95.26,198.43,4.59,29.51,6.22,58.63,8.53,88.52,2.08,28.16,7.93,56.51,2.76,84.67-.57.56-1.05,1.24-1.38,2.02-1.32,3.12.17,6.96,3.35,8.25.13.05.26.07.39.11,7.12,6.42,27.58-3.96,35.68-4.31,21.7-5.99,43.83-13.96,62.16-27.24,13.92-12.7,28.23-25.1,41.58-38.4,22.57-27.06,35.31-61.54,33.93-96.9-.77-20.64-10.77-39.13-20.62-56.75-5.33-13.25-20.05-41.34-3.07-50.53,12.37-5.91,27.21-4.47,39.28,1.5,19.97,9.14,29.04,30.36,36.6,49.67,13.16,35.44,9.83,74.22-2.22,109.47ZM288.29,823.87c6.42,10.57,12.88,21.57,22.6,28.96-9.11,2.24-18.07,4.91-26.79,7.9.68-5.56,1.54-11.1,2.2-16.65.52-6.75,1.11-13.49,1.99-20.2Z" stroke-width="0"/><path d="M212.56,883.71c.08.03.16.06.24.09-.08-.03-.16-.06-.24-.09Z" stroke-width="0"/><path d="M99.94,208.98c6.23-7.03,11.28-14.9,16.47-22.7,11.08-15.75,1.16-18.17-11.97-24.95-7.73-2.97-35.25-14.48-38.82-3.08-.1.3-.17.61-.22.91-1.35,2.87-1.15,6.8-1.21,9.88-.07,4.55,0,9.11.67,13.63,1.89,12.95,5.66,21.74,13.89,31.91.81,1.1,1.82,1.79,2.91,2.13,5.99,7.65,14.18-2.78,18.27-7.74ZM107.37,177.15c-4.31,6.55-8.57,13.13-13.39,19.3.16-8.9-1.23-19.67-4.56-27.24,6.31,1.83,12.38,4.42,17.95,7.94Z" stroke-width="0"/><path d="M94.95,84.78c7.08,2.74,19.96-4.42,24.55-9.84,3.35-3.71,5.21-10.53.54-13.31-2.98-6.58-14.62-13.39-18.49-16.95-2.58-2-5.26-3.81-7.96-5.64-6.69-4.84-12.66-10.7-20.56-13.58-3.52-2.89-8.74-2.39-10.75,1.16-1.29,1.31-2.04,3.22-1.69,5.68,3.54,12.92,10.85,24.71,18.82,35.38,2.9,3.89,5.98,7.66,9.2,11.29,1.8,2.09,3.62,4.75,6.34,5.81ZM78.94,43.69c.28.24.56.47.84.71,5.47,4.4,11.56,8.12,17.11,12.59,3.95,2.92,7.91,5.87,11.28,9.47.3.39.62.78.94,1.16-2.61,2.46-6.24,3.51-9.44,5.01-7.43-8.49-14.76-17.67-20.03-27.79-.24-.38-.47-.76-.71-1.15Z" stroke-width="0"/><path d="M98.79,246.57c9.5-8.71,20.02-16.09,30.45-23.61,7.55-6.07,14.91-11.28,23.87-15.32,7.58-3.26,2.61-14.79-4.9-11.6-5.03,2.45-10.06,4.94-14.72,8.06-11.63,9.62-52.33,34.45-53.37,47.74,0,3.43,2.87,6.29,6.29,6.29,3.34.05,5.49-2.52,6.42-5.38,1.68-2.34,3.85-4.24,5.96-6.18Z" stroke-width="0"/><path d="M168.29,228.05c-13.02,1.78-26.1,4.16-37.65,10.8-8.08,3.89-15.38,9.13-23.23,13.44-5.94,3.68-21.98,10.36-11.94,18.34,3.63,2.22,7.16-.08,9.9-2.42,7.51-4.82,15.47-8.88,22.93-13.79,6.36-3.73,13-6.99,19.88-9.64,8.09-2.75,16.86-2.81,25.01-5.12,7.54-3.31,2.67-14.73-4.9-11.6Z" stroke-width="0"/></g></svg>