<?xml version="1.0" encoding="UTF-8"?><svg id="b" xmlns="http://www.w3.org/2000/svg" viewBox="0 0 1153.69 952.83"><g id="c"><path d="M843.99,265.84c17-21.87,29.18-40.35,44.17-56.16,24-25.32,44.92-21.98,58.57,9.81,17.54,40.87,32.23,82.95,49.25,124.05,3.16,7.63,10.33,15.55,17.69,19.14,38.18,18.64,76.68,36.73,115.79,53.3,17.92,7.59,23.5,20.1,23.38,37.53-.43,61.55-.87,123.1-1.26,184.65-.1,16.06-2.9,32.76.58,48.03,6.21,27.29-7.17,44.2-26.68,57.09-54.85,36.23-109.47,73.07-166.32,105.96-58.08,33.6-118.63,62.96-178.26,93.88-24.93,12.93-48.21,13.44-74.59-1.5-141.56-80.18-284.06-158.71-426.43-237.45-5.39-2.98-13.91-4.91-19.17-2.82-72.82,28.99-158.98,5.35-204.84-59.51C7.04,572.79-9.59,495.86,5.23,412.1c13.68-77.31,51.46-137.29,121.13-176.03,6.76-3.76,11.89-12.03,15.68-19.3,29.94-57.46,59.91-114.42,117.19-151.02C332.1,19.19,410.17-5.74,497.52,1.12c74.75,5.88,137.5,37.25,194.53,84.37,45.5,37.6,75.91,86.79,110.33,133.15,12.01,16.18,26.67,30.4,41.62,47.19ZM1017.11,450.53c-.16-.56-1.18-5.56-2.99-10.26-16.03-41.58-32.15-83.13-48.36-124.65-10.65-27.29-20.88-54.76-32.42-81.68-10.45-24.38-20.32-25.79-36.96-5.76-9.31,11.2-18.45,22.98-25.16,35.81-9.72,18.59-19.57,33.39-44.24,24.25-4.45-1.65-10.48.97-15.79,1.62-37.31,4.6-73.3,13.5-106.85,31.22-14.54,7.68-24.91,4.86-34.25-11.02-9.61-16.34-22.78-31.16-36.61-44.31-17.48-16.61-30.45-12.26-37.96,10.55-3.33,10.13-7.67,20.28-8.79,30.72-5.27,49.12-9.67,98.34-14.19,147.54-1.16,12.65-.86,25.47-2.79,37.98-.6,3.86-6.34,6.92-9.73,10.35-2.77-3.38-6.41-6.39-8.06-10.25-1.49-3.48-1.3-7.92-1.01-11.88,3.62-48.65,5.85-97.48,11.75-145.85,3.11-25.45,10.47-51,19.96-74.89,10.84-27.28,33.48-32.54,56.1-14.02,15.81,12.94,30.41,28.25,42.24,44.86,8.12,11.41,14.23,13.31,25.92,7.61,10.69-5.21,21.93-9.81,33.42-12.75,24.83-6.36,49.98-11.5,76.29-17.42-9.62-12.22-19.22-23.87-28.24-35.96-34.5-46.25-64-96.23-110.15-133.29-53.18-42.7-110.4-73.61-180.03-77.93-74.41-4.62-145.9,5.87-208.99,46.99-30.73,20.03-59.43,45.2-83.48,72.89-25.12,28.93-42.93,63.97-49.02,103.24-1.93,12.46-2.72,25.2-5.89,37.32-1.73,6.62-7.35,12.22-11.21,18.28-2.85-6.28-6.99-12.32-8.18-18.9-1.25-6.91.33-14.33.77-23.63-6.4,2.66-11,3.74-14.64,6.22-60.52,41.2-89.08,101.33-97.17,171.56-5.73,49.74,4.04,97.88,22,145.03,34.73,91.17,133.2,143.92,226.71,97.1,25.6-12.82,42.67-30.07,53.93-55.58,9.9-22.43,19.29-45.78,33.39-65.52,28.43-39.83,68.52-43.38,104.98-12.79,3.63,3.05,9.39,6.69,13.22,5.83,16.01-3.57,27.72-29.79,20.8-45.31-15.64-35.08-44.21-53.09-81.17-56.11-35.2-2.88-64.19,10.61-82.22,42.35-16.37,28.82-30.12,59.24-47.94,87.09-36.62,57.22-124.31,72.01-166.22-1.22-27.57-48.18-33.38-99.92-24.69-152.98,3.43-20.94,15.2-40.9,25.37-60.15,3.98-7.54,11.01-15.7,24.46-8.32,59.87,32.85,120.36,64.57,180.96,96.05,4.59,2.38,13.76,2.09,17.5-.98,45.4-37.23,120.1-23.16,158.14,22.8,15.53,18.76,24.79,39.19,14.3,64.41-1.6,3.84,1.37,13,4.89,15.01,28.85,16.42,58.08,32.24,87.87,46.86,4.92,2.41,13.77-.59,19.73-3.38,22.05-10.33,43.34-22.34,65.67-31.97,4.79-2.07,12.74,3.18,19.23,5.05-5.42,4.57-10.18,10.49-16.37,13.47-19.74,9.53-40,17.96-60.07,26.82.56,2.06,1.12,4.11,1.68,6.17,23.42,10.94,48.69,19.13,69.84,33.43,36.63,24.78,60.82-2.1,88.45-16.57,1.95-1.02,3.34-4.92,3.38-7.51.21-14.41,6.29-19.16,17.15-10.05,13.44,11.28,24.83,25.49,35.2,39.82,10.06,13.88,20.56,24.54,39.17,21.52,19.1-3.1,31.29-13.2,34.01-33.35,6.43-47.61-24.45-93.69-89.84-75.13-36.78,10.44-67.81,29.85-90.28,61.93-2.65,3.78-10.8,3.7-16.4,5.41.61-5.26-.75-12.41,2.17-15.45,16.39-17.11,31.47-37.45,51.5-48.61,23.76-13.23,51.62-23.18,78.55-25.79,49.78-4.83,96.12,56.91,82.98,105.63-6.73,24.95-23.32,39.78-48.34,44.96-23.09,4.78-40.6-5.48-54.06-22.98-23.2-30.17-22.9-30.43-55.85-11.85-2.86,1.61-5.3,4.44-8.32,5.25-30,8.08-32.79,31.9-32.12,56.73,1.7,62.84,4.09,125.66,6.51,188.47.27,7.08,2.57,14.09,4.1,22.05,4.97-1.67,8.25-2.36,11.15-3.82,42.84-21.54,86.52-41.61,128.23-65.16,72.83-41.12,148.5-77.64,214.27-130.64,16.95-13.66,27.55-26.83,23.96-50.02-2.43-15.68-.81-32.05-.36-48.1,1.47-52.16,3.13-104.32,4.94-156.47.91-26.3-15.12-42.73-34.29-55.84-10.6-7.24-24.26-9.99-33.15-13.45-13.58,9.39-25.02,17.3-37.22,25.73,7.18,2.85,13.11,5.2,15.4,6.1,8.05-4.71,13.45-8.86,19.55-10.93,2.24-.76,6.15,3.39,9.29,5.31-4.88,4.42-9.37,9.41-14.75,13.11-6.81,4.69-20.85,9.01-20.5,12.32,2.23,21.4-12.53,18.24-23.83,17.58-39.4-2.3-73.09,4.89-89.66,46.59-1.44,3.62-7.93,5.23-12.08,7.78-1.78-4.57-6.41-10.9-4.86-13.43,8.79-14.32,16.19-32.81,29.47-40.33,22.9-12.96,49.77-18.91,77.12-28.55ZM727.82,931.49c1.86-5.82,2.94-7.61,2.93-9.38-.62-77.43-1.03-154.87-2.67-232.29-.13-6.08-7.71-14.39-13.93-17.58-68.4-35.04-137.18-69.33-205.98-103.58-5.63-2.8-14.07-7.27-17.94-5.11-22.05,12.3-36.45.72-50.71-13.58-12.04-12.08-24.37-12.18-39.68-4.33-21.95,11.25-36.45,27.86-46,50.03-14.54,33.74-23.47,71.07-63.15,93.38,147.89,82.03,291.96,161.93,437.13,242.44ZM320.66,468.31c-61.66-31.58-123.34-63.17-184.91-94.71-1.94,1.65-3.73,2.74-4.91,4.3-1.59,2.1-2.92,4.46-4.02,6.87-29.36,64.63-24.54,127.47,12.93,186.94,20.01,31.76,49.43,39.54,85.42,28.78,22.21-6.64,36.09-22.25,46.71-41.03,16.3-28.82,31.33-58.37,48.78-91.13ZM1056.91,404.04c-16.71-7.82-28.8-13.47-41.63-19.48q5.68,25.46,41.63,19.48Z" stroke-width="0"/><path d="M1017.11,450.53c-27.35,9.65-54.22,15.59-77.12,28.55-13.28,7.52-20.68,26.01-29.47,40.33-1.55,2.53,3.08,8.86,4.86,13.43,4.14-2.55,10.64-4.16,12.08-7.78,16.57-41.7,50.25-48.89,89.66-46.59,11.3.66,26.06,3.82,23.83-17.58-.34-3.31,13.69-7.63,20.5-12.32,5.38-3.7,9.86-8.69,14.75-13.11-3.15-1.91-7.05-6.07-9.29-5.31-6.11,2.07-11.51,6.22-19.55,10.93-2.28-.9-8.21-3.25-15.4-6.1,12.2-8.44,23.64-16.35,37.22-25.73,8.89,3.46,22.56,6.21,33.15,13.45,19.17,13.1,35.2,29.54,34.29,55.84-1.81,52.15-3.47,104.31-4.94,156.47-.45,16.05-2.06,32.42.36,48.1,3.59,23.19-7.01,36.36-23.96,50.02-65.77,53-141.44,89.52-214.27,130.64-41.71,23.55-85.39,43.62-128.23,65.16-2.9,1.46-6.18,2.14-11.15,3.82-1.53-7.97-3.83-14.97-4.1-22.05-2.43-62.81-4.81-125.64-6.51-188.47-.67-24.83,2.12-48.66,32.12-56.73,3.02-.81,5.46-3.64,8.32-5.25,32.95-18.58,32.65-18.33,55.85,11.85,13.45,17.5,30.96,27.76,54.06,22.98,25.02-5.18,41.61-20.01,48.34-44.96,13.14-48.72-33.2-110.47-82.98-105.63-26.93,2.61-54.78,12.56-78.55,25.79-20.03,11.15-35.11,31.5-51.5,48.61-2.92,3.05-1.56,10.2-2.17,15.45,5.6-1.71,13.75-1.63,16.4-5.41,22.47-32.08,53.5-51.49,90.28-61.93,65.39-18.56,96.26,27.51,89.84,75.13-2.72,20.14-14.91,30.25-34.01,33.35-18.61,3.02-29.12-7.64-39.17-21.52-10.38-14.32-21.76-28.54-35.2-39.82-10.86-9.11-16.94-4.36-17.15,10.05-.04,2.59-1.43,6.49-3.38,7.51-27.63,14.47-51.82,41.35-88.45,16.57-21.14-14.3-46.42-22.49-69.84-33.43-.56-2.06-1.12-4.11-1.68-6.17,20.06-8.86,40.33-17.3,60.07-26.82,6.18-2.98,10.95-8.9,16.37-13.47-6.49-1.88-14.44-7.12-19.23-5.05-22.33,9.63-43.62,21.64-65.67,31.97-5.96,2.79-14.81,5.79-19.73,3.38-29.79-14.62-59.02-30.44-87.87-46.86-3.52-2.01-6.49-11.17-4.89-15.01,10.49-25.22,1.23-45.65-14.3-64.41-38.04-45.96-112.74-60.03-158.14-22.8-3.74,3.07-12.92,3.37-17.5.98-60.6-31.48-121.09-63.2-180.96-96.05-13.45-7.38-20.48.78-24.46,8.32-10.17,19.25-21.95,39.21-25.37,60.15-8.68,53.07-2.88,104.81,24.69,152.98,41.91,73.23,129.6,58.44,166.22,1.22,17.82-27.85,31.57-58.28,47.94-87.09,18.03-31.73,47.02-45.23,82.22-42.35,36.96,3.02,65.53,21.03,81.17,56.11,6.92,15.53-4.79,41.74-20.8,45.31-3.83.85-9.59-2.79-13.22-5.83-36.46-30.58-76.55-27.03-104.98,12.79-14.1,19.75-23.48,43.09-33.39,65.52-11.26,25.51-28.33,42.76-53.93,55.58-93.51,46.82-191.98-5.93-226.71-97.1-17.96-47.15-27.73-95.29-22-145.03,8.09-70.23,36.65-130.36,97.17-171.56,3.64-2.48,8.24-3.55,14.64-6.22-.44,9.3-2.02,16.72-.77,23.63,1.19,6.58,5.33,12.62,8.18,18.9,3.86-6.06,9.48-11.66,11.21-18.28,3.17-12.13,3.96-24.86,5.89-37.32,6.09-39.26,23.9-74.31,49.02-103.24,24.04-27.69,52.75-52.86,83.48-72.89,63.09-41.12,134.57-51.61,208.99-46.99,69.63,4.32,126.85,35.23,180.03,77.93,46.16,37.06,75.66,87.04,110.15,133.29,9.01,12.09,18.61,23.73,28.24,35.96-26.31,5.93-51.46,11.06-76.29,17.42-11.49,2.94-22.73,7.54-33.42,12.75-11.7,5.7-17.8,3.8-25.92-7.61-11.83-16.61-26.43-31.92-42.24-44.86-22.62-18.52-45.26-13.26-56.1,14.02-9.49,23.9-16.86,49.44-19.96,74.89-5.9,48.38-8.14,97.2-11.75,145.85-.29,3.96-.48,8.4,1.01,11.88,1.65,3.86,5.29,6.87,8.06,10.25,3.39-3.43,9.14-6.49,9.73-10.35,1.93-12.5,1.63-25.33,2.79-37.98,4.51-49.2,8.91-98.42,14.19-147.54,1.12-10.44,5.45-20.6,8.79-30.72,7.51-22.81,20.48-27.16,37.96-10.55,13.83,13.15,27,27.96,36.61,44.31,9.33,15.88,19.71,18.69,34.25,11.02,33.55-17.72,69.54-26.62,106.85-31.22,5.3-.65,11.34-3.27,15.79-1.62,24.67,9.14,34.53-5.66,44.24-24.25,6.71-12.83,15.85-24.6,25.16-35.81,16.65-20.03,26.51-18.62,36.96,5.76,11.54,26.91,21.77,54.39,32.42,81.68,16.21,41.52,32.32,83.07,48.36,124.65,1.81,4.7,2.83,9.7,2.99,10.26ZM951.69,537.41c13.65,15.59,25.58,29.59,37.97,43.15,4.9,5.36,10.43,10.38,16.4,14.49,22.37,15.4,54.84,11.19,70.43-8.71,26.97-34.43,7.2-90.21-38.17-100.23,2.83,4.5,8.33,6.38,11.82,10.14,17.52,18.84,24.42,40.93,17.01,66.15-5.95,20.25-28.11,29.56-45.97,18.53-22.15-13.67-46.72-26.19-44.55-60.89-11,7.65-19.33,13.45-24.95,17.36ZM916.9,466.1c15.34-2.48,23.24-13.43,23.83-27.35.59-14.08-6.58-25.95-22.39-28.13-12.74-1.76-26.97,13.1-25.35,27.3,1.57,13.81,7.94,25.26,23.91,28.18ZM751.3,486.94c-.59-12.95-5.37-24.85-21.52-27.27-13.16-1.97-23.78,9.7-24.68,25.13-.9,15.52,5.64,26.05,20.87,29.18,11.66,2.4,24.32-11.19,25.33-27.04ZM688.84,528.11c-32.77,10.74-57.36,18.19-81.36,27.22-4.29,1.61-6.1,9.8-9.05,14.95,5.73.68,11.94,3.12,17.11,1.73,22.28-5.98,44.35-12.78,66.26-20.01,4.67-1.54,11.19-5.64,11.78-9.36.79-5.02-3.35-10.81-4.73-14.53ZM1117.87,456.67c-.84-1.72-1.68-3.43-2.52-5.15-9.62,1.14-19.43,1.51-28.76,3.81-3.51.87-5.9,6.23-8.8,9.55,4.07,2.33,9.23,7.52,12.01,6.47,9.8-3.73,18.78-9.61,28.07-14.68Z" fill="#fff" stroke-width="0"/><path d="M727.82,931.49c-145.17-80.52-289.24-160.42-437.13-242.44,39.68-22.31,48.61-59.64,63.15-93.38,9.55-22.17,24.05-38.78,46-50.03,15.31-7.85,27.64-7.75,39.68,4.33,14.25,14.31,28.65,25.88,50.71,13.58,3.87-2.16,12.31,2.3,17.94,5.11,68.8,34.25,137.58,68.54,205.98,103.58,6.22,3.18,13.8,11.5,13.93,17.58,1.64,77.41,2.04,154.85,2.67,232.29.01,1.78-1.07,3.56-2.93,9.38Z" fill="#fff" stroke-width="0"/><path d="M320.66,468.31c-17.45,32.76-32.47,62.31-48.78,91.13-10.62,18.78-24.5,34.39-46.71,41.03-36,10.76-65.41,2.99-85.42-28.78-37.47-59.47-42.29-122.3-12.93-186.94,1.09-2.41,2.42-4.77,4.02-6.87,1.18-1.55,2.97-2.64,4.91-4.3,61.57,31.54,123.25,63.12,184.91,94.71Z" fill="#fff" stroke-width="0"/><path d="M1056.91,404.04q-35.95,5.98-41.63-19.48c12.83,6,24.92,11.66,41.63,19.48Z" fill="#fff" stroke-width="0"/><path d="M951.69,537.41c5.62-3.91,13.96-9.71,24.95-17.36-2.18,34.7,22.39,47.22,44.55,60.89,17.86,11.03,40.02,1.71,45.97-18.53,7.41-25.23.51-47.31-17.01-66.15-3.49-3.76-9-5.64-11.82-10.14,45.37,10.02,65.14,65.8,38.17,100.23-15.59,19.9-48.06,24.11-70.43,8.71-5.97-4.11-11.5-9.13-16.4-14.49-12.4-13.57-24.32-27.57-37.97-43.15Z" stroke-width="0"/><path d="M916.9,466.1c-15.97-2.92-22.35-14.37-23.91-28.18-1.61-14.2,12.61-29.06,25.35-27.3,15.81,2.19,22.98,14.06,22.39,28.13-.59,13.92-8.49,24.87-23.83,27.35Z" stroke-width="0"/><path d="M751.3,486.94c-1.01,15.85-13.68,29.43-25.33,27.04-15.23-3.13-21.77-13.65-20.87-29.18.9-15.43,11.52-27.1,24.68-25.13,16.16,2.42,20.93,14.32,21.52,27.27Z" stroke-width="0"/><path d="M688.84,528.11c1.38,3.72,5.52,9.51,4.73,14.53-.58,3.72-7.11,7.82-11.78,9.36-21.91,7.22-43.98,14.03-66.26,20.01-5.18,1.39-11.38-1.05-17.11-1.73,2.95-5.15,4.77-13.33,9.05-14.95,24-9.04,48.59-16.49,81.36-27.22Z" stroke-width="0"/><path d="M1117.87,456.67c-9.29,5.06-18.27,10.94-28.07,14.68-2.78,1.06-7.94-4.14-12.01-6.47,2.9-3.31,5.3-8.68,8.8-9.55,9.33-2.31,19.14-2.67,28.76-3.81.84,1.72,1.68,3.43,2.52,5.15Z" stroke-width="0"/></g></svg>