<?xml version="1.0" encoding="UTF-8"?><svg id="b" xmlns="http://www.w3.org/2000/svg" viewBox="0 0 1064.6 1241.57"><g id="c"><path d="M564.69,789.27c8.98-9.25,20.59-7.27,31.55-6.92,42.41,1.37,113.76-38.99,129.73-73.72,10.82-23.52-19.54-76.47-45.54-80.86-16.12-2.72-24.01,8.23-31.34,17.94-38.09,50.47-61.66,59.16-108.95,38.37-44.11-19.39-72.5-70.86-58.73-118.96,13.8-48.22,26.17-97.81,61.51-137.64,11.43-12.89,18.13-15.5,35.86-14.7,61.49,2.79,123.43,7.26,176.54-39.27,15.98-14,23.74-25.96,15.13-39.33-10.89-16.9-21.77-42.28-51.47-32.22-19.96,6.76-40.48,12.43-59.45,21.36-25.82,12.16-44.77,5.38-63.49-14.21-50.9-53.26-47.88-78.82,17.87-112.12,66.94-33.9,135.15-45.99,210.59-22.45,86.48,26.97,123.59,90.94,146.74,169.49,6.73,22.82,5.45,48.44,24.6,66.59,43.23-6.12,70.03-43.7,59.43-87.6-31.25-129.47-137.33-233.25-283.73-232.56-108.56.51-203.64,28.91-285.62,102.53-28.78-4.09-45.6-25.89-64.41-48.98,38.5-65.44,124.34-54.8,170.09-107.85-30.67-26.67-63.88-35.04-100.52-25.09C311.76,59.77,159.38,146.55,66.95,316.01c-33.88,62.12-49.31,129.24-57.05,199.69-12.87,117.07,18.31,222.15,74.01,322.9,13.76,24.88,25.18,50.03,5.01,81.11-18.08,27.86-1.45,59.19,9.98,86.73,11.58,27.9,26.37,54.66,41.92,80.64,11.11,18.56,9.37,35.24-4.25,48.96-20.53,20.68-33.05,41.04-10.06,66.89,33.85,38.05,51.89,40.53,91.06,14.11,40.73-27.46,40.99-36.1,36-84.25-5.47-52.77-36.75-97.83-39.51-150.67" fill="none" stroke="#000" stroke-linecap="round" stroke-linejoin="round" stroke-width="14.02"/><path d="M515.6,782.26c28.53,1.93,45.69,22.58,67.24,37.68,50.65,35.5,104.62,66.25,157.08,99.19,5.52,3.46,9.94,8.67,17.81,15.69-11.55,8.28-20.74,19.64-31.9,22.11-94.79,20.97-109.27,108.44-146.02,176.55-6.57,12.19-.43,32.46,2.74,48.43,7.23,36.45-5.73,51.35-38.71,38.16-67.02-26.79-133.12-56.02-196.22-91.26-7.37-4.11-13.41-6.91-21.36-6.44" fill="none" stroke="#000" stroke-linecap="round" stroke-linejoin="round" stroke-width="14.02"/><path d="M336.78,1206.51c3.9-30.59-10.09-60-17.79-86.56-7.26-25.04-34.84-56.11-73.37-57.19" fill="none" stroke="#000" stroke-linecap="round" stroke-linejoin="round" stroke-width="14.02"/><path d="M459.5,929.52c-36.22,5.43-36.81,31.83-35.06,59.61" fill="none" stroke="#000" stroke-linecap="round" stroke-linejoin="round" stroke-width="14.02"/><path d="M620.79,792.78c-5.71,14.84,5.25,30.97-3.51,45.58" fill="none" stroke="#000" stroke-linecap="round" stroke-linejoin="round" stroke-width="14.02"/></g></svg>