<?xml version="1.0" encoding="UTF-8"?><svg id="b" xmlns="http://www.w3.org/2000/svg" viewBox="0 0 963.35 1092.32"><g id="c"><path d="M735.24,240.86c24.19,6.63,34.06,27.32,46.35,46.14,50.81,77.84,80.17,164.66,81.16,255.86,1.01,92.36-26.47,179.89-93.63,249.57-5.04,5.23-10.81,9.85-15.28,15.51-8.65,10.98-10.07,26.2-5.23,36.39,5.81,12.22,21.46,17.62,35.89,15.62,24.49-3.4,46.59-14.65,64.47-30.84,60.82-55.1,93.22-123.74,103.03-206.02,7.31-61.24,7.04-121.72-1.66-181.85-14.47-100-54.23-189.99-122.93-264.84C732.44,72.94,611.32,22.99,473.32,9.69c-81.51-7.85-161.6-4.66-237.21,31.01-47.54,22.43-85.93,54.33-118.79,97.22-23,30.02-42.11,60.75-61.24,92.96-24.99,42.07-30.54,88.4-40.98,133.45-10.44,45.06-10.4,92.28-6.6,138.41,7.14,86.56,12.32,174.26,70.34,246.59,10.95,13.65,6.38,30.9,8.67,46.28,5.38,36.13,10.79,72.1,18.55,107.88,5.27,24.32,19.25,39.33,40.8,45.48,22.19,6.33,38.31-8.22,52.22-24.02.96-1.09,2.61-1.89,2.99-3.11,12.45-39.73,43.42-48.96,80.2-49.34,47.65-.49,86.67-18.11,114.22-58.34,1.46-2.14,5.95-2.2,9.04-3.22" fill="none" stroke="#000" stroke-linecap="round" stroke-linejoin="round" stroke-width="12.33"/><path d="M707.5,206.96c8.22,10.27,16.43,20.54,24.65,30.81-4.97,15.81-3.78,29.25,1.35,46.73,11.86,40.48,19.19,82.9,20.33,125.83,2.81,106.6-3.32,212.2-37.35,314.22-16.96,50.84-29.63,105.09-57.13,149.89-29.13,47.45-60.03,94.74-92.81,140.42-29.34,40.89-72.16,54.64-114.96,69.84-22.75,8.08-65.79-19.22-70.49-42.71-4.37-21.85,6.72-33.14,27.38-40.4,58.71-20.6,59.92-21.42,55.04-82.77-2.8-35.21-8.88-71.29-39.6-95.44-31.24-24.56-37.37-61.43-45.01-95.9-5.18-23.37-8.48-49.06-1.1-73.71" fill="none" stroke="#000" stroke-linecap="round" stroke-linejoin="round" stroke-width="12.33"/><path d="M300.75,447.31c27.92,31.33,67.59,40.33,105.01,48.16,53.66,11.22,94.33,36.08,119.79,84.42,13.57,25.76,34.49,40.03,61.51,49.96,19.34,7.11,38.9,18.88,37.26,45.48-1.49,24.1-18.22,36.78-37.15,45.87-20.56,9.87-40.71-1.03-57.98-9.68-22.18-11.11-42.55-26.69-61.75-42.68-22.15-18.45-47.33-21.16-74.23-21.38-43.2-.36-86.66,4.03-129.42-6.02" fill="none" stroke="#000" stroke-linecap="round" stroke-linejoin="round" stroke-width="12.33"/><path d="M661.28,884.88c3.08,4.11,8.06,7.84,8.95,12.38,8.95,45.31-37.97,136.75-80.04,153.48-12.52,4.98-28.78,11.28-39.85-5.63" fill="none" stroke="#000" stroke-linecap="round" stroke-linejoin="round" stroke-width="12.33"/><path d="M306.91,780.11c1.4-28.24-9.08-42.76-33.91-46.14-11.23-1.53-22.59-2.14-33.88-3.17" fill="none" stroke="#000" stroke-linecap="round" stroke-linejoin="round" stroke-width="12.33"/><path d="M29.58,327.14c18.49,3.08,36.89,7.28,55.5,8.79,9.79.8,9.94,6.91,12.29,12.78" fill="none" stroke="#000" stroke-linecap="round" stroke-linejoin="round" stroke-width="12.33"/><path d="M134.35,259.34c-26.07-6.18-47.22-22.66-70.87-33.9" fill="none" stroke="#000" stroke-linecap="round" stroke-linejoin="round" stroke-width="12.33"/><path d="M122.02,142.25c14.82,15.99,39.03,22.6,46.22,46.22" fill="none" stroke="#000" stroke-linecap="round" stroke-linejoin="round" stroke-width="12.33"/></g></svg>