<?xml version="1.0" encoding="UTF-8"?><svg id="b" xmlns="http://www.w3.org/2000/svg" viewBox="0 0 1177.8 936.02"><g id="c"><path d="M287.39,475.97c-16.91,41.26-54.3,67.85-75.05,107.05-33.48,63.28-53.51,127.98-31.95,198.54,26.58,86.96,110.95,147.77,195.13,148.92,69.61.96,131.25-20.71,190.61-56.98,47.24-28.86,88.52-63.4,125.81-103.13,26.89-28.66,61.93-44.06,94.07-64.26,15.05-9.46,32.99-9,49.33-6.23,9.03,1.53,16.66,1.49,24.93-.82" fill="none" stroke="#000" stroke-linecap="round" stroke-linejoin="round" stroke-width="11.02"/><path d="M879.54,484.24c1.58,14.54,7.34,26.88,16.32,38.71,50.22,66.15,78.78,153.91,78.25,228.45-.51,71.71-52.13,152.12-135.78,173.9-25.44,6.62-49.9,5.86-74.42-.56-55.41-14.51-113.01-24.17-157.03-65.93" fill="none" stroke="#000" stroke-linecap="round" stroke-linejoin="round" stroke-width="11.02"/><path d="M314.93,280.43c7.3,44.52-17.09,79.28-39.39,112.36-26.47,39.28-66.77,63.47-112.16,77.47-20.68,6.38-40.73,7.65-49.67-19.03-1.66-4.96-5.1-9.41-8.15-13.8-24.5-35.25-40.94-38.63-79.83-16.55-17.93,10.18-25.47,29.23-16.33,46.72,24.27,46.42,60.35,75.48,115.48,74.45,22.97-.43,45.69,5.49,69.1-1.97,11.58-3.69,26.4-3.65,38.31,4.73" fill="none" stroke="#000" stroke-linecap="round" stroke-linejoin="round" stroke-width="11.02"/><path d="M706.02,84.88c0-.92.39-2.15-.06-2.71-7.88-9.68-29.25-11.16-26.18-24.54,3.66-15.96,15.3-31.32,26.9-43.75,6.96-7.45,20.12-6.75,29.67,2.1,23.51,21.81,34.91,51.02,43.26,80.13,10.54,36.72,12.03,76.15,23.56,112.46,20.8,65.52,29.28,136.46,78.98,190.41,39.2,42.56,85.55,71.51,143.4,79.45,15.83,2.17,28.65,1.58,33.97-21.52,12.06-52.45,63.39-65.24,100.98-27.8,13.87,13.82,13.94,29.88,8.18,46.84-20.07,59.16-66.52,80.59-123.91,85.22-25.82,2.08-52,1.09-76.96-5.83-14.82-4.11-29.31-4.85-44.21-5.01" fill="none" stroke="#000" stroke-linecap="round" stroke-linejoin="round" stroke-width="11.02"/><path d="M458.15,57.34c1.21-9.78-9.94-12.57-11.56-21.94-2.96-17.13-14.94-29.27-32.52-29.87-18.65-.63-26.21,14.76-33.14,29.73-20.7,44.72-29.2,92.58-39.42,140.3-4.52,21.11,2.1,45.61-15.56,63.55" fill="none" stroke="#000" stroke-linecap="round" stroke-linejoin="round" stroke-width="11.02"/><path d="M791.4,701.82c-15.48-27.85-45.94-18.79-69.13-26.73-40-13.7-75.28,6.12-109.93,23.89-13.72,7.03-26.12,19.07-44.13,11.35-6.25-2.68-9.26,4.87-13.83,7.75-22.94,14.42-42.56,32.73-60.08,52.89-11.74,13.5-25.28,18.64-41.59,15.85-9.53-1.63-18.32-.56-27.63-.21-18.39.7-37.31-1.66-46.7-21.5-8.65-18.28-5.59-36.58,5.69-52.08,17.96-24.67,41.32-39.08,74.11-36.43,26.58,2.15,53.55-1.06,79.85,5.88,13.55,3.58,23.5,10.85,27.53,24.83" fill="none" stroke="#000" stroke-linecap="round" stroke-linejoin="round" stroke-width="11.02"/><path d="M675.73,57.34c-13.96,5.92-25.83-3.63-38.47-5.97-56.64-10.48-112.31-13.71-168.34,5.22-16.15,5.45-22.16,22.39-38.31,25.54" fill="none" stroke="#000" stroke-linecap="round" stroke-linejoin="round" stroke-width="11.02"/><path d="M659.2,900.12c-27.76,25.1-61.93,13.87-93.64,16.52-14.13,1.18-26.96-1.15-35.8-13.76" fill="none" stroke="#000" stroke-linecap="round" stroke-linejoin="round" stroke-width="11.02"/><path d="M477.43,145.47c-12.41,23.46-39.88,31.6-74.36,22.03" fill="none" stroke="#000" stroke-linecap="round" stroke-linejoin="round" stroke-width="11.02"/><path d="M535.26,164.75c20.87-.53,28.44,10.51,27.7,30.3-.72,19.25-.16,38.55-.16,57.83" fill="none" stroke="#000" stroke-linecap="round" stroke-linejoin="round" stroke-width="11.02"/><path d="M706.02,167.5c-25.25.47-50.97,2.99-71.61-16.53" fill="none" stroke="#000" stroke-linecap="round" stroke-linejoin="round" stroke-width="11.02"/><path d="M898.82,280.43c-22.95,1.82-45.9-7.11-68.85,0" fill="none" stroke="#000" stroke-linecap="round" stroke-linejoin="round" stroke-width="11.02"/><path d="M359,655c21.37,3.4,44.28,3.17,57.84,24.79" fill="none" stroke="#000" stroke-linecap="round" stroke-linejoin="round" stroke-width="11.02"/><path d="M882.29,233.6c-22.5-1.8-42.8,6.57-63.35,13.77" fill="none" stroke="#000" stroke-linecap="round" stroke-linejoin="round" stroke-width="11.02"/><path d="M273.62,261.15c-.92,2.75-3.47,6.48-2.5,8.11,11.29,19.02,29.4,3.4,44.19,6.77,6.64,1.52,14.01-17.92,12.66-28.56-1.75-13.75-15.41-16.1-26.71-13.47-16.01,3.71-19.25-4.05-19.37-16.92" fill="none" stroke="#000" stroke-linecap="round" stroke-linejoin="round" stroke-width="11.02"/><path d="M626.15,250.13c-9.93,19.82-26.98,20.9-43.82,13.23-12.61-5.75-25.28-9.58-35.61-1.63-11.14,8.57-20.63,1.35-30.74,2.18" fill="none" stroke="#000" stroke-linecap="round" stroke-linejoin="round" stroke-width="11.02"/></g></svg>