<?xml version="1.0" encoding="UTF-8"?><svg id="b" xmlns="http://www.w3.org/2000/svg" viewBox="0 0 776.98 1102.62"><g id="c"><path d="M24.15,287.7c-15.01-6.98-29.97-15.41-21.88-35.11,6.22-15.15,21.38-16.85,36.37-15.8,36.15,2.54,72.31,4.87,108.46,7.45,19.46,1.39,23.3-6.77,20.91-25.63-4.83-38.06-21.65-72.06-31.83-108.19-4.84-17.16-12.96-40.3,6.12-52.29,18.72-11.77,37.39,2.4,49.91,16.36,19.51,21.76,38.9,18.47,63.69,10.43,48.16-15.61,96.58-28.56,113.59-84.92h37.97c37.25,69.51,7.08,145.25,19.86,217.08,2.18,12.23.63,25.13.81,37.72-2.02,1.16-4.05,2.32-6.07,3.49-20.91-5.51-17.81-22.52-18.94-38.17-3.29-45.44-11.64-90.54-2.03-136.47,3.13-14.95-.4-31.52-16.97-47.2-26.34,32.75-55.05,60.43-100.17,68.89-41.02,7.68-79.61,25.24-120.15-24.71,3.61,58.79,27.82,98.56,36.04,142.16,2.29,12.13,18.65,15.98,31.01,19.03,22.97,5.68,44.4,16.32,67.99,20.12,22.39,3.6,62.55,2.23,57.26,26.05-7.19,32.37-45.46,16.92-68.94,9.57-68.5-21.42-137.73-33.5-209.59-29.36-15.31.88-32.14-4.71-42.82,12.14-2.52,3.94-6.03,6.43-10.59,7.36Z" stroke-width="0"/><path d="M656.3,322.66c2.15-26.14-18.14-68.01,17.02-73,33.73-4.78,28.8,40.64,38.27,65.63,7.22,19.06,13.39,39.3,24.6,55.93,50.15,74.38,46.96,152.82,28.03,236.28-23.73,104.62-36.69,211.25-29.35,319.02,2.61,38.27-.97,76-5.71,113.42-5.74,45.33-96.13,79.98-133.5,53.44-13.98-9.93-18.39-21.2-7.56-35.76,3.75-5.04,8.53-9.31,12.86-13.91,60.97-64.66,64.71-95.69,19.56-171.78-11.64-19.62-25.86-36.32-52.91-30.54-29.9,6.39-29.89,28.02-26.89,51.38,7.17,55.84-15.69,93.02-66.5,117.73-47.65,23.18-89.55,61.21-149.17,44.99-18.4-5.01-40.49-5.09-40.91-30.35-.37-22.31,19.44-25.9,36.48-29.98,13.81-3.3,27.98-5.29,41.53-9.39,54.32-16.44,72.69-48.97,59.02-103.64-6.5-26.01-13.47-51.73-14.07-78.96-2.09-94.29-7.39-109.53-62.78-190.79-32.97,36.19-65.44,13.79-98.08-1.37-21.26-9.88-41.09-19.8-50.46,15.01-4.01,14.89-18.64,21.59-34.6,17.26-16.28-4.41-27.17-13.77-28.95-32.76-4.44-47.39,34.85-102.66,83.01-108.64,22.36-2.77,21.49-12.88,18.97-27.97-2.08-12.44-4.96-24.75-7.01-37.2-5.62-34.26,14.46-79.88-41.15-91.81-34.9-7.48-67.29-26.71-105.87-15.8-33.45,9.45-61.79,5.36-56.08-41.41,2.38-1.99,4.73-4.03,7.03-6.12,20.82,15.59,43.21,21,70.08,20.54,47.98-.82,94.69,10.7,134.37,39.11,19.55,14,42.36,29.68,18.9,61.45-11.58,15.68,1.72,36.77,3.08,55.44,2.36,32.39-1.29,58.62-39.26,70.27-30.36,9.32-48.35,32.58-52.3,75.75,37.19-36.39,71.18-28.52,105.52-12.17,21.24,10.11,38.8,10.92,49.81-15.54,12.06-28.97,26.05-15,36.09,1.51,36.08,59.36,74.84,117.3,73.2,191.9-.76,34.57,8.4,68.93,15.95,102.89,16.55,74.49-4.46,112.34-76.66,138.08-13.33,4.75-27.85,5.65-40.67,12.68,80.15,21.25,176.61-48.99,179.32-131.01,1.16-35.19,5.61-67.35,47.42-76.71,37.51-8.4,69.53,7.23,89.99,45.51,15.72,29.41,24.54,61.62,33.19,93.68,6.85,25.39-3.62,46-18.49,65.8-10.08,13.42-27.3,21.8-30.28,40.72,46.44,8.43,63.02-.92,72.95-40.88,5.79-23.3,4.65-47.12,4.56-70.81-.46-132.81.24-265.4,39.14-394.4,14.44-47.89,3.68-93.84-16.94-137.83-18.1-38.6-39.77-75.63-49.84-118.02-8.45,4.63-6.67,14.2-11.66,19.97-3.27,4.56-7.39,5.58-12.37,3.14Z" stroke-width="0"/><path d="M656.3,322.66c2.49-.03,4.98,0,7.46.06,81.1,57.48,107.19,184.79,53.85,262.75-22.55,32.97-41.25,37.43-68.44,8.84-88.36-92.92-162.8-196.3-223.18-309.59-4.51-8.46-7.08-17.63-1.2-26.86,0,0,3.31-3.05,3.32-3.06,28.7,21.33,41.46,54.12,58.93,83.3,48.65,81.25,106.3,155.33,171.12,224.33,23.11,24.6,34.53,18.18,45.97-8.49,21.79-50.83,25.81-100.19-10.46-146.59-19.66-25.16-34.25-52.34-37.37-84.69Z" stroke-width="0"/><path d="M424.8,257.86c64.21,121.67,140.96,234.11,238.01,332.55,21.48,21.79,27.99,17.8,42.25-5.55,43.08-70.55,43.74-126.48-4.81-191.77-16.25-21.85-22.33-47.99-36.48-70.37,5.38-19.2-7.12-41.25,8.67-58.77,3.29.26,7.94-.15,8.21.76,18.98,63.28,49.13,121.91,74.26,182.62,11.65,28.14,15.89,61.64,7.27,93.3-40.68,149.29-45.09,301.83-44,455.26.49,69.15-32.97,95.97-97.65,87.49-20.45-2.68-25.86-9.9-10.56-26.22,2.16-2.31,4.47-4.47,6.58-6.82,59.8-66.55,63.88-107.81,18.61-186.77-17.58-30.67-42.95-47.22-78.58-37.73-35.32,9.4-38.47,37.31-33.79,68.07,7.37,48.46-11.52,82.69-56.08,103.1-40.82,18.7-75.03,54.32-125.86,47.33-15.52-2.13-31.35-1.2-42.61-16.19,9.39-21.41,30.19-19.19,47.86-23.18,84.43-19.04,107.48-55.74,87.28-137.57-4.91-19.87-12.26-40.65-10.65-60.37,7.65-93.36-39.58-166.03-85.7-240.32-10.04,51.32-22.55,58.43-67.5,39.47-33.37-14.08-69.36-43.75-90.95,15.34-1.22,3.35-11.06,5.33-16.66,4.91-9.7-.73-10.85-9.21-12.09-17.32-6.31-41.23,29.5-91.72,71.95-94.44,26.07-1.67,28.24-13.55,25.58-33.18-2.97-21.89-5.37-43.89-9.2-65.63-4.05-22.93,2.6-34.89,34.75-26.85-55.49-58.59-118.28-84.19-188.12-73.38-37.02,5.73-45.96-6.56-53.61-34.07-4.26-7.73-16.79-12.79-11.26-23.53,5.07-9.84,15.71-7.6,25.41-6.42,82.52,10.06,167.37,2.89,246.94,35.04,18.94,7.65,39.78,8.82,61.33,2.12-45.39-13.15-91.41-23.59-136.42-37.38-25.32-7.76-38.8-18.81-37.64-44.95,1.4-31.58-16.22-57.11-25.22-85.43-4.95-15.58-8.35-33.27,3.91-56.55,42.65,60.17,93.48,36.45,147.56,22.93,33.95-8.49,44.18-31.67,60.45-53.8,6.25-8.51,10.69-22.23,24.01-18.98,11.42,2.79,14.53,14.87,17.49,25.87,6.24,23.26,5.33,45.93,2.88,70.02-5.03,49.56-4.32,99.58,14.19,147.35Z" fill="#fefefe" stroke-width="0"/></g></svg>