<?xml version="1.0" encoding="UTF-8"?><svg id="b" xmlns="http://www.w3.org/2000/svg" viewBox="0 0 673.27 1177.36"><g id="c"><path d="M673.27,879.71c-.19,102.91-45.59,164.17-136.5,193.13-23.22,7.4-33.4,14.83-20.09,39.62,8.06,15.02,9.49,32.67-5.76,45.36-17.93,14.93-38.89,17.01-60.18,8.14-25.28-10.53-38.2-31.87-46.09-56.83-2.34-7.38-3.92-15-5.97-22.48-2.9-10.62-10.61-19.43-20.66-15.76-14.19,5.18-3.95,16.57-.89,24.31,16.63,42.08,13.3,61.38-14.08,74.71-33.27,16.18-72.79,5.33-91.9-26.08-14.87-24.44-21.07-52.09-25.92-79.83-5.92-33.91-17.48-64.77-37.54-93.4-41.32-58.95-63.38-126.17-78.42-195.94-2.04-9.48-3.61-19.09-6.24-28.41-1.91-6.76-1.14-18.35-10.68-17.01-6.44.9-3.29,11.75-3.66,18.19-2.1,36.7-23.97,54.83-56.06,46.48-16.14-4.2-26.89-14.98-35.39-28.43-24.67-39.05-22.83-85.85,5.21-123.26,8.37-11.17,7.3-23.7,7.54-36.22.75-39.8-10.31-78.61-7.73-118.84,6.43-100.49,61.66-164.46,149.4-204.24,17.58-7.97,26.85-9.14,7.96-28.47-70.76-72.43-47.18-191.4,44.75-233.47,48.54-22.21,97.49-29.28,149.24-8.95,72.67,28.55,115.13,97.01,105.83,175.02-1.5,12.62-4.78,24.81-11.61,35.71-11.14,17.78-27.99,24.29-47.58,20.01-18.23-3.99-26.71-18.21-28.5-36.22-2.02-20.25-3-40.62-5.51-60.8-4.5-36.18-47.9-67.79-84.36-62.12-49.5,7.7-73.57,39.3-64.77,85.02,7.03,36.54,50.69,85.28,87.76,88.53,140.56,12.33,218.82,159.91,216.3,276.14-.9,41.63-5.69,83.17-8.41,124.77-1.5,22.81,4.29,44.27,13.43,64.95,6.9,15.6,14.1,20.21,25.58,2.76,10.25-15.57,17.89-38.67,42.17-33.5,22.73,4.84,24.28,28.61,29.44,46.55,14.47,50.32,26.91,101.18,29.9,140.85ZM456.57,167.53c-1.07-80.19-49.03-136.17-122.3-145.1-80.97-9.87-152.93,31.48-169.57,99.37-12.7,51.81,3.83,95.1,42.65,131.25,26.85,25,25.39,27.52-8.75,40.28-73.01,27.28-127.2,74.09-149.11,151.41-11.04,38.94-6.19,78.76-1.87,118.46,3.42,31.45,11.37,64.43-9.55,92.99-21.14,28.86-23.54,68.86-3.67,99.01,8.6,13.05,19.78,22.32,36.17,18.61,16.95-3.84,18.22-17.88,17.6-32.29-1.07-24.75,7.96-42.03,32.26-52.63,34.35-14.98,52.57-41.68,49.2-80.86-.6-7.04-3.71-17.95,7.33-18.86,9.93-.82,10.69,9.63,11.73,17.13,5,36.06-7.77,64.41-36.82,86.27-7.67,5.77-20.75,9.15-15.94,24.08,19.04,59,24.86,122.42,54.33,177.74,37.79,70.92,75.51,140.99,90.46,221.63,5.98,32.24,32.05,43.92,61.95,38.93,14.28-2.38,29.08-13.44,23.37-23.78-16.76-30.33-1.05-76.92-46.19-93.08-7.39-2.65-18.2-9.52-12.88-19.37,6.1-11.29,15.75-2.17,22.35,1.86,34.45,21.02,71.33,34.14,111.34,40.19,129.51,19.58,223.92-70.45,208.42-199.58-4.99-41.56-15.54-81.95-26.26-122.26-2.32-8.71-1.83-22.31-13.26-23.38-10.69-1-15.45,11.12-19.06,19.64-13.32,31.42-33.32,44.29-68.52,33.72-19.06-5.72-40.72-7.03-60.62-4.88-45.51,4.91-71.04-12.44-77.46-58.39-1.24-8.86-3.73-20.73-15.21-22.78-12.5-2.23-18.94,8.48-25.11,16.83-23.32,31.54-38.74,67.05-51.08,104.09-1.93,5.79-2.77,15.59-11.89,13.82-9.08-1.76-7.19-11.05-5.49-16.97,13.55-47.02,31.12-92.34,67.19-127.17,22.96-22.17,43.18-16.87,56.14,13.16,4.98,11.55,8.97,23.59,12.55,35.67,3.77,12.74,10.89,19.26,24.85,19.79,26.12,1.01,52.2,3.25,78.28,5.24,14.48,1.1,20.6-2.38,12.66-17.81-13.27-25.82-13.88-53.87-14.14-82.29-.44-46.62,10.74-92.47,6.65-139.38-7.71-88.4-69.38-214.11-185.99-228.28-56.47-6.86-88.88-44.72-111.53-91.82-18.5-38.46-7.08-81.61,25.18-104.61,33.34-23.78,69.12-28.67,107.05-10.07,36.52,17.91,56.11,46.35,57.1,87.39.37,15.48.94,31.02,2.79,46.37.93,7.74,5.36,14.74,14.73,15.77,9.85,1.08,16.75-3.16,21.34-11.78,7.68-14.43,5.72-30.22,6.6-43.25ZM450.07,1081.84c-9.1,2.22-27.52-5.75-24.63,15.73,2.96,21.98,15.15,39.9,35.82,49.42,19.19,8.83,39.94-2.39,38.64-19.41-2.03-26.47-21.98-45.39-49.83-45.74Z" stroke-width="0"/><path d="M456.57,167.53c-.88,13.04,1.08,28.82-6.6,43.25-4.59,8.62-11.49,12.86-21.34,11.78-9.38-1.03-13.8-8.03-14.73-15.77-1.85-15.35-2.42-30.89-2.79-46.37-.99-41.05-20.58-69.48-57.1-87.39-37.93-18.6-73.71-13.71-107.05,10.07-32.26,23.01-43.68,66.15-25.18,104.61,22.66,47.1,55.06,84.97,111.53,91.82,116.61,14.16,178.29,139.87,185.99,228.28,4.09,46.91-7.09,92.76-6.65,139.38.27,28.42.87,56.47,14.14,82.29,7.93,15.44,1.82,18.92-12.66,17.81-26.08-1.99-52.16-4.23-78.28-5.24-13.97-.54-21.08-7.05-24.85-19.79-3.58-12.08-7.57-24.12-12.55-35.67-12.95-30.03-33.17-35.33-56.14-13.16-36.07,34.83-53.63,80.16-67.19,127.17-1.71,5.92-3.59,15.21,5.49,16.97,9.12,1.77,9.96-8.03,11.89-13.82,12.35-37.04,27.76-72.55,51.08-104.09,6.17-8.35,12.61-19.05,25.11-16.83,11.48,2.04,13.97,13.92,15.21,22.78,6.42,45.95,31.96,63.3,77.46,58.39,19.9-2.15,41.55-.84,60.62,4.88,35.2,10.57,55.2-2.3,68.52-33.72,3.61-8.52,8.37-20.63,19.06-19.64,11.43,1.07,10.94,14.67,13.26,23.38,10.73,40.31,21.27,80.7,26.26,122.26,15.5,129.13-78.91,219.17-208.42,199.58-40.01-6.05-76.89-19.17-111.34-40.19-6.6-4.03-16.25-13.15-22.35-1.86-5.33,9.86,5.48,16.73,12.88,19.37,45.13,16.16,29.43,62.75,46.19,93.08,5.71,10.34-9.08,21.39-23.37,23.78-29.9,4.99-55.97-6.69-61.95-38.93-14.95-80.64-52.67-150.71-90.46-221.63-29.47-55.32-35.29-118.74-54.33-177.74-4.82-14.93,8.27-18.31,15.94-24.08,29.05-21.86,41.82-50.21,36.82-86.27-1.04-7.51-1.8-17.95-11.73-17.13-11.04.91-7.93,11.82-7.33,18.86,3.37,39.17-14.85,65.87-49.2,80.86-24.3,10.6-33.33,27.88-32.26,52.63.62,14.41-.65,28.45-17.6,32.29-16.39,3.71-27.57-5.56-36.17-18.61-19.86-30.15-17.46-70.15,3.67-99.01,20.92-28.56,12.97-61.54,9.55-92.99-4.32-39.7-9.16-79.52,1.87-118.46,21.91-77.32,76.1-124.12,149.11-151.41,34.14-12.76,35.6-15.28,8.75-40.28-38.83-36.15-55.35-79.44-42.65-131.25C181.35,53.91,253.3,12.56,334.27,22.43c73.27,8.93,121.22,64.92,122.3,145.1ZM527.25,928.22c-1.15-5.81-5.55-8.65-10.43-6.86-21.71,7.96-47.02-27.46-66.81,5.44-.32.54-6.98-1.99-10.05-4.03-5.53-3.68-11-5.3-14.68,1.28-3.13,5.6-1.15,13.91,3.66,15.47,22.11,7.18,19.87,27.05,25.47,43.45,7.44,21.77,27.68,28.46,35.58,12.13,10.39-21.47,11.01-48.01,35.43-61.45,1.21-.67,1.23-3.51,1.83-5.43ZM592.36,939.92c-8.95,2.38-21.94-3.62-27.83,8.08-3.46,6.86-13.21,14.94-5.98,23.11,10.15,11.47,25.17,12.51,39.75,12.04,5.69-.18,12.54-.58,14.02-7.36,1.62-7.43-4.85-9.21-10.46-10.8-3.42-.97-6.87-1.84-10.3-2.76,2.67-.69,5.31-1.51,8.01-2.05,8.38-1.68,19.8-2.48,16.41-14.35-3.17-11.1-14.8-4.52-23.61-5.92ZM581.75,923.36c12.01-2.88,21.44-9.4,21.14-23.15-.32-14.8-9.62-23.54-24.12-23.08-12.89.41-22.34,8.58-21.92,22.14.45,14.44,10.22,22.06,24.89,24.09ZM364.1,908.11c13.77-.58,24.23-6.11,24.45-21.81.19-13.68-7.87-21.39-21.43-22.08-14.82-.76-24.5,6.62-24.86,21.6-.32,13.26,7.62,21.18,21.84,22.29ZM346.97,967c12.81-3.5,34.85,5.55,35.11-10.26.29-17.57-21.46-6.38-33.05-9.7-.89-.25-1.93-.17-2.86,0-11.5,2-32.32-5.01-31.98,8.97.43,17.84,21.84,6.45,32.78,11ZM358.27,943.4c8.78-2.38,23.19,4.42,23.66-9.62.35-10.51-13.09-8.45-21.21-10.2-.94-.2-1.98-.46-2.88-.25-12.56,2.92-34.45-12.87-36.02,6.76-1.16,14.49,23.08,10.74,36.44,13.31Z" fill="#fff" stroke-width="0"/><path d="M450.07,1081.84c27.85.35,47.8,19.27,49.83,45.74,1.3,17.02-19.45,28.24-38.64,19.41-20.67-9.52-32.87-27.44-35.82-49.42-2.89-21.48,15.53-13.51,24.63-15.73Z" fill="#fff" stroke-width="0"/><path d="M527.25,928.22c-.6,1.92-.62,4.76-1.83,5.43-24.42,13.45-25.04,39.98-35.43,61.45-7.9,16.33-28.15,9.65-35.58-12.13-5.6-16.4-3.37-36.27-25.47-43.45-4.81-1.56-6.79-9.87-3.66-15.47,3.68-6.59,9.15-4.97,14.68-1.28,3.07,2.05,9.73,4.57,10.05,4.03,19.79-32.9,45.1,2.52,66.81-5.44,4.89-1.79,9.29,1.05,10.43,6.86Z" stroke-width="0"/><path d="M592.36,939.92c8.82,1.4,20.44-5.18,23.61,5.92,3.39,11.87-8.03,12.67-16.41,14.35-2.7.54-5.34,1.36-8.01,2.05,3.44.92,6.88,1.79,10.3,2.76,5.61,1.58,12.08,3.37,10.46,10.8-1.48,6.79-8.34,7.18-14.02,7.36-14.58.47-29.6-.57-39.75-12.04-7.23-8.17,2.52-16.25,5.98-23.11,5.9-11.7,18.88-5.7,27.83-8.08Z" stroke-width="0"/><path d="M581.75,923.36c-14.68-2.03-24.44-9.65-24.89-24.09-.42-13.56,9.03-21.73,21.92-22.14,14.5-.46,23.79,8.29,24.12,23.08.3,13.75-9.13,20.26-21.14,23.15Z" stroke-width="0"/><path d="M364.1,908.11c-14.22-1.11-22.16-9.04-21.84-22.29.36-14.99,10.04-22.36,24.86-21.6,13.55.7,21.61,8.41,21.43,22.08-.21,15.7-10.68,21.24-24.45,21.81Z" stroke-width="0"/><path d="M346.97,967c-10.94-4.55-32.35,6.85-32.78-11-.34-13.98,20.48-6.97,31.98-8.97.93-.16,1.98-.25,2.86,0,11.6,3.32,33.34-7.87,33.05,9.7-.26,15.81-22.3,6.76-35.11,10.26Z" stroke-width="0"/><path d="M358.27,943.4c-13.36-2.57-37.59,1.18-36.44-13.31,1.57-19.63,23.45-3.84,36.02-6.76.89-.21,1.94.05,2.88.25,8.12,1.75,21.56-.31,21.21,10.2-.47,14.03-14.89,7.24-23.66,9.62Z" stroke-width="0"/><path d="M549.69,756.39c-28.35-53.22-28.35-108.49-21.63-167.68,13.64-120.19-17.27-225.47-124.02-296.96-24.48-16.4-53.41-18.95-81.49-23.29-54.97-8.5-110.94-91.34-96.08-142.88,11.62-40.3,75.62-64.92,116.62-46.95,41.66,18.26,58.54,50.06,58.1,93.57-.09,8.74-.51,17.52.09,26.22,1.1,15.88,1.04,32.17,23.16,35.2,21.95,3.01,33.99-8.3,40.62-26.52,23.29-63.97-22.79-158.88-87.09-183.73C317.21-.12,259.76,8.14,206.34,41.49c-65.98,41.18-73.74,143.19-26.43,197.7,2.69,3.1,5.83,5.82,8.7,8.77,27.29,28.06,27.15,27.72-11.61,43.77-88.93,36.82-154.92,120.01-142.89,227.22,3.15,28.03,4.57,56.29,5.84,84.48.98,21.75-.52,39.13-21.46,57.28-18.02,15.62-10.06,48.82-4.08,73.71,5.9,24.58,18.6,46.06,46.13,52.42,19.11,4.42,36.35-11.24,38.02-31.89,1.29-16.02-8.24-42.2,11.69-44.67,22.29-2.77,22.08,25.53,25.43,41.85,18.12,88.43,47.92,170.87,100.96,245.7,17.26,24.34,16.89,61.13,24.83,92.17,5.01,19.57,10.52,38.49,22.83,55.67,18.01,25.14,43.74,23.12,67.23,19.15,25.3-4.27,35.03-33.95,20.1-57.04-11.11-17.19-14.37-33.75-8.3-52.73" fill="none" stroke="#000" stroke-linecap="round" stroke-linejoin="round" stroke-width="11.66"/><path d="M494.36,1078.35c-1.32,11.8,8.13,19.54,11.05,29.32,4.6,15.4,16.42,33.88-5.33,46.26-16.96,9.65-35.98,10.58-51.87-.46-9.02-6.27-18.45-14.2-24.01-25.45-7.83-15.85-17.91-34.21-12.91-49.21,6.82-20.47,28.24-6.19,42.27-5.58,67.81,2.98,126.65-16.34,171.45-68.05,33.66-38.85,42.54-86.04,35.4-136.63-6.72-47.56-15.92-94.36-31.33-140.11-4.08-12.12-5.67-25.21-18.41-28.23-13.29-3.16-19.24,11.74-22.44,20.03-16.89,43.76-52.66,39.87-88.05,37.43-11.73-.81-24.09-7.33-34.82-5.03-49.77,10.69-65.97-17.87-76.36-58.76-7.45-29.33-23.06-33.05-42.94-11.58-36.53,39.46-54.78,88.28-67.19,139.65" fill="none" stroke="#000" stroke-linecap="round" stroke-linejoin="round" stroke-width="11.66"/><path d="M179.88,597.59c11.29,54.17-25.97,81.13-61.15,109.26" fill="none" stroke="#000" stroke-linecap="round" stroke-linejoin="round" stroke-width="11.66"/><path d="M310.91,1014.25c14.53,22.39,39.31,29.49,61.23,40.63,13.15,6.69,27.1,11.81,40.69,17.64" fill="none" stroke="#000" stroke-linecap="round" stroke-linejoin="round" stroke-width="11.66"/><path d="M377.89,955.97h-58.24" fill="none" stroke="#000" stroke-linecap="round" stroke-linejoin="round" stroke-width="11.66"/><path d="M331.3,929.75c17.47,1.94,34.94,3.89,52.41,5.83" fill="none" stroke="#000" stroke-linecap="round" stroke-linejoin="round" stroke-width="11.66"/><path d="M430.3,926.84c20.35,16.64,59.69,17.96,87.36,2.91" fill="none" stroke="#000" stroke-linecap="round" stroke-linejoin="round" stroke-width="11.66"/><path d="M564.25,947.23c14.24,5.75,29.13,1.74,43.68,2.91" fill="none" stroke="#000" stroke-linecap="round" stroke-linejoin="round" stroke-width="11.66"/><path d="M587.54,899.16c-8.85,5.21-7.95-3.23-10.19-7.28" fill="none" stroke="#000" stroke-linecap="round" stroke-linejoin="round" stroke-width="11.66"/></g></svg>