<?xml version="1.0" encoding="UTF-8"?><svg id="b" xmlns="http://www.w3.org/2000/svg" viewBox="0 0 725.39 1203.97"><g id="c"><path d="M326.08,744.47c11.19-40.62,41.93-69.88,61.59-105.66,26.16-47.62,32.27-94.24,2.12-141.94-40.95-64.78-31.03-140.36-42.35-210.97-6.7-41.77,25.2-23.96,44.45-14.38,15.98,7.96,32.14,29.28,39.73-7.83,3.27-16.01,12.89-12.64,27.06-7.48,117.46,42.85,116.04,41.92,142.69-74.27,9.98-43.52,8.24-87.48,13.71-131.02,3.53-28.13,21.09-42.11,38.75-48.15,15.73-5.38,43.08-4.47,54.32,16.61,10.33,19.38,30.74,40.19,4.1,63.98-14.48,12.93-10.41,32.31-9.98,49.23,3.38,131.65-13.06,262.46-16.35,393.57-1.97,78.53-.97,154.2-37.05,226.07-30.45,60.64-68.38,115.95-113.01,166.81-15.21,17.33-26.86,30.7-10.17,57.94,27.38,44.68-1.84,81.99-28.18,117.14-11.83,15.78-29.62,26.06-24.9,52.73,6.77,38.28-19.41,50.77-51.3,42.26-44.1-11.76-92.67-13.93-131.88-58.95-5.84,35.11,2.67,72.11-42.96,73.7-45.69,1.59-69.92-22.47-86.44-60.46-10.67-24.52-17.68-50.91-8.43-75.62,14.24-38.04,30.02-69.09-3.29-110.34-25.39-31.45-40.17-70.65-77.32-94.12-25.3-15.98-54.62-31.64-56.48-68.31,68.55,28.52,117.6,78.67,156.2,139.21,4.71-39.66-11-78.59-43.12-101.8-28-20.23-61.49-31.1-89.08-52.67-18.46-14.43-12.66,14.48-23.23,16.17-19.75-9.84-14.35-29.07-15.19-44.92-.39-7.32,4.87-17.66,10.9-22.03,11.11-8.06,19.88,2.4,25.36,10.16,21.15,29.96,52.35,43.71,84.82,56.27,42.16,16.3,66.14,48.2,75.89,101.74,54.69-47.79,72.88-118.03,129.66-153.38,14.86,26.06-4.2,44.42-18.44,58.86-70.29,71.27-89.44,166.08-119.24,255.46-12.13,36.38-11.27,76.85,24.81,104.09,15.92,12.02,35.31,16.89,29.34-14.81-4.45-23.66,13.09-29.2,25.45-40.09,37.57-33.06,79.23-63.28,78.66-121.49-.1-9.83,3.98-22.64,16.69-22.61,11.26.02,16.86,11.13,20.56,20.77,12.53,32.66-.22,61.06-16.55,88.36q-38.36,64.12,37.26,82.47c5.03,1.22,10.02,2.64,20.04,4.12-20.16-24.19-3.98-36.66,12.16-48.95,22.44-17.09,41.69-37.86,52.11-63.54,7.49-18.45,29.75-43.72-17.95-51.22-29.09-4.57-11.12-30.42-.06-43.96,40.53-49.6,80.23-99.64,115.24-153.46,52.69-80.99,86.85-165.67,60.24-264.39-6.79-25.21,6.75-47.43,9.64-71.22,12.08-99.57,15.53-199.67,20.07-299.71,1.33-29.33-1.17-58.83,7.18-87.64,3.67-12.65,2.34-26.17-12.06-30.02-19.73-5.27-23.65,11.04-24.47,24.84-5.48,92.04-31.82,180.3-47.81,270.42-2.41,13.56-1.11,28.27-10.27,39.59-10.29,12.72-22.26,19.08-30.52-1.8-4.5-11.38-11.7-21.21-16.38-32.23-19.41-45.73-40.28-57.92-85.71-42.11-24.13,8.4-46.23,12.95-74.26-1.81,4.03,67.6,2.76,130.67,36.09,188.05,29.6,50.96,30.24,103.95-2.01,152.42-25.1,37.71-30.25,95.09-90.44,102.28Z" stroke-width="0"/><path d="M326.08,744.47c90.6-66.73,119.03-174.14,69.88-269.01-16.45-31.75-26.12-67.28-21.85-99.74,4.49-34.11-18.58-62.46-10.01-102.42,34.41,32.66,66.1,28.21,104.9,12.48,30.55-12.39,65.81,5.21,93.92,26.31-26.85,28.34,20.74,46.88,9.62,74.27,20.57-43.83,19.54-91.84,31.74-136.89,16.72-61.78,33.28-126.14,27.45-192.01-1.79-20.22,14.06-27.98,24.39-35.58,11.1-8.16,26.14,1.89,34.66,13.2,8.27,10.98,25.46,20.57,6.77,38.18-13.95,13.14-9.77,32.38-9.66,49.4.8,117.65-2.39,235.44-20.83,351.47-5.75,36.21-.8,68.36,1.8,102.6,8.78,115.54-50.44,204.95-115.28,291.54-28.66,38.28-59.44,74.98-89.27,112.41,21,18.75,27.49-29.3,43.38-5.36,15.33,23.09,14.12,50.73-.44,74.01-22.61,36.15-50.3,68.4-89.39,86.66,8.37,23.01,42.54-9.71,38.4,20.47-3.63,26.48-28.15,18.28-46.58,13.79-11.7-2.85-23.3-6.13-34.86-9.51-72.86-21.33-74.52-26.81-25.83-84.3,29.23-34.51,33.16-60.59,9.69-105.89,22.21,75.51-38.54,103.87-75.28,145.87-11.51,13.16-44.5,13.54-17,47.8,12.01,14.96-19.53,24.74-38.37,21.77-40.1-6.33-73.23-62.52-57.12-112.38,30.31-93.79,48.09-193.82,120.18-269.86,15.58-16.43,35.46-33.12,35.62-59.95,0,0-.64.68-.64.68Z" fill="#fefdfe" stroke-width="0"/><path d="M15.27,795.96v-54.05c30.05,31.47,59.07,51.29,92.3,65.83,68.38,29.94,93.41,84.37,71.34,167.95-25.85-88.48-108.14-121.85-164.42-180.64,0-.01.78.9.78.9Z" fill="#fafafa" stroke-width="0"/><path d="M435.89,623.66c23.85,35.66,18.43,68.75,30.88,96,9.97,21.83,21.39,54.11,48.72,40.99,20.43-9.81,40.52-38.41,21-70.62-10.43-17.22-19.83-35.84-9.45-59.1,7.69,37.52,51.61,64.74,26.77,111.23-8.68,16.24-14.58,38.74-37.07,39.3-23.62.58-43.1-12.14-54.6-33.62-18.92-35.32-23.69-73.76-26.24-124.17Z" fill="#757475" stroke-width="0"/></g></svg>