<?xml version="1.0" encoding="UTF-8"?><svg id="b" xmlns="http://www.w3.org/2000/svg" viewBox="0 0 768.96 1162.26"><g id="c"><path d="M151.59,727.63c.51,36.52-16.4,63.66-35.5,89.85-16.73,22.95-67.87,36.01-92.53,23.54C8.41,833.35-.05,820.75,0,803.86c.04-15.1,8.93-23.6,22.22-31.28,8.95-5.17,17.95-17.58,19.11-27.65,5.43-46.75,9.16-93.77,11.09-140.8.49-12.04-7.5-24.53-12.06-36.65-25.81-68.55-30.71-139.32-21.5-211.31,4.96-38.74,11.71-77.25,17.24-113.18-8.11-4.83-15.96-9.5-23.82-14.18,8.87-2.47,17.73-4.92,26.59-7.41,2.13-.6,4.23-1.33,7.23-5.58-5.47-1.83-11.41-2.87-16.26-5.76-3.5-2.09-5.56-6.61-8.26-10.05,3.78-1.9,7.44-5.04,11.37-5.43,6.38-.63,12.94.53,19.44.94,14.99-35.49,27.9-71.34,45.05-105.03,14.35-28.2,32.01-55.16,51.37-80.21,11.98-15.5,26.08-12.95,35.8,4.15,7.19,12.66,11.79,27.19,15.2,41.45,2.57,10.73,6.84,14.67,17.88,14.97,37.82,1.05,74.59,7.39,107.96,26.65,9.85,5.69,17.04,3.67,25.26-3.99,9.89-9.22,20.84-17.8,32.59-24.43,18.91-10.67,31.25-5.14,37.72,15.31,2.13,6.74,4.66,13.83,4.54,20.72-.65,37.12,3.69,73.37,11.93,109.69,4.38,19.33,3.21,40.45,1.37,60.47-1.2,13.01,1.48,18.03,14.08,20.99,7.44,1.75,13.75,8.37,20.56,12.8-7.86,1.45-15.68,3.21-23.59,4.2-2.77.35-5.9-2.05-8.66-1.68-3.49.47-6.77,2.49-10.14,3.84,1.89,2.6,3.27,5.92,5.77,7.63,3.88,2.65,9.37,3.32,12.58,6.46,3.72,3.63,5.7,9.03,8.44,13.66-5.53.65-11.37,2.7-16.5,1.56-5.43-1.2-10.2-5.44-16.49-9.06-12.03,18.37-25.02,35.96-35.53,54.93-8.65,15.62-1.62,31.98,15.18,39.2,33.41,14.35,68.7,14,103.9,10.64,4.45-.42,10.94-8.94,11.65-14.35,4.37-33.12,7.92-66.37,10.64-99.67,4.04-49.32,5.21-98.98,11.67-147.96,2.47-18.72,13.54-37.97,25.39-53.35,14.65-19.01,46.07-22.32,63.57-11.35,18.31,11.48,25.84,35.91,17.76,60.5-9.9,30.1-20,60.22-13.93,92.49,7.26,38.58,14.87,77.12,23.42,115.43,9.33,41.78,20.09,83.25,29.87,124.93,6.11,26.04,11.81,52.17,17.22,78.36,9.56,46.22.3,91.49-8.6,136.52-2.22,11.24-2.5,17.77,8.01,25.45,35.16,25.67,57.49,61.05,62.57,104.01,4.32,36.51-5.52,72.3-20.48,105.78-25.78,57.69-73.23,90.11-131.36,109.43-10.15,3.37-20.59,6.58-29.83,11.76-10.62,5.95-19.9,14.11-13.31,28.73,7.83,17.34,3.23,31.39-11.55,42.45-19.48,14.58-37.97,16.5-54.73,6.03-30.78-19.21-38.86-68.29-17.58-104.17,17.44-29.42,43.97-46.97,74.18-61.2,25.6-12.06,51.94-24.18,74.35-41.05,45.97-34.61,36.43-110.3-15.61-135.16-4.66-2.23-12.95-1.46-17.45,1.32-32.57,20.18-66.44,36.76-104.37,44.33-69.81,13.92-139.92,14.04-210.14,4.47-18.11-2.47-36.53-5.81-53.62-12.02-32.63-11.86-41.4-40.92-24.14-71.21,1.79-3.15.53-11.25-2.14-13.2-18.09-13.26-36.93-25.49-58.58-40.12ZM179.2,71.77c2.07.03,4.13.06,6.2.09-3.47-13.62-5.99-27.59-10.67-40.78-4.97-14-11.94-14.96-21.4-2.72-9.05,11.71-17.34,24.28-24.15,37.42-45.12,87.07-79.95,177.56-91.84,275.82-8.62,71.19-8.64,141.56,15.78,210.09,9.14,25.66,21.07,50.15,16.95,79.03-6.21,43.51-9.72,87.43-16.67,130.81-1.49,9.31-12.62,17.16-19.53,25.5-5.2,6.28-16.25,13.95-15,18.04,2.72,8.9,10.12,19.27,18.34,22.98,15.87,7.17,31.91,2.75,47.21-6.77,26.68-16.6,40.1-40.97,47.02-70.52,5.77-24.6,8.16-47.57-13.3-67.07-7.23-6.57-12.39-16.08-16.55-25.14-2.51-5.47-1.26-12.66-1.69-19.07,5.35,3.17,12.98,5.01,15.71,9.71,39.02,67,96.47,111.11,168.23,138.16,3.09,1.16,4.66,6.33,6.94,9.63-3.96,1.15-8.42,4.09-11.79,3.14-12.53-3.53-25.01-7.62-36.91-12.87-11.73-5.17-17.65-1.06-21.97,9.71-8.73,21.7,4.9,36.99,30.08,42.51,81.87,17.97,164.35,18.66,246.82,2.76,32.13-6.2,62.13-17.04,87.4-36.77-5.09-6.71-9.27-12.22-13.45-17.74,7.46-.6,14.91-1.24,22.38-1.78,1.17-.09,2.4.11,3.55.4,46.15,11.29,78.04,36.51,85.6,86.32,5.81,38.24-5.55,70.26-36.75,92.59-20.12,14.4-42.87,25.39-65.25,36.26-26.26,12.75-52.99,24.02-70.51,49.33-18.61,26.9-20.58,59.68-4.06,81.53,10.58,13.98,24.5,13.72,38.55,7.79,13.55-5.72,16.96-16.61,12.75-30.83-5.67-19.18-.27-34.09,17.26-43.27,15.67-8.21,32.32-14.8,49.02-20.75,89.43-31.84,122.42-96.22,127.63-177.12,3.17-49.29-25.73-85.89-65.29-114.19-13.27-9.5-24.8-21.76-35.74-33.99-3.28-3.67-1.88-11.53-2.62-17.47,5.19,2.29,11.1,3.68,15.37,7.1,4.84,3.87,8.21,9.57,14.74,17.56,12.31-44.53,19.72-86.66,11.87-128.25-13.54-71.74-32.15-142.51-47.8-213.87-8.8-40.11-16.15-80.54-23.73-120.91-5.84-31.12,4.45-59.73,12.89-89.1,3.66-12.72,1.95-30.32-4.63-41.35-3.75-6.29-23.01-6.97-33.81-4.27-8.73,2.19-18.8,11.91-22,20.61-7.07,19.22-12.65,39.67-14.46,60.01-6.74,75.95-11.55,152.08-17.71,228.09-.43,5.33-5.11,13.82-9.24,14.8-46.98,11.13-93.46,10.19-137.75-11.31-20.76-10.08-27.85-29.92-19.25-51.25,3.51-8.71,7.82-17.44,13.44-24.9,35.27-46.72,45.41-99.38,33.58-155.43-7.43-35.2-11.61-70.15-11.2-105.98.08-6.85-4.43-13.75-6.82-20.62-7,2.56-15.74,3.29-20.67,8.01-16.12,15.42-30.68,32.47-46.28,48.47-3.12,3.2-8.14,4.55-12.28,6.75-.53-5.1-1.91-10.31-1.33-15.28.52-4.46,3.19-8.66,5.78-15.18-44.02-22.59-88.93-33.95-138.04-25.72-8.42,1.41-17.36-.29-26.05-.56,5.69-6.06,11.38-12.11,17.07-18.17Z" stroke-width="0"/><path d="M179.2,71.77c-5.69,6.06-11.38,12.11-17.07,18.17,8.7.26,17.64,1.97,26.05.56,49.11-8.23,94.02,3.13,138.04,25.72-2.6,6.52-5.27,10.72-5.78,15.18-.58,4.98.8,10.18,1.33,15.28,4.14-2.2,9.16-3.55,12.28-6.75,15.59-16,30.15-33.04,46.28-48.47,4.93-4.72,13.67-5.45,20.67-8.01,2.39,6.87,6.9,13.77,6.82,20.62-.41,35.83,3.77,70.78,11.2,105.98,11.83,56.05,1.69,108.71-33.58,155.43-5.63,7.45-9.93,16.19-13.44,24.9-8.6,21.33-1.51,41.17,19.25,51.25,44.29,21.5,90.77,22.44,137.75,11.31,4.13-.98,8.81-9.47,9.24-14.8,6.16-76.01,10.97-152.13,17.71-228.09,1.81-20.34,7.39-40.79,14.46-60.01,3.2-8.69,13.27-18.42,22-20.61,10.79-2.71,30.06-2.02,33.81,4.27,6.58,11.03,8.28,28.63,4.63,41.35-8.44,29.38-18.73,57.98-12.89,89.1,7.57,40.37,14.93,80.8,23.73,120.91,15.65,71.36,34.26,142.13,47.8,213.87,7.85,41.59.44,83.72-11.87,128.25-6.53-7.99-9.9-13.69-14.74-17.56-4.28-3.42-10.19-4.81-15.37-7.1.74,5.94-.66,13.8,2.62,17.47,10.94,12.24,22.46,24.5,35.74,33.99,39.56,28.3,68.46,64.9,65.29,114.19-5.2,80.9-38.2,145.28-127.63,177.12-16.7,5.95-33.35,12.54-49.02,20.75-17.53,9.19-22.93,24.09-17.26,43.27,4.21,14.22.8,25.11-12.75,30.83-14.05,5.93-27.97,6.19-38.55-7.79-16.52-21.84-14.56-54.62,4.06-81.53,17.51-25.31,44.25-36.58,70.51-49.33,22.38-10.86,45.14-21.86,65.25-36.26,31.2-22.33,42.56-54.34,36.75-92.59-7.56-49.82-39.45-75.03-85.6-86.32-1.15-.28-2.38-.48-3.55-.4-7.46.54-14.92,1.18-22.38,1.78,4.18,5.51,8.36,11.02,13.45,17.74-25.27,19.73-55.27,30.58-87.4,36.77-82.47,15.9-164.95,15.21-246.82-2.76-25.18-5.53-38.81-20.81-30.08-42.51,4.33-10.76,10.24-14.88,21.97-9.71,11.9,5.24,24.38,9.34,36.91,12.87,3.37.95,7.83-1.99,11.79-3.14-2.28-3.3-3.86-8.46-6.94-9.63-71.75-27.05-129.21-71.16-168.23-138.16-2.73-4.69-10.36-6.54-15.71-9.71.44,6.42-.81,13.61,1.69,19.07,4.16,9.06,9.32,18.57,16.55,25.14,21.46,19.5,19.06,42.47,13.3,67.07-6.93,29.55-20.34,53.92-47.02,70.52-15.3,9.52-31.33,13.94-47.21,6.77-8.22-3.71-15.62-14.08-18.34-22.98-1.25-4.09,9.8-11.76,15-18.04,6.91-8.34,18.04-16.19,19.53-25.5,6.95-43.38,10.46-87.3,16.67-130.81,4.12-28.87-7.81-53.37-16.95-79.03-24.42-68.52-24.4-138.9-15.78-210.09,11.9-98.26,46.73-188.75,91.84-275.82,6.81-13.13,15.09-25.71,24.15-37.42,9.46-12.24,16.42-11.28,21.4,2.72,4.68,13.19,7.2,27.16,10.67,40.78-2.07-.03-4.13-.06-6.2-.09ZM349.03,505.36c-8.13-1.82-13.72-5.03-17.09-3.45-9.54,4.46-19.7,9.4-26.88,16.81-20.38,21.02-39.64,43.15-58.61,65.46-2.19,2.57.23,9.06.52,13.73,4.16-1.7,10.29-2.2,12.19-5.29,19.68-31.96,46.55-56.12,78.5-75.2,3.21-1.92,5.38-5.59,11.36-12.05ZM306.62,464.61c-7.12-2.4-12.36-6.21-15.56-4.93-36.21,14.5-67.91,35.86-93.39,65.59-2.87,3.35-1.64,10.22-2.32,15.45,4.7-1.16,11.16-.74,13.82-3.72,24.46-27.4,54.28-46.93,87.38-62.06,2.75-1.26,4.57-4.57,10.07-10.34ZM309.97,640.88c2.44.85,4.88,1.71,7.32,2.56,4.24-6.96,8.08-14.2,12.78-20.83,15.96-22.52,32.38-44.71,48.27-67.28,3.57-5.08,5.67-11.19,8.45-16.82-6.66,1.34-16.31.34-19.49,4.4-19.13,24.49-37.31,49.78-54.49,75.68-3.71,5.6-2.03,14.77-2.84,22.3Z" fill="#fff" stroke-width="0"/><path d="M349.03,505.36c-5.99,6.46-8.15,10.13-11.36,12.05-31.95,19.07-58.82,43.23-78.5,75.2-1.9,3.09-8.03,3.59-12.19,5.29-.28-4.67-2.7-11.16-.52-13.73,18.97-22.31,38.23-44.44,58.61-65.46,7.18-7.4,17.33-12.34,26.88-16.81,3.36-1.57,8.96,1.63,17.09,3.45Z" stroke-width="0"/><path d="M306.62,464.61c-5.5,5.77-7.31,9.08-10.07,10.34-33.1,15.13-62.92,34.66-87.38,62.06-2.66,2.98-9.12,2.56-13.82,3.72.67-5.24-.56-12.1,2.32-15.45,25.48-29.73,57.19-51.09,93.39-65.59,3.2-1.28,8.44,2.53,15.56,4.93Z" stroke-width="0"/><path d="M309.97,640.88c.8-7.53-.88-16.7,2.84-22.3,17.18-25.9,35.36-51.19,54.49-75.68,3.17-4.06,12.83-3.06,19.49-4.4-2.78,5.63-4.88,11.74-8.45,16.82-15.88,22.57-32.3,44.76-48.27,67.28-4.7,6.63-8.54,13.87-12.78,20.83-2.44-.85-4.88-1.71-7.32-2.56Z" stroke-width="0"/></g></svg>