<?xml version="1.0" encoding="utf-8"?>
<!-- Generator: Adobe Illustrator 28.1.0, SVG Export Plug-In . SVG Version: 6.00 Build 0)  -->
<svg version="1.1" xmlns="http://www.w3.org/2000/svg" xmlns:xlink="http://www.w3.org/1999/xlink" x="0px" y="0px"
	 viewBox="0 0 1050.6 460.1" style="enable-background:new 0 0 1050.6 460.1;" xml:space="preserve">
<style type="text/css">
	.st0{fill:#FCFCFC;}
	.st1{fill:#777676;}
	.st2{fill:#FDFDFD;}
	.st3{fill:#828182;}
	.st4{fill:none;stroke:#FFFFFF;stroke-width:5;stroke-miterlimit:10;}
	.st5{fill:none;stroke:#000000;stroke-width:5;stroke-miterlimit:10;}
</style>
<g id="b">
	<g id="c">
		<path class="st0" d="M740.5,13.7c1.3,1.4,2.7,2.8,4,4.1c16.1,35.8,39.2,56.5,82.5,44.9c16.5-4.5,36-4.2,52.7,0
			c35.2,8.7,61.4-0.9,83-29.2c6.4-8.4,15.7-18.7,28.4-12.4c15.5,7.7,9.4,22.1,6.7,34.1c-7.9,34-12.6,67.6-14.6,103
			C979,229.7,929,274.4,865.9,297.1c-50.4,18.1-87.9-16.4-120.8-51.6c-22.2-30.3-28.9-62.7-16.4-99.2c10.8-31.6,0.7-62.6-4.9-93.9
			C721.5,38.9,703,12.4,740.5,13.7L740.5,13.7z"/>
		<path d="M759.2,32.5c-4,2.6-30.5-12.2-30.2-11.1c24.4,72.1-15.6,152.3,27.8,221.9c-1.7,1.6-3.4,3.1-5.1,4.7
			c-23.5-1.5-33.3-19-38.8-37.5c-10.1-34.1-36.3-42.1-66.1-46.2C519.5,147,407.7,178.9,316.5,271.5c-37.7,38.2-77.1,72.5-128.9,90
			c-19.9,6.7-39.9,13.2-61.1,11.4c-18.7-1.6-42.1,2.3-51.7-17.9c-12-25.3,12.9-36,26.8-50.1c-3.6-5.7-8.8-3.8-12.8-2
			c-25.7,11.6-62.2,18.5-55.3,55.5c6.8,36.9,42.4,38.9,73.8,39.1c43.1,0.2,87.5,5.4,116.5-39.2c7.8-11.9,21.6-8.5,24,6.9
			c4.8,30.8,26.9,32,50.2,32.3c19.3,0.3,38.4,2.3,57.5,5.6c13.6,2.4,26.2,1.9,28-16.4c3.3-6.9,8.9-10.1,16.4-10.3
			c47.7,27.7,97.9,40,152.5,24.8c9.8-2.7,19.1-3,27.9,2.5c61.5,38.3,132.2,17.2,197.7,30.4c7.1,1.5,16-0.7,23.2-11
			c-50.1-32.1-114-23.7-165.6-52c11.2-22.5,29-22.5,44-20.6c60.6,7.7,122.7,13.5,172.5,53.7c19.1,15.4,30.8,10.9,45.1-3.3
			c18.9-18.8,41.8-30,68.1-33.7c10.7-1.5,24.8-6.1,29.8,7.2c5.5,14.7-7.3,23-17.9,30.5c-11.5,8.2-29,5.3-39.4,22.9
			c27.1,13.5,50.5,5.9,70-11.3c18.6-16.5,6-35.5-2-53c-3.4-7.4-6-14.9-5.3-23.3c1.2-4.9,4.1-8.4,8.6-10.5
			c9.2,11,19.8,21.3,27.5,33.3c30.8,48.3,10.1,97.4-46.5,94.1c-141-8.4-283.7,23.4-423.8-21.2c-41.3-13.1-89.8-9.5-134.3-5.6
			c-68,6-133-8.9-199.3-16.5c-32.5-3.7-66.5,5.6-99.8,9c-9.6,1-19.2,2.6-28.8,2.6C44.6,425.8-2.7,390.4,0.1,348.1
			c2.6-39.2,71.7-85.3,118.9-78.6c10.7,1.5,22.8,2.8,27.6,15.9c5.4,14.9-2.2,24.8-12.8,33.1c-8.4,6.7-17.5,12.5-33.1,23.6
			c52.8,12.2,91.8-3.9,126.9-28.7c26.1-18.4,48.6-41.9,72-63.9c109.9-103.6,237.9-143.3,385.6-106c37.4,9.4,44-5,39.9-34.7
			c-3.7-26.9-10.8-53.3-16.2-80c-2.3-11.2-5.2-24,9-28.6C728-3,754.3,23.4,759.2,32.5L759.2,32.5z"/>
		<path d="M756.9,243.2c34.3,24.2,65.2,66.5,113.8,40.2c57.5-31.1,112.2-70.2,105.3-146.9c-3.5-38.4,20.4-70.7,17.1-107.7
			c-4.1-1.3-9.1-3.4-9.4-2.9c-9.7,16.5-20.9,27.6-33.1,35C910,85.4,840.9,102.4,790.2,75.5C764.8,62,735,34.4,740.2,22.3
			c1.2-2.8,3.9-4.3,6.2-5.1c3.9,5.9,10.2,14.2,19.9,22.2c7,5.8,16.2,13.4,29.2,16.4c11.9,2.8,17.1,4.1,38.3-2.7
			c11.7-3.7,26.3-3.5,38.3-0.3c36.3,9.6,64.4,2,86.6-29.9c7.6-10.8,20-23.2,36.7-14.2c15.6,8.4,16.9,25.8,12.2,38.4
			c-34.7,94.6-8.6,188.3,1.2,282.4c-2,2.1-4,4.3-5.9,6.6c-10.2,11.9-20.6,16.8-28-1.9c-2.9-7.4,0.2-15.9,1.7-23.8
			c3.9-21,8.1-47.2-10.9-57.8c-17.2-9.6-27.8,16.4-40.8,27c-53.2,43.5-103.7,46.7-153.1,7.4c-12.4-9.9-27.4-18.9-20.1-39.2
			C753.5,246.3,755.2,244.8,756.9,243.2L756.9,243.2z"/>
		<path class="st1" d="M847,237.2c16,3.1,8.2,18.1,12.7,26.8c5.3,10.4-4.6,12.5-12.6,12.8c-14,0.6-13-10-13.9-19.2
			C832.1,246.8,835.1,239.2,847,237.2L847,237.2z"/>
		<path class="st2" d="M751.8,247.8c64.1,82.2,108.9,77.6,221.6-25.1c13.5,34.7,26.9,65.4,10.3,103.8c-12,27.6,11.5,8.3,19.3,9.6
			c0.8,3.1,0.9,6.6,2.5,9.3c14.3,24.1,42.6,47.9,21.4,77.3c-19.4,27-54.9,22.1-85.1,23.2c-12.3,0.4-29.2,1.7-30.9-14.8
			c-1.7-16.9,14.1-24.1,27.9-28.8c17.7-6.1,44.5,7.7,50.7-27.4c-38.8,8.7-79.3,8.9-98.4,53.2c-7.9,18.5-30.2,16.5-35.3,6.4
			c-36.4-71.2-109.9-53.4-167.5-72.7c-12.5-4.2-28.5-5.5-46.8,4.5c35.6,7.9,67.6,13.9,99.1,22.2c30.6,8,62.8,12.2,89.7,31.2
			c-2.1,18.4-17.4,23.9-27.4,23.1c-76.3-6-154.7,14.3-228.8-28.3c-17.6-10.1-55.7,0.5-84.3,2.2c-36.9,2.2-68.7-5.8-92.4-36
			c-37.1-6.3-74.3-11.5-112-8.8c35,1,70.9-6.4,102.3,17.1c11.1,11.5,22.9,27.6-4.5,27.3c-43-0.4-86.3-5.8-129-12.5
			c-28.4-4.5-19.3-26.4-14.1-48.2c-31,71.4-92.8,51.4-145.8,54.1c-36.7,1.9-70.6-11-78.2-49.7c-7.2-37.2,27.4-50.3,54-64.4
			c18.8-10,39.3-14.2,62.8-7.2c-4.1,24.9-27.7,28.3-42.9,39.9c-8,6.1-16.3,12.6-13,23.4c3.4,11,13.5,2.5,20.4,4.2
			c66.4,17.1,119.2-10.9,167.2-52.2c28-24.1,52.7-52.5,81.9-75c94.6-73,201.1-96,318.7-73.9c31,5.8,54,13.6,58.2,49.9
			C725.3,222,736.6,237.2,751.8,247.8L751.8,247.8z"/>
		<path class="st3" d="M387.6,388.8c-38.4-16-82.9,4.4-119.7-23.1c43.8-1.4,87.7-6.1,129.3,14.9
			C394.1,383.3,390.9,386.1,387.6,388.8L387.6,388.8z"/>
	</g>
</g>
<g id="Layer_2">
	<line class="st4" x1="817" y1="114" x2="800" y2="141"/>
	<line class="st4" x1="769" y1="118" x2="800" y2="141"/>
	<path class="st5" d="M778.2,141.7c7.3,5,14.8,9.7,22.5,14c0.9,0.5,1.9,1,2.9,0.8c0.7-0.2,1.3-0.7,1.9-1.2
		c4.8-4.4,9.6-8.8,14.4-13.2"/>
	<path class="st5" d="M888.2,141.7c7.3,5,14.8,9.7,22.5,14c0.9,0.5,1.9,1,2.9,0.8c0.7-0.2,1.3-0.7,1.9-1.2
		c4.8-4.4,9.6-8.8,14.4-13.2"/>
	<path d="M864.3,255.1c22.7-0.1,45.3,0.9,67.7,3.1"/>
	<path d="M862.9,248.8c22-3.6,44.4-6,66.9-7.3"/>
	<path d="M862.9,260.5c22,3.6,44.4,6,66.9,7.3"/>
	<path d="M826.2,257.2c-20.6-0.1-41.1,0.9-61.4,3"/>
	<path d="M827.5,251.1c-19.9-3.5-40.3-5.9-60.7-7.2"/>
	<path d="M827.5,262.5c-19.9,3.5-40.3,5.9-60.7,7.2"/>
</g>
</svg>
