<?xml version="1.0" encoding="UTF-8"?><svg id="b" xmlns="http://www.w3.org/2000/svg" viewBox="0 0 1134.26 865.81"><g id="c"><path d="M1108.52,182.12c-1.07-29.37-13.84-58.01-33.45-79.77-3.9-2.95-9.68-11.32-15.4-16.38.47-11.03-4.01-26.98-4.91-32.64-1.1-7.91-2.4-15.77-3.82-23.64-1.36-6.03-1.3-12.96-5.28-18.21-7.62-6.75-15.19,4.32-21.18,8.37-3.15,2.92-6.17,5.61-9.22,8.28-4.32-9.7-7.15-21.63-16.66-27.27-14.65-5.92-18.29,20.23-21.83,29.64-3.02,8.32-6.84,16.32-10.19,24.5-.74,1.71-1.75,3.71-2.49,5.74-3.84.07-7.7.4-11.57.98-11.06.5-22.19,1.72-32.92,4.53-.32.24-.65.48-.97.72-.02.01-.04.03-.06.04-.02.02-.04.03-.06.05-.21.16-.43.32-.64.48-.01,0-.02.02-.03.02-.02.02-.05.04-.07.05,0,0,0,0,0,0,0,0,0,0,0,0-.1.07-.2.15-.3.23h0c-.07.05-.15.11-.22.16-.02.02-.05.03-.07.05-.93.69-1.85,1.4-2.78,2.09,0,0-.02.01-.03.02,0,0-.01,0-.02.01,0,0,0,0,0,0,0,0-.01,0-.02.01,0,0,0,0,0,0h0c-.06.04-.11.08-.17.13.03-.02.07-.05.1-.07,0,0,0,0-.01,0,0,0,.01,0,.02-.01,0,0,0,0,0,0-.05.03-.09.07-.14.1-.01.01-.03.02-.04.03,0,0,0,0,0,0,0,0-.01,0-.02.01h0c-.18.13-.36.27-.55.4.03-.02.06-.04.08-.06-1.7,1.27-3.42,2.51-5.13,3.77-.32.23-.64.47-.96.7-.32.24-.64.48-.96.71.08-.06.16-.12.24-.18-.44.33-.89.66-1.33.99-1.42,1.06-2.84,2.11-4.27,3.15-3.09,3.05-5.92,6.34-8.47,9.6-12.63,14-21.79,30.71-29.38,47.87-9.85,21.02-15.66,44.39-29.97,63-12.77,16.02-26.92,31.44-43.36,43.77-1.04.54-2.04,1.22-2.94,1.89-3.29,1.89-6.57,3.86-10.17,5.13-5.46,1.54-10.54,4.05-15.92,5.86-6.65,2.02-13.56,2.75-20.34,4.26-10.29,2.37-20.58,5.17-31.23,4.73-13.15.39-26.28,1.79-39.32,3.34-3.5.86-7.1.98-10.65,1.42-5.99,1.36-11.99,1.99-18.12,1.57-.81.02-1.54.15-2.2.37-10.14-.44-20.23-1.78-30.08-4.02-21.37-3.25-40.79-13.83-61.34-20.14-33.62-11.9-68.42-22.14-104.36-22.48-29.31-1.54-58.24,4.33-86.12,13.02-27.85,7.82-52.78,22.5-76.63,38.51-19.76,13.04-39.84,26.06-56.92,42.59-18.65,18.95-37.15,38.17-54.17,58.62-23.6,28.16-38.8,62.15-51.95,96.17-15.16,41.08-26.29,83.96-32.8,127.4-8.38,50.38-17.83,102.5-44.56,146.81-12.94,22.82-52.24,53.56-36.6,81.8,7.15,12.21,20.37,19.31,34.2,20.87,1.65.17,3.28.25,4.89.25,22.69,0,41.77-16.36,56.72-32.21,29.05-26.66,40.8-65.21,52.3-101.7,6.51-24.24,8.04-49.29,10.52-74.17,1.56-19.87,5.45-39.46,7.66-59.26,4.09-26.8,8.24-55.2,24.55-77.59.91,3.65,1.95,7.28,3.12,10.88-.05,3.82.19,7.72-.34,10.66-.56,8.36-.75,16.73-.72,25.11-.63,27.14,2.49,54.12,6.39,80.94,3.61,21.09,6.11,42.73,2.12,63.95-2.48,8.99-5.7,17.68-7.39,26.9-2.53,7.27-7.07,14.1-7.88,21.84.49,10.54-.15,21.13.32,31.67,4.43,28.28,17.01,55.42,33.06,78.95,6.06,9.13,24.47,3.63,34.37,5.01,16.14.24,32.18,2.45,48.34,2.62,29.37,3.04,15.68-44.67,2.84-56.25-6.51-8.28-17.47-8.93-27.39-9.62-1.28-9.06-3.09-18.1-6.02-26.78-5.07-13.33-8.41-27.23-13.85-40.43,17.03-15.96,30.89-34.3,42.79-54.5,3.8-5.84,6.26-12.36,9.43-18.52,16.09,10.76,33.09,20.15,50.68,28,1.51,45.99,28.3,124.69,59.37,158.78,7.2,9.03,19.47,3.63,29.35,5.6,15.16.53,29.88,4.15,45.11,4.62,9.14.01,31.59.52,37.8-5.96,4.52-9.83,2.7-22.01.74-32.37-4.93-15.32-19.72-27.01-35.41-30.39-.24-.6-.59-1.17-1.05-1.69-2.23-2.38-5.42-3.47-7.64-5.9-33.36-32.28-10.86-84.66,2.18-121.72,6.89-17.99,13.92-36.07,17.26-55.13,9.86-1.46,19.22-5.82,28.56-9.15,12.57-3.27,23.96-9.36,35.84-14.4,4.48-2.78,19.66-8.29,27.38-14.69,22.06,6.6,45.72,5.89,68.59,6.7,12.44.24,25-.18,37.2-2.79-1.09,27.89,1.56,55.81,1.39,83.73.6,46.6.97,93.35,10.63,139.14,1.98,9.13,3.08,18.38,4.24,27.64,1.03,4.84,1.25,10.52,3.19,15.23-.11,11.04,15.06,6.9,22.24,8.82,17.71,2.59,35.39,4.3,53.34,3.79,9.73.72,19.29-.83,28.95-1.46,17.46-1.01,11.81-22.79,8.89-34.12-6.02-20.46-23.86-34.71-43.52-41.5-.09-.44-.21-.87-.4-1.29-3.51-26.4.03-53.3,3.76-79.54,2.8-22.64,7.72-44.93,14.21-66.77.74,3.01,1.46,6.02,2.12,9.05,2.6,14.68,4.12,29.56,7.8,44.04,6.88,27.04,15.92,53.58,26.18,79.51,9.32,20.47,20.17,40.22,32.15,59.25,6.05,8.9,10.75,19.96,20.39,25.55,7.14,2.09,14.57-1.37,21.85-1.33,23.8-.92,47.5-3.24,71.29-4.32,15.03.05,14.65-17.81,14.49-28.84-.94-17.3-13.05-29.49-28.33-36.01-5.39-3.14-11.39-5.43-17.6-6.75-2.13-2.1-4.39-4.1-5.88-6.75-9.65-15-18.14-30.46-24.44-47.34-23.55-70.71-25.52-149.51-1.5-220.39,1.85-5.3,3.48-10.73,5.98-15.79.6-.79.98-1.71,1.14-2.67,11.74-15.06,22.41-30.93,32.01-47.25,20.43-41.29,39.17-86.11,39.25-132.85.39-.55.67-1.13.86-1.74,5.67-.91,11.13-2.87,16.01-6.09,1.15-.62,2.49-1.23,3.83-1.89,6.93,3.09,15.4,3.36,22.75,3.96,19.73-1.17,40.42-9.66,54.05-24.22,8.43-12.06,18.6-23.88,23.33-37.94-.21-17.08-15.8-27.55-25.74-39.83ZM1116.81,228.42c-1.38-6.33-1.81-12.83-1.27-19.27,2.55,3.29,4.65,6.86,5.8,11.02-1.42,2.78-2.94,5.53-4.53,8.25ZM1046.54,82.73c0,.14,0,.29,0,.44-4.64-.31-9.39.02-13.97-1.01,1.15-10.99,4.03-21.69,8.82-31.66,2,10.7,3.98,21.4,5.17,32.23ZM989.55,33.14c1.77-5.84,3.19-11.8,5.85-17.33,3.69,4.71,6.14,15.91,9.94,20.91-.19.17-.38.33-.58.5-7.7,8.03-14.18,17.05-20.83,25.94-2.06-.57-4.13-1.02-6.22-1.38.69-1.77,1.72-3.5,2.31-5.28,3.23-7.76,6.94-15.34,9.51-23.35ZM914.29,70.22s0,0,.01-.01c0,0,0,0-.01,0,0,0,0,0,0,0ZM297.08,664.28c-9.75,16.86-19.8,33.9-33.84,47.63-25.14,25.38-14.07,14.6-4.78,52.64,2.87,8.49,6.41,16.76,7.99,25.64,1.03,2.32,1.2,6.09,1.51,9.88-8.43,1.05-16.79,3.63-24.26,7.2-4.58,3.2-2.41,11.04,3.09,11.58,8.95-1.71,17.75-5.82,27.04-6.42,1.36.26,2.53.23,3.51-.03,1.06.04,2.12.12,3.19.27,5.38.96,11.7.38,16.41,3.36,9.86,8.87,14.5,23.46,12.6,36.64-25.41-.44-50.66-3.53-76.13-2.59-13.92-20.02-23.82-42.93-29.59-66.61-2.04-11.51-.22-24.09-1.06-35.81,3.01-9.07,8.13-17.46,9.34-27.12,4.23-13.72,8.44-27.58,7.98-42.14-.12-36.43-10.47-71.99-10.51-108.48-.06-8.17-.13-16.34,0-24.51,21.95,42.2,54.54,78.42,93.07,106.46-2.11,4.51-3.77,9.65-5.55,12.41ZM913.98,676.91c6.02,22.66,11.82,45.53,24.06,65.8,3.47,6.38,6.93,13.06,11.07,19.18-9.95,1-19.49,4.78-27.01,11.89-5.98,5.65,3.04,15.08,8.96,9.38,6.86-6.31,16.55-9.04,25.74-8.57,1.31.07,2.58.21,3.84.39.58.48,1.17.95,1.78,1.4,1.64.79,3.36.71,4.84.07,6.96,2.08,13.36,5.62,19.93,9.6,12.64,6.66,14.54,22.59,11.34,35.27.14-.03.28-.06.42-.09-.07.01-.13.03-.2.04-.07.01-.15.03-.22.04,0,0,0,0,0,0-29.42,2.69-59.19,2.66-88.5,6.58-13.22-15.5-22.77-34.2-32.71-51.95-15.28-27.34-24.77-57.24-34-87.04-8.44-26.5-9.4-54.55-17.19-81.19-.55-3.15-1.15-6.29-1.63-9.45,2.85-8.36,5.51-16.79,8.32-25.18,2.44-6.8,4.68-14.03,11.96-16.91,27.48-15.52,52.07-35.62,73.74-58.6-16.77,57.98-17.65,120.53-4.55,179.33ZM1054.69,271.03c-4.87-.45-9.79-.96-14.43-2.56-.9-.37-1.75-.79-2.61-1.16-1.05-.63-2.22-.86-3.48-.79-.27,0-.56.04-.84.09-.05,0-.11.02-.16.03-.07.01-.13.02-.2.04-7.2,1.31-16.88,10.37-24.56,8.99-8.74.06-17.48-.5-26.22-.81-20.94,1.03-43.72-23.04-49.47-11.83-3.12,5.6,2.21,9.61,7.14,10.92,6.58,3.53,13.36,6.71,20.3,9.49,12.68,5.24,26.56,4.52,40.05,5.06-.35,5.62.82,12.05-.15,16.92-.91,8.98-2.87,17.83-4.84,26.63-9.27,35.88-23.3,70.85-43.05,102.28-29.08,41.73-63.54,81.1-107.79,107.09-5.45,3.6-12.11,6.01-16.28,11.21-6.89,11.04-10.06,23.86-14.04,36.26-2.26,1.31-3.78,3.87-2.97,7.4.03.29.07.57.11.86-.19.5-.37,1-.57,1.5-13.68,38.51-21.11,78.89-24.99,119.51-.26,7.29-3.11,33.84-.73,49.34-8.67.03-17.22,3.32-25.82,3.94-6.41.73-7.6,10-1.64,12.43,5.84,1.76,11.9-1.18,17.65-2.23,11.35-3.19,22.05,1.28,31.91,6.67,16.38,8.42,26.09,26.48,25.51,44.71-18.05,2.06-36.21,1.7-54.39.96-11.32-1.17-24.36-3.57-36.25-4.15-.3-.43-.66-.84-1.1-1.22-5.14-31.37-10.93-62.7-14.61-94.3-1.29-31.56-1.91-63.12-2.51-94.69.23-24.79-2.43-49.59-.99-74.51,2.09-27.43,6.79-54.75,15.55-80.87,1.06-2.94,2.1-5.91,3.66-8.64,4.33-7.29-7.02-13.73-11.22-6.55-12.26,27.07-17.06,57.14-20.14,86.6-.85.17-1.69.37-2.48.54-26.41,5.19-53.17,2.13-79.91.66-9.32-.41-18.19-3.95-27.15-5.51-1.94.22-3.37,1.19-4.29,2.51-4.09,2.33-8.19,6.35-11.88,7.7-12.1,5.57-24.13,11.28-36.34,16.58-11.81,3.1-22.99,9-34.89,11.67,1.01-13.33.65-26.8.37-40.13-4.52-57.73-31.72-114.91-76.28-152.35-5.43-4.58-14.83-12.57-18.12-1.58-.65,6.06,6.25,8.13,9.89,11.63,5.53,4.47,10.01,8.18,15.04,13.78,50.62,55.11,71.64,137.91,46.87,209.34-13.54,38.77-33.68,78.61-27.81,120.74,2.1,12.92,7.87,26.78,17.36,36.33-16.17,1.92-37.32,7.77-30.94,18.98,3.18,4.16,8.65,2.49,11.7-.91,5.91-1.96,11.89-3.62,17.99-4.91,26.87-5.79,50.59,12.65,45.59,41.01-30.36,6.27-60.08-5.07-90.63-2.96-22.77-23.34-32.91-55.62-44.21-85.73-4.68-15.46-9.5-31.01-11.49-47.09-2.67-8.81,1.82-23.73-6.84-28.94-19.31-8.56-37.89-18.95-55.31-31-.23-.31-.49-.61-.8-.91-.84-.61-1.64-1.04-2.4-1.33-42-29.8-76.97-69.37-98.5-116.45-1.6-3.5-3.02-7.05-4.29-10.63.07-.8.14-1.6.24-2.4,2.21-3.59-.04-8.34-3.84-9.46-6.62-25.88-6.03-53.41-2.59-79.88,1.03-10.79,4.2-21.02,5.67-31.73-.75-6.45-10.02-7.54-12.43-1.64-1.73,5.78-2.61,11.8-3.88,17.7-4.76,27.01-6.79,55.13-2.65,82.28-.35.19-.71.41-1.08.65-11.29,11.56-18.19,26.87-23.33,42.01-12.32,47.3-16.31,96.51-21.02,145.04-2.54,23-9.15,45.11-17,66.81-8.48,24.55-20.27,47.96-39.73,65.78-12.13,12.51-26.29,25.63-44.46,27.28-12.84.56-26.97-5.87-31.58-18.47-1.72-10.08,5.31-19.01,10.44-27.11,12.5-18.15,27.37-33.34,36.95-53.66,25.14-52.13,32.34-109.81,42.63-166.11,7.77-41.01,20.24-81.02,36.96-119.3,13.95-34.81,35.37-66.02,61.77-92.57,12.44-13,24.26-26.6,37.6-38.71,14.69-12.27,30.48-23.21,46.54-33.6,13.87-9.28,28.18-17.96,42.85-25.91,28.9-12.65,60.04-21.76,91.57-24.42,56.87-4.28,110.7,16.55,163,36.1,16.44,5.72,33.8,9.12,51.31,10.15.11.12.22.24.34.35,1.42-.09,2.84-.15,4.28-.07,3.19.17,6.38.44,9.57.59.43.02.85.04,1.28.05,2.14-.34,4.19-.6,5.94-.49,30.83-.69,61.67-3.97,91.91-10.14,14.35-3.1,28.36-8.55,41.16-16.04,2.51-1.27,4.83-2.92,7.26-4.28,1.23-.45,2.15-1.25,2.79-2.22,7.63-5.41,14.68-11.6,20.93-18.52,11.5-12.03,23.18-23.82,31.59-38.53,13.46-24.95,20.7-52.39,35.16-76.95,4.85-7.84,10.29-15.4,16.45-22.27,3.95-4.5,7.53-9.57,12.63-12.91,4.76-3.2,10.38-6.53,16.25-5.94,2.11-.1,3.69-.89,4.75-2.04,6.82-.89,13.7-1.28,20.57-1.72,9.65-1.72,19.29-.39,28.32,3.28,8.97,3.76,13.93-4.61,10.19-9.36,11.41-16.18,25.63-29.54,41.05-42.06.21,1.45.44,2.89.67,4.34-6.82,7.47-15.23,30.45-16.61,39.65-1.08,8.45-6.03,23.71,7.03,24.39,6.89,1.62,14.08.97,20.96,2.02,0,0-.5-.17-.5-.17.59.23,1.16.36,1.71.43.59.17,1.27.29,2.03.33,25.6,24.53,42.18,52.87,43.64,89.08,2.09,3.97,5.06,7.44,8.26,10.79-2.9,12.4-3.59,33.42,4.09,44.4-1.34,1.89-2.72,3.76-4.13,5.59-1.09.26-2.21.81-3.31,1.76-15.97,6.21-34.1,3.01-49.54-3.51-3.69-1.54-5.82-5.87-10.09-5.94-3.54,0-6.49,2.96-6.49,6.49-.12,4.02,3.7,6.27,6.53,8.42,9.65,6.44,21.47,8.65,32.75,10.51,2.07.22,4.28.35,6.57.38-8.28,3.68-17.22,5.86-26.03,5.85Z" stroke-width="0"/><path d="M917.84,67.56s.02-.01.03-.02c.03-.02.06-.04.09-.07-.04.03-.08.06-.11.09Z" stroke-width="0"/><path d="M914.06,70.4s.05-.03.07-.05c.01,0,.03-.02.04-.03-.04.03-.07.05-.11.08Z" stroke-width="0"/><path d="M917.81,67.58s-.04.03-.05.04h0s.03-.03.05-.04Z" stroke-width="0"/><path d="M918.55,67.03s.01,0,.02-.01c0,0,.02-.01.03-.02-.02.01-.03.02-.05.04Z" stroke-width="0"/><path d="M918.66,66.95s.02-.01.02-.02c.02-.02.04-.03.06-.05-.03.02-.06.04-.08.06Z" stroke-width="0"/><path d="M918.68,66.93s-.03.02-.04.03c0,0,0,0-.01,0,.12-.09.23-.18.35-.26-.1.07-.2.15-.29.22Z" stroke-width="0"/><path d="M1040.13,174.67c7.82,7.01,18.23,10.9,28.64,11.65,20.52,1.36,20.7-17.61,16.57-32.62-2.8-7.49-3.98-18.36-12.96-20.76-6.32-2.09-13.17-3.33-19.84-2.73-4.07.59-7.99,1.79-11.99,2.68-4.22,1.25-13.23,3.57-14.75,7.97-4.43,4.37-1.03,11.17.52,16.17,2.5,7.25,8.14,12.73,13.8,17.65ZM1037.04,147.84c3.49-1.58,7.2-2.66,10.96-3.5-.59,7.14-.41,14.68,1.57,21.45-6.17-4.6-10.96-10.93-12.53-17.95,0,0,0,0,0,0Z" stroke-width="0"/><path d="M988.37,183.41c11.25,4.11,22.68,7.79,33.34,13.34,9,4.3,17.43,9.9,26.68,13.5,7.9,3.12,12.58-8.11,5.34-12.1-10.97-3.89-20.68-10.87-31.42-15.52-11.28-5.35-23.23-9.13-35.01-13.23-3.51-1.11-7.04-2.16-10.6-3.14-5.41-1.64-10.33,4.75-7.33,9.54,3,4.5,13.76,5.08,18.99,7.6Z" stroke-width="0"/><path d="M1040.43,225.72c9.7-.69,7.59-14.65-1.89-12.9-14.97-4.12-30.62-4.89-46.03-3.07-6.62.73-13.17,1.93-19.77,2.8-4.46.16-10.07,1.62-9.98,7.1.94,10.86,14.39,4.58,21.22,4.38,11.14-1.83,22.41-2.69,33.69-1.9,7.76.14,15.04,3.87,22.76,3.59Z" stroke-width="0"/><polygon points="914.25 70.25 914.25 70.25 914.25 70.25 914.25 70.25" stroke-width="0"/></g></svg>