<?xml version="1.0" encoding="UTF-8"?><svg id="b" xmlns="http://www.w3.org/2000/svg" viewBox="0 0 1222.25 837.32"><g id="c"><path d="M1217.23,392.75c-6.81.29-17.05-1.96-17.11,7.53-.14,24.7-18.24,33.7-35.79,39.53-32.03,10.65-48.54,34.09-57.07,63.48-10.61,36.54-33.84,56.53-70.71,57.05-33.77.48-54.75,18.57-72.71,43.24-36.64,50.31-66.33,105.44-110.12,150.86-40.63,42.15-85.92,72.81-145.88,77.54-26.66,2.1-51.07-6.11-75.23-15.29-15.87-6.03-30.15-9.87-48-3.07-23.91,9.11-48.63,17.51-75.01,18.38-56.39,1.86-100.67-25.48-140.18-60.71-41.05-36.6-68.69-84.26-98.3-130.04-9.45-14.6-19.7-28.71-30.08-42.68-21.17-28.51-50.17-42.26-85.26-42.54-23.4-.19-38.6-12.63-44.68-32.93-11.8-39.4-34.17-68.06-70.43-88.26-22.68-12.64-37.88-33.51-35.37-62.15,2.59-29.61,23.28-43.83,47.55-55.31,44.21-20.91,91.57-20.42,138-16.69,58.25,4.68,115.79,6.75,173.22-5.76,35.74-7.79,41.66-17.23,33.87-55.24" fill="none" stroke="#000" stroke-linecap="round" stroke-linejoin="round" stroke-width="10.04"/><path d="M810.72,247.2c-4.43,28.09,4.44,40.92,32.62,47.7,58.21,13.99,116.75,10.02,175.7,5.55,42.06-3.19,84.48-1.26,125.44,11.96,39.12,12.63,62.47,36.83,60.21,80.34" fill="none" stroke="#000" stroke-linecap="round" stroke-linejoin="round" stroke-width="10.04"/><path d="M359.03,242.19c40.44-.37,38.54.67,47.43-35.19,11.18-45.09,18.29-91.15,32.8-135.47,7.67-23.42,16.84-45.96,33.01-66.51,26.76,9.73,31.18,35.03,39.57,56.59,14.51,37.28,13.85,37.54,52.95,37.54,35.97,0,71.97-.94,107.89.39,18.18.67,27.41-6.35,32.9-22.89,4.58-13.81,12.2-26.59,17.08-40.32,4.45-12.53,13.31-17.86,25.89-19.29,27.29,22.1,24.54,57.3,34.1,87.26,10.4,32.62,9.79,67.87,22.43,100.46,4.66,12.02-8.47,28.08,5.76,39.78,18,1.57,33.24-8.56,50.05-12.41" fill="none" stroke="#000" stroke-linecap="round" stroke-linejoin="round" stroke-width="10.04"/><path d="M1197.16,402.78c-41.57,6.87-79.14-2.73-112.89-27.64-7.21-5.32-15.79-3.72-22.51-2.06-58.99,14.56-119.32,23.21-177.94,38.48-24.38,6.35-48.88,8.61-73.1,13.81" fill="none" stroke="#000" stroke-linecap="round" stroke-linejoin="round" stroke-width="10.04"/><path d="M419.25,425.37c-62.64-2-122.23-21.17-183.17-32.71-32.72-6.19-65.08-14.46-97.96-19.49-16.16-2.47-31.42,8.28-44.56,15.52-24.27,13.37-48.71,19.96-75.81,19.12" fill="none" stroke="#000" stroke-linecap="round" stroke-linejoin="round" stroke-width="10.04"/><path d="M115.62,385.22c20.15,34.7,56.27,44.74,90.54,54.51,43.3,12.35,87.59,22.07,132.8,25.8,18.78,1.55,34.46,11.47,50.02,20.36,32.9,18.79,66.28,37.21,93.01,64.95" fill="none" stroke="#000" stroke-linecap="round" stroke-linejoin="round" stroke-width="10.04"/><path d="M1089.25,392.75c-27.77,32.18-67.05,40.84-105.48,49.83-37.34,8.73-75.46,14.98-112.59,23.97-47.74,11.56-87.46,40.19-120.48,76.96-1.66,1.85-.21,6.5-.21,9.85" fill="none" stroke="#000" stroke-linecap="round" stroke-linejoin="round" stroke-width="10.04"/><path d="M461.91,207.05c24.3,31.23,69.91,30.22,80.3,0" fill="none" stroke="#000" stroke-linecap="round" stroke-linejoin="round" stroke-width="10.04"/><path d="M740.45,209.56c-9.32-.02-13.83,8.3-19.74,12.97-27.24,21.54-34.14,10.8-57.99-.55-10.1-4.81-4.48-12.91-2.57-19.95" fill="none" stroke="#000" stroke-linecap="round" stroke-linejoin="round" stroke-width="10.04"/><path d="M645.1,284.84c-10-3.44-21.15-2.19-30.32-9.79-8.9-7.37-17.92-5.93-27.75,1.81-7.16,5.63-15.73,13.96-27.25,7.98" fill="none" stroke="#000" stroke-linecap="round" stroke-linejoin="round" stroke-width="10.04"/><path d="M366.56,425.37c-3.35,13.38-6.69,26.77-10.04,40.15" fill="none" stroke="#000" stroke-linecap="round" stroke-linejoin="round" stroke-width="10.04"/><path d="M853.37,425.37c3.35,12.55,6.69,25.09,10.04,37.64" fill="none" stroke="#000" stroke-linecap="round" stroke-linejoin="round" stroke-width="10.04"/><path d="M845.85,189.49c-12.17,6.67-21.68,19.02-37.64,17.57" fill="none" stroke="#000" stroke-linecap="round" stroke-linejoin="round" stroke-width="10.04"/></g></svg>