<?xml version="1.0" encoding="UTF-8"?><svg id="b" xmlns="http://www.w3.org/2000/svg" viewBox="0 0 1019.4 921.48"><g id="c"><path d="M1016.8,702.71c-5.64-57.24-31.71-101.67-66.82-145.81-15.16-14.81-14.54-38.95-17.88-58.66-6.36-36.64-14.91-75.27-41.03-103.19,7.58-6.59,15.45-17.31,18.89-20.64,15.06-17.09,29.86-34.67,41.5-54.31,50.01-93.3,63.23-229.86-32.41-298.87-29.21-22.8-71.03-28.12-104.44-11.61-17.86,8.27-35.84,21.01-42.11,40.52-7.87,23.2,6.39,39.22,28.24,45.05,9.61,2.4,19.64,1.29,29.3,3.46,42.2,10.67,66.66,23.69,74.14,69.48,5.11,37.93,7.3,81.25-15.44,114.13-19.45,29.25-46.3,56.6-81.13,65.96-6.84,2.18-11.71-2.83-17.06-6.21-6.32-3.95-12.9-7.42-19.59-10.69-26.01-11.71-54.38-21.56-83.41-19.16-22.19.76-44.27,4.42-65.44,11.09-44.51,15.72-87.82,40.73-136.31,39.92-31.84-.32-69.13-4.16-90.59-30.5-3.31-4.29-6.68-8.57-9.62-13.13,9.36-19.03,14.22-40.17,13.02-61.6,28.03-20.21,43.44-51.76,64.52-78.2,9.19-12.96,21.29-42.51-6.79-36.59-28.41.82-57.4,6.41-84.92,13.75-29.23-24.2-65.47-38.8-102.59-45.51-9.08-19.87-23.66-36.57-39.4-51.67-8.02-8.03-18.3-22.03-31.13-16.03-6.81,6.05-8.3,18.59-11.54,27.06-7.46,25.44-9.91,51.96-8.33,78.34-11.75,8.54-26.64,31.56-28.85,37.69-3.21,6.24-5.18,13.1-7.57,19.65-1.96-1.35-3.92-2.71-5.86-4.07-10.9-5.94-21.49-12.88-33.23-17.04-5.53-1.78-10.52-5-16.18-6.41-3.43-.27-6.07-2.26-9.43-2.64-6.63-.88-11.49,7.45-6.45,12.27,2.79,2.6,6.93,3.02,10.55,3.7,3.63.65,6.9,2.35,10.22,3.87,15.22,5.69,29.6,13.43,43.17,22.47-4.6,5.93-8.69,12.19-11.05,19.15-22.78-4.86-46.07-6.85-69.29-8.43-8.53-1.97-12.77,9.97-4.74,13.54,11.22,1.7,22.83,1.91,34.21,2.9,12.71,1.65,25.24,3.39,37.6,6.07-.49,8.8-.03,17.75,1.47,26.51-7.73.58-15.45,1.24-23.16,1.94-7.39.56-14.72,1.65-21.89,3.49-5.46.94-11.05,1.09-16.4,2.68-8.97,1.34-11.48,12.73-1.87,15.04,2.99.57,5.36-1.71,8.25-2,6.55-.85,13.08-1.61,19.46-3.36,12.92-1.82,25.93-3.02,38.96-3.88,3.37,10.74,8.52,20.86,15.67,29.63,8.51,12.58,18.85,24.21,30.61,34.13,12.95,19.77,18.25,43.93,26.25,65.98,9.74,28.25,11.09,58,13,87.58,1.52,23.85,1.43,48.07-1.8,71.77-2.06,16.29-11.12,30.12-21.68,42.26-20.27,22.76-49.02,34.31-72.95,52.33-18.13,12.66-38.23,22.18-56.39,34.87-15.66,9.22-32.32,17.69-45.29,30.67-27.04,29.61-12.43,62.43,28.2,60.38,26.1-1.15,47.27-17.42,67.13-32.73,10.86-8.95,21.33-18.47,34.55-23.85,22.29-11.16,43.07-25.37,66.74-33.69,30.23-10.85,59.81-24.12,91.47-30.31,6.43-1.43,12.93-2.37,19.48-2.95,7.3,17.28,14.47,34.62,20.8,52.32,10.15,29.52,15.69,60.24,18.44,91.29,1.3,10.25,1.8,20.59,1.94,30.91-16.11,1.6-30.35,9.54-42.35,21.54-11.46,12.54-8.24,32.65,8.03,39.15,7.18,3.33,15.43,2.87,23.11,4.13,13.81,1.7,27.64-.7,41.41-1.59,12.8-.14,23.56-6.26,31.03-16.52,19.06-28.39,12.84-65.34,12.55-97.72-.27-13.58-6.3-26.58-5.53-40.13.83-5.29,4.88-9.09,7.12-13.8,3.01-5.43,5.14-11.28,8.01-16.78,8.05-16.52,18.62-32.02,25.18-49.31,4.18-.66,8.16-3.28,12.51-3.65,10.53-1.46,20.77-4.39,31.33-5.64,29.47-4.24,59.32-1.14,88.71,2.2,50.72,4.67,65.26,45.33,68.88,90.23,1.32,21.14-2.71,43.8-16.21,60.67-8.37,8.73-16.22,19.12-27.88,23.56-11.97,3.35-24.24,5.14-36.11,8.93-12.1,1.89-25.08,1.09-36.17,7.08-13.37,6.94-22.65,26.68-12.27,39.68,12.28,13.84,37.93,14.63,55.42,16.49,14.96-.15,31.25,1.63,45.22-4.41,24.76-14.67,48.14-31.67,72.06-47.67,23.23-14.03,48.1-30.49,57.77-57.15,5.15-13.76,7.91-28.24,12.8-42.09,3.46-12.73,8.56-25.19,9.46-38.44,2.69,1.1,5.38,2.17,8.08,3.21,32.7,8.67,68.04,11.03,101.19,3.61,17.67,23.24,27.42,52.78,25.88,82.03.25,8.08.09,16.14-1.08,24.12-6.51,1.8-12.76,4.4-18.31,7.33-18.46,10.79-27.92,39.87-9.7,55.21,9.51,7.76,23.03,5.65,34.51,6.32,15.92.58,30.99-5.71,46.69-7.38,7.62-.5,17.18-1.51,20.34-9.64,4.75-12.17,5.46-25.63,6.97-38.52,4.74-51.61,12.24-103.25,5.64-155.17ZM55.53,229.9c.18.09.35.18.53.27,0,0,0,0,0,0,.25.17.5.34.75.51,0,0,0,0,0,0,.06.06.11.13.17.19-.43-.37-.92-.69-1.44-.96ZM1001.61,810.84c-3.95,26.44-2.94,53.99-10.35,79.73-25.25,3.35-50.41,12.3-76.14,7.29-19.07-9.35-1.62-35.13,13.96-37.99.96-.32,1.94-.62,2.93-.92.91.68,1.99,1.14,3.17,1.26,2.84.5,4.98-.86,6.58-3.48,5.32-.77,10.71-.72,15.87.87,7.93,5.16,18.64.57,13.29-9.22-7.52-5.06-16.35-6.77-25.36-6.34,1.69-16.38-.43-38.8-.41-45.35-1.3-15.18-8-29.24-13.36-43.32-4.67-9.64-10.63-18.58-17-27.11-5.17-4.87-12.47-1.27-18.45-.16-40.97,6.18-84.12,1.41-120.22-19.81-23.77-11.1-40.42-32.58-56.61-52.5-10.15-11.83-17.47-25.45-23.6-39.71-11.45-21.61-16.53-45.11-14.97-69.8,2.35-6.89-2.6-14.86-10.32-11.12-7.76,4.8-3.36,41.21-.81,50.46,11.76,49.1,43.21,91.72,81.16,124.21,10.29,6.97,21.36,12.93,32.73,18.15-2.23,3.84-1.05,9.01-2.49,13.25-1.88,8.4-4.81,16.52-7.13,24.81-5.72,16.39-8.64,33.72-15.81,49.57-16.1,28.31-48.06,41.67-73.62,59.9-10.17,6.83-20.17,13.88-30.28,20.8-9.32,5.92-18.38,13.24-30.04,12.31-14.47,1.59-92.35,1.86-64.98-26.51,8.99-7.27,21.47-5.98,32.29-7.59,7.02-.83,13.61-3.66,20.47-5.19,10.74-1.8,21.97-3.79,31.23-9.88,48.69-33.98,52.42-92.38,32.16-144.22-12.53-38.18-46.97-52.35-84.52-54.18-32.64-3.44-66.05-4.85-98.19,3.15-3.29,1.01-9.24,1.51-15.01,2.58,10.31-27.52,18.17-55.82,23.9-84.7,1.1-8.78,5.43-26.02,1.91-33.66-3.47-4.95-12.18-2.65-12.66,3.38-3.32,44.8-17.37,88.28-34.34,129.65-9.8,22.14-22.69,42.66-32.95,64.62-12.6,14.9-5.09,33.83-2.38,50.81,1.75,12.42,1.28,24.98,1.87,37.48-.49,23.23,1.74,55.44-21.99,68.07-13.35,2.44-93.12,12.25-69.22-17.74,8.79-7.26,18.27-14.56,30.01-15.66,4.87-.19,9.72.31,14.59.19,9.07.1,9.2-13.98.29-14.18.08-4.5-.5-9.32-.49-12.54-.48-14.27-2.73-28.41-4.24-42.59-7.46-71.87-45.4-134.86-68.55-202.09-6.18-20.9-5.01-43.18-10.75-64.23-2.28-6.53.46-18.7-9.11-19.27-10.11.66-6.58,12.31-5.39,18.95,6.02,22.25,5.02,45.74,11.43,67.85,7.58,22.24,16.66,43.9,25.84,65.54-33.03,3.96-64.48,16.16-95.33,28.14-34.81,11.36-65.74,30.95-98.01,47.72-20.13,14.23-37.68,33.38-60.95,42.47-19.14,8.46-58.67,7.29-43.69-23.1,7.8-13.99,23.21-21.03,35.91-29.81,14.23-7.04,26.95-16.74,40.75-24.58,17.6-8.81,32.71-21.42,49.5-31.49,28.98-16.28,57.4-36.35,73.15-66.5,16.77-37.15,9.24-116.13,3.59-157.33-3.1-19.03-9.64-37.24-15.66-55.49-2.66-7.3-5.2-14.74-8.06-22.05,6.95,3.83,14.2,7.07,21.71,9.59,5.18,2.26,12.45.35,12.5-6.17,0-3.9-3.3-7.16-7.2-7.1-6.09-1.68-11.84-4.36-17.53-7.06-7.76-4.68-15.38-9.79-22.53-15.45-2.28-4.31-5.4-6.49-8.29-7.04-6.87-6.28-13.11-13.2-18.33-20.95-6.79-7.99-12.16-17.22-15.85-27.08,8.28-.41,16.57-.71,24.84-1,11.27-.55,8.63-16.4-2.31-14.03-8.85.13-17.7.51-26.54,1.02-1.47-7.26-2.05-14.68-1.65-22.07,4.46,1.28,8.9,2.72,13.31,4.37,5.91,2.24,12.43,3.75,17.44,8.07,7.65,4.56,14.98-6.92,7.62-11.95-4.39-3.94-10.27-5.95-15.81-7.83-6.79-2.41-13.58-4.89-20.52-6.88.14-.57.27-1.15.42-1.72,2.17-4.58,5.31-8.57,8.5-12.52,9.12,6.78,17.86,14.07,26.2,21.64,4.69,3.99,12.42-.58,11.37-6.58-2.83-7.76-11.57-11.92-17.46-17.34-4.01-3.39-8.19-6.55-12.44-9.62,1.9-5.09,2.93-10.6,5.41-15.48,3.73-9.52,8.7-18.64,15.38-26.42,2.33-4.04,9.25-8.79,13.52-13.67,4.28-1.94,7.57-7.24,4.17-12.33-2.12-30.46,2.49-61.41,13.64-89.86,14.16,12.9,28.05,26.71,39.56,42.09,6.51,7.58,8.33,24.11,19.63,26,19.28,3.41,38.62,9.06,56.52,17.13,9.03,4.78,18,9.7,26.8,14.87,5.98,4.28,11.24,9.68,17.74,13.19,9.1,2.42,18.34-3.45,27.4-4.48,21.2-5.14,42.85-8.01,64.65-8.83-4.29,15.03-17.14,25.27-24.78,38.48-12.36,20.36-27.83,38.85-46.6,53.69-5.01,6.84-2.01,16.11-2.98,23.97-1.23,13.57-4.74,27.16-10.84,39.38-3.8,6.89-7.98,13.61-12.65,19.96-5.59-4.16-11.25-8.24-16.83-12.41-7.83-5.44-17.02-8.13-25.6-12.09-8.52-5-17.62-8.89-27.14-11.5-8.75-1.28-11.02,11.74-2.88,13.85-.23-.08-.45-.16-.68-.24.27.09.54.18.81.26.17.04.34.09.52.12-.14-.03-.28-.06-.42-.09,7.71,2.49,15.23,5.41,22.19,9.62,8.39,4.4,17.84,6.61,25.68,12.08,5.05,3.88,10.18,7.66,15.3,11.46-6.32,6.9-13.41,13.05-21.48,18.05-.75.58-1.52,1.14-2.29,1.7-1.77-2.49-3.55-4.98-5.31-7.47-4.63-7.52-10.1-14.4-16.24-20.74-6.18-7.36-12.51-14.66-20.02-20.72-4.33-8.96-17.98-1.65-13.03,6.96,4.98,5.5,11.33,9.81,16.04,15.66,3.99,4.75,8.06,9.42,12.29,13.95,5.08,5.84,8.88,12.6,13.42,18.84.41.52.81,1.05,1.22,1.58-.44.29-.88.59-1.32.88-4.99,3.19-13.94,6.87-9.83,14.24,3.7,6.49,11.81,2.14,19.28-3.18,5.34,8.68,9.94,17.79,14.63,26.86,4.88,7.97,16.85.8,12.26-7.16-1.37-2.43-2.64-4.91-3.96-7.37-3.18-7.28-7.15-14.1-11.46-20.71.38-.24.75-.46,1.09-.63,9.57-6.23,18.35-13.71,26.11-22.13,2.35,1.82,4.69,3.66,6.99,5.55,6.38,6.06,12.06,12.81,18.04,19.26,8.69,7.14,17.06-5.67,8.22-11.98-7.1-8.97-15.4-16.62-24.2-23.72,1.98-2.63,3.85-5.34,5.64-8.1,6.08,8.94,13.79,17.01,22.26,23.47,39.66,24.09,90.65,25.17,134.75,13.98,35.08-8.8,66.86-26.97,101.53-36.82,28.43-7.16,58.91-10.96,87.85-4.74,15.8,4.67,31.23,10.14,46.04,17.54,10.73,4.12,18.97,14.48,30.51,15.97,35.92-.58,76.27-37.08,95-65.94,16.48-20.52,24.71-46.29,25.31-72.45,1.43-30.98-.1-62.97-12.96-91.66-14.17-30.07-48.95-42.2-79.37-48.67-13.19-1.55-27.03-.63-38.2-9.19-7.18-4.27-6.42-13.98-4.29-20.94,4.88-14.01,17.84-22.71,30.32-29.51,15.83-8.91,33.61-10.84,51.47-9.66,55.03,9.04,93.5,63.38,104.06,115.42,10.77,51.47-.64,104.98-19.01,153.39-10.92,30.85-31.99,57.09-53.53,81.33-4.65,5.59-9.38,11.1-14.69,16.07-1.61,1.76-3.99,3.62-6.04,5.61-3.92,1.32-6.9,4.91-4.65,9.93,8.25,11.32,18.71,21.15,24.33,34.32,15.69,31.2,18.06,66.6,24.4,100.36,2.17,10.98,5.35,22.37,12.49,31.21,9.35,8.81,15.79,20.15,23.21,30.53,18.8,24.82,32.52,53.25,39.43,83.65,9.83,44.15,8.06,89.47,3.63,134.3Z" stroke-width="0"/><path d="M199.26,234.6c12.72,6.92,31.52,8.47,41.92-3.24,4.71-5.55,1.43-16.79.34-23.49-6.6-20.27-24.09-33.94-45.2-35.94-5.61-6.31-12.85-.05-15.69,5.72-4.3,9.09-.9,19.56-.12,29.1,2.38,11,9.21,21.76,18.74,27.86ZM200.51,187.25c1.23.09,2.39.33,3.52.65-11.63,9.2-10.91,31.58,6.76,32.23,7,.86,13.21-4.37,16.01-10.73,1.68,4.35,2.57,9.03,2.58,13.78-2.44,1.58-5.26,2.39-8.15,2.61-12.85.59-21.73-6.98-26.01-18.69-1.72-6.69-2.02-13.75-2.54-20.62,2.55-1.12,5.27.27,7.82.76Z" stroke-width="0"/><path d="M292.73,285.23c9.22,1.05,18.87.6,27.47-3.13,4.33-1.44,8.21-3.79,12.11-6.1,5.92-3.6,16.39-9.2,11.89-17.51-4.83-8.25-11.85-14.6-19.6-20.13-6.78-5.55-15-9.38-23.92-9.08-9.92.39-20.48-1.17-29.41,4.19-3.92,2.23-8.34,5.58-8.45,10.51.91,5.77.64,11.75,3.14,17.27,4.61,11.13,14.57,21.73,26.77,23.98ZM278.13,245.92c3.04-1.86,6.5-2.29,9.99-2.35-4.13,9.49-2.24,22.98,14.72,24.72,11.05,2.58,18.27-5.15,19.87-13.44,2.69,2.39,4.97,4.74,6.27,6.55-7.28,4.58-15.04,9.3-23.83,9.95-5.27.12-11.13.95-15.57-2.51-6.95-5.08-13.62-13.88-11.45-22.91Z" stroke-width="0"/><path d="M255.27,271.17c-3.42-8.21-8.92-16.35-17.62-19.57-6.66-1.88-19.87-7.59-23.52.12-2.74,1.9-4.32,5.51-2.41,9,1.94,3.95,2.97,8.53,4.79,12.6-.84,2.18-1.52,4.49-2.52,6.31-1.32,2.2-2.57,4.43-3.75,6.7-1.57.13-3.19.54-4.74,1.03-5.05,1.72-10.37,2.82-15.62,3.93-6.46,1.74-12.99,2.85-19.56,3.87-6.1,2.34-5.43,11.89.88,13.39,5.42.7,10.98-.84,16.24-2.14,6.36-1.71,12.97-2.51,19.23-4.57,4.64,11.65,18.48,31.56,28.82,38.47,8.16,4.48,15.11-7.41,7.16-12.26-4.43-3.26-7.84-7.7-10.94-12.19-4.45-5.62-8.46-11.52-11.27-18.02,1.52-2.86,2.77-6.1,4.26-8.27,1.25-2.25,2.47-4.59,3.54-6.98,2.56.47,5.2.65,7.72,1.02,3.51.86,7.08,1.42,10.67,1.83,5.74.69,8.65-4.34,7.8-8.6,1.01-1.49,1.43-3.43.84-5.65ZM211.93,261.11c-.05-.1-.1-.21-.16-.31.09.16.17.31.28.47-.04-.05-.08-.1-.12-.15ZM229.94,268.39c-.75-1.63-1.37-3.34-1.98-5.05,3.68.85,7.46,2.45,10.56,6.44-2.86-.48-5.72-.96-8.58-1.38Z" stroke-width="0"/><path d="M288.53,310.56s-.07-.02-.1-.03c-.04-.01-.09-.02-.13-.03.04.01.07.02.11.04.04,0,.08.02.12.02Z" stroke-width="0"/><path d="M296.47,399.4c-7.17-25.79-12.16-53.43-25.82-76.75-.98-7.62-11.94-8.56-14.02-1.09-1.2,5.84,3.57,10.65,5.83,15.64,7.54,16.13,11.89,33.62,16.14,50.85,4.03,10.93,5.21,22.57,7.51,33.89,3.35,8.04,15.82,3.63,13.39-4.65-.61-6.02-2.14-11.9-3.03-17.88Z" stroke-width="0"/><path d="M198.32,145.34c1.86,6.8,10.03,5.52,15.11,3.52,4.02-2.16,7.83-4.64,12.26-5.99,2.5-.94,4.67-2.54,6.99-3.83,5.75-3.13,15.93-5.31,14.85-13.68-1.49-8.74-6.38-16.38-10.77-23.92-1.56-3.45-3.5-6.71-5.69-9.8-2.08-2.99-4.66-5.51-7.12-8.18-3.8-5.19-8.99-10.64-16.03-9.69-6.39.53-7.34,5.29-8.39,10.54-2.37,10.61-3.15,21.49-2.94,32.35.31,9.55-.19,19.28,1.74,28.68ZM212.49,91.84c3.95,4.38,8.12,8.6,10.65,14.02,2.82,6.01,7.04,11.3,9.19,17.64-3.8,1.76-7.58,3.54-11.1,5.82-3.35,1.46-6.88,2.55-10.03,4.44-.22-4.85-.35-9.71-.4-14.57-.1-9.15-.07-18.34,1.7-27.35Z" stroke-width="0"/><path d="M379.38,223.89c.77,5.06,5.29,6.73,9.02,5.7,7.34.71,18.63-14,23.87-18.58,11.17-11.38,22.83-23.25,29.04-38.16,3.08-5.7-1.89-13.43-8.48-11.38-4.29,1.44-8.9,1.72-13.25,3.04-14.34,3.29-28.5,7.54-42.33,12.55-3.36,1.11-5.2,3.17-5.91,5.42-.35.46-.66.96-.9,1.54-1.73,3.82.96,7.44,1.4,11.23,2.34,9.16,6.17,19,7.54,28.65ZM422.12,178.47c-9.31,11.96-19.7,23-30.79,33.33-1.52-6.26-3.39-12.42-5.45-18.53-.44-1.29-.58-2.66-.72-4.01,11.72-4.11,24.47-7.83,36.96-10.79Z" stroke-width="0"/></g></svg>