<?xml version="1.0" encoding="UTF-8"?><svg id="b" xmlns="http://www.w3.org/2000/svg" viewBox="0 0 1111.36 1046.57"><g id="c"><path d="M851.47,481.97c-6.75,10.22-14.52,11.55-20.07-.09-19.77-41.49-47.75-77.16-77.9-111.22-59.99-67.79-135.67-102.64-226.06-104.53-45.23-.95-90.31.19-135.11,9.46-25.48,5.27-41.66-7.87-50.97-33.09-13.39-36.28-15.04-74.83-25.73-111.79C289.76,41.23,237.98,7.3,176.42,6.76,97.36,6.06,38.9,51.79,12.68,124.79c-10.02,27.9-5.31,62.99-.57,93.76,4.5,29.17,37.29,20.22,54.19,32.19,19.86-14.49,15.64-35.41,17.95-52.42,2.44-18.04,6.59-34.5,14.53-50.5,19.45-39.18,53.49-56.26,94.53-47.24,33.43,7.35,52.01,33.57,53.92,77.63,2.76,63.45,23.93,117.45,77.7,155.27,7.12,5,15.49,5.13,23.55,7.08,40.42,9.79,80.91,8.22,121.59,3.03" fill="none" stroke="#000" stroke-linecap="round" stroke-linejoin="round" stroke-width="13.5"/><path d="M321.56,340.21c-108.26,107.38-146.46,240.44-133.69,388.04,6.07,70.12,24.34,139.1,58.58,203.08,16.99,31.74,39.6,57.22,65.52,79.93,15.25,13.36,37.81,16.28,56.54,6.78,21.57-10.95,14.49-31.87,10.33-50.01-7.52-32.71-15.01-65.45-23.75-97.84-5.91-21.89-13.08-43.89-33.61-57.32-9.25-6.05-17.8-12.12-20.17-23.75" fill="none" stroke="#000" stroke-linecap="round" stroke-linejoin="round" stroke-width="13.5"/><path d="M736.72,333.46c30.94-38.64,59.08-79.47,100.89-108.53,21.14-14.69,41.04-27.59,70.69-22.02,7.14,26.17,10.98,54.42,10.64,83.3-.3,25.54,8.22,46.94,30.48,60.64,55.37,34.09,91.84,83.85,117.83,141.98,11.12,24.87,18.64,50.81,3.78,77.62-3.39,6.12-7.44,13.83-6.49,20.09,8.97,58.68-35.39,74.5-74.69,94.57-25.85,13.2-51.76,26.1-80.97,30.59-4.73.73-10.14,3.25-13.37,6.69-48.43,51.7-106.08,94.79-144.81,158.14,7.83,29.05,4.23,63.84,28.98,92.27,11.38,13.07,24.36,20.53,38.3,25.49,20.08,7.15,37.85-10.4,36.87-33.04-.64-14.87-3.63-29.67-5.23-44.05-2.56-23.04-4.49-46.78,7.3-71.34,13.7-28.52,21.38-60.97,21.56-93.88" fill="none" stroke="#000" stroke-linecap="round" stroke-linejoin="round" stroke-width="13.5"/><path d="M740.09,677.74c5.8,65.12-3.07,129.72-28.62,188.31-22.59,51.79-51.74,102.48-89.93,145.47-35.92,40.42-68.15,37.09-104.76-7.03,20.31-79.75,57.65-156.49,51.17-242.36" fill="none" stroke="#000" stroke-linecap="round" stroke-linejoin="round" stroke-width="13.5"/><path d="M554.45,856.62c-61.01-4.41-122.68-3.03-182.24-20.31-8-2.32-15.77-6.96-23.64.06" fill="none" stroke="#000" stroke-linecap="round" stroke-linejoin="round" stroke-width="13.5"/><path d="M932.48,319.96c27.22-8.81,42.44-36.57,70.77-44.27,11.28-3.06,21.63-9.6,39.27-10.06,9.94,48.4.06,94-18.91,138.72" fill="none" stroke="#000" stroke-linecap="round" stroke-linejoin="round" stroke-width="13.5"/><path d="M885.23,620.36c14.36,30.33.74,63.65,10.13,94.51" fill="none" stroke="#000" stroke-linecap="round" stroke-linejoin="round" stroke-width="13.5"/><path d="M837.97,495.47c-1.48,22.98,12.11,39.75,23.63,57.38" fill="none" stroke="#000" stroke-linecap="round" stroke-linejoin="round" stroke-width="13.5"/><path d="M1067.49,630.48c9.32,12.91,27.84.5,37.13,13.5-3.63,15.08-26.64,17.82-23.63,37.13" fill="none" stroke="#000" stroke-linecap="round" stroke-linejoin="round" stroke-width="13.5"/></g></svg>