<?xml version="1.0" encoding="UTF-8"?><svg id="b" xmlns="http://www.w3.org/2000/svg" viewBox="0 0 1078.26 537.3"><g id="c"><path d="M351.65,494.46c-19.84,10.69-38.44,21.6-57.8,30.94-28.39,13.7-57.08,17.45-86.43.97-5.6-3.14-14.37-1.31-21.59-.72-16.01,1.3-32.36,6.34-47.87,4.36-41.13-5.26-54.29-38.78-30.14-72.62,2.18-3.06,4.61-5.94,7.39-9.49-36.49-37.04-50.91-82.25-54.62-132.24-.68-9.14-6.7-18.31-11.67-26.62-14.58-24.38-32.54-47.12-44.15-72.78-12.58-27.82.41-45.83,31.16-45.16,25.93.57,53.87,13.43,77.02,6.94,23.16-6.49,39.32-35.22,62.43-45.24,34.15-14.8,71.49-22.72,107.98-31.4,13.16-3.13,21.42-6.52,26.75-20.17,6.67-17.06,15.75-33.64,26.37-48.59,18.16-25.57,37.65-23.84,53.59,3.56,5.37,9.23,9.22,19.35,14.86,31.41,12.04-4.85,23.81-9.9,35.8-14.37C542.36,15.38,647.22-5.49,755.78,1.25c134.22,8.34,228.29,78.27,290.86,195.51,27.28,51.11,39.12,102.99,26.67,160.35-6.36,29.31-20.16,53.06-42.56,72.19-21.04,17.97-42.45,35.51-63.58,53.37-38.93,32.9-86.71,42.19-134.81,50.17-65.1,10.8-129.31-.2-193.29-10.17-71.21-11.09-142.31-16.61-214.34-9.14-25.7,2.67-53.06,5.3-73.08-19.08ZM170.12,159.43c-12.02,7.15-24.03,14.31-32.26,19.2,3.2,12,4.9,18.34,6.59,24.69-6.38.33-12.86,1.51-19.1.74-6.02-.74-11.68-4.14-17.7-5.25-22.67-4.2-45.31-9.31-68.2-11.01-6.85-.51-21.15,12.65-20.73,13.43,13.75,25.44,25.36,53.73,45.38,73.33,9.21,9.01,13.89,14.22,13.7,25.68-.1,6.17-.14,12.39.55,18.5,7.18,64.01,28.63,118.9,95.21,143.06,55.52,20.15,110.72,13.63,165.24-4.83,4.56-1.54,9.28-5.97,11.57-10.3,12.12-22.92,32.64-33.4,55.78-41.96,9.92-3.67,20.3-11.39,26.07-20.17,46.15-70.21,33.26-171.46-27.81-228.85-4.14-3.89-8.45-9.21-9.5-14.5-5.82-29.44-9.91-59.23-16.32-88.53-1.69-7.72-9.46-14.12-14.52-21.24-20.53,16.56-33.16,39.3-49.13,82.91-2.83,7.74-9.21,14.18-13.96,21.22-4.32-5.97-8.64-11.95-13.36-18.48-17.05,3.35-35.25,4.53-51.57,10.7-22.77,8.6-44.13,20.92-66.1,31.65,0,0,.14.02.14.02ZM997.3,156.6l.06.04c-3.56-6.76-6.13-14.33-10.85-20.16-36.09-44.65-80.81-77.73-134.66-98-55.37-20.84-112.98-23.39-171.02-18.58-42.06,3.49-88.95-6.07-119.63,37.14,4.86-7.24,9.72-14.48,14.58-21.73-.81-1.84-1.62-3.68-2.44-5.52-54.37,17.3-108.74,34.6-158.71,50.51-10.31,65.15,45.25,95.06,54.18,139.38,35.72-25.17,69.09-52.62,106.04-73.79,52.42-30.04,111.64-39.06,171.25-43.25,6.13-.43,12.67,5.02,19.03,7.75-6.36,3.69-12.32,9.18-19.16,10.68-13.48,2.96-27.48,3.48-41.22,5.41-75.8,10.64-144.84,36.07-200.01,91.76-17.74,17.91-33.06,35.97-25.78,64.68,2.7,10.65.69,23.35-2.13,34.36-6.72,26.32-15.19,52.19-23.15,78.94,29.26,0,59.45-2.59,89.03.57,52.06,5.56,103.75,14.65,155.6,22.22,49.56,7.23,98.34,9.11,143.97-17.55,6.02-3.52,14.6-2.64,22-3.8-4.36,6.8-7.12,16.27-13.33,19.97-46,27.4-95.9,29.33-147.53,21.55-62.42-9.4-124.97-18.08-187.66-25.46-21.67-2.55-47.51-8.49-57.35,23.65.97-6.82,1.93-13.63,3.77-26.61-23.84,5.99-45.46,9.61-65.72,16.98-24.86,9.05-37.07,29.76-32.18,49.78,6.15,25.18,27.47,21.8,45.16,21.15,21.61-.8,43.42-8.78,64.58-6.99,82.8,6.97,165.23,18.91,248.09,24.58,95.67,6.55,191.09,6.47,261.99-75.56,1.47-1.7,3.56-3.01,5.6-4.05,48.19-24.68,69.24-65.54,71.49-118.2,2.71-63.56-24.43-115.07-63.91-161.83ZM131.11,458.12c-17.32,13.78-25.6,27.08-15.43,44.3,9.85,16.67,43.5,17.56,76.74,2.47-5.99-35.48-46.01-23.78-61.31-46.77ZM347.49,478.61c-48.18,5.6-93.83,10.91-142.94,16.62,5.34,6.79,10.13,18.68,15.93,19.19,20.58,1.82,42.71,3.84,61.97-1.9,22.13-6.6,41.82-21.37,65.04-33.92Z" stroke-width="0"/><path d="M997.3,156.6c39.48,46.76,66.62,98.27,63.91,161.83-2.25,52.65-23.29,93.52-71.49,118.2-2.03,1.04-4.13,2.35-5.6,4.05-70.9,82.03-166.32,82.1-261.99,75.56-82.87-5.67-165.29-17.61-248.09-24.58-21.16-1.78-42.97,6.19-64.58,6.99-17.69.66-39,4.04-45.16-21.15-4.89-20.03,7.32-40.73,32.18-49.78,20.25-7.37,41.87-10.99,65.72-16.98-1.84,12.98-2.8,19.79-3.77,26.61,9.84-32.14,35.68-26.2,57.35-23.65,62.69,7.38,125.24,16.05,187.66,25.46,51.63,7.78,101.53,5.85,147.53-21.55,6.21-3.7,8.97-13.17,13.33-19.97-7.4,1.16-15.98.28-22,3.8-45.63,26.66-94.41,24.78-143.97,17.55-51.85-7.57-103.54-16.66-155.6-22.22-29.58-3.16-59.77-.57-89.03-.57,7.97-26.74,16.44-52.62,23.15-78.94,2.81-11.01,4.83-23.72,2.13-34.36-7.28-28.7,8.04-46.77,25.78-64.68,55.16-55.7,124.2-81.13,200.01-91.76,13.73-1.93,27.73-2.45,41.22-5.41,6.84-1.5,12.8-6.99,19.16-10.68-6.35-2.72-12.9-8.18-19.03-7.75-59.62,4.19-118.84,13.21-171.25,43.25-36.95,21.18-70.32,48.62-106.04,73.79-8.93-44.32-64.5-74.22-54.18-139.38,49.97-15.9,104.34-33.2,158.71-50.51.81,1.84,1.62,3.68,2.44,5.52-4.86,7.24-9.72,14.48-14.58,21.73,30.68-43.21,77.57-33.65,119.63-37.14,58.03-4.81,115.65-2.26,171.02,18.58,53.85,20.27,98.57,53.35,134.66,98,4.72,5.83,7.29,13.4,10.84,20.16-47.55-25.05-97.86-22.55-148.46-16.88,49.47,5.62,98.94,11.23,148.41,16.85ZM974.12,408.38c9.46-49.29-52.73-128.63-92.28-132.29,48.93,32.89,81.36,75.02,92.28,132.29ZM534.79,284.08c17.66,31.99,46.09,50.66,81.04,60.98-27.01-20.33-54.03-40.66-81.04-60.98ZM986.46,259.6c20.29,25.18,41.23,51.17,60.72,75.37.87-24.73-36.24-71.08-60.72-75.37ZM578.87,205.33c2.06-2.52,4.12-5.04,6.19-7.56,15.13,31.61,38.67,54.68,68.59,71.27-1.51,1.51-3.02,3.01-4.53,4.52-23.42-22.74-46.83-45.48-70.25-68.22ZM671.38,503.3c-8.12-24.97-14.42-44.36-20.73-63.74-6.2,23.31-3,43.62,20.73,63.74ZM673.4,400.49c2.15-2.61,4.31-5.23,6.46-7.84-14.51-11.78-29.03-23.57-43.54-35.35-2.01,2.44-4.02,4.87-6.03,7.31,14.37,11.96,28.74,23.92,43.12,35.88ZM821.81,442.85c14.24,19.93,27.3,38.19,39.88,55.8,2.74-26.13-7.3-40.93-39.88-55.8ZM757.97,285.66c1.81-2.13,3.61-4.26,5.42-6.39-17.32-15.71-34.65-31.42-51.97-47.13-1.62,1.82-3.25,3.63-4.87,5.45,17.14,16.03,34.28,32.05,51.42,48.08ZM899.48,396.06c11.94,20.04,23.23,38.98,35.74,59.98-3.22-27-5.89-51.37-35.74-59.98ZM746.9,160.91c-1.81,1.97-3.61,3.93-5.42,5.9,17.14,15.97,34.28,31.94,51.42,47.92-.45.33-.9.66-1.35.98-14.89-18.27-29.77-36.53-44.66-54.8ZM473.19,128.74c2.79.19,5.58.38,8.37.56,1.3-20.92,2.6-41.85,3.91-62.77-2.35-.15-4.7-.31-7.05-.46-1.74,20.89-3.49,41.78-5.23,62.67ZM802.73,38.98c-1.29-1.87-2.59-3.73-3.88-5.6-18.4,12.61-36.79,25.23-55.19,37.84,1.61,2.3,3.21,4.6,4.82,6.9,18.08-13.05,36.17-26.09,54.25-39.14ZM738.66,331.03c-1.42,3.15-2.84,6.3-4.26,9.45,13.77,6.01,27.54,12.01,41.3,18.02,1.29-2.98,2.58-5.97,3.88-8.95-13.64-6.17-27.28-12.35-40.92-18.52ZM594.08,493.47c2.53-.74,5.06-1.48,7.59-2.22-4.74-16.54-9.49-33.07-14.23-49.61-2.57.75-5.13,1.5-7.7,2.25,4.78,16.53,9.56,33.06,14.34,49.59ZM841.18,86.96c.74,2.78,1.47,5.55,2.21,8.33,14.15-4.16,28.3-8.33,42.45-12.49-.67-2.26-1.33-4.53-2-6.79-14.22,3.65-28.44,7.31-42.65,10.96ZM537.63,484.43c2.2-.76,4.39-1.52,6.59-2.28-4.56-16.41-9.12-32.81-13.68-49.22-2.34.73-4.68,1.45-7.01,2.18,4.7,16.44,9.4,32.88,14.11,49.31Z" fill="#fff" stroke-width="0"/><path d="M169.98,159.42c21.96-10.73,43.33-23.05,66.1-31.65,16.32-6.17,34.52-7.35,51.57-10.7,4.72,6.53,9.04,12.51,13.36,18.48,4.74-7.04,11.12-13.48,13.96-21.22,15.96-43.61,28.6-66.35,49.13-82.91,5.06,7.13,12.84,13.52,14.52,21.24,6.4,29.3,10.5,59.09,16.32,88.53,1.04,5.29,5.36,10.61,9.5,14.5,61.07,57.39,73.95,158.65,27.81,228.85-5.77,8.78-16.15,16.5-26.07,20.17-23.14,8.57-43.66,19.04-55.78,41.96-2.29,4.33-7.01,8.76-11.57,10.3-54.52,18.47-109.72,24.98-165.24,4.83-66.58-24.17-88.04-79.05-95.21-143.06-.69-6.11-.65-12.34-.55-18.5.19-11.47-4.49-16.67-13.7-25.68-20.02-19.6-31.63-47.89-45.38-73.33-.42-.78,13.88-13.93,20.73-13.43,22.88,1.69,45.53,6.81,68.2,11.01,6.02,1.11,11.68,4.51,17.7,5.25,6.24.77,12.72-.41,19.1-.74-1.69-6.35-3.39-12.69-6.59-24.69,8.23-4.9,20.24-12.05,32.23-19.2-21.19,13.71-5.73,29.29-.53,42.41,10.57,26.66,22.84,52.18,11.36,81.89-1.88,4.86.75,11.46,1.29,17.25,2.03,0,4.05,0,6.08,0,2.08-12.79,4.17-25.59,6.83-41.95,9.6,13.92,16.65,24.14,23.7,34.36-7.82-25.36-21.28-47.4-30.95-70.99-8.23-20.06-12.1-41.91-17.9-62.97ZM220.97,219.86c-9.25-21.14-18.51-42.29-27.76-63.43-2.59,1.37-5.19,2.74-7.78,4.1,8.69,21.4,16.22,43.44,36.46,58.42,6.58,26.18,31.66,48.73,60.79,49-11.52-37.66-22.47-73.49-33.42-109.31-2.4.69-4.81,1.38-7.21,2.07,8.54,29.78,17.07,59.56,25.61,89.35-2.55,1.16-5.11,2.32-7.66,3.47-13.01-11.22-26.02-22.45-39.03-33.67ZM339.81,380.22c-.37,2.31-2.13,10.28-2.47,18.32-.06,1.38,7.35,5.2,8.9,4.19,11.29-7.36,22.05-15.55,32.54-24.03.54-.44-2.23-7.06-4.81-8.81-4.8-3.25-10.59-5.02-15.97-7.4,2.17-1.55,4.33-3.1,6.5-4.64-6.17-10.84-12.34-21.68-18.51-32.52-12.03,7.76-24.07,15.52-36.1,23.28,8.66,9.15,17.32,18.29,29.93,31.61ZM348.41,105.75c3.12-6.45,8.7-16.3,12.57-26.79,1.65-4.48-.27-10.28-.56-15.48-5.17,2.01-12.63,2.55-15.05,6.33-6.54,10.19-11.59,21.5-16.03,32.84-6.44,16.45-7.62,30.78,17.22,29.62,10.87-.51,21.76-.62,32.64-.91-9-7.49-17.99-14.97-30.78-25.62ZM81.59,224.87c-2.26,8.64-5.55,15.33-5.17,21.79.26,4.3,5.76,8.29,8.92,12.42,6.01-10.16,12.95-19.92,17.55-30.68,1.74-4.07-.4-13.89-3.36-15.18-14.54-6.37-29.83-11.21-45.17-15.43-2.88-.79-7.2,3.65-10.86,5.68,2.5,4.03,4.08,10.09,7.66,11.68,9.49,4.22,19.84,6.5,30.42,9.73ZM279.26,365.48c-6.13-3.79-10.62-8.59-13.01-7.71-21.28,7.82-42.31,16.38-63.02,25.6-2.09.93-1.58,7.69-2.28,11.74,4.72.48,10.03,2.59,14.05,1.14,17.18-6.17,34.09-13.16,50.85-20.41,4.25-1.84,7.59-5.77,13.4-10.36ZM372.09,315.47c4.94-2.6,6.58-3.02,7.57-4.06,11.94-12.62,24.01-25.12,35.39-38.22,1.79-2.07,1.75-8.91.07-10.12-3.05-2.21-9.96-3.94-11.76-2.22-12.46,11.91-24.61,24.3-35.35,37.74-2.1,2.63,2.39,10.53,4.07,16.88ZM287.4,179.45c10.6,24,19,43.02,27.4,62.03,1.72-.72,3.43-1.45,5.15-2.17-1.91-10.37-3.82-20.75-6.31-34.25,13.44,3.81,22.59,6.4,31.74,8.99.43-1.43.87-2.86,1.3-4.29-17.81-9.11-35.62-18.21-59.29-30.32Z" fill="#fff" stroke-width="0"/><path d="M131.11,458.12c15.3,22.98,55.32,11.28,61.31,46.77-33.24,15.09-66.89,14.2-76.74-2.47-10.17-17.21-1.88-30.51,15.43-44.3Z" fill="#fff" stroke-width="0"/><path d="M347.49,478.61c-23.22,12.55-42.91,27.32-65.04,33.92-19.25,5.74-41.39,3.72-61.97,1.9-5.8-.51-10.59-12.41-15.93-19.19,49.11-5.71,94.76-11.02,142.94-16.62Z" fill="#fff" stroke-width="0"/><path d="M974.12,408.38c-10.92-57.27-43.35-99.4-92.28-132.29,39.56,3.66,101.75,83,92.28,132.29Z" stroke-width="0"/><path d="M997.3,156.6c-49.47-5.62-98.94-11.23-148.41-16.85,50.59-5.67,100.91-8.17,148.46,16.88.01,0-.05-.03-.05-.03Z" stroke-width="0"/><path d="M534.79,284.08c27.01,20.33,54.03,40.66,81.04,60.98-34.94-10.32-63.38-29-81.04-60.98Z" stroke-width="0"/><path d="M986.46,259.6c24.48,4.3,61.59,50.65,60.72,75.37-19.49-24.2-40.43-50.19-60.72-75.37Z" stroke-width="0"/><path d="M578.87,205.33c23.42,22.74,46.83,45.48,70.25,68.22,1.51-1.51,3.02-3.01,4.53-4.52-29.92-16.59-53.46-39.65-68.59-71.27-2.06,2.52-4.12,5.04-6.19,7.56Z" stroke-width="0"/><path d="M671.38,503.3c-23.72-20.13-26.92-40.44-20.73-63.74,6.3,19.39,12.61,38.78,20.73,63.74Z" stroke-width="0"/><path d="M673.4,400.49c-14.37-11.96-28.74-23.92-43.12-35.88,2.01-2.44,4.02-4.87,6.03-7.31,14.51,11.78,29.03,23.57,43.54,35.35-2.15,2.61-4.31,5.23-6.46,7.84Z" stroke-width="0"/><path d="M821.81,442.85c32.58,14.87,42.62,29.67,39.88,55.8-12.58-17.61-25.64-35.87-39.88-55.8Z" stroke-width="0"/><path d="M757.97,285.66c-17.14-16.03-34.28-32.05-51.42-48.08,1.62-1.82,3.25-3.63,4.87-5.45,17.32,15.71,34.65,31.42,51.97,47.13-1.81,2.13-3.61,4.26-5.42,6.39Z" stroke-width="0"/><path d="M899.48,396.06c29.84,8.61,32.51,32.98,35.74,59.98-12.51-21-23.8-39.94-35.74-59.98Z" stroke-width="0"/><path d="M746.9,160.91c14.89,18.27,29.77,36.53,44.66,54.8.45-.33.9-.66,1.35-.98-17.14-15.97-34.28-31.94-51.42-47.92,1.81-1.97,3.61-3.93,5.42-5.9Z" stroke-width="0"/><path d="M473.19,128.74c1.74-20.89,3.49-41.78,5.23-62.67,2.35.15,4.7.31,7.05.46-1.3,20.92-2.6,41.85-3.91,62.77-2.79-.19-5.58-.38-8.37-.56Z" stroke-width="0"/><path d="M802.73,38.98c-18.08,13.05-36.17,26.09-54.25,39.14-1.61-2.3-3.21-4.6-4.82-6.9,18.4-12.61,36.79-25.23,55.19-37.84,1.29,1.87,2.59,3.73,3.88,5.6Z" stroke-width="0"/><path d="M738.66,331.03c13.64,6.17,27.28,12.35,40.92,18.52-1.29,2.98-2.58,5.97-3.88,8.95-13.77-6.01-27.54-12.01-41.3-18.02,1.42-3.15,2.84-6.3,4.26-9.45Z" stroke-width="0"/><path d="M594.08,493.47c-4.78-16.53-9.56-33.06-14.34-49.59,2.57-.75,5.13-1.5,7.7-2.25,4.74,16.54,9.49,33.07,14.23,49.61-2.53.74-5.06,1.48-7.59,2.22Z" stroke-width="0"/><path d="M841.18,86.96c14.22-3.65,28.44-7.31,42.65-10.96.67,2.26,1.33,4.53,2,6.79-14.15,4.16-28.3,8.33-42.45,12.49-.74-2.77-1.47-5.55-2.21-8.33Z" stroke-width="0"/><path d="M537.63,484.43c-4.7-16.44-9.4-32.88-14.11-49.31,2.34-.73,4.68-1.45,7.01-2.18,4.56,16.41,9.12,32.81,13.68,49.22-2.2.76-4.39,1.52-6.59,2.28Z" stroke-width="0"/><path d="M339.81,380.22c-12.61-13.32-21.27-22.47-29.93-31.61,12.03-7.76,24.07-15.52,36.1-23.28,6.17,10.84,12.34,21.68,18.51,32.52-2.17,1.55-4.33,3.1-6.5,4.64,5.38,2.38,11.18,4.16,15.97,7.4,2.58,1.75,5.35,8.37,4.81,8.81-10.48,8.48-21.25,16.66-32.54,24.03-1.55,1.01-8.96-2.81-8.9-4.19.34-8.04,2.1-16.01,2.47-18.32Z" stroke-width="0"/><path d="M169.98,159.42c5.8,21.06,9.67,42.91,17.9,62.97,9.67,23.59,23.13,45.63,30.95,70.99-7.05-10.22-14.1-20.44-23.7-34.36-2.67,16.36-4.75,29.16-6.83,41.95-2.03,0-4.05,0-6.08,0-.54-5.79-3.17-12.39-1.29-17.25,11.48-29.71-.79-55.23-11.36-81.89-5.2-13.12-20.65-28.69.53-42.41.03,0-.11-.02-.11-.02Z" stroke-width="0"/><path d="M348.41,105.75c12.79,10.64,21.78,18.13,30.78,25.62-10.88.29-21.77.4-32.64.91-24.84,1.16-23.65-13.17-17.22-29.62,4.44-11.34,9.49-22.65,16.03-32.84,2.42-3.78,9.89-4.31,15.05-6.33.3,5.2,2.21,11,.56,15.48-3.87,10.49-9.46,20.34-12.57,26.79Z" stroke-width="0"/><path d="M220.97,219.86c13.01,11.22,26.02,22.45,39.03,33.67,2.55-1.16,5.11-2.32,7.66-3.47-8.54-29.78-17.07-59.56-25.61-89.35,2.4-.69,4.81-1.38,7.21-2.07,10.95,35.82,21.91,71.65,33.42,109.31-29.13-.27-54.21-22.83-60.79-49.01,0,0-.92.91-.92.91Z" stroke-width="0"/><path d="M81.59,224.87c-10.58-3.23-20.93-5.51-30.42-9.73-3.58-1.59-5.17-7.66-7.66-11.68,3.66-2.03,7.98-6.47,10.86-5.68,15.34,4.23,30.63,9.07,45.17,15.43,2.96,1.29,5.1,11.11,3.36,15.18-4.6,10.76-11.54,20.52-17.55,30.68-3.16-4.13-8.66-8.12-8.92-12.42-.39-6.46,2.9-13.14,5.17-21.79Z" stroke-width="0"/><path d="M279.26,365.48c-5.81,4.59-9.15,8.52-13.4,10.36-16.76,7.26-33.67,14.24-50.85,20.41-4.03,1.45-9.34-.67-14.05-1.14.7-4.05.19-10.81,2.28-11.74,20.71-9.22,41.74-17.78,63.02-25.6,2.39-.88,6.87,3.92,13.01,7.71Z" stroke-width="0"/><path d="M372.09,315.47c-1.69-6.36-6.17-14.25-4.07-16.88,10.74-13.44,22.89-25.82,35.35-37.74,1.8-1.72,8.71.01,11.76,2.22,1.67,1.21,1.72,8.05-.07,10.12-11.38,13.1-23.46,25.61-35.39,38.22-.99,1.04-2.63,1.46-7.57,4.06Z" stroke-width="0"/><path d="M287.4,179.45c23.67,12.1,41.48,21.21,59.29,30.32-.43,1.43-.87,2.86-1.3,4.29-9.15-2.59-18.3-5.18-31.74-8.99,2.49,13.5,4.4,23.88,6.31,34.25-1.72.72-3.43,1.45-5.15,2.17-8.4-19.02-16.8-38.03-27.4-62.03Z" stroke-width="0"/><path d="M220.97,219.86s.92-.92.92-.91c-20.24-14.98-27.77-37.02-36.46-58.41,2.59-1.37,5.19-2.74,7.78-4.1,9.25,21.14,18.51,42.29,27.76,63.43Z" stroke-width="0"/></g></svg>