<?xml version="1.0" encoding="UTF-8"?><svg id="b" xmlns="http://www.w3.org/2000/svg" viewBox="0 0 835.93 1146.95"><g id="c"><path d="M647.56,988.05c-18.33-5.42-35.61-11.02-53.18-15.49-7.03-1.79-14.85-2.26-22.05-1.35-54.76,6.97-109.22,9.63-163.3-5.65-4.69-1.32-12.1,3.3-16.96,6.89-32.62,24.12-69.1,34.61-105.47,15.04-23.53-12.66-45.82-21.67-72.31-26.41-33.65-6.01-44.06-43.47-23.37-71.32,5.23-7.05,10.68-14.6,17.71-19.54,30.28-21.27,26.31-50.35,21.28-80.99-9.39-57.14-38.01-106.58-61.61-157.97-21.37-46.52-29.58-95.32-27.2-145.8.81-17.18-4.08-28.79-17.09-38.9-30.65-23.84-57.31-50.56-66.22-90.73-.98-4.42-10.34-9.14-16.24-9.78-7.86-.86-16.23,3.51-24.22,3.03-5.9-.35-11.55-4.88-17.31-7.54,4.8-3.43,9.15-8.22,14.5-10,11.15-3.72,22.84-5.86,34.31-8.65-.14-2.25-.28-4.5-.42-6.75-11.6-1.1-23.37-1.36-34.72-3.68-4.98-1.02-9.1-6.23-13.6-9.54,4.69-2.88,9.14-7.61,14.13-8.25,10.05-1.3,20.39-.39,31.69-.39.95-5.43,2.31-9.93,2.45-14.46,2.77-87.57,31.5-167.36,73.37-243.04C131.27,19.48,142.73-.46,164.67,0c22.3.47,32.33,21.86,35.58,40.08,6.57,36.79,29.5,46.54,62.39,50.13,27.67,3.02,54.57,12.7,82.16,17.28,7.59,1.26,18.03-3.26,24.46-8.47,21.68-17.53,40.74-38.55,63.44-54.49,25.11-17.65,40.94-12.13,49.07,17.01,6.29,22.55,8.42,46.77,8.82,70.3.45,26.56-.91,53.56-5.44,79.69-7.69,44.33-1.1,85.11,18.23,125.57,13.5,28.27,37.65,42.21,62.27,56.95,40.37,24.18,81.86,46.73,120.77,73.09,68.61,46.48,108.92,113.18,129.88,192.5,15.18,57.45,23.12,116.08,18.16,175.06-10.86,129.25-68.3,226.89-194.57,276.07-99.9,38.91-202.01,43.15-307.1,28.15-67.54-9.64-130.76-28.51-188.01-65.38-65.47-42.16-104.74-99-97.38-180.9,2.61-29.04,19.94-48.86,47.97-52.66,30.56-4.15,49.5,7.28,58.87,38.06,4.33,14.25,5.06,29.59,7.38,44.45,7.33,47.03,36.86,74.36,79.67,90.08,79.02,29.03,161.07,29.11,243.54,26.07,50.78-1.87,98.62-14.15,143.46-38.05,3.61-1.92,7.17-3.96,10.59-6.2,3.33-2.18,6.45-4.7,8.68-6.35ZM573.89,949.93c6.78-16.87,12-30.67,17.89-44.17,2.6-5.96,12.81-60.09,13.04-66.83.16-4.61,3.23-9.12,5-13.67,4.47,2.21,11.08,3.26,13,6.83,6.13,11.4,12.06,23.37,14.93,35.85,1.49,6.46-2.08,15.5-6.12,21.53-9.3,13.86-21.93,25.65-30.05,40.07-6.29,11.17-1.36,22.89,10.26,29.97,19.15,11.67,73.42,3.69,84.68-15.48,10.76-18.33,15.74-40,24.05-59.88,2.29-5.47,7.39-9.77,11.2-14.61,2.92,6,9.47,13.03,8.12,17.83-5.86,20.79-9.97,43.84-22.09,60.81-49.44,69.24-122.74,98.45-203.59,108.15-88.4,10.61-176.85,6.47-262.83-19.15-42.09-12.55-81.29-32.65-98.78-76.45-8.73-21.87-10.71-46.46-15.49-69.87-3.78-18.52-11.34-32.27-33.58-31.02-23.59,1.33-33.69,10.24-36.26,36.02-5.85,58.66,17.16,105.3,61.84,141.99,62.46,51.28,136.8,74.96,214.98,83.64,90.85,10.08,182.1,11.22,269.94-22.4,47.54-18.2,92.5-40.48,127.95-78.21,46.2-49.17,63.51-111.22,71.38-175.22,6.53-53.12.05-106.63-10.75-159.47-16.05-78.56-51.34-146.31-116-194.11-43.66-32.27-91.17-60.22-139.61-84.91-65.43-33.35-89.79-119.64-84.36-170.18,5.62-52.27,14.09-104.56,5.65-157.32-1.2-7.53-3.52-19.77-7.66-20.85-7.08-1.85-17.95,1.12-23.82,6.1-19.66,16.67-37.31,35.68-56.79,52.58-6.89,5.98-17.67,13.16-25.2,11.77-47.71-8.79-95.11-19.44-142.34-30.61-6.38-1.51-13.49-8.38-16.36-14.58-6.85-14.79-10.19-31.21-17.1-45.97-10.43-22.29-19.87-23.63-32.28-2.54-16.55,28.12-31.6,57.49-43.84,87.71-23.03,56.85-36.34,115.81-33.7,178.03,2.33,54.81,21.7,99.53,68.04,130.87,18.08,12.23,25.4,28.7,23.58,50.98-5.19,63.42,12.52,121.65,42.57,176.84,27.74,50.95,46.44,104.62,50.24,163.13,1.47,22.75-7.35,39.3-23.38,54.02-9.45,8.68-17.95,18.53-25.96,28.59-10.19,12.79-3.49,23.2,6.95,31.49,14.69,11.67,39.39,14.25,47,4.78,13.65-16.99,26.04-34.99,39.85-51.84,4.39-5.36,11.62-8.4,17.55-12.5-.26,7.95,2.24,17.56-1.35,23.5-8.07,13.34-19.39,24.69-28.95,37.18-9.74,12.72-10.55,27.16,6.88,30.28,21.2,3.79,44.87,6.12,65.04.44,30.53-8.59,43.44-37,54.38-65.11,2.15-5.51,9.46-9.01,14.39-13.44,1.55,6.73,5.69,14.17,4.1,20.05-3.28,12.09-9.64,23.36-15.55,36.85,55.47,10.86,108.26,11.87,159.28,2.52Z" stroke-width="0"/><path d="M573.89,949.93c-51.02,9.36-103.81,8.34-159.28-2.52,5.92-13.49,12.27-24.75,15.55-36.85,1.6-5.88-2.55-13.32-4.1-20.05-4.93,4.43-12.24,7.93-14.39,13.44-10.95,28.11-23.85,56.51-54.38,65.11-20.17,5.68-43.84,3.34-65.04-.44-17.43-3.11-16.62-17.56-6.88-30.28,9.56-12.49,20.88-23.83,28.95-37.18,3.59-5.94,1.09-15.55,1.35-23.5-5.93,4.1-13.16,7.14-17.55,12.5-13.81,16.85-26.2,34.85-39.85,51.84-7.61,9.47-32.3,6.89-47-4.78-10.44-8.29-17.15-18.7-6.95-31.49,8.01-10.06,16.51-19.91,25.96-28.59,16.03-14.72,24.85-31.27,23.38-54.02-3.79-58.52-22.5-112.19-50.24-163.13-30.05-55.19-47.76-113.42-42.57-176.84,1.82-22.28-5.49-38.75-23.58-50.98-46.34-31.35-65.72-76.06-68.04-130.87-2.64-62.22,10.67-121.18,33.7-178.03,12.24-30.23,27.29-59.59,43.84-87.71,12.41-21.09,21.86-19.74,32.28,2.54,6.9,14.76,10.25,31.18,17.1,45.97,2.87,6.2,9.98,13.07,16.36,14.58,47.23,11.18,94.62,21.82,142.34,30.61,7.53,1.39,18.31-5.79,25.2-11.77,19.48-16.9,37.13-35.91,56.79-52.58,5.86-4.97,16.74-7.94,23.82-6.1,4.14,1.08,6.45,13.32,7.66,20.85,8.44,52.76-.03,105.05-5.65,157.32-5.44,50.53,18.92,136.83,84.36,170.18,48.44,24.68,95.95,52.64,139.61,84.91,64.67,47.8,99.95,115.55,116,194.11,10.8,52.84,17.28,106.35,10.75,159.47-7.87,64-25.19,126.05-71.38,175.22-35.45,37.73-80.41,60.01-127.95,78.21-87.84,33.63-179.09,32.48-269.94,22.4-78.17-8.67-152.52-32.36-214.98-83.64-44.68-36.68-67.69-83.32-61.84-141.99,2.57-25.78,12.67-34.69,36.26-36.02,22.23-1.25,29.8,12.5,33.58,31.02,4.78,23.41,6.76,48,15.49,69.87,17.48,43.8,56.69,63.91,98.78,76.45,85.98,25.63,174.43,29.76,262.83,19.15,80.85-9.7,154.15-38.91,203.59-108.15,12.12-16.97,16.22-40.01,22.09-60.81,1.35-4.8-5.2-11.83-8.12-17.83-3.81,4.84-8.91,9.14-11.2,14.61-8.31,19.88-13.29,41.54-24.05,59.88-11.26,19.17-65.52,27.15-84.68,15.48-11.63-7.08-16.55-18.8-10.26-29.97,8.12-14.41,20.75-26.21,30.05-40.07,4.04-6.03,7.61-15.07,6.12-21.53-2.87-12.47-8.8-24.45-14.93-35.85-1.92-3.57-8.54-4.63-13-6.83-1.77,4.55-4.84,9.06-5,13.67-.23,6.74-10.44,60.87-13.04,66.83-5.9,13.5-11.11,27.3-17.89,44.17ZM363.11,282.12c-19.37-.44-31.09,10.62-31.26,29.48-.16,17.18,13.77,31.69,30.36,31.65,15.78-.04,31.79-16.12,31.52-31.66-.26-15.01-14.92-29.12-30.62-29.48ZM147.77,278.93c.38-16.01-13.38-30.58-29.05-30.76-14.67-.16-28.88,13.45-29.61,28.37-.8,16.4,12.11,30.93,28.12,31.63,15.9.7,30.15-12.94,30.53-29.23ZM221.72,300.74c-10.55,9.14-24.38,16.02-23.89,21.64,1.47,16.62,16.81,18.34,30.99,18.62,12.38.25,27.61-2.98,24.77-15.99-1.96-9-18.62-14.79-31.87-24.27ZM469.55,419.16c-1.69-4.64-1.86-7.7-3.15-8.29-18.45-8.42-36.96-16.75-55.8-24.25-1.59-.63-7.46,4.46-7.95,7.44-.49,3.03,2.38,8.46,5.24,9.88,15.22,7.56,30.64,14.87,46.59,20.64,3.84,1.39,9.91-3.42,15.06-5.42ZM459.35,383.8c3.08-1.89,8.67-5.34,14.27-8.78-5.24-4.22-9.88-10.26-15.86-12.24-9.54-3.15-19.98-4.76-30.04-4.72-5.37.02-10.73,4.87-16.09,7.53,4.42,4.09,8.2,10.09,13.41,11.84,9.54,3.2,19.92,3.88,34.31,6.37Z" fill="#fff" stroke-width="0"/><path d="M363.11,282.12c15.7.35,30.36,14.46,30.62,29.48.27,15.54-15.74,31.62-31.52,31.66-16.6.04-30.52-14.48-30.36-31.65.17-18.86,11.89-29.92,31.26-29.48Z" stroke-width="0"/><path d="M147.77,278.93c-.38,16.29-14.63,29.93-30.53,29.23-16.01-.7-28.92-15.23-28.12-31.63.73-14.92,14.94-28.53,29.61-28.37,15.66.17,29.42,14.75,29.05,30.76Z" stroke-width="0"/><path d="M221.72,300.74c13.25,9.49,29.91,15.28,31.87,24.27,2.84,13.01-12.39,16.23-24.77,15.99-14.18-.28-29.52-2-30.99-18.62-.5-5.62,13.34-12.51,23.89-21.64Z" stroke-width="0"/><path d="M469.55,419.16c-5.15,2-11.23,6.81-15.06,5.42-15.94-5.77-31.37-13.08-46.59-20.64-2.86-1.42-5.73-6.85-5.24-9.88.48-2.98,6.35-8.08,7.95-7.44,18.83,7.51,37.34,15.83,55.8,24.25,1.29.59,1.46,3.64,3.15,8.29Z" stroke-width="0"/><path d="M459.35,383.8c-14.4-2.49-24.78-3.17-34.31-6.37-5.21-1.75-8.99-7.75-13.41-11.84,5.36-2.67,10.72-7.51,16.09-7.54,10.05-.04,20.49,1.57,30.04,4.72,5.98,1.98,10.62,8.02,15.86,12.24-5.6,3.45-11.19,6.89-14.27,8.78Z" stroke-width="0"/></g></svg>