<?xml version="1.0" encoding="UTF-8"?><svg id="b" xmlns="http://www.w3.org/2000/svg" viewBox="0 0 963.51 1029.28"><g id="c"><path d="M913.19,172.58s.04-.1.06-.15c-.02.05-.05.1-.07.15,0,0,0,0,0,0Z" stroke-width="0"/><path d="M924.63,905.01c-.82-2.14-1.51-4.35-2.52-6.41-3.48-14.29-2.98-29.2-3.08-43.81-.75-35.93,5.79-71.51,4.77-107.43.02-19.51.9-39.26-4.14-58.3-.86-4.3-1.59-8.56-1.89-12.94-.15-2.46.39-5.47-1.3-7.55-.03-.04-.05-.08-.08-.12,7.52-11.19,14.89-22.5,20.54-34.76,9.79-23.38,15.74-48.8,14.7-74.23.04-31.64-7.75-62.47-18.18-92.14-10.35-25.96-20.25-52.82-17.51-81.28,1.44-17.32,4.73-34.39,10.77-50.72,8.06-20.82,16.86-41.68,18.71-64.15.65-1.44,1.01-3.12,1.2-4.84.92-3.52,1.09-7.91.93-12.36.25-4.46.32-8.93-.04-13.39-.71-20.09-2.07-40.18-5.82-59.96-2.3-12.58-6.74-18.6-3.14-32.16.68-3.54,2-6.96,3.21-10.4.63-1.63,1.22-3.28,1.78-4.94.81-2.03.76-4.23.03-6.12,3.17-14.64,4.59-27.23,3.06-31.17-4.54-36.06-24.73-70.01-55.08-90.18-21-14.93-31.13,2.59-39.16,20.35-12.66,20.94-15.08,45.29-21.3,68.41-25.16,1.25-51.76.8-75.27,10.89-7.67-7.66-11.97-18.02-19.89-25.4-17.62-16.07-37.37-32.17-61.55-36.18-10.58-.6-26.97-8.69-35.11.63-3.42,5.67,4.51,18.43,5.87,25.26,7.76,22.95,13.52,46.48,21.27,69.41-10.26,18.55-23.71,35.44-31.7,55.18-6.06,17.5-6.68,36.07-4.92,54.49-4.98-1.18-9.98-2.19-15.14-2.09-6.51.21-12.92,1.8-19.39,2.51-3.84.5-6.59,4.18-6.07,8,2.31,10.99,16.62,3.62,24.17,3.77,6.29-.45,12.3,1.53,18.36,2.93.89,5.68,1.93,11.31,3.03,16.86-4.56.75-9.23,1.78-14.16,2.98-7.79,1.62-15.88,1.97-23.49,4.33-6.41,2.17-6.32,12.11.36,13.81,2.39.83,4.52-.47,6.73-1.06,11.62-1.52,23.02-4.32,34.57-6.19,1.5,4.21,3.23,8.37,5.17,12.46-7.85,3.27-15.44,7.32-22.89,11.14-5.33,2.7-14.76,5.05-11.65,12.98,1.5,3.57,5.81,5.3,9.3,3.78,6.03-2.6,11.77-5.73,17.6-8.74,4.73-2.3,9.51-4.6,14.41-6.56,11.95,19.85,28.78,37.08,48.25,48.41,2.64,1.53,5.33,2.98,8.04,4.38.38,1.66,1.06,3.5,2.12,5.55,3.41,45.78-28.25,87.17-62.66,114.08-27.85,22.8-62.49,33.91-93.89,50.53-25.48,12.04-49.57,26.6-72.2,43.37-27.42,17.61-50.39,41.15-70.82,66.36-25.56,28.14-39.64,64.83-48.17,101.38-8.02,33.95-11.86,69.09-11.09,104.07-3.15.98-6.07,2.99-9.25,3.88-6.21,1.84-12.4,3.79-18.7,5.26-13.62,2.26-26.95,5.92-40.68,7.59-15.88,2.49-31.99,3.72-47.49,8.2-35.46,10.83-70.42,23.33-105.9,34.14-16.51,6.09-32.3,13.89-47.92,21.94-14.2,7.69-30.64,14.68-44.49,23.52-12.02,7.32-24.6,15.6-32.1,27.82-4.86,8.45-4.96,19.9-.46,28.52,5.35,9.54,17.05,10.58,26.91,10.69,22.82-.03,44.71-8.82,67.17-12.29,27.84-4.37,52.75-16,79.36-25.1,21.85-7.34,44.65-11.07,67.3-14.96,30.82-7.39,62.97-7.18,94.5-7.18,9.23.41,18.68.5,27.68,2.63,1.07.15,2.03.09,2.89-.13,2.34,6.1,5.16,12,8.69,17.61,7.43,14.61,22.78,21.18,38.26,23.35,25.09,5.08,50.69,6.38,76.24,6.67,19.29.14,38.49-1.29,57.58-4.06,16.55-3.55,43.01-2.67,55.3-14.93,1.79-2.44,3.12-5.08,4.06-7.83.29.09.59.17.9.22,17.05-2.07,34.32-.44,51.41-2.9,16.3-2.7,35.08-1.36,48.45-12.64,13.95-12.93,11.54-37.18-2.41-49.14-8.36-6.22-18.02-11.22-28.17-14.22.17-1.77.48-3.49,1.21-5,4.49-11.85,14.44-20.33,21.21-30.81,3.82-5.26,8.04-10.83,13.31-14.79,2.66,8.82,5.3,17.64,7.76,26.52,5.47,18.74,9.06,38.13,16.45,56.24,11.58,27.25,15.61,52.22,50.8,54.75,13.1,1.75,26.17-.84,38.84-4.05,19.89-3.96,41.71-14.47,36.39-38.47-2.87-11.82-6.79-26.87-18.68-32.46-.95-.18-1.98-.28-3-.41-.98-.69-2.2-1.13-3.68-1.19-.22-.04-.44-.08-.65-.12-.79-.55-1.42-1.33-1.79-2.49-4-9.64-9.23-18.69-10.83-29.19-3.51-17.49-7.42-34.91-10.71-52.45-3.76-18.46-6.8-37.06-9.44-55.71,4.98-.53,8.58-5.32,12.75-7.9.85-.76,1.72-1.51,2.59-2.26.12,11.57.83,23.15,2.41,34.57,5.57,36.5,16.72,71.81,31.1,105.75,9.08,24.39,16.63,60.21,49.66,57.75,20.17.72,51.18-6.67,57.54-28.52,5.82-21.59-17.29-41.02-37.96-39.11ZM688.53,213.7c1.9,2.27,3.37,4.42,4.53,6.46-.47.21-.93.45-1.39.76-2.98,3.95-7.52,7.01-12.35,8.08,4.32-3.97,7.57-9.62,9.2-15.3ZM185.32,974.35c-20.76,6.22-40.98,14.17-61.27,21.78-16.02,4.8-32.24,7.3-48.64,11-19.08,3.17-38.51,11.92-57.91,6.23-7.68-7.29-1.18-19.37,5.91-24.79,14.57-12.76,32.05-21.61,49.4-29.96,15-7.65,29.84-15.89,45.69-22.46,18.55-8.6,38.62-13.09,57.89-19.74,24.46-7.61,48.06-17.34,73.19-22.89,32.89-5.34,66.44-8.57,98.16-19.28.96-.5,2.04-.91,3.16-1.32.93,15.36,2.76,30.66,5.53,45.78,2.47,12.89,4.55,26.15,7.97,38.95-59.71-7.19-121.15,2.54-179.09,16.69ZM945.56,946.4c-15,11.23-36.52,15.91-54.43,9.3-8.53-6.36-11.86-17.77-15.93-27.24-6.53-20.26-15.58-39.57-22.12-59.83-11.16-34.23-18.16-70.05-17.01-106.13,2.13-2.02,4.15-4.15,5.96-6.46,3.35-4.26,6.46-8.69,9.26-13.33,3.37-4.94,10.75-11.41,5.14-17.36-9.87-7.97-15.76,9.52-20.82,15.57-2.37,3.53-5.08,6.77-8.01,9.81-2.41.46-4.56,2.1-5.29,5.09-5.44,4.89-11.33,9.33-17.07,13.79-.24.08-.48.17-.72.26-3.37-25.65-6.14-51.38-9.1-77.05-.45-25.26-3.73-50.42-2.62-75.68.39-8.36.14-16.72-.17-25.08.45-3.78-2.29-7.4-6.09-7.92-3.72-.57-7.64,2.25-8.01,6.07.4,24.79-.98,49.58,1.63,74.31-.15,29.16,4.76,57.91,7.49,86.86,5.85,42.7,11.97,85.31,21.68,127.35,2.61,15.05,6.09,29.74,12.52,43.5-6.2-.43-12.41-.28-18.49.9-6.61,1.67-18.21,6.31-12.48,14.81,4.86,6.21,11.33-.21,16.99-1.29,8.79-1.08,17.65.05,26.37,1.4,2.43,1.13,5.14,1.8,8.05,1.94,5.47,6.73,8.21,15.31,9.43,23.8,1.68,9.88-8.18,14.51-16.1,16.84-20.48,5.97-45.56,12.65-64.46-.69-7.33-7.4-9.86-17.81-13.86-27.14-11.72-25.42-16.43-53.17-24.63-79.82-9.07-31.78-19.68-63.05-28.94-94.76-5.36-17.48-13.6-33.78-20.29-50.77-7.99-27.48-10.3-55.61-10.17-84.41-.07-6.26.05-12.51,1.02-18.71.75-5.28,3.52-12.36-2.95-15.12-18.91-8.55-10.77,61.03-10.81,72.09,1.4,14.91,4.21,29.76,7.48,44.36,4.41,14.35,11.13,27.88,16.99,41.64,7.68,22.52,14.16,45.42,21.59,68.02,1.35,4.65,2.73,9.28,4.13,13.92-1.41.73-2.86,1.81-4.28,3.29-12.04,9.34-19.1,23.34-29.17,34.53-3.74,4.49-10.18,15.23-12.18,24.52-9.3-.86-18.69.17-27.6,3.66-4.92,3.62-2.79,12.15,3.36,12.81,8.4-1.14,16.84-3.35,25.49-2.18,1.5.22,3.12.54,4.81.93.01,0,.03.01.04.02,0,0,.02,0,.02,0,11.1,2.6,25.29,8.77,30.84,17.28,16.79,35.05-35.95,29.74-56.57,33.65-5.84.7-24.22-1.42-34.46,1.44-.4-9.79-3.74-19.89-7.54-28.16-11.2-15.05-30.12-23.1-48.44-24.94-.87-.07-1.74-.13-2.61-.19,1.79-11-1.9-27.36-1.93-34.47-.79-10.94-1.18-21.91-1.33-32.89-6.35-61.07-12.21-126.27-47.23-178.57-2.28-6.95-12.92-5.9-13.79,1.32-.4,5.88,5.06,10.18,7.54,15.14,21.34,36.18,28.98,78.61,34.48,119.75,3.24,21.85,5.08,43.77,5.59,65.84.06,14.23,3.98,28.7,2.25,42.96-14.48-.71-28.97-.53-43.23,2.7-8.95,2.38-5,16.21,3.84,13.67,26.31-4.37,79.69-6.68,94.23,20.11,2.16,9.58,9.75,28.76-3.41,32.89-38.56,9.02-78.6,12.93-118.18,10.63-22.77-.74-46.25-2.9-68.01-9.77-25.89-14.45-28.08-59.39-34.1-85.89-10.57-70.09-3.9-144.43,25.58-209.38,12.93-27.02,33.97-49.24,54.44-70.75,18.95-18.6,41.17-32.91,62.73-48.19,51.8-34.25,116.01-48.53,160.92-92.97,26.23-25.06,54.65-68.99,50.52-107.67,3.08,1.46,6.15,2.92,9.21,4.42,8.56,2.46,16.96,5.14,25.26,8.33,11.5,2.16,21.87,8.31,33.85,8.04.49.02.98.03,1.46.03,1.15,0,2.29-.05,3.44-.13,9.76.87,10.47-14.07.77-14.18-9.57,1.1-18.47-2.15-27.23-5.46-26.14-6.51-51.35-17.04-73.93-31.96-12.66-9.06-21.38-20.98-31.16-33.4-.14-.22-.27-.44-.41-.66,2.48-.43,4.97-.8,7.49-.77,9.33-.23,9.3-13.97,0-14.2-5.02.05-9.91.79-14.69,1.99-1.34-2.81-2.55-5.68-3.68-8.58,4.83.81,9.57,2.37,14.46,2.67,9.33-.22,9.29-13.98,0-14.2-6.74-2.01-12.97-2.85-19.1-2.89-.99-3.79-1.82-7.62-2.5-11.48,6.63,2.56,12.99,5.9,19.19,9.33,11.55,8.49,20.74-7.64,8.16-11.67-9.39-5.2-19.07-10.37-29.41-13.38-1.4-13.53-2.13-27.54.3-40.87,1.91,13.39,9.31,26.7,21.41,30.71,9.91,3.37,21.79.95,29.86-5.6.68-.47,1.28-.95,1.84-1.42.83,4.18,1.79,6.71,7.05,7.25,12.39-1.32,5.49-17.83,2.68-25.03-3.14-6.2-7.3-11.94-12.21-16.87-9.03-9.71-21.46-17.77-35.24-16.19-1.64.09-3.44.24-5.11.65,4.35-7.5,9.08-14.78,13.54-22.21,4.54-8.58,13.9-16.97,11.51-27.4-8.91-26.77-15.64-53.87-25.07-80.54,32.25,3.3,50.99,15.83,73.71,38.09,6.27,8.43,11.55,17.89,19.56,24.86,5.55,4.42,12.18,1.19,17.73-1.41,22.24-6.61,45.71-7.34,68.99-7.57,12.01-.05,12.67-26.68,15.49-35.69,2.86-17.95,10.96-34.16,19.26-50.12,2.03-2.8,3.46-7.9,7.12-8.63,7.33,2.1,12.82,8.13,18.93,12.44,21.1,19.45,34.65,46.66,37.21,75.27-.45,12.43-3.68,24.67-7.18,36.71-.69,1.22-1.44,2.4-2.28,3.53-4.15,8.57-2.73,23.81-1.17,33.16,1.97,12.75,4.84,25.48,6.56,38.35.99,6.91,1.83,13.75,1.17,20.74-.57,7.05.49,14.1.67,21.15.7,3.28.1,7.5.58,11.11-.46,6.39-1.33,12.75-2.64,19.02-3.52,17.66-12.01,33.72-17.44,50.78-14.52,42.93-12.75,85.63,5.49,127.05,16.97,44.26,28.19,93.95,15.16,140.68-5.81,26.73-22.41,48.89-37.35,71.17-2.99,4.4-6.33,8.54-9.3,12.95-3.02,4.93-12.81,12.61-5.36,18.66,1.53,1,2.94,1.43,4.27,1.43,6.1,0,10.25-9.07,13.84-13.64,2.13-2.98,4.33-5.9,6.47-8.86.99,4.8,2.34,9.58,2.95,13.83,3.19,16.79,1.83,34,2.1,50.99.67,35.66-5.75,71.01-4.77,106.7.29,17.06-.57,35.55,5.97,51.52-14.58,8.26.07,24.26,8.67,12,2.38.59,4.99-.26,6.81-1.92,14.02-.55,30.44,14.69,19.26,27.35Z" stroke-width="0"/><path d="M784.39,333.75c-13.46-.24-26.68-3.92-38-11.28-11.2-7.13-12.26-14.38-13.12-19.97,3.78-3.08,7.61-6.15,11.45-9.17,4.33-3.25,11.1-6.57,10.27-12.99-.56-4.16-4.57-6.22-7.86-8.11-5.64-3.18-12.35-2.27-18.55-2.08-9.29.19-29.5.52-30.86,12.54.08,5.46,5.3,8.31,9.4,10.83,3.98,2.62,6.9,6.55,10.53,9.57-.31,1.75-.57,3.52-.96,5.08-1.58,5.04-3.21,10.25-6.91,14.18-2.39,3.38-4.8,6.96-8.62,8.86-8.53-2.58-13.14,10-4.93,13.53,13.78,4,24.24-11.29,29.92-21.73,11.92,14.23,30.41,22.32,48.65,24.17,3.18.33,6.38.84,9.58.76,9.34-.26,9.27-14.03,0-14.2ZM733.44,284.12c-2.77,2.17-5.35,4.59-8.25,6.58-.77-.78-1.52-1.57-2.3-2.33-1.26-1.24-2.55-2.43-3.89-3.59,4.79-.5,9.63-.37,14.44-.66Z" stroke-width="0"/><path d="M755.66,233.08c16.16,7.55,35.63,8.71,51.87.8,6.52-3.85,11.46-9.8,16.09-15.67,21.36-27.69-10.23-44.95-36.03-37.14-15.75,2.8-29.02,12.89-37.88,25.97-5.33,7.58-13.6,23.79-5.86,31.74,4.54,3.54,11.62.32,11.81-5.7ZM812.65,209.16c-.84,1.18-1.64,2.26-2.44,3.27,1.42-4.09,2.2-8.45,2.31-12.59.17-1.37.17-2.63.05-3.85,4.38,2.55,5.49,6.81.08,13.17ZM763.47,212.29c.96,4.32,2.59,7.85,5.26,10.68-3.6-1.1-6.97-2.58-9.58-4.44,1.33-2.14,2.77-4.24,4.32-6.25ZM742.33,229.63c.06-.26.24-.44.4-.65-.14.21-.28.43-.4.65ZM743.23,228.33c.29-.41.69-.76,1.11-1.04-.4.31-.77.65-1.11,1.04Z" stroke-width="0"/><path d="M870.53,141.4c10.04,7.74,19.64,15.95,28.86,24.63,16.86,12,17.19-18.64,18.78-28.64,2.43-21.36,3.04-43.41-2.37-64.4-3.39-13.61-11.13-25.62-20.24-36.09-9.56-10.08-20.67-4.56-24.67,7.29-3.38,8.48-6.38,17.2-7.86,26.22-2.79,10.27-4.55,20.77-7.12,31.09-.77,3.73-1.37,7.48-2.05,11.22-.91,2.88-1.51,5.63-.58,8.7,2.21,8.45,11.22,14.08,17.24,19.96ZM875.98,77.32c2.11-10.46,4.72-20.9,9.37-30.56,25.95,27.53,21.56,68.16,17.02,102.71-1.22-1.22-2.44-2.45-3.73-3.6-10.55-8.98-22.43-16.89-31.57-27.53,2.96-13.65,5.46-27.46,8.91-41.02Z" stroke-width="0"/><path d="M801.91,259.19c-8.45,2.85-16.48,6.67-24.01,11.43.05-.03.11-.05.17-.08-.94.46-1.77,1.1-2.45,1.98-1.16,1.49-1.67,3.43-1.42,5.3.45,3.32,3.5,6.18,6.88,6.18,4.87-.45,8.52-4.38,12.9-6.25,10.3-4.61,20.95-8.44,31.44-12.59,9.47-3.34,19.73-3.75,29.68-3.39,3.66.18,7.81,1.69,10.99-.82,4.92-3.5,2.7-12.12-3.38-12.65-10.7-1.39-21.6-.95-32.23.79-9.99,1.92-19.15,6.51-28.58,10.11ZM778.41,270.38c.3-.13.6-.25.92-.34-.32.09-.62.21-.92.34Z" stroke-width="0"/><path d="M872.82,286.63c-7.81-3.24-16.23-4.64-24.55-5.89-15.14-1.24-30.32.82-45.31,2.78-5.6,1.41-14.07.33-17.97,5.01-3.75,4.75.71,12.17,6.68,11.19,6.22-1.36,12.57-2.03,18.88-2.86,18.85-2.62,38.66-4.36,56.74,2.84,8.6,3.57,14.01-9.49,5.52-13.08Z" stroke-width="0"/><path d="M846.79,316.82c-6.43-2.16-12.43-5.62-19-7.51-9.18-2.9-18.81-3.99-28.36-4.93-5.61-.4-11.63-2-16.83.96-7.08,4.08-2.37,15.11,5.47,12.97,2.62-1.22,5.52.05,8.29.06,2.31.17,4.64.32,6.94.62,7.55.98,15.14,1.99,22.34,4.56,6.38,2.08,12.15,5.81,18.73,7.24,8.83,1.3,11.19-12.2,2.41-13.96Z" stroke-width="0"/></g></svg>