<?xml version="1.0" encoding="UTF-8"?><svg id="b" xmlns="http://www.w3.org/2000/svg" viewBox="0 0 1129.48 717.44"><g id="c"><path d="M595.86,336c6.69,12.63,11.63,26.65,20.4,37.61,21.32,26.64,50.47,36.07,84.34,36.36,30.48.26,61.22-7.96,91.31-.17,57.1,14.77,113.68,31.04,158.42,73.17,17.65,16.62,24.33,37.64,26.37,60.32,2.29,25.45,16.53,40.65,38.04,51.45,3.72,1.87,5.72.61,9.07.18,33.03-4.28,57.15-40.44,46.7-71.69-27.81-83.2-68.67-158.95-126.69-225.38-15.96-18.27-36.11-33.64-48.6-53.68-33.63-53.95-88.86-81.44-137.01-117.23-72.49-53.88-152.2-52.4-233.66-22.64-16.25,5.93-32.47,12.17-47.57,22.71-20.49-19.25-31.5-45.93-52.3-65.62C380.89,19.89,328.2,2.74,270.49,4.59c-104.61,3.36-169.44,67.28-193.64,166.55-12.33,50.6-4.34,102.44-4.43,153.71-.06,32.36-10.64,57.89-38.12,75.88-5.68,3.72-9.86,10.01-15.79,13.02-13.8,6.99-16.04,19.61-12.64,31.26,3.93,13.44,17.46,18.19,30.58,17.76,33.98-1.13,60.81-15.08,80.55-44.11,19.54-28.73,18.73-59.37,15.51-91.61-6.85-68.6.17-134.25,39.57-194.09,28.72-43.62,83.6-65.23,129.64-55.71,60.92,12.6,92.54,55.25,104.58,107.21,2.99,12.89-5.98,23.35-11.5,33.12-23.25,41.17-36.13,86.38-40.21,131.92-2.98,33.21-4.81,67.43,2.87,102.84,9.04,41.69,20.5,81.37,39.53,121.36-34.15,13.91-69.51,16.29-104.27,20.41-16.87,2-29.2-10.97-42.22-19.78-7.86-5.31-15.4-11.29-22.26-17.82-12.08-11.49-20.88-6.42-29.07,4.56" fill="none" stroke="#000" stroke-linecap="round" stroke-linejoin="round" stroke-width="8.91"/><path d="M192.46,567.78c-34.46,7.84-47.31,43.81-26.83,73.61,18.45,26.85,46.33,37.29,75.9,44.38,60.01,14.4,121.36,17.01,182.7,20.57,40.91,2.37,81.75.73,122.6,1.9,43.84,1.25,88.13,7.58,131.38,3.25,57.21-5.72,115.4,4.01,171.8-11.96,6.29-1.78,12.2-2.61,17.93-6.71,13.85-9.92,15.5-17.23,1.88-26.73-19.52-13.62-39.8-26.04-64.41-29.53-11.8-1.67-24.57-3.01-33.47-13.07" fill="none" stroke="#000" stroke-linecap="round" stroke-linejoin="round" stroke-width="8.91"/><path d="M885.58,220.11c12.2-1.34,22.09,4.37,31.14,11.22,56,42.4,110.06,87.22,153.5,142.82,27.5,35.2,47.46,74.74,53.99,120.06,4.15,28.78-7.55,43.38-35.82,42.39-3.71-.13-7.43-.02-11.14-.02" fill="none" stroke="#000" stroke-linecap="round" stroke-linejoin="round" stroke-width="8.91"/><path d="M195.81,561.1c13.43,35.98,48.33,67.08,88.04,64.74,36.71-2.16,74.47.58,108.96-14.03,24.52-10.39,51.58-14.8,73.78-30.65" fill="none" stroke="#000" stroke-linecap="round" stroke-linejoin="round" stroke-width="8.91"/><path d="M654.92,409.55c-11.16,17.96-30.35,31.52-23.82,58.05,9.7,39.35,38,51.62,71.73,28.87,26.8-18.07,48.51-14.06,71.51,10.97,17.08,18.58,33.66,38.02,43.62,60.69,9.3,21.19,16.05,44.93,5.22,68.75" fill="none" stroke="#000" stroke-linecap="round" stroke-linejoin="round" stroke-width="8.91"/><path d="M696.15,607.9c9.88,21.14-1.6,35.49-15.6,49.03" fill="none" stroke="#000" stroke-linecap="round" stroke-linejoin="round" stroke-width="8.91"/><path d="M689.46,601.21c-4.99-2.43-9.14-3.21-13.5,2.12-9.99,12.22-20.67,23.88-31.07,35.77" fill="none" stroke="#000" stroke-linecap="round" stroke-linejoin="round" stroke-width="8.91"/><path d="M372.99,291.42c14.86,4.46,29.72,8.91,44.57,13.37" fill="none" stroke="#000" stroke-linecap="round" stroke-linejoin="round" stroke-width="8.91"/><path d="M359.61,371.66c13.37,1.49,26.74,2.97,40.12,4.46" fill="none" stroke="#000" stroke-linecap="round" stroke-linejoin="round" stroke-width="8.91"/><path d="M765.24,449.66c-18.13,4.65-9.89,23.35-17.83,33.43" fill="none" stroke="#000" stroke-linecap="round" stroke-linejoin="round" stroke-width="8.91"/><path d="M399.73,447.43c-11.89,2.97-23.77,5.94-35.66,8.91" fill="none" stroke="#000" stroke-linecap="round" stroke-linejoin="round" stroke-width="8.91"/><path d="M765.24,554.41c-25.9,24.74-26.57,26.87-15.6,49.03" fill="none" stroke="#000" stroke-linecap="round" stroke-linejoin="round" stroke-width="8.91"/></g></svg>