<?xml version="1.0" encoding="UTF-8"?><svg id="b" xmlns="http://www.w3.org/2000/svg" viewBox="0 0 717.41 1052.01"><g id="c"><path d="M126.04,909.25c-88.13-77.62-107-189.01-50.83-296.62,9.58-18.36,23.07-19.62,33.25-1.49,9.38,16.69,14.99,35.46,23.96,52.41,13.92,26.3,32.84,33.19,60.62,23.8,7.3-62.09,14.71-124.36,21.93-186.66,17.54-151.43,131.93-281.7,301.17-295.23,2.74-.22,5.42-1.16,9.24-2.01-5.87-37.53-28.23-60.44-61.41-73.81-89.82-36.21-203.63,6.34-248.42,92.38-20.62,39.62-30.52,82.81-41.96,125.47-9.81,36.55-20.3,72.82-38.88,106.13-11.59,20.79-26.31,38.32-52.32,38.58-27.21.27-42.53-17.93-53.45-39.87-40.47-81.32-34.31-163.99-7.07-247.55C59.73,88.57,147.04,32.48,260.12,8.56c65.43-13.84,130.87-11.8,193.81,12.84,81.39,31.86,127.91,90.36,131.61,179.68.38,9.14-.14,17.35,10.66,23.15,74.88,40.26,106.48,108.09,116.8,188.38,12.76,99.25-4.26,196.29-23.86,292.98-11.09,54.7-26.19,108.1-54.13,157.04-8.57,15.01-18.42,28.98-32.91,38.88-21.74,14.85-39.65,8.16-47.51-17.21-7.32-23.6-3.08-47.52-.75-76.73-10.08,10.73-16.72,17.84-23.4,24.9-57.97,61.29-118.33,119.95-188.57,167.35-34.43,23.23-70.45,43.39-112.2,50.77-9.28,1.64-18.32,2.22-27.55-.14-20.51-5.23-28.08-17.98-22.4-38.35,6.27-22.5,23.04-37.27,39.02-52.56,8.56-8.19,17.4-16.1,27.38-25.31-16.85-6.22-26.94.96-36.78,9.64-24.69,21.75-50.46,42.03-80.08,56.8-25.06,12.49-50.15,13.21-57.35-.27-11.4-21.35,4.22-36.31,16.45-50.79,11.85-14.03,25.06-26.92,37.68-40.33ZM92.12,617.89c-26.16,53.73-32.65,106.91-26.87,161.46,8.18,77.24,60.69,126.46,138.35,132.34,38.14,2.89,75.4-1.47,112.07-12.39,7.72-2.3,18-8.79,22.91,5.03-1.42,2.15-2.2,4.47-3.82,5.55-2.91,1.94-6.19,4.03-9.54,4.51-54.32,7.71-85.06,49-119.56,84.51-6.91,7.11-15.71,17.64-8.49,28.5,6.64,9.99,18.75,8.16,29.58,6.32,36.74-6.23,68.49-23.83,98.92-43.99,76.7-50.82,142.06-114.34,204.02-181.82,22.26-24.25,37.8-51.47,47.5-82.59,11.02-35.38,22.13-70.74,33.99-105.85,2.51-7.44,3.14-17.32,14.3-20.74,9.64,6.11,5.48,14.27,2.86,22.1-14.24,42.58-29.42,84.88-42.49,127.81-12.07,39.65-21.4,80.05-15.21,122.14,1.1,7.5-.18,17.01,9.42,19.69,9.66,2.69,16.13-4.43,21.72-10.82,16.65-19.04,28.72-41.16,36.69-64.82,40.32-119.68,67.51-241.78,61.15-369.14-2.45-48.97-13.9-96.06-40.01-138.34-39.25-63.56-97.13-90.68-170.58-81.96-115.54,13.72-229.2,124.6-251.31,244.34-6.98,37.83-11.93,76.07-16.59,114.27-4.19,34.34-6.7,68.88-9.95,103.32,36.86,2.68,38.8,1.3,46.22-31.06,3.35-14.59,6.25-29.29,10.14-43.74,3.05-11.32,3.56-25.93,19.32-27.32,13.88-1.23,19.19,10.89,24.32,20.89,31.55,61.53,62.81,123.2,93.95,184.94,3.32,6.57,8.3,13.85-3.6,24.8-41.36-68.15-68.13-143.05-114.48-212.29-6.23,27.42-11.38,49.46-16.21,71.57-4.23,19.37-15.86,29.61-35.81,30.21-22.11.67-44.21,1.65-66.32,2-22.16.35-38.32-10-48.14-29.64-9.22-18.45-17.77-37.23-28.47-59.79ZM568.98,212.93c.39-4.65,1.15-8.1.9-11.48-5.55-76.11-43.24-130.02-113.17-160.25-66.69-28.83-135.81-29.81-205.5-13.11-78.2,18.74-146.17,54.46-188.02,126.36-36.88,63.37-50.83,132.73-43.35,205.92,3.43,33.56,9.43,66.54,30.68,94.34,21.51,28.14,45.9,27.48,65.03-2.35,12.76-19.9,20.9-42.11,27.78-64.64,13.93-45.64,25.37-92.16,41.56-136.98,38.65-107.03,125.66-160.97,238.62-148.01,58.62,6.72,105.06,32.12,119.62,95.44,3.39,14.76,15.1,11.85,25.85,14.75ZM199.03,930.97c-21.81-4.5-39.6-18.95-54.86-9.84-26.29,15.71-48.85,37.56-61.21,72.79,50.06-3.59,78.75-35.6,116.07-62.95Z" stroke-width="0"/><path d="M92.12,617.89c10.71,22.56,19.25,41.35,28.47,59.79,9.82,19.64,25.98,29.99,48.14,29.64,22.11-.35,44.21-1.33,66.32-2,19.94-.6,31.58-10.83,35.81-30.21,4.83-22.11,9.98-44.15,16.21-71.57,46.35,69.25,73.12,144.14,114.48,212.29,11.9-10.96,6.92-18.23,3.6-24.8-31.14-61.74-62.4-123.41-93.95-184.94-5.13-10-10.44-22.11-24.32-20.89-15.76,1.39-16.28,16-19.32,27.32-3.89,14.44-6.79,29.15-10.14,43.74-7.42,32.36-9.36,33.75-46.22,31.06,3.25-34.45,5.77-68.99,9.95-103.32,4.66-38.2,9.6-76.45,16.59-114.27,22.1-119.74,135.77-230.62,251.31-244.34,73.45-8.72,131.33,18.39,170.58,81.96,26.11,42.28,37.56,89.37,40.01,138.34,6.36,127.36-20.82,249.45-61.15,369.14-7.97,23.66-20.04,45.78-36.69,64.82-5.59,6.39-12.05,13.52-21.72,10.82-9.6-2.68-8.32-12.18-9.42-19.69-6.19-42.09,3.14-82.49,15.21-122.14,13.08-42.93,28.26-85.23,42.49-127.81,2.62-7.83,6.78-15.99-2.86-22.1-11.17,3.42-11.79,13.3-14.3,20.74-11.86,35.1-22.97,70.47-33.99,105.85-9.69,31.12-25.23,58.34-47.5,82.59-61.97,67.49-127.33,131.01-204.02,181.82-30.43,20.16-62.18,37.77-98.92,43.99-10.83,1.84-22.94,3.67-29.58-6.32-7.22-10.86,1.59-21.39,8.49-28.5,34.5-35.52,65.24-76.8,119.56-84.51,3.35-.48,6.63-2.57,9.54-4.51,1.61-1.07,2.4-3.39,3.82-5.55-4.92-13.82-15.19-7.33-22.91-5.03-36.67,10.93-73.93,15.28-112.07,12.39-77.66-5.88-130.17-55.11-138.35-132.34-5.78-54.55.71-107.72,26.87-161.46ZM154.69,839.47c-1.16,2.72-2.33,5.45-3.49,8.18,17.57,15.19,35.14,30.39,52.94,45.79,14.11-11.95-4.54-19.68-3.79-29.18,3.81-9.6,17.67-14.9,9.05-30.78-16.4,11.55-33.96,20.47-54.7,5.99ZM251.65,822.02c18.99-3.81,14.11-36.69-5.37-34.47-9.36,1.06-12.39,10.44-11.64,18.7.87,9.53,7.72,15.01,17.01,15.77ZM139.6,815.49c-2.18-7.83-1.81-19.49-13.58-20.02-9.29-.42-15.91,7.86-14.85,16.77,1.02,8.6,4.76,18.52,16.8,18.23,8.83-.22,11.99-6,11.63-14.98Z" fill="#fff" stroke-width="0"/><path d="M568.98,212.93c-10.75-2.9-22.46.01-25.85-14.75-14.55-63.33-61-88.72-119.62-95.44-112.96-12.96-199.97,40.98-238.62,148.01-16.18,44.82-27.63,91.34-41.56,136.98-6.88,22.53-15.02,44.74-27.78,64.64-19.13,29.83-43.53,30.49-65.03,2.35-21.25-27.8-27.25-60.78-30.68-94.34-7.48-73.19,6.48-142.55,43.35-205.92C105.04,82.55,173.01,46.83,251.22,28.09c69.69-16.7,138.81-15.72,205.5,13.11,69.93,30.23,107.62,84.14,113.17,160.25.25,3.38-.51,6.83-.9,11.48Z" fill="#fff" stroke-width="0"/><path d="M199.03,930.97c-37.32,27.36-66.01,59.36-116.07,62.95,12.35-35.23,34.92-57.08,61.21-72.79,15.25-9.11,33.04,5.34,54.86,9.84Z" fill="#fff" stroke-width="0"/><path d="M154.69,839.47c20.75,14.47,38.31,5.56,54.7-5.99,8.62,15.88-5.23,21.18-9.05,30.78-.75,9.5,17.9,17.23,3.79,29.18-17.81-15.4-35.38-30.6-52.94-45.79,1.16-2.72,2.33-5.45,3.49-8.18Z" stroke-width="0"/><path d="M251.65,822.02c-9.3-.75-16.15-6.24-17.01-15.77-.75-8.26,2.28-17.64,11.64-18.7,19.49-2.22,24.37,30.66,5.37,34.47Z" stroke-width="0"/><path d="M139.6,815.49c.36,8.99-2.8,14.77-11.63,14.98-12.04.29-15.78-9.63-16.8-18.23-1.06-8.91,5.55-17.19,14.85-16.77,11.77.53,11.41,12.19,13.58,20.02Z" stroke-width="0"/><path d="M575.74,223.14c9.77-68.41-27.8-146.93-98.39-181.22-56-27.2-113.6-37.09-175.8-30.34-67.86,7.37-129.79,27.2-184.13,69.11C56.13,127.96,27.69,193.34,14.74,267.06c-8.06,45.87-7.14,91.62,4.09,137.07,5.02,20.31,13.69,38.58,25.66,55.75,24.81,35.57,58.99,30.86,81.4-8.72,21.18-37.41,32.1-78.63,43.03-119.84,16.32-61.52,32.56-122.92,81.16-169.35,56.26-53.74,172.81-69.63,235.81-30.01,29.72,18.69,49.08,42.42,47.01,79.4" fill="none" stroke="#000" stroke-linecap="round" stroke-linejoin="round" stroke-width="8.57"/><path d="M203.1,694.3c4.27-64.21,12.65-127.93,20.69-191.77,7.98-63.35,30.03-119.69,69.47-168.93,56.99-71.15,130.42-114.95,222.55-119.38,51.86-2.49,95.95,20.95,130.37,59.46,35.14,39.31,51.21,87.38,58.09,138.99,14,104.93-5.26,206.83-27.96,308.38-10.66,47.69-24.17,94.5-49.22,137.05-7.52,12.78-14.68,25.59-27.65,34.51-18.86,12.97-31.6,7.73-36.76-15.16-4.24-18.79-6.41-36.94-.13-55.84,2.49-7.49.68-16.17-3.94-23.44" fill="none" stroke="#000" stroke-linecap="round" stroke-linejoin="round" stroke-width="8.57"/><path d="M624.99,605.42c-16.42,48.54-34.36,96.65-48.63,145.81-7.34,25.3-21.18,43.77-38.83,62.25-66.01,69.09-133.34,136.42-214.5,188.14-29.83,19.01-61.23,33.8-96.29,41.1-15.95,3.32-29.06.74-38.27-11.4-8.51-11.21.61-22.22,6.3-31.71,9.72-16.24,26.99-26.75,37.52-41.4,26.64-37.08,64.72-47.93,105.74-55.11" fill="none" stroke="#000" stroke-linecap="round" stroke-linejoin="round" stroke-width="8.57"/><path d="M404.41,811.01c-29.9-70.02-66.91-136.45-102.72-203.49-3.38-6.32-6.84-12.35-15.03-10.5-7.33,1.65-9.33,8.23-10.77,14.82-4.21,19.29-9.04,38.46-12.69,57.85-3.67,19.48-14.77,28.25-34.41,27.93-15.71-.26-31.33-.04-47.17,1.41-36.24,3.32-46.53-6.13-68.02-55.27-5.41-12.37-10.11-24.44-20.06-37.25-17.35,18.42-22.15,39.47-27.86,60.92-13.58,50.97-18.85,101.42.32,152.16,18.13,47.98,49.12,81.96,100.67,94.3,13.83,3.31,28.23,5.04,40.71,12.77" fill="none" stroke="#000" stroke-linecap="round" stroke-linejoin="round" stroke-width="8.57"/><path d="M256.64,926.66c-20.86-5.67-37.96-9.07-56.7,11.95-24.25,27.2-54.99,49.23-91.1,60.78-10.91,3.49-22.06,6.02-29.99-6.32-7.06-10.99,1.85-18.16,6.64-25.6,14.38-22.34,35.25-38.9,53.36-57.94" fill="none" stroke="#000" stroke-linecap="round" stroke-linejoin="round" stroke-width="8.57"/><path d="M153.84,847.42c21.98,5.75,40.01,16.54,49.26,38.55" fill="none" stroke="#000" stroke-linecap="round" stroke-linejoin="round" stroke-width="8.57"/></g></svg>