<?xml version="1.0" encoding="UTF-8"?><svg id="b" xmlns="http://www.w3.org/2000/svg" viewBox="0 0 892.36 1084.26"><g id="c"><path d="M449.85,569.9c53.74,55.84,108.08,111.06,154.88,173.2,43.35,57.55,80.99,117.12,78.37,202.36,25.46-38.02,25.68-71.13,27.5-104.23,4.52-81.99-16.97-163.71-.94-245.94,9.73-49.91,24.48-96.98,56.1-137.78,18.49-23.84,42.55-39.06,70.85-47.42,21.31-6.29,39.09.36,50.87,19.85,11.51,19.05.74,34.15-13.31,43-98.51,62.04-104.28,160.37-104.7,261.31-.21,50.24,3.49,101.07-2.94,150.56-7.95,61.22-24.6,121.24-101.32,132.51-4.27.63-9.3,2.57-12.11,5.62-52.64,57.06-121.03,54.37-190.48,53.68-36.28-.36-71.78-12.46-110.65,5.36-22.75,10.43-53.91-18.26-84.2-20.79-8.12-.68-11.67-16.06-7.07-27.84,5.5-14.09,14.38-23.52,29.94-23.78,28.81-.47,57.64-.13,89.27-.13-7.01-44.91-25.05-85.61-42.74-126.42-2.63-10.35,3.52-11.12,11.16-10.27,27.29,19,34.05,49.61,42.37,78.55,7.21,25.07,16.59,45.54,45.66,50.31,8.22,1.35,20.08,3.97,18.01,15.81-1.81,10.36-13.16,11.52-22.04,12.93-25.19,4-52.19-.32-82.27,22.13,67.75-17.22,126.43,10,187.7-3.46,93.39-20.52,137.97-90.34,108.51-181.99-6.58-20.46-16.49-39.29-28.31-57.15-41.28-62.35-86.21-121.72-138.95-175.04-15.65-15.83-36.32-29-37.37-55.08,1.04-4.71,3.86-7.92,8.21-9.85Z" stroke-width="0"/><path d="M342.97,874.55c-1.93,2.82-3.86,5.65-5.79,8.47-20.9-20.82-20.56-52.67-39.71-81.84-28.07,78.54-40.69,154.31-57.04,229.11-8.57,39.2-34.3,58.37-71.31,52.45-23.8-3.81-33.84-11.51-21.53-39.85,54.62-125.81,71.03-256.3,39.37-391.26-9.7-41.37-22.32-82.47-27.4-124.44-12.82-105.78-76.23-194.9-94.5-298.92-10.47-59.61-25.64-118.65-50.64-174.43,1.89-1.49,3.79-2.98,5.68-4.48,27.87,5.54,32.72,29.79,39.36,51,15,47.97,28.72,96.37,39.77,145.44,10.76,47.78,26.26,93.87,47.35,138.04,23.27,48.72,36.22,100.19,40.78,153.75.96,11.31-2.89,16.41,15.67,16.02,19.04-.4,16.37,25.1,18.23,41.27,17.27,149.84,9.83,297.79-34.02,442.94-.94,3.12.22,5.91,4.39,9.72,19.33-8.39,20.08-27.18,24.23-44.47,20.63-85.84,37.27-172.8,70.75-255.1,4.58-11.27,7.55-23.21,15.77-32.7,5.3-6.12,11.92-10.35,19.93-7.8,8.21,2.61,12.85,11.03,10.37,18.07-17.12,48.51.82,92.61,15.48,137.3,1.5,4.57-1.71,8.55-5.18,11.69Z" stroke-width="0"/><path d="M14.43,53.86C3.93,35.9-13.73,16.66,18.17,2.72c25.62-11.19,76.3,13.92,80.78,42.57,10.65,68.13,38.03,130.98,57.68,196.23,8.9,29.57,22.68,56.49,58.26,69.47-1.31-70.11,59.36-54.15,96.74-68.41,31.81-12.14,74.43-6.61,55.15-69.11,34,21.25,22.26,50.76,35.17,69.5-2.76,3.41-6.18,5.93-10.2,7.64-30.6,15.07-65.31,12.92-97.18,23.38-45.72,15-48.52,21.03-28.09,63.63,6.45,13.45,31.62,26.29,13.29,41.98-18.1,15.48-31.03-8.63-45.91-17.19-110.72-63.72-125.26-179.14-154.28-286.54-11.9-44.05-26.86-51.64-59.6-26.64-1.86,1.53-3.71,3.08-5.55,4.64Z" stroke-width="0"/><path d="M389.53,243.98c4.14-.34,8.28-.67,12.42-1.01,19.03-2.68,25.56-37.89,48.36-23.51,24.36,15.37,13.8,43.04,13.04,66.81-2.17,67.64-21.04,130.37-53.8,189.05-12.42,22.25-8.39,38.64,10.52,55.38,12.05,10.67,20,25.98,29.79,39.2-2.11,1.79-4.21,3.59-6.3,5.4-24.6-.43-37.82-34.15-70.15-19.94-13.76,6.05-11.35-16.91-9.18-27.66,7.58-37.5,25.34-71.53,41.52-105.52,24.18-50.81,33.12-103.21,29.74-159.02-14.25-10.49-24.8,7.71-38.02,4.61-16.2-3.8-22.04-10.26-7.93-23.79Z" stroke-width="0"/><path d="M389.53,243.98c-9.93,15.9-5.57,24.79,12.28,17.2,14.73-6.27,26.75-18.91,43.26-31.17,22.44,120.3-46.11,216.13-81.64,331.62,53.08-63.51,56.35,5.52,80.11,13.68,57.44,74.2,127.24,138.17,178.06,217.99,36.63,57.53,57.87,116.35,34.19,184.68-15.44,44.55-47.68,69.35-91.98,78.32-47.93,9.7-96.55,7.81-145.1,3.15-20.6-1.98-42.02-8.63-60.95,7.42-9.85,8.35-20.82,6.31-27.13-4.23-7.29-12.15,2.9-20.52,11.38-26.05,15.52-10.11,33.75-12.67,52.06-13.63,18.74-.98,37.48-1.98,58.22-6.96-48.44,4.09-65.51-22.51-73.24-63.5-5.32-28.22-19.61-54-36.09-77.94-24.79-51.95-50.59-103.76-12.44-163.81-5.61-.79-11.21-1.58-16.82-2.36-17.06,49.64-36.74,98.56-50.5,149.1-15.51,56.96-25.45,115.42-38.28,173.12-6.74,30.32-17.07,35.39-65.12,32.91,41.16-78.64,46.02-165.13,56.92-249.84,10.91-84.77-10.64-168.71-9.94-254.96-19.13,1.68-8.31,23.17-23.26,26.19-11.47-153.63-96.98-286.2-123.36-436.01-6.12-34.76-12.2-72.42-40.21-99.68.36-12.92-14.18-33.51,13.72-33.11,26.27.37,48.2,12.15,52.78,40.44,9.04,55.85,33.93,107.36,45.07,161.94,17.09,83.76,90.3,111.06,144.59,158.79-10.31-21.22-19.28-44.82-31.62-61.09-24.57-32.39-.3-34.93,17.52-43.56,40.17-19.47,85.41-17.21,127.51-28.63Z" fill="#fefefe" stroke-width="0"/><path d="M665.66,1002.05c3.13-10.58,3-18.12,6.67-21.39,60.48-53.69,51.87-124.9,50.62-194.57-1.33-74.33-10.48-149.08,8.06-222.61,12.1-47.98,31.25-92.24,73.4-122.3,15.14-10.8,31.77-18.47,51.03-15.94,20.22,2.66,27.07,12.75,14.67,30.97-3.37,4.95-7.79,9.63-12.7,13.01-85.44,58.58-102.58,145.05-100.38,240.55,1.23,53.2.67,106.57-2.22,159.7-3.9,71.71-34.77,118.25-89.14,132.59Z" fill="#fbfbfb" stroke-width="0"/><path d="M327.49,1023.32c-7.95,29.43-26.24,33.19-47.27,29.76-5.47-.89-9.84-8.38-6.85-14.73,11.37-24.2,32.38-15.93,54.12-15.03Z" fill="#e6e5e6" stroke-width="0"/></g></svg>