<?xml version="1.0" encoding="UTF-8"?><svg id="b" xmlns="http://www.w3.org/2000/svg" viewBox="0 0 454.14 774.04"><g id="c"><path d="M175.58,652.32c-1.3,1.55-2.6,3.09-3.89,4.64-.63,2.7-2.38,4.69-4.18,6.66-7.37,9.58-15.81,18.1-25.34,25.55-2.78,1.48-5.03,6.24-8.85,1.47-2.71-6.46-4.01-13.19-4.06-20.2-.22-36.24.42-72.48-.34-108.72-.04-1.67,0-3.33.98-4.76.54-.68,1.21-1.24,1.96-1.67,4.6-.3,8.53-2.1,11.67-5.55,1.68-.37,3.04,0,3.82,1.68.71,6.78-5.12,7.77-9.14,10.37-5.26,5.58-1.57,12.37-2.49,18.53.07,5.39.26,10.76.07,16.13-.13,24.57-.02,49.15-.08,75.42,8.68-7.36,15.03-14.56,21.89-21.22,3.39-3.91,6.74-7.85,9.73-12.08,5.16-6.14,9.52-12.9,14.81-18.95,3.01-4.39,5.51-9.1,8.55-13.47.6-.94-.08.27.42-.72,6.89-13.61,16.21-24.79,30.52-31.16,2.25-1,3.99-2.93,5.73-4.71,7.8-7.1,15.23-14.44,17.95-25.16,6.34-19.5,1.25-35.03-15.53-47.28-4.14-3.09-8.48-5.82-13.53-7.23-8.25-3.44-17.04-5.11-25.5-7.86-4.35-1.94-9.21-2.62-13.28-5.29-.62-.52-1.03-1.18-1.26-1.95,2.44-3.79-1.85-11.15,6.32-11.92,5.72.38,10.78,3.33,16.39,4.15,5.98,1.49,11.89,3.17,17.7,5.21,19.19,6.79,35,17.65,44.06,36.63.64,1.34,1.69,2.14,3.17,2.35,3.29.57,6.6.27,9.89.33,12.73.39,24.89-2.01,36.43-7.41,3.81-1.23,7.54-2.66,10.87-4.94,12.33-8.05,23.06-17.75,31.23-30.13,1.49-2.26,2.78-4.81,5.58-5.86,4.8,2.52,10.16-2.24,14.9,1.13-.7,7.85-6.46,12.98-10.52,18.92-3.2,4.68-6.75,9.26-10.86,13.28-9.31,9.08-20.3,15.76-31.64,21.93-14.68,7.14-30.27,10.45-46.49,10.8-4.88.1-8.16,1.63-8.75,6.69-2.97,25.59-18.26,42.51-38.95,55.66-4.76,2.68-9.99,4.67-13.75,8.91v-.02c-.91,6.83-5.75,11.63-8.92,17.3-6.01,7.53-9.62,16.96-17.93,22.67l.03-.05c-1.36,5.38-4.5,9.35-9.42,11.92Z" fill="#070708" stroke-width="0"/><path d="M121.41,9.93c.17-.55.34-1.1.51-1.65,1.9-5.5,5.55-5.06,9.74-2.89,1.64,1.08,2.82,2.51,3.44,4.39,1.27,7.42.59,14.91.61,22.37.09,32.12.03,64.23.05,96.35,0,4.05-.19,8.14.77,12.94,3.86-2.4,6.8-4.89,10.28-6.39l-.03-.02c.66-.88.72-2.06,1.41-2.93,1.86-2.24,3.98-4.23,6-6.32,1.76-2.58,4.95-2.69,7.32-4.21l.17-.12c1.4-2.67,3.1-4.78,6.6-3.66,1.69,4.09,9.22,4.42,7.08,11-9.67,11.05-21.83,19.55-31.07,31.12-5.4,6.76-8.94,13.28-8.77,22.4.59,31.6.07,63.22.25,94.82.38,6.55,5.35,4.87,9.23,5.12.74.18,1.39.53,1.96,1.03.98,1.19-1.55,2.37.42,4.05,2.59,2.21.97,3.63-1.95,3.76-3.15,0-6.96-4.53-9.23,1.37-1.23,8.06,2.72,16.08-.02,24.2-.66,1.97-.33,4.33-1.5,6.29-1.37,18.61-.34,37.23-.57,55.84-.18,13.9.05,27.8-.09,41.69-.04,3.44.71,7.32-4.71,10.81-.06-15.86-.03-30.58-.03-45.3,0-14.73-.04-29.46,0-44.18-.07,25.91-.05,51.82-.04,77.74,0,4.93-.6,9.86,2.61,14.38,1.34,1.89,1.98,5.35-.92,6.58-2.87,1.22-6.24,3.28-9.46,1.25-2.8-1.77-1.57-4.6-.29-6.68,2.14-3.48.9-6.32-1-9.24-1.49-4.32-1.15-8.79-1.15-13.21-.02-127.39.02-254.77-.12-382.16,0-7.03,1.74-13.68,2.49-20.52Z" fill="#030303" stroke-width="0"/><path d="M121.41,9.93c-.06,58.56-.16,117.12-.18,175.68-.03,77.71-.01,155.43.01,233.14,0,2.75.31,5.51.47,8.26-1.66,4.79-4.92,2.38-6.86.91-7.75-5.9-16.98-10.93-15.63-23.15.3-2.7-1.36-5.29-1.85-7.98-.49-6.81,5.5-6.24,9.32-8.14,5.02-2.52,3.32-7.21,3.32-11.12.07-115.9.04-231.79.12-347.69,0-5.84-2.7-13.55,8-13.74,2.86-.05,1.12-4.61,3.28-6.17Z" fill="#fcfcfc" stroke-width="0"/><path d="M452.21,305.21c-.61,3.83-1.22,7.65-1.83,11.48-1.23,10.58-4.72,20.25-11.53,28.57-.47.21-.59.55-.35,1.01-.27,2.08-1.05,3.81-3.18,4.6-2.99-.06-5.78-.12-8.52,1.98-2.98,2.28-5.08.64-5.81-2.84,3.15-11.52,9.38-21.81,13.09-33.13,3.24-9.89,2.78-11.85-6.45-16.34-15.99-7.77-33.23-10.43-50.72-11.24-10.46-.49-21.01-.78-31.49.89-5.9.94-10.4-1.12-11.54-7.73.85-5.23-2.63-8.33-5.75-11.61-3.75-5.03-7.95-9.61-13.27-13.06-3.28-2.54-5.95-5.74-9.1-8.42-8.21-6.76-17.01-12.65-26.25-17.91-4.12-2.76-8.69-4.67-13.13-6.8-5.12-2.56-10.51-4.45-15.83-6.49-5.46-3.86-11.01-2.92-16.59-.27-4.58-.49-6.72-3.76-7.74-7.59-4.62-17.45-11.84-33.75-20.97-49.26-.99-1.69-1.48-3.56-.87-5.56,2.77-2.79,4.1-7.44,9.25-7.15.43.1.87.16,1.31.16,6.33,3.85,8.38,10.53,11.1,16.76,4.18,5.03,6.52,11.11,8.22,17.17,2.81,10.01,8.37,16.51,18.73,18.8,2.38.53,4.79,1.41,7.07,2.44,7.78,3.77,15.58,7.52,22.87,12.21,1.54.17,2.97.69,4.34,1.4,3.63,1.85,7.21,3.79,10.55,6.13,1.84,1.23,3.54,2.61,4.69,4.54.65,1.54,1.1,3.3,3.37,3.12,1.54.16,2.59,1.02,3.36,2.3.39,2.87,2.24,3.97,4.94,4.05,1.47.45,2.65,1.25,3.27,2.71-1.2,3.74.15,4.2,3.21,2.48,5.55,1.77,8.84,5.91,11.37,10.83,0,1.15.58,1.7,1.72,1.68,5.17,1.94,8.58,5.88,11.6,10.24,3.54,5.12,7.52,7.17,14.51,6.52,16.85-1.58,33.55,1.47,50.12,4.67,4.59,1.17,9.23,2.2,13.69,3.86,5.41,2.77,11.42,4.22,16.63,7.45,6.5,4.03,12.2,8.64,11.94,17.34Z" fill="#060606" stroke-width="0"/><path d="M95.48,533.6c-.65-.52-1.29-1.03-1.94-1.55-5.28-1.56-9.43-4.53-11.89-9.59-1.27-1.21-2.54-2.41-3.81-3.62-4.28-1.75-8.05-4.03-9.26-8.96-2.22-2.27-4.44-4.54-6.66-6.82-4.88-1.34-6.26-5.79-8.45-9.51l.06.07c-8.97-4.48-12.55-13.67-17.98-21.12-3.66-5.01-7.12-9.44-13.07-12.12-10.47-4.71-14.1-14.64-9.72-25.62,1.47-3.69,2.42-7.3,2.5-11.2-.14-.52-.28-1.05-.42-1.57-1.06-8.54-2.53-17.16,5.08-23.85,5.73-5.28,14.98-4.35,19.85-11.19.6-.73,1.21-1.46,1.81-2.19,4.6-9.33,18.44-9.74,26.4-4.71,5.44,3.44,10.43,6.73,17.43,6.1,3.33-.3,7.14,1.29,8.68,5.27-.36,4.7-4.44,2.17-6.59,3.37-.81.74-2,.96-2.68,1.9.78-.75,1.75-1.23,2.62-1.88,5.17-1.45,7.71-.16,7.82,5.87.13,7.1,3.98,14.57-3.13,20.53-.83.11-1.64,0-2.43-.27-1.11-.64-1.92-1.54-2.41-2.72-.32-1.06-.43-2.15-.35-3.27.86-12.59.13-13.26-11.65-9.34-5.63,1.87-9.03-.43-11.48-5.17-1.56-3.02-3.18-6.09-7.22-5.84-4.62.28-5.44,4.02-6.34,7.57-1.53,6.01-5.17,8.92-11.54,7.92-3.36-.52-6.85-.92-8.62,2.93-1.59,3.47-.11,6.6,2.07,9.2,3.12,3.73,5.99,7.37,4.01,12.64-.12.24-.2.53-.4.71q-8.42,7.57,1.99,12.5c3.42,1.6,5.53,4.29,7.08,7.57,1.71,3.75,3.49,7.45,6.25,10.58,3.79,5.55,8.11,10.72,12.01,16.19,3.07,4.64,7.42,8.09,11.23,12.04,4.36,4.48,8.76,8.91,13.28,13.22,3.89,3.32,8.18,6.18,11.59,10.05,1.28,1.34,2.53,2.69,3.24,4.44.02,3.42,2.19,3.83,4.91,3.49,5.97,1.13,9.63,6.19,14.81,8.65,3.53,2.94,8.14,4.58,10.6,8.81,1.8,4.03,7.08,7.87.67,12.35-.91,1.82-2.66-2.6-3.19.33-1,5.45-4.55,5.75-8.88,4.81-1.62-7.17-6.49-11.59-12.38-15.48-4.93-3.26-10.47-5.98-13.5-11.53Z" fill="#080808" stroke-width="0"/><path d="M95.48,533.6c7.42,5.11,14.64,10.53,22.32,15.2,5.05,3.07,2.57,7.83,3.88,11.69,3.19,3.08,2.74,7.15,2.75,10.97.08,60.59.09,121.18,0,181.77,0,3.81.46,7.91-3.01,10.82-1.66-3.14-1.76-7.07-7.36-7.13-5-.05-3.94-5.15-3.95-8.59-.06-22.47-.03-44.95-.03-67.43,0-35.24.19-70.48-.16-105.71-.07-7.38,1.41-12.45,10.75-13.76-6.58-3.14-16.3-1.73-12.06-12.77.88-2.29-2.24-2.15-4.18-2.08-11.84.37-12.83-1.1-8.94-12.98Z" fill="#fcfcfc" stroke-width="0"/><path d="M121.41,764.05c-.05-67.04-.11-134.08-.15-201.11,0-.81.27-1.63.42-2.44,2.02-2.85,10.78-1.11,5.91-8.66.64-.37,1.31-1.1,1.91-1.05,2.79.24,1.81,3.78,3.93,4.69-.76,1.64-2.89,2.14-2.7,4.73,2.32,32.63.76,65.31.86,97.97.04,11.58,1.35,22.85,3.51,34.13,2.19,5.38.84,10.99.91,16.48.19,14.71.11,29.43.04,44.14-.02,4.42.03,8.92-3.05,12.63-.93.76-1.86,1.52-2.79,2.28-1.13,1.83-2.73,2.49-4.82,1.96-1.83-.81-3.22-1.99-3.4-4.15l-.57-1.59Z" fill="#020202" stroke-width="0"/><path d="M223.58,590.77c6.35-5.34,13.63-9.49,19.38-15.63,11.54-12.32,19.56-26.22,19.93-43.55.08-3.61.99-4.8,4.68-4.67,18.32.63,35.77-3.38,52.58-10.49,2.4,1.82-1.71,3.84.17,5.67-.17,2.45-.77,4.98-.4,7.35.57,3.69-1.25,4.31-4.19,4.31-13.48-.01-26.97.24-40.44-.07-6.54-.15-9.67,1.15-8.74,8.81.97,8.05.31,16.29.32,24.45,0,2.3-.86,4.28-2.61,5.99-3.73.21-.26-6.19-3.24-4.59-3.11,1.68-5.24,5.5-7.28,8.71-.95,1.49-1.14,3.82-.86,5.64.64,4.16-1.26,5.07-4.67,4.12-5.6-1.57-7.99.02-8.3,6.2-.21,4.23-3.84,6.32-8.27,6.52-3.26.15-6.51.64-9.77.98-5.05-4.24,3.28-6.13,1.71-9.76Z" fill="#fcfcfc" stroke-width="0"/><path d="M133.04,8.38c-.94-.77-1.88-1.54-2.81-2.31-.27-1.78.53-3.21,1.54-4.56,10.5,1.62,11.59,3.01,11.65,17.09.11,26.34.03,52.67.03,79.01,0,11.92,0,23.84,0,35.76-7.12,3.51-9.11,2.35-9.12-5.78-.06-37.14-.04-74.28-.03-111.42,0-2.65,1.29-5.54-1.25-7.79Z" fill="#fcfcfc" stroke-width="0"/><path d="M350.18,494.97c7.9-10,17.01-19.14,21.91-31.24,2.51-11.15,8.93-20.79,12.16-31.74,2.15-7.32,2.78-15.43,8.18-21.58.64-.46,1.37-.73,2.16-.81,5.42.78,3.88,6.05,5.82,9.08,1.04,5.18-1.67,10.19-.43,15.55.64,2.76-.69,5.82-5.23,5.5-5.66-.4-8.76,2.22-7.75,8.49.52,3.23-.53,6.46-.22,9.84.46,5.11-.36,10.38-7.96,8.6-4.53-1.05-5.14,1.65-5.12,5.14.04,4.94.12,9.88-.04,14.82-.16,4.91-1.01,8.89-7.56,5.38-2.7-1.45-9.39,5.02-9.08,8.42-.23,4.55-2.48,4.41-5.15,1.95-2.1-1.94-3.25-4.44-1.71-7.39Z" fill="#fcfcfc" stroke-width="0"/><path d="M133,765.55c.17-21.24.32-42.49.55-63.73.03-3.23-.86-6.66,1.55-9.52,2.32-1.63,4.64-3.26,6.95-4.89,3.16.1,8.25-1.66,4.72,4.89v66.5c-.55,0-1.1.01-1.65.02v-63.03c-.56,0-1.12.01-1.68.02,0,16.89-.16,33.77.08,50.65.1,6.7-.96,13.21-1.67,19.8-.4,3.73-1.91,4.8-5.25,4.08-.88-3.31,5.64-4.87,2.08-7.89-2.39-2.03-2.82,3.64-5.68,3.1Z" fill="#fcfcfc" stroke-width="0"/><path d="M395.19,409.71c-.5.13-1.01.26-1.51.4-4.32-.89-8.52-1.96-10.47-6.61.49-5.51,5.16-8.34,8.17-12.09,9.01-11.21,17.73-22.57,24.75-35.17,1.2-2.15,2.36-4.48,5.38-4.53,1.69.5,3.8,2.11,4.88-.37,2.49-5.75,5.75-2.65,8.96-1.09.45,7.12-3.11,12.28-8.15,16.72-1.23,2.02-2.46,4.04-3.68,6.07-1.2,5.16-3.21,9.74-8.44,12.09-1.66,1.14-3.27,2.31-3.22,4.63-3.14,8.67-9.27,14.83-16.66,19.95Z" fill="#090a0a" stroke-width="0"/><path d="M15.25,423.57c1.9,2.91,3.79,5.2,1.04,9.31-7.11,10.65-3.32,22.56,8.71,26.67,5.31,1.81,7.89,5.07,10.69,9.26,5.65,8.47,11.86,16.57,17.83,24.82-2.46-.22-5.14-1.18-7.34-.52-5.74,1.7-5.89-1.62-5.65-5.51.27-4.5-.76-7.66-6.23-7.21-5.56.46-8.37-1.39-7.01-7.7.92-4.23-1.45-6.24-5.88-5.92-5.47.39-8.71-1.22-8.3-7.83.3-4.87-1.74-8.12-7.99-5.87C.96,454.57-.03,450.99,0,447.7c.06-5.97.22-11.96.62-17.92.23-3.41,3.95-2.04,5.02-1.95,5.77.49,5.74.79,9.61-4.27Z" fill="#fcfcfc" stroke-width="0"/><path d="M410.43,278.53c-18.92-3.01-37.85-5.88-57.1-3.89-2.68.28-3.88-1.51-5.35-3.23-4.68-5.48-9.48-10.85-14.23-16.27,10.89-3.66,12.12-2.87,13.37,8.23.14,1.22,1.07,2.34,1.64,3.51,1.01.71,1.01,3.54,3.29,1.55,9.04-2.64,18.36-1.94,27.46-1.38,11.75.73,23.47-.41,35.35,1.43,8.41,1.31,10.62,5.25,12.27,11.71-.89.94-1.96,1.23-3.2.86-1.78-.19-3.06-1.23-3.93-2.66-3.3-5.39-6.44-4.54-9.55.14Z" fill="#fcfcfc" stroke-width="0"/><path d="M213.63,148.34c-3.73,1.41-4,7.37-9.12,6.95-1.85.03-3.14-1.05-4.07-2.42-6.84-10.1-15.64-18.28-25.13-25.78-.82-2.19-2.38-3.4-4.69-3.83-3.5-.64-2.99-3.07-2.32-5.52,2.62-5.91,7.68-4.69,12.47-4.3,2.77.8,5.5,1.73,7.88,3.44,1.54,1.19,2.88,2.61,4.44,3.78,7.78,6.33,14.58,13.48,18.75,22.79.6,1.63,1.2,3.26,1.8,4.89Z" fill="#0c0c0c" stroke-width="0"/><path d="M259.72,205.38c-6.22-2.07-12.42-4.22-18.67-6.17-2.34-.73-3.4-2.11-4.28-4.39-3.81-9.95-7.9-19.78-11.89-29.65.63-.62,1.29-.65,1.98-.1,1.17-1.13,2.22-2.43,3.54-3.35,4.41-3.1,7.82-.93,9.25,4.25,1.81,6.57-1.95,13.14.84,19.51.54,1.25.31,3.4,1.14,3.86,4.34,2.39,12.22-3.53,13.09,8.23.42,5.58,11.61,1.88,17.86,2.4,7.99.66,8.85,1.58,6.04,10.15-2.33,1.93-4.11.15-5.82-1.02-3.97-2.7-8.3-3.92-13.07-3.71Z" fill="#fcfcfc" stroke-width="0"/><path d="M93.66,391.34c-12.26-2.88-23.85-7.63-35.54-12.23-6.14-2.42-11.41,2.5-16.53,5.66-2.24-2.76-.37-5.82-.62-8.72-.15-1.74,1.26-3.2,2.29-2.31,4.98,4.33,9.56-.7,14.38-.24,5.95.57,12.01-.18,17.98.28,5.94.45,2.68,5.42,3.64,8.98,8.66-6.55,13.18-.7,17.46,5.82,1.44,1.91.7,3.16-1.23,4.05-1.02.14-1.63-.29-1.83-1.3Z" fill="#fcfcfc" stroke-width="0"/><path d="M133.04,8.38c2.39,1.07,2.7,2.97,2.68,5.41-.25,37.59-.31,75.19-.68,112.78-.06,6.53,2.29,8.62,8.4,6.8.73,1.35,2.02,1.57,3.37,1.68-3.96,4.46-7.92,8.92-12.01,13.52-2.32-2.58-1.23-5.15-1.23-7.43-.09-41.49-.07-82.99-.11-124.48,0-2.76-.28-5.52-.43-8.27Z" fill="#f2f2f2" stroke-width="0"/><path d="M350.18,494.97c2.61,7.34,3.27,7.86,6.85,5.44,1.78,3.26-.15,6.52-4.7,6.3-3.41-.17-5.17.11-5.31,3.73-3.92.51-5.48,5.12-8.94,5.49-1.67-.11-.28,1.5-.5.41-.03-.16.25-.13.78-.23,1.41-.27,2.66-.14,3.67,1-3.44,2.71-7.98,1.57-11.69,3.34-1.45-1.44-3.8-1.52-5.01-3.33-3.28.04-3.79,2.87-5,4.99-2.69-1.81-.13-3.78-.17-5.67,10.85-5.99,20.78-13.25,30.03-21.47Z" fill="#f6f6f6" stroke-width="0"/><path d="M184.96,640.45c5.5-7.79,10.99-15.58,16.49-23.37,3.03-2.5,6.96-2.07,10.42-3.2,3.23,8.95,2.39,10.01-6.21,10.67-2.81.21-6.53,1.25-5.75,6.19,1.26,7.99-1.93,11.27-10.16,8.75-1.37-.42-3.18.6-4.79.96Z" fill="#fcfcfc" stroke-width="0"/><path d="M148.46,133.38c-.56.55-1.12,1.1-1.68,1.65-1.43-2.49-1.7-5.18-1.7-8.01.04-38.82.02-77.63.04-116.45,0-1.32.23-2.64,1.65-3.94v98.64q0,14.55,14.74,16.28c-2.1,1.82-4.19,3.63-6.29,5.45-9.12-5.18-4.6,4.15-6.77,6.36Z" fill="#fcfcfc" stroke-width="0"/><path d="M438.85,345.26c3.84-9.52,7.69-19.05,11.53-28.57,4.57,4.09,2.05,9.61,2.84,14.45.21,1.3.08,2.8-.37,4.04-1.28,3.56,3.86,8.16-.5,10.44-3.95,2.06-9.01,1.01-13.5-.36Z" fill="#f5f5f5" stroke-width="0"/><path d="M423.77,280.18c1.12,0,2.23,0,3.35,0,3.21-.6,6.13,2.14,9.61.48,2.09-1,4.05-.17,4.65,2.88.6,3.06,1.21,5.39,3.72.29,1.79-3.65,8.28-1.2,7.69,3.35-.79,6.08,2.89,12.19-.57,18.03-2.41-10.69-10.84-15-19.82-18.78-2.97-1.25-5.86-2.71-8.78-4.07-.86-.79-.81-1.52.16-2.17Z" fill="#f2f2f2" stroke-width="0"/><path d="M332.02,253.45c-3.9-3.32-7.8-6.65-11.7-9.97-1.45-.63-2.75-1.42-3.41-2.96-.93-.76-1.86-1.51-2.79-2.27-2.65-.43-4.47-1.91-5.55-4.34-1.04-.82-2.08-1.64-3.12-2.46-.17-.27-.34-.54-.51-.81.21-.24.41-.49.62-.73,3.25-4,7.92-2.97,12-2.82,3.58.13,2.47,3.35,2.3,5.82-.25,3.73-.02,6.95,5.26,7.32,8.93.64,10.14,3.3,6.89,13.22Z" fill="#fcfcfc" stroke-width="0"/><path d="M146.78,692.31c2.1-5.17-3.68-2.75-4.72-4.89,8.26-8.35,16.52-16.71,24.78-25.06,6.16,7.93,4.99,13.67-3.37,16.6-1.37.04-2.62.32-3.34,1.67-2.67,1.13-5.32,2.27-6.12,5.48-1.99,2.27-1.54,5.77-3.9,7.86-1.11-.55-2.22-1.1-3.33-1.66Z" fill="#f4f4f4" stroke-width="0"/><path d="M395.19,409.71c5.55-6.65,11.11-13.3,16.66-19.95,2.09,3.84,1.18,8.16,1.91,12.22-2.43,3.14-3.01,8.12-8.34,8.34-4.16,1.28-5.62,4.19-5.01,8.34-1.02.04-3.45,1.3-2.69-.48,1.71-3.98-1.73-5.69-2.54-8.47Z" fill="#f4f4f4" stroke-width="0"/><path d="M427.19,366.98c2.72-5.57,5.43-11.15,8.15-16.72,1.05-1.33,2.1-2.66,3.15-3.98,4.39,9.95-.23,18.28-5.18,26.02-.33-2.95-6.53-.49-6.12-5.31Z" fill="#f1f1f1" stroke-width="0"/><path d="M181.65,115.09c-4.66-.13-9.44-.91-13.36,2.65-2.2,1.24-4.4,2.47-6.6,3.71-3.77-11.95-1.82-14.79,10.14-14.78.43.42.55.81.37,1.18-.18.36-.34.54-.49.53-.21.19-.53.26-.69.54.64-.47,1.3-.93,2.01-1.33,4.36,1.11,8.93,1.9,10.52,7.08.04.13-.29.44-.5.58-.37.25-.86.16-1.39-.17Z" fill="#fcfcfc" stroke-width="0"/><path d="M211.82,143.45c-6.56-7.29-13.12-14.59-19.67-21.88.05-.71.26-1.36.64-1.96.4-.58.86-1.12,1.33-1.64,1.39-.71,1.84-4.71,4.43-1.3,3.25,1.04-1.47,8.02,4.98,6.68,3.86,2.22,4.48,6.51,6.54,10.84-.85-2.73-1.29-4.5,1.79-4.15-.37,4.47,2.82,8.96-.04,13.42Z" fill="#f2f2f2" stroke-width="0"/><path d="M21.65,398.67c-6.48,6.54-8.13,14.5-6.81,23.32-3.18-6.24-1.18-12.88-1.27-19.33-.03-2.35.56-4.6.18-7.15-1.28-8.61.71-9.88,9.57-6.87.75,3.56-.89,6.73-1.67,10.03Z" fill="#fcfcfc" stroke-width="0"/><path d="M21.65,398.67c-5.09-4.28.96-6.71,1.67-10.03,5.49-.56,10.97-1.12,16.46-1.68-.94,5.53-3.87,8.34-9.82,8.53-2.8.09-5.54,2.07-8.31,3.19Z" fill="#f2f2f2" stroke-width="0"/><path d="M181.65,115.09c-2-4.11-5.91-5.44-9.84-6.76h0c0-.55,0-1.11,0-1.66,7.2.93,14.7-2.01,21.68,1.67-.39.42-.83.72-1.36.78-1.56.17-3.12-.05-4.69.02,1.32.12,2.69-.07,3.93.61-3.91,4.58,4.21,3.88,3.24,7.34-.25.88-.19-.31-.12.79.05.8-.46,1.52-1.01,2.13h0c-2.17,1.09-3.23-1.45-5.04-1.54-2.27-1.13-4.54-2.25-6.8-3.38Z" fill="#f3f3f3" stroke-width="0"/><path d="M163.47,678.95c7.41-4.26,4.78-10.55,3.37-16.6,1.61-1.8,3.23-3.6,4.84-5.4,3.31,4.15.99,8.95,1.45,13.42,1.01,9.86.28,10.34-9.66,8.58Z" fill="#fcfcfc" stroke-width="0"/><path d="M226.86,165.06c-.66.03-1.32.07-1.98.1-3.32-5.55-6.63-11.11-9.95-16.66,8.52-2.03,10.14-.78,10.95,6.85.34,3.22,1.12,6.41.98,9.7Z" fill="#f0f0f0" stroke-width="0"/><path d="M211.87,613.88c-1.78,6.58-6.67,3.03-10.42,3.2,3.45-5.54,6.91-11.07,10.36-16.61,1.73,4.46,1.59,8.93.06,13.4Z" fill="#f3f3f3" stroke-width="0"/><path d="M259.72,205.38c8.02-5.31,12.79,2.37,18.89,4.73,1.07,2.27,2.73,3.94,5.02,4.97.39.56.37,1.12-.01,1.67-7.97-3.79-15.93-7.58-23.9-11.37Z" fill="#e7e7e7" stroke-width="0"/><path d="M175.58,652.32c3.14-3.97,6.28-7.95,9.42-11.92,2.18,4.08,3.53,8.89.53,12.38-2.32,2.7-6.66,1.47-9.95-.46Z" fill="#fcfcfc" stroke-width="0"/><path d="M211.86,130.03c-.92,1.29-1.84,2.58-3.26,4.57-1.81-4-3.44-7.63-5.08-11.25,2.35-2.65,5.34-4.96,8.57-2.56,3.55,2.64-.35,6.11-.24,9.24Z" fill="#fcfcfc" stroke-width="0"/><path d="M193.51,120.01c.83-5.26-3.83-5.63-7.08-7.52,1.51-.61,2.71-1.1,3.91-1.59-1.13-.52-2.25-1.04-4.7-2.17,3.43-.17,5.65-.28,7.86-.39h0c1.29,1.69,3.75-.13,5.01,1.66.83,2.22,3.03,4.43.04,6.67-2.99-.86-1.7,4.73-5.04,3.34Z" fill="#fcfcfc" stroke-width="0"/><path d="M223.58,590.77c1.75,2.59,4.71,5.3-1.25,6.57-2,.43-.69,2.05-.46,3.19-3.36.07-6.71-1.33-10.07-.03,1.34-6.38,7.15-7.34,11.78-9.73Z" fill="#f3f3f3" stroke-width="0"/><path d="M296.99,224.72c-3.39-2.07-6.79-4.13-10.18-6.2-.2-2.63,1.73-3.79,3.5-5.06,1.11,0,2.23-.01,3.34-.02,1.91,3.21,6.84,1.05,8.47,4.75.62,4.01-2.55,5.04-5.13,6.53Z" fill="#efefef" stroke-width="0"/><path d="M296.99,224.72c.14-3.29,4.3-3.4,4.98-6.27.24-.23.48-.45.72-.68,1.01-.33,1.92-.28,2.59.67,3.12,3.75-.91,7.68.28,11.47,0,0-.31.27-.31.27-1.62.84-2.54-.11-3.36-1.32-1.63-1.38-3.27-2.76-4.9-4.14Z" fill="#fcfcfc" stroke-width="0"/><path d="M68.58,509.89c3.57,2.48,6.76,5.36,9.26,8.96-2.99,2.01-7.06,2.92-9.32.9-2.65-2.37-2.08-6.55.07-9.86Z" fill="#fcfcfc" stroke-width="0"/><path d="M81.65,522.47c4.71,2.27,8.23,6.01,11.89,9.59-1.17.58-2.33,1.16-3.5,1.75-2.22-1.7-4.45-2.63-6.67,0-4.45-3.18-2.83-7.29-1.72-11.32Z" fill="#f0f0f0" stroke-width="0"/><path d="M53.47,493.56c2.82,3.17,5.64,6.34,8.45,9.51-.6,5.61-5.46,1-7.58,3.56.98-4.74-1.59-8.78-.88-13.08Z" fill="#fcfcfc" stroke-width="0"/><path d="M131.77,1.51c1.67,2.26.05,3.4-1.54,4.56-3.3-1.27-5.91.06-8.3,2.22-2.53-1.89-2.49-4.49-.76-6.46,3.2-3.66,7.03-.73,10.6-.31Z" fill="#ededed" stroke-width="0"/><path d="M342.02,517.11c-2.89-.35-6.08.95-9.49-2.29,4.79.47,7.98-.53,9.5-4.84,1.88-5.36,3.31.23,4.99.46.63,3.94-2.01,5.44-5,6.67Z" fill="#fcfcfc" stroke-width="0"/><path d="M405.42,410.33c2.1-2.29,5.37-3.58,5.21-7.68-.08-2.03,1.95-.91,3.13-.66-1.38,3.94,4,10.94-5.47,11.32-2.99.12-1.23-2.74-2.88-2.98Z" fill="#fcfcfc" stroke-width="0"/><path d="M415.07,385.13c2.81-4.03,5.63-8.06,8.44-12.09.65,1.86,1.3,3.72,1.94,5.58-.79,3.66-3.78,5.13-6.67,6.68-1.32,1.71-2.48.04-3.71-.17Z" fill="#f1f1f1" stroke-width="0"/><path d="M95.4,391.88c.44-1.1.88-2.19,1.31-3.29,3.33-.84,6.66-1.1,9.98.06-.59,4.93-7.66,1.75-8.29,6.63-2.62.3-4.01-.5-3-3.4Z" fill="#ebebeb" stroke-width="0"/><path d="M153.46,685.63c-.51-5.32,2.07-6.52,6.67-5v6.67c-1.18,1.43-1.99,3.25-3.98,3.83-.8.02-1.38-.33-1.75-1.04-1.13-1.27,1.38-2.79-.29-4.03-.03,0-.64-.42-.64-.42Z" fill="#fcfcfc" stroke-width="0"/><path d="M301.97,218.45c-1.97-.88-3.74-1.82-6.2-1.22-4.17,1.01-2.86-1.7-2.12-3.79,2.78-.52,5.55,1.84,8.33.01,2.62,1.68,2.58,3.35-.02,5.01h0Z" fill="#fcfcfc" stroke-width="0"/><path d="M121.99,765.64c1.18.96,2.36,1.91,3.54,2.87,0,.32-.01.63-.02.95.12,1.55.74,3.16-.47,4.58-6.98-.63-5.92-4.18-3.06-8.4Z" fill="#e4e4e4" stroke-width="0"/><path d="M150.11,693.96c.74-2.93-2.01-7.26,3.35-8.34h0c1.02,1.51.01,3.7,1.67,5.01h0c.5.37.66.74.5,1.11-.17.37-.33.56-.5.56-1.21,1.96-3.18,1.61-5.01,1.66Z" fill="#fcfcfc" stroke-width="0"/><path d="M290.31,213.46c-1.17,1.69-2.34,3.38-3.5,5.06-1.06-.59-2.12-1.18-3.18-1.77,0-.56,0-1.11.01-1.67,1.77-2.41,4.37-1.4,6.68-1.62Z" fill="#fcfcfc" stroke-width="0"/><path d="M125.53,768.51c1.56-.22,3.12-.45,4.68-.67,1.96,2.79,1.36,4.85-1.75,6.2-1.48-1.29-3.8-1.92-3.6-4.54.21-.34.44-.67.67-.99Z" fill="#e4e4e4" stroke-width="0"/><path d="M83.37,533.79c.15-1.63.3-3.7,2.14-3.89,2.46-.25,3.47,2.05,4.53,3.9-2.22,0-4.45,0-6.67,0Z" fill="#fcfcfc" stroke-width="0"/><path d="M418.78,385.31c1.58-2.87,3.84-5.07,6.67-6.68,0,0,0,0,0,0,2.1,3.84-1.43,4.86-3.34,6.7-1.12,1.83-2.22.12-3.32-.01Z" fill="#fcfcfc" stroke-width="0"/><path d="M325.32,517.12c2.41,0,4.08,1.11,5.01,3.33-1.65-1.14-6.72,2.87-5.01-3.33Z" fill="#fcfcfc" stroke-width="0"/><path d="M155.13,692.3v-1.67c1.67-1.11,3.34-2.22,5.01-3.34-.97,2.37.19,6.86-5.01,5.01Z" fill="#f4f4f4" stroke-width="0"/><path d="M301.96,218.46c1.07-1.67,1.04-3.33.02-5.01,3.24.25,5.21,1.34,3.31,4.99-1.11,0-2.21,0-3.32.01Z" fill="#efefef" stroke-width="0"/><path d="M422.1,385.32c.92-2.33,3.59-3.79,3.34-6.7,3.6,4.59.47,5.82-3.34,6.7Z" fill="#f1f1f1" stroke-width="0"/><path d="M352.04,268.42c.04.94.08,1.89.13,2.83-2.92-.07-3.22-2.18-3.42-4.38,1.1.52,2.19,1.03,3.29,1.55Z" fill="#e2e2e2" stroke-width="0"/><path d="M198.51,110c-1.84-.05-3.81.3-5.01-1.67,1.13,2.18,5.41-5.11,5.01,1.67Z" fill="#f3f3f3" stroke-width="0"/><path d="M124.86,769.5c1.2,1.52,2.4,3.03,3.6,4.54-1.14,0-2.27,0-3.41,0-.09-1.51-2.82-2.92-.19-4.54Z" fill="#fcfcfc" stroke-width="0"/><path d="M175.3,127.09c9.67,2.31,14.47,10.59,20.66,17.07,3.21,3.36,5.72,7.4,8.54,11.13,10.35,17.26,19.12,35.21,23.64,54.96.89,3.87,3.19,5.5,6.7,6.16,4.55.63,3.24,3.72,2.03,5.92-3.73,6.81-7.13,13.81-10.97,20.56-1.67,2.94-4.46,3.95-7.61,4.42-3.03.44-6.03,1.06-8.66,2.75-1.49.96-2.6,2.29-1.97,4.14.5,1.46,2,2.01,3.41,1.88,7.76-.74,9.12,2.95,7.2,9.62-.88,3.04-2.2,7.56,2.2,8.43,4.4.87,4.51-4.04,5.46-7,5.2-16.18,12.03-31.61,20.77-46.19.99-1.65,1.71-3.51,3.56-4.49,6.11,1.03,11.55,3.69,16.8,6.84,1.44,4.37-1.64,7.32-3.46,10.59-8.79,15.76-16.91,31.74-20.36,49.71-3,15.65,1.44,19.9,16.54,14.69,18.61-6.41,32.53-19.58,46.08-33.14,3.09-3.09,5.05-7.38,9.55-8.97,5.5,3.73,10.31,8.16,13.85,13.85-5.3,11.32-15.7,17.72-24.75,25.37-5.95,5.03-12.64,9.07-19.24,13.21-2.13,1.34-4.52,3.18-2.96,6.04,1.62,2.98,4.32,1.48,6.62.54,1.54-.63,3.01-1.45,4.43-2.33,5.25-3.25,8.28-2.09,9.02,4.29.28,2.47.64,5.42,4.18,5,2.78-.33,3.55-2.99,3.17-5.12-2.37-13.03,4.97-20.9,14.38-27.69,3.93-2.83,5.55-8.47,11.21-9.15.21,7.13,4.14,8.49,10.6,7.77,28.79-3.23,56.99-1.05,83.81,10.92,10.8,4.82,11.03,5.9,7.25,17.07-4.18,12.35-10.18,23.9-15.45,35.78-10.93,18.53-23.49,35.87-37.84,51.91-2.17,5.42-1.79,11.93-6.87,16.12-8.4,2.47-16.42-.76-24.58-1.74-3.55-.43-6.97-1.87-10.5-2.49-3.19-.56-7.96-3.83-9.11,1.27-.94,4.16,4.32,5.06,7.63,6.06,10.87,3.3,22.27,4.08,33.28,6.78.58.61,1.32,1.38,1.12,2.13-3.04,11.79-7.02,23.13-15.91,32.02-10.3,14.15-20.8,28.1-36.75,36.57-4.12-.91-5.36-4.53-6.92-7.67-3.69-7.43-6.73-15.11-8.89-23.15-.88-3.27-1.33-8.53-5.99-7.17-4.45,1.3-2.15,6.08-1.45,9.39,2.01,9.54,5.94,18.34,10.56,26.88,1.13,2.09,3.35,3.83,2.61,6.68-11.92,6.69-24.85,8.88-38.33,8.53-4.26-8.14-1.98-16.76-1.67-25.19.13-3.57,1.24-7.09,1.55-10.67.21-2.38,1.11-5.74-2.03-6.35-3.44-.67-4.42,2.73-5.01,5.39-1.26,5.67-1.76,11.45-2.36,17.24-.68,6.47,1.59,13.31-2.17,19.42-.49-.16-1.31-.18-1.43-.49-7.94-20.56-24.31-31.7-43.85-39.31-1.25-32.73,8.09-63.6,16.95-94.5,3.1-10.79,4.86-21.62,4.4-32.81-.64-15.51-12.86-23.97-27.77-19.16-12.45,4.01-21.95,12.77-32.25,20.23-2.6,1.65-5.42,2.92-7.87,4.83-8.18,5.68-16.46,11.26-25.46,15.51-5.23,2.47-7.28,5.98-7.23,11.66.16,16.58.11,33.16.06,49.74-.3,3.44.76,7.33-3.15,9.57-2.64-1.54-2.44-4.17-2.33-6.61,1.49-34.3.26-68.61.64-102.89.28-5.13,3.86-3.54,6.65-3.09,13.08,2.1,16.92-1.18,18.63-14.48,1.5-11.66-4.09-20.07-11.17-28.09l-.52-.49-.71.06c-3.95-1.25-8.62-.11-11.93-3.55,0-34.14.08-68.29-.1-102.43-.03-5.27,1.19-9.51,4.63-13.62,11.23-13.45,23.18-26.1,37.2-36.69Z" fill="#e1e2e4" stroke-width="0"/><path d="M121.71,535.77c-5.62-1.66-9.16-6.64-14.37-8.97-2.86-.22-4.61-1.88-5.69-4.4-1.13-1.15-2.26-2.31-3.39-3.46-.72-4.56,3.16-5.42,5.87-6.89,17.82-9.69,31.17-23.76,41.05-41.31,1.94-3.44,3.83-6.88,8.49-7,8.38,2.54,16.68,5.26,23.23,11.51l-.31.49c1.48,5.97-1.39,10.89-4.31,15.5-3.86,6.08-7.76,12.18-12.29,17.83-1.76,2.2-5.41,4.91-2.07,7.69,3.38,2.8,6.23-.67,8.27-3.16,7.08-8.6,13.51-17.63,17.66-28.1,1.16-2.92,1.67-7,6.64-5.38,8.89,2.68,18.33,3.6,26.6,8.3,1.86,2.48,1.47,5.19.89,7.95-3.7,17.63-11.63,32.73-26.25,43.82-1.1.84-2.3,1.54-3.37,2.42-2.14,1.75-5.05,3.74-2.81,6.72,2.15,2.86,5.18.99,7.4-.58,12.21-8.61,22.06-19.24,27.54-33.4,1.9-4.9,3.13-10.05,5.11-14.91.92-2.25.77-5.93,4.94-5.33,18.27,13.18,24.54,32.52,16.32,50.35-6.58,8.44-14.82,14.12-25.66,15.54-2.51.33-5.54.76-5.59,3.88-.05,3.45,3.21,3.16,5.63,3.46,2.7.33,5.65-.24,7.74,2.21-1.4,1.29-2.6,3.01-4.25,3.81-14.75,7.21-25.34,18.49-32.78,32.94-6.74,2.15-12.95-.42-19.24-2.16-12.11-3.35-22.85-9.32-32.69-17.06-3.12-2.45-5.62-5.24-6.28-9.31-.06-5.38.12-10.78-.25-16.13-.39-5.62,2.9-2.46,4.96-2.36,4.69-.57,8.22,2.53,12.3,3.88,8.38,3.49,16.8,6.9,25.77,8.61,2.42.46,5.41,1.1,6.47-1.85,1.24-3.47-1.72-5.02-4.32-5.85-6.28-2.01-12.55-4.09-18.93-5.8-4.5-1.84-9.09-3.52-12.33-7.44-.86-1.43-2.33-1.64-3.78-1.88-4.93.24-8.07-2.58-10.71-6.25-.03-4.13,3.9-4.87,6.1-7.1,1.38-1.4,2.88-2.93,1.87-4.98-1.19-2.4-3.55-2.38-5.73-1.6-4.61,1.64-8.37,5.28-13.48,5.77Z" fill="#e1e2e4" stroke-width="0"/><path d="M176.79,346.91c10.17-9.91,21.21-18.79,35.18-22.38,13.33-3.43,27.68,4.47,28.41,20.71.71,15.87-3.46,30.64-7.81,45.54-6.35,21.71-11.48,43.71-13.86,66.25-.34,3.24.43,6.59.54,9.9.09,2.65,1.03,5.71-2.65,6.96-6.03-1.71-12.07-3.42-18.1-5.13-2.17-3.12-8.89-4.99-1.84-10.5-5.15-2.14-9.8-1.43-14.17-2.24-5.45-1.01-2.75,7.38-7.84,5.93-8.79-3.13-18.26-4.9-24.84-12.44.06-7.2-6.91-10.01-9.81-15.41-1.05-1.96-3.68-3.16-4.79-5.44-.03-17.68.03-35.37-.17-53.05-.05-4.06.85-6.41,5.04-8.06,10.82-4.26,19.93-11.68,30.05-17.28,5.1,1.05,8.34,5.61,7.4,10.54-.31,1.62-1.07,3.13-1.42,4.75q-2.38,11.11-13.75,10.42c-7.74.63-8.98,2.05-7.64,8.93.42,2.17,1.42,4.23,1.36,6.5,0,3.08-3.37,2-4.77,3.83,2.94,2.09,5.86,2.45,9.03.86,2.44,0,4.29,1.33,6.15,2.66,2.74,3.37,11.69,2.06,7.96,10.51-.17.39,1.08-.5,1.33-.88,2.07-3.25,4.23-.69,6.36-.2,3.04,2.81,6.91,4.81,8.64,8.89.07,2.19-.31,4.33-.8,7.53,4.89-3.12,12,4.46,15.04-4.68,5.61-3.32,7.71-7.31,2.46-12.73-.83-1.41-1.33-3.31-2.91-3.88-7.65-2.8-8.5-9.15-8.66-15.95,1.16-4.85,5.27-4.08,8.58-4.16,7.05-.17,11.3-3.2,12.08-10.43.62-2.42.6-4.95,1.06-7.38.57-3.04,2.67-2.62,3.56-2.26-5.59.37-10.74-1.5-10.53-9.86.08-3.08-2.37-4.27-5.19-4.05-8.24.65-16.62-1.54-24.74,1.23-3.47,1.19-4.78.06-3.93-3.52Z" fill="#fefefe" stroke-width="0"/><path d="M160.03,650.4c-7.81,9.21-16.23,17.81-26.32,26.78v-79.88c2.66-2.12,4.68-.1,6.63,1.2,11.33,7.61,23.64,12.8,36.94,15.88,2.79.65,8.1.11,6.18,6.1-4.72,6.44-8.75,13.44-14.88,18.76-5.98.05-10.94-3.28-16.41-4.93-2.35-.71-5.18-1.75-6.49,1.25-1.24,2.84,1.24,4.46,3.26,5.89,2.26,1.61,5.04,2.14,7.46,3.39,2.14,1.1,5.96,1.42,3.64,5.56Z" fill="#e1e2e3" stroke-width="0"/><path d="M150.16,448.47c7.76,5.16,16.12,9.06,24.97,11.92,1.92,1.78,6.09-.55,6.68,3.65-.03,1.56-8.1,2.16-.45,5.07,1.33.5-4.62,2.76-4.47,6.14-7.72-3.37-15.44-6.73-23.16-10.1-5.12-.73-9.69-2.89-14.12-5.4-13.94-8.63-27.64-17.62-40.27-28.14-2.72-3.67-7.76-5.67-8-11.12,5.72-6.04,2.45-12.97,1.68-19.52-.38-3.22-.73-7.7-6.32-5.66h0c1.53-2.7,5.79-.63,6.95-3.98.58.18,1.16.36,1.74.54,1,1.13,2,2.27,3,3.4,1.42,3.54,3.36,6.82,3.51,10.87.3,8.3,10.13,20.32,18.14,22.45.38.1,1.09-1.03,1.65-1.59,3.55,1.04,7.61,1.69,3.33,6.77-1.64,1.94-5.11,3.75-3.39,6.76,2.08,3.65,3.36-3.97,6.18-1.02.44.46,2.08-.21,2.46-.27-4.09-34.54-.58-69.07-.44-103.53v94.29c2.78-3.92,1.86-6.67,1.86-9.2.08-30.82,0-61.63.13-92.45.01-2.93-1.84-7.05,3.24-8.13,5.99,3.78-.43,4.76-1.57,6.94-.03,34.51-.1,69.02,0,103.53,0,2.84-1.37,6.1,1.33,8.6,6.35.98,10.97,4.84,15.31,9.17Z" fill="#050505" stroke-width="0"/><path d="M230.54,495.12c-4.18,5.72-4.91,12.77-7.28,19.18-5.81,15.71-16.3,27.56-29.9,36.91-3.71,2.55-7.97,4.27-10.83-.51-2.45-4.1.18-6.98,3.96-9.42,19.2-12.34,27.94-30.87,30.61-52.85,5.09,1.02,9.41,3.57,13.45,6.69Z" fill="#a0a1a3" stroke-width="0"/><path d="M377.05,418.67c2.92-4.7.94-11.55,6.61-15.03,2.61,3.29,7.95,2.35,10.02,6.48-4.32,7.74-4.9,16.7-8.11,24.82-3.91,9.89-7.22,20.02-13.48,28.79-4.46-.04-8.89,5.93-13.37.05,5.21-10.99,11.87-21.34,14.78-33.35-1.16-4.62.75-8.32,3.55-11.75Z" fill="#060606" stroke-width="0"/><path d="M183.45,620.49c-.52-.91-.93-2.5-1.59-2.62-17.68-3.08-33.14-11.3-48.16-20.57.02-6.18.04-12.36.06-18.54,13.39,15.13,30.56,23.22,50.11,26.89,2.71.51,5.4,1.1,8.1,1.65-2.84,4.4-5.68,8.79-8.52,13.19Z" fill="#a3a4a6" stroke-width="0"/><path d="M190.5,480.13c-3.64.4-3.8,3.61-4.75,6.05-4.45,11.51-11.58,21.3-19.53,30.57-2.93,3.42-6.55,5.94-10.6,2.25-3.87-3.53-1.17-6.66,1.5-9.93,8.22-10.06,16.04-20.43,19.46-33.33,4.64,1.46,9.27,2.92,13.91,4.38Z" fill="#a2a2a4" stroke-width="0"/><path d="M311.9,505.31c-9.69-11.34-13.66-25.1-16.51-39.29-.63-3.12.09-6.52,3.99-7.09,4.01-.59,6.74,1.06,7.78,5.52,2.98,12.75,7.25,25.02,14.82,35.89-2.8,2.79-6.28,4.2-10.08,4.97Z" fill="#a2a3a4" stroke-width="0"/><path d="M261.88,513.68c-.91-11.91-.35-23.74,1.72-35.5.33-1.9.63-3.87,1.4-5.61,1.4-3.15,3.39-6.31,7.47-4.87,3.52,1.25,5.07,4.32,4.03,8.11-3.44,12.5-2.98,25.28-2.93,38.04-3.9.52-7.8.65-11.69-.16Z" fill="#a3a4a6" stroke-width="0"/><path d="M228.99,570.55c-3.59.01-7.18,0-10.77.04-3.73.04-5.69-2.09-6.06-5.47-.35-3.23,1.92-6.01,4.66-5.84,12.64.79,20.66-7.9,30.04-13.82-2.57,10.77-9.64,18.35-17.87,25.09Z" fill="#a1a2a3" stroke-width="0"/><path d="M160.03,650.4c-.47-4.22-4.42-3.5-6.91-4.6-3.29-1.45-6.6-2.72-9.16-5.35-1.91-1.96-2.77-4.2-1.08-6.66,1.46-2.13,3.52-3.98,6.23-2.8,6.47,2.8,13.58,4.1,19.46,8.26-1.9,4.44-5.49,7.59-8.54,11.15Z" fill="#a3a4a5" stroke-width="0"/><path d="M181.82,464.04c-2.23-1.22-4.46-2.43-6.68-3.65,1.14-.34,3.52-.54,1.55-2.2-3.37-2.86-2.17-4.21,1.21-4.31,6.14-.18,12.3.24,18.45.43,2.15.07,3.24,2.91,2.85,3.23-4.41,3.61-1.3,7.46-.68,11.21-5.56-1.57-11.13-3.15-16.69-4.72Z" fill="#f4f4f4" stroke-width="0"/><path d="M147.44,551.81c4.22,1.83,8.44,3.65,12.66,5.48.95,2.67-6.25,2.9-1.96,6.56-2.42,2.2-5.16,2.84-8.27,1.74-4.21-.89-7.9-2.91-11.4-5.33,3.24-2.55,6.91-4.65,8.97-8.46Z" fill="#020202" stroke-width="0"/><path d="M133.49,543.7c3.39,2.08,6.78,4.16,10.17,6.24-2.05,4.36-3.63,9.58-10.23,5.55,4.55-4.64-3.74-7.51-1.64-11.81.57-.61,1.14-.58,1.69.03Z" fill="#020202" stroke-width="0"/><path d="M133.52,327.16c-.21-2.48,5.09-3.71,1.57-6.94.56-9.45-2.73-18.91.02-28.36.37-.05.73-.1,1.1-.16,2.66-.17,5.18-1.04,7.79-1.45.37-.02.75-.04,1.12-.06,1.97-.17,3.5-1.11,1.15-2.56-3.31-2.04-.11-2.64.46-3.84,15.78,7.27,17.88,28.32,7.79,43.73-2.26,3.44-5.81,2.87-9,2.38-4.04-.61-8-1.81-11.99-2.75Z" fill="#080808" stroke-width="0"/><path d="M148.46,133.38c-2.79-3.51-.26-7.29-.68-11.23,2.31,2.24,7.01.14,7.45,4.87-1.76,2.64-4.01,4.78-6.77,6.36Z" fill="#efefef" stroke-width="0"/><path d="M135.1,291.87c1.58-5.96,3.02-6.2,10.01-1.67-3.28.89-6.22,3.82-10.01,1.67h0Z" fill="#080808" stroke-width="0"/><path d="M133.56,279.83c4.13.68,8.38.93,11.93,3.55-4.75,1.42-9.39,2.47-11.93-3.55Z" fill="#080808" stroke-width="0"/><path d="M170.71,126.94c-.79.63-1.53,1.62-2.47,1.87-1.07.27-1.18-.94-.71-1.5.66-.77,1.66-1.24,2.52-1.84.19.41.37.83.66,1.47Z" fill="#1a1a1a" stroke-width="0"/><path d="M315.41,256.17c-16.95,21.22-35.56,40.23-63.6,46.05-8.27,1.72-11.48-.95-11.48-9.25,0-12.96,3.96-25.1,9.41-36.62,5.32-11.23,11.5-22.06,17.31-33.06,4.76,1.64,9.23,3.87,13.38,6.74-10.31,15.16-19.14,31.05-23.9,48.91-.6,2.25-2.33,5.15.22,6.82,1.88,1.23,4.16-.75,6.1-1.72,14.65-7.32,25.84-18.83,36.91-30.48,2.05-2.15,3.57-5.1,7.18-5.03,3.26,2.07,6.49,4.16,8.46,7.65Z" fill="#a2a3a5" stroke-width="0"/><path d="M306.95,248.52c-12.04,13.44-24.11,26.87-40.16,35.78-4.07,2.26-9.4,6.74-12.68,4.25-3.41-2.59.11-8.62,1.31-13.03,4.13-15.17,12.24-28.48,19.82-42.03,1.22-2.17,2.74-3.39,5.2-3.46,9.62,5.05,18.71,10.85,26.51,18.49Z" fill="#e1e2e3" stroke-width="0"/><path d="M335.31,280.19c-2.61,2.86-4.94,6.06-7.88,8.52-9.69,8.11-18.98,16.14-15.6,30.96.79,3.48-1.96,5.64-5.62,5.66-4.14.02-6.25-2.27-5.91-6.31.59-6.94-1.63-8.08-6.94-3.68-.42.35-.95.57-1.46.81-4.1,1.92-8.81,6.18-12.27.19-3.35-5.82,2.03-8.17,6.16-10.58,16.41-9.57,30.35-22.15,43.46-35.73,2.99,2.81,8.3,4.24,6.05,10.17Z" fill="#a2a3a5" stroke-width="0"/><path d="M250.26,216.44c-2.61,10.31-9.84,18.38-13.57,28.25-3.32,8.79-7.23,17.38-9.59,26.48-1.08,4.17-3.33,7.03-7.17,6.48-4.77-.68-5.34-5.01-4.65-9.16.36-2.17,1.05-4.29,1.77-6.38,1.09-3.21.81-4.79-3.27-3.87-3.82.86-8.42,1.56-9.41-3.74-1.02-5.42,3.4-7.55,7.62-7.82,18.09-1.17,16.6-18.79,24.39-28.56.08-.1-1-1.12-1.53-1.72,5.15-4.75,10.29-4.33,15.42.03Z" fill="#a2a3a5" stroke-width="0"/><path d="M423.77,280.18c-.05.72-.11,1.45-.16,2.17-4.39-1.28-8.79-2.55-13.18-3.83,1.06-2.22,1.83-6.12,3.23-6.35,5.75-.98,7.04,4.86,10.11,8.01Z" fill="#fefefe" stroke-width="0"/><path d="M316.9,240.53c1.14.99,2.27,1.97,3.41,2.96-1.28,4.86-5.18,2.71-6.4,1.21-2.08-2.54,2.3-2.44,2.99-4.17Z" fill="#121212" stroke-width="0"/><path d="M308.57,233.91c2.41.72,4.14,2.33,5.55,4.34-3.72.94-8.2,2.86-5.55-4.34Z" fill="#121212" stroke-width="0"/><path d="M301.89,228.86c1.12.44,2.24.88,3.36,1.32.13.41.2.83.2,1.27-.62,1.34-1.59,2.01-3.01,1.27-1.9-.99-1.34-2.43-.54-3.86Z" fill="#121212" stroke-width="0"/><path d="M100.22,430.22c13.15,9.73,26.32,19.44,40.25,28.07.97,6.54-3.76,10.79-6.68,15.57-9.05,14.79-21.69,25.78-37.52,32.93-2.93,1.32-5.96,3.2-9.51,1.95-4.52-4.37-9.05-8.73-13.57-13.1-.68-4.49,3.17-5.4,5.81-7.01,8.32-5.06,16.4-10.45,23.78-16.82,1.68-1.45,3.45-2.83,4.74-4.67,1.52-2.17,2.61-4.64.49-6.82-2.53-2.6-4.56-.27-6.34,1.4-7.51,7.05-15.17,13.99-24.38,18.72-4.68,2.41-9.34,6.6-15.37,3.19-4.15-5.43-9.11-10.27-12.09-16.56,1.98-3.01,5.23-4.1,8.35-5.09,15.21-4.81,26.23-15.05,35.93-27.14,1.6-2,2.41-5.28,6.1-4.63Z" fill="#e1e2e4" stroke-width="0"/><path d="M86.76,508.73c25.31-8.93,42.31-26.7,53.71-50.44,4.42,2.29,8.85,4.58,13.27,6.87-3.34-.02-4.59,2.34-5.94,4.88-10.52,19.72-25.16,35.32-45.52,45.14-1.75.84-3.58,1.56-4.02,3.77-3.83-3.4-7.67-6.81-11.5-10.21Z" fill="#a1a2a4" stroke-width="0"/><path d="M34.59,435.21c1.36-4.15.26-7.26-3.09-10.27-3.82-3.44-6.43-7.86-3.68-13.29,2.72-5.36,7.13-4.86,12.13-3.57,5.16,1.33,7.56-1.72,8.32-6.63.74-4.82,2.08-9.55,8.13-9.83,5.22-.23,7.77,2.77,9.09,7.79,1.11,4.22,4.12,6.26,8.93,4.42,14.93-5.69,16.47-4.36,13.92,11.54-.17,1.08-.03,2.21-.03,3.31-1.21,2.39-2.77,2.37-4.59.68-4.75-3.96-16.07-6.57-21.29-4.83-2.97.99-6.32,1.55-8.9.27-3.97-1.99-7.31-.48-10.58.8-4.75,1.86-8.57,4.36-4.05,10.46,2.61,3.53,3.59,7.77-2.2,9.96-.82.03-1.52-.25-2.11-.82Z" fill="#f5f5f5" stroke-width="0"/><path d="M100.22,430.22c-12.47,18.19-28.58,31.41-50.38,36.85-3.17-2.75-4.82-6.41-6.16-10.25,5.23-6.31,14.14-5.75,20.06-10.78,1.28-.85,2.57-1.69,3.87-2.53,10.03-5.21,15.69-14.65,22.39-23.08.46-.06.91-.04,1.35.06,2.96,3.24,5.91,6.48,8.87,9.73Z" fill="#a2a2a5" stroke-width="0"/><path d="M61.92,483.63c15.48-2.23,26.13-12.5,37.11-22.25,3.16-2.8,6.22-7.99,10.94-3.21,4.91,4.97.87,9.05-2.93,12.58-8.56,7.98-18.07,14.62-28.28,20.31-2.13,1.18-4.8,1.72-5.57,4.57-3.75-4-7.51-8-11.26-12Z" fill="#a2a3a5" stroke-width="0"/><path d="M65.2,447.14c-6.22,5.35-14.32,6.52-21.53,9.68-2.42-4.03-4.53-8.13-10.49-7.81-3.77.2-7.41-1.47-7.93-5.78-.46-3.76,2.9-4.89,5.72-6.12,1.25-.55,2.42-1.26,3.63-1.9.69.05,1.37.1,2.06.14,1.27-1.05,2.6-.98,3.55.28,3.17,4.21,6.67,5.72,12.07,3.54,3.89-1.57,4.26-.43,7.05,5.27.43.89,4.82-.57,5.88,2.69Z" fill="#f6f6f7" stroke-width="0"/><path d="M133.49,543.7c-.56,0-1.13-.02-1.69-.03-3.36-2.63-6.73-5.27-10.09-7.9,3.21-4.08,8.42-4.97,12.48-7.74,3.21-2.2,7.06-1.7,9.44,1.96,2.57,3.96-1.06,6.06-3.17,8.27-2.01,2.12-5.75,2.17-6.96,5.44Z" fill="#a2a3a5" stroke-width="0"/><path d="M89.99,420.43c-3.69,11.34-11.53,19-21.75,24.55-3.78-5.01.66-9.1,2.17-13.07.96-2.54,4.67-1.56,6.73.94.83-2.8.41-6.19,1.56-9.24,1.07-2.85,2.33-5.76,6.35-4.97,1.07,1.87,2.19.19,3.28.04.56.58,1.11,1.16,1.67,1.74Z" fill="#f6f6f6" stroke-width="0"/><path d="M101.65,522.4c1.9,1.47,3.79,2.93,5.69,4.4-1.9.58-3.62,2.66-5.82.64-1.91-1.75-.62-3.37.13-5.03Z" fill="#1c1c1c" stroke-width="0"/><path d="M86.71,395.31c-1.11,1.97-2.29,3.8-5.27,2.77,1.13-2.32,3.24-2.47,5.27-2.78h0Z" fill="#050505" stroke-width="0"/><path d="M188.45,118.47c2.52-2.21,3.19,1.6,5.05,1.55-.45.52-.9,1.04-1.35,1.55-1.23-1.03-2.47-2.07-3.7-3.1Z" fill="#fcfcfc" stroke-width="0"/><path d="M171.81,108.33c-1.39,1.19.24,3.96-2.25,4.45-.46.09-1.61-.92-1.65-1.48-.22-2.82,2.08-2.63,3.9-2.96,0,0,0,0,0,0Z" fill="#f3f3f3" stroke-width="0"/><path d="M155.13,690.63c-2.69-.96-2.99-2.71-1.67-5.01,1.35-.8,2.69-1.59,4.95-2.93-1.34,3.25-2.31,5.59-3.28,7.94Z" fill="#f4f4f4" stroke-width="0"/><path d="M160.15,205.2c-4.21-.75-8.06,1.05-12.05,1.77-7.46,1.36-9.29-.24-9.32-8.43,2.17-5.18,6.49-5.79,11.31-5.3,7.16-.47,14.32-1.25,21.49-1.3,4.01-.03,3.87-1.91,3.27-4.61-1.58-7.06-4.03-13.81-7.57-20.13-2.19-3.92-2.32-7.76,2.1-9.85,4.32-2.04,7.21.37,9.26,4.38,4.58,8.95,7.93,18.28,9.32,28.24,1.82,13.05.02,15.11-12.82,15.2-5,1.2-9.99,1.1-14.99.01Z" fill="#070808" stroke-width="0"/><path d="M397.02,328.33c-.83,0-1.67,0-2.5,0q-14.89.21-10.49,13.66c1.92,5.82,3.2,11.76,3.89,17.84.49,4.34-.46,8.13-5.33,8.76-4.89.63-6.75-2.62-7.13-7.14-.9-10.68-4.36-20.57-9.71-29.79-3.13-5.4-1.47-8.97,3.93-11.12,12.94-5.16,26.31-5.91,39.89-3.4,3.08.57,4.58,2.9,4.29,6.16-.28,3.23-2.12,5.23-5.22,5.46-3.86.3-7.75.07-11.63.07,0-.17,0-.33,0-.5Z" fill="#080808" stroke-width="0"/><path d="M161.19,373.93c1.88.11,3.75.28,5.63.33,4.34.1,7.89-.49,6.75-6.42-.33-1.74-.09-4.1.88-5.48,4.44-6.29-1-8.75-4.31-12.1,1.69-2.15,4.01-3.06,6.65-3.35,1.58.22.58,3.59,2.13,2.61,9.7-6.09,20.2-.64,30.21-2.32,4.38-.74,3.83,3.54,3.72,6.51-.14,4.06-.09,7.5,5.68,7.61,4.69.09,6.03,3.64,5.79,8-3.6-.11-1.47-4.04-4.43-4.95-1.53,2.33.79,5.7-1.47,7.81-3.47.02-4.27-3.11-5.95-5.13-4.03-4.89-9.04-8.19-15.29-9.2-7.91-1.28-12.12,3.15-10.78,11.12.5,2.99,1.98,5.82,1.73,8.92-.43,5.53-3.63,9.18-8.49,11.34-5.81,2.58-10.77,1.02-14.88-3.65-1.42-2.04-.38-4.88-2.18-6.81-.92-1.48-1.77-2.99-1.4-4.84Z" fill="#f7f7f7" stroke-width="0"/><path d="M266.17,413.94c-8.7-11.05-8.28-14.65,2.67-23.06,11.98-9.2,24.07-9.48,34.92-.82-.88.85-1.17,4.04-.4,5.5,1.11,2.11,1.85,4.11-.81,5.65-2.83.56-5.83-.11-8.56,1.22-3.93,1.61-8.29,2.51-7.66,8.56.36,3.47-2.83,4.41-5.64,4.8-4.98.69-9.88.32-14.52-1.85Z" fill="#030303" stroke-width="0"/><path d="M266.17,413.94c3.27.05,6.59.48,9.79.04,3.91-.54,11.02,2.66,8.38-7.06-.5-1.84,5.04-6.21,9.71-6.41,1.61,1.95-.21,6.21,3.51,6.41,4.4.25,2.82-4.34,4.26-6.55,2.58-4.48-3.84-5.42-2.92-9.27.68-2.33,3.54,1.55,4.84-1.04,6.98,4.11,9.31,11.21,11.57,18.28.67,2.1.25,4.09-1.52,6-12.7,13.74-35.18,13.62-47.63-.41Z" fill="#090a0a" stroke-width="0"/><path d="M377.05,418.67c-.3,4.18-1.56,8.08-3.55,11.75-12.87.14-25.24-2.83-37.41-6.55-4.15-1.27-9.27-2.98-7.05-9.07,2.02-5.55,6.47-3.61,10.52-2.38,12.22,3.69,24.64,6.26,37.49,6.26Z" fill="#a2a2a5" stroke-width="0"/><path d="M368.17,310.84c15.51-6.52,29.93-1.46,43.37-2.5-1.51,3.82-1.57,3.39-5.96,4.07-11.71,1.81-23.31.8-37.41-1.56Z" fill="#dedede" stroke-width="0"/><path d="M150.16,448.47c-5.55-2.31-10.7-5.3-15.31-9.17.12-3.55.25-7.1.37-10.64,5.14,2.6,10.25,5.23,11.35,11.72.29,1.73,1.22.97,2.34,1.23,4.47,1.06,3.57,4.03,1.24,6.86Z" fill="#f3f3f3" stroke-width="0"/><path d="M157.1,146.6c5.18-1.22,9.38-8.6,14.88-1.64.44.55,4.02,3.66.23,5.82-6.4,3.64-10.88.95-15.11-4.18Z" fill="#dadbdc" stroke-width="0"/><path d="M135.58,276.42v-64.57c.27,0,.54,0,.81,0v64.63c-.27-.02-.54-.05-.81-.07Z" fill="#ebebeb" stroke-width="0"/><path d="M150.09,193.25c-3.77,1.77-8.38,1.74-11.31,5.3-2.71-.3-3.67-1.93-3.65-4.52.06-6.28.02-12.55.02-19.34.83.67,1.15.8,1.16.95.31,4.9-.3,10.07,1.09,14.63,2.18,7.14,9.25-1.76,12.7,2.98Z" fill="#e9e9e9" stroke-width="0"/><path d="M160.15,205.2c5-.95,9.99-1.16,14.99-.01-4.99,2.97-9.99,1.97-14.99.01Z" fill="#f0f1f3" stroke-width="0"/><path d="M149.87,565.6c1.63-1.89,9.26,1.51,5.06-5.89-.53-.93,4.05-.1,5.17-2.41,7.11,2.07,14.21,4.16,21.32,6.21,4.08,1.18,6.21,3.78,5.04,7.98-1.09,3.89-4.36,4.89-7.93,4.02-9.86-2.4-19.71-4.87-28.66-9.91Z" fill="#0b0b0b" stroke-width="0"/><path d="M165.02,383.66c8.75,7.53,14.54,6.74,20.39-2,2.19-3.26,1.09-5.36-.12-8.25-2.18-5.2-3.99-10.86.95-15.44,4.96-4.59,10.78-3.39,16.4-1.01,7.2,3.05,12.21,8.4,15.78,15.23-.54,10.1-4.14,13.49-14.09,13.56-2.88.02-6.78-2.35-7.98,2.75-3.76,13.27-2.98,14.44,12.17,18.29,7.62,6.41,6.81,9.79-3.31,13.86-6,3.04-10.98,1.66-15.09-3.49-2.82-2.83-5.64-5.65-8.47-8.48-3.58-6.4-11.07-5.6-16.35-8.88-1.7-.96-3.4-1.91-5.1-2.87-2.58-.84-4.34-2.48-4.99-5.18-.95-2.23-2.13-4.39-2.79-6.7-2.09-7.29.76-10.83,8.75-11.12.76,1.44,2.8,2.11,2.5,4.19.78,1.28.59,2.34-.13,3.73-.83,1.6-3.27-2.47-2.77.86.45,2.96,2.88.24,4.24.95Z" fill="#060606" stroke-width="0"/><path d="M208.54,406.79c-5.72,2.31-10.95,1.72-14.52-3.61-3.59-5.36-2.34-10.41,2.35-14.68,1.49.37,3.03.08,2.89,2.81-.19,3.59-2.06,8.6,4.54,9.06,4.01.28,4.87,3.02,4.75,6.42Z" fill="#eee" stroke-width="0"/><path d="M190.14,417.16c4.82,2.09,9.74,3.71,15.09,3.49,4.25,3.32,1.39,5.42-1.67,5.76-4.7.52-10,.96-14.16-.74-2.86-1.17-1.3-5.72.74-8.51Z" fill="#f2f2f2" stroke-width="0"/><path d="M165.33,399.8c2.96.57,6.01,1.9,8.87,1.56,6.01-.71,7.46,2.36,7.48,7.32-1.58,1.9-3.91-1.38-4.73.19-1.52,2.92-3.27,4.58-5.48,1.46-2.36-3.34,2.49-.75,2.82-2.71.36-2.17-.95-2.81-2.2-3.82-2.06-1.67-5.54-.94-6.76-4Z" fill="#f4f4f4" stroke-width="0"/><path d="M155.23,391.75c1.66,1.73,3.33,3.45,4.99,5.18-2.08,5.62-6.45-.64-9.16,1.76-1.2-1.63-3.97-2.36-3.08-5.2,1.43-4.56,5.11-.01,7.25-1.75Z" fill="#ebebeb" stroke-width="0"/><path d="M145.72,312.01c-3.51-.5-5.51-2.27-5.53-5.4-.02-3.57,2.27-5.58,5.7-5.62,3.26-.04,5.21,2.45,5.21,5.28,0,3.25-2.23,5.42-5.38,5.74Z" fill="#dededf" stroke-width="0"/><path d="M135.1,291.86c3.34-.56,6.67-1.11,10.01-1.67-3,2.6-5.99,5.19-10.01,1.67Z" fill="#030303" stroke-width="0"/><path d="M85.04,418.66c-3.96,1.92-4.95,5.2-5.27,9.4-.13,1.68,2.02,9.3-5.08,4.28-1.26-.89-4.5.33-3.99,1.19,2.89,4.85-4.05,7.21-2.47,11.45-1.01.72-2.02,1.43-3.04,2.15-3.3-2.32-6.96-1.88-10.98-.24,1.24-3.96,4.29-2.44,6-3.92-1.52-2.39-4.09-3.24-6.24-2.38-7.35,2.94-12.92,1.06-17.32-5.23,6.2-5.87-.57-9.94-2.64-13.98-2.09-4.08-1.14-3.72,2.3-4.81,3.91-1.25,7.24-4.26,10.89-6.39,1.35-.79,2.65-1.1,4.12.35,5.14,5.06,12,3.78,15.86-3.47,1.73,5.7,4.94,7.6,10.64,6.19,3.42-.85,5.37,2.79,7.21,5.41Z" fill="#fefefe" stroke-width="0"/><path d="M165.02,383.66c-2.04.73-2.68,5.44-4.33,3.68-2.03-2.16-1.96-6.28-2.79-9.49,2.18-4.11,3.44,7.22,5.78.27,3.27,1.17.23,3.85,1.33,5.54Z" fill="#161616" stroke-width="0"/><path d="M301.83,400.37c1.78,3,2.94,6.02-.46,8.7-2.15,1.7-4.43,1.82-6.73.07-3.53-2.68-2.27-5.63-.59-8.63,2.56-1.53,5.16-1.28,7.77-.14Z" fill="#e0e0e0" stroke-width="0"/><path d="M207.58,368.71c2.29.45,4.09,1.75,4.38,4.12.25,2.08-1.37,2.84-3.2,2.37-2.23-.57-4.02-1.95-4.04-4.43-.01-1.5,1.16-2.37,2.87-2.06Z" fill="#e1e1e1" stroke-width="0"/></g></svg>