<?xml version="1.0" encoding="UTF-8"?><svg id="b" xmlns="http://www.w3.org/2000/svg" viewBox="0 0 595.89 1054.49"><g id="c"><path d="M9.91,878.38c16.5-23.36,38.96-39.15,64.86-50.49,2.07-.9,4.11-1.87,6.61-3-2.61-7.19-5.36-13.93-7.51-20.86-20.73-66.73-19.4-133.13,5.63-198.32,15.03-39.13,32.37-77.38,48.92-115.92,18.36-42.76,32.4-86.71,38.48-133.02.71-5.39-.45-8.72-4.77-12.24-24.3-19.84-44.71-42.93-56.21-72.63-13.87-35.83-9.87-70.66,9.56-103.08,14.71-24.53,31.74-47.67,47.57-71.54,1.67-2.51,2.72-5.69,3.18-8.7,3.26-21.27,6.2-42.58,9.51-63.84.55-3.55,2.21-6.99,3.7-10.32,6.38-14.23,16.49-17.95,30.72-11.07,15.58,7.53,28,19.2,39.05,32.13,5.53,6.47,10.82,8.13,19.34,7.26,45.36-4.62,89.8-.96,131.95,18.2,4.06,1.85,6.94,1.46,10.67-.89,25.23-15.9,50.67-31.49,79.3-40.72,5.83-1.88,12.04-3.16,18.14-3.52,14.22-.84,24.17,6.99,27.32,20.88,3.61,15.86,1.9,31.76-2.36,47-6.83,24.47-15.21,48.5-22.81,72.76-.84,2.69-1.83,5.92-1.11,8.43,10.66,37.29,8.04,74.48-.61,111.6-3.85,16.52-8.58,32.83-12.48,49.34-.89,3.76-.92,8.23.21,11.89,11.26,36.34,25.02,72.07,33.83,108.98,13.23,55.45,32.45,108.92,48.5,163.42,20.72,70.39,22.62,141.9,3.68,213.29-5.83,21.99-16.75,41.6-31.17,59.24-1.5,1.83-2.85,4.26-3.11,6.54-1.84,16.1-8.47,24.13-24.23,28.55-3.96,1.11-8,1.9-12.66,2.99,1.05,23.65-12.92,35.44-32.54,42.59-21.2,7.72-42.49,8.9-63.73-.12-13.69-5.82-23-15.56-27.29-29.94-.57-1.93-1.34-3.8-1.62-4.56-15.22,1.58-29.7,4.16-44.2,4.3-14.54.14-29.1-2.15-44.66-3.46-2.67,12.17-8.87,23.58-20.89,30.95,5.53,4.76,10.95,8.68,15.48,13.45,14.44,15.22,17.03,41.78,6.05,58.12-12.19,18.16-36.59,27.01-55.49,20.13-1.07-.39-2.23-.71-3.16-1.34-24.25-16.63-52.49-19.3-80.41-23.4-38.87-5.72-77.41-12.9-112.7-31.49-21.4-11.28-38.01-27.14-46.45-50.37" stroke-width="0"/><path d="M489,911.23c-2.39-2.03-3.85-4.16-5.8-4.76-8.28-2.59-9.96-9.01-10.94-16.49-3.47-26.39-1.18-52.7,1.08-78.97,5.71-66.32,9.63-132.69,7.9-199.3-.26-10.09-.77-20.17-.83-30.26-.03-5.5,2.72-9.4,8.61-9.54,5.49-.13,8.29,3.22,8.81,8.55.11,1.14.1,2.29.15,3.44,3.31,74.86-.61,149.48-6.59,224.09-2.01,25.08-1.68,50.35-2.11,75.54-.04,2.56,1.56,5.62,3.33,7.65,3.13,3.58,6.88,6.65,10.56,9.71,1.28,1.06,3.26,2.26,4.68,2.01,5.59-.98,11.27-2.02,16.56-3.99,4.7-1.74,7.16-5.92,6.13-11.09-1.06-5.33.9-9.11,4.34-12.99,15.13-17.11,25.98-36.73,31.71-58.82,16.48-63.6,14.55-127.39-1.39-190.58-7.38-29.27-19.24-57.38-27.73-86.41-9.45-32.33-16.69-65.3-26.18-97.62-9.88-33.64-21.52-66.76-31.81-100.28-1.7-5.53-1.65-12.23-.38-17.93,4.58-20.58,10.59-40.84,14.99-61.45,5.3-24.81,7.21-49.94,2.39-75.15-.38-1.98-1.38-4.58-2.91-5.47-8.79-5.1-9.08-6.61-5.53-16.36,8.78-24.1,18.22-48.05,25.3-72.66,4.24-14.75,5.54-30.59,6.29-46.03.54-11.23-5.06-15.01-16.08-12.12-9.91,2.6-20,5.75-28.9,10.68-24.44,13.54-48.21,28.28-72.48,42.12-3.06,1.75-8.02,2.28-11.25,1.08-4.27-1.58-4.85-6.22-3.23-10.65.21-.57.03-1.28.03-2.12-1.29-.57-2.51-1.17-3.77-1.67-37.85-14.91-77.15-17.51-117.09-13.04-32.54,3.64-60.72,16.72-83.68,40.56-4.96,5.15-7.54,9.61-3.08,16.47,2.03,3.13,2.75,7.29,3.35,11.1.31,1.95-.3,4.78-1.61,6.12-6.85,7.02-14.92,11.09-25.26,9.84-2.24-.27-5.77,1.27-7.02,3.12-6.93,10.25-13.86,20.57-19.82,31.39-19.58,35.57-19.17,71.02,2.21,105.76,18.37,29.85,44.62,51.39,74.2,69.3,6.19,3.75,7.97,8.02,5.36,12.86-2.69,4.98-7.84,5.87-14.25,2.31-4.29-2.39-8.49-4.95-13.28-7.75-.57,2.98-1.03,4.98-1.32,6.99-5.48,37.65-15.85,74-30.43,109.04-15.58,37.46-32.41,74.4-48.11,111.8-22.42,53.43-32.69,108.64-23.75,166.71,8.27,53.73,29.03,100.19,74.27,133.12,4.61,3.35,5.84,7.42,3.59,12.56-2.13,4.88-.55,8.81,3.75,11.12,3.96,2.13,8.36,3.71,12.75,4.62,1.66.34,4.39-1.43,5.7-3.01,5.09-6.15,10.07-12.43,14.53-19.05,2.13-3.16,4.42-7.27,4.19-10.79-2.32-36.16-4.4-72.35-8.01-108.39-4.73-47.22-10.83-94.3-16.2-141.46-.8-7.05-.96-14.19-1.25-21.29-.27-6.79,3.01-11.34,8.29-11.15,6.11.22,8.86,3.95,9.09,9.89.18,4.58.39,9.18.86,13.73,3.42,33.07,6.03,66.25,10.56,99.17,7.21,52.31,11.91,104.79,14.37,157.52.5,10.67-2.11,19.32-10.18,26.39-2.51,2.2-4.46,5.05-7.16,8.16,18.09,5.01,5.17,15.37,3.92,22.75,5.38-3.69,10.22-9.7,15.35-9.96,9.26-.46,9.3,7.18,6.88,14.69,2.37.26,4.3.47,6.41.69,2.08-6.35,4.86-12.12,12.55-9.89,7.68,2.23,6.48,8.75,5.19,14.91,1.5.28,2.68.87,3.65.63,11.39-2.82,21.34-7.8,25.13-19.93,2.04-6.52,3.94-13.36,4.19-20.12,1.18-31.38,2.58-62.79,2.38-94.18-.36-55.1.93-110.09,5.6-165,.21-2.45.35-5.97,1.88-7.01,2.86-1.95,6.98-3.82,10.09-3.22,4.9.94,5.85,5.59,5.55,10.42-1.63,25.87-3.91,51.72-4.51,77.62-1.36,58.91-1.9,117.85-2.58,176.78-.02,1.65,1.75,4.46,3.15,4.81,24.69,5.99,49.39,6.77,74.05-.41,3.78-1.1,4.85-3.17,4.58-7.06-.56-8-.92-16.05-.69-24.06.98-34.16,4.13-68.38,2.87-102.45-1.62-43.71-6.71-87.29-10.33-130.93-.61-7.3,1.59-11.43,6.79-12.3,5.65-.94,9.47,2.34,10.47,9.85,6.65,49.83,11.8,99.79,10.82,150.15-.63,32.56-2.55,65.1-2.71,97.66-.06,12.44,2.43,25.06,5.1,37.3,2.57,11.76,11.98,16.95,23.77,20.01,0-2.97-.14-5.24.03-7.48.41-5.56,3.13-9.33,9.01-9.12,5.74.21,8.54,3.82,8.53,9.56,0,3.1,0,6.2,0,10.16,5.69-.7,10.08-1.24,15.26-1.88-1.21-4.07-1.93-7.16-3.05-10.09-2.03-5.32-.96-9.58,4.19-12.19,4.67-2.37,9.59-.06,12.17,5.62,1.47,3.25,2.47,6.72,3.68,10.09,7.6-2.92,8.86-8.71,3.59-14.74-7.36-8.43-5.86-13.55,6.48-17.59Z" stroke-width="0"/><path d="M22.23,951.35c10.41,16.96,26.36,27.11,44.12,34.77,32.54,14.04,67.09,20.02,101.88,24.86,25.48,3.55,51.15,6.58,73.41,20.98,10.89,7.04,21.04,5.98,31.59-.21,11.01-6.46,14.91-16.26,13.85-28.48-.98-11.25-7.46-18.96-16.53-24.79-13.57-8.72-28.82-13.13-44.45-15.71-25.1-4.15-50.41-7-75.5-11.16-18.1-3-36.07-7.13-51.63-17.73-12.42-8.45-16.34-22.8-8.33-35.48,4.37-6.93,11.46-12.17,17.47-18.02,1.69-1.64,3.91-2.72,5.51-3.8-8.39-11.95-16.27-23.18-24.85-35.41-27.49,10.85-51.63,26.36-67.57,52.32" stroke-width="0"/><path d="M177.25,938.18c.09-.66.19-1.32.28-1.98-4.14-.85-8.33-1.51-12.41-2.57-14.88-3.87-25.57-14.06-25.08-26.3.38-9.59-7.02-11.88-11.85-16.76-.5-.51-2.37-.4-3.07.12-6.17,4.61-12.98,8.7-18.09,14.31-5.16,5.67-3.51,11.52,3.28,15.33,20.81,11.7,44.02,14.27,66.94,17.85Z" stroke-width="0"/><path d="M236.76,47.83c-10.25-11.1-20.65-21.28-33.53-28.64-4.18-2.39-7.13-1.46-8.2,3.19-2.97,12.91-5.81,25.86-8.46,38.85-.82,4.04-.86,8.24-1.34,13.29,9.5-6.07,17.85-11.4,27.24-17.4-4.22-3.14-7.53-5.86-11.08-8.19-4.26-2.8-6.11-6.41-3.63-11.05,2.5-4.68,6.96-5.56,11.16-2.93,4.98,3.12,10.29,6.48,13.8,11.02,4.18,5.4,7.96,5.7,14.05,1.86Z" stroke-width="0"/><path d="M174.45,119.81c-.72.03-1.44.06-2.15.08-.76,1.62-2.45,3.5-2.08,4.79.66,2.28,2.57,4.2,3.96,6.26,1.06-1.46,3.07-3,2.96-4.37-.19-2.31-1.72-4.52-2.68-6.77Z" stroke-width="0"/><path d="M489,911.23c-12.34,4.04-13.84,9.17-6.48,17.59,5.27,6.03,4.01,11.83-3.59,14.74-1.21-3.37-2.21-6.84-3.68-10.09-2.58-5.69-7.49-8-12.17-5.62-5.15,2.61-6.22,6.87-4.19,12.19,1.12,2.93,1.84,6.02,3.05,10.09-5.19.64-9.57,1.18-15.26,1.88,0-3.96,0-7.06,0-10.16,0-5.74-2.79-9.35-8.53-9.56-5.88-.21-8.61,3.56-9.01,9.12-.16,2.24-.03,4.51-.03,7.48-11.79-3.06-21.2-8.26-23.77-20.01-2.68-12.24-5.16-24.86-5.1-37.3.16-32.56,2.08-65.1,2.71-97.66.98-50.36-4.16-100.32-10.82-150.15-1-7.5-4.83-10.78-10.47-9.85-5.19.86-7.39,5-6.79,12.3,3.63,43.63,8.71,87.22,10.33,130.93,1.26,34.07-1.88,68.29-2.87,102.45-.23,8.01.13,16.06.69,24.06.27,3.89-.8,5.96-4.58,7.06-24.65,7.18-49.36,6.4-74.05.41-1.4-.34-3.17-3.16-3.15-4.81.69-58.93,1.23-117.86,2.58-176.78.6-25.89,2.87-51.75,4.51-77.62.31-4.83-.65-9.48-5.55-10.42-3.11-.6-7.23,1.27-10.09,3.22-1.52,1.04-1.67,4.56-1.88,7.01-4.68,54.9-5.96,109.9-5.6,165,.2,31.39-1.2,62.8-2.38,94.18-.25,6.76-2.16,13.6-4.19,20.12-3.79,12.13-13.74,17.11-25.13,19.93-.98.24-2.16-.35-3.65-.63,1.29-6.15,2.49-12.68-5.19-14.91-7.7-2.23-10.47,3.54-12.55,9.89-2.11-.23-4.04-.44-6.41-.69,2.41-7.52,2.38-15.16-6.88-14.69-5.13.26-9.98,6.27-15.35,9.96,1.25-7.38,14.17-17.74-3.92-22.75,2.69-3.11,4.64-5.96,7.16-8.16,8.07-7.07,10.67-15.72,10.18-26.39-2.46-52.73-7.16-105.21-14.37-157.52-4.54-32.92-7.15-66.1-10.56-99.17-.47-4.56-.69-9.15-.86-13.73-.23-5.94-2.97-9.67-9.09-9.89-5.27-.19-8.56,4.36-8.29,11.15.28,7.1.44,14.24,1.25,21.29,5.37,47.16,11.47,94.24,16.2,141.46,3.61,36.04,5.69,72.24,8.01,108.39.23,3.52-2.07,7.63-4.19,10.79-4.46,6.62-9.44,12.9-14.53,19.05-1.31,1.58-4.04,3.36-5.7,3.01-4.39-.91-8.8-2.48-12.75-4.62-4.29-2.31-5.88-6.24-3.75-11.12,2.25-5.14,1.01-9.21-3.59-12.56-45.24-32.93-66.01-79.39-74.27-133.12-8.94-58.07,1.33-113.28,23.75-166.71,15.7-37.41,32.53-74.35,48.11-111.8,14.58-35.04,24.95-71.39,30.43-109.04.29-2.02.75-4.01,1.32-6.99,4.79,2.8,8.98,5.37,13.28,7.75,6.4,3.56,11.56,2.67,14.25-2.31,2.61-4.83.83-9.11-5.36-12.86-29.58-17.91-55.84-39.45-74.2-69.3-21.38-34.74-21.79-70.19-2.21-105.76,5.96-10.83,12.89-21.14,19.82-31.39,1.25-1.85,4.78-3.39,7.02-3.12,10.33,1.25,18.4-2.82,25.26-9.84,1.31-1.34,1.92-4.17,1.61-6.12-.6-3.81-1.31-7.97-3.35-11.1-4.46-6.86-1.88-11.31,3.08-16.47,22.96-23.84,51.13-36.93,83.68-40.56,39.94-4.46,79.24-1.87,117.09,13.04,1.26.5,2.48,1.09,3.77,1.67,0,.84.18,1.55-.03,2.12-1.62,4.43-1.03,9.07,3.23,10.65,3.23,1.2,8.19.67,11.25-1.08,24.27-13.85,48.04-28.59,72.48-42.12,8.9-4.93,18.99-8.08,28.9-10.68,11.02-2.89,16.62.9,16.08,12.12-.75,15.44-2.04,31.28-6.29,46.03-7.08,24.61-16.51,48.55-25.3,72.66-3.55,9.75-3.26,11.26,5.53,16.36,1.53.89,2.53,3.49,2.91,5.47,4.82,25.21,2.91,50.34-2.39,75.15-4.4,20.61-10.41,40.87-14.99,61.45-1.27,5.71-1.32,12.4.38,17.93,10.3,33.52,21.94,66.64,31.81,100.28,9.49,32.31,16.72,65.29,26.18,97.62,8.49,29.03,20.35,57.14,27.73,86.41,15.94,63.19,17.87,126.98,1.39,190.58-5.73,22.09-16.58,41.71-31.71,58.82-3.44,3.89-5.4,7.66-4.34,12.99,1.03,5.17-1.44,9.34-6.13,11.09-5.29,1.97-10.97,3.01-16.56,3.99-1.42.25-3.4-.94-4.68-2.01-3.68-3.06-7.43-6.13-10.56-9.71-1.77-2.02-3.37-5.08-3.33-7.65.43-25.19.1-50.46,2.11-75.54,5.98-74.61,9.9-149.23,6.59-224.09-.05-1.15-.03-2.3-.15-3.44-.53-5.33-3.32-8.67-8.81-8.55-5.9.14-8.65,4.04-8.61,9.54.06,10.09.57,20.17.83,30.26,1.73,66.61-2.19,132.98-7.9,199.3-2.26,26.27-4.55,52.57-1.08,78.97.98,7.48,2.66,13.9,10.94,16.49,1.94.61,3.41,2.74,5.8,4.76ZM201.28,202.77c9.02,11.61,19.9,19.64,33.56,23.62,16.05,4.67,32.15,3.76,48.3.55,5.62-1.11,10.04-3.58,8.79-9.9-1.26-6.36-6.38-6.62-11.94-5.84-8.14,1.15-16.38,2.59-24.54,2.4-15.97-.37-30.17-5.51-40.17-18.93-5.04-6.77-2.13-14.29,5.69-16.89,7.33-2.44,14.77-5.1,21.41-8.97,9.59-5.58,9.25-12.63-.34-18.1-10.89-6.22-22.86-7.91-35.2-7.15-6.67.41-14.03.87-17.25,7.76-3.34,7.14,2.01,12.62,5.95,17.86,5.32,7.07,4.32,14.57-3.05,19.72-11.42,7.98-24.93,7.64-38.6-1.27-4.68-3.05-9.14-4.85-13.28.33-3.37,4.22-1.78,9.13,4.38,13.04,18.11,11.5,36.7,13.4,56.29,1.76ZM489.58,69.2c-1.43,6.63-1.86,12.12-3.81,16.99-6.65,16.57-13.71,32.97-20.88,49.31-2.25,5.12-2.55,9.63,2.82,12.35,5.41,2.74,9.34-.12,11.61-5.11,6.36-13.96,13.01-27.81,18.6-42.08,3.14-8.02,5.34-16.67,6.31-25.22,1.98-17.59-6.89-25.05-24.08-20.46-23.08,6.16-42.1,19.89-60.61,34.26-4.62,3.59-4.32,8.64.1,12.4,4.88,4.15,10,8.04,15.17,11.83,3.82,2.8,7.88,2.8,11.06-.95,3.4-4.02,2.57-8.05-1.13-11.55-1.94-1.84-3.97-3.6-6.56-5.93,15.86-10.45,30.76-21.02,51.4-25.84ZM369.45,153.56c.28-18.78-10.58-29.41-27.34-26.11-14.14,2.79-22.74,12.86-29.71,24.57-.51.85-.54,2.3-.23,3.29,6,18.68,16.04,26.21,33.29,22.31,3.33-.75,6.56-2.01,9.75-3.26,10.66-4.2,14.07-9.25,14.24-20.8Z" fill="#fff" stroke-width="0"/><path d="M21.18,893.5c15.94-25.95,40.08-41.47,67.57-52.32,8.58,12.23,16.46,23.46,24.85,35.41-1.6,1.08-3.82,2.16-5.51,3.8-6.01,5.85-13.09,11.09-17.47,18.02-8.01,12.68-4.09,27.03,8.33,35.48,15.56,10.59,33.53,14.72,51.63,17.73,25.09,4.16,50.4,7.01,75.5,11.16,15.63,2.58,30.89,6.99,44.45,15.71,9.08,5.84,15.55,13.55,16.53,24.79,1.07,12.22-2.84,22.02-13.85,28.48-10.55,6.19-20.69,7.25-31.59.21-22.26-14.4-47.93-17.43-73.41-20.98-34.79-4.85-69.33-10.82-101.88-24.86-17.77-7.67-33.71-17.81-44.12-34.77" fill="#fff" stroke-width="0"/><path d="M177.25,938.18c-22.92-3.57-46.12-6.14-66.94-17.85-6.79-3.82-8.44-9.67-3.28-15.33,5.11-5.61,11.92-9.7,18.09-14.31.7-.53,2.57-.63,3.07-.12,4.83,4.88,12.23,7.17,11.85,16.76-.49,12.24,10.2,22.42,25.08,26.3,4.08,1.06,8.27,1.73,12.41,2.57-.09.66-.19,1.32-.28,1.98Z" fill="#fff" stroke-width="0"/><path d="M236.76,47.83c-6.09,3.84-9.87,3.54-14.05-1.86-3.51-4.54-8.81-7.89-13.8-11.02-4.2-2.63-8.66-1.76-11.16,2.93-2.48,4.64-.63,8.25,3.63,11.05,3.56,2.34,6.86,5.05,11.08,8.19-9.39,6-17.74,11.33-27.24,17.4.48-5.05.52-9.25,1.34-13.29,2.64-12.99,5.48-25.93,8.46-38.85,1.07-4.66,4.02-5.58,8.2-3.19,12.88,7.36,23.28,17.54,33.53,28.64Z" fill="#fff" stroke-width="0"/><path d="M174.45,119.81c.97,2.25,2.5,4.45,2.68,6.77.11,1.37-1.9,2.91-2.96,4.37-1.39-2.07-3.3-3.99-3.96-6.26-.37-1.29,1.32-3.17,2.08-4.79.72-.03,1.44-.06,2.15-.08Z" fill="#fff" stroke-width="0"/><path d="M201.28,202.77c-19.59,11.64-38.18,9.74-56.29-1.76-6.16-3.91-7.75-8.82-4.38-13.04,4.14-5.18,8.6-3.38,13.28-.33,13.68,8.91,27.18,9.25,38.6,1.27,7.37-5.15,8.37-12.65,3.05-19.72-3.94-5.24-9.29-10.72-5.95-17.86,3.22-6.88,10.59-7.35,17.25-7.76,12.34-.76,24.31.93,35.2,7.15,9.59,5.48,9.93,12.52.34,18.1-6.64,3.86-14.08,6.53-21.41,8.97-7.82,2.6-10.73,10.12-5.69,16.89,10,13.42,24.2,18.56,40.17,18.93,8.16.19,16.4-1.25,24.54-2.4,5.57-.79,10.69-.52,11.94,5.84,1.25,6.32-3.17,8.78-8.79,9.9-16.16,3.2-32.25,4.12-48.3-.55-13.66-3.98-24.54-12.01-33.56-23.62Z" stroke-width="0"/><path d="M489.58,69.2c-20.64,4.82-35.54,15.39-51.4,25.84,2.59,2.33,4.62,4.09,6.56,5.93,3.7,3.51,4.53,7.54,1.13,11.55-3.18,3.75-7.24,3.75-11.06.95-5.17-3.79-10.29-7.68-15.17-11.83-4.42-3.76-4.72-8.81-.1-12.4,18.51-14.36,37.53-28.1,60.61-34.26,17.18-4.59,26.06,2.87,24.08,20.46-.96,8.55-3.17,17.2-6.31,25.22-5.59,14.27-12.24,28.12-18.6,42.08-2.27,4.99-6.2,7.85-11.61,5.11-5.37-2.72-5.07-7.23-2.82-12.35,7.17-16.35,14.24-32.75,20.88-49.31,1.95-4.87,2.38-10.36,3.81-16.99Z" stroke-width="0"/><path d="M369.45,153.56c-.17,11.54-3.59,16.59-14.24,20.8-3.19,1.26-6.42,2.51-9.75,3.26-17.25,3.9-27.29-3.63-33.29-22.31-.32-.99-.28-2.43.23-3.29,6.98-11.71,15.57-21.78,29.71-24.57,16.75-3.3,27.62,7.33,27.34,26.11ZM361.91,146.51c-3.23-3.11-5.59-5.38-7.94-7.64-1.23,1.93-3.85,4.29-3.41,5.71.94,3.06,3.44,5.64,5.31,8.41,1.65-1.77,3.3-3.53,6.05-6.48Z" stroke-width="0"/><path d="M361.91,146.51c-2.75,2.94-4.4,4.71-6.05,6.48-1.86-2.78-4.37-5.35-5.31-8.41-.43-1.42,2.18-3.78,3.41-5.71,2.35,2.26,4.71,4.53,7.94,7.64Z" fill="#fff" stroke-width="0"/></g></svg>