<?xml version="1.0" encoding="UTF-8"?><svg id="b" xmlns="http://www.w3.org/2000/svg" viewBox="0 0 1051.99 1040.24"><g id="c"><path d="M114.9,620.98c11.65-17.24,29.39-29.13,54.13-23.96,29.63,6.2,42.93,26.69,44.5,59.02,44.19-23.76,84.99-24.71,120.77,14.11,87.07-60.7,138.03-142.55,155.04-247.57-34.23-15.14-59.1-40.29-77.87-71.66-5.37-8.97-8.48-19.34-14.24-28-2.25-3.39-9.5-6.15-13.47-5.16-8.4,2.09-15.89,7.68-24.25,10.17-4.82,1.44-10.61-.38-15.97-.73,3.41-4.69,5.84-11.18,10.44-13.68,7.59-4.12,16.69-5.4,24.94-8.43,3.8-1.4,7.12-4.1,10.67-6.21-.12-1.9-.25-3.8-.37-5.7-8.38-.61-16.75-1.68-25.12-1.66-4.87,0-9.92,2.97-14.55,2.29-3.33-.49-6.11-4.8-9.13-7.4,2.7-2.17,5.13-5.63,8.16-6.28,11.85-2.52,23.88-4.16,32.46-5.56,8.6-32.85,13.11-65.11,25.44-94.02,25.37-59.49,59.56-114.24,103.15-162.58,1.47-1.63,3.33-2.9,4.96-4.39,10.26-9.35,23.35-18.77,35.31-10.19,8.63,6.2,14.46,20.75,15.58,32.16,3.75,38.16,2.8,37.96,40.42,46.66,16.62,3.85,33.84,7.2,49.12,14.33,25.68,11.99,40.98-4.68,58.92-16.77,14.42-9.71,29.12-19.47,44.89-26.56,16.38-7.37,34.2,13.05,31.41,35.24-5.15,41.05-10.47,82.09-16.19,123.07-7.02,50.36,13.07,86.38,58.77,108.97,48.93,24.19,97.09,50.03,134.76,91.01,30.04,32.68,56.71,67.79,70.86,110.51,13.61,41.09,18.04,83.32,8.14,125.87-5.09,21.87-13.95,42.85-19.25,64.67-2.67,10.99-.4,23.09-1.88,34.49-1.19,9.13-3.25,18.75-7.65,26.65-2.72,4.88-10.52,6.94-16.03,10.27-.95-1.36-1.9-2.73-2.85-4.09,11.45-45.92,26.25-91.31,33.54-137.87,10.07-64.27-3.44-124.49-42.5-178.79-39.52-54.93-91.38-93.48-151.52-121.81-34.63-16.31-62.6-37.69-76.71-75.04-11.31-29.95-3.56-58.99.33-88.41,4.13-31.18,9.68-62.24,12.08-93.55,1.56-20.45-6.02-23.89-23.37-12.46-15.98,10.53-31.37,22-46.51,33.72-14.42,11.16-29.9,9.25-45.8,5.46-26.26-6.25-52.24-14.4-78.84-18.34-19.18-2.85-26.74-12.84-28.8-29.74-1.14-9.32-.29-18.9-1.66-28.17-.82-5.59-3.39-14.68-6.56-15.31-5.28-1.06-13.65,1.69-17.24,5.84-15.44,17.87-30.89,35.99-43.98,55.59-26.9,40.26-54.87,80.21-68.75,127.5-11.58,39.47-13.66,78.36,2.01,118.12,12.97,32.91,44.62,67.25,80.27,78.07,5.36-26.88,10.67-53.52,15.01-75.3-14.58-9.34-26.05-15.52-35.83-23.72-2.74-2.29-.48-10.54-.52-16.05,4.18,2.7,9.74,4.49,12.26,8.29,7.37,11.11,16.68,11.97,27.29,6.71,4.82-2.39,8.76-6.56,14.68-11.15,2.54,3.44,4.44,7.2,7.39,9.76,4.86,4.24,10.44,10.75,15.62,10.67,5.52-.09,11.19-6.42,16.32-10.61,4.02-3.28,7.3-7.46,10.92-11.24,1.32,6.89,5.62,14.99,3.41,20.45-7.52,18.58-29.89,23.36-53.42,12.78-6.31,28.93-12.67,57.74-18.73,86.62-.51,2.41.64,5.39,1.62,7.87,32.6,82.45,39.66,168.57,34.24,255.88-1.13,18.21-9.47,37.26-18.86,53.37-16.26,27.88-12.74,42.51,19.36,47.7,14.76,2.39,31.08-3.82,46.45-7.22,2.65-.59,4.79-6.43,5.96-10.22,3.05-9.91,2.97-21.75,8.54-29.76,18.51-26.62,10.33-53.97,5.21-81.45-1.51-8.11-4.96-15.87-6.37-24-.51-2.94,2.36-6.47,3.68-9.73,3.19,1.54,8.28,2.34,9.23,4.76,4.17,10.67,7.73,21.67,10.45,32.81,7.34,30.12,10.79,59.3-9.29,87.4-13.18,18.45-2.39,43.66,18.94,50.91,4.17,1.42,8.46,2.71,12.8,3.39,47.29,7.42,64.26-10.43,55.34-57.29-.95-5.01,1.9-10.75,2.98-16.16,4.24,4.01,11.29,7.48,12.21,12.14,2.83,14.46,3.32,29.38,5.15,48.56,28,3.12,58.8,6.55,84.43,9.4,11.28-20.64,20.01-36.61,28.03-51.31-1.69-12.08-3.93-24.83-4.8-37.67-.13-2,6.02-4.42,9.26-6.64,1.69,3.15,3.76,6.15,5,9.46,3.01,8.09,3.27,19.01,8.89,23.94,12.54,11.01,8.21,16.07-2.77,23.75-11.67,8.17-23.31,17.69-17.94,36.99,44.48-9.53,88.5-18.43,117.13-59.33,2.73-3.9,8.92-5.37,13.51-7.97-.25,5.41,1.38,11.94-1.06,16.03-16.04,26.89-41.02,43.31-70.07,52.04-38.49,11.56-78.3,18.81-116.57,30.98-46.17,14.68-92,31.48-127.76,66.51-24.84,24.34-30.14,56.55-15.51,88.13,14.25,30.76,48.14,50.71,80.4,47.68,10.87-1.02,21.19-4.84,21.83-16.15.49-8.75-2.94-19.45-8.36-26.35-6.6-8.38-17.09-13.71-25.94-20.31-24.17-18.04-26.14-39.91-4.57-61.29,23.7-23.49,54.62-32.45,85.88-39.57,45.72-10.41,91.85-19.05,137.44-29.96,13.54-3.24,25.66-12.11,38.86-17.3,4.62-1.82,10.53-.34,15.85-.37-2.65,4.64-4.14,11.04-8.12,13.65-34.17,22.41-73.63,27.96-112.79,35.08-44.4,8.08-89.49,14.6-129.71,37.27-6.63,3.74-12.86,8.83-17.98,14.47-11.62,12.8-9.78,24.63,4.26,34.91,9.3,6.81,19.08,13.13,27.52,20.9,14.99,13.82,20.08,32.93,12.64,47.81-8.34,16.71-21.7,24.81-41.41,24.62-42.1-.42-81.55-29.14-95.4-71.39-12.99-39.61,3.89-82.85,42.32-109.42,32.92-22.76,68.69-39.33,106.95-50.82,2.7-.81,4.86-3.41,8.25-5.9-18.96-2.6-36.18-5.6-53.53-6.97-5.43-.43-11.46,3.05-16.79,5.61-27.74,13.31-55.38,13.74-82.5-1.07-7.04-3.84-12.77-10.08-18.4-11.76-21.69.71-43.55,3.5-65.03,1.67-34.55-2.95-50.07-32.02-29.85-60.27,24.15-33.74,22.72-70.72,22.37-107.9-.55-59.95-9.33-118.95-27.22-178.87-5.94,18.83-11.12,35.87-16.68,52.78-23.47,71.39-66.37,129.06-126.11,173.81-14.21,10.64-16.99,19.93-12.52,36.33,4.28,15.73,2.82,32.94,6.1,49.05,1.91,9.4,7.19,18.59,12.76,26.62,4.6,6.64,13.62,10.46,17.42,17.33,3.88,7,7.6,18.4,4.45,23.87-3.78,6.54-15.09,12.53-22.82,12.16-13.91-.65-29.45-3.24-40.92-10.43-17.64-11.05-33.32-10.34-51.12-3.04-34.12,13.98-69.38,10.21-104.77,6.32-6.94-.76-16.43,1.59-21.35,6.16-18.51,17.17-30.12,16.21-42.53-5.17-1.96-3.38-6.28-7.64-9.51-7.65-17.57-.04-35.16.98-52.72,1.95-7.12.39-14.26,2.59-21.29,2.21-13.31-.73-22.81-11.32-22.09-24.31.75-13.53,8.34-21.02,22.1-22.12,14.36-1.16,41.8-34.38,38.63-47.7-.99-4.18-5.5-7.92-9.13-11.02-17.55-15.03-30.58-32.64-26.93-56.98,4.02-26.79,22.83-41.56,47.56-46.49,12.33-2.46,26.09,2.28,42.63,4.15ZM187.92,687.97c-9.75-11.08,2.13-19.53,5.56-28.77,5.4-14.56,3.38-27.44-7.18-38.26-11.48-11.77-27.73-14.34-40.78-4.77-8.85,6.49-15,16.72-22.19,25.4-3.67,4.43-6.99,9.15-10.46,13.73-3.48-3.79-6.66-7.93-10.51-11.29-5.49-4.79-10.94-11.71-17.34-12.94-15.65-3.02-27.5,6.24-36.79,17.68-9.33,11.5-13.28,25.01-3.74,38.08,7.99,10.95,17.06,21.52,27.36,30.25,7.6,6.44,10.8,11.84,5.84,20.69-9.94,17.73-19.44,35.73-30.3,52.87-2.24,3.54-9.67,3.73-14.64,5.61-5.19,1.97-10.31,4.12-15.47,6.19,4.7,2.25,9.3,4.78,14.17,6.61,1.88.71,4.36-.22,6.57-.31,20.89-.86,41.78-2.01,62.69-2.41,8.4-.16,16.63.86,17.67,12.7.31,3.48,5.11,9.35,7.61,9.22,3.96-.2,9.59-3.66,11.25-7.24,7.14-15.49,19.18-14.32,32.02-10.68,38.84,10.99,76.6,7.47,113.35-8.33,13.47-5.79,24.89-5.79,38.18,2.62,15.87,10.04,33.35,19.36,58.54,11.39-9.14-8.8-15.45-16.65-23.4-22.13-13.72-9.45-19.12-21.78-18.68-38,.33-12.14-.49-24.34-1.31-36.48-2.99-44.23-43.17-73.75-85.2-60.46-21.1,6.67-40.55,18.54-62.79,29.02Z" stroke-width="0"/><path d="M476.92,237.11c-.07,11.62-10.13,21.54-22.44,20.48-12.24-1.05-18.54-9.52-18.21-21.21.35-12.33,7.36-20.74,20.18-21.93,11.74-1.09,20.55,9.22,20.48,22.66Z" stroke-width="0"/><path d="M633.52,239.96c13.86-.24,19.75,8.51,21.26,20.47,1.48,11.74-9.26,22.44-21.09,22.3-14-.17-19.44-8.03-19.28-21.25.17-14.47,6.1-21.33,19.11-21.52Z" stroke-width="0"/><path d="M668.06,328.65c18.99,7.78,36.91,14.75,54.35,22.73,2.2,1.01,1.95,7.35,2.84,11.23-3.38.66-7.23,2.72-10.05,1.76-16.65-5.66-33.23-11.64-49.42-18.47-3.55-1.5-5.43-6.92-8.08-10.53,3.35-2.17,6.7-4.34,10.36-6.71Z" stroke-width="0"/><path d="M707.61,391.98c-4.16,1.07-9.14,4.06-11.37,2.66-15.75-9.9-31.09-20.48-46.13-31.45-2.23-1.62-3.23-6.65-2.64-9.69.3-1.52,6.57-3.87,8.25-2.82,16.62,10.38,32.9,21.31,49.08,32.38,1.39.95,1.34,4.01,2.81,8.91Z" stroke-width="0"/><path d="M1015.18,758.63c2.2,13.55-.51,22.37-3.26,27.8-4.1,8.12-9.63,10.91-28.67,29.53-3.66,3.58-7.32,7.16-10.95,10.78-9.18-7.04-10.47-11.8-9.99-14.84.96-6,9.06-6.44,21.25-16.47,4.86-4,12.15-10.13,16.48-19.89,4.1-9.24,3.9-17.99,3.35-23.05,3.93,2.05,7.85,4.1,11.78,6.15Z" stroke-width="0"/><path d="M187.92,687.97c22.24-10.48,41.69-22.35,62.79-29.02,42.03-13.29,82.2,16.23,85.2,60.46.82,12.14,1.64,24.34,1.31,36.48-.44,16.22,4.96,28.55,18.68,38,7.95,5.47,14.26,13.33,23.4,22.13-25.18,7.96-42.67-1.35-58.54-11.39-13.29-8.41-24.71-8.41-38.18-2.62-36.74,15.8-74.51,19.33-113.35,8.33-12.84-3.63-24.88-4.8-32.02,10.68-1.65,3.59-7.28,7.04-11.25,7.24-2.5.12-7.31-5.74-7.61-9.22-1.04-11.84-9.26-12.86-17.67-12.7-20.9.4-41.79,1.55-62.69,2.41-2.21.09-4.69,1.02-6.57.31-4.86-1.83-9.46-4.36-14.17-6.61,5.15-2.07,10.28-4.22,15.47-6.19,4.98-1.88,12.4-2.08,14.64-5.61,10.86-17.14,20.36-35.14,30.3-52.87,4.96-8.85,1.76-14.25-5.84-20.69-10.3-8.72-19.37-19.3-27.36-30.25-9.54-13.07-5.59-26.58,3.74-38.08,9.28-11.45,21.14-20.7,36.79-17.68,6.39,1.23,11.85,8.15,17.34,12.94,3.85,3.36,7.03,7.5,10.51,11.29,3.48-4.59,6.8-9.31,10.46-13.73,7.2-8.69,13.34-18.91,22.19-25.4,13.05-9.57,29.3-7,40.78,4.77,10.56,10.82,12.58,23.7,7.18,38.26-3.43,9.25-15.31,17.69-5.56,28.77ZM106.54,735.6c-2.47,3.05-5.49,5.27-6.23,8.09-.82,3.14-.56,7.51,1.16,10.01,1.04,1.52,7.24,1.87,8.57.41,7.5-8.22,13.92-5.3,21.65-.3,2.59,1.68,7.74-.6,11.72-1.06-.9-3.83-1.3-7.89-2.9-11.41-.93-2.04-3.8-3.2-3.52-2.98,1.43-8.25,2.43-14.02,3.42-19.79-5.25.8-10.54,2.43-15.73,2.15-4.92-.27-9.68-2.83-14.62-3.82-3.38-.68-6.94-.4-10.43-.55.03,3.93-.73,8.1.36,11.71.84,2.76,4.03,4.79,6.53,7.54Z" fill="#fff" stroke-width="0"/></g></svg>