<?xml version="1.0" encoding="UTF-8"?><svg id="b" xmlns="http://www.w3.org/2000/svg" viewBox="0 0 868.91 1035.38"><g id="c"><path d="M319.96,259.2c11.24,5.45,23.22,9.17,35.83,8.48,21.38,1.24,26.4.08,22.18-22.61-2.91-14.83-3.4-34.94-17.7-43.51-6.08-.97-12.32,1.15-17.91,3.43-9.2,4.1-18.48,8.87-25.58,16.15-5.33,6.69-20.29,18.7-13.04,27.67,4.51,4.85,9.89,8.23,16.23,10.4ZM358.4,253.6c-3.42.2-6.8.06-10.14-.36,4.07-2.3,7.77-5.2,10.63-7.96,1.22-1.29,2.63-3.05,3.98-5.06.63,4.54,1.14,9.1,1.88,13.47-2.12.02-4.25-.01-6.36-.09ZM325.07,233.01c-1.6,4.01-2.66,8.05-2.87,11.75-1.6-.8-3.19-1.63-4.75-2.49,2.25-3.31,4.8-6.41,7.62-9.25Z" stroke-width="0"/><path d="M381.59,301.93c-2.74-1.4-5.3-3.14-7.85-4.86-11.46-8.37-23.41-16.78-37.02-21.2-7.98-2.41-14.97-7.41-23.21-9-5.56-2.05-11.84,2.6-10.21,8.6,1.18,5.02,6.43,5.01,10.56,6.11,3.23,1.22,6.28,2.89,9.43,4.29,8.77,3.59,17.95,6.06,25.72,11.71,9.41,4.82,17.01,12.46,26.49,17.13,8.25,3.39,13.88-8.48,6.09-12.79Z" stroke-width="0"/><path d="M354.54,333.86c-6.64-6.81-12.45-14.52-19.48-21.03-6.25-6.34-13.78-11.13-20.4-17.05-4.89-4.21-11.54-12.77-18.54-7.92-3.68,2.78-3.67,8.64.11,11.29,1.5.97,3.11,1.69,4.4,2.96,6.2,6.08,13.19,11.25,19.97,16.64,5.7,5.16,11.07,10.73,16.18,16.47,3.49,3.98,6.4,8.89,11.34,11.25,7.94,3.4,13.8-8.18,6.42-12.6Z" stroke-width="0"/><path d="M866.41,808.23c-3.5-19.69-10.88-38.47-15.54-57.9-8.91-28.85-27.58-52.95-40.68-79.84-7.17-16.39-12.46-33.8-15.48-51.4-1.87-18.97,3.33-37.16,9.94-54.74,5.31-20.05,39.66-67.65,17.68-82.97-17.42-7.86-38.21.11-53.54,9.62-22.76,16.6-35.85,42.8-46.65,68.14-7.25,23.1-12.88,47.74-11.42,72.03-17.39-17.88-35.87-34.69-55.63-49.96-32.37-24.23-67.28-44.93-99.45-69.41-30.72-24.94-54.02-58.31-66.41-95.98-5.09-15.11-7.5-30.92-9.88-46.63-2.14-15.39-5.67-30.53-7.13-46.02-2.1-15.31-5.67-30.4-6.67-45.84-.35-17.1-.57-34.28.81-51.34,1.3-4.14.8-7.3-.59-9.4,2.58-17.89,2.01-36.18-.25-54.1-3.91-16.54-18.13-91.96-42.53-53.82-10.72,13.44-18.66,28.62-24.77,44.61-1.51-2.96-3.11-5.89-5-8.69-5.67-9.13-23.38-38.9-35.91-27.16-1.49,1.76-1.83,4.06-2.3,6.23-2.27,9.53-5.73,18.87-5.43,28.82-.05,7.46.07,14.93.09,22.4.01.74,0,1.54-.02,2.35-5.34.98-10.59,2.35-15.65,4.23-18.93,7.95-37.77,17.43-54.1,29.94-10.83,2.07-26.2.94-34.27,9.11-8.84,14.49-6.95,33.43-4.91,49.63,2.26,14.87,4.86,25.22,9.16,33.31-.85.85-1.51,1.93-1.82,3.24-.92,9.65-.44,19.66,1.72,29.17-2.76-2.19-5.41-4.55-8.02-6.84-13.54-10.72-24.72-24.02-34.65-38.08-17.87-24.78-36.43-49.3-50.84-76.33-11.81-20.35-23.54-41.06-30.63-63.62-7.19-19.26-9.4-39.9-13.83-59.89-2.92-15.01-4.9-30.41-11.49-44.39-5.69-12.3-12.42-24.44-22.85-33.37C64.21,2.34,45.14-3.5,28.39,2.25,13.91,7.49,5.73,20.81,2.63,35.29c-3.1,13.75-4.09,27.94.53,41.48,4.26,12.56,13.63,22.43,20.89,33.31,12.59,18.97,23.8,38.96,33.74,59.47,13.61,27.58,24.28,56.36,33.99,85.52,9.05,25.96,19.14,52.63,29.36,78.39,12.81,33.28,31.13,63.98,52.07,92.74,13.36,18.77,29.95,35.13,42.15,54.72,9.25,13.19,17.22,27.27,23.61,42.06,1.68,4.12,3.46,8.21,4.58,12.52-.19,2.01.57,4.09,1.93,5.6-2.14,42.08,8.62,89.05,30.7,120.22,1.11,1.46,2.46,2.27,3.85,2.59-.03,5.49.09,10.98.35,16.47-.29,61.31,12.12,122.4,7.52,183.68-2.74,26.63-4.31,55.85-22.49,77.11-1.3.33-2.5,1.03-3.43,2-13.66-4.33-25.54,2.63-37.38,8.58-22.34,11.04-27.45,41.03-6.98,56.69,7.5,5.07,16.8,5.87,25.49,7.26,12.54,3.11,24.25,2.94,37.36,3.41,11.22,1.01,22.34-.72,32.94-4.48,24.02-6.47,21.05-38.74,24.82-58.42,5.67-38.08,11.26-76.15,17.84-114.09,2.86-23.14,9-45.54,15.8-67.78,4.11-12.32,7.47-24.93,11.35-37.34,3.83,1.2,7.35,3.07,10.59,5.57,51,32.4,60.46,71.76,72.79,127.16,3.06,17.12,5.91,33.67,10.09,50.68,2.04,4.67,2.27,14.42,4.21,20.64-3.83,1.4-7.6,2.98-11.33,4.62-1.78-1.51-4.24-2.2-6.6-1.44-14.84-2.18-28.56-1.9-43.75.5-20.28,4.64-46,13.18-53.22,34.99-5.76,25.07,23.74,39.17,44.56,40.79,5.95.06,18.73,2.97,23.94-1.52,23.12,16.35,56,14.31,83.18,14.83,22.73-.53,45.42,1.06,68.13,1.42,19.49.1,39.04.6,58.46-1.41,16.08-.35,32.19-.21,48.21-2,11.82-1.01,23.46-3.3,35.18-5.05,5.8-.46,11.62-1.22,17.23-2.67.19.04.37.09.56.12,12.69,1.43,24.88-4.31,35.47-10.68,7.47-4.97,15.88-8.54,22.07-15.28,9.91-9.24,21.26-17.18,28.75-28.78,14.83-22,25.02-47.01,30.74-72.91,7.93-28.65,7.56-59.07,3.89-88.37ZM814.93,493.57c.09.08.17.16.26.24-.15-.04-.07.14.02.32-.15-.35-.34-.65-.65-.88.12.1.24.2.36.31-.06-.12-.02-.06.01.01ZM363.87,173.2c-.06-13.59-1.2-27.36,3.5-40.39,7.32,7.56,12.47,17.04,17.81,26.04,2.38,3.79,3.28,9.2,7.21,11.69-.52,1.73-1.03,3.47-1.53,5.22-8.82-.63-17.95-.86-27.02-.25-.01-.76,0-1.52.03-2.3ZM268.37,227.06c-3.2,6.51-7.49,12.22-14.65,15.28.39-3.69,1.04-7.34,2.04-10.92.22-2.2,6.17-3.5,12.61-4.36ZM81.15,40.22c-1.33,1.27-2.26,3.16-2.38,5.71-1.22-.8-2.2-1.69-2.52-3.17-1.7-4.15-2.55-8.5-2.67-12.92,2.8,3.18,5.32,6.68,7.57,10.37ZM25.18,87.66c-4.03-5.78-7.53-11.8-9.38-18.56,1.67,2.13,3.14,4.42,4.51,6.78,2.12,3.6,5.3,7.02,5.25,11.43-.14.11-.25.24-.37.35ZM217.21,458.78c-23.73-29.33-47.61-58.67-65.36-92.24-25.35-50.49-41.86-104.6-61.4-157.52-13.04-34.95-30.65-68.13-49.89-100.01-2.08-3.39-4.45-6.67-6.89-9.93,6.12-3.29,10.16-14.76-.19-28.91-.72-1.15-1.5-2.43-2.35-3.77,3.1,2.91,6.19,5.86,9.77,8.17,8.05,5.51,19.94,1.87,22.41-7.86,1.5-5.41.9-11.09-.2-16.52-1.82-8.56-6.53-26.3-15.1-29.86-3.39-1.79-7.31-4.56-11.2-2.55-14.08-1.98-18.68,17.69-16.63,28.42.84,3.3,1.79,6.69,3.17,9.85-2.63-2.74-5.57-4.96-8.79-5.93.51-3.7,1.25-7.39,1.76-11.06,2.29-11.04,8.44-22.23,20.41-24.44,9.03-1.32,17.01.55,23.94,4.48-1.33,3.21-1.27,7-1.21,10.39-.15,5.63.9,11.1,2.89,16.35,1.17,3.88,2.86,7.82,6.3,10.22,2.66,2.16,5.42,4.54,9.02,4.72,4.58.91,8.59-1.13,11.37-4.42.65,1.69,1.25,3.38,1.8,5.04,4,12.19,5.27,25.03,8.15,37.49,4.5,24.43,8.95,49.03,18.77,71.99,24.56,55.04,58.69,105.69,96.83,152.21,10.48,10.31,28.43,28.73,43.47,33.71,3.81,6.33,8.74,11.99,14.95,16.62,6.3,6.18,12.36,12.98,19.23,18.63-.57,4.64-.17,9.56-1.5,14.11-2.05,8.12-5.34,15.92-9.05,23.42-9.79,23.87-21.28,47.05-29.62,71.5-1.02,3.39-1.92,6.9-2.71,10.48-8.65-18.74-19.85-36.25-32.15-52.79ZM36.22,31.63c.46-.08.9-.21,1.32-.38,1.67.23,2.97,1.35,4.52,1.96,4.45,8.22,9.03,20.39,7.52,29.76-4.4-1.94-7.65-6.12-11.21-9.28-4.51-6.22-6.15-15.18-2.16-22.06ZM407.34,1005.82c-14.31-1.97-39.08-15.33-22.21-30.76,16.38-13.86,38.21-17.99,59.19-18.23.07-.01.14-.01.21-.02-3.25,1.52-6.42,3.19-9.39,5.2-14.49,12.38-19.11,30.11-10.99,45.04-5.63.05-11.25-.37-16.81-1.22ZM655.59,1019.44c-38.34,2.32-76.71,1.89-115.09.22-29.73-.83-60.93,2.85-89.42-7.27-20.22-8.73-22.45-28.82-4.46-40.93,25.04-10.06,50.99-28.65,78.78-17.25,16.58,3.63,32.66,9.12,48.56,14.99,7.69,1.82,19.49,11.15,26.64,8.67,7.75-3.07,4.72-16.15-3.86-14.35-11.06-5.05-22.4-9.51-33.94-13.41-.67-2.68-2.89-4.87-7.02-5.01,0,0,0,0,0,0-11.73-10.34-18.98-24.59-26.5-38.07-7.85-15.46-11.32-32.76-12.55-49.96-2.37-31.89,4.13-64.61,23.44-90.63,2.14-3.64,5.71-6.51,7.03-10.58,3.06-8.46-9.77-13.4-13.24-5.14-17.69,22.84-29.55,49.97-31.24,79.08-2.14,31,1.76,63.57,17.71,90.75,4.26,6.69,8.32,14.18,13.07,21.02-1.04-.26-2.07-.53-3.11-.78-11.58-3.65-23.84-5.6-35.79-3.61-1.11-6.84-2.26-13.66-4.14-20.35-2.94-11.6-5.04-23.3-7.29-35.11-1.93-12.39-4.7-24.59-7.93-36.7-5.29-23.35-11.88-46.81-25.06-67.08-10.3-16.77-24.85-30.55-40.87-41.82-6.83-4.73-13.48-10.31-21.55-12.61,1.3-3.58,2.67-7.12,4.17-10.63,6.42-18.96,13.08-37.9,22.85-55.43,8.18-17.54,15.89-35.31,26.27-51.7,6.72-12.01,14.84-23.21,24.02-33.47,2.04-2.92,8.08-5.77,7.82-10.44-1.39-10.31-11.25-7.83-15.88-1.64-22.63,23.96-37.87,53.68-51.48,83.41-9.85,19.86-19.35,39.9-25.75,61.21-5.27,11.56-8.62,23.68-12.29,35.79-7.19,22.83-14.39,45.72-20.18,68.95-10.25,56.99-18.9,114.26-26.68,171.61-1.6,6.27-2.1,13.9-7.29,18.36-17.12,7.72-35.09,5.36-53.44,4.49-10.83-1.57-22.37-2.7-32.79-6.47-9.46-5.74-11.06-19.88-3.11-27.62,6.79-6.93,16.21-10.13,25.15-13.72,6.94-1.32,13.92,3.49,20.74,1.03,3.49-1.64,5.04-5.5,7.4-8.38,5.68-7.25,10.8-14.93,13.91-23.68,19.85-62.51,10.25-129.22,5.3-193.33-3.39-56.61-4.81-114.53,13.92-168.89,11.55-24.67-9.66-25.87-10.64-14.16-9.89,30.34-16.67,61.82-18.92,93.67-2.59-4.42-4.78-9.08-6.52-13.97-7.6-18.52-12.07-38.4-14.09-58.29-1.03-17.56-1.27-35.55,2.12-52.94,7.7-30.11,22.54-57.88,34.48-86.44,4.14-9.43,8.11-19.71,9.23-30.12,1.09.47,2.19.92,3.33,1.31,19.82,9.11,23.79-9.98,11.22-11.74-16.39-2.17-26.64-16.75-37.92-27.28-12.34-9.18-19.62-23.93-20.42-39.25-.3-1.9-.33-3.85-.27-5.81,6.59,5.39,15.3,10.25,27.11,16.19,4.73,3.1,11.73.07,11.66-5.84.27-7.72-17.44-11.95-23.14-16.55-16.95-9.36-19.3-23.94-22.39-41.47-.77-4.18-1.35-8.43-1.67-12.71,2.35-.59,4.65-1.73,6.73-2.73,12.63-5.67,19.82-17.18,24.33-29.71,3.48-.88,5.24-4.26,8.31-5.97,14.76-9.64,30.38-18.26,46.8-24.74,14.16-5.1,29.38-5.36,44.26-5.06,13.16,1.45,17.97,1.7,21.46-12.58,6.08-22.44,15.87-43.53,30.52-61.81,5.79,8.61,7.31,19.17,10.53,28.87,4.51,14.46,6.76,29.39,6.69,44.53.68,11.24-.64,22.31-2.62,33.35-.82,4.48-3.01,9.37-.59,13.7.47.75.99,1.36,1.56,1.86-.92,18.27-.86,36.66,1.31,54.79,1.65,11.57,4.02,23.04,5.56,34.63,1.03,11.46,3.29,22.69,5.34,33.99,3.74,27.79,8.65,55.62,20.43,81.28,28.52,63.14,72.99,89.83,128.06,126.16,35.82,23.65,68.8,51.39,98.03,82.86,31.03,33.17,56.56,71.47,74.79,113.11,6.34,15,12.75,30.03,17.23,45.71,6.51,23.81,9.2,48.62,9.89,73.25.53,29.82-9.64,76.49-31.78,97.45-12.22,12.63-24.48,27.31-42.62,30.79-27.33,3.33-54.49,8.79-82.19,8.07ZM847.56,897.63c-6.01,25.94-16.98,51.36-33.93,72.03-6.79,7.36-15.26,12.78-22.15,20,4.86-5.1,9.46-10.42,12.92-16.63,14.69-27.96,22.72-60,21.95-91.65-.82-24.33-3.45-48.78-9.56-72.38-15.12-51.46-40.86-99.53-73.6-141.9-5.07-6.02-10.23-11.95-15.49-17.8.03-.28.04-.56.04-.85-1.23-6.38-2.61-12.79-3.07-19.35-.78-21.43,4.23-42.86,10.17-63.34,9.64-23.07,21.18-46.91,41.31-62.61,11.24-7.25,24.19-12.01,37.71-10.24,7.99,6.17-16.54,49.07-19.85,59.62-7.46,19.74-14.99,40.13-13.63,61.57.55,18.93,7.62,37,13.64,54.76,8.81,21.34,22.14,40.37,33.02,60.64,9.97,19.78,14.59,41.44,20.83,62.53,5.52,16.01,6.63,33,6.63,49.84.79,18.89-1.48,37.65-6.92,55.77Z" stroke-width="0"/><path d="M432.85,139.32c-9.7-.78-10.27,11.19-13.81,17.83-3.15,8.41-5.21,17.21-8.96,25.41-1.73,3.75-3.7,7.82-3.7,12.04-.05,4.4,4.17,6.35,6.37,9.55,2.55,3.91,5.81,7.33,8.79,11,3.07,4.36,5.6,9.42,9.75,12.85,3.53,2.95,9.05,2.24,11.44-1.78,1.92-3.82.76-8.41,1.44-12.54,1.04-13.31,3.09-26.52,3.11-39.9-.33-10.75-1.8-31.09-14.43-34.46ZM430.75,204c-3.42-3.69-6.18-7.91-9.42-11.72,4.51-9.51,7.41-19.66,10.78-29.58,2.26,13.34.09,27.77-1.36,41.3Z" stroke-width="0"/></g></svg>