<?xml version="1.0" encoding="UTF-8"?><svg id="b" xmlns="http://www.w3.org/2000/svg" viewBox="0 0 1102.39 805.74"><g id="c"><path d="M621.57,313.63c27.49-53.67,25.18-108.71,6.06-163.86-20.73-59.79-62.56-100.93-120.38-124.05-44.86-17.93-91.89-27.8-140.92-17.24-11.16,2.4-20.49,7.11-29.15,14.51-9.38,8.03-13.42,18.77-9.68,28.99,4.74,12.97,14.24,23.69,30.56,22.98,14.58-.63,29.26-2.27,43.63-3.17,44.51-2.77,87.91,3.9,122.27,36.51,40.24,38.19,64.67,83.99,62.14,140.99-1.18,26.54-7.29,52.03-31.01,68.36-31.41,21.62-52.28,53.01-76.44,81.25-17.92,20.94-40.15,30.04-66.64,30.86-24.78.77-36.85-10.71-37.29-35.21-.28-15.21-1.05-30.52.23-45.62,1.26-14.84-7.24-26.44-11.36-39.22-3.8-11.8-21.53-12.24-32.38-2.18-7.51,6.97-13.74,15.29-20.91,22.66-11.46,11.78-23.7,20.09-41.19,24.02-15.75,3.53-30.18,15.71-43.6,26.12-15.07,11.7-31.95,16.96-50.02,20.51-22.68,4.45-35.61,21.27-30.6,43.39,2.55,11.23,5.09,22.42,3.28,33.26-6.13,36.78,18.91,61.03,36.26,86.76,41.63,61.76,102.53,97.4,173.63,116.64,31.95,8.64,64.54,12.91,97.52,14.46,7.5.35,15.46,1.35,20.75-6.16" fill="none" stroke="#000" stroke-linecap="round" stroke-linejoin="round" stroke-width="8.3"/><path d="M816.61,330.23c8.44-8.98,19.51-11.62,31.02-14.88,29.13-8.26,55.45-23.05,81.02-39.07,11.1-6.96,21.62-9.28,33.35-.18,11.79,9.15,24.45,7.97,37.28.32,14.87-8.87,30.14-17.15,45.62-24.93,21.36-10.74,42.55-4.12,42.57,26.87,0,8.98,3.28,15.77,5.6,22.66,14.34,42.62-1.99,59.04-37.86,72.76-11.99,4.59-24.73,6.47-37.33,6.01-22.87-.83-39.18,8.17-52.07,27.08-35.26,51.74-71.04,103.45-122.38,141.01-44.12,32.28-83.31,71.93-134.77,93.43-30.09,12.57-60.37,25.05-91.46,34.67-10.94,3.38-18.78,9.04-19.89,17.43-3.26,24.59-10.74,50.83,13.78,70.61,6.84,5.52,13.91,11.51,16.24,19.37,1.72,5.31-1.13,7.5-3.7,9.49-16.19,12.57-70.56,11.24-85.02-2.05-7.26-6.66-11.36-14.66-10.43-24.89.69-7.61.73-15.18,1.76-22.87,5.04-37.34,1.19-43.03-35-51.47-7.89-1.84-14.16-2.89-18.82-10.59-7.3-12.07-23.3-14.92-30.9-27.11" fill="none" stroke="#000" stroke-linecap="round" stroke-linejoin="round" stroke-width="8.3"/><path d="M146.43,510.74c-25.02,2.24-48.31-8.04-72.64-10.11-24.34-2.07-49.65-1.75-63.77,22.86-5.69,9.91-9.55,23.71-.36,34.83,9.46,11.46,22.53,15.09,34.93,6.11,26.37-19.09,46.2,3,66.15,11.61,26.84,11.59,52.93,24.24,81.02,33.23,9.62,3.08,17.01-.7,25.22,1.06" fill="none" stroke="#000" stroke-linecap="round" stroke-linejoin="round" stroke-width="8.3"/><path d="M945.25,307.4c-31.99,16.19-63.74,33.05-99.61,39.33-8.94,1.56-17.71,1.43-24.94-6.08-40.2-41.78-91.27-56.29-147.26-58.1-11.05-.36-22.13-.05-33.2-.05" fill="none" stroke="#000" stroke-linecap="round" stroke-linejoin="round" stroke-width="8.3"/><path d="M1084.26,288.73c-21.16-1.24-39,8.88-55.79,19.05-28.3,17.15-54.51,11.25-81.11-2.52-.28-.15-.28-1.46.02-1.97.48-.82,1.33-1.42,2.02-2.11" fill="none" stroke="#000" stroke-linecap="round" stroke-linejoin="round" stroke-width="8.3"/><path d="M521.98,562.61c15.39,23.11,32.27,44.27,55.63,60.73,16.97,11.96,32.17,27.85,33.59,51.32" fill="none" stroke="#000" stroke-linecap="round" stroke-linejoin="round" stroke-width="8.3"/><path d="M326.94,309.48c-14.35-2.19-15.09-22.93-33.17-22.87-11.33,19.65-25.82,38.78-24.93,64.37" fill="none" stroke="#000" stroke-linecap="round" stroke-linejoin="round" stroke-width="8.3"/><path d="M227.35,413.22c12.37,20.18,26.29,37.85,53.95,33.2" fill="none" stroke="#000" stroke-linecap="round" stroke-linejoin="round" stroke-width="8.3"/><path d="M256.39,537.71c-8.3-11.07-18.21-21.34-24.24-33.53-3.13-6.32-6.36-2.11-8.96-3.82" fill="none" stroke="#000" stroke-linecap="round" stroke-linejoin="round" stroke-width="8.3"/><path d="M144.35,359.28c6.92,13.83,13.83,27.66,20.75,41.5" fill="none" stroke="#000" stroke-linecap="round" stroke-linejoin="round" stroke-width="8.3"/><path d="M146.43,417.37c-11.33-7.64-21.52-17.22-35.27-20.75" fill="none" stroke="#000" stroke-linecap="round" stroke-linejoin="round" stroke-width="8.3"/><path d="M233.57,496.22c4.81-3.5,9.62-7.01,14.97-10.91,10.82,10.69,24.48,18.31,32.75,31.66" fill="none" stroke="#000" stroke-linecap="round" stroke-linejoin="round" stroke-width="8.3"/></g></svg>