<?xml version="1.0" encoding="UTF-8"?><svg id="b" xmlns="http://www.w3.org/2000/svg" viewBox="0 0 540.03 1073.82"><g id="c"><path d="M41.95,4.95c-4.77,4.58-6.42,9.16-13.56,37.21C10.98,110.34,2.54,169.74.35,238.29c-1.28,42.16.73,56.82,10.63,82.48,14.48,37.58,50.95,73.51,96.78,95.31l13.57,6.42-1.28,22.91c-3.67,64.15-12.47,107.96-29.7,145.17-22,47.66-31.71,76.98-36.66,110.17-13.93,94.58,33.73,154.89,137.29,173.58,32.99,6.05,75.88,8.06,111.99,5.69,17.05-1.29,35.2-2.94,40.15-4.04,4.95-.92,9.72-1.09,10.63-.54,3.29,2.01,14.66,26.58,17.41,37.94,3.85,14.66,2.56,32.25-3.12,44.36-5.68,12.47-25.66,32.08-39.41,39.04-17.96,8.98-30.42,11.91-52.05,11.73-31.71,0-62.14-8.25-115.48-30.97-30.43-13.02-42.16-15.58-54.07-11.55-13.93,4.58-17.78,22.18-8.98,39.96,18.33,37.02,86.51,64.33,167.53,67.63,82.67,3.11,140.77-23.28,164.97-75.15,9.71-20.71,11.91-32.44,11.73-62.69-.18-23.28-.92-30.24-4.76-44.91-2.57-9.53-6.97-22.18-9.71-28.05s-4.77-10.81-4.4-11c.36-.36,5.68-3.67,11.54-7.51,30.62-19.8,50.78-50.59,56.28-85.61,2.75-18.33.92-56.82-3.67-77.35-5.32-22.91-15.4-51.5-26.21-74.41-5.13-10.63-11.18-24.2-13.57-30.24-11.91-29.88-19.61-74.06-23.83-137.66l-1.1-18.33,12.47-6.05c31.16-15.22,61.58-40.5,77.53-64.15,24.02-35.74,30.06-66.54,26.03-132.34-4.4-69.29-16.68-142.42-33.37-198.33-4.03-13.75-9.71-19.8-18.51-19.8-8.07,0-13.93,3.85-28.96,19.25-7.52,7.7-24.2,23.83-37.03,35.93l-23.1,22-18.88-6.6c-10.45-3.67-29.14-8.8-41.79-11.36-21.26-4.58-26.4-4.95-67.09-4.95-40.88-.19-45.64.18-67.09,4.76-12.64,2.75-31.34,7.88-41.61,11.55-17.41,6.05-19.25,6.23-22.73,3.67-2.2-1.47-18.15-16.68-35.38-33.55C86.31,23.64,69.45,7.7,66.15,4.95c-8.25-6.59-16.86-6.59-24.19,0h0ZM91.81,39.96c43.63,42.52,47.48,46.19,48.57,46.19.55,0,8.8-2.94,18.33-6.6,9.72-3.48,18.15-5.86,18.88-4.95.73.74,3.67,8.44,6.42,17.05,10.63,32.99,20.71,49.49,29.88,49.49,13.38,0,17.97-13.56,16.31-48.76-.55-13.2-1.28-25.11-1.65-26.58-.36-1.83,1.65-2.75,6.42-3.11,5.87-.55,6.78,0,6.78,3.3,0,7.14,7.33,40.33,11.36,50.77,4.58,12.65,10.45,18.88,17.6,18.88,12.09,0,18.14-15.94,20.16-52.05.92-16.13,1.83-22.18,3.67-22,1.1.18,5.31.36,9.16.36l6.78.36v30.61c0,34.27,1.47,41.06,10.08,44.54,11.73,4.95,20.89-6.97,33.91-44.54,3.85-10.81,7.7-19.61,8.43-19.61.92,0,9.53,2.94,19.25,6.6l17.59,6.59,10.27-9.72c5.68-5.5,23.28-22.73,39.22-38.31,15.95-15.58,30.98-29.14,33.36-30.06,5.5-2.21,13.02,2.2,14.48,8.43.55,2.38,4.22,17.41,8.43,33.55,14.3,56.64,22.55,112.91,25.85,175.6,2.2,41.97.55,62.32-6.6,83.58-18.14,54.45-69.65,96.23-144.62,117.31-91.84,25.66-206.21,16.32-278.98-22.91-47.29-25.66-76.98-60.11-88.9-103.74-3.85-13.57-4.22-19.07-4.03-50.96.18-38.49,2.56-68.92,8.25-108.15C23.99,88.9,40.49,17.6,46.9,10.63c6.42-6.97,10.27-4.58,44.91,29.33h0ZM283.72,81.02c-1.28,23.65-2.38,30.61-6.6,40.51-3.67,8.61-8.8,8.61-13.75.18-4.03-6.78-11.55-35.37-13.38-50.77l-1.28-10.45h36.11l-1.1,20.53ZM222.14,78.82c1.83,17.41.73,45.64-2.2,50.96-1.1,2.2-3.3,4.03-4.58,4.03-6.6,0-16.87-20.16-26.76-51.69l-3.3-10.63,6.78-1.65c12.47-3.3,23.1-5.32,25.85-4.96,2.02.19,3.11,3.85,4.22,13.93h0ZM336.33,67.09c8.06,1.65,15.03,3.48,15.94,4.21,1.65,1.66-10.27,36.48-16.68,48.4-7.33,13.56-12.65,14.84-16.68,4.4-3.49-8.98-2.02-59.94,1.65-59.94.73,0,7.88,1.28,15.77,2.94h0ZM416.43,434.78c5.68,69.65,10.81,103.93,19.8,131.61,2.2,6.6,9.17,23.1,15.58,36.85,13.75,29.33,20.89,49.12,27.67,76.25,4.4,17.6,4.95,23.28,5.13,50.96,0,29.51-.19,31.89-5.13,45.82-6.97,19.43-15.4,32.81-28.78,46.01-13.38,13.01-31.35,24.75-32.63,21.26-1.83-5.86-24.01-33.55-35.92-44.91-13.75-13.38-38.86-31.16-41.98-30.06-5.13,1.65-2.2,5.5,10.08,13.56,28.05,18.52,58.84,54.99,71.49,84.87,13.02,30.97,17.6,69.47,11.73,98.98-13.38,68.01-73.87,104.11-167.72,100.26-45.28-1.83-83.4-10.08-113.1-24.01-34.45-16.32-52.05-34.83-52.05-54.99,0-6.6.92-8.8,4.77-11.91,8.98-6.97,19.61-5.32,50.95,7.87,48.21,20.71,75.89,29.15,105.03,32.08,38.49,4.04,70.57-6.23,94.95-30.06,38.86-38.31,31.35-87.07-23.46-149.75-12.09-13.93-43.07-41.79-46.38-41.79-5.5,0-1.83,6.78,7.88,14.66,17.05,13.93,55.91,57.01,53.52,59.38-.36.37-8.06,1.66-17.23,2.75-60.85,7.33-131.97,2.21-175.6-12.46-26.94-9.16-44.36-19.43-60.85-35.93-23.28-23.28-33.36-46.74-35.19-81.75-2.2-40.5,8.8-83.58,36.29-142.97,19.06-41.42,27.49-81.38,31.89-151.59.73-11.18,1.65-20.53,1.83-20.53s5.13,1.65,11.18,3.67c74.97,25.85,182.01,26.39,254.6,1.47,10.08-3.49,18.88-6.6,19.61-6.78.55,0,1.65,4.95,2.02,11.18h0Z" stroke-width="0"/><path d="M216.27,505.9c-25.12,4.4-30.43,6.6-30.43,12.83s4.77,8.06,32.99,12.83c21.08,3.67,28.22,4.03,62.32,3.11,28.78-.73,42.89-2.01,55.54-4.76,18.14-3.85,22.36-6.05,22.36-11.18s-4.22-7.33-22.36-11.36c-26.03-5.5-91.65-6.42-120.42-1.47h0ZM332.84,514.15c9.35,1.65,16.5,3.85,16.13,4.58-.55.92-8.98,2.94-18.88,4.95-25.3,4.77-90.91,4.77-116.21,0-9.9-2.01-17.96-4.03-17.96-4.95,0-1.28,21.63-5.86,37.58-8.06,3.11-.37,22.91-.55,43.99-.37,27.68.37,43.26,1.47,55.35,3.85h0Z" stroke-width="0"/><path d="M235.52,594.07c-29.33,3.11-48.21,8.06-49.86,13.01-1.83,6.05,4.04,9.9,19.98,13.2,38.13,7.52,85.23,8.25,122.26,1.83,25.66-4.4,30.06-6.23,30.79-12.09.73-6.05-1.65-7.52-19.8-11.36-28.96-6.24-70.76-8.07-103.38-4.58h0ZM325.33,603.96c26.39,4.22,27.86,5.31,12.65,8.8-30.24,6.78-82.67,8.25-113.64,3.11-17.41-2.75-30.61-5.69-29.88-6.6,1.47-1.28,28.05-6.23,42.71-8.06,19.61-2.2,67.45-.73,88.17,2.75h0Z" stroke-width="0"/><path d="M223.42,686.45c-28.6,4.4-34.83,6.42-37.03,11.18-3.11,6.78.73,9.34,21.45,13.93,16.31,3.67,23.46,4.03,64.15,4.03s48.02-.36,63.79-3.84c19.61-4.4,23.83-6.6,22.91-12.28-.74-5.13-6.78-7.71-26.4-11.37-22-4.03-87.25-5.13-108.88-1.65h0ZM332.11,695.61c8.8,1.65,15.95,3.67,15.95,4.4,0,2.02-16.13,5.32-37.21,7.71-34.09,4.03-114.93-1.47-114.93-7.52,0-1.28,19.98-5.31,39.41-8.06,14.11-2.02,81.38.36,96.78,3.48h0Z" stroke-width="0"/></g></svg>