<?xml version="1.0" encoding="UTF-8"?><svg id="b" xmlns="http://www.w3.org/2000/svg" viewBox="0 0 1155.87 894.24"><g id="c"><path d="M333.8,322.09c34.94-80.15,92.32-134.57,174.6-158.48,80.89-23.5,158.96-17.15,232.49,34.39,7.75-17.58,15.04-35.06,23.14-52.16,6.22-13.15,12.33-26.59,20.49-38.54,13.56-19.86,28.06-21.97,45.05-4.71,14.65,14.87,25.35,33.56,39.21,49.31,5.84,6.64,14.92,13.36,23.21,14.35,24.48,2.93,49.39,2.06,73.94,4.58,14.33,1.47,21.39-5.61,28.43-15.73,9.33-13.4,18.26-27.35,29.39-39.15,19.84-21,37.1-20.04,50.22,5.02,12.09,23.09,19.69,48.61,28.34,73.38,8.08,23.13,13.59,47.23,22.61,69.95,26.86,67.67,34.28,133.95-10.95,198.54,12.86,7.17,24.82,13.11,35.87,20.42,3.3,2.18,4.08,8.18,6.02,12.44-4.58.71-10.04,3.38-13.58,1.79-11.9-5.36-23.12-12.24-34.6-18.53-.79,1.19-1.58,2.39-2.36,3.58,9.37,7.27,19.35,13.9,27.81,22.1,3.67,3.55,4.21,10.32,6.18,15.63-5.31-.7-11.49.08-15.78-2.4-11.53-6.67-22.31-20.57-33.3-20.49-9.69.08-19.12,15.32-28.9,23.59-30.66,25.89-65.75,42.32-105.31,49.36-5.04.9-10.63,2.26-14.56,5.25-63.69,48.68-118.09,105.09-149.86,180.41-9.34,22.14-11.04,44.01-2.24,66.59,2.34,6.01,4.14,12.27,5.65,18.55,7.04,29.12-11.23,50.67-41.62,50.46-15.37-.11-30.75,1.94-46.14,2.52-9.79.37-19.61-.06-29.42-.33-11.84-.33-23.7-1.62-35.5-1.18-23.94.91-43.59-9.9-56.56-27.42-22.88-30.9-45.29-62.87-62.42-97.13-22.47-44.93-54.28-79.26-94.12-108.98-49.32-36.78-91.6-81.17-114.43-139.69-9.02-23.13-13.61-48.49-16.66-73.27-1.64-13.35-5.74-22.31-15.27-31.19-56.56-52.67-113.26-105.23-168.62-159.14-39.66-38.62-73.27-82.27-96.92-132.85C6.31,99.3-1.89,75.1.38,48.26,3.18,15.15,41.28-9.07,72.05,3.27c16.55,6.64,27.08,25.52,18.93,40.07-15.93,28.44-6.32,51.42,10.63,74.54,49.65,67.69,108.47,125.52,180.17,169.81,16.36,10.11,32.12,21.2,52.02,34.4ZM630.05,739.1c12.32-27.42,21.46-49.44,32.3-70.58,2.32-4.52,10.8-5.89,16.45-8.71-.89,5.88-.04,12.84-2.93,17.46-29.07,46.4-32.25,97.57-26.1,149.58,1.75,14.77,10.81,29.81,19.88,42.29,10.66,14.67,31.73,16.03,46.17,4.94,12.9-9.91,10.02-22.67,5.82-36.67-3.73-12.43-4.49-26.09-4.49-39.2,0-11.63,2.8-23.27,4.51-34.88,6.23-42.27,23.92-79.41,51.1-112.05,2.59-3.11,8.46-3.5,12.8-5.15-.01,5.07.2,10.15-.17,15.2-.11,1.53-1.69,3.06-2.82,4.41-35.44,42.11-46.98,92.81-48.84,145.66-.68,19.38,7.61,39.08,12.65,62.54,8.06-1.72,20.78-.87,26.7-6.8,5.05-5.06,5.56-19.2,2.45-27.11-14.38-36.5-10.92-70.73,6.62-105.15,29.43-57.74,68.47-107.47,119.02-148.12,5.13-4.12,9.7-8.95,15.68-14.52-13.59-2.78-24.48-4.99-35.36-7.23-10.18-2.1-28.28.54-25.44-13.39,3.07-15.11,18.76-2.48,28.82-2.56,29.09-.23,58.97,4.39,87.11-.76,45.97-8.42,79.83-38.68,110.85-72.88,49.05-54.09,55.81-115.14,34.97-181.95-12-38.45-24.03-76.91-37-115.04-5.82-17.12-13.15-33.87-21.38-49.97-4.98-9.73-13.69-13.48-22.12-2.44-10.26,13.43-20.9,26.67-29.96,40.9-9.15,14.37-20.59,20.78-37.93,19.57-27.58-1.93-55.28-2.91-82.93-2.91-13.43,0-21.68-4.98-28.6-16.16-9.86-15.92-20.37-31.62-32.2-46.11-14.23-17.42-22.68-17.04-32.13,2.84-21.3,44.82-40.65,90.56-61.51,135.6-2.31,4.99-9.29,7.81-14.11,11.63-.69-5.76-3.28-12.11-1.69-17.15,4.15-13.22,10.13-25.86,15.66-39.42-5.33-4.34-9.98-8.82-15.27-12.33-56.16-37.19-119.03-41.35-181.6-28.27-80.27,16.79-141.84,61.93-177.1,138.74-13.44,29.28-22.93,31.44-48.33,13.58-2.86-2.01-5.75-4-8.73-5.83-81.08-49.78-153.19-109.68-208.83-187.63-19.46-27.26-39.82-54.69-18.41-91.46,7.22-12.39-4.78-27.31-19.77-23.77-11.84,2.79-26.46,10.8-31.53,20.73-5.71,11.19-5.26,27.93-2,40.87,12.13,48.07,37.15,90.48,71.33,125.32,67.3,68.59,137.73,134.12,206,201.79,8.28,8.21,13.03,21.33,16.16,33.05,4.96,18.57,5.53,38.34,10.84,56.77,14.24,49.44,45.44,88.17,82.91,121.85,22.56,20.28,47.27,38.16,70.6,57.62,36.26,30.24,52.03,74.12,74.78,113.38,16.41,28.32,31.55,57.81,59.96,76.83,10.4,6.96,21.19,11.33,35.57,4.98-18.64-32.9-20.19-67.74-18.39-103.19.19-3.76-1.74-7.91-3.53-11.45-12.3-24.37-25.56-48.3-36.72-73.17-2.43-5.41,2.38-14.07,3.85-21.23,4.09,5.25,9.47,9.94,12.02,15.85,8.34,19.35,15.66,39.15,24.34,61.27Z" stroke-width="0"/><path d="M630.05,739.1c-8.69-22.12-16-41.91-24.34-61.27-2.55-5.91-7.93-10.6-12.02-15.85-1.47,7.16-6.28,15.82-3.85,21.23,11.16,24.87,24.41,48.8,36.72,73.17,1.79,3.54,3.72,7.69,3.53,11.45-1.8,35.45-.26,70.29,18.39,103.19-14.38,6.35-25.17,1.98-35.57-4.98-28.42-19.02-43.55-48.51-59.96-76.83-22.75-39.26-38.52-83.14-74.78-113.38-23.33-19.46-48.03-37.34-70.6-57.62-37.47-33.68-68.67-72.4-82.91-121.85-5.31-18.43-5.89-38.2-10.84-56.77-3.13-11.72-7.89-24.84-16.16-33.05-68.26-67.67-138.69-133.19-206-201.79-34.18-34.84-59.2-77.25-71.33-125.32-3.26-12.94-3.72-29.68,2-40.87,5.07-9.94,19.7-17.95,31.53-20.73,14.99-3.53,26.99,11.38,19.77,23.77-21.41,36.77-1.05,64.2,18.41,91.46,55.64,77.95,127.75,137.85,208.83,187.63,2.98,1.83,5.87,3.82,8.73,5.83,25.4,17.86,34.89,15.7,48.33-13.58,35.27-76.82,96.83-121.96,177.1-138.74,62.57-13.08,125.44-8.92,181.6,28.27,5.29,3.51,9.94,7.99,15.27,12.33-5.53,13.56-11.5,26.21-15.66,39.42-1.58,5.04,1.01,11.4,1.69,17.15,4.81-3.83,11.8-6.65,14.11-11.63,20.86-45.03,40.21-90.78,61.51-135.6,9.45-19.88,17.9-20.26,32.13-2.84,11.83,14.49,22.34,30.18,32.2,46.11,6.92,11.17,15.17,16.16,28.6,16.16,27.65,0,55.35.98,82.93,2.91,17.33,1.21,28.78-5.2,37.93-19.57,9.06-14.23,19.7-27.47,29.96-40.9,8.44-11.04,17.15-7.3,22.12,2.44,8.23,16.1,15.56,32.85,21.38,49.97,12.97,38.13,25,76.59,37,115.04,20.84,66.81,14.09,127.87-34.97,181.95-31.02,34.2-64.88,64.46-110.85,72.88-28.13,5.15-58.01.54-87.11.76-10.06.08-25.74-12.55-28.82,2.56-2.83,13.92,15.27,11.29,25.44,13.39,10.88,2.24,21.77,4.46,35.36,7.23-5.98,5.57-10.55,10.39-15.68,14.52-50.55,40.65-89.6,90.37-119.02,148.12-17.54,34.42-21,68.65-6.62,105.15,3.11,7.91,2.61,22.05-2.45,27.11-5.92,5.93-18.64,5.08-26.7,6.8-5.04-23.47-13.34-43.16-12.65-62.54,1.86-52.85,13.4-103.55,48.84-145.66,1.13-1.34,2.7-2.87,2.82-4.41.37-5.04.16-10.13.17-15.2-4.35,1.65-10.21,2.04-12.8,5.15-27.18,32.63-44.88,69.78-51.1,112.05-1.71,11.61-4.5,23.25-4.51,34.88,0,13.11.75,26.77,4.49,39.2,4.2,14,7.08,26.76-5.82,36.67-14.44,11.1-35.5,9.73-46.17-4.94-9.07-12.47-18.13-27.52-19.88-42.29-6.15-52-2.97-103.18,26.1-149.58,2.89-4.62,2.04-11.59,2.93-17.46-5.64,2.82-14.13,4.18-16.45,8.71-10.84,21.14-19.98,43.16-32.3,70.58ZM850.09,365.36c.14-21.38-10.08-35.1-26.15-35.11-14.83,0-27.69,16.24-27.6,34.86.08,17.58,14.51,35.47,28.22,34.99,13.83-.49,25.42-16.25,25.54-34.74ZM1063.21,366.54c0-23.65-10.2-36.86-26.47-36.29-15.42.54-27.1,15.91-25.72,35.77.5,7.19,2.51,15.88,7.13,20.77,5.71,6.04,15.88,13.34,22.27,11.9,8.04-1.81,15.06-11.27,20.81-18.74,2.76-3.58,1.59-10.18,1.97-13.42ZM937.22,385.46c6.84,6.34,12.76,12.75,19.7,17.75,2.27,1.63,7.77.56,10.66-1.17,1.67-1,2.6-7.21,1.26-8.63-9.78-10.37-20.12-27.73-30.47-27.86-9.89-.12-20.3,17.64-29.73,28.21-1.59,1.79-.49,9.17,1.32,10.08,2.89,1.45,8.57,1.02,11.03-1.04,6.03-5.04,10.89-11.47,16.22-17.33ZM741.47,520.14c1.75,1.63,3.5,3.26,5.24,4.89,15.24-10.05,30.76-19.72,45.52-30.44,3.3-2.4,3.94-8.46,5.8-12.83-4.81-.52-10.98-3.19-14.2-1.17-13.33,8.35-26.04,17.78-38.31,27.65-2.76,2.22-2.78,7.84-4.06,11.89ZM736.37,492.36c14.3-5.59,28-10.43,41.16-16.44,3.25-1.48,4.77-6.75,7.09-10.28-4.47-1.63-9.66-5.6-13.26-4.47-13.28,4.16-26.23,9.57-38.82,15.54-3.11,1.48-4.38,6.83-6.5,10.4,3.35,1.7,6.7,3.41,10.33,5.25Z" fill="#fff" stroke-width="0"/><path d="M850.09,365.36c-.12,18.49-11.7,34.25-25.54,34.74-13.7.48-28.13-17.41-28.22-34.99-.09-18.62,12.77-34.87,27.6-34.86,16.07,0,26.29,13.73,26.15,35.11Z" stroke-width="0"/><path d="M1063.21,366.54c-.38,3.23.79,9.84-1.97,13.42-5.75,7.47-12.77,16.93-20.81,18.74-6.39,1.44-16.56-5.86-22.27-11.9-4.62-4.89-6.63-13.58-7.13-20.77-1.39-19.87,10.3-35.23,25.72-35.77,16.27-.57,26.47,12.64,26.47,36.29Z" stroke-width="0"/><path d="M937.22,385.46c-5.33,5.86-10.19,12.29-16.22,17.33-2.47,2.06-8.14,2.5-11.03,1.04-1.81-.91-2.92-8.29-1.32-10.08,9.43-10.57,19.84-28.33,29.73-28.21,10.35.13,20.69,17.49,30.47,27.86,1.34,1.42.41,7.63-1.26,8.63-2.89,1.73-8.4,2.8-10.66,1.17-6.94-4.99-12.86-11.4-19.7-17.75Z" stroke-width="0"/><path d="M741.47,520.14c1.28-4.05,1.3-9.67,4.06-11.89,12.26-9.87,24.98-19.3,38.31-27.65,3.22-2.02,9.39.65,14.2,1.17-1.86,4.37-2.5,10.44-5.8,12.83-14.76,10.72-30.27,20.39-45.52,30.44-1.75-1.63-3.5-3.26-5.24-4.89Z" stroke-width="0"/><path d="M736.37,492.36c-3.62-1.84-6.98-3.55-10.33-5.25,2.12-3.57,3.39-8.93,6.5-10.4,12.59-5.97,25.54-11.38,38.82-15.54,3.6-1.13,8.8,2.84,13.26,4.47-2.32,3.53-3.84,8.8-7.09,10.28-13.16,6.01-26.86,10.85-41.16,16.44Z" stroke-width="0"/></g></svg>