<?xml version="1.0" encoding="UTF-8"?><svg id="b" xmlns="http://www.w3.org/2000/svg" viewBox="0 0 794.13 1170.69"><g id="c"><path d="M133.09,416.32c-17.17,0-32.86.88-48.35-.51-4.93-.44-9.32-6.94-13.96-10.67,4.9-2.41,9.63-6.38,14.73-6.94,19.02-2.08,38.16-3.04,57.26-4.41.07-2.94.14-5.87.2-8.81-14.07-3.16-28.13-6.4-42.23-9.43-5.33-1.15-11.51-.51-15.94-3.05-4.62-2.65-7.59-8.17-11.29-12.43,5.08-2.26,10.29-6.61,15.22-6.31,8.73.53,17.19,5.05,25.94,5.77,10.5.87,28.75,2.59,30.39-1.45,5.05-12.43,4.37-27.41,4.6-41.42.07-4.16-4.27-8.36-6.53-12.58-13.12-24.54-11.72-28.16,12.06-41.1,4.3-2.34,8.33-8.75,8.94-13.72,4.44-36.03,6.85-72.33,12.12-108.22,5.06-34.41,12.21-68.56,19.78-102.52,1.99-8.91,8-17.48,13.85-24.86,11.77-14.84,31.93-17.17,44.88-2.16,18.63,21.58,33.57,46.32,50.93,69.07,3.6,4.71,11.16,9.79,16.42,9.32,52.79-4.74,105.35-5.85,157.94,2.8,4.44.73,11.55-4.95,14.97-9.5,16.37-21.76,30.44-45.42,48.09-66.03,24.11-28.15,54.73-20.23,62.89,13.56,7.69,31.86,15.94,63.61,22.65,95.69,8.97,42.87,16.53,86.02,25.23,128.95.77,3.81,5.33,6.91,8.27,10.22,3.95,4.46,12.05,9.52,11.41,13.08-3.71,20.69,11.94,28.4,23.4,39.5,79.75,77.25,89.28,196.62,21.51,278.65-4.8,5.81-6.76,18.16-4.13,25.29,25.33,68.64,42.51,138.38,39.79,212.44-.44,12.07,9.96,24.53,15.32,36.83,32.91,75.41,35.67,150.77-8.6,222.03-53.05,85.41-174.58,99.27-250.93,31.27-14.57-12.97-39.01-11.05-46.26,6.42-22.15,53.44-88.76,46.72-123.24,15.95-13.71-12.24-27.71-16.55-45.56-18.77-118.1-14.68-209.84-71.66-266.23-177.65C.09,896.89-6.85,838.75,6.64,777.38c14.44-65.72,47.02-123.51,71.31-184.93,20.79-52.57,37.06-106.93,54.94-160.62,1.58-4.74.21-10.46.21-15.5ZM484.71,1094.48c-4.1-9.36-7.62-16.71-10.6-24.27-17.39-44.23-22.61-89.73-4.18-134.2,20.33-49.04,60.88-67.58,112.81-70.37,83.93-4.51,146.06,96.96,107.25,163.56-12.07,20.71-26.55,38.1-53.54,38.84-39.43,1.08-86.91-50.04-82.79-89.67,1.77-17.05,17.06-27.2,36.4-23.32,17.02,3.42,18.96,15.94,15.52,29.96-1.75,7.1-4.84,14.23-8.87,20.31-7.82,11.79-5.82,21.36,3.62,31.02,24.52,25.09,64.99,11.33,76.78-26.28,13.78-43.97-11.89-98.12-52.93-116.92-48.52-22.22-113.51,3.34-132.52,41.81-15.23,30.81-14.72,62.09-10.65,94.3,6.11,48.45,49.29,99.58,94.66,111.36,125.57,32.58,207.01-61.84,197.84-182.52-2.59-34.05-12.69-67.14-31.79-96.75-4.2-6.51-6.33-15.54-6.31-23.41.23-74.96-13.69-146.94-43.74-215.69-5.53-12.64-3.91-22.48,6.18-33.12,38.49-40.58,49.52-89.86,43.36-144.29-6.26-55.23-36.71-95.56-76.98-128.93-14.59,13.08-29.45,25.17-42.54,38.92-3.74,3.93-5.44,14.51-2.84,18.97,13.73,23.52,14.07,48.52,9.95,73.83-1.7,10.4-7.18,20.35-12.06,29.95-1.18,2.33-6.96,3.58-10.27,3.05-1.76-.28-4-5.48-3.83-8.33.32-5.36,1.47-10.95,3.62-15.87,10.35-23.72,6.84-46.58-2.75-69.51-4.71-11.25-9.21-16.8-24.22-13.71-70.3,14.45-126.85-20.35-159.31-65.48-11.3-15.71-17.82-16.48-28.54-.97-38.97,56.37-119.23,91.36-189.45,55.32-9.59-4.92-18.44-11.27-28.91-17.75-2.14,8.03-3.77,14.52-5.59,20.95-18.75,66.29-34.71,133.54-57.16,198.56-19.77,57.25-48.2,111.44-70.25,167.98-25.03,64.19-28.8,131.17-.79,194.39,47.91,108.14,136.75,163.43,251.7,180.47-8.69-13.4-18.75-25.23-28.88-37-38.26-44.44-68.81-93.58-87.72-149.2-3.46-10.19-.14-22.69.05-34.12,5.99,8.73,14.24,16.68,17.61,26.33,32.17,92.17,93.62,162.66,166.43,224.24,24.44,20.67,54.65,20.12,73.9,4,17.17-14.38,19.05-29.93,1.96-63.24-18.04-35.16-39.11-68.76-58.57-103.21-16.85-29.84-33.36-60.04-34.22-95.42-.18-7.57,4.5-15.25,6.94-22.88,3.25,6.14,7.2,12.02,9.64,18.47,10.12,26.73,17.55,54.73,30.09,80.23,24.01,48.83,50.83,96.29,76.55,144.28.58,1.08,1.97,1.72,3.97,3.38,4.29-2.16,9.01-4.53,15.96-8.02ZM577.66,13.76c-10.81,9.14-18.81,13.71-23.75,20.51-16.38,22.53-32.61,45.3-46.93,69.15-6.69,11.15-14.12,13.79-25.26,11.18-56.31-13.18-112.57-14.4-169.2-1.19-5.08,1.19-14.4-4.99-18-10.29-12.61-18.55-22.38-39.09-35.64-57.11-7.02-9.54-19.02-15.43-28.78-22.96-6.74,10.55-13.53,21.08-20.17,31.69-.67,1.08-.57,2.66-.75,4.02-6.15,47.51-12.3,95.01-18.42,142.52-2.32,18.02-4.57,36.06-6.92,54.59,50,0,97.26-1.74,144.29.78,21.5,1.15,42.37,11.67,63.91,15.99,9.18,1.84,19.53-.47,29.02-2.46,7.03-1.47,13.33-7.23,20.31-8.03,26.45-3.02,53.01-5.94,79.59-6.75,36.66-1.12,73.37-.28,113.19-.28-19.58-78.07-23.54-160.93-56.48-241.35ZM653.48,284.29c-13.46-2.72-25.31-7-37.22-7.19-51.96-.83-103.95-.9-155.91-.08-7.62.12-19.54,4.9-21.53,10.4-2.24,6.17,2.24,18.27,7.84,23.12,14.77,12.8,30.62,25.28,48,33.94,61.08,30.42,133.54,2.34,158.83-60.2ZM154.62,280.32c4.92,11.26,6.32,16.46,9.17,20.68,51.21,75.68,140.67,71.13,202.36,7.35,4.73-4.89,7.8-16.57,5.17-21.94-2.61-5.34-13.27-9.1-20.57-9.39-31.54-1.26-63.14-1.67-94.7-1.09-31.96.59-63.9,2.7-101.44,4.4Z" stroke-width="0"/><path d="M484.71,1094.48c-6.96,3.5-11.67,5.87-15.96,8.02-2-1.66-3.4-2.3-3.97-3.38-25.72-47.99-52.54-95.45-76.55-144.28-12.54-25.5-19.97-53.5-30.09-80.23-2.44-6.45-6.39-12.33-9.64-18.47-2.44,7.63-7.12,15.32-6.94,22.88.86,35.38,17.37,65.59,34.22,95.42,19.45,34.45,40.53,68.05,58.57,103.21,17.09,33.31,15.21,48.86-1.96,63.24-19.25,16.12-49.46,16.67-73.9-4-72.81-61.58-134.26-132.08-166.43-224.24-3.37-9.65-11.62-17.59-17.61-26.33-.19,11.43-3.51,23.93-.05,34.12,18.9,55.62,49.45,104.76,87.72,149.2,10.13,11.77,20.2,23.6,28.88,37-114.95-17.04-203.79-72.33-251.7-180.47-28.01-63.21-24.24-130.19.79-194.39,22.05-56.54,50.48-110.73,70.25-167.98,22.45-65.02,38.41-132.27,57.16-198.56,1.82-6.43,3.45-12.92,5.59-20.95,10.46,6.47,19.32,12.83,28.91,17.75,70.21,36.04,150.47,1.05,189.45-55.32,10.73-15.52,17.24-14.74,28.54.97,32.46,45.13,89.01,79.93,159.31,65.48,15.01-3.08,19.51,2.46,24.22,13.71,9.6,22.93,13.1,45.79,2.75,69.51-2.14,4.91-3.3,10.51-3.62,15.87-.17,2.85,2.07,8.06,3.83,8.33,3.31.52,9.09-.73,10.27-3.05,4.88-9.59,10.36-19.54,12.06-29.95,4.13-25.3,3.78-50.31-9.95-73.83-2.61-4.47-.9-15.05,2.84-18.97,13.09-13.76,27.95-25.84,42.54-38.92,40.27,33.38,70.72,73.71,76.98,128.93,6.16,54.42-4.86,103.7-43.36,144.29-10.09,10.64-11.7,20.48-6.18,33.12,30.04,68.75,43.97,140.73,43.74,215.69-.02,7.86,2.11,16.9,6.31,23.41,19.1,29.6,29.2,62.7,31.79,96.75,9.17,120.68-72.26,215.11-197.84,182.52-45.37-11.77-88.55-62.91-94.66-111.36-4.07-32.21-4.58-63.49,10.65-94.3,19.02-38.46,84-64.03,132.52-41.81,41.05,18.8,66.72,72.95,52.93,116.92-11.79,37.61-52.27,51.37-76.78,26.28-9.44-9.66-11.44-19.23-3.62-31.02,4.04-6.09,7.13-13.22,8.87-20.31,3.45-14.01,1.5-26.53-15.52-29.96-19.33-3.89-34.62,6.27-36.4,23.32-4.12,39.63,43.36,90.75,82.79,89.67,26.99-.74,41.47-18.12,53.54-38.84,38.81-66.59-23.32-168.07-107.25-163.56-51.93,2.79-92.48,21.33-112.81,70.37-18.43,44.47-13.21,89.97,4.18,134.2,2.97,7.57,6.49,14.92,10.6,24.27ZM377.96,583.72c-6.75,23.11-13.71,45.26-19.63,67.68-8.34,31.57-20.22,63.85,11.61,90.45,9.38,7.84,17.25,19.14,27.97,23.26,11.62,4.46,28.16,7.27,38.33,2.25,30.01-14.82,47.04-66.34,34.77-98.12-11.68-30.25-24.73-59.98-37.35-90.37,3.69-3.66,8.24-7.74,12.29-12.27,20.15-22.52,13.87-46.85-15.23-50.15-23.16-2.63-47.67-1.06-70.51,3.73-18.4,3.86-22.23,19.41-10.94,34.9,7.84,10.75,18.94,19.12,28.7,28.67ZM407.92,375.31c15.18.55,33.46-1.66,33.46-18.53,0-18.22-18.88-20.05-34.57-19.96-2.05.01-4.66-.73-6.06.25-9.26,6.4-18.26,13.18-27.34,19.83,9.46,6.13,18.86,12.39,28.47,18.27,1.49.91,4.02.13,6.04.15Z" fill="#fff" stroke-width="0"/><path d="M577.66,13.76c32.95,80.43,36.91,163.28,56.48,241.35-39.81,0-76.53-.83-113.19.28-26.58.81-53.14,3.73-79.59,6.75-6.97.8-13.28,6.55-20.31,8.03-9.49,1.99-19.84,4.3-29.02,2.46-21.54-4.32-42.4-14.84-63.91-15.99-47.03-2.52-94.3-.78-144.29-.78,2.35-18.53,4.6-36.57,6.92-54.59,6.12-47.51,12.27-95.01,18.42-142.52.18-1.36.08-2.94.75-4.02,6.65-10.61,13.43-21.14,20.17-31.69,9.75,7.53,21.75,13.42,28.78,22.96,13.26,18.01,23.03,38.56,35.64,57.11,3.6,5.3,12.93,11.48,18,10.29,56.63-13.22,112.88-12,169.2,1.19,11.14,2.61,18.57-.03,25.26-11.18,14.32-23.86,30.55-46.62,46.93-69.15,4.94-6.8,12.95-11.36,23.75-20.51Z" fill="#fff" stroke-width="0"/><path d="M653.48,284.29c-25.29,62.54-97.74,90.62-158.83,60.2-17.39-8.66-33.24-21.14-48-33.94-5.6-4.85-10.07-16.95-7.84-23.12,1.99-5.5,13.91-10.28,21.53-10.4,51.96-.82,103.95-.75,155.91.08,11.91.19,23.76,4.47,37.22,7.19Z" fill="#fff" stroke-width="0"/><path d="M154.62,280.32c37.54-1.7,69.48-3.81,101.44-4.4,31.56-.58,63.17-.17,94.7,1.09,7.3.29,17.96,4.05,20.57,9.39,2.62,5.37-.44,17.05-5.17,21.94-61.69,63.78-151.15,68.33-202.36-7.35-2.85-4.22-4.25-9.42-9.17-20.68Z" fill="#fff" stroke-width="0"/><path d="M377.96,583.72c-9.76-9.55-20.87-17.92-28.7-28.67-11.3-15.49-7.47-31.04,10.94-34.9,22.84-4.79,47.36-6.35,70.51-3.73,29.1,3.3,35.38,27.63,15.23,50.15-4.05,4.53-8.6,8.61-12.29,12.27,12.63,30.39,25.67,60.12,37.35,90.37,12.27,31.78-4.76,83.3-34.77,98.12-10.17,5.02-26.71,2.21-38.33-2.25-10.71-4.12-18.59-15.42-27.97-23.26-31.83-26.6-19.95-58.88-11.61-90.45,5.93-22.42,12.89-44.57,19.63-67.68ZM367.15,535.72c-1.08,2.01-2.15,4.02-3.23,6.03,6,6.36,10.86,15.36,18.23,18.52,14.8,6.33,16.93,15.84,13.32,29.49-6.79,25.69-10.9,52.38-20.4,77-16.07,41.65.52,56.85,34.69,82.54,3.96,2.98,14.52,3.06,17.88-.02,22.32-20.46,37.87-48.67,22.46-82.13-11.97-25.99-22.83-52.52-35.5-78.16-6.46-13.08-4.91-20.88,7.67-28.86,6.47-4.1,9.96-12.9,18.3-24.4h-73.44Z" stroke-width="0"/><path d="M407.94,375.3c-2.04-.01-4.57.78-6.06-.14-9.62-5.88-19.01-12.14-28.47-18.27,9.08-6.65,18.08-13.43,27.34-19.83,1.41-.97,4.01-.24,6.06-.25,15.69-.09,34.57,1.74,34.57,19.96,0,16.87-18.28,19.08-33.44,18.52Z" stroke-width="0"/><path d="M367.15,535.72h73.44c-8.33,11.5-11.83,20.3-18.3,24.4-12.58,7.98-14.14,15.77-7.67,28.86,12.66,25.64,23.52,52.17,35.5,78.16,15.41,33.46-.14,61.67-22.46,82.13-3.36,3.08-13.93,3-17.88.02-34.17-25.69-50.76-40.89-34.69-82.54,9.5-24.62,13.61-51.31,20.4-77,3.61-13.65,1.48-23.16-13.32-29.49-7.37-3.15-12.23-12.16-18.23-18.52,1.07-2.01,2.15-4.02,3.23-6.03Z" fill="#fff" stroke-width="0"/></g></svg>