<?xml version="1.0" encoding="UTF-8"?><svg id="b" xmlns="http://www.w3.org/2000/svg" viewBox="0 0 910.88 715.5"><g id="c"><path d="M234.17,95.48c11.31-10.19,23.05-20.42,34.41-31.06,37.9-35.54,81.91-37.56,128.57-23.12,19.86,6.14,37.3,16.88,51.71,32.23,12.56,13.38,19.84,29.17,22.31,48.34,2.9-.81,5.45-1.31,7.83-2.23,8.11-3.12,16.66-5.53,24.16-9.76,30.18-17.01,60.86-16.45,94.19-9.24,98.93,21.42,197.12,45.47,294.33,73.63,14.08,4.08,14.24,4.41,11.73,18.95-6.39,37.01-13.03,73.99-19.17,111.04-.92,5.57-.7,11.77.73,17.22,7.88,29.91,15.98,59.78,24.74,89.45,2.76,9.35.88,14.36-7.73,19.4-66.65,39.01-133,78.52-199.43,117.88-2.65,1.57-5.24,3.26-7.69,4.8,7.89,33.04-.86,48.48-30.92,63.72-48.66,24.68-96.59,50.79-144.64,76.65-18.48,9.95-37.03,19.27-58.26,21.61-22.86,2.52-43.3-4.74-62.64-15.86-13.87-7.97-27.45-16.45-41.14-24.74-12.76-7.72-26.16-11.47-41.48-11.56-65.98-.39-129.51-12.1-187.25-45.98-13.41-7.87-25.09-18.63-37.93-27.54-5.73-3.97-12.18-7.06-18.62-9.81-15.56-6.64-32.67-10.69-46.68-19.66-28.76-18.4-33.79-56.65-11.02-86.35,9.88-12.89,12.55-25.31,12.87-40.66.95-45.5,19.21-84.08,49.96-117.27,3.53-3.81,5.67-10.03,6.11-15.32.93-11.06.63-22.27.19-33.4-.26-6.58,2.37-10.43,8.16-12.94,15.31-6.64,30.67-13.18,45.71-20.37,3.01-1.44,6.75-5.58,6.73-8.46-.11-28.49-.49-57-1.73-85.47-.84-19.11-10.28-34.32-24.86-46.46-5.88-4.9-11.68-9.89-17.38-15-13.39-12-20.93-26.12-14.74-44.52C92.17,13.24,107.36,2.86,128.03.5c22.24-2.54,41.88,4.75,59.29,18.3,25.81,20.09,41.76,46.23,46.85,76.68ZM66.98,562.4c-4.48-6.52-8.35-10.35-9.88-14.95-1.24-3.73.32-8.4.64-12.65,3.81,1.18,7.79,2.01,11.37,3.7,1.64.78,2.53,3.22,3.69,4.96,22.26,33.43,52.35,57.33,88.98,73.33,49.96,21.82,102.61,30.35,156.68,30.79,14.8.12,28.25,3.05,40.84,10.41,14.72,8.6,29.59,16.98,43.95,26.16,32.76,20.97,65.25,19.63,98.6,1.14,46.23-25.62,92.86-50.52,139.35-75.66,10.66-5.77,22.36-10.07,31.98-17.2,13.82-10.23,13.7-26.97,1.22-38.87-9.66-9.22-21.82-13.9-34.53-11.21-36.77,7.8-70.66,20.96-89.28,57.39-2.61,5.11-5.51,10.9-12.48,7.11-6.78-3.69-3.87-9.19-1.11-14.38,24.41-45.89,23.81-91.9.68-138.07-11.2-22.36-26.19-41.84-44.14-59.1-4.01-3.86-8.02-7.79-3.44-13.21,5.22-6.18,9.89-1.98,14.09,1.98,3.04,2.86,6.06,5.77,8.82,8.89,7.01,7.93,13.86,16,21.52,24.87.67-5.16,1.27-8.89,1.62-12.65.95-10.05,1.81-20.11,2.68-30.17,2.04-23.56,2.08-23.66-19-33.86-72.06-34.85-147.94-58.78-225.65-76.87-16.85-3.92-34.94-2.54-53.81-3.69,2.82,12.62,9.18,19.21,17.4,25.06,3.11,2.22,6.59,8.05,5.7,10.95-2.07,6.74-8.06,4.89-13.01,2.36-15.57-7.94-24.07-21.62-26.31-38.02-2.53-18.51-3.1-37.38-3.3-56.11-.31-28.88,1.58-57.82.43-86.65-1.62-40.43-18.51-73.34-54.36-94.22-17.35-10.11-36.08-13.49-54.44-1.9-16.52,10.44-18.42,28.67-4.54,42.34,7.18,7.07,15.31,13.15,22.79,19.92,12.13,10.99,22.19,23.72,24.2,40.37,2.7,22.39,5.04,44.93,5.53,67.44.57,26.07-2.27,52.24-1.35,78.29.94,26.48,8.54,50.76,33.2,66.16,2.42,1.51,2.42,6.88,3.55,10.46-3.66.84-8.13,3.46-10.84,2.23-14.23-6.46-23.71-18.1-30.04-32.02-4.37-9.6-7.39-19.82-11.06-29.87-1.08.4-2.08.67-2.98,1.12-82.7,41.64-117.1,123.38-88.79,211.13,1.79,5.54,4.04,11.58-3.15,14.11-7.99,2.81-9.96-4.03-11.74-9.75-2.52-8.13-4.76-16.35-7.59-26.16-12.04,15.9-17.28,31.98-10.98,49.7,7.49,21.05,26.5,27.58,48.28,34.87ZM869.38,324.37c-39.92,20.85-78.74,41.14-117.58,61.4-2.77,1.44-5.59,3.7-8.45,3.8-3.03.1-8.01-1.23-8.75-3.2-1.04-2.78.16-7.37,2.05-9.98,1.86-2.56,5.74-3.72,8.82-5.32,38.24-19.97,76.59-39.75,114.63-60.1,3.88-2.07,7.54-7.1,8.61-11.43,3.5-14.17,5.91-28.62,8.43-43.01,3.14-17.93,5.99-35.92,9.11-54.79-2.82.95-4.18,1.26-5.42,1.84-53.68,24.8-107.34,49.66-161.04,74.43-51.81,23.89-103.72,47.59-155.41,71.75-3.56,1.67-7.69,6.27-8.09,9.89-2.76,24.9-4.82,49.89-6.52,74.89-.33,4.87.94,10.37,3.06,14.82,12.88,26.89,19.67,54.96,17.73,84.87-.43,6.65-1.44,13.27-2.26,20.64,64.39-34.48,80.69-36.44,116.11-14.45,63.47-37.56,126.96-75.08,190.38-112.71,19.75-11.72,19.7-11.88,13.54-34.44-6.21-22.75-12.51-45.49-18.95-68.89ZM878.06,187.28c-3.99-1.39-6.55-2.44-9.19-3.19-102.75-29.17-206.22-55.29-311.42-74.12-4.81-.86-10.46-.06-15.1,1.65-18.26,6.74-35.99,15.04-54.48,21.02-14.01,4.53-21.22,12-23.59,26.99-3.16,20.02-9.01,39.62-13.86,60.02,8.16.78,15.1,1.13,21.93,2.15,38.86,5.79,77.7,11.67,116.52,17.73,5.53.86,11.99,2.55,10.39,10.18-1.55,7.38-7.77,6.66-13.52,5.54-12.29-2.38-24.51-5.29-36.89-7.07-33.98-4.87-68.02-9.26-103.45-14.04-2.91,17.1-5.28,32.12-8.1,47.06-1.31,6.92,1.69,9.35,7.79,11.91,32.36,13.56,64.58,27.49,96.54,41.98,6.11,2.77,10.43,2.72,16.3,0,76.35-35.39,152.83-70.48,229.26-105.69,29.92-13.79,59.78-27.7,90.87-42.12ZM233.67,199.71c5.07-.62,6.79-.59,8.36-1.07,49.19-14.91,98.14-30.7,147.66-44.42,19.77-5.48,28.85-16.55,30.06-35.91.06-1.04.62-2.22.29-3.08-1.44-3.72-2.11-8.7-4.89-10.8-17.02-12.86-36.48-20.2-57.71-22.02-21.92-1.89-42.65,1.17-57.69,19.56-19.11,23.36-38.38,46.62-56.42,70.79-5.1,6.83-6.15,16.7-9.66,26.95ZM428.36,74.74c-.82.53-1.65,1.06-2.47,1.59,13.77,19.05,12.04,39.28,5.8,60-8.53,28.29-17.33,56.51-25.01,85.03-4.14,15.38-6.39,31.29-8.97,47.05-.47,2.84.72,7.88,2.66,8.83,6.28,3.09,13.26,4.75,20.49,7.13.94-7.16,1.2-12.75,2.44-18.11,9.59-41.3,18.9-82.68,29.32-123.78,4.66-18.37,1.54-34.39-9.2-49.3-4.63-6.43-10.02-12.31-15.06-18.44ZM233.66,221.82c3.75,1.45,4.4,1.93,5.02,1.9,48.96-2.24,97.91-4.47,146.86-6.93,2.27-.11,5.85-1.78,6.42-3.52,5.16-15.62,9.79-31.41,14.97-48.48-24.08,8.24-46.16,16.54-68.69,23.32-31.27,9.41-62.92,17.58-94.31,26.59-3.24.93-5.86,3.98-10.27,7.11ZM409.14,79.9c-1.13-1.61-1.93-2.97-2.94-4.15-27.15-32.11-75.26-34.55-106.36-14.05-19.33,12.74-35.05,31.17-51.55,47.88-9.79,9.91-11.94,22.85-8.77,37.66,2.37-2.95,4.11-5.35,6.08-7.53,17.46-19.25,34.06-39.41,52.87-57.23,7.98-7.56,20.21-12.58,31.24-14.47,13.38-2.3,27.75-1.47,41.3.6,12.74,1.94,24.96,7.25,38.12,11.3ZM257.66,236.7c.14.79.28,1.58.43,2.37,40.87,10.47,81.74,20.94,122.83,31.47,1.75-12.7,3.43-24.87,5.39-39.09-43.7,1.78-86.18,3.52-128.65,5.25ZM140.91,254.54c-12.45,4.11-24.69,7.88-36.68,12.34-2.19.81-4.52,4.3-4.76,6.74-.65,6.72-.23,13.55-.23,20.91,11.55-6.89,21.84-14.1,33.05-19.37,8.85-4.16,11.93-9.47,8.62-20.62Z" stroke-width="0"/><path d="M66.98,562.4c-21.79-7.29-40.79-13.82-48.28-34.87-6.31-17.72-1.06-33.81,10.98-49.7,2.83,9.81,5.07,18.03,7.59,26.16,1.77,5.72,3.75,12.56,11.74,9.75,7.2-2.53,4.94-8.57,3.15-14.11-28.32-87.75,6.08-169.49,88.79-211.13.9-.45,1.9-.72,2.98-1.12,3.67,10.05,6.69,20.27,11.06,29.87,6.33,13.92,15.81,25.56,30.04,32.02,2.72,1.23,7.18-1.38,10.84-2.23-1.13-3.58-1.13-8.95-3.55-10.46-24.66-15.4-32.26-39.68-33.2-66.16-.92-26.05,1.92-52.21,1.35-78.29-.49-22.52-2.83-45.06-5.53-67.44-2.01-16.64-12.07-29.38-24.2-40.37-7.48-6.77-15.62-12.85-22.79-19.92-13.88-13.67-11.98-31.9,4.54-42.34,18.35-11.59,37.08-8.21,54.44,1.9,35.85,20.88,52.74,53.79,54.36,94.22,1.16,28.83-.74,57.77-.43,86.65.2,18.73.77,37.59,3.3,56.11,2.24,16.4,10.75,30.08,26.31,38.02,4.95,2.53,10.94,4.38,13.01-2.36.89-2.9-2.58-8.73-5.7-10.95-8.21-5.85-14.58-12.44-17.4-25.06,18.87,1.14,36.95-.24,53.81,3.69,77.71,18.09,153.58,42.02,225.65,76.87,21.08,10.19,21.03,10.3,19,33.86-.87,10.06-1.73,20.12-2.68,30.17-.35,3.76-.95,7.49-1.62,12.65-7.66-8.87-14.51-16.94-21.52-24.87-2.76-3.13-5.79-6.03-8.82-8.89-4.2-3.96-8.87-8.17-14.09-1.98-4.58,5.42-.57,9.35,3.44,13.21,17.95,17.27,32.94,36.75,44.14,59.1,23.13,46.17,23.74,92.18-.68,138.07-2.76,5.19-5.67,10.69,1.11,14.38,6.97,3.79,9.87-2,12.48-7.11,18.62-36.43,52.51-49.59,89.28-57.39,12.71-2.7,24.86,1.99,34.53,11.21,12.47,11.9,12.59,28.64-1.22,38.87-9.63,7.13-21.32,11.43-31.98,17.2-46.49,25.14-93.12,50.04-139.35,75.66-33.36,18.49-65.84,19.83-98.6-1.14-14.35-9.19-29.23-17.56-43.95-26.16-12.59-7.36-26.04-10.29-40.84-10.41-54.08-.44-106.72-8.97-156.68-30.79-36.64-16-66.72-39.9-88.98-73.33-1.16-1.74-2.04-4.18-3.69-4.96-3.57-1.69-7.55-2.52-11.37-3.7-.32,4.25-1.88,8.92-.64,12.65,1.53,4.6,5.4,8.42,9.88,14.95Z" fill="#fff" stroke-width="0"/><path d="M869.38,324.37c6.44,23.4,12.74,46.13,18.95,68.89,6.16,22.56,6.21,22.72-13.54,34.44-63.42,37.63-126.92,75.15-190.39,112.7-35.41-21.98-51.71-20.01-116.1,14.47.82-7.37,1.83-13.98,2.26-20.64,1.94-29.91-4.86-57.98-17.73-84.87-2.13-4.44-3.4-9.94-3.06-14.82,1.7-25,3.77-49.99,6.52-74.89.4-3.62,4.53-8.22,8.09-9.89,51.69-24.16,103.59-47.86,155.41-71.75,53.7-24.77,107.36-49.63,161.04-74.43,1.24-.57,2.61-.89,5.42-1.84-3.12,18.87-5.96,36.86-9.11,54.79-2.52,14.39-4.94,28.84-8.43,43.01-1.07,4.32-4.73,9.35-8.61,11.43-38.04,20.35-76.39,40.13-114.63,60.1-3.08,1.61-6.96,2.76-8.82,5.32-1.9,2.61-3.09,7.2-2.05,9.98.73,1.97,5.72,3.3,8.75,3.2,2.86-.1,5.68-2.35,8.45-3.8,38.84-20.26,77.66-40.55,117.58-61.4ZM591.71,468.32c3.32-1.4,5.61-2.2,7.74-3.3,27.75-14.35,55.48-28.72,83.19-43.14,5-2.6,9.67-6.63,5.28-12.06-1.98-2.45-9-3.41-12.22-1.87-17.54,8.35-34.6,17.69-51.83,26.68-11.08,5.78-22.35,11.24-33.11,17.56-2.66,1.56-5.01,5.92-5.03,9.01-.01,2.37,3.86,4.77,5.98,7.12Z" fill="#fff" stroke-width="0"/><path d="M878.06,187.28c-31.09,14.42-60.95,28.33-90.87,42.12-76.43,35.22-152.91,70.31-229.26,105.69-5.88,2.72-10.2,2.78-16.3,0-31.96-14.49-64.17-28.42-96.54-41.98-6.1-2.56-9.1-4.99-7.79-11.91,2.83-14.94,5.19-29.96,8.1-47.06,35.44,4.77,69.48,9.17,103.45,14.04,12.38,1.77,24.6,4.68,36.89,7.07,5.75,1.12,11.98,1.84,13.52-5.54,1.6-7.64-4.86-9.32-10.39-10.18-38.82-6.06-77.66-11.93-116.52-17.73-6.84-1.02-13.77-1.37-21.93-2.15,4.84-20.4,10.7-40,13.86-60.02,2.37-14.99,9.57-22.46,23.59-26.99,18.49-5.98,36.21-14.28,54.48-21.02,4.64-1.71,10.29-2.51,15.1-1.65,105.2,18.84,208.68,44.96,311.42,74.12,2.64.75,5.2,1.79,9.19,3.19Z" fill="#fff" stroke-width="0"/><path d="M233.67,199.71c3.52-10.25,4.56-20.11,9.66-26.95,18.04-24.17,37.31-47.43,56.42-70.79,15.05-18.39,35.77-21.45,57.69-19.56,21.23,1.83,40.69,9.17,57.71,22.02,2.78,2.1,3.45,7.07,4.89,10.8.33.86-.23,2.04-.29,3.08-1.21,19.36-10.29,30.43-30.06,35.91-49.52,13.71-98.47,29.51-147.66,44.42-1.57.48-3.29.44-8.36,1.07Z" fill="#fff" stroke-width="0"/><path d="M428.36,74.74c5.04,6.13,10.43,12.01,15.06,18.44,10.74,14.91,13.86,30.93,9.2,49.3-10.42,41.1-19.73,82.48-29.32,123.78-1.25,5.36-1.51,10.96-2.44,18.11-7.22-2.38-14.21-4.04-20.49-7.13-1.94-.95-3.12-5.99-2.66-8.83,2.58-15.76,4.83-31.67,8.97-47.05,7.68-28.52,16.48-56.74,25.01-85.03,6.25-20.71,7.97-40.95-5.8-60,.82-.53,1.65-1.06,2.47-1.59Z" fill="#fff" stroke-width="0"/><path d="M233.66,221.82c4.41-3.13,7.03-6.18,10.27-7.11,31.39-9.01,63.04-17.18,94.31-26.59,22.54-6.78,44.62-15.09,68.69-23.32-5.19,17.07-9.81,32.86-14.97,48.48-.57,1.74-4.16,3.4-6.42,3.52-48.95,2.46-97.9,4.69-146.86,6.93-.62.03-1.26-.45-5.02-1.9Z" fill="#fff" stroke-width="0"/><path d="M409.14,79.9c-13.16-4.05-25.38-9.36-38.12-11.3-13.55-2.07-27.92-2.9-41.3-.6-11.03,1.89-23.26,6.91-31.24,14.47-18.81,17.83-35.41,37.98-52.87,57.23-1.98,2.18-3.71,4.58-6.08,7.53-3.17-14.81-1.02-27.75,8.77-37.66,16.5-16.7,32.23-35.14,51.55-47.88,31.1-20.5,79.21-18.06,106.36,14.05,1.01,1.19,1.81,2.55,2.94,4.15Z" fill="#fff" stroke-width="0"/><path d="M257.66,236.7c42.48-1.73,84.95-3.47,128.65-5.25-1.96,14.22-3.64,26.39-5.39,39.09-41.09-10.53-81.96-21-122.83-31.47-.14-.79-.28-1.58-.43-2.37Z" fill="#fff" stroke-width="0"/><path d="M140.91,254.54c3.32,11.15.24,16.45-8.62,20.62-11.21,5.27-21.5,12.48-33.05,19.37,0-7.36-.43-14.19.23-20.91.24-2.45,2.57-5.93,4.76-6.74,11.98-4.46,24.22-8.23,36.68-12.34Z" fill="#fff" stroke-width="0"/><path d="M591.71,468.32c-2.12-2.35-5.99-4.75-5.98-7.12.02-3.09,2.36-7.44,5.03-9.01,10.76-6.32,22.03-11.78,33.11-17.56,17.23-8.99,34.29-18.33,51.83-26.68,3.22-1.53,10.24-.58,12.22,1.87,4.39,5.43-.28,9.46-5.28,12.06-27.71,14.42-55.44,28.79-83.19,43.14-2.13,1.1-4.41,1.89-7.74,3.3Z" stroke-width="0"/></g></svg>