<?xml version="1.0" encoding="UTF-8"?><svg id="b" xmlns="http://www.w3.org/2000/svg" viewBox="0 0 1030.28 639.79"><g id="c"><path d="M605.21,195.31c6.38-17.24,14.02-36.26,20.28-55.72,1.98-6.15.67-13.51.24-20.27-1.92-29.99-5.9-59.99-5.59-89.95.29-27.7,16.33-37.19,39.82-22.5,25.93,16.22,48.32,38.02,73.24,56,7.6,5.48,18.34,8.35,27.89,9.08,43.54,3.33,87.16,5.92,130.79,7.67,9.3.37,19.97-1.86,27.96-6.46,23.29-13.38,44.41-30.93,68.49-42.44,28.62-13.67,44.93-3,41.49,28.26-3.76,34.11-14.39,67.44-21.23,101.26-2.34,11.58-2.86,23.64-3.16,35.5-.86,33.71-1.24,67.43-1.67,101.14-.11,8.87-3.19,20.03.94,26.27,31.69,47.91,17.86,108.07-22.76,152.8-59.7,65.74-136.02,102.77-219.42,127.06-136.27,39.7-275.7,43.3-415.46,29.35-60.22-6.01-119.4-22.42-179.05-34.11-.75-.15-1.48-.43-2.21-.69C-17.42,534.29-56.55,350.2,87.49,216.27c112.99-105.06,247.26-121.83,390.54-76.37,44.31,14.06,85.77,37.09,127.18,55.41ZM638.7,222.68s-.72-.76-.72-.76c15.85,12.19,32.27,23.73,47.25,36.92,5.3,4.67,7.08,13.34,10.47,20.18-7.24-1.74-15.2-2.14-21.52-5.57-7.31-3.97-13.05-10.75-19.69-16.05-69.06-55.11-144.34-97.93-232.22-114.6-122-23.15-232.45.72-324.06,87.56-51.39,48.71-77.51,111.07-77.75,182.44-.23,69.31,50.49,129.58,132.69,161.38,69.86,27.02,142.72,37.85,217.02,42.94,114.43,7.83,228.15,5.88,340.71-18.72,59.74-13.06,64.35-21.54,43.61-80.24-2.83-8.01-6.34-15.82-8.6-23.98-2.03-7.34-2.78-15.03-4.1-22.57,2.7-.54,5.4-1.08,8.1-1.61,9.8,35.86,19.59,71.72,30.24,110.7,28.92-12.2,58.33-24.61,93.19-39.31-17.54-26.76-32.31-49.3-47.09-71.84,1.76-1.14,3.51-2.28,5.27-3.42,16.34,21.57,32.68,43.15,51.2,67.6,42.96-28.85,89.91-56.64,111.69-111.04l-.57.6c16.99-28.89,14.66-57.98-1.95-85.47-8.35-13.82-7.39-26.25-6.09-41.32,2.82-32.73,1.35-65.81,2.42-98.72.48-14.71.62-30.02,4.79-43.89,10.8-35.92,23.79-71.19,17.93-112.41-34.69,8.7-60.48,27.71-84.07,49.84-9.86,9.25-17.94,11.51-32.22,8.72-32.88-6.43-67.15-13.82-99.9-10.73-40.45,3.81-71.43-2.49-98.26-35.15-13.25-16.13-34.79-25.46-56.94-40.91,0,31.36-1.93,55.08.51,78.34,2.81,26.82,6.4,51.93-7.69,77.91-8.89,16.4-16.97,38.12,6.36,53.2Z" stroke-width="0"/><path d="M994.4,422.67c-21.78,54.4-68.73,82.19-111.69,111.04-18.52-24.46-34.86-46.03-51.2-67.6-1.76,1.14-3.51,2.28-5.27,3.42,14.77,22.54,29.55,45.08,47.09,71.84-34.86,14.7-64.27,27.11-93.19,39.31-10.65-38.98-20.45-74.84-30.24-110.7-2.7.54-5.4,1.08-8.1,1.61,1.32,7.54,2.07,15.23,4.1,22.57,2.26,8.16,5.77,15.97,8.6,23.98,20.74,58.69,16.13,67.18-43.61,80.24-112.56,24.6-226.28,26.55-340.71,18.72-74.3-5.08-147.15-15.92-217.02-42.94-82.19-31.79-132.91-92.06-132.69-161.38.24-71.37,26.36-133.73,77.75-182.44,91.61-86.83,202.06-110.7,324.06-87.56,87.88,16.67,163.16,59.5,232.22,114.6,6.64,5.3,12.38,12.08,19.69,16.05,6.32,3.43,14.28,3.83,21.52,5.57-3.39-6.84-5.17-15.51-10.47-20.18-14.98-13.18-31.4-24.73-47.25-36.92,34.04,5.18,68.05,10.62,102.16,15.29,5.66.77,11.78-1.86,17.69-2.92-3.77-4.78-6.83-12.81-11.42-13.81-29.1-6.36-58.46-11.63-87.89-16.26-12.97-2.04-20.68,4.29-19.82,18.46-23.33-15.08-15.25-36.8-6.36-53.2,14.09-25.98,10.5-51.09,7.69-77.91-2.43-23.26-.51-46.99-.51-78.34,22.15,15.45,43.69,24.77,56.94,40.91,26.83,32.66,57.81,38.97,98.26,35.15,32.75-3.09,67.03,4.3,99.9,10.73,14.28,2.79,22.36.53,32.22-8.72,23.59-22.13,49.38-41.14,84.07-49.84,5.86,41.21-7.14,76.48-17.93,112.41-4.17,13.87-4.32,29.19-4.79,43.89-1.07,32.91.41,65.99-2.42,98.72-1.3,15.08-2.26,27.5,6.09,41.32,16.61,27.5,18.94,56.58,1.95,85.46-12.8-15.13-25.59-30.26-38.38-45.39-2.58,2.78-5.16,5.56-7.74,8.34,15.56,12.15,31.13,24.3,46.69,36.45ZM348.58,416.72c4.62-6.73,11.56-12.86,13.51-20.3,17.18-65.4,32.94-131.18,50.45-196.49,3.72-13.88,12.9-26.3,19.56-39.39-2.29-1.13-4.59-2.25-6.88-3.38-12.26,24.27-29.21,47.34-35.86,73.06-15.94,61.7-27.04,124.65-40.03,187.13-22.13-2.29-44.26-4.59-66.39-6.88-.36,2.18-.72,4.36-1.08,6.54,15.28,2.97,30.44,7.22,45.86,8.58,18.74,1.65,23.24,10.56,24.29,28.6,1.78,30.64,7.34,61.11,12.44,91.46,1.26,7.49,6.84,14.25,11.81,24.03-6.4-50.59-12.22-96.62-18.52-146.47.31.22-4.43-3.14-9.16-6.49ZM580.5,447.44c-.62,9.32-2.71,18.82-1.59,27.93,3.17,25.96,7.64,51.76,11.59,77.62,2.24-.09,4.49-.18,6.73-.27,0-12.18,1.81-24.7-.39-36.48-4.32-23.14-10.87-45.87-16.5-68.77-3.27-7.25-6.54-14.49-9.83-21.77,14.2-6.37,25.59-11.48,36.98-16.59-.54-1.46-1.08-2.92-1.62-4.38-13.04,3.02-26.09,6.05-41.3,9.57-9.36-68.78-45.22-124.56-79.53-181.03,4.43,17.59,12.83,33.37,20.13,49.66,15.65,34.91,31.28,69.84,45.84,105.21,8.92,21.66-1.58,31.28-23.23,33.04-26.07,2.11-52.05,5.19-78.08,7.85v-122.21c-2.39-.2-4.78-.4-7.17-.6-2.11,14.23-6.7,28.61-5.82,42.64,1.7,27,6.49,53.81,10,80.7h-73c5.6,2.7,8.08,4.95,10.54,4.92,40.61-.43,81.26-.38,121.83-2.07,24.14-1,50.37-15.65,67.93,14.24.66,1.13,4.37.47,6.47.78ZM219.98,331.72c-.76.04-1.53.07-2.29.11-1.04,9.84-2.27,19.66-3.06,29.52-1.49,18.39-8.41,25.83-28.48,19.41-19.68-6.29-40.44-10.4-61.02-12.32-21.53-2.01-23.46-12.15-18.1-29.51,4.27-13.85,7.02-28.16,10.45-42.27-3.16-.62-6.32-1.25-9.49-1.87-7.03,35.52-14.07,71.04-21.1,106.56,2.55.98,5.1,1.96,7.66,2.95,1.08-22.24,12.52-29.3,32.37-25.18,21.04,4.37,42.12,8.76,63.36,11.92,20,2.98,26.82,13.74,25.74,33.35-2.95,53.55,16.35,102.86,31.28,152.88,1.98,6.64,7.71,12.16,14.71,22.76,0-8.59.33-10.14-.05-11.49-13.6-48.08-28.24-95.9-40.56-144.31-7.15-28.1,4.16-39.38,31.95-36.57,3.12.32,6.37-.75,9.57-1.17-41.89-4.34-45.18-31.59-40.92-64.05.45-3.43-1.27-7.14-1.99-10.71ZM724.45,304.44c5.26,13.11,17.28,28.71,13.46,37.03-5.31,11.56-22.5,17.66-35.69,26.85,3.55,1.27,5.17,2.5,6.26,2.13,5.09-1.71,11.04-2.7,14.88-6.03,30.86-26.73,56.84-11.92,81.7,9.42,11.05,9.49,20.81,20.48,31.3,30.64,5.45,5.28,11.21,10.24,16.83,15.34,2.24-2.71,4.48-5.42,6.71-8.13-24.25-20.48-47.1-43.04-73.24-60.72-17.31-11.71-21.44-17.96-5.61-34.04,10.96-11.13,17.6-26.51,26.17-39.99-2.01-1.22-4.01-2.44-6.02-3.66-2.77,4.21-5.08,8.83-8.4,12.55-11.64,13.03-22,28.48-36.39,37.07-4.86,2.9-20.27-11.91-30.9-18.55-.49-.3-1.46.16-1.06.1ZM876.16,265.63c-7.66,5.13-12.31,8.25-16.96,11.37,4.55,3.91,8.49,9.74,13.75,11.4,27.6,8.72,55.44,16.72,83.42,24.14,5.49,1.46,11.95-.73,17.96-1.23-3.32-5.11-5.53-13.12-10.13-14.87-29.11-11.06-58.74-20.73-88.05-30.8ZM671.1,136.03c17.24-8.55,33.18-15.83,48.36-24.45,3.39-1.92,4.13-8.51,6.09-12.95-5.23-.85-11.23-3.79-15.54-2.19-14.99,5.59-29.58,12.39-43.89,19.6-3.23,1.63-7.29,7.75-6.41,10.02,1.46,3.77,6.64,6.1,11.38,9.96ZM981.88,155.34c-1.47-5.66-1.38-7.62-2.3-8.5-13.78-13.04-27.53-26.12-41.83-38.57-1.5-1.3-8.52.47-9.33,2.38-1.45,3.41-1.82,9.66.31,11.83,11.7,11.91,23.84,23.52,36.91,33.86,3.04,2.4,10.27-.49,16.25-1ZM290.19,172.28c-2.04-1.12-4.08-2.23-6.12-3.35-17.88,29.14-34.67,58.79-45.01,91.5,1.87.89,3.74,1.79,5.6,2.68,15.17-30.28,30.35-60.56,45.52-90.84ZM157.42,557.92c-15.92-32.57-31.85-65.13-47.77-97.7-1.82.9-3.63,1.8-5.45,2.7,10.51,35.55,26.85,68.26,53.22,95ZM528.52,193.26c-2.33,1.78-4.66,3.56-6.99,5.34,21.78,25.84,43.57,51.68,65.35,77.52,2.1-1.74,4.2-3.48,6.29-5.22-21.55-25.88-43.1-51.76-64.65-77.63ZM614.7,303.84c-2,1.62-4,3.25-5.99,4.87,18.08,22.41,36.17,44.81,54.25,67.22,2.23-1.82,4.47-3.64,6.7-5.46-18.32-22.21-36.64-44.42-54.96-66.63ZM690.51,528.31c-1.32.02-2.63.05-3.95.07v62.87c1.32-.05,2.63-.11,3.95-.16v-62.78ZM840.18,99.73c-1.68-.94-3.35-1.88-5.03-2.81-9.57,9.76-19.13,19.53-29.98,30.6,2.42.83,11.67,5.83,13.08,4.17,8.32-9.79,14.83-21.14,21.94-31.96ZM463.01,581.97c1.71.19,3.43.38,5.14.57v-43.91c-1.71.06-3.43.13-5.14.19v43.14ZM275.58,317.26c2.65.89,5.3,1.78,7.95,2.67,4.9-14.14,9.8-28.28,14.7-42.41-2.01-.71-4.01-1.42-6.02-2.13-5.54,13.96-11.09,27.91-16.63,41.87ZM823.35,159.34c-2.84.33-5.68.65-8.52.98,2.2,14.17,4.39,28.34,6.59,42.51.65-.15,1.29-.31,1.94-.46v-43.03Z" fill="#fff" stroke-width="0"/><path d="M638.7,222.68c-.85-14.17,6.85-20.5,19.82-18.46,29.43,4.62,58.79,9.9,87.89,16.26,4.59,1,7.65,9.03,11.42,13.81-5.91,1.06-12.03,3.7-17.69,2.92-34.11-4.66-68.11-10.1-102.16-15.29,0,0,.71.76.71.76Z" stroke-width="0"/><path d="M219.98,331.72c.71,3.58,2.44,7.29,1.99,10.71-4.25,32.46-.97,59.72,40.92,64.05-3.19.42-6.45,1.48-9.57,1.17-27.79-2.82-39.1,8.47-31.95,36.57,12.33,48.41,26.96,96.23,40.56,144.31.38,1.35.05,2.91.05,11.49-7-10.6-12.73-16.12-14.71-22.76-14.93-50.02-34.23-99.33-31.28-152.88,1.08-19.61-5.74-30.37-25.74-33.35-21.24-3.17-42.32-7.55-63.36-11.92-19.85-4.12-31.28,2.93-32.37,25.18-2.55-.98-5.1-1.96-7.66-2.95,7.03-35.52,14.07-71.04,21.1-106.56,3.16.62,6.32,1.25,9.49,1.87-3.43,14.11-6.17,28.42-10.45,42.27-5.36,17.36-3.43,27.5,18.1,29.51,20.58,1.92,41.34,6.04,61.02,12.32,20.07,6.41,27-1.02,28.48-19.41.8-9.86,2.03-19.68,3.06-29.52.76-.04,1.53-.07,2.29-.11Z" stroke-width="0"/><path d="M449.7,429.04c26.02-2.66,52.01-5.74,78.08-7.85,21.66-1.76,32.15-11.38,23.23-33.04-14.56-35.37-30.19-70.3-45.84-105.21-7.3-16.28-15.7-32.07-20.13-49.66,34.32,56.47,70.17,112.25,79.53,181.03,15.21-3.53,28.25-6.55,41.3-9.57.54,1.46,1.08,2.92,1.62,4.38-11.39,5.11-22.78,10.22-36.98,16.59,3.29,7.28,6.56,14.52,9.83,21.77l.34-.17c-2.29-.18-6,.48-6.66-.65-17.56-29.89-43.79-15.24-67.93-14.24-40.57,1.69-81.21,1.65-121.83,2.07-2.46.03-4.95-2.23-10.54-4.92,26.8,0,49.9,0,72.99,0,.99-.17,2-.35,3-.53Z" stroke-width="0"/><path d="M724.45,304.44c-.4.06.57-.41,1.06-.1,10.63,6.64,26.04,21.45,30.9,18.55,14.39-8.59,24.75-24.04,36.39-37.07,3.32-3.72,5.63-8.34,8.4-12.55,2.01,1.22,4.01,2.44,6.02,3.66-8.57,13.48-15.21,28.86-26.17,39.99-15.83,16.07-11.71,22.33,5.61,34.04,26.14,17.68,48.99,40.24,73.24,60.72-2.24,2.71-4.48,5.42-6.71,8.13-5.62-5.1-11.38-10.06-16.83-15.34-10.49-10.16-20.24-21.15-31.3-30.64-24.86-21.34-50.84-36.15-81.7-9.42-3.84,3.33-9.79,4.32-14.88,6.03-1.09.37-2.72-.86-6.26-2.13,13.19-9.19,30.38-15.29,35.69-26.85,3.82-8.32-8.2-23.92-13.46-37.03Z" stroke-width="0"/><path d="M349.28,417.32c13.05-62.44,24.15-125.39,40.09-187.09,6.65-25.73,23.6-48.79,35.86-73.06,2.29,1.13,4.59,2.25,6.88,3.38-6.66,13.09-15.84,25.51-19.56,39.39-17.52,65.31-33.28,131.09-50.45,196.49-1.95,7.44-8.89,13.56-13.51,20.3,0,0,.7.59.7.59Z" stroke-width="0"/><path d="M348.58,416.72c4.74,3.36,9.47,6.71,9.16,6.49,6.3,49.85,12.12,95.88,18.52,146.47-4.96-9.79-10.55-16.55-11.81-24.03-5.1-30.35-10.66-60.82-12.44-91.46-1.05-18.04-5.54-26.95-24.29-28.6-15.42-1.36-30.59-5.61-45.86-8.58.36-2.18.72-4.36,1.08-6.54,22.13,2.29,44.26,4.59,66.36,6.86-.03-.02-.73-.62-.73-.62Z" stroke-width="0"/><path d="M876.16,265.63c29.31,10.07,58.94,19.74,88.05,30.8,4.6,1.75,6.81,9.76,10.13,14.87-6.01.5-12.47,2.69-17.96,1.23-27.98-7.42-55.82-15.42-83.42-24.14-5.26-1.66-9.2-7.49-13.75-11.4,4.65-3.12,9.31-6.24,16.96-11.37Z" stroke-width="0"/><path d="M449.7,429.04c-1,.18-2,.36-3,.53-3.5-26.89-8.29-53.7-9.99-80.7-.88-14.04,3.7-28.42,5.82-42.64,2.39.2,4.78.4,7.17.6v122.21Z" stroke-width="0"/><path d="M671.1,136.03c-4.75-3.86-9.92-6.19-11.38-9.96-.88-2.28,3.18-8.4,6.41-10.02,14.31-7.21,28.9-14.01,43.89-19.6,4.31-1.61,10.31,1.33,15.54,2.19-1.96,4.44-2.7,11.03-6.09,12.95-15.18,8.61-31.12,15.9-48.36,24.45Z" stroke-width="0"/><path d="M580.34,447.47c5.63,22.9,12.18,45.62,16.5,68.77,2.2,11.77.39,24.29.39,36.48-2.24.09-4.49.18-6.73.27-3.96-25.86-8.42-51.66-11.59-77.62-1.11-9.11.97-18.61,1.69-27.99.09-.07-.25.1-.25.1Z" stroke-width="0"/><path d="M981.88,155.34c-5.98.51-13.21,3.4-16.25,1-13.07-10.35-25.21-21.95-36.91-33.86-2.13-2.17-1.76-8.42-.31-11.83.81-1.9,7.84-3.68,9.33-2.38,14.3,12.45,28.05,25.54,41.83,38.57.93.88.83,2.84,2.3,8.5Z" stroke-width="0"/><path d="M290.19,172.28c-15.17,30.28-30.35,60.56-45.52,90.84-1.87-.89-3.74-1.79-5.6-2.68,10.34-32.71,27.13-62.36,45.01-91.5,2.04,1.12,4.08,2.23,6.12,3.35Z" stroke-width="0"/><path d="M157.42,557.92c-26.37-26.74-42.71-59.45-53.22-95,1.82-.9,3.63-1.8,5.45-2.7,15.92,32.57,31.85,65.13,47.77,97.7Z" stroke-width="0"/><path d="M528.52,193.26c21.55,25.88,43.1,51.76,64.65,77.63-2.1,1.74-4.2,3.48-6.29,5.22-21.78-25.84-43.57-51.68-65.35-77.52,2.33-1.78,4.66-3.56,6.99-5.34Z" stroke-width="0"/><path d="M614.7,303.84c18.32,22.21,36.64,44.42,54.96,66.63-2.23,1.82-4.47,3.64-6.7,5.46-18.08-22.41-36.17-44.81-54.25-67.22,2-1.62,3.99-3.25,5.99-4.87Z" stroke-width="0"/><path d="M690.51,528.31v62.78c-1.32.05-2.63.11-3.95.16v-62.87c1.32-.02,2.63-.05,3.95-.07Z" stroke-width="0"/><path d="M840.18,99.73c-7.11,10.82-13.62,22.17-21.94,31.96-1.41,1.66-10.66-3.35-13.08-4.17,10.85-11.07,20.42-20.84,29.98-30.6,1.68.94,3.35,1.88,5.03,2.81Z" stroke-width="0"/><path d="M463.01,581.97v-43.14c1.71-.06,3.43-.13,5.14-.19v43.91c-1.71-.19-3.43-.38-5.14-.57Z" stroke-width="0"/><path d="M994.4,422.67c-15.56-12.15-31.13-24.3-46.69-36.45,2.58-2.78,5.16-5.56,7.74-8.34,12.79,15.13,25.59,30.25,38.38,45.39,0,0,.57-.59.57-.59Z" stroke-width="0"/><path d="M275.58,317.26c5.54-13.96,11.09-27.91,16.63-41.87,2.01.71,4.01,1.42,6.02,2.13-4.9,14.14-9.8,28.28-14.7,42.41-2.65-.89-5.3-1.78-7.95-2.67Z" stroke-width="0"/><path d="M823.35,159.34v43.03c-.65.15-1.29.31-1.94.46-2.2-14.17-4.39-28.34-6.59-42.51,2.84-.33,5.68-.65,8.52-.98Z" stroke-width="0"/></g></svg>