<?xml version="1.0" encoding="UTF-8"?><svg id="b" xmlns="http://www.w3.org/2000/svg" viewBox="0 0 1161.47 454.49"><g id="c"><path d="M465.39,182.86c-35.43-9.35-64.78,1.08-90.48,24.97-23.8,22.14-41.59,49.24-61.2,74.79-27.76,36.17-59.32,67.85-101.36,87.18-51.79,23.81-104.56,28.64-157.94,5.35-20.94-9.13-37.12-24.09-47.96-44.35-12.84-24.01-6.29-44.4,17.86-57.38,17.38-9.34,36.3-8.95,55.07-8.72,20.83.25,41.67,1.03,62.46,2.21,44.6,2.54,81.37-13.85,111.94-45.51,21-21.75,40.83-44.74,62.91-65.33,47.77-44.54,103.39-63.87,168.56-47.09,8.38,2.16,17.89,4.22,24.15,9.53,18.89,16.04,35.51,11.2,55.87,1.38,95.48-46.07,193.68-56.41,294.88-15.37,8.79-23.06,17-44.97,25.54-66.74,2.93-7.47,5.92-15.12,10.26-21.8,14.31-22.04,29.72-21.21,41.61,2.01,8.97,17.5,13.09,36.6,17.21,55.64,3.78,17.42,12.18,28.85,31.88,30.55,35.56,3.06,39.67,1.94,51.39-21.69,10.45-21.08,20.41-42.52,36.33-60.18,17-18.86,31.96-15.6,39.18,8.69,11.35,38.22,16.13,77.59,17.4,117.3,1.58,49.07.34,98.14-2.48,147.14-.88,15.26,3.15,26.46,16.16,36.28,21.23,16.01,21.89,36.92,4.61,57.63-6.14,7.36-13.5,13.18-21.71,17.79-43.15,24.27-88.77,41.63-138.34,46.52-18.14,1.79-36.9,2.44-47.4-17.7-3.39-6.5-10.56-5.34-16.03-6.74-24.25-6.18-47.9-13.6-67.67-29.69-6.04-4.91-11.61-4.72-18.61-2.56-72.65,22.42-146.3,27-220.95,11.53-24.85-5.15-47.63,5.93-71.44,8.87-25.53,3.15-50.84,3.85-76.14-1.73-57.87-12.76-84.59-54.06-72.08-112.11,8.25-38.33,26.92-71.32,52.2-100.95,5.03-5.9,12.41-10.33,14.3-19.74ZM958.3,431.63c3.19,2.17,4.75,4.15,6.37,4.2,63.34,1.76,120.56-16.42,170.16-55.64,15.63-12.36,13.98-27.95-3.55-37.91-17.97-10.22-19.97-23.34-18.52-41.85,6.1-77.91,4.14-155.77-6.7-233.22-1.86-13.27-1.89-27.93-13.45-39.67-19.44,18.9-30.15,42-41.27,64.81-5.68,11.66-11.77,23.13-25,27.49-39.27,12.96-77.37-7.52-88.4-46.83-5.37-19.14-8.13-39.37-21.33-56.9-9.65,10.17-14.61,21.85-18.89,33.55-7.6,20.77-14.34,41.87-21.11,62.94-3.64,11.33-9.2,14.66-20.91,9.12-83.92-39.69-168.4-31.86-252.48-.87-72.7,26.79-132.98,69.6-171.47,138.91-13.69,24.65-20.88,50.87-17.91,79.27,3.14,30.04,20.16,52.49,47.49,58.44,35.74,7.78,72,9.28,107.67-1.07,13.16-3.82,32.68-6.82,31.43-22.89-1.31-16.73-20.77-12.26-33.54-13.66-10.19-1.12-20.69-2.02-25.48-12.89-4.79-10.88,1.86-19.5,7.66-27.63,7.9-11.08,18.35-19.59,30.07-26.41,5.16-2.99,10.71-6.26,16.83,1.23-6.89,19.78-35.21,23.72-38.3,47.26q58.22,7.37,59.18,50.96c61.1,11.38,122.34,13.6,183.28-1.67,18.51-4.64,42.63-3.4,43.55-31.8,11.73.52,11.67,9.89,15.47,15.55,18.64,27.79,48.02,36.56,78.07,40.05,16.76,1.94,22.2-18.43,33.34-28.12-13.72-16.47-37.96-13.25-54.02-31.47,22.02-7.77,37.7,1.62,51.26,10.41,15.17,9.83,27.32,8.36,42.38,1.11,12.27-5.9,24.7-16.42,45.37-7.27-17.37,16.69-39.3,18.22-55.64,29.15-17.01,11.38-35.42,21.33-41.6,43.33ZM518.53,143.33c-47.18-35.43-117.49-32.2-169.41,7.21-26.9,20.42-49.25,45.59-71.76,70.41-40.38,44.51-88.36,67.96-149.93,61.74-25.9-2.62-52.36-1.68-78.43-.06-31.39,1.95-41.36,25.39-22.55,50.61,3.94,5.28,8.96,10.09,14.35,13.88,30.31,21.34,64.23,29.78,100.95,26.16,51.17-5.04,92.46-29.65,128.02-65.51,32.24-32.51,58.55-69.95,87.63-105.08,25.91-31.3,59.71-45.61,98.2-37.17,27.56,6.05,44.34-4.53,62.92-22.19Z" stroke-width="0"/><path d="M958.3,431.63c6.18-22,24.59-31.95,41.6-43.33,16.34-10.93,38.27-12.46,55.64-29.15-20.67-9.15-33.1,1.37-45.37,7.27-15.06,7.24-27.21,8.72-42.38-1.11-13.56-8.79-29.24-18.18-51.26-10.41,16.06,18.21,40.3,15,54.02,31.47-11.14,9.69-16.57,30.07-33.34,28.12-30.05-3.49-59.42-12.26-78.07-40.05-3.8-5.66-3.74-15.03-15.47-15.55-.92,28.4-25.05,27.16-43.55,31.8-60.94,15.27-122.18,13.05-183.28,1.67q-.96-43.59-59.18-50.96c3.08-23.54,31.41-27.47,38.3-47.26-6.12-7.49-11.67-4.22-16.83-1.23-11.73,6.81-22.17,15.33-30.07,26.41-5.8,8.13-12.45,16.75-7.66,27.63,4.79,10.87,15.29,11.77,25.48,12.89,12.77,1.41,32.24-3.06,33.54,13.66,1.25,16.06-18.27,19.07-31.43,22.89-35.67,10.35-71.93,8.85-107.67,1.07-27.32-5.95-44.35-28.4-47.49-58.44-2.97-28.4,4.22-54.62,17.91-79.27,38.49-69.32,98.77-112.12,171.47-138.91,84.08-30.99,168.55-38.81,252.48.87,11.72,5.54,17.27,2.21,20.91-9.12,6.77-21.07,13.5-42.17,21.11-62.94,4.28-11.7,9.24-23.39,18.89-33.55,13.21,17.53,15.96,37.76,21.33,56.9,11.03,39.31,49.13,59.79,88.4,46.83,13.23-4.37,19.32-15.84,25-27.49,11.12-22.8,21.83-45.91,41.27-64.81,11.56,11.74,11.59,26.4,13.45,39.67,10.85,77.45,12.81,155.31,6.7,233.22-1.45,18.51.55,31.63,18.52,41.85,17.53,9.97,19.18,25.56,3.55,37.91-49.6,39.22-106.82,57.39-170.16,55.64-1.62-.04-3.19-2.03-6.37-4.2ZM989.37,212.23c-6.31-1.78-7.76-12.3-16.29-8.83-1.98.81-4.71,4.82-4.16,6.03,7.02,15.47,14.57,30.7,21.99,45.99,2.77-.04,5.54-.07,8.31-.11-6.1-19.27,5.08-33.34,11.86-48.01-11.69-7.01-15.39,3.21-21.72,4.92ZM937.68,160.86c-9.14,1.7-14.68,8.46-15.5,17.59-.77,8.63,3.19,17.83,13,17.82,18.29-.03,19.85-32.13,2.5-35.4ZM1043.04,169.07c-10.44,1.97-12.92,9.91-12.86,19.32.05,8.58,4,14.8,13.19,14.19,11.31-.75,13.76-9.76,13.63-18.9-.11-8.11-4.25-14.05-13.96-14.61Z" fill="#fff" stroke-width="0"/><path d="M518.53,143.33c-18.59,17.66-35.36,28.24-62.92,22.19-38.49-8.44-72.29,5.87-98.2,37.17-29.08,35.13-55.39,72.57-87.63,105.08-35.57,35.86-76.86,60.47-128.02,65.51-36.73,3.61-70.65-4.82-100.95-26.16-5.39-3.79-10.41-8.6-14.35-13.88-18.81-25.22-8.84-48.66,22.55-50.61,26.06-1.62,52.53-2.56,78.43.06,61.57,6.23,109.55-17.23,149.93-61.74,22.52-24.82,44.87-49.99,71.76-70.41,51.92-39.41,122.23-42.64,169.41-7.21Z" fill="#fff" stroke-width="0"/><path d="M989.37,212.23c6.33-1.71,10.03-11.93,21.72-4.92-6.78,14.67-17.97,28.74-11.86,48.01-2.77.04-5.54.07-8.31.11-7.42-15.29-14.97-30.52-21.99-45.99-.55-1.21,2.18-5.23,4.16-6.03,8.53-3.47,9.98,7.05,16.29,8.83Z" stroke-width="0"/><path d="M937.68,160.86c17.35,3.27,15.79,35.37-2.5,35.4-9.81.02-13.78-9.19-13-17.82.82-9.12,6.36-15.88,15.5-17.59Z" stroke-width="0"/><path d="M1043.04,169.07c9.71.57,13.85,6.5,13.96,14.61.13,9.14-2.32,18.15-13.63,18.9-9.19.61-13.14-5.61-13.19-14.19-.06-9.41,2.42-17.35,12.86-19.32Z" stroke-width="0"/><path d="M849.14,384.17c-37.12,13.67-75.13,21.42-114.92,23.76-43.26,2.55-85.48.4-127.06-11.73-8.69-2.53-17.13.93-24.02,3.61-40.68,15.82-82.55,17.02-122.99,4.79-47.82-14.46-61.76-48.6-52.57-100.08,7.41-41.54,30.09-74.58,58.25-105.01,61.22-66.15,140.16-98,226.18-109.49,57.71-7.71,117.29-4.65,171.46,26.76,18.64-36.79,22.5-79.09,51.56-111.59,21.89,17.46,24.95,41.43,30.62,63.44,9.42,36.55,40.35,55.15,76.89,44.24,10.97-3.27,15.6-12.58,20.28-22.08,11.69-23.69,22.25-48.16,42.23-66.62,2.35-2.17,4.17-5.13,8.35-4.1,15.34,3.36,15.18,18.23,17.34,28.43,15.44,73.16,13.08,147.54,12.47,221.72-.1,12.78-2.45,25.55-3.88,38.32-1.46,13.01,6.58,20.21,16.18,26.17,23.7,14.69,22.34,40.78,3.53,53.81-51.54,35.73-108.07,59.56-172.95,55.08-3.39-.23-8.43,2.17-9.91-2.02-8.76-24.79-33.46-18.09-50.64-26.06-24.38-11.31-52.46-18.03-58.44-50.51" fill="none" stroke="#000" stroke-linecap="round" stroke-linejoin="round" stroke-width="8.07"/><path d="M476.06,181.5c-22.57-19.04-70.29-9.72-94.87,9.97-31.11,24.92-51.68,58.77-76.15,89.16-36.4,45.21-78.07,82.76-135.62,95.96-55.61,12.75-108.39,7.91-149.32-39.62-10.73-12.46-14.35-26.95-9.13-40.23,6.28-15.97,22.79-21.97,39.6-22.3,30.91-.61,61.92-1.58,92.74.15,46.18,2.59,83.11-14.68,115.08-46.6,29.26-29.22,54.92-62.2,88.66-86.77,52.97-38.56,136.58-41.84,181.46-.06" fill="none" stroke="#000" stroke-linecap="round" stroke-linejoin="round" stroke-width="8.07"/><path d="M588.99,296.45c-18.93,10.19-33.66,24.39-42.36,44.39,4.81,13.58,16.4,9.45,26.23,10.08,33.61,2.15,41.74,13.58,30.25,42.33" fill="none" stroke="#000" stroke-linecap="round" stroke-linejoin="round" stroke-width="8.07"/><path d="M1044.75,360.98c-38.29,11.51-72.8,28.88-96.8,62.52" fill="none" stroke="#000" stroke-linecap="round" stroke-linejoin="round" stroke-width="8.07"/><path d="M980.22,386.19c-14.98-20.47-37.53-25.3-60.5-29.24" fill="none" stroke="#000" stroke-linecap="round" stroke-linejoin="round" stroke-width="8.07"/></g></svg>