<?xml version="1.0" encoding="UTF-8"?><svg id="b" xmlns="http://www.w3.org/2000/svg" viewBox="0 0 1242.88 735.81"><g id="c"><path d="M830.53,386.31c-5.8,35.79-17.48,71.95-17.88,109.85-.37,35.52,19.45,59.55,48.31,77.44,9.94,6.16,20.49,11.64,29.42,19.05,13.63,11.31,23.38,25.83,17.85,44.45-5.18,17.45-20.04,24.74-36.81,28.33-30.8,6.59-60.91,2.73-90.64-6.22-20.59-6.2-39.98-15.34-60.69-26.15-.23,11.02,5.13,18.36,8.69,26.16,6.75,14.79,14.83,28.98,17.89,45.29,4.01,21.38-5.6,32.47-27.26,31.2-9.47-.55-17.6-4.65-25.56-9.06-49.29-27.29-83.03-68.33-105.15-119.54-2.81-6.51-5.44-13.1-8.4-20.24-59.28,4.67-118.26,10.39-176.37,3.27-48.63-5.96-88.91,3.9-126.81,34.06-19.78,15.74-43.96,25.36-69.17,30.64-6.95,1.46-14.17,2.67-21.22,2.43-25.83-.88-35.04-16.86-22.84-39.32,3.99-7.35,8.97-14.17,14.69-23.08-11.83-.5-19.64,5.69-28.17,8.76-13.56,4.89-27.23,9.27-41.66,9.63-10.01.25-19.64-2.37-25.46-11.66-6.43-10.26-.51-18.97,4.94-26.98,10.8-15.87,25.94-27.35,41.23-38.53,9.97-7.29,20.1-14.34,33-23.52-47.74-31.56-79.85-73.48-93.58-128.68-22.03-1.02-40.71,17.91-68.9,8.6,20.99-17.14,43.74-16.94,62.66-27.07,2.77-6.17,1.64-12.94-1.24-19.82-13.98-6.93-30.93,5.74-45.5-7.06,11.44-16.31,30.16-5.93,43.55-13.87,3.71-14.8,4.33-27.75-16.38-30.54-6.17-.83-13.04-2.89-13.65-12.42,9.2-9.34,19.25.4,30.36-.7,7.54-15.83,8.03-34.2,11.96-51.59,10.5-46.47,22.91-92.26,42.84-135.71,4.36-9.5,8.28-20.84,21.11-19.83,11.97.95,13.67,12.75,16.65,21.72,7.66,23.02,8.88,47.31,12.54,71.09,1.87,12.16,7.62,16.5,19.16,17.28,26.65,1.8,53.3,3.97,79.86,6.83,16.82,1.81,26.69-4.65,33.22-20.26,9.03-21.59,19.46-42.64,30.15-63.48,4.73-9.21,11.22-19.2,23.51-17.4,12.17,1.78,12.4,13.77,14.69,22.92,7,27.93,7.8,56.75,11.54,85.16.93,7.06.43,14.4,5.2,22.64,32.3-6.21,65.14-13.27,98.25-18.72,65.95-10.86,131.98-15.98,197.88,1.04,59.32,15.32,104.77,48.55,132.61,103.67,5.9,11.68,13.66,16.04,25.84,16.38,75.48,2.07,144.93-17.38,205.32-62.64,51.83-38.84,61.16-80.61,37.39-140.9-8.57-21.73-18.66-43.12-18.24-67.4.45-26.22,11.77-41.26,36.97-48.24,66.51-18.42,140.92,37.12,144.3,108.59,4.88,103.38-47.22,174.8-131.76,225.31-83.1,49.66-173.44,65.25-269.06,48.48-2.56-.45-5.1-1.06-7.67-1.44-.51-.08-1.12.54-3.54,1.81ZM82,358.82c14.23.92,26.12-11.09,43.36-7.41-6.71,21.25-29.84,14.96-40.75,27.94,19.48,77.95,71.93,123.03,147.1,145.93,17.09,5.2,31.66,4.24,45.33-8.15,5.81-5.27,11.99-12.87,21.92-7.14,2.69,10.82-6.49,13.41-12.23,17.72-30.74,23.13-61.42,46.32-88.91,73.35-10.33,10.15-28.4,22.15-20.31,35.55,8.29,13.73,27.54,3.12,41.32-1.19,33.41-10.44,61.43-31.08,90.16-50.11,15.29-10.12,31.29-15.58,49.73-13.4,59.14,6.99,118.46,5.42,177.71,2.34,31.45-1.63,62.79-5.41,96.41-8.42-4.37-7.12-7.01-11.47-9.7-15.78-11.05-17.68-22.3-35.22-33.05-53.08-3.08-5.13-9.42-12.03-.95-16.76,7.98-4.45,10.75,4.42,14.28,9.27,3.43,4.72,6.27,9.92,9,15.1,35.99,68.4,96.21,108.02,164.69,137.04,29.34,12.43,60.47,15.35,92,7.71,10.43-2.53,20.86-5.95,24.19-17.25,3.52-11.96-5.11-19.88-13.17-26.29-12.72-10.1-26.09-19.47-39.81-28.18-23.47-14.91-36.67-35.99-42.02-63.04-6.07-30.73,3.47-59.53,10.08-88.55,19.6-86.09-25.96-170.23-109.2-200.02-34.03-12.18-69.2-17.97-105.32-18.7-63.09-1.27-124.26,12.05-185.66,23.87-13.12,2.53-26.44,3.93-32.74,21.14-17.16-46.58-14.04-96.27-28.14-145.79-16.86,23.86-25.48,47.65-36.12,70.35-12.21,26.04-19.28,31.13-48.28,29.43-27.31-1.61-54.51-5.06-81.82-6.61-19.23-1.08-29.02-8.66-31.77-29.05-3.42-25.37-3.71-51.74-16.24-79.64-28.77,64.93-45.95,128.94-54.01,193.27,12.48,13.19,34.44,6.02,41.22,26.87-16.2,4.39-28.25-7.3-41.51-4.68-2.53,6.7-1.98,12.16,2.6,18.34,6.44-.34,13.53-1.03,20.61-1.01,7.18.01,15.66-4.42,21.5,6.23-11.84,12.89-29.67,5.17-42.99,12.4-1.92,5.61-1.3,11.12,1.52,16.43ZM826.03,340.07c-.46,16.14,2.06,28.91,19.87,31.43,120.32,17.04,228.1-9.93,317.4-94.82,44.49-42.29,66.18-95.74,63.98-158.1-1.96-55.49-49.22-102.46-104.74-103.31-34.99-.53-52.46,20.59-43.43,54.21,4.71,17.54,11.77,34.47,18.05,51.57,21.34,58.04,8.72,107.41-38.4,147.45-29.78,25.31-64.74,40.8-101.7,52.43-42.5,13.38-86.29,18.15-131.04,19.14ZM598.24,586.87c22.23,59.91,58.11,105.14,115.66,131.52,4.75,2.18,10.53,3.48,14.94.03,5.66-4.42,3.52-10.75,1.29-16.18-8.11-19.8-17.38-39.17-24.62-59.28-17.2-47.83-53.58-68.2-107.28-56.1ZM232.52,544.12c-18.71-7.61-32.93-13.38-47.14-19.19-5.26-2.15-9.85-1.49-14.62,1.9-19.1,13.58-39.48,25.47-56.61,41.66-7.31,6.91-16.05,13.54-14.89,29.18,49.86-2.39,87.77-31.15,133.27-53.55Z" stroke-width="0"/><path d="M82,358.82c-2.81-5.31-3.44-10.82-1.52-16.43,13.32-7.24,31.15.49,42.99-12.4-5.84-10.66-14.32-6.22-21.5-6.23-7.08-.01-14.17.67-20.61,1.01-4.59-6.18-5.13-11.65-2.6-18.34,13.26-2.62,25.32,9.07,41.51,4.68-6.78-20.84-28.74-13.67-41.22-26.87,8.06-64.33,25.24-128.34,54.01-193.27,12.53,27.91,12.82,54.27,16.24,79.64,2.75,20.39,12.54,27.97,31.77,29.05,27.31,1.54,54.51,5,81.82,6.61,29,1.71,36.07-3.38,48.28-29.43,10.64-22.69,19.27-46.49,36.12-70.35,14.1,49.52,10.97,99.21,28.14,145.79,6.3-17.21,19.62-18.61,32.74-21.14,61.4-11.82,122.57-25.14,185.66-23.87,36.12.73,71.28,6.52,105.32,18.7,83.24,29.79,128.8,113.93,109.2,200.02-6.61,29.02-16.15,57.82-10.08,88.55,5.34,27.05,18.54,48.13,42.02,63.04,13.71,8.71,27.09,18.08,39.81,28.18,8.07,6.41,16.7,14.33,13.17,26.29-3.33,11.3-13.75,14.73-24.19,17.25-31.53,7.64-62.66,4.72-92-7.71-68.48-29.02-128.7-68.64-164.69-137.04-2.73-5.18-5.57-10.38-9-15.1-3.52-4.85-6.3-13.72-14.28-9.27-8.48,4.72-2.14,11.63.95,16.76,10.74,17.86,22,35.41,33.05,53.08,2.69,4.31,5.33,8.66,9.7,15.78-33.62,3.01-64.96,6.79-96.41,8.42-59.25,3.07-118.56,4.65-177.71-2.34-18.43-2.18-34.44,3.28-49.73,13.4-28.74,19.03-56.76,39.67-90.16,50.11-13.78,4.31-33.04,14.92-41.32,1.19-8.09-13.4,9.98-25.4,20.31-35.55,27.49-27.03,58.17-50.22,88.91-73.35,5.73-4.31,14.92-6.9,12.23-17.72-9.92-5.73-16.11,1.87-21.92,7.14-13.67,12.39-28.24,13.35-45.33,8.15-75.17-22.89-127.62-67.98-147.1-145.93,10.92-12.98,34.04-6.69,40.75-27.94-17.24-3.68-29.13,8.33-43.36,7.41ZM307.91,333.06c23.42-9.79,52.16-21.68,80.74-33.94,3.57-1.53,5.92-5.34,3.66-9.68-1.73-3.31-5.27-4.27-8.39-3.04-28.9,11.45-57.77,23-86.48,34.93-3.47,1.44-5.69,5.52-3.23,9.81,1.74,3.03,4.5,4.52,13.69,1.91ZM410.92,393.63c-1.92-1.69-3.9-4.81-6.55-5.58-27.34-7.9-54.79-15.44-82.22-23.02-5.14-1.42-9.48.57-10.9,5.43-1.67,5.7,2.9,7.96,7.52,9.21,26.84,7.24,53.69,14.44,80.57,21.54,5.68,1.5,10.3.5,11.58-7.6ZM321.18,355.76c33.33-1.77,62.58-5.99,93.14-14.95-16.22-14.77-80.75-5.14-93.14,14.95ZM219.04,315.89c-5.69-3.1-7.7-11.97-19.06-7.62,8.12,16.77,14.11,34.37,16.39,52.94.14,1.13,4.41,2.71,6.52,2.41,3.51-.51,5.81-3.86,5.16-7.16-3.28-16.6,2.56-30.11,12.88-42.57.97-1.17-.82-4.63-1.25-6.66-9.5-2.93-13.39,4.93-20.63,8.67ZM160.89,274.66c.11,9.01,2.21,17.78,12.99,17.55,10.3-.22,13.3-9.73,13.9-17.95.61-8.33-1.55-18.5-12.04-18.62-10.85-.13-14.04,9.33-14.85,19.02ZM291.54,282.48c.41-9.72-.95-16.92-10.42-17.21-10.96-.33-13.91,8.08-14.68,16.82-.75,8.49,2.49,16.76,11.93,16.63,10.43-.14,12.43-9.46,13.17-16.25Z" fill="#fff" stroke-width="0"/><path d="M826.03,340.07c44.75-.98,88.54-5.75,131.04-19.14,36.95-11.64,71.92-27.12,101.7-52.43,47.12-40.04,59.74-89.42,38.4-147.45-6.29-17.1-13.35-34.02-18.05-51.57-9.02-33.62,8.44-54.74,43.43-54.21,55.52.84,102.78,47.82,104.74,103.31,2.2,62.36-19.5,115.81-63.98,158.1-89.3,84.89-197.08,111.86-317.4,94.82-17.81-2.52-20.33-15.29-19.87-31.43Z" fill="#fff" stroke-width="0"/><path d="M598.24,586.87c53.7-12.1,90.08,8.27,107.28,56.1,7.23,20.11,16.51,39.48,24.62,59.28,2.22,5.43,4.37,11.75-1.29,16.18-4.42,3.45-10.19,2.14-14.94-.03-57.56-26.38-93.43-71.6-115.66-131.52Z" fill="#fff" stroke-width="0"/><path d="M232.52,544.12c-45.5,22.4-83.41,51.16-133.27,53.55-1.15-15.64,7.58-22.28,14.89-29.18,17.13-16.18,37.51-28.07,56.61-41.66,4.77-3.39,9.36-4.05,14.62-1.9,14.21,5.81,28.44,11.58,47.14,19.19Z" fill="#fff" stroke-width="0"/><path d="M307.91,333.06c-9.19,2.6-11.95,1.12-13.69-1.91-2.46-4.29-.24-8.36,3.23-9.81,28.71-11.93,57.58-23.48,86.48-34.93,3.12-1.24,6.66-.27,8.39,3.04,2.26,4.34-.09,8.14-3.66,9.68-28.58,12.25-57.33,24.14-80.74,33.94Z" stroke-width="0"/><path d="M410.92,393.63c-1.29,8.1-5.91,9.09-11.58,7.6-26.88-7.1-53.73-14.3-80.57-21.54-4.62-1.25-9.18-3.51-7.52-9.21,1.42-4.86,5.76-6.85,10.9-5.43,27.44,7.57,54.88,15.12,82.22,23.02,2.66.77,4.63,3.88,6.55,5.58Z" stroke-width="0"/><path d="M321.18,355.76c12.39-20.1,76.93-29.72,93.14-14.95-30.56,8.97-59.81,13.18-93.14,14.95Z" stroke-width="0"/><path d="M219.04,315.89c7.24-3.74,11.13-11.6,20.63-8.67.43,2.03,2.23,5.49,1.25,6.66-10.32,12.46-16.16,25.97-12.88,42.57.65,3.29-1.65,6.65-5.16,7.16-2.11.31-6.38-1.28-6.52-2.41-2.28-18.57-8.27-36.17-16.39-52.94,11.36-4.35,13.37,4.52,19.06,7.62Z" stroke-width="0"/><path d="M160.91,274.65c.79-9.67,3.97-19.13,14.83-19,10.49.12,12.65,10.3,12.04,18.62-.6,8.22-3.6,17.73-13.9,17.95-10.77.23-12.87-8.54-12.97-17.57Z" stroke-width="0"/><path d="M291.54,282.48c-.74,6.79-2.74,16.11-13.17,16.25-9.44.13-12.68-8.14-11.93-16.63.77-8.74,3.72-17.15,14.68-16.82,9.47.28,10.84,7.49,10.42,17.21Z" stroke-width="0"/><path d="M825.39,375.55c37.37,9.17,75.73,11.01,113.42,7.29,120.52-11.88,223.22-57.16,278.8-172.13,23.71-49.04,31.19-104.05-3.25-153.81-22.47-32.47-54.88-50.14-95.5-49.08-40.35,1.05-55.52,25.48-47.12,64.52,5.01,23.29,16.33,44.13,23.69,66.47,11.82,35.88,5.19,69.62-18.07,97.48-49.91,59.77-118.83,82.41-193.26,92.33-22.09,2.94-44.24,4.36-66.52,3.88" fill="none" stroke="#000" stroke-linecap="round" stroke-linejoin="round" stroke-width="7.83"/><path d="M375.41,244.47c-6.94-48.4-8.59-97.66-22.09-144.68-10.22-.62-15.36,3.73-19.12,11.58-10.08,21.04-21.2,41.59-31.06,62.72-10.42,22.34-25.4,32.03-48.87,24.84-20.21-6.2-40.67-3.04-60.97-6.3-32.95-5.28-36.53-6.93-39.29-42.05-1.83-23.18-2.53-47.37-18.66-67.98-14.67,8.1-19.47,23.05-23.29,34.95-16.84,52.41-34.81,104.75-40.02,160.17-.38,4-2.49,7.84-3.79,11.75" fill="none" stroke="#000" stroke-linecap="round" stroke-linejoin="round" stroke-width="7.83"/><path d="M643.44,571.19c-26.53,4.77-53.5,5.51-80.13,8.52-53.57,6.06-107.04,1.43-160.51,3.04-13.71.41-27.26.02-41.21-3.16-28.38-6.48-48.88,12.83-70.2,26.97-26.32,17.45-53.84,32.16-84.29,40.72-7.42,2.09-15.67,2.55-23.4,1.95-16.24-1.26-21.45-10.64-13.57-25.14,13.05-24.01,28.87-44.55,51.84-61.84,23.05-17.35,49.25-29.39,71.27-47.79" fill="none" stroke="#000" stroke-linecap="round" stroke-linejoin="round" stroke-width="7.83"/><path d="M377.37,230.77c76.53-18.42,153.55-35.33,232.79-30.9,90.54,5.07,165.78,38.56,202.78,128.04,10.85,26.23,14.07,55.44,5.09,84.95-6.92,22.76-11.86,46.64-13.68,70.33-3.42,44.45,15.47,77.44,56.05,98.18,10.85,5.55,20.95,13.45,29.87,22.78,8.96,9.38,14.55,20.05,10.84,31.41-4.03,12.35-15.86,18.38-28.73,21.84-32.1,8.64-64.13,4.38-93.65-6.79-35.18-13.31-67.74-31.71-99.22-54.42-40-28.85-59.66-70.24-86.94-107.17" fill="none" stroke="#000" stroke-linecap="round" stroke-linejoin="round" stroke-width="7.83"/><path d="M590.62,584.88c20.33,63.01,56.05,112.63,119.21,139.21,9.39,3.95,16.99,5.68,25.58-.27,11.27-7.79,4.27-17.52,1.57-25.34-6-17.36-13.75-34.14-21.26-50.94-3.13-7.01-5.57-13.84-3.8-21.57" fill="none" stroke="#000" stroke-linecap="round" stroke-linejoin="round" stroke-width="7.83"/><path d="M119.13,350.11c-.97,12.5-12.86,9.79-19.76,13.31-8.5,4.34-19.18,3.78-26.19,9.15,10.82,36.74,24.95,70.93,51.62,99.02,28.47,29.97,62.49,49.69,102.02,60.12,5.65,1.49,7.73,5.56,11.65,8.17" fill="none" stroke="#000" stroke-linecap="round" stroke-linejoin="round" stroke-width="7.83"/><path d="M189.56,584.88c-9.43-4.87-17.11.04-25.52,3.72-13.79,6.05-27.57,11.69-42.81,14.64-11.51,2.23-22.34,6.49-29.09-4.91-6.76-11.43,2.78-21.16,9.66-28.86,12.73-14.26,28.84-24.83,44.67-35.53,8.09-5.47,15.7-11.67,23.52-17.54" fill="none" stroke="#000" stroke-linecap="round" stroke-linejoin="round" stroke-width="7.83"/><path d="M387.15,291.42c-29.35,12.39-58.69,24.78-88.04,37.17" fill="none" stroke="#000" stroke-linecap="round" stroke-linejoin="round" stroke-width="7.83"/><path d="M322.59,371.63c25.7,11.36,54.06,13.65,80.21,23.48" fill="none" stroke="#000" stroke-linecap="round" stroke-linejoin="round" stroke-width="7.83"/><path d="M410.63,336.42c-27.39,4.56-54.78,9.13-82.17,13.69" fill="none" stroke="#000" stroke-linecap="round" stroke-linejoin="round" stroke-width="7.83"/><path d="M70.22,373.59c-18.91,5.87-37.82,11.74-56.74,17.61" fill="none" stroke="#000" stroke-linecap="round" stroke-linejoin="round" stroke-width="7.83"/><path d="M115.21,330.55c-30.65,2.61-61.3,5.22-91.95,7.83" fill="none" stroke="#000" stroke-linecap="round" stroke-linejoin="round" stroke-width="7.83"/><path d="M74.13,295.34c13.04,3.91,26.09,7.83,39.13,11.74" fill="none" stroke="#000" stroke-linecap="round" stroke-linejoin="round" stroke-width="7.83"/><path d="M35,283.6c10.84,6.51,24.11,4.24,36.51,8.97-4.1,14.02-5.13,27.15.66,39.94" fill="none" stroke="#000" stroke-linecap="round" stroke-linejoin="round" stroke-width="7.83"/><path d="M205.21,307.07c11.88,14.87,17.23,32.01,17.61,50.87" fill="none" stroke="#000" stroke-linecap="round" stroke-linejoin="round" stroke-width="7.83"/></g></svg>