<?xml version="1.0" encoding="UTF-8"?><svg id="b" xmlns="http://www.w3.org/2000/svg" viewBox="0 0 1143.04 1139.79"><g id="c"><path d="M342.62,544.13c17.94-18.42,37.68-39.53,58.45-59.58,8.37-8.08,18.15-15.8,28.73-20.26,24.44-10.31,37.95.51,33.45,26.77-8.41,49.04-28.18,94.57-45.6,140.8-6.4,16.99-11.99,34.28-20.45,58.63,42.13-20.69,78.18-20.56,117.41-4.28,18.08,7.5,42.03-11.39,63.01-19.43,2.21-13.87-7.65-22.3-13.09-32.13-38.86-70.12-58.98-144.94-58.32-225.27.15-18.48,2.28-36.72,8.54-53.91,5.29-14.52,7.93-33.92,28.3-34.95,17.62-.9,25.29,14.54,32.42,27.7,10.75,19.83,19.99,40.48,30.69,60.33,4.89,9.08,7.12,20.32,19.6,27.29,5.28-15.34,10.05-30.02,15.38-44.49,10.25-27.85,26.02-52.12,50.26-69.59,38.7-27.87,68.68-16.54,76.3,30.03,5.2,31.74,6.18,64.17,9.32,96.26,1.36,13.87,2.35,27.91,5.3,41.48,12.18,56.13,17.23,59.91,72.81,50.57,64.95-10.91,126.89-10.14,181.31,45.55,9.78-37.47,9.18-70.17,4.55-102.3-28.63-198.51-241.67-330.23-432.7-267.5-72.42,23.78-144.14,49.71-216.21,74.54-9.13,3.15-18.33,6.7-27.79,8.2-37.29,5.9-77.33,15.39-103.88-21.4-26.72-37.04-21.25-78.23.33-115.84C308.05,78.89,381.76,29.54,473.14,12.14c192.22-36.61,366.97,9.9,515.23,135.21,156.03,131.88,203.81,375.64,97.98,545.08-4.94,7.91-8.25,17.78-9.27,27.07-23.43,212.64-177,357.73-383.73,403.03-161.41,35.36-317.13,16.02-465.17-54.65C19.79,968.4-63.82,685.86,53.34,486.96c31.22-53.01,65.85-103.43,111.15-145.67,10.16-9.47,20.69-21.81,36.24-14.39,17.91,8.54,10.91,25.58,9.86,40.07-.23,3.21-.83,6.41-1.47,9.56q-14.88,73.47,47.97,115.42c25.93,17.3,51.89,34.57,77.88,51.78.73.49,2.01.15,7.65.4ZM50.7,827.51c30.12-15.95,58.46-31.41,89.96-39.12,53.19-13.01,105.61-13.11,150.96,21.59,40.93,31.32,34.28,72.32-12.56,92.16-40.49,17.15-83.43,19.66-126.59,19.79-9.88.03-25.24,5.11-26.98-9.33-2.06-17.11,14.51-15.33,25.62-16.17,34.32-2.57,68.71-4.65,102.25-12.81,16.68-4.06,36.93-8.77,37.44-29.45.49-19.72-18.57-27.43-34.46-34.19-60.27-25.63-146.92-8.44-194.83,38.18,21.07,54.49,75.7,117.41,139.36,160.5,191.97,129.95,490.59,128.05,680.37-5.2,69.8-49.01,123.82-112.87,144.31-196.07,17.17-69.71,40.67-135.58,67.57-202.12,59.26-146.6,8.6-331.21-114.9-441.76C844.22,53.58,684.95,12.01,508.36,33.6c-69.74,8.53-133.4,33.53-184.38,84.15-26.32,26.14-47.08,55.89-52.94,93.86-6.72,43.53,12.22,66.03,55.66,66,21.9-.01,42.23-7.04,62.79-13.34,74.98-22.96,146.34-56.45,222.52-75.96,213.57-54.71,400.46,58.32,447.28,271.37,10.22,46.49,14.64,93.56,2.63,140.65-2.95,11.55-6.32,24.7-19.39,27.27-12.54,2.46-17.62-9.99-23.57-18.65-16.72-24.32-40.22-37.3-68.42-44.74-32.59-8.61-64.1-2.46-95.82,3.1-62.21,10.91-83.92-3.84-96.35-66.49-8.82-44.44-12.26-89.43-13.58-134.64-.35-12.02-.99-25.07-13.6-30.56-14.67-6.38-24.33,4.79-33.04,14.05-32.44,34.47-46.38,76.77-49.93,123-3.64,47.47.7,94.62,8.09,141.44,3.66,23.2-3.74,38.41-24,50.85-31.02,19.05-64.76,32.56-97.7,49.11,4.75,14.83,9.74,27.76,13,41.11,7.51,30.82,9.59,62.02-3.31,91.82-14.19,32.76-37.88,36.79-62.67,11.55-21.48-21.88-32.31-50.52-47.16-76.6-4.59-8.06-2.67-14.72,5.22-18.98,7.43-4.01,12.78,1.34,16.03,6.6,12.41,20.1,23.84,40.8,36.13,60.98,4.41,7.24,9.75,15.47,20.13,12.45,7.93-2.31,10.43-10.31,12.74-17.48,12-37.28-8.63-103.51-37.25-119.94-28.77-16.52-61.01-5.99-98.71,32.38-6.78,6.9-13.21,14.15-19.76,21.27-5.44,5.93-11.4,9.87-25.27,2.76,30.54-87.09,66.68-173.52,92.7-267.28-33.21,12.92-49.08,39.22-68.4,61.07-16.32,18.46-31.75,22.4-52.85,7.59-40.46-28.41-81.76-55.65-122.96-82.99-20.55-13.63-27.53-31.82-21.78-55.59,4.74-19.62,8.92-39.38,13.82-61.21C51.31,460.81-7.87,665.71,50.7,827.51ZM549.11,354.52c-3.97,3.46-6.59,4.59-6.98,6.25-23.68,100.07,2.74,190.1,55.77,274.55,4.4,7,10.84,13.77,21.35,8.04,8.69-4.74,11.62-11.62,10.52-21.21-2.68-23.39-8.61-47.11-6.78-70.19,6.17-78.03-42.3-133.6-73.88-197.43Z" stroke-width="0"/><path d="M50.7,827.51c-58.57-161.8.62-366.71,133.55-463.91-4.9,21.82-9.08,41.58-13.82,61.21-5.74,23.77,1.24,41.96,21.78,55.59,41.21,27.34,82.5,54.58,122.96,82.99,21.1,14.82,36.53,10.87,52.85-7.59,19.32-21.85,35.19-48.16,68.4-61.07-26.02,93.76-62.16,180.18-92.7,267.28,13.86,7.11,19.82,3.17,25.27-2.76,6.55-7.13,12.98-14.37,19.76-21.27,37.7-38.37,69.95-48.9,98.71-32.38,28.62,16.43,49.26,82.66,37.25,119.94-2.31,7.17-4.81,15.17-12.74,17.48-10.38,3.02-15.71-5.21-20.13-12.45-12.29-20.18-23.73-40.88-36.13-60.98-3.25-5.26-8.6-10.61-16.03-6.6-7.89,4.26-9.81,10.91-5.22,18.98,14.85,26.08,25.67,54.72,47.16,76.6,24.79,25.25,48.48,21.22,62.67-11.55,12.91-29.8,10.82-61,3.31-91.82-3.25-13.36-8.25-26.29-13-41.11,32.94-16.55,66.68-30.06,97.7-49.11,20.25-12.44,27.66-27.65,24-50.85-7.39-46.82-11.73-93.97-8.09-141.44,3.55-46.24,17.49-88.53,49.93-123,8.71-9.26,18.37-20.43,33.04-14.05,12.62,5.49,13.25,18.54,13.6,30.56,1.32,45.21,4.76,90.2,13.58,134.64,12.43,62.65,34.14,77.4,96.35,66.49,31.72-5.56,63.23-11.71,95.82-3.1,28.2,7.45,51.7,20.43,68.42,44.74,5.96,8.67,11.03,21.11,23.57,18.65,13.07-2.57,16.44-15.71,19.39-27.27,12.01-47.1,7.59-94.16-2.63-140.65-46.82-213.06-233.71-326.09-447.28-271.37-76.18,19.52-147.54,53-222.52,75.96-20.56,6.3-40.89,13.33-62.79,13.34-43.44.02-62.38-22.47-55.66-66,5.86-37.98,26.61-67.73,52.94-93.86,50.98-50.62,114.64-75.62,184.38-84.15,176.59-21.59,335.86,19.98,469.84,139.91,123.5,110.55,174.16,295.16,114.9,441.76-26.9,66.54-50.4,132.41-67.57,202.12-20.49,83.21-74.51,147.06-144.31,196.07-189.77,133.25-488.39,135.15-680.37,5.2-63.66-43.09-118.29-106.01-139.36-160.5,47.91-46.62,134.56-63.81,194.83-38.18,15.89,6.76,34.95,14.47,34.46,34.19-.52,20.68-20.76,25.39-37.44,29.45-33.54,8.15-67.93,10.24-102.25,12.81-11.12.83-27.68-.95-25.62,16.17,1.74,14.44,17.1,9.36,26.98,9.33,43.16-.12,86.1-2.64,126.59-19.79,46.85-19.84,53.5-60.84,12.56-92.16-45.36-34.7-97.78-34.61-150.96-21.59-31.5,7.71-59.84,23.17-89.96,39.12ZM172.7,617.93c-3.31,34.56-5.85,61.05-8.39,87.54,4,1.83,8.01,3.66,12.01,5.49,4.74-30.83,36.87-39.63,52.91-73.62-26.44,9.11-39.7-.13-56.53-19.41ZM180.13,566.64c-.82-12.88-8.56-19.93-20.72-18.83-15.46,1.4-20.63,13.25-21.09,27.23-.37,11.14,5.42,19.79,16.41,19.48,16.5-.47,23.31-12.56,25.4-27.88ZM294.27,622.29c-1.98-9.05-6.16-18.24-18.01-16.98-15.25,1.62-21.4,12.66-20.92,27.06.31,9.35,5.16,17.6,15.32,16.71,14.51-1.28,22.17-11,23.61-26.79Z" fill="#fff" stroke-width="0"/><path d="M549.11,354.52c31.58,63.83,80.05,119.4,73.88,197.43-1.82,23.08,4.1,46.8,6.78,70.19,1.1,9.59-1.83,16.47-10.52,21.21-10.51,5.73-16.95-1.04-21.35-8.04-53.03-84.45-79.45-174.48-55.77-274.55.39-1.66,3.01-2.79,6.98-6.25Z" fill="#fff" stroke-width="0"/><path d="M172.7,617.93c16.83,19.28,30.09,28.52,56.53,19.41-16.04,33.99-48.17,42.8-52.91,73.62-4-1.83-8.01-3.66-12.01-5.49,2.54-26.49,5.08-52.97,8.39-87.54Z" stroke-width="0"/><path d="M180.13,566.64c-2.09,15.32-8.9,27.41-25.4,27.88-10.98.31-16.77-8.33-16.41-19.48.46-13.98,5.63-25.84,21.09-27.23,12.15-1.1,19.9,5.95,20.72,18.83Z" stroke-width="0"/><path d="M294.27,622.29c-1.44,15.79-9.1,25.52-23.61,26.79-10.16.89-15-7.36-15.32-16.71-.48-14.4,5.66-25.44,20.92-27.06,11.85-1.26,16.03,7.93,18.01,16.98Z" stroke-width="0"/><path d="M387.09,707.9c-5.23-36.93,16.21-67.03,26.11-100.01,9.48-31.6,21.11-62.55,32.08-93.69,4.68-13.29,5.3-25.46-7.37-37.78-39.21,19.82-66.19,53.09-96.79,87.92-51.46-34.71-102.2-66.94-150.42-102.58-15.89-11.74-6.93-33.41-3.8-50.91,3.91-21.92,17.64-43.37,2.73-68.27-25.44,6.25-36.66,28.81-50.7,46.03-53.18,65.23-102.76,132.34-117.12,219.12-12,72.51-8.24,142.92,13.11,213.25,34.1,112.32,108.37,190.9,210.6,241.11,101.76,49.98,212.36,72.2,325.56,64.64,165.08-11.02,313.52-61.96,416.36-202.65,40.61-55.56,64.19-118.78,70.38-187.2,1.77-19.6,8.22-35.71,17.18-51.48,77.67-136.85,70.68-275.53-1.24-409.58-74.51-138.89-200.89-211.36-350.91-245.77-96.08-22.04-192.15-24.42-287.32,6.25-66.64,21.48-118.7,62.61-157.82,119.75-14.81,21.64-26.38,47.18-22.4,73.91,7.95,53.44,45.62,71.9,109.14,54.8,59.6-16.04,116.5-40.17,174.73-60.21,43.94-15.13,87.84-33.45,135.28-36.4,136.39-8.49,245.09,39.51,323.29,154.62,46.33,68.19,60.22,142.98,58.04,223.08-.43,15.89-11.27,25.75-16.12,41.99-36.52-43.74-81.27-64.82-135.95-61.08-20.57,1.41-41.24,4.82-61.29,9.69-35.67,8.66-51.45-.09-64.85-35.73-15.34-40.8-12.16-84.11-18.91-126.04-1.69-10.49,1.17-21.72-.58-32.19-2.84-17-5.86-35.86-25.62-41.63-15.65-4.56-27.61,6.75-38.47,15.93-26.02,21.99-39.72,51.41-48.89,83.68-3.51,12.37-10.46,23.76-15.84,35.6" fill="none" stroke="#000" stroke-linecap="round" stroke-linejoin="round" stroke-width="12.92"/><path d="M516.24,707.9c32.29-15.07,64.48-30.35,96.89-45.13,23.98-10.93,37.75-45.52,28.39-77.37-1.51-5.15-7.2-9.78-5.76-16.32,20.14-91.15-45.67-152.77-77.75-225.94-1.39-3.17-5.74-5.04-10.01-8.59-23.53,17.1-28.1,41.54-28.29,66.62-.69,90.28,17.41,175.23,73.84,248.75,2.48,3.23,2.33,8.47,3.41,12.78" fill="none" stroke="#000" stroke-linecap="round" stroke-linejoin="round" stroke-width="12.92"/><path d="M135.25,911.31c41.89-6.06,85.12-1.57,125.93-16.13,20.05-7.15,44.31-14.5,43.92-38.74-.37-22.91-17.73-40.36-40.73-48.38-67.07-23.38-130.52-15.04-190.5,22.49-7.35,4.6-15.04,8.65-22.58,12.96" fill="none" stroke="#000" stroke-linecap="round" stroke-linejoin="round" stroke-width="12.92"/><path d="M354.8,756.33c18.51-23.62,31.63-52.09,64.5-61.59,69.22-20,105.55-.22,118.54,77.9,3.38,20.32,6.58,43.16-5.06,64.62-15.31,28.21-24.3,29.91-45.76,6.39-19.33-21.18-27.56-49.04-45.04-71.18" fill="none" stroke="#000" stroke-linecap="round" stroke-linejoin="round" stroke-width="12.92"/><path d="M183.68,643.33c10.09,21.68-6.3,37.14-12.92,54.89" fill="none" stroke="#000" stroke-linecap="round" stroke-linejoin="round" stroke-width="12.92"/></g></svg>