<?xml version="1.0" encoding="UTF-8"?><svg id="b" xmlns="http://www.w3.org/2000/svg" viewBox="0 0 986.41 613.46"><g id="c"><path d="M577.79,190.61c6.66-18.54,13.53-34.91,18.23-51.88,2.64-9.53,2.7-20.11,2.2-30.13-1.3-25.87-5.35-51.71-4.97-77.52.45-30.6,15.29-39.24,41.71-23.11,22.52,13.75,42.76,31.64,62.53,49.34,10.64,9.53,19.55,12.62,34.72,12.06,36.7-1.34,74.07-.32,110.22,5.56,20.32,3.3,33.22,1.25,49.1-11.88,17.9-14.8,39.36-26.38,60.93-35.36,22.99-9.57,36.37-.69,33.58,23.72-4,34.92-13.73,69.17-20.55,103.8-1.91,9.71-2.92,19.73-3.09,29.64-.56,33.06-.95,66.13-.54,99.19.14,11.21.11,23.76,4.89,33.34,18.62,37.31,16.33,73.46-4.22,108.21-32.55,55.06-83.25,89.55-139.13,117.08-76.75,37.8-158.82,56.58-243.49,64.21-132.13,11.91-263.74,9.82-392.76-24.86-31.8-8.55-63.12-22.06-91.85-38.26C11.38,496.44-19.41,412.65,12.11,321.25c42.54-123.39,135.84-184.23,259.33-204.63,96.01-15.86,185.24,7.75,269.66,53.14,12.32,6.62,24.34,13.82,36.69,20.86ZM970.58,40.88c-27.98,3.1-52.44,17.87-86.27,47.65-5.64,4.97-16.5,6.89-24.41,5.9-26.34-3.3-52.34-9.22-78.68-12.57-5.63-.72-15.06,3.49-17.72,8.24-32.88,58.86-85.45,83.42-149.82,89.17-5.93.53-15.64,5.84-16.11,9.82-.76,6.45,2.85,15.68,7.84,20.12,15.47,13.74,32.9,25.25,48.58,38.78,5.21,4.49,7.42,12.46,11,18.84-6.86-1.94-14.83-2.26-20.41-6.07-36.02-24.6-69.7-53.2-107.53-74.47-108.46-60.99-222.72-79.51-341.71-33-66.67,26.06-120.63,68.14-150.15,130.91,11.94,18.97,23.18,34.36,31.78,51.11,10.81,21.05,19.9,43.02,28.93,64.93,15.15,36.73,39.12,65.97,71.98,88.15,20.26,13.67,41.83,25.95,59.92,42.1,13.18,11.76,21.33,29.05,32.37,43.38,3.86,5.01,9.26,11.62,14.61,12.3,129.46,16.4,258.63,15.42,387.37-7.77,13.39-2.41,19.86-8.43,23.85-21.63,8.06-26.67,20.46-52.75,46.54-65.27,50.53-24.25,103.31-40.3,160.65-27.42,3.57.8,8.56.11,11.51-1.9,47.02-32.13,61.36-96.6,33.76-145.98-3.77-6.74-3.27-16.33-3.28-24.61-.06-35.98.17-71.96.87-107.92.21-10.5.49-21.62,3.93-31.32,12.64-35.65,24.25-71.26,20.59-111.46ZM626.02,119.46c19.45,6.86,60.76-6.25,66.09-17.35,1.06-2.21,1.15-6.1-.14-7.9-1.29-1.8-5.54-3.42-7.35-2.6-18.24,8.3-36.24,17.12-58.6,27.85Z" stroke-width="0"/><path d="M970.58,40.88c3.67,40.21-7.95,75.81-20.59,111.46-3.44,9.7-3.72,20.82-3.93,31.32-.71,35.97-.93,71.95-.87,107.92.01,8.27-.48,17.87,3.28,24.61,27.61,49.38,13.27,113.85-33.76,145.98-2.95,2.02-7.94,2.71-11.51,1.9-57.34-12.88-110.12,3.17-160.65,27.42-26.08,12.52-38.49,38.59-46.54,65.27-3.99,13.2-10.46,19.22-23.85,21.63-128.74,23.19-257.91,24.17-387.37,7.77-5.35-.68-10.75-7.28-14.61-12.3-11.04-14.33-19.19-31.62-32.37-43.38-18.09-16.14-39.66-28.42-59.92-42.1-32.86-22.19-56.83-51.42-71.98-88.15-9.03-21.91-18.13-43.88-28.93-64.93-8.6-16.75-19.84-32.15-31.78-51.11,29.52-62.78,83.48-104.85,150.15-130.91,118.98-46.51,233.25-27.99,341.71,33,37.83,21.27,71.51,49.87,107.53,74.47,5.58,3.81,13.55,4.14,20.41,6.07-3.58-6.38-5.79-14.35-11-18.84-15.68-13.53-33.12-25.03-48.58-38.78-4.99-4.43-8.61-13.67-7.84-20.12.47-3.98,10.18-9.29,16.11-9.82,64.36-5.75,116.94-30.31,149.82-89.17,2.65-4.75,12.09-8.96,17.72-8.24,26.33,3.35,52.34,9.26,78.68,12.57,7.91.99,18.76-.93,24.41-5.9,33.83-29.78,58.29-44.55,86.27-47.65ZM722.53,229.14c1.2-4.59,2.08-6.1,1.81-7.36-.43-2.03-1.08-4.81-2.57-5.69-27.73-16.42-57.98-19.7-89.3-15.98-2.37.28-4.26,4.67-6.37,7.15,4,2.09,7.8,5.37,12.02,6.08,20.88,3.46,41.92,5.97,62.8,9.42,7.31,1.21,14.33,4.17,21.61,6.38ZM931.52,155.07c3.73-14.17-28.61-52.08-35.8-50.76-2.69.49-6.85,9.19-6.07,9.99,13.56,13.97,27.78,27.3,41.86,40.77ZM927.62,278.38c-5.51-5.98-7.86-10.2-11.44-12.1-9.68-5.14-19.88-9.29-29.87-13.83,5.86,7.54,11.48,15.27,17.67,22.52,2.83,3.31,6.44,7.1,10.32,8,3.26.75,7.41-2.37,13.33-4.58Z" fill="#fff" stroke-width="0"/><path d="M626.02,119.46c22.36-10.73,40.36-19.55,58.6-27.85,1.81-.82,6.06.8,7.35,2.6,1.29,1.81,1.21,5.69.14,7.9-5.33,11.09-46.64,24.21-66.09,17.35Z" fill="#fff" stroke-width="0"/><path d="M722.53,229.14c-7.28-2.2-14.3-5.17-21.61-6.38-20.88-3.45-41.92-5.96-62.8-9.42-4.23-.7-8.03-3.98-12.02-6.08,2.11-2.48,4-6.87,6.37-7.15,31.32-3.73,61.56-.45,89.3,15.98,1.49.88,2.14,3.66,2.57,5.69.27,1.26-.61,2.76-1.81,7.36Z" stroke-width="0"/><path d="M931.52,155.07c-14.08-13.47-28.31-26.8-41.86-40.77-.78-.81,3.38-9.5,6.07-9.99,7.18-1.32,39.52,36.59,35.8,50.76Z" stroke-width="0"/><path d="M927.62,278.38c-5.91,2.21-10.07,5.34-13.33,4.58-3.88-.9-7.49-4.69-10.32-8-6.19-7.25-11.82-14.98-17.67-22.52,9.99,4.54,20.2,8.7,29.87,13.83,3.58,1.9,5.93,6.12,11.44,12.1Z" stroke-width="0"/></g></svg>