<?xml version="1.0" encoding="UTF-8"?><svg id="b" xmlns="http://www.w3.org/2000/svg" viewBox="0 0 948.61 949.93"><g id="c"><path d="M764.39,322.21c27.44-57.71,62.75-111.73,81.21-173.67,3.27-10.96,8.73-21.3,11.55-32.34,2.77-10.87,8.82-25.32-.36-32.67-11.31-9.06-19.82,5.36-28.76,11.46-5.92,4.04-11.52,8.6-17.72,12.14-10.28,5.87-20.92,10.16-31.67.62-10.29-9.13-8.75-20.23-5.33-31.65C784.37,39.18,838.45-3.94,868.36.29c34.91,4.94,58.43,41.17,62.21,92,5.68,76.39-20.23,144.82-56.8,208.51-31.79,55.37-63.34,108.36-56.52,175.98,2.91,28.88-21.57,56.23-8.61,86.93-21.6,21.44-34.26,49.16-49.47,74.63-18.18,30.45-2.88,57.88,18.64,81.42,18.41,20.13,42.56,33.76,61.47,53.49,29.2,30.47,65.92,55.94,60.79,111.48,28.6-18.99,19.8-37.6,14.75-53.9-11.13-35.96-33.5-66.29-52.69-98.07-24.57-40.7-45.15-82.89-56.01-129.42-3.18-13.62-10.52-27.43,1.8-40.36,1.4.33,3.83.35,4.04,1.05,28.84,93.6,85.98,173.35,126.93,260.93,20,42.79,7.82,71.5-24.79,82.27-26.18,8.64-51.99-8.79-43.24-33.67,11.01-31.31-5.84-45.89-23.67-61.96-29.73-26.79-60.61-52.31-95.85-82.51-8.41,51.39-33.46,92.2-53.91,135.04-13.18,27.6-30.25,52.28-60.03,64.33-17.45,7.06-34.74,5.58-46.39-10.58-12.83-17.8,2.23-29.09,12.9-40.15,45.42-47.06,47.53-141.19,4.56-189.64-9.4-10.59-20.53-22.17-23.91-35.11-10.91-41.75-41.54-47.5-76.27-44.62-41.76,3.46-81.02,17.29-119.71,33.11-18.63,7.62-19.86,21.41-19.86,38.09,0,63.18.42,126.4-1.49,189.53-1.51,49.98-31.75,79.07-73.73,75.6-12.21-1.01-23.81-3.28-27.72-15.96-4.39-14.23,1.4-27.46,15.62-30.96,27.64-6.81,26.28-26.24,23.48-46.74-5.61-41.15-11.86-82.22-18.69-129.13-74.75,53.72-149.17,103.52-198.29,181.29-14.19,22.46-26.03,45.79-56.28,46.73-16.19.5-28.02-10.01-30.68-25.26-5.36-30.73,12.52-51.68,34.74-69.1,54.29-42.56,89.38-100.39,124.59-157.75,17.46-28.45,16.94-61.86,4.66-91.38-16.46-39.59-38.37-76.93-58.37-115.01-3.74-7.11-7.12-13.72-17.53-16.45C19.74,456.78-2.58,420.39,13.31,352.61c7.24-30.87-6.62-59.45-7.61-89.31-.34-10.42-7.01-24.75,9.13-28.85,13.03-3.31,20.7,7.03,27.31,16.7,7.97,11.66,13.48,30.17,24.13,33.83,28.17,9.68,61.3,25.74,78.18-19.52,4.7-12.6,12.28-29.27,30.02-25.67,18.12,3.67,21.66,20.2,23.44,36.87,9.8,91.97,10.92,98.92,105.35,85.72,126.87-17.74,253.19-32.28,381.11-22.53,30.07,2.29,57.67,5.13,80.7-18.35,10.1,34.45-13.64,45.53-38.5,46.03-47.25.95-95.49,5.77-141.81-2.53-53.99-9.68-106-3.25-157.99,6.35-52.35,9.67-105.44,11.73-157.87,19.78-20.42,3.13-39.97-1.4-58.75-9.54-27.71-12.01-45.36-29.6-37.96-63.21,2.32-10.51,6.17-22.43-3.5-32.29-52.7,48.55-94.52,47.24-136.33-3.83,1.98,23.35,10.9,47.13,4.09,70.43-8.29,28.37-2.06,45.89,22.31,65.61,35.55,28.77,67.74,29.48,98.2-7.37,8.75-10.59,13.9-37.33,31.23-24.11,18.34,13.99,7.16,36.67-6.5,53.33-5.49,6.7-12.41,11.86-19.42,16.91-37.38,26.93-35.01,54.2,7.58,79.83,7.93,4.77,14.9,9.99,16.17,18.68,8.88,60.58,26.06,121.21-17.61,177.73-38.48,49.8-68.85,105.96-119.68,145.75-9.62,7.53-20.11,16.95-14.9,32.43,10.99,5.9,16.88-2.27,21.33-8.83,46.59-68.65,108.85-121.53,172.88-172.61,22.57-18,45.65-35.18,53.48-65.23,1.8-6.91,5.18-16.72,11.93-16.6,63.16,1.06,106.68-52.53,167.06-59.04,24.06-2.59,47.68-13.51,72.15-6.17,21.64,6.49,32.41-1.3,37.52-21.98,2.4-9.72,7.36-18.74,13.43-26.82,6.06-8.06,13.61-18.35,24.17-12.88,10.81,5.6,7.21,18.46,2.95,27.18-25.75,52.74-10.3,94.72,26.78,136.98,42.59,48.56,36.75,144.88-6.63,208.52,3.08,5.56,8.18,3.05,10.21.59,48.04-58.31,89.74-120.75,77.9-200.55-5.73-38.58-1.39-67.82,23.71-98.9,34.87-43.17,54.7-95.3,53.44-151.48-1.1-48.59,13.98-90,40.62-128.78,35.6-51.82,53.97-110.55,68.38-170.83,3.36-14.04,4.49-28.43,3.2-42.79-2.66-29.58-8.72-60.64-40.46-69.78-30.32-8.73-42.51,21.25-64.77,40.68,18-.51,25.66-10.41,36.41-13.18,27.63-7.12,50.66,7.2,44.86,33.97-17.09,78.85-43.4,154.73-93.99,219.56-5.95,7.62-14.27,14.73-26,9.72Z" stroke-width="0"/><path d="M764.39,322.21c64.58-63.78,87.56-147.72,111.41-231.09,3.02-10.54-3.03-19.92-12.74-25.08-12.24-6.51-21.86,1.36-31.62,7.33-14.56,8.9-28.94,37.69-44.28,19.47-12.93-15.37,12.5-34.29,25.43-48.35,15.34-16.67,31.9-36.72,58.14-29.06,27.77,8.11,39.88,31.9,44.25,58.72,13.25,81.34-18.02,152.94-54.86,221.21-29.43,54.54-58.2,105.24-56.24,172.08,1.65,56.17-27.72,107.77-64.19,151.75-14.09,16.99-18.12,31.34-12.16,54,23.37,88.95-24.92,156.73-72.11,223.8-5.36,7.62-15.29,13.28-24.29,16.74-8.76,3.37-20.93,6.5-26.92-4.36-5.09-9.25,4.28-15.26,9.96-21.51,55.24-60.75,55.41-152.15,1.24-210.79-29.81-32.28-38.77-69.53-21.5-111.23,5.28-12.74,11.56-25.08,16.32-35.32-2.98-7.03-4.83-6.91-7.99-4.19-22.91,19.68-15.55,63.39-37.69,71.41-20.8,7.53-51.35-8.08-79.14-2.86-55.83,10.49-108.99,27.86-152.86,64.45-20.78,17.33-23.48,1.67-35.94-20.85-.03,63.11-42.05,85.33-77.56,112.93-57.82,44.94-116.38,89.2-151.5,156.19-7.61,14.52-17.34,26.64-35.36,27.69-7.67.45-14.45-2.26-16.55-10.46-4.8-18.81,1.94-35.47,16.18-46.15,50.5-37.86,80.99-92.4,120.64-139.34,48.9-57.87,32.96-122.22,19.94-184.25-1.47-7-31.55-28.33-43.8-47.6-14.2-22.33-23.62-39.56,14.77-50.9,36.89-10.9,44.85-31.45,39.39-76.56-5.92,54.17-46.91,64.98-87.02,76.61-6.79,1.97-19.93,4.02-20.34,2.79-10.49-31.71-63.65-37.46-55.74-73.85,9.97-45.85,4.26-89.21-.15-135.51,20.37,30.2,41.89,48.63,80.37,59.89,59.53,17.42,39.53-51.37,75.83-51.64,9.08,13.25,8.83,30.15,8.48,46.99-1.18,56.75,19.06,76.35,77.04,74.49,61.83-1.98,122.56-12.41,183.39-22.7,88.75-15.01,177.79-2.37,266.45,1.73,33.03,1.53,45.43-11.19,53.96-37.33,0,0-.69.72-.69.72Z" fill="#fefefe" stroke-width="0"/><path d="M807.93,562.97c8.56,74.57,43.93,137.91,83.92,199.17,18.95,29.03,34.64,59.1,40.6,93.8,2.84,16.54-2.83,27.88-16.57,35.96-7.5,4.41-15.88,8.63-23.73,1.69-10.34-9.13-6.93-20.3-3.6-31.73,6.23-21.37-8.31-35.16-20.72-48.3-23.6-25.01-49.71-47.09-77.84-67.31-54.72-39.33-62.76-82.8-23.97-136.47,11.88-16.44,9.53-48.68,42.62-46.07,0,0-.71-.72-.71-.72Z" fill="#fcfcfc" stroke-width="0"/><path d="M350.59,668.7c0,73.56.34,146.11-.18,218.65-.19,26.52-21.56,35.72-41.49,43.75-9.95,4.01-24.88,7.42-29.24-7.5-3.84-13.16,8.03-15.91,18.6-16.27,22.02-.77,18.92-17.48,19.7-31.24,2.4-42.02-4.59-83.01-15.62-123.28-11.88-43.34,2.34-71.26,48.22-84.11Z" fill="#fbfbfb" stroke-width="0"/></g></svg>