<?xml version="1.0" encoding="UTF-8"?><svg id="b" xmlns="http://www.w3.org/2000/svg" viewBox="0 0 1174.34 790.46"><g id="c"><path d="M501.42,636.24c-7.89,37.08-23.62,46.77-60.76,36.55-34.61-9.53-67.88-22.05-94.87-47.2-12.82-11.95-19.9-25.52-18.17-43.85.48-5.04-4.24-11.77-8.41-15.84-25.28-24.69-50.37-49.39-62.68-83.75-18.39-51.28-20.35-103.65-9.43-156.59,3.87-18.76,9.75-37.1,14.59-55.15-17.85-6.04-37.07-9.7-53.4-18.65-37.94-20.81-54.98-55.6-57.61-97.96-.62-9.92-.31-19.9-.61-29.85-.63-20.3-12.42-40.93-27.89-42.39-16.98-1.6-31.69,6.89-42.03,21.04-3.88,5.31-6.74,11.36-10.16,17.01-8.65,14.3-28.02,22.02-44.89,16.83C9.06,131.5,1.71,119.74.3,103.01c-2.6-30.96,11.77-53.14,35.56-70.17C70.7,7.92,108.97-7.89,152.16,4.07c46.01,12.74,76.35,56.17,78.65,105.28.77,16.39,1.47,33.34,6.08,48.89,10.26,34.66,59.47,44.6,84.82,18.65,47.44-48.56,106.34-72.15,172.92-80.6,41.28-5.24,81.41-2.79,121.32,8.02,53.39,14.46,94.98,47.16,132.86,85.66,29.97,30.47,60.66,60.27,89.75,91.56,19.2,20.65,41.37,13.38,63.26,9.95,3.27-.51,6.7-7.87,7.83-12.59,2.95-12.31,4.57-24.93,6.89-37.4,4.7-25.3,26.92-35.16,46.52-18.68,12.3,10.34,22.41,24.21,30.75,38.14,22.56,37.68,45.04,75.54,64.86,114.68,15,29.64,26.58,61.11,38.19,92.31,4.07,10.94,9.65,7.45,16.6,6.1,16.05-3.11,32.11-6.44,48.32-8.27,3.87-.44,8.36,4.64,12.56,7.18-4.18,2.81-8.04,7.22-12.6,8.14-12.37,2.5-25.26,2.6-37.52,5.48-7.73,1.82-14.68,6.92-21.98,10.55.57,1.68,1.15,3.35,1.72,5.03,8.8-.93,17.68-3.03,26.39-2.5,11.91.73,23.82,2.93,35.44,5.72,2.69.65,4.2,6.21,6.26,9.51-3.62,1.45-7.27,4.22-10.84,4.12-14.18-.38-28.33-2.02-42.52-2.47-10.32-.33-15.04,4.62-16.88,15.74-12.2,74.01-51.72,127.02-122.21,155.72.44,8.76,2.77,18.19,1,26.78-4.93,23.87-19.75,35.59-44.7,39.66-5.61.91-12.35,4.33-15.59,8.77-23.4,32.14-75.11,37.69-100.96,6.64-21.76-26.14-49.66-35.81-79.83-45.16-40.31-12.5-81.54-24.07-111.71-57.02-2.68-2.93-7.55-5.33-11.45-5.42-38.12-.84-73.85-11.25-108.62-25.93-1.82-.77-4.25-.1-6.32-.1ZM615.52,645.37c2.18-24.01,3.49-44.87,6.41-65.5.61-4.35,7.09-7.88,10.86-11.79,1.56,5.16,4.64,10.39,4.39,15.46-.66,13.18-3.29,26.25-4.2,39.42-1.64,23.82,7.83,42.4,29.52,52.76,22.23,10.62,44.79,20.91,68.02,28.99,37.23,12.95,76.67,20.41,101.91,55.96,8.66,12.19,23.84,14.61,39.03,13.27,20-1.77,35.03-13.07,35.72-27.72.92-19.62-17.37-47.47-33.13-50.78-15.6-3.27-32.42-4.15-46.41-10.85-23.48-11.25-45.36-25.93-67.29-40.15-2.96-1.92-2.26-9.48-3.25-14.43,4.47,1.09,9.65,1.11,13.27,3.49,10.51,6.91,19.79,15.84,30.64,22.06,48.43,27.77,100.67,29.16,154.24,21.34,72.72-10.62,130.03-91.04,131.4-157.6.93-45.25-12.75-85.59-34.29-123.96-24.44-43.54-49.63-86.68-74.85-129.78-5.5-9.4-11.48-18.97-19.1-26.6-11.85-11.86-22.19-9.13-26.15,6.85-3.82,15.43-5.96,31.35-7.76,47.18-1.38,12.05-7.41,14.72-18.77,15.11-42.28,1.45-83.01,9.65-119.11,33.41-8.99,5.92-14.09,5.61-21.39-4.17-16.35-21.91-34.09-42.96-52.92-62.78-12.56-13.22-20.08-10.48-24.91,6.63-12.14,43.07-14.11,86.89-9.45,131.26.51,4.86-2.98,10.14-4.62,15.23-3.77-4.46-10.24-8.6-10.82-13.45-2.16-18.03-5.01-36.63-2.77-54.41,4.04-31.98,9.98-63.94,18.28-95.07,4.28-16.05,16.93-18.57,31.64-10.88,5.3,2.77,11.02,5.7,14.92,10.03,15.42,17.14,29.97,35.06,45.37,52.22,3.55,3.95,10.66,9.63,13.6,8.41,17.53-7.29,34.32-16.37,49.46-23.9-25.07-26.26-50.43-52.68-75.63-79.25-30.27-31.92-61.14-63.32-100.8-83.65-56.5-28.98-116.15-36.08-178.38-23.3-48.02,9.86-94.1,25.17-130.06,59.51-69.25,66.13-97.62,148.2-89.29,243.48,6.52,74.62,42.27,127.93,111.73,157.85,2.83,1.22,3.97,6.37,5.9,9.68-3.73,1.62-7.74,5.02-11.13,4.48-7.08-1.13-13.83-4.35-20.72-6.71-1.11,1.09-2.23,2.17-3.34,3.26,3.92,8.01,6.07,17.83,12.07,23.71,30.09,29.43,66.73,45.99,108.7,49.34,5.79.46,14.78-3.89,17.44-8.7,3.24-5.85,3.35-15.26,1.03-21.79-1.91-5.39-9.47-8.67-14.27-13.15-10.37-9.68-21.07-19.09-30.53-29.61-2.3-2.56-1.62-9.61.23-13.32.96-1.93,7.93-2.47,11.41-1.31,30.98,10.38,53.99-7.16,51.34-39.21-.31-3.8,1.97-7.81,3.04-11.73,3.92,2.25,9.24,3.55,11.53,6.91,9.41,13.8,4.7,35.06-11.67,46.85-10.84,7.81-23.76,12.74-38.48,20.37,47.93,29.86,96.56,50.23,152.38,51ZM295.56,208.57c-5.07-.57-7.68-1-10.31-1.14-38.41-2.08-59.92-20.56-66.34-57.99-3.54-20.63-5.31-41.57-9.16-62.12-6.26-33.34-36.12-67.89-75.29-70.04-31.89-1.75-59.33,7.87-85.05,25.41-21.33,14.54-36.6,32.52-32.34,60.08.98,6.32,7.22,15.46,12.51,16.62,7.46,1.64,16.77-1.89,24.33-5.31,3.58-1.63,4.84-8.21,7.34-12.44,13.7-23.16,34.06-37.11,60.89-35.25,23.96,1.67,35.65,20.13,40.31,41.87,3.32,15.49,4.73,31.52,5.5,47.39,1.98,40.6,20.1,70.83,57.52,86.92,15.47,6.65,34.26,15.31,49.49.61,8.94-8.64,13.35-21.97,20.61-34.6ZM906.14,697c5.97,12.66,10.73,23.54,16.3,33.99,1.52,2.85,5.25,5.74,8.38,6.31,18.34,3.35,38.1-15.65,34.8-33.9-.66-3.67-6.35-9.15-9.73-9.16-15.84-.02-31.67,1.59-49.74,2.76Z" stroke-width="0"/><path d="M615.52,645.37c-55.81-.77-104.44-21.14-152.38-51,14.72-7.63,27.64-12.56,38.48-20.37,16.37-11.79,21.08-33.05,11.67-46.85-2.29-3.36-7.6-4.66-11.53-6.91-1.08,3.92-3.36,7.93-3.04,11.73,2.65,32.05-20.35,49.59-51.34,39.21-3.47-1.16-10.44-.63-11.41,1.31-1.85,3.72-2.53,10.77-.23,13.32,9.46,10.52,20.15,19.93,30.53,29.61,4.81,4.48,12.36,7.77,14.27,13.15,2.32,6.53,2.2,15.93-1.03,21.79-2.66,4.81-11.66,9.16-17.44,8.7-41.97-3.35-78.61-19.91-108.7-49.34-6.01-5.88-8.15-15.7-12.07-23.71,1.11-1.09,2.23-2.17,3.34-3.26,6.89,2.36,13.64,5.57,20.72,6.71,3.38.54,7.4-2.86,11.13-4.48-1.93-3.32-3.07-8.46-5.9-9.68-69.46-29.92-105.21-83.23-111.73-157.85-8.33-95.28,20.04-177.35,89.29-243.48,35.96-34.34,82.04-49.65,130.06-59.51,62.23-12.78,121.88-5.68,178.38,23.3,39.65,20.33,70.52,51.73,100.8,83.65,25.2,26.57,50.56,52.99,75.63,79.25-15.14,7.53-31.93,16.61-49.46,23.9-2.93,1.22-10.05-4.45-13.6-8.41-15.4-17.16-29.95-35.08-45.37-52.22-3.89-4.33-9.62-7.26-14.92-10.03-14.71-7.69-27.36-5.17-31.64,10.88-8.3,31.13-14.25,63.09-18.28,95.07-2.24,17.78.61,36.37,2.77,54.41.58,4.85,7.05,8.98,10.82,13.45,1.64-5.09,5.13-10.37,4.62-15.23-4.66-44.37-2.69-88.18,9.45-131.26,4.82-17.12,12.35-19.85,24.91-6.63,18.84,19.82,36.57,40.87,52.92,62.78,7.3,9.78,12.4,10.08,21.39,4.17,36.1-23.76,76.82-31.96,119.11-33.41,11.36-.39,17.39-3.06,18.77-15.11,1.81-15.83,3.94-31.75,7.76-47.18,3.96-15.98,14.3-18.71,26.15-6.85,7.62,7.63,13.6,17.19,19.1,26.6,25.22,43.1,50.41,86.23,74.85,129.78,21.54,38.38,35.22,78.71,34.29,123.96-1.37,66.55-58.68,146.98-131.4,157.6-53.57,7.82-105.82,6.43-154.24-21.34-10.86-6.23-20.13-15.16-30.64-22.06-3.62-2.38-8.8-2.39-13.27-3.49.99,4.95.29,12.51,3.25,14.43,21.92,14.21,43.81,28.9,67.29,40.15,13.99,6.7,30.81,7.58,46.41,10.85,15.76,3.31,34.05,31.16,33.13,50.78-.69,14.65-15.71,25.95-35.72,27.72-15.18,1.34-30.37-1.08-39.03-13.27-25.24-35.55-64.67-43-101.91-55.96-23.23-8.08-45.79-18.37-68.02-28.99-21.7-10.36-31.17-28.95-29.52-52.76.91-13.18,3.54-26.25,4.2-39.42.25-5.07-2.83-10.3-4.39-15.46-3.77,3.91-10.25,7.43-10.86,11.79-2.91,20.63-4.23,41.5-6.41,65.5ZM878.1,525.88c-.58-26.74-33.8-42.09-56.39-30.37-10.23,5.3-13.64,14.04-9.96,24.81,7.18,21.05,40.28,31.1,57.77,17.27,4.57-3.62,7.17-9.71,8.59-11.71ZM1006.75,494.44c-.67,11.29,8.53,20.86,20.4,21.23,16.16.5,37.74-18.54,38.91-34.32.82-11.1-8.55-20.88-20.37-21.26-16.63-.53-37.98,18.31-38.93,34.36ZM950.36,553.38c7.75-2.66,17.65-4.52,25.87-9.29,10.14-5.89,8.69-13.9-1.74-19.6-15.73-8.6-30.26-3.7-43.47,4.84-8.8,5.69-8.49,14.08,1.37,19.39,4.62,2.49,10.41,2.79,17.98,4.66ZM749.97,550.12c-.29-1.07-.59-2.13-.88-3.2-19.84,6.07-39.81,11.75-59.38,18.6-3.09,1.08-4.32,7.46-6.41,11.38,4.28.81,8.81,2.96,12.79,2.2,20.84-3.94,41.59-8.43,62.26-13.2,4.66-1.07,8.89-4.01,13.32-6.09-4.47-3.23-8.71-6.9-13.52-9.51-2.13-1.16-5.42-.2-8.18-.2ZM703.73,616.28c3.01-1.76,5.24-3.3,7.66-4.42,15.31-7.12,31.16-13.25,45.77-21.58,6.96-3.97,21.73,1.41,19.44-13.43-.27-1.76-15.67-3.84-22.52-1.42-17.43,6.15-34.25,14.24-50.66,22.82-3.41,1.78-4.31,8.92-5.52,13.79-.22.86,3.72,2.76,5.84,4.25Z" fill="#fff" stroke-width="0"/><path d="M295.56,208.57c-7.26,12.64-11.66,25.97-20.61,34.6-15.22,14.71-34.02,6.04-49.49-.61-37.42-16.09-55.54-46.32-57.52-86.92-.77-15.86-2.18-31.9-5.5-47.39-4.66-21.74-16.35-40.21-40.31-41.87-26.83-1.86-47.2,12.09-60.89,35.25-2.5,4.23-3.75,10.81-7.34,12.44-7.56,3.43-16.87,6.96-24.33,5.31-5.29-1.16-11.53-10.3-12.51-16.62-4.25-27.56,11.01-45.54,32.34-60.08,25.72-17.54,53.16-27.15,85.05-25.41,39.17,2.15,69.03,36.7,75.29,70.04,3.86,20.56,5.62,41.5,9.16,62.12,6.42,37.43,27.93,55.9,66.34,57.99,2.63.14,5.24.57,10.31,1.14Z" fill="#fff" stroke-width="0"/><path d="M906.14,697c18.07-1.17,33.91-2.78,49.74-2.76,3.38,0,9.07,5.48,9.73,9.16,3.3,18.26-16.46,37.25-34.8,33.9-3.13-.57-6.86-3.46-8.38-6.31-5.57-10.45-10.32-21.33-16.3-33.99Z" fill="#fff" stroke-width="0"/><path d="M878.1,525.88c-1.41,2-4.02,8.09-8.59,11.71-17.49,13.84-50.59,3.79-57.77-17.27-3.67-10.77-.26-19.51,9.96-24.81,22.59-11.72,55.81,3.64,56.39,30.37Z" stroke-width="0"/><path d="M1006.75,494.44c.95-16.04,22.31-34.89,38.93-34.36,11.82.38,21.2,10.16,20.37,21.26-1.17,15.78-22.75,34.82-38.91,34.32-11.87-.37-21.07-9.94-20.4-21.23Z" stroke-width="0"/><path d="M950.36,553.38c-7.57-1.86-13.36-2.17-17.98-4.66-9.86-5.31-10.17-13.69-1.37-19.39,13.21-8.54,27.74-13.45,43.47-4.84,10.43,5.7,11.89,13.71,1.74,19.6-8.22,4.77-18.12,6.63-25.87,9.29Z" stroke-width="0"/><path d="M749.97,550.12c2.76,0,6.05-.96,8.18.2,4.81,2.61,9.05,6.27,13.52,9.51-4.43,2.08-8.66,5.01-13.32,6.09-20.67,4.77-41.42,9.25-62.26,13.2-3.98.75-8.51-1.39-12.79-2.2,2.09-3.93,3.33-10.3,6.41-11.38,19.57-6.85,39.54-12.53,59.38-18.6.29,1.07.59,2.13.88,3.2Z" stroke-width="0"/><path d="M703.73,616.28c-2.12-1.49-6.05-3.39-5.84-4.25,1.22-4.88,2.12-12.01,5.52-13.79,16.41-8.57,33.24-16.67,50.66-22.82,6.85-2.42,22.25-.34,22.52,1.42,2.29,14.84-12.48,9.47-19.44,13.43-14.61,8.33-30.46,14.47-45.77,21.58-2.42,1.12-4.64,2.67-7.66,4.42Z" stroke-width="0"/></g></svg>