<?xml version="1.0" encoding="utf-8"?>
<!-- Generator: Adobe Illustrator 28.1.0, SVG Export Plug-In . SVG Version: 6.00 Build 0)  -->
<svg version="1.1" id="b" xmlns="http://www.w3.org/2000/svg" xmlns:xlink="http://www.w3.org/1999/xlink" x="0px" y="0px"
	 viewBox="0 0 948.6 949.9" style="enable-background:new 0 0 948.6 949.9;" xml:space="preserve">
<style type="text/css">
	.st0{fill:#FEFEFE;}
	.st1{fill:#FCFCFC;}
	.st2{fill:#FBFBFB;}
	.st3{fill:none;stroke:#000000;stroke-width:4;stroke-miterlimit:10;}
	.st4{fill:none;stroke:#000000;stroke-width:3.3093;stroke-miterlimit:10;}
	.st5{fill:none;stroke:#000000;stroke-width:7.6342;stroke-miterlimit:10;}
</style>
<g id="c">
	<path d="M764.4,322.2c27.4-57.7,62.8-111.7,81.2-173.7c3.3-11,8.7-21.3,11.5-32.3c2.8-10.9,8.8-25.3-0.4-32.7
		C845.5,74.5,837,88.9,828,95c-5.9,4-11.5,8.6-17.7,12.1c-10.3,5.9-20.9,10.2-31.7,0.6c-10.3-9.1-8.8-20.2-5.3-31.7
		c11.1-36.9,65.1-80,95-75.8c34.9,4.9,58.4,41.2,62.2,92c5.7,76.4-20.2,144.8-56.8,208.5c-31.8,55.4-63.3,108.4-56.5,176
		c2.9,28.9-21.6,56.2-8.6,86.9c-21.6,21.4-34.3,49.2-49.5,74.6c-18.2,30.5-2.9,57.9,18.6,81.4c18.4,20.1,42.6,33.8,61.5,53.5
		c29.2,30.5,65.9,55.9,60.8,111.5c28.6-19,19.8-37.6,14.8-53.9c-11.1-36-33.5-66.3-52.7-98.1c-24.6-40.7-45.2-82.9-56-129.4
		c-3.2-13.6-10.5-27.4,1.8-40.4c1.4,0.3,3.8,0.3,4,1c28.8,93.6,86,173.3,126.9,260.9c20,42.8,7.8,71.5-24.8,82.3
		c-26.2,8.6-52-8.8-43.2-33.7c11-31.3-5.8-45.9-23.7-62c-29.7-26.8-60.6-52.3-95.8-82.5c-8.4,51.4-33.5,92.2-53.9,135
		c-13.2,27.6-30.2,52.3-60,64.3c-17.5,7.1-34.7,5.6-46.4-10.6c-12.8-17.8,2.2-29.1,12.9-40.2c45.4-47.1,47.5-141.2,4.6-189.6
		c-9.4-10.6-20.5-22.2-23.9-35.1c-10.9-41.8-41.5-47.5-76.3-44.6c-41.8,3.5-81,17.3-119.7,33.1c-18.6,7.6-19.9,21.4-19.9,38.1
		c0,63.2,0.4,126.4-1.5,189.5c-1.5,50-31.8,79.1-73.7,75.6c-12.2-1-23.8-3.3-27.7-16c-4.4-14.2,1.4-27.5,15.6-31
		c27.6-6.8,26.3-26.2,23.5-46.7c-5.6-41.2-11.9-82.2-18.7-129.1C211.4,775.6,137,825.4,87.9,903.2c-14.2,22.5-26,45.8-56.3,46.7
		c-16.2,0.5-28-10-30.7-25.3c-5.4-30.7,12.5-51.7,34.7-69.1C90,813,125.1,755.2,160.3,697.8c17.5-28.5,16.9-61.9,4.7-91.4
		c-16.5-39.6-38.4-76.9-58.4-115c-3.7-7.1-7.1-13.7-17.5-16.5c-69.3-18.2-91.6-54.6-75.7-122.4c7.2-30.9-6.6-59.5-7.6-89.3
		c-0.3-10.4-7-24.8,9.1-28.9c13-3.3,20.7,7,27.3,16.7c8,11.7,13.5,30.2,24.1,33.8c28.2,9.7,61.3,25.7,78.2-19.5
		c4.7-12.6,12.3-29.3,30-25.7c18.1,3.7,21.7,20.2,23.4,36.9c9.8,92,10.9,98.9,105.4,85.7c126.9-17.7,253.2-32.3,381.1-22.5
		c30.1,2.3,57.7,5.1,80.7-18.4c10.1,34.5-13.6,45.5-38.5,46c-47.2,1-95.5,5.8-141.8-2.5c-54-9.7-106-3.2-158,6.4
		c-52.4,9.7-105.4,11.7-157.9,19.8c-20.4,3.1-40-1.4-58.8-9.5c-27.7-12-45.4-29.6-38-63.2c2.3-10.5,6.2-22.4-3.5-32.3
		c-52.7,48.5-94.5,47.2-136.3-3.8c2,23.4,10.9,47.1,4.1,70.4c-8.3,28.4-2.1,45.9,22.3,65.6c35.5,28.8,67.7,29.5,98.2-7.4
		c8.8-10.6,13.9-37.3,31.2-24.1c18.3,14,7.2,36.7-6.5,53.3c-5.5,6.7-12.4,11.9-19.4,16.9c-37.4,26.9-35,54.2,7.6,79.8
		c7.9,4.8,14.9,10,16.2,18.7c8.9,60.6,26.1,121.2-17.6,177.7c-38.5,49.8-68.8,106-119.7,145.8c-9.6,7.5-20.1,17-14.9,32.4
		c11,5.9,16.9-2.3,21.3-8.8C101.8,834,164,781.1,228,730c22.6-18,45.7-35.2,53.5-65.2c1.8-6.9,5.2-16.7,11.9-16.6
		c63.2,1.1,106.7-52.5,167.1-59c24.1-2.6,47.7-13.5,72.2-6.2c21.6,6.5,32.4-1.3,37.5-22c2.4-9.7,7.4-18.7,13.4-26.8
		c6.1-8.1,13.6-18.3,24.2-12.9c10.8,5.6,7.2,18.5,3,27.2c-25.8,52.7-10.3,94.7,26.8,137c42.6,48.6,36.8,144.9-6.6,208.5
		c3.1,5.6,8.2,3,10.2,0.6c48-58.3,89.7-120.8,77.9-200.5c-5.7-38.6-1.4-67.8,23.7-98.9c34.9-43.2,54.7-95.3,53.4-151.5
		c-1.1-48.6,14-90,40.6-128.8c35.6-51.8,54-110.6,68.4-170.8c3.4-14,4.5-28.4,3.2-42.8c-2.7-29.6-8.7-60.6-40.5-69.8
		c-30.3-8.7-42.5,21.2-64.8,40.7c18-0.5,25.7-10.4,36.4-13.2c27.6-7.1,50.7,7.2,44.9,34c-17.1,78.8-43.4,154.7-94,219.6
		C784.4,320.1,776.1,327.2,764.4,322.2L764.4,322.2z"/>
	<path class="st0" d="M764.4,322.2C829,258.4,852,174.5,875.8,91.1c3-10.5-3-19.9-12.7-25.1c-12.2-6.5-21.9,1.4-31.6,7.3
		c-14.6,8.9-28.9,37.7-44.3,19.5c-12.9-15.4,12.5-34.3,25.4-48.3c15.3-16.7,31.9-36.7,58.1-29.1c27.8,8.1,39.9,31.9,44.2,58.7
		c13.2,81.3-18,152.9-54.9,221.2c-29.4,54.5-58.2,105.2-56.2,172.1c1.7,56.2-27.7,107.8-64.2,151.8c-14.1,17-18.1,31.3-12.2,54
		c23.4,89-24.9,156.7-72.1,223.8c-5.4,7.6-15.3,13.3-24.3,16.7c-8.8,3.4-20.9,6.5-26.9-4.4c-5.1-9.2,4.3-15.3,10-21.5
		c55.2-60.8,55.4-152.2,1.2-210.8c-29.8-32.3-38.8-69.5-21.5-111.2c5.3-12.7,11.6-25.1,16.3-35.3c-3-7-4.8-6.9-8-4.2
		c-22.9,19.7-15.5,63.4-37.7,71.4c-20.8,7.5-51.3-8.1-79.1-2.9c-55.8,10.5-109,27.9-152.9,64.5c-20.8,17.3-23.5,1.7-35.9-20.8
		c0,63.1-42.1,85.3-77.6,112.9c-57.8,44.9-116.4,89.2-151.5,156.2c-7.6,14.5-17.3,26.6-35.4,27.7c-7.7,0.5-14.5-2.3-16.5-10.5
		c-4.8-18.8,1.9-35.5,16.2-46.2c50.5-37.9,81-92.4,120.6-139.3c48.9-57.9,33-122.2,19.9-184.2c-1.5-7-31.6-28.3-43.8-47.6
		c-14.2-22.3-23.6-39.6,14.8-50.9c36.9-10.9,44.9-31.5,39.4-76.6c-5.9,54.2-46.9,65-87,76.6c-6.8,2-19.9,4-20.3,2.8
		c-10.5-31.7-63.7-37.5-55.7-73.9c10-45.9,4.3-89.2-0.1-135.5c20.4,30.2,41.9,48.6,80.4,59.9c59.5,17.4,39.5-51.4,75.8-51.6
		c9.1,13.2,8.8,30.1,8.5,47c-1.2,56.8,19.1,76.4,77,74.5c61.8-2,122.6-12.4,183.4-22.7c88.8-15,177.8-2.4,266.5,1.7
		c33,1.5,45.4-11.2,54-37.3L764.4,322.2L764.4,322.2z"/>
	<path class="st1" d="M807.9,563c8.6,74.6,43.9,137.9,83.9,199.2c19,29,34.6,59.1,40.6,93.8c2.8,16.5-2.8,27.9-16.6,36
		c-7.5,4.4-15.9,8.6-23.7,1.7c-10.3-9.1-6.9-20.3-3.6-31.7c6.2-21.4-8.3-35.2-20.7-48.3c-23.6-25-49.7-47.1-77.8-67.3
		c-54.7-39.3-62.8-82.8-24-136.5c11.9-16.4,9.5-48.7,42.6-46.1L807.9,563L807.9,563z"/>
	<path class="st2" d="M350.6,668.7c0,73.6,0.3,146.1-0.2,218.6c-0.2,26.5-21.6,35.7-41.5,43.8c-10,4-24.9,7.4-29.2-7.5
		c-3.8-13.2,8-15.9,18.6-16.3c22-0.8,18.9-17.5,19.7-31.2c2.4-42-4.6-83-15.6-123.3C290.5,709.5,304.7,681.5,350.6,668.7
		L350.6,668.7z"/>
</g>
<path class="st3" d="M49.9,359.1c5.9,6.4,16.1,8.5,24.1,4.8"/>
<path class="st4" d="M124,367c7.5,2.4,19.3,1.5,28-2.3"/>
<path d="M94.4,414.1c18.1,0.9,36.1,3,53.9,6.2"/>
<path d="M93.6,407.9c17.7-2.5,35.8-3.8,53.9-4.1"/>
<path d="M92.9,419.3c17.3,4.5,35.1,8,53,10.3"/>
<path d="M61.9,412.5c-12.4-0.8-24.8-0.7-37.2,0.4"/>
<path d="M63,407.2c-11.8-3.7-24-6.5-36.2-8.3"/>
<path d="M62.4,417.1c-12.2,2.3-24.6,3.7-37,4.1"/>
<path class="st5" d="M75.2,412.1c-0.6,0.3-1.2,0.6-1.6,1c-0.4,0.3-0.7,0.7-0.6,1c0.2,1,2.6,1.2,4,0.8c2.1-0.5,4.1-1.8,3.4-3.2
	c-1.8-0.1-3.6-0.2-5.4-0.3"/>
</svg>
