<?xml version="1.0" encoding="UTF-8"?><svg id="b" xmlns="http://www.w3.org/2000/svg" viewBox="0 0 1134.03 842.39"><g id="c"><path d="M1134.01,412.83c-12.47,172.94-92.17,303.56-247.26,386.24-48.21,25.7-99.8,40.02-154.18,42.93-32.04,1.72-62.99-.8-80.43-35.58-2.9-5.78-16.21-9.32-24.48-8.94-56.8,2.6-113.51,8.93-170.29,9.43-82.95.73-164.55-11.78-239.03-50.19-93.4-48.17-163.8-119.05-195.37-221.91-10.65-34.69-19.1-70.94-21.89-106.99-9.38-121.15,43.76-215.54,134.06-291,56.5-47.22,120.64-82.36,191.56-102.83C427.55,4.88,530.83-6.54,635.46,3.66c50.21,4.9,100.99,11.6,149.51,24.8,117.97,32.09,224.22,85.52,296.86,189.21,40.6,57.96,52.85,124.43,52.17,195.16ZM800.25,720.82c8.16-2.11,23.91-6.49,39.82-10.12,6.19-1.41,12.76-1.13,19.15-1.62-2.84,6.75-4.37,18.22-8.76,19.44-21.1,5.87-42.96,12.09-64.58,12.22-24.37.15-48.8-8.99-73.17-8.84-35.62.22-57.33,40.54-38.31,69.42,14.65,22.24,39.53,25.42,62.55,20.19,42.75-9.72,85.93-19.85,126.66-35.68,144.97-56.33,279.65-254.25,244.14-439.43-9.3-48.49-23.89-93.89-55.35-132.7-67.82-83.68-157.42-131.81-259.97-158.27-37.42-9.65-74.88-20.78-113.03-25.6-86.53-10.94-173.04-8.99-259.56,5.19-97.72,16.02-185.3,52.44-264.06,113.08C6.07,263.36-14.96,441,72.15,591.75c72.17,124.91,188.89,181.95,328.42,190.06,75.79,4.4,152.34-4.69,228.57-7.18,11.79-.38,16.92-4.9,20.07-16.17,7.26-26.02,24.06-43.21,51.99-45.19,20.51-1.45,41.21-.28,61.89-.28,8.86-29.8-.59-43.21-30.73-42.47-7.38.18-14.8,1.91-22.04,3.61-55.25,13.03-109.97,27.43-167.91,24.26-72.74-3.98-144.19-12.83-213.52-36.58-103.43-35.43-168.97-105.71-196.1-211.25-2.99-11.64,1.4-25.18,2.36-37.85,6.19,10.48,15.19,20.24,18.13,31.57,23.45,90.55,75.84,155.53,163.96,189.94,90.84,35.47,185.43,45.69,282.05,40.75,9.48-.48,18.69-6.12,28.02-9.36-5.08-11.15-8.01-24.3-15.94-32.79-6.17-6.6-18.47-9.92-28.21-10.28-30.68-1.14-61.87,3.15-92.05-.83-44.91-5.93-89.19-16.81-133.59-26.29-13.97-2.98-19.61-13.97-10.88-25.22,20.47-26.39,11.89-51.43,1.41-77.98-3.68-9.31-18.15-21.84-.31-29.75,3.08-1.36,16.7,13.85,20.84,23.4,12.96,29.9,18.02,60.98-.97,94.66,41.24,7.52,77.93,14.21,117.16,21.36-11.19-36.29-12.81-37.41-42.73-34.81-6.72.59-13.7,2.05-20.14.84-6.48-1.22-12.44-5.26-18.62-8.06,5.64-4.55,10.65-11.38,17.06-13.14,11.67-3.22,24.17-3.43,36.32-4.89.1-2.92.19-5.84.29-8.76-18.24-2.35-36.48-4.7-57.48-7.41,8.94-31.89,37.66-10.8,52.85-20.3,1.14-71.17,4.05-82.43,65.96-156.43,30.05-35.91,57.76-73.78,86.9-110.46,14.35-18.07,27.67-37.67,45-52.41,11.89-10.12,30.87-19.72,44.92-17.65,20.53,3.03,27.59,24.36,31.21,44.6,4.16,23.27,9.62,46.32,13.26,63.52,43.67,11.4,82.78,20.53,121.21,31.95,37.21,11.05,40.69,10.63,67.38-18.39,13.57-14.75,27.86-29.09,43.3-41.81,28.03-23.08,59.51-12,64.21,24.02,6.67,51.05,10.33,102.5,14.21,153.87.47,6.24-5.65,12.97-8.71,19.48-3.84-6.52-10.21-12.73-11.03-19.61-2.11-17.8-.78-36-2.63-53.85-3.23-31.11-5.2-62.72-12.61-92.91-6.65-27.09-14.46-28.25-34.68-9.78-18.12,16.55-35.29,34.28-51.61,52.61-12.86,14.44-26.09,18.95-45.5,13.78-43.91-11.7-88.1-23.27-132.88-30.43-19.9-3.18-30.07-10.08-33.92-28.32-5.08-24.09-8.78-48.53-15-72.32-4.73-18.05-16.94-20.84-31.28-8.79-5.69,4.78-11.17,10.01-15.8,15.8-49.19,61.5-98,123.29-147.3,184.7-34.97,43.57-39.85,91.58-24.45,143.84,13.45,45.65,29.25,58.46,76.15,58.52,9.73.01,19.63-.05,29.15,1.64,25.27,4.48,51.24,13.46,55.66,41.06,4.23,26.41,18.38,22.28,34.45,18.98,11.65-2.39,22.64-8.16,34.31-10.22,19.96-3.52,42.79-8.18,56.99,9.47,12.46,15.48,18.7,35.97,31,60.99Z" stroke-width="0"/><path d="M800.25,720.82c-12.3-25.02-18.54-45.51-31-60.99-14.21-17.65-37.03-12.99-56.99-9.47-11.67,2.06-22.66,7.83-34.31,10.22-16.07,3.29-30.22,7.43-34.45-18.98-4.42-27.6-30.39-36.58-55.66-41.06-9.52-1.69-19.42-1.62-29.15-1.64-46.91-.06-62.7-12.87-76.15-58.52-15.4-52.25-10.52-100.27,24.45-143.84,49.3-61.41,98.11-123.21,147.3-184.7,4.63-5.79,10.11-11.02,15.8-15.8,14.34-12.05,26.55-9.27,31.28,8.79,6.23,23.79,9.92,48.22,15,72.32,3.85,18.24,14.02,25.14,33.92,28.32,44.79,7.15,88.97,18.73,132.88,30.43,19.41,5.17,32.64.66,45.5-13.78,16.32-18.33,33.49-36.06,51.61-52.61,20.22-18.47,28.03-17.31,34.68,9.78,7.41,30.19,9.38,61.8,12.61,92.91,1.85,17.85.52,36.05,2.63,53.85.81,6.87,7.19,13.09,11.03,19.61,3.06-6.5,9.18-13.24,8.71-19.48-3.88-51.36-7.54-102.82-14.21-153.87-4.71-36.02-36.18-47.1-64.21-24.02-15.45,12.72-29.74,27.06-43.3,41.81-26.69,29.02-30.17,29.44-67.38,18.39-38.43-11.42-77.54-20.55-121.21-31.95-3.64-17.2-9.1-40.24-13.26-63.52-3.62-20.24-10.68-41.57-31.21-44.6-14.05-2.08-33.03,7.53-44.92,17.65-17.33,14.74-30.65,34.34-45,52.41-29.14,36.69-56.85,74.55-86.9,110.46-61.91,73.99-64.82,85.26-65.96,156.43-15.19,9.5-43.91-11.59-52.85,20.3,21,2.71,39.24,5.06,57.48,7.41-.1,2.92-.19,5.84-.29,8.76-12.15,1.47-24.65,1.68-36.32,4.89-6.41,1.77-11.42,8.6-17.06,13.14,6.19,2.8,12.14,6.84,18.62,8.06,6.44,1.21,13.42-.25,20.14-.84,29.93-2.61,31.54-1.49,42.73,34.81-39.23-7.15-75.92-13.84-117.16-21.36,18.99-33.68,13.92-64.76.97-94.66-4.14-9.55-17.76-24.76-20.84-23.4-17.84,7.91-3.37,20.44.31,29.75,10.49,26.55,19.06,51.59-1.41,77.98-8.73,11.25-3.08,22.24,10.88,25.22,44.4,9.48,88.68,20.36,133.59,26.29,30.18,3.99,61.37-.3,92.05.83,9.74.36,22.05,3.68,28.21,10.28,7.93,8.49,10.85,21.64,15.94,32.79-9.34,3.24-18.55,8.88-28.02,9.36-96.62,4.94-191.21-5.28-282.05-40.75-88.13-34.41-140.51-99.39-163.96-189.94-2.93-11.33-11.94-21.08-18.13-31.57-.97,12.66-5.36,26.2-2.36,37.85,27.13,105.54,92.67,175.82,196.1,211.25,69.33,23.75,140.78,32.6,213.52,36.58,57.94,3.17,112.66-11.23,167.91-24.26,7.24-1.71,14.66-3.43,22.04-3.61,30.14-.73,39.58,12.68,30.73,42.47-20.68,0-41.38-1.17-61.89.28-27.93,1.98-44.73,19.17-51.99,45.19-3.15,11.27-8.28,15.79-20.07,16.17-76.23,2.49-152.78,11.59-228.57,7.18-139.53-8.11-256.26-65.15-328.42-190.06C-14.96,441,6.07,263.36,155.78,148.1c78.76-60.64,166.34-97.06,264.06-113.08,86.52-14.19,173.04-16.13,259.56-5.19,38.15,4.82,75.62,15.95,113.03,25.6,102.55,26.45,192.15,74.59,259.97,158.27,31.46,38.81,46.05,84.21,55.35,132.7,35.51,185.18-99.17,383.11-244.14,439.43-40.73,15.82-83.91,25.96-126.66,35.68-23.01,5.23-47.9,2.05-62.55-20.19-19.03-28.89,2.68-69.2,38.31-69.42,24.37-.15,48.8,8.99,73.17,8.84,21.62-.13,43.48-6.35,64.58-12.22,4.38-1.22,5.91-12.69,8.76-19.44-6.4.49-12.97.21-19.15,1.62-15.92,3.63-31.66,8.01-39.82,10.12ZM840.16,600.07c22.75-7.76,40.7-12.59,57.29-20.33,4.93-2.3,6.05-12.77,8.91-19.49-6.41.27-14.07-1.66-19.03,1.16-35.17,20-66.71,13.02-89.41-20.29-2.51-3.68-7.93-5.36-12-7.98-2.47,4.77-7.38,9.82-6.87,14.26.89,7.74,2.91,18.24,8.34,22.02,16.98,11.81,35.77,21.03,52.78,30.65ZM669.56,538.95c-8.27,6.04-18.34,11.02-24.51,19.01-2.65,3.43.71,17.03,4.9,19.23,14.01,7.37,29.38,14.62,44.75,15.94,7.98.68,17.04-11.2,25.61-17.4-5.62-7.72-9.86-17.36-17.23-22.66-8.66-6.23-20.04-8.69-33.53-14.11ZM588.22,527.18c2.92-.57,10.45-.27,15.83-3.52,8.64-5.22,15.86-12.8,23.68-19.38-9.48-.53-19.38-3.08-28.36-1.22-28.32,5.88-52.13-5.51-62.1-30.51-1.98-4.96-7.54-8.5-11.46-12.69-2.55,6.87-8.26,14.34-7.09,20.51,5,26.42,34.02,46.19,69.49,46.81ZM941.13,669.74c-6.41-8.62-8.52-14.45-12.5-16.33-23.93-11.29-48.04-22.34-72.72-31.82-5.13-1.97-12.93,3.01-19.49,4.79,4.41,5.09,7.84,12.18,13.4,14.94,23.11,11.43,46.67,22.03,70.55,31.74,4.58,1.86,11.33-1.63,20.77-3.31ZM826.36,641.32c-2.54,2.81-7.32,5.73-7.34,8.69-.04,4.29,2.16,10.43,5.49,12.63,22.15,14.64,44.66,28.76,67.56,42.21,3.78,2.22,9.99.3,15.07.29-.84-5.24.23-12.85-2.84-15.33-15.47-12.46-31.66-24.15-48.35-34.95-8.54-5.53-18.65-8.64-29.59-13.54Z" fill="#fff" stroke-width="0"/><path d="M840.16,600.07c-17.01-9.62-35.8-18.83-52.78-30.65-5.42-3.78-7.45-14.28-8.34-22.02-.51-4.43,4.4-9.48,6.87-14.26,4.07,2.61,9.5,4.3,12,7.98,22.7,33.31,54.24,40.29,89.41,20.29,4.96-2.82,12.62-.89,19.03-1.16-2.86,6.72-3.98,17.19-8.91,19.49-16.59,7.74-34.53,12.57-57.29,20.33Z" stroke-width="0"/><path d="M669.56,538.95c13.49,5.42,24.86,7.88,33.53,14.11,7.36,5.3,11.6,14.94,17.23,22.66-8.57,6.2-17.63,18.08-25.61,17.4-15.36-1.32-30.73-8.57-44.75-15.94-4.19-2.2-7.56-15.8-4.9-19.23,6.17-7.99,16.23-12.97,24.51-19.01Z" stroke-width="0"/><path d="M588.22,527.18c-35.47-.62-64.5-20.39-69.49-46.81-1.17-6.17,4.55-13.64,7.09-20.51,3.91,4.19,9.48,7.73,11.46,12.69,9.96,25,33.78,36.39,62.1,30.51,8.98-1.86,18.88.69,28.36,1.22-7.82,6.58-15.04,14.16-23.68,19.38-5.38,3.25-12.91,2.95-15.83,3.52Z" stroke-width="0"/><path d="M941.13,669.74c-9.44,1.68-16.19,5.17-20.77,3.31-23.88-9.72-47.44-20.31-70.55-31.74-5.57-2.75-8.99-9.84-13.4-14.94,6.57-1.78,14.37-6.76,19.49-4.79,24.68,9.48,48.79,20.53,72.72,31.82,3.98,1.88,6.1,7.71,12.5,16.33Z" stroke-width="0"/><path d="M826.36,641.32c10.94,4.89,21.05,8.01,29.59,13.54,16.69,10.8,32.87,22.49,48.35,34.95,3.07,2.47,2,10.08,2.84,15.33-5.09,0-11.3,1.93-15.07-.29-22.89-13.45-45.41-27.56-67.56-42.21-3.33-2.2-5.53-8.34-5.49-12.63.03-2.96,4.81-5.88,7.34-8.69Z" stroke-width="0"/></g></svg>