<?xml version="1.0" encoding="UTF-8"?><svg id="b" xmlns="http://www.w3.org/2000/svg" viewBox="0 0 1034.53 695.48"><g id="c"><path d="M179.14,245.77c.15-1.49.3-2.99.44-4.48,4.08-27.16,4.43-54.29,3.04-81.82-1.59-31.35-2.19-62.99,3.72-94.22,2.34-12.37,6.41-24.07,12.57-35,6.79-12.07,17.26-17.52,31.07-16.29,28.39,2.54,52.24,16.43,75.97,30.55,5.6,4.86,13.11,7,18.22,12.61.77,1.13,1.21,2.39,1.36,3.75.07,2.8-.87,5.29-2.32,7.64-.77,1.16-1.74,2.11-2.89,2.88-3.07,1.87-6.33,2.82-9.95,2.17-10.85-3.23-19.61-10.35-29.27-15.8-13.23-7.47-26.84-14.06-41.64-17.72-14.79-3.65-20.57-.76-25.1,13.98-4.31,14.02-7.49,28.42-7.35,43.27.19,19.56-1.29,39.13.05,58.7-.46,12.77,1.22,25.38,2.59,38.01.03,3.02-.05,6.02-.53,9.01-2.93,14.99-7.39,29.7-8.01,45.1-2.88,10.18-2.84,20.43-.72,30.73,1.05,3.19,1.27,6.66,3.22,9.55,5.46,3.24,11.4,1.7,17.06,1.71,122.11.1,244.23.06,366.34.12,6.64,0,13.39-.84,19.9,1.47,2.1,1.5,4.83,2.79,2.1,5.99-6.54,4.1-13.86,2.65-20.87,2.66-131.87.15-263.75-.05-395.61.17-1.68.16-3.37.2-5.06.15-17.88-.51-35.77-.5-53.66.02-1.56.36-3,.99-4.28,1.96-3.72,4.72-2.53,10.28-2.53,15.5-.08,105.17-.08,210.34-.03,315.51,0,16.64.82,17.5,17.27,17.5,256.72.04,513.44.04,770.16,0,5.3,0,10.77.62,15.48-2.77,4.83-3.37,9.87-4.7,15.32-1.39,4.1,14.45,2.15,18.41-12.37,25.1-1.71-.13-3.18-.78-4.46-1.91-10.58-5.6-22.39-5.63-33.61-5.65-245.65-.32-491.3-.22-736.96-.37-7.11,0-12.95,2.27-18.76,5.59-8.62,3.55-17.85,1.51-26.72,2.87-1.66-.14-3.15-.74-4.46-1.76-6.2-6.65-4.69-15.02-4.71-22.87-.13-66.38-.07-132.76-.07-199.14,0-4.01-.12-8.02-.04-12.03.19-9.47-4.22-11.59-12.7-8.71-15.6,5.3-31.26,10.48-47.19,14.67-6.05,2.44-12.82,2.59-18.63,5.84-5.38,1.56-10.7,4.5-16.37.88l-1-.68-1.2.03c-7.81-4.75-7.57-10.12-1.25-15.98,2.05-3.5,4.1-6.99,6.15-10.49,2.16-7.68,7.45-13.57,11.45-20.19,7.04-9.66,14.11-19.3,20.5-29.42,3.13-5.63,10.23-8.26,11.47-15.3,2.32-3.96,5.17-7.6,7.04-11.83.97-2.15,2.22-4.11,3.93-5.75,5.1-4.24,7.06-10.72,11.12-15.71,7.73-11.21,16.18-21.89,23.39-33.48,2.44-3.93,4.82-8.6,10.18-9.79.87-.34,1.74-.69,2.61-1.03,11.99-1.4,24.03-.46,36.04-.58,21.41-.22,24.55-2.76,27.79-23.45.54-3.47.07-7.22,2.79-10.08Z" fill="#070706" stroke-width="0"/><path d="M554.77,24.35c3.23-1.13,6.45-2.26,9.68-3.4,14.37-9.95,29.42-9.88,40.12.19.42,3.58,4.39,3.05,6.04,5.21,13.22,8.16,12.29,22.37,14.97,35.03.28,1.76.57,3.51.85,5.27,1.38,3.44.57,7.29,1.99,10.73.21,2.66.43,5.32.64,7.98,10.42,32.1,8.32,64.17-.2,96.22-.1,1.79-.19,3.58-.29,5.36,2.35,2.65,1.12,4.89-.79,7.04-4.62,2.35-6.25,5.56-3.95,10.73,1.2,2.69,2.35,6.73-1.08,8.33-4.18,1.95-6-2.31-8.15-4.96-7.48-9.21-4.77-20.3-5.65-30.75-1.13-33.76,2.44-67.63-2.72-101.28-.88-5.73-1.88-11.41-3.47-16.98-5.87-20.63-13.29-24.39-33.27-17.27-21.54,7.68-40.9,19.53-60.37,31.17-3.44,2.21-6.99,4.24-10.37,6.56-5.22,3.17-10.3,6.65-16.5,7.79-11.9-.58-23.41-3.99-35.28-4.84-6.27-1.87-12.71-1.57-19.14-1.51-1.5.06-2.99.06-4.49.05-23.7.1-47.45-1.08-70.87,3.83-6.38,1.13-12.72,2.64-19.27,2.42-5.31-1.4-10.38-3.2-13.17-8.5.97-3.08,2.95-6.08,1-9.49l.03-.02c4.38-4.18,10.81-.49,15.35-4.05,2.28-.83,4.77-.02,7.05-.87l.94.37.71-.72c25.98-9.79,53.03-10.31,80.12-8.17,14.61,1.15,29.34,2.06,43.75,5.18,8.51,1.84,15.71-1.18,22.64-5.71,11.19-7.31,22.47-14.49,34.5-20.37,9.52-3.56,17.79-10.56,28.63-10.6Z" fill="#060606" stroke-width="0"/><path d="M133.84,684.37c-6.24,0-12.48,0-18.72,0-1.97-2.15-2.46-4.69-2.01-7.49,1.59-5.57,6.17-5.82,10.71-5.79,12.02.08,23.98-1.29,36.02-1.29,244.99.12,489.98.08,734.97.1,13.29,0,26.59-.43,39.83,1.7,3.35.54,7.87-1.27,8.88,3.13,1,4.36-3.39,5.58-6.71,6.72-2.12.73-4.2,1.46-5.94,2.92h0c-7.14,4.96-15.3,3.99-23.27,3.99-243.11.01-486.22.02-729.33-.03-9.35,0-18.69.66-28.04.37-5.79-.18-11.67-.06-16.38-4.33Z" fill="#fcfcfc" stroke-width="0"/><path d="M133.84,684.37c265.67,0,531.35,0,797.02,0-1.75,3.6-4.42,6.27-8.02,8.01-5.08,2.53-10.52,1.23-15.77,1.23-242.69.08-485.38.06-728.07.14-5.24,0-10.69-1.37-15.74,1.31-6.22-.02-12.46.3-18.65-.16-6.23-.47-11.38-2.75-10.77-10.53Z" fill="#fefefe" stroke-width="0"/><path d="M626.35,192.42c.74-1.82,1.48-3.64,2.21-5.46,5.86,1.55,10.05,6.42,16.67,7.11,5.24.55,7.09,17.37,2.83,22.46-.26.31-1.63-.32-2.48-.51,1.09,8.46,6.45,16.04,4.52,25.18-2.31,10.93,1.93,16.78,13.73,16.05.87-.05,1.84,1.51,2.82,2.37-.77.86-1.23,1.86-1.82,1.94-6.81.93-17.26-2.3-14.46,10.59,2.35,10.78,11.8,3.89,17.86,5.58,1.41.39,4.06.13,3.78-2.41-1.53-14,8.84-10.67,16.07-10.68,74.25-.17,148.49-.15,222.74-.03,7.68.01,16.53-3.43,18.71,10.22,1.1,6.86,12.49.25,17.76,5.11-.58.67-1.15,1.34-1.72,2.02-4.39,2.7-9.28,2.77-14.22,2.75-93.16-.44-186.32.24-279.47-.37-15.59-1.6-18.81-4.3-18.99-19.33-.24-20.03-5.05-39.33-8.22-58.89-.8-4.93-2.16-9.49,1.67-13.67Z" fill="#fcfcfc" stroke-width="0"/><path d="M39.94,440.39c21.67-7.21,43.35-14.42,67.19-22.36v15.26c0,73.53-.01,147.05,0,220.58,0,5.72-.89,11.62,2.81,16.73-.06,6.54-6.28,6.22-9.14,5.77-5.43-.86-3.18-6.95-4.41-10.75-3.3-5.22-2.68-11.06-2.68-16.81,0-62.57.02-125.15,0-187.72,0-18.16-3.93-19.33-21.83-13.17-9.56,3.29-21.06.91-31.69,1.08,1.58-2.92-.2-5.74-.25-8.62Z" fill="#fcfcfc" stroke-width="0"/><path d="M307.06,48.2c-16.29-8.05-31.73-17.82-48.9-24.07-3.75-1.37-7.57-2.59-11.4-3.71-29.06-8.52-42.67-1.89-51.74,26.91-11.98,38.03-12.3,77.35-8.54,116.43,2.56,26.6-.05,52.09-6.89,77.53,1.56-36.65-.64-73.29.68-110.01.95-26.38-1.04-53.04-.01-79.62.29-7.59,7.32-15.51-.69-23.28-1.41-1.37-.6-6.51,3.93-6.72,6.47-.3,4.98,5.72,7.16,10.59,5.53-8.94,14.52-14.88,10.64-26.73-1.28-3.9,1.21-5.97,5.19-5.26,13.77,2.44,28.55-4.28,41.73,4.58.84.57,3.84-1.67,5.59-2.94,3.04-2.22,10.25-.56,9.79,2.84-2.73,20.07,12.76,18.45,22.89,16.88,15.86-2.45,21.88,2.12,21.1,17.6-.1,1.94,1.81,3.98,2.78,5.97.37,2.61-.39,3.99-3.3,3.02Z" fill="#fcfcfc" stroke-width="0"/><path d="M967.64,320.97c-.09.96.23,1.74.96,2.37,3.75,3.29,6.02,7.58,8.16,11.97,15.28,31.42,30.28,62.97,44.56,94.85,2.25,5.02,5.83,10.48-.13,15.62l.51.44-.44-.52c-2.82,6.86-7.21,7.17-12.68,3.05l.09.04c-19.61-6.03-38.24-14.28-55.89-24.72-.9-.92-1.42-2.04-1.6-3.31,6.89-5.74-4.48-7.72-2.58-12.44.69-2.53,1.83-4.72,4.28-5.99,13.2-.55,22.3,10.08,35.1,11.64-11.73-25.05-24.51-50.29-35.45-75.99-.98,8.66,3.97,18.56-3.94,26.58-5.68.43-6.56-3.44-6.01-7.53,1.06-7.84-1.38-15.36-1.51-23.05.08-3.6,1.99-6.43,3.57-9.55,8.31-16.49,8.19-16.55,20.17-4.19,1.09-.32,2.03-.04,2.83.73Z" fill="#0b0808" stroke-width="0"/><path d="M952.28,422.2c19.63,7.1,38.08,16.7,56.39,26.61-4.27,2.39-6.92,5.99-13.5,1.26-12.94-9.29-24.17-2.27-24.18,13.67-.02,53.77-.21,107.55.17,161.32.07,10.21-.95,17.6-13.54,16.52-5.1-5.08-3.67-11.63-3.69-17.68-.13-54.24-.02-108.48-.12-162.71-.02-9.25,1.07-18.6-3.07-27.54-1.71-3.69-.88-7.88,1.53-11.45Z" fill="#fcfcfc" stroke-width="0"/><path d="M529.59,36.7c-15.57,9.48-30.13,22.12-47.01,27.53-16.46,5.27-34.66-3.08-52.23-4.45-28.7-2.23-56.87,1.71-85.21,4.25,1.08-6.95,6.87-6.76,11.88-8.42,4.36-1.44,11.94.62,10.75-8.85-.63-4.97,4.34-4.31,7.8-4.19,26.57.9,53.15-1.2,79.75,1.2,15.57,1.41,31.37.26,48.81.26-4.78-9.23-5.28-16.02.88-21.88,4.73,1.41-.62,8.26,4.74,8.11,3.06-.09,4.92-3.01,5.47-6.57.6-3.88,4.16-2.01,6.48-2.49,5.99,3.46,8.97,8.46,7.89,15.52Z" fill="#fcfcfc" stroke-width="0"/><path d="M96.4,665.63c2.04,8.39,7.09,8.59,13.55,4.98.88.1,1.74.02,2.58-.24,23.07-.93,46.02-3.37,69.2-3.34,240.62.28,481.25.17,721.87.21,7.55,0,15.16-.7,22.66.92,1.68.66,3.22,1.57,4.61,2.72.89,0,1.79.01,2.68.02,3.93-2.4,8.06-3.37,12.55-1.72,2.75,1.61,4.59,3.68,3.54,7.18-3.05,1.78-.21,3.55.01,5.33.9.62,1.19,1.22.88,1.81-.31.59-.62.88-.93.88-6.25,0-12.49,0-18.74,0,.09-7.06,8.05-4.47,10.93-9.91-3.24-.23-6.37-.65-9.5-.65-267.59-.03-535.18-.05-802.77.14-4.96,0-12.16-3.68-14.41,5.09-2.07,2.21-4.32,4.06-7.65,3.6-3.46-1.94-8.1-.28-11.13-3.59-1.13-4.47-3.8-8.95.06-13.4Z" fill="#f3f5f4" stroke-width="0"/><path d="M1021.18,445.79c1.92-5.64-.77-10.3-3.02-15.16-16.57-35.74-33.05-71.52-49.57-107.29,20.35-4.67,22.26-3.12,22.61,17.82.06,3.51,1.18,7.02,1.1,10.52-.23,10.78,2.56,15.69,13.83,8.79,7.84-4.8,8.13,1.82,7.46,6.5-1.39,9.7.65,19.33-.04,28.88-.78,10.83,7.03,12.73,13.59,12.36,6.54-.37,6.25.77,6.94,6.38,1.45,11.82-1.23,23.51.11,35.07.85,7.32-3.34,10.53-7.41,14.28-2.49,2.29-4.85,8.24-9.37,3.11-5.58-6.34,2.88-5.42,4.81-7.62,4.58-5.21,6.62-9.63-1.04-13.64Z" fill="#fcfcfc" stroke-width="0"/><path d="M163.26,695.06c4.88-4.82,11.02-2.57,16.53-2.57,247.68-.12,495.36-.11,743.04-.11-4.88,4.82-11.02,2.57-16.53,2.57-247.68.12-495.36.11-743.04.11Z" fill="#fefefe" stroke-width="0"/><path d="M628.85,181.59c1.72-32.07,3.06-64.14.2-96.22.4.18.79.45,1.21.53,4.88.94,8.63,8.15,14.43,3.12,2.28-1.98,2.81-.95,3.39.75.84,2.47,2.27,5.27,1.78,7.58-3.98,18.67,3.32,37.68-2.07,56.39-1.53,5.33-.37,11.43-.44,17.18h0c-3.39-1.52-1.65-5.69-4.25-8.1-3.35,6.24,2.02,14.22-4.06,19.58-5.34-2.61,1.93-7.41-2.13-10.44-4.34,1.88-3.02,8.55-8.07,9.64Z" fill="#fcfcfc" stroke-width="0"/><path d="M952.28,422.2c11.89,72.88,2.15,146.29,5.34,219.38-1.2,7.09,2.66,14.82-2.69,21.39-1.93-2.81-1.27-6.01-1.27-9.06-.04-63.54-.03-127.08-.02-190.62,0-2.43-.33-4.89-.09-5.39.01,65.45-.01,132.75,0,200.04,0,1.82.32,3.51,1.38,5.02,0,.89,0,1.79,0,2.68-2.05,3.08-4.24,5.04-7.22.92-1.96-7.99.28-16.28-1.75-24.27-1.46-57.24-.57-114.48-.48-171.72.02-12.42-.19-24.86.21-37.27.16-5.03-1.05-11.05,5.86-13.25.24.71.48,1.43.71,2.14Z" fill="#f8f3f1" stroke-width="0"/><path d="M604.57,21.15c-13.34-7.74-26.74-2.27-40.12-.19.1-.88.21-1.76.31-2.65.73-6.04.45-16.88,2.35-17.28,8.24-1.73,17.12-.52,25.76-.07,1.94.1,3.44,3.42,5.84,1.69,10.35-7.46,8.5,2.93,6.76,5.7-2.94,4.7,4.1,9.1-.91,12.8Z" fill="#fcfcfc" stroke-width="0"/><path d="M179.14,245.77q.25,34.19-33.52,34.18c-11.03,0-22.06-.04-33.09-.06,10.23-4.36,20.99-2.03,31.39-1.74,10.97.3,18.36-1.42,14.63-14.33-2-6.93,3.5-5.92,6.27-7.23,5.86-2.78,2.55,3.7,4.17,4.76,13.04-6.27-5.22-17.93,4.31-25.18,5.3,1.45,1.78,7.8,5.85,9.6Z" fill="#fcfcfc" stroke-width="0"/><path d="M109.91,280.92c-10.59,15.11-21.18,30.21-31.77,45.32-2.03,1.1-3.62.3-5.07-1.16-.26-.58-.52-1.17-.77-1.76.38-3.48,1.84-7.27.96-10.4-3.07-10.89.86-14.93,11.64-13.69,7.23.83,8.66-3.22,8.96-9.59.62-13.27,2.9-14.3,16.05-8.73Z" fill="#fcfcfc" stroke-width="0"/><path d="M45.18,374.09c-5.9,10.68-12.92,20.58-20.81,29.87-7.65-2.23-8.05,10.94-16.21,7.61-.93-4.45,2.96-8.9-.01-13.34,3.98-3.68,1.92-10.97,8.01-13.39,9.23,2.64,14.62.19,13.36-10.43-1.49-12.57,5.53-11.04,13.4-8.29,2.12,2.27,1.06,5.44,2.27,7.96Z" fill="#f2f4f2" stroke-width="0"/><path d="M967.64,320.97c-.68,0-1.33-.13-1.96-.4-8.8-12.13-17.66-24.24-18.8-39.97,0,0,.43-.68.43-.68,3.88-.61,8.02-2.37,11.57-1.56,6.67,1.52,15.17,2.15,11.79,13.54-2.78,9.38,4.6,20.03-3.04,29.07Z" fill="#fcfcfc" stroke-width="0"/><path d="M8.13,449.5c5.26-1.09,10.51-2.18,15.77-3.26,2.95-1.31,5.8-2.38,5.64,2.73-.05,3.07-4.91,3.94-2.22,9.13,2.9,5.6,4.93,11.67-8.37,11.56-10.82-.09-5.78-7.54-9.53-9.76,7.57-4.46-1.81-6.81-1.29-10.4Z" fill="#fcfcfc" stroke-width="0"/><path d="M66.96,341.65c-1.08,1.87-2.16,3.75-3.24,5.62-4.28-1.42-8.52.85-12.79.15v-2.64q0-22.85,21.37-21.46s.03.02.03.02c1.08,6.95-5.38,11.68-5.37,18.31Z" fill="#fcfcfc" stroke-width="0"/><path d="M625.58,61.4c-4.56-11.86-7.37-24.47-14.97-35.03,4.42-4.88,10.85-4.96,15.33-2.66,5.19,2.67,2.61,8.72.44,12.97-4.21,8.23,3.23,16.63-.79,24.72Z" fill="#f1f1f1" stroke-width="0"/><path d="M529.59,36.7c-2.63-5.17-5.26-10.35-7.89-15.52,10.9,2.31,22.43-1.83,33.07,3.18-8.39,4.11-16.79,8.23-25.18,12.34Z" fill="#ededed" stroke-width="0"/><path d="M326.39,42.56c9.03-.9,17.85,5.68,27.13.54,1.86-1.03,4.57.55,3.91,3.5-.58,2.6.64,6.38-4.32,6.7-8.6.56-16.67-.57-23.98-5.4-4.57.1-4.44-2.22-2.74-5.34Z" fill="#fcfcfc" stroke-width="0"/><path d="M326.39,42.56c.09,2.2.54,4.22,2.74,5.34-.9,1.79-1.8,3.58-2.7,5.37-1.57,1.45-.52,4.22-2.7,5.36-6.17-2.5-11.72-5.97-16.67-10.43,1.1-1.01,2.2-2.02,3.3-3.02,5.36-.75,10.38-3.59,16.02-2.62Z" fill="#ededed" stroke-width="0"/><path d="M152.89,259.75c-11.07,1.94-22.1,3.46-32.68-1,11.1-2.38,22.11-3.53,32.68,1Z" fill="#fcfcfc" stroke-width="0"/><path d="M8.15,411.58c5.73-1.84,6.06-15.18,16.21-7.61-3.69,6.74-6.77,13.94-13.54,18.43-1.79-3.38-3.13-6.88-2.68-10.81Z" fill="#fcfcfc" stroke-width="0"/><path d="M949.6,684.37c.02-.9.03-1.79.05-2.69,8.78,1.59,11.95-7.58,20.12-10.98-.82,5.37,2.27,9.55-1.46,13.67-3.57,1.71-7.13,2.86-10.7,0h-8.01Z" fill="#fcfcfc" stroke-width="0"/><path d="M107.07,681.76c2.68-.91,5.37-1.82,8.05-2.73v5.34c-6.24,12.8-12.48,7.16-18.72,0,2.95-3.37,6.92-2.55,10.67-2.61Z" fill="#fefefe" stroke-width="0"/><path d="M50.93,347.42c4.22-3.43,8.41-10.04,12.79-.15-1.53,4.24-4.08,7.76-7.52,10.65-2.24.2-3.86-.93-5.27-2.49v-8.01Z" fill="#f4f3f3" stroke-width="0"/><path d="M949.52,668.29c1.81-.88,3.62-1.76,5.42-2.64,1.95,4.57,7.45-4.8,7.45,1.22,0,7.09-5.93,9.71-12.75,9.48-.93-1.86-1.87-3.72-2.8-5.58-.36-2.18.4-3.15,2.68-2.49Z" fill="#fcfcfc" stroke-width="0"/><path d="M323.72,58.63c.1-2.19.53-4.21,2.7-5.36,5.69,3.7,11.37,7.4,17.06,11.1-2.12.87-4.25,1.74-6.37,2.6-6.8,2.75-10.16-1.36-13-6.51-.01-.64-.14-1.25-.38-1.83Z" fill="#fcfcfc" stroke-width="0"/><path d="M50.93,355.43c2.13.03,4.07.48,5.27,2.49-2.73,6.04-6.26,11.53-11.02,16.17-3.99-1.73-4.31-4.51-2.27-7.96,3.13-3.23,9.83-3.78,8.02-10.7Z" fill="#fcfcfc" stroke-width="0"/><path d="M29.55,448.97c-1.88-.91-3.76-1.82-5.64-2.73,4.74-3.62,10.55-4.28,16.04-5.84,2.68,2.8,5.02,5.6.25,8.62-3.55-.01-7.1-.03-10.65-.04Z" fill="#ececec" stroke-width="0"/><path d="M1008.58,448.76c4.67.85,8.99.19,12.68-3.05.57,5.59-2.15,9.54-7.35,10.23-4.32.58-5.19-3.52-5.33-7.18Z" fill="#fcfcfc" stroke-width="0"/><path d="M16.15,384.85c-3.99,3.67.21,12.25-8.01,13.39.05-6.03-.89-12.65,8.01-13.39Z" fill="#fcfcfc" stroke-width="0"/><path d="M107.07,681.76c-2.83,3.84-6.99,2.23-10.67,2.61-.21-1.78-2.96-3.52-.06-5.33,3.22,2.31,9.04-5.6,10.73,2.73Z" fill="#fcfcfc" stroke-width="0"/><path d="M998.16,470.98c-3.7-5.2-5.04-9.06-4.56-13.69,2.85,3.39,8.37,5.49,4.56,13.69Z" fill="#fcfcfc" stroke-width="0"/><path d="M957.61,684.37c3.57-.1,7.13-2.6,10.7,0-.3,3.7-2.29,5.39-6,5.15-3.26-.21-4.36-2.31-4.7-5.16Z" fill="#fefefe" stroke-width="0"/><path d="M1010.71,463.44c-.07,1.91-.82,3.53-2.9,3.37-1.78-.14-3.29-1.49-2.99-3.41.16-.99,1.45-2.22,2.49-2.54,1.95-.61,3.21.46,3.4,2.58Z" fill="#fcfcfc" stroke-width="0"/><path d="M628.42,77.39c-2.27-3.28-2.31-6.97-1.99-10.73,2.23,3.29,4.77,6.51,1.99,10.73Z" fill="#fcfcfc" stroke-width="0"/><path d="M647.36,170.91c3.52,3.05,3.2,6.67,1.58,11.05-2.88-3.71-.98-7.57-1.58-11.05h0Z" fill="#fcfcfc" stroke-width="0"/><path d="M332.31,85.13c5.76-1.26,11.36-3.55,17.45-2.74,22.62.88,45.22-4.18,67.75-.87,5.01.74,5.08-3.18,7.85-4.04.9.04,1.81.07,2.71.11,6.07,2.64,12.15,5.23,18.84,1.95,12.57-.29,24.6,2.91,36.71,5.58,8.55-2.31,17.02-4.6,26.11-3.8,5.24.46,14.72,8.21,15.85,14.21.33,1.76.7,3.5,1.85,4.91,3.94,4.8,7.52,4.4,10.73-.84,10.49,1.67,18.68,6.22,21.64,17.29-2.68,3.87-6.08,1.98-9.36,1.05-.79,2.79,1.06,4.96,2.9,5.18,8.91,1.09,15.41,2.61,15.98,14.57.23,4.8,9.99,6.88,16.86,5.85,2.42,1.31,3.7,3.4,4.2,6.04-.05,7.1-1.32,14.43,9.88,14.63,6.45.11,8.31,5.33,7.9,11.51-.75,11.12,1.04,21.97,4.32,32.64.21,1.52.21,3.01.04,4.53-2.89,13.24-.37,26.61-1.22,39.89-.6,9.27-4,15.56-14.18,15.57-31.06.04-62.15,1.76-93.15-.94-4.53-1.49-6.59-4.69-4.9-9.2,1.77-4.75,6.1-6.1,10.8-6.23,15.96-.45,31.87,1.18,47.83,1.24,9.45.04,15.82-3.99,21.75-10.29,1.86-1.97,1.42-3.97.97-6.13-.97-4.97-5.07-8.34-6.68-12.97,2.2-5.29,1.65-5.87-4.35-5.96-25.77-.41-51.52-.48-77.27.98-6.04.34-9.7,1.76-8.34,8.45,2.35,11.55-4.94,14.5-13.75,14.23-6.17-.19-9.67.25-8.64,7.39,4.11,17.99,3.13,19.3-16.09,19.4-26.26.13-52.53.2-78.79-.04-15.85-.15-17.03-1.04-20.09-16.57-1.47-7.46-4.38-11.52-12.53-9.11-3.66.47-7.02-.1-9.72-2.84-.07-8.88.96-18.29-12.14-19.27-2-.15-2.89-3.08-.44-5.04,3.02-.48,6.03-.65,7.72-.32-2.69-.04-6.87-1.24-10.17,2.42-22.84.83-45.69-.82-68.51.28-5.07-.74-10.45-5.21-16.78,3.19,6.53-4.27,11.25-7.1,15.62-1.37.84,1.83.97,3.72.65,5.67-2.64,9.1,3.02,9.01,9.53,9.31,21.35,1.01,42.68,2.6,62.76,10.95,4.88,2.03,10.21,3.55,12.92,8.85,3.11,8.05,1.59,12.09-8.25,12.71-37.29,2.38-74.61.28-111.9,1.42-7.35.23-9.24-2.86-8.09-9.74.56-3.34,2.05-6.84.7-10.39-.13-15.71,3.74-30.68,8.52-45.47,2.4-2.67,2.41-9.44,7.22-7.51,5.6,2.25,1.11,8.81,3.31,15.61,1.96-10.78,4.51-19.27,3.85-28.12-.71-9.57.8-16.59,12.51-16.99,2.94-.1,5.07-3.05,6.92-5.48-1.15,1.21-2.11,3.27-3.55,3.42-15.29,1.61-16.62,11.54-16.21,24.21.31,9.7-9.18,4.75-14.07,6.82-2.01-13.28-3.65-26.59-2.86-40.07,5.57-8.35,14.02-3.43,21.11-4.34,9.05-1.16,15.52-3.48,12.17-14.57-.1-3.39,1.17-6.21,3.46-8.63,1.04-.75,2.18-1.32,3.4-1.72,9.12-1.79,18.28-2.56,28.35-.34-3.47-5.15-.73-8.7,1.41-12.27,4.24-7.08,9.32-13.42,9.45-22.63.1-7.01,6.91-8.7,12.82-8.92,12.36-.46,24.73-.22,36.7,3.67Z" fill="#fefefe" stroke-width="0"/><path d="M500.26,264.51c31.61,0,63.23-.27,94.83.17,9.11.13,12.48-2.43,12.4-11.99-.13-15-2.49-30.27,2.71-44.99,1.25.39,2.9.39,3.42,1.74,8.81,22.56,13.18,45.69,8.62,69.9-.26,1.37-1.64,2.02-2.62,2.93-5.39,2.85-11.25,2.26-17,2.26-128.92.03-257.84.03-386.76,0-6.18,0-12.56.76-17.84-3.7-5.36-10.76-2.54-21.57-.22-32.38.38.23,1.11.56,1.08.69-4.85,19.32,8.8,15.69,19.31,15.32,31.78-1.14,63.66,2.67,95.39-2.07,3.2-.48,6.74,1.35,10.13,2.12,2-3.61-3.78-6.7,0-9.87,2.81-3.51,6.83,1.24,10.05-1.74,2.24-4.55-3.93-7.47-3.03-11.96,16.16-8.02,19.38-6.47,19.48,12.13.05,9.86,3.93,11.73,12.64,11.61,28.36-.41,56.72-.24,85.08-.1,8.74.04,18.27,1.5,9.83-12.22-1-1.63-.24-4.35-.29-6.56,8.2-6.17,10.18,5.43,16.31,5.89,1.77.13,3.15,4.06,6.17,4.23,5.3-.13,9.57-5.42,15.34-3.09,5.16,2.42,2.13,8.29,4.96,11.7Z" fill="#fafbf8" stroke-width="0"/><path d="M930.86,670.88c-.9-.01-1.8-.02-2.71-.03-5.11-2.38-10.54-1.17-15.8-1.17-253.36-.07-506.72-.05-760.08-.13-5.24,0-10.68,1.32-15.76-1.24,5.77-6.38,12.88-8.17,21.46-8.16,244.69.18,489.37.18,734.06.04,11.61,0,22.73,4.35,34.43,2.83,7.43-.97,4.46,4.37,4.4,7.85Z" fill="#09070a" stroke-width="0"/><path d="M237.76,135.2c1.87,2.83,7.82,7.81,5.41,7.77-8.74-.15-3.35,14.27-14.34,11.33-7.85-2.1-16.88.23-25.39.58-2.84-31.98-1.71-63.77,5.28-95.16,5.95-26.71,13.08-30.15,39.38-20.98,23.19,8.08,43.39,21.87,64.84,33.27,2.99,1.43,7.19,1.18,7.9,5.74,3.82,2.46,7.63,4.92,11.45,7.38-11.84-.3-23.69-.79-35.53-.83-7.14-.02-12.97,1.57-11.53,11.19,1.7,11.39-9.57,16.5-13.18,25.45,2.11,3.02,4.96-1.63,8.63,2.32-11.76,8.78-25.41,1.05-36.88,4.96-1.36-10.22,7.54-13.04,13.35-17.55,22.17-17.24,25.13-12.87,1.98-35.9-6.31-6.28-13.16-11.85-20.46-16.88-6.8-4.69-11.31-2.99-14.05,4.91-3.67,10.59-4.36,21.65-5.9,32.6-1.88,14.26-1.22,28.53-.39,42.78.48,1.15.89,2.34,1.31,3.5,1.6,3.77,3.9,4.36,6.89,1.45,3.33-3.23,5.57-7.97,11.21-7.93Z" fill="#f7f7f7" stroke-width="0"/><path d="M198.03,280.83c1.75-.27,3.49-.78,5.24-.78,138.75.04,277.5.13,416.26.21,5.91-3.86-.43-11.09,4.19-15.31,9.79,9.64,8.43,18.51-3.47,23.93-5.04,2.29-10.21,2.74-15.59,2.37-128.63,0-257.24.03-385.86-.08-6.07,0-12.55,1.67-18.07-2.59-.9-2.58-1.8-5.17-2.69-7.75Z" fill="#030207" stroke-width="0"/><path d="M934.03,646.97c.03-115.93.07-231.86.1-347.79,7.81-2.8,9.81-1.36,9.47,7.55-.31,8.24-3.07,16.5.64,24.63-.22,9.86,5.25,19.51,1.21,29.59-.11.27,2.58,1.65,3.97,2.52,7.07,12.69,3.48,26.22,3.08,39.49-.23,2.34-.54,4.63-2.91,5.92-6.02,2.05-6.47,7.46-5.76,12.07,3.46,22.64-.39,45.1-.69,67.63-.66,49.21-.52,98.44.02,147.63-2.26,3.8,1.9,7.01,1.07,10.7-3.4-.12-6.78,2.81-10.2.06Z" fill="#020202" stroke-width="0"/><path d="M200.72,288.58h406.52c1.55,1.78,1.67,3.56,0,5.34-130.64,0-261.29.02-391.93-.05-5.72,0-12.18.64-16.94-1.74-4.7-2.35.59-2.81,2.35-3.55Z" fill="#050000" stroke-width="0"/><path d="M136.52,668.31c258.34,0,516.69-.01,775.03.11,5.54,0,11.64-2.17,16.61,2.42-4.43.21-8.86.6-13.29.6-262.6.03-525.2.04-787.8,0-4.85,0-9.69-.69-14.54-1.06,7.69-4.21,16.02-1.08,23.99-2.06Z" fill="#000105" stroke-width="0"/><path d="M607.24,293.92v-5.34c19.41-3.34,19.92-3.95,17.62-21.4-3.92,3.64,1.47,10.93-5.34,13.08,2.12-24.85-1.83-48.93-9.32-72.55.46-.82.31-1.5-.45-2.05.95-9.11-8-19.15,2.54-27.37,1.25,11.46-2.78,24.24,8.37,32.44q0-7.06-4.74-15.27c3.54-1.03,6.99-2.04,10.43-3.04,4.39,27.37,11.43,54.35,11.35,82.39-.03,8.86,8.36,3.5,12.34,5.83.87.86,1.35,1.89,1.47,3.1.22,7.25,5.97,6.17,10.44,6.79,3.84.53,8.16-.13,11.12,2.8,2.98,2.95,1.02,4.37-2.39,4.6-11.35-.52-22.71.94-34-.83-1.78,0-3.57,0-5.35-.01-7.19.8-14.42,2.39-21.41-1.01-.89-.72-1.78-1.43-2.67-2.15Z" fill="#0a0909" stroke-width="0"/><path d="M609.91,296.07c7.14.34,14.28.67,21.41,1.01-4.29,3.58-9.41,2.05-14.15,2.05-137.69.09-275.37.09-413.06,0-4.71,0-9.87,1.68-14.09-2.13,31.54-.16,63.08-.4,94.62-.46,108.42-.19,216.85-.32,325.27-.47Z" fill="#b6a994" stroke-width="0"/><path d="M42.41,410.4c5.67-8.48,11.34-16.96,17.01-25.44,3.12-.78,5.01.72,6.29,3.36,1.61,7.86-4.84,11.8-8.16,18.34,10-5.79,20.92-7.51,31.89-9.35,6.15-1.03,7.74-6.46,8.15-12.25.71-9.77.78-19.53.92-29.31.08-5.66-.84-11.75,4.43-16.04.6-.19,1.21-.37,1.82-.55,5.29,19.11,1.25,38.57,2.1,57.85.14,3.28-2.78,4.29-5.34,5.09-18.63,5.86-37.29,11.67-55.93,17.49-1.75-2.82-4.27-5.38-3.19-9.18Z" fill="#fefefe" stroke-width="0"/><path d="M206.3,194.95c10.07-1.9,15.38-6.97,13.28-18.13-.95-5.02.23-10.35,6.74-11,8.84-.88,12.21-7.68,16.43-14.66,1.83,9.66-.67,16.32-10.44,16.85-9.64.53-10,6.21-10.35,13.54-.56,11.78,2.74,23.98-2.81,35.47-13.42-3.6-4.83-12.95-5.31-20.33-2.94,2.45-5.23,4.37-7.52,6.29,0-2.68-.01-5.35-.02-8.03Z" fill="#f7f7f7" stroke-width="0"/><path d="M74.91,363.37c5.91-10.68,12.65-20.78,20.72-29.96,1.22.63,2,1.62,2.34,2.95-.76,8.48-4.34,16.13-7.94,23.56-2.67,5.51-6.83,11.09-14.37,5.28-.25-.61-.5-1.22-.75-1.83Z" fill="#fefefe" stroke-width="0"/><path d="M944.22,646.92c.39-2.42-5.45-1.73-2.67-5.35,3.98-3.09,5.98-.39,7.87,2.67.03,8.02.06,16.03.1,24.05-.89.83-1.79,1.66-2.68,2.49-4.43.04-8.86.08-13.29.12,8.2-5.93,13.13-13.31,10.68-23.98Z" fill="#09070a" stroke-width="0"/><path d="M187.34,297.04c-18.72,3.58-37.44,3.63-56.16-.02,18.72,0,37.44.01,56.16.02Z" fill="#b6a994" stroke-width="0"/><path d="M95.63,333.41c1.45-6.09,5.49-10.24,11.01-15.74.62,8.58,1.9,15.19-1.88,21.48l-.54.32c-4.7,1.28-5.11-3.64-7.73-5.35l-.86-.7Z" fill="#fefefe" stroke-width="0"/><path d="M64.26,387.54c-1.61-.86-3.23-1.72-4.84-2.58,4.74-7.5,8.94-15.39,15.49-21.59l.34.44c3.86,11.39-.57,18.94-10.99,23.73Z" fill="#fefefe" stroke-width="0"/><path d="M66.96,341.65c-3.82-7.75-3.25-14.21,5.37-18.31,1.94.97,3.87,1.93,5.81,2.9-3.5,5.3-5.48,11.71-11.18,15.41Z" fill="#f4f3f3" stroke-width="0"/><path d="M324.11,60.46c4.33,2.17,8.67,4.34,13,6.51-4.21,8.62-10.81.71-16.03,2.31,1.01-2.94,2.02-5.88,3.03-8.82Z" fill="#141414" stroke-width="0"/><path d="M42.41,410.4c.77,3.16,6.48,4.61,3.19,9.18-2.89,2.13-5.97,3.56-10.67,2.77,1.01-5.31,4.66-8.4,7.48-11.95Z" fill="#fefefe" stroke-width="0"/><path d="M320.85,77.75c-2.63-1.91-5.27-3.83-7.9-5.74,2.7-.9,5.4-1.8,8.1-2.71,4.41,2.92,2.79,5.7-.19,8.44Z" fill="#141414" stroke-width="0"/><path d="M612.3,178.29c-3.46,8.88-1.99,18.22-2.54,27.37-4.42-9.74-6.16-20.09-4.85-30.55.71-5.74-.83-9.54-6.16-8.54-20.12,3.76-10.03-9.58-10.19-17.16,15.78-15.49,8.9-34.55,8.28-52.61-1.52-12.58-1.96-25.36-7.23-37.19-3.36-6.75-8.01-5.1-12.87-1.93-3.94,2.51-7.9,4.99-11.22,8.34-5.65,6.18-13.86,9.66-18.14,17.27-4.75,5.03-9.08,10.27-8.95,17.77-1.45,2.48-.01,7.45-6.06,5.84-4.1-1.09-8.34.25-9.63-6.29-1.41-7.15-.52-13.77,2.32-22.71-14.24,8.29-27.9,7.23-41.43,7.23,4.62-2.67,9.25-5.33,13.87-8,3.49-.48,6.7-1.39,8.09-5.16,21.37-15.4,44.43-27.58,69.52-35.62,17.03-5.46,23.4-2.29,29.14,14.82,9.2,27.43,9.28,56,9.21,84.48-.03,14.22-.75,28.43-1.16,42.65Z" fill="#f8f8f8" stroke-width="0"/><path d="M425.36,77.48c-1,3.77,1.39,8.45-7.28,7.52-10.76-1.15-21.76-2.98-33.23-.23-11.31,2.71-23.53.75-35.09-2.37,24.89-6.4,50.16-6.97,75.6-4.91Z" fill="#f5f5f5" stroke-width="0"/><path d="M446.92,79.54c-7.61,12.17-13,2.96-18.84-1.95,6.39-.39,12.79-.89,18.84,1.95Z" fill="#f5f5f5" stroke-width="0"/><path d="M505.59,71.96c.76,7.14-3.74,6.03-8.09,5.16,2-2.82,4.79-4.38,8.09-5.16Z" fill="#fefefe" stroke-width="0"/><path d="M124.04,679.39h800.6c0,.45,0,.89,0,1.34H123.48c.19-.45.37-.89.56-1.34Z" fill="#f3f5f4" stroke-width="0"/><path d="M650.07,283.24c-.01-.86-.02-1.73-.04-2.59,29.27-.22,58.54-.66,87.81-.63,69.68.08,139.35.37,209.03.58,7.28,12.85,13.75,26.07,18.8,39.97-.78,1.97-1.06,5.1-2.42,5.68-3.89,1.66-4.25-2.43-4.25-4.43,0-5.01-2.95-7.53-7.07-11.1-2.35,7.68-1.82,15.51-7.71,20.63-9.07-6.84-5.21-15.76-3.84-24.24.81-5.02,2.66-10.67-6.26-7.94-.34-.76-.56-1.55-.66-2.38-6.79-4.01-14.24-4.3-21.88-4.29-73.95.07-147.91.02-221.86.07-14,0-27.06-3.58-39.66-9.34Z" fill="#040307" stroke-width="0"/><path d="M949.42,644.23c-2.62-.89-5.25-1.78-7.87-2.67-2.97-4.81-2.68-10.16-2.68-15.5.03-47.08-.78-94.18.36-141.23.54-22.47,3.59-44.73,0-67.32-1.69-10.59,2.56-12.99,10.35-8.63-1.44,4.1,13.08,5.36,1.99,11.18-3.02,3.51-1.4,7.68-1.4,11.51-.12,66.04-.09,132.07-.15,198.11,0,4.85-.39,9.71-.59,14.56Z" fill="#010609" stroke-width="0"/><path d="M952.49,402.96c-5.89-12.78-.62-26.44-3.08-39.49v-31.85c.92-.34,1.85-.68,2.77-1.02,14.05,29.75,28.1,59.49,43.21,91.48-15.84-7.06-29.37-13.09-42.91-19.12Z" fill="#fff" stroke-width="0"/><path d="M954.06,662.5c-.88-70.44-.88-140.41-.88-210.38.33,0,.67,0,1-.01v210.87c-.33-.32-.67-.63-.12-.47q.88.47,0,0Z" fill="#fcfcfc" stroke-width="0"/><path d="M650.07,283.24c89.99,11.19,180.36,2.85,270.53,5.03,7.36.18,9.51,4.32,12.87,8.53-.9.1-1.81.21-2.71.31,0,0-1.27-.36-1.27-.36l-1.28.28c-3.88,1.48-7.92.83-11.89.83-76.47.04-152.94.06-229.41-.05-4.26,0-8.92,1.65-12.79-1.72-5.62-4.11-12.24-.76-18.05-2.38-4.7-1.31-13.21-1.78-5.99-10.47Z" fill="#080200" stroke-width="0"/><path d="M128.55,641.59c-.5,3.9.84,7.34,2.65,10.66-7-.76-5.11-6.22-5.11-10.26-.07-110.97-.04-221.94,0-332.91,0-3.45-.92-7.24,2.38-9.95.02,114.15.05,228.3.08,342.45Z" fill="#dad3b7" stroke-width="0"/><path d="M216.37,92.36c-.55-11.77,2.32-22.99,6.02-33.96,2.72-8.04,7.81-10.04,15.39-5.1,14.65,9.56,27.51,21.1,39.1,34.14,5.03,5.66,4.37,9.82-2,14.02-11.47,7.58-22.65,15.61-31.09,26.76-.65.14-1.31.24-1.97.3-5.55,4.8-14.7,5.16-16.77,14.56-.47,2.15-5.28,1.72-8.26,1.07-.77-.51-.89-1.15-.36-1.92-1.67-16.62-1.52-33.25-.08-49.88Z" fill="#030303" stroke-width="0"/><path d="M591.21,55.91c6.76,12.16,8.33,25.43,8.35,39.03,2.07,10.98.23,22.07,1.02,33.08.52,7.36-1.72,9.6-9.03,6.87-4.08-1.52-8.72-1.22-13.1-.07-8.32-3.6-14.08-9.85-18.24-17.73-6.18-6.81-13.28-12.37-21.78-16.05-7.64-9.99,1.44-14.11,6.86-19.51,9.87-2.29,14.88-9.68,18.97-18.03,2.29-4.38,6.51-6.04,10.76-7.64,5.4-.54,10.8-2.37,16.19.05Z" fill="#040404" stroke-width="0"/><path d="M330.74,240.93c.23.37.39.8.68,1.1,3.82,4.03,12.37,6.49,7.13,14.05-4.68,6.75-9.92.04-14.84-1.45-24.56-13.77-51.38-16.33-78.8-15.76-4.51.09-9.38.8-11.55-4.3-2.03-4.74,2.12-7.08,4.96-9.75,10.46-11.13,24.29-6.8,36.33-6.29,17.92.76,35.78,4.65,49.18,18.68,2.3,1.24,4.61,2.48,6.91,3.72Z" fill="#090909" stroke-width="0"/><path d="M494.83,253.6c-5.71.11-9.26,7.18-15.71,4.89-10.03-7.32-3.57-13.8,2.32-17.88,18.12-12.54,37.96-21.4,60.5-22.04,11.36-.33,23.27-2.98,33.22,5.54,4.45,2.29,8.14,5.14,7.94,10.83-1.47,4.15-4.22,6.89-8.78,6.72-27.26-1.03-53.28,6.01-79.48,11.94Z" fill="#090909" stroke-width="0"/><path d="M575.16,224.11c-33.91-7.52-64.41.81-92.81,19.61-6.33,4.19-8.77,8.4-3.22,14.78-3.12,4.3-3.51,1.07-6-1.17-4.74-4.28-7.8-11.37-15.65-11.53.31-7.73,2.48-11.03,11.42-7.8,4.52,1.63,13.94,3.11,11.48-8.1-2.52-11.48-.63-14.26,13.25-14.58,28.63-.68,57.26-.49,85.89-.56,1.65,0,4.52-.76,5.45,1.83-.01,7.06-10.51-.28-9.81,7.53Z" fill="#f6f6f6" stroke-width="0"/><path d="M494.83,253.6c22.84-13.49,48.23-14.56,73.71-14.94,5.28-.08,10.6,1.1,14.55-3.72.99,4.5,4.86,6.33-2.6,12.59-14.66,12.29-29.71,7.69-44.74,8.74-8.58.6-17.3-1.08-25.97-1.46-6.54-.29-9.96,2.92-9.53,9.7-1.81-3.64-3.62-7.28-5.42-10.91Z" fill="#f6f6f6" stroke-width="0"/><path d="M323.83,237.21c-27.1-13.83-55.24-20.45-85.51-12.39-.05-1.91-.11-3.83-.16-5.74-.69-.6-.92-1.2-.69-1.8.23-.6.46-.9.69-.9,17.05-5.4,34.55-1.61,51.82-2.24,6.63-.24,13.88-.94,20.39,2.24h0c1.46,2.43,3.83,3.61,6.45,3.87,13.18,1.27,14.78,5.04,7.02,16.96Z" fill="#f5f5f5" stroke-width="0"/><path d="M560.21,117.09c7.37,3.85,11.39,11.26,17.53,16.42,4.4,2.23,9.94,3.69,7.23,10.71-6.92,4.77-19.93,1.72-19.8-5.24.17-8.8-.53-13.92-11.11-11.06-2.74.74-4.9-1.26-6.26-3.88-1.47-2.83-2.93-5.71-.62-8.6,2.8-3.49,4.3.96,6.48,1.3,2.14.34,4.35.26,6.53.36Z" fill="#f1f1f1" stroke-width="0"/><path d="M584.97,144.22c-2.41-3.57-4.82-7.14-7.23-10.71,7.89-3.67,15.76-3.85,21.82.53v-39.09c3.73,15.81,2.11,31.6.19,47.46-.91,7.55-5.12,8.42-11.19,6.99-1.2-1.72-2.39-3.45-3.59-5.17Z" fill="#0f0f0f" stroke-width="0"/><path d="M216.82,144.15c1.95-3.33,8.53-1.39,7.69-9.49-.44-4.19,10.95-4.86,17.34-6.14-1.36,2.22-2.72,4.45-4.09,6.67-4.02,2.84-6.1,7.26-9.09,10.94-4.52,5.57-9.3,7-11.85-1.98Z" fill="#151515" stroke-width="0"/><path d="M238.15,216.38v2.7c-2.26,1.28-5.98-4.02-7.08,1.33-.46,2.21.38,6.92-2.62,3.72-2.16-2.3-5.28-1.05-5.91-3.14-.82-2.75.95-5.28,3.58-6.22,4.15-1.48,8.49-2.34,12.03,1.62Z" fill="#ededed" stroke-width="0"/><path d="M310.36,216.38c3.94-4.14,8.52-2.82,13.19,0-4.4,0-8.79,0-13.19,0h0Z" fill="#f5f5f5" stroke-width="0"/><path d="M348.46,273.59c-8.99,4-11.65-4.8-19.28-7.82,11.22-4.25,11.47,9.43,19.28,7.82Z" fill="#f2f3ee" stroke-width="0"/><path d="M216.37,92.36c.03,16.63.06,33.25.08,49.88-3.46-16.62-3.62-33.24-.08-49.88Z" fill="#151515" stroke-width="0"/><path d="M626.96,292.66c-4.14,1.66-6.69,1.48-9.92.07,3.52-1.99,6.22-1.93,9.92-.07Z" fill="#050000" stroke-width="0"/><path d="M64.26,387.54c5.84-6.9,10.59-14.31,10.98-23.73,7.14,3.74,10.63-.38,12.89-6.29,2.96-7.73,5.58-15.6,8.35-23.41,4.14-.47,5.17,3.55,7.74,5.35-5.55,14.55-2.31,29.89-2.93,44.73-.52,12.38-5.53,17.48-15.89,17.84-8.56.3-15.77,1.89-22.48,7.31-3.55,2.87-9.19,4.18-12-.07-3.11-4.69,2.55-6.5,5.63-8.48,4.94-3.16,6.93-7.82,7.72-13.28Z" fill="#fefefe" stroke-width="0"/><path d="M564.26,63.5c1.19,11.53-9.26,15.69-15.02,22.55-2.16,2.57-3.21-2.31-3.95-4.52,4.61-7.82,11.93-12.77,18.97-18.03Z" fill="#0f0f0f" stroke-width="0"/><path d="M591.21,55.91c-5.4,2.08-10.8,3.16-16.19-.05,5.41-3.2,10.83-11.53,16.19.05Z" fill="#151515" stroke-width="0"/><path d="M530.44,69.94c-1.25.9-2.53,2.48-4,2.69-1.59.22-1.59-1.77-.79-2.59,1.1-1.13,2.7-1.77,4.08-2.62.2.71.4,1.42.71,2.52Z" fill="#fefefe" stroke-width="0"/><path d="M975.34,405.88c-27.19-7.41-19.94-28.96-20.12-48.44,13.67,11.8,24.62,40.23,20.12,48.44Z" fill="#fefefe" stroke-width="0"/><path d="M269.23,88.46c.28,1.97.13,3.45-1.64,2.72-1.01-.42-1.94-1.89-2.19-3.04-.22-.99.58-2.21.92-3.32,1.08,1.35,2.16,2.7,2.91,3.64Z" fill="#121212" stroke-width="0"/><path d="M251.86,79.35c-1.61.8-2.69,1.68-3.86,1.84-1.97.26-3.31-1.03-3-2.92.15-.9,1.71-2.19,2.63-2.19.95,0,1.89,1.36,4.23,3.27Z" fill="#1c1c1c" stroke-width="0"/></g></svg>