<?xml version="1.0" encoding="utf-8"?>
<!-- Generator: Adobe Illustrator 28.1.0, SVG Export Plug-In . SVG Version: 6.00 Build 0)  -->
<svg version="1.1" id="b" xmlns="http://www.w3.org/2000/svg" xmlns:xlink="http://www.w3.org/1999/xlink" x="0px" y="0px"
	 viewBox="0 0 777 1102.6" style="enable-background:new 0 0 777 1102.6;" xml:space="preserve">
<style type="text/css">
	.st0{fill:#FEFEFE;}
	.st1{fill:none;stroke:#000000;stroke-width:7;stroke-miterlimit:10;}
	.st2{fill:none;stroke:#000000;stroke-width:10.3074;stroke-miterlimit:10;}
</style>
<g id="c">
	<path d="M24.1,287.7c-15-7-30-15.4-21.9-35.1c6.2-15.1,21.4-16.9,36.4-15.8c36.2,2.5,72.3,4.9,108.5,7.4
		c19.5,1.4,23.3-6.8,20.9-25.6c-4.8-38.1-21.6-72.1-31.8-108.2c-4.8-17.2-13-40.3,6.1-52.3c18.7-11.8,37.4,2.4,49.9,16.4
		c19.5,21.8,38.9,18.5,63.7,10.4C304.1,69.3,352.5,56.4,369.5,0h38c37.2,69.5,7.1,145.2,19.9,217.1c2.2,12.2,0.6,25.1,0.8,37.7
		c-2,1.2-4,2.3-6.1,3.5c-20.9-5.5-17.8-22.5-18.9-38.2c-3.3-45.4-11.6-90.5-2-136.5c3.1-14.9-0.4-31.5-17-47.2
		c-26.3,32.8-55,60.4-100.2,68.9c-41,7.7-79.6,25.2-120.1-24.7c3.6,58.8,27.8,98.6,36,142.2c2.3,12.1,18.6,16,31,19
		c23,5.7,44.4,16.3,68,20.1c22.4,3.6,62.5,2.2,57.3,26c-7.2,32.4-45.5,16.9-68.9,9.6c-68.5-21.4-137.7-33.5-209.6-29.4
		c-15.3,0.9-32.1-4.7-42.8,12.1C32.2,284.3,28.7,286.8,24.1,287.7L24.1,287.7z"/>
	<path d="M656.3,322.7c2.2-26.1-18.1-68,17-73c33.7-4.8,28.8,40.6,38.3,65.6c7.2,19.1,13.4,39.3,24.6,55.9
		c50.2,74.4,47,152.8,28,236.3c-23.7,104.6-36.7,211.2-29.3,319c2.6,38.3-1,76-5.7,113.4c-5.7,45.3-96.1,80-133.5,53.4
		c-14-9.9-18.4-21.2-7.6-35.8c3.8-5,8.5-9.3,12.9-13.9c61-64.7,64.7-95.7,19.6-171.8c-11.6-19.6-25.9-36.3-52.9-30.5
		c-29.9,6.4-29.9,28-26.9,51.4c7.2,55.8-15.7,93-66.5,117.7c-47.6,23.2-89.5,61.2-149.2,45c-18.4-5-40.5-5.1-40.9-30.3
		c-0.4-22.3,19.4-25.9,36.5-30c13.8-3.3,28-5.3,41.5-9.4c54.3-16.4,72.7-49,59-103.6c-6.5-26-13.5-51.7-14.1-79
		c-2.1-94.3-7.4-109.5-62.8-190.8c-33,36.2-65.4,13.8-98.1-1.4c-21.3-9.9-41.1-19.8-50.5,15c-4,14.9-18.6,21.6-34.6,17.3
		c-16.3-4.4-27.2-13.8-28.9-32.8c-4.4-47.4,34.8-102.7,83-108.6c22.4-2.8,21.5-12.9,19-28c-2.1-12.4-5-24.8-7-37.2
		c-5.6-34.3,14.5-79.9-41.2-91.8c-34.9-7.5-67.3-26.7-105.9-15.8c-33.5,9.5-61.8,5.4-56.1-41.4c2.4-2,4.7-4,7-6.1
		c20.8,15.6,43.2,21,70.1,20.5c48-0.8,94.7,10.7,134.4,39.1c19.6,14,42.4,29.7,18.9,61.5c-11.6,15.7,1.7,36.8,3.1,55.4
		c2.4,32.4-1.3,58.6-39.3,70.3c-30.4,9.3-48.3,32.6-52.3,75.8c37.2-36.4,71.2-28.5,105.5-12.2c21.2,10.1,38.8,10.9,49.8-15.5
		c12.1-29,26-15,36.1,1.5c36.1,59.4,74.8,117.3,73.2,191.9c-0.8,34.6,8.4,68.9,16,102.9c16.5,74.5-4.5,112.3-76.7,138.1
		c-13.3,4.8-27.9,5.7-40.7,12.7c80.1,21.2,176.6-49,179.3-131c1.2-35.2,5.6-67.3,47.4-76.7c37.5-8.4,69.5,7.2,90,45.5
		c15.7,29.4,24.5,61.6,33.2,93.7c6.8,25.4-3.6,46-18.5,65.8c-10.1,13.4-27.3,21.8-30.3,40.7c46.4,8.4,63-0.9,73-40.9
		c5.8-23.3,4.7-47.1,4.6-70.8c-0.5-132.8,0.2-265.4,39.1-394.4c14.4-47.9,3.7-93.8-16.9-137.8c-18.1-38.6-39.8-75.6-49.8-118
		c-8.5,4.6-6.7,14.2-11.7,20C665.3,324.1,661.2,325.1,656.3,322.7L656.3,322.7z"/>
	<path d="M656.3,322.7c2.5,0,5,0,7.5,0.1c81.1,57.5,107.2,184.8,53.8,262.7c-22.5,33-41.2,37.4-68.4,8.8
		C560.8,501.4,486.4,398,426,284.7c-4.5-8.5-7.1-17.6-1.2-26.9c0,0,3.3-3.1,3.3-3.1c28.7,21.3,41.5,54.1,58.9,83.3
		c48.7,81.2,106.3,155.3,171.1,224.3c23.1,24.6,34.5,18.2,46-8.5c21.8-50.8,25.8-100.2-10.5-146.6C674,382.2,659.4,355,656.3,322.7z
		"/>
	<path class="st0" d="M424.8,257.9c64.2,121.7,141,234.1,238,332.5c21.5,21.8,28,17.8,42.2-5.5c43.1-70.5,43.7-126.5-4.8-191.8
		c-16.2-21.9-22.3-48-36.5-70.4c5.4-19.2-7.1-41.2,8.7-58.8c3.3,0.3,7.9-0.1,8.2,0.8c19,63.3,49.1,121.9,74.3,182.6
		c11.7,28.1,15.9,61.6,7.3,93.3c-40.7,149.3-45.1,301.8-44,455.3c0.5,69.2-33,96-97.7,87.5c-20.5-2.7-25.9-9.9-10.6-26.2
		c2.2-2.3,4.5-4.5,6.6-6.8c59.8-66.5,63.9-107.8,18.6-186.8c-17.6-30.7-43-47.2-78.6-37.7c-35.3,9.4-38.5,37.3-33.8,68.1
		c7.4,48.5-11.5,82.7-56.1,103.1c-40.8,18.7-75,54.3-125.9,47.3c-15.5-2.1-31.4-1.2-42.6-16.2c9.4-21.4,30.2-19.2,47.9-23.2
		c84.4-19,107.5-55.7,87.3-137.6c-4.9-19.9-12.3-40.7-10.6-60.4c7.6-93.4-39.6-166-85.7-240.3c-10,51.3-22.5,58.4-67.5,39.5
		c-33.4-14.1-69.4-43.8-90.9,15.3c-1.2,3.3-11.1,5.3-16.7,4.9c-9.7-0.7-10.9-9.2-12.1-17.3c-6.3-41.2,29.5-91.7,71.9-94.4
		c26.1-1.7,28.2-13.5,25.6-33.2c-3-21.9-5.4-43.9-9.2-65.6c-4.1-22.9,2.6-34.9,34.8-26.9c-55.5-58.6-118.3-84.2-188.1-73.4
		c-37,5.7-46-6.6-53.6-34.1c-4.3-7.7-16.8-12.8-11.3-23.5c5.1-9.8,15.7-7.6,25.4-6.4c82.5,10.1,167.4,2.9,246.9,35
		c18.9,7.6,39.8,8.8,61.3,2.1c-45.4-13.1-91.4-23.6-136.4-37.4c-25.3-7.8-38.8-18.8-37.6-44.9c1.4-31.6-16.2-57.1-25.2-85.4
		c-4.9-15.6-8.4-33.3,3.9-56.5c42.6,60.2,93.5,36.4,147.6,22.9c34-8.5,44.2-31.7,60.5-53.8c6.2-8.5,10.7-22.2,24-19
		c11.4,2.8,14.5,14.9,17.5,25.9c6.2,23.3,5.3,45.9,2.9,70C405.6,160.1,406.3,210.1,424.8,257.9L424.8,257.9z"/>
</g>
<path class="st1" d="M202.4,162.9c2.1,3.3,5.4,7.1,9,5.8c1.2-0.4,2.2-1.3,3.1-2.2c2.7-2.6,5.4-5.2,8.1-7.8"/>
<path class="st1" d="M304.4,153.9c2.1,3.3,5.4,7.1,9,5.8c1.2-0.4,2.2-1.3,3.1-2.2c2.7-2.6,5.4-5.2,8.1-7.8"/>
<path d="M281.9,208.7c24.5-0.2,48.9,1.2,73.1,4.1"/>
<path d="M280.4,200.4c23.7-4.7,47.9-8,72.3-9.7"/>
<path d="M280.4,215.9c23.7,4.7,47.9,8,72.3,9.7"/>
<path d="M237.9,209.1c-16.7-0.1-33.5,1-50.1,3.5"/>
<path d="M239,201.9c-16.2-4.1-32.8-6.9-49.5-8.4"/>
<path d="M239,215.2c-16.2,4.1-32.8,6.9-49.5,8.4"/>
<path class="st2" d="M255.9,207.6c-0.8,0.4-1.5,1-2.1,1.5c-0.5,0.4-0.8,0.9-0.7,1.5c0.4,1.3,3.5,1.4,5.5,0.8
	c2.8-0.9,5.4-2.8,4.3-4.6c-2.4,0-4.9,0-7.3,0"/>
</svg>
