<?xml version="1.0" encoding="UTF-8"?><svg id="b" xmlns="http://www.w3.org/2000/svg" viewBox="0 0 952.5 1105.7"><g id="c"><path d="M857.15,474.97c38.47,38.94,67.7,81.95,83.75,133.15,36.42,116.17-14.38,213.33-131.21,247.09-75.35,21.77-149.17,15.9-218.82-22.06-43.66-23.79-75.68-58.75-91.49-106.39-4.52-13.62-11.14-17.25-24.36-17.17-25.85.17-51.73-.8-77.55-2.24-12.03-.67-17.7,2.5-19.55,15.45-2.58,18.04-8.16,35.62-19.01,50.81-17.04,23.86-37.94,24.17-55.68.94-14.73-19.29-18.56-42.96-25.89-67.17-39.22-.84-78.31-5.69-117.26-8.16-46.34-2.93-81.51,53.03-71.18,104.59,16.97,84.7,74.72,133.33,165.36,139.18,53.38,3.45,106.42-2.04,159.46-6.49,60.42-5.07,120.04-3.14,178.15,16.21,27.82,9.27,53.46,22.13,72.07,45.79,25.93,32.95,18.8,63.88-19.29,81.19-44.54,20.25-92.39,25.03-140.38,25.84-115.75,1.97-229.25-13.23-338.25-53.33C58.43,1012.61,2.93,938.6.12,835.69c-2.78-101.97,42.4-171.22,142.04-215.65-4-36.97-6.82-74.66-1.65-112.59,8.52-62.48,29.79-119.57,70.84-167.76,14.35-16.84,20.81-34.25,20.81-55.74,0-71.51.64-143.02.92-214.53.06-13.81,1.6-27.33,6.38-40.32,8.76-23.83,25.17-28.37,43.16-10.13,12.17,12.34,22.42,26.9,31.79,41.58,9.5,14.87,22.46,22.28,39.27,23.82,25.74,2.35,51.55,3.96,77.28,6.46,17.13,1.67,27.04-5.05,31.99-21.78,4.73-15.98,10.92-31.6,17.5-46.94C484.95,11.68,490.42-.37,503.84,0c12.8.36,19.23,11.72,24.1,22,10.49,22.14,14.9,46.2,19.78,70.01,14.9,72.75,15.74,146.57,15.63,220.37-.02,15.82,3.86,24.25,20.16,29.45,36.13,11.52,69.64,27.5,82.42,68.26,3.38,10.76,14.25,7.08,21.85,7.17,58.58.64,117.16.57,175.74,1.03,7.9.06,18.29-3.34,22.29,6.58,3.54,8.77-3.55,15.54-8.6,22.25-6.39,8.47-12.43,17.21-20.07,27.85ZM261.66,25.98c-8.69,16.3-10.42,32.14-10.56,48.12-.69,75.27-1.9,150.56-1.01,225.82.19,16.37-5.49,27.1-15.11,38.4-81.03,95.2-94.2,203.99-63.7,321.38,4,15.4,12.4,26.59,29.39,27.05,24.11.66,48.25.17,74.07.17-2.39-31.58-4.54-60.29-6.76-88.99-2.16-27.94-6.59-55.9-3.19-84.41,15.26,1.84,14.01,10.75,14.72,17.79,4.32,42.34,8.08,84.73,12.55,127.06,3.43,32.48,6.54,65.17,19.75,95.59,3.91,9,9.19,18.43,21.35,17.42,11.01-.92,14.8-10.1,17.24-18.91,4.04-14.6,7.61-29.39,10.26-44.3,7.26-40.92.79-81.93.22-122.92-.12-8.22-4.52-18.55,11.33-25.83,14.56,42.78,2.98,87.47,12.62,130.65h103.86c.27-39.86,3.86-78.94,19.64-115.85,16.02-37.48,41.37-68.25,71.99-96.47-22.91-22.76-35.43-51.22-62.61-69.45,42.35-8.96,83.77,13.62,126.85,3.66-2.13-15.92-12.01-24.91-23.49-32.51-16.64-11.03-35.28-18.16-54.32-23.02-16.46-4.2-20.82-12.87-21.14-28.98-1.19-59.26.23-118.68-6.96-177.7-5.39-44.3-13-88.04-33.82-130.19-3.34,4.12-5.93,6.14-6.95,8.77-6.04,15.54-11.66,31.24-17.54,46.84-10.5,27.87-20.02,34.9-49.2,33.59-25.8-1.16-51.58-3.35-77.3-5.79-24.85-2.36-44.48-12.87-57.13-35.93-8.31-15.15-18.48-29.54-35.04-41.06ZM146.46,643.26c-31.66,3.05-63.69,24.25-89.3,58.49-82.87,110.79-30.01,281.69,103.36,329.82,121.61,43.89,247.32,62.64,376.57,52.44,33.14-2.62,67.19-3.86,97.97-18.86,29.97-14.6,33.41-35.5,10.79-59.68-19.4-20.74-44.5-31.28-71.13-38.82-55.73-15.78-112.5-16.64-169.7-11.77-52.28,4.45-104.53,9.73-157.14,6.61-86.54-5.13-146.87-52.94-171.47-135.46-20.54-68.87,5.74-129.49,73.01-144.92,2.01-.46,3.69-2.38,6.45-4.25-1.05-11.84-4.54-23.03-9.42-33.62ZM622.53,783.03c16.96-6,28.37-29.89,47.4-14.16,16.75,13.85-4.6,26.45-7.39,40.61h87.73c-6.92-16.62-27.95-31.89-4.48-48,14.89-10.22,33.84,3.21,54.75,37.12,22.19.04,46.48-13.01,65.93,8.4,15.19-9.2,27.03-19.74,36.64-32.63,25.3-33.92,34.53-72.49,30.34-114.04-3.96-39.25-14.16-72.82-53.24-96.15-40.17-23.98-37.62-28.25-72.65,2.11-25.08,21.73-40.25,21.18-67.79-2.45q-28.47-24.43-56.96-2.53c-34.63,26.62-47.7,26.29-81.81-1.94-4.68-3.87-9.35-7.87-14.49-11.05-18.94-11.71-36.89-7.84-49.53,10.33-46.92,67.45-35.9,175.51,23.81,231.17,6.8,6.34,13.05,14.82,27.32,12.83-19.78-20.53-32.06-42.68-35.39-69.05-1.47-11.62-2.45-23.15,11.66-28.63,12.74-4.94,19.86,2.9,26.92,11.3,16.08,19.12,21.68,43.22,31.25,66.75ZM669.67,437.78c-6.45,20.03-10.73,38.71-18.39,55.89-12.79,28.68-34.92,31.68-56.87,9.38-1.96-1.99-4.28-3.63-6.71-5.67-9.72,6.5-17.84,12.82-22.56,24.49,18.03,3.85,33.17,11.3,46.67,22.77,27.64,23.48,33.39,23.12,62.27-.13,31.69-25.51,44.07-25.1,74.58,2.47,24.03,21.71,26.08,21.73,51.3,1.04,5.28-4.33,10.74-8.43,16.07-12.7,16.93-13.55,34.27-13.98,52.58-2.49,4.7,2.95,8.51,8.65,16.15,7.44-3.67-11.63-12.6-18.81-19.78-27.07q-28.29-32.55-8.5-70.25c.55-1.04-.33-2.82-.69-5.19h-186.12ZM596.63,430.98c1.26,20.49,4.65,36.8,9.61,52.83,2.1,6.8,5.14,14.07,12.48,14.86,8.38.9,13.71-5.82,17.13-12.92,7.57-15.74,13.38-31.92,10.1-51.76-16.15-.99-31.76-1.95-49.31-3.02ZM647.42,832.05c45.75,16.12,92.21,22.32,139.52,6.37-45.9-12.48-92.63-7.8-139.52-6.37ZM572.75,726.91c-.21,23.3,6.85,39.28,26.04,53.82-3.81-22.01-8.88-38.95-26.04-53.82Z" stroke-width="0"/><path d="M261.66,25.98c16.56,11.52,26.74,25.91,35.04,41.06,12.64,23.06,32.28,33.56,57.13,35.93,25.72,2.45,51.5,4.64,77.3,5.79,29.18,1.31,38.7-5.72,49.2-33.59,5.88-15.6,11.5-31.3,17.54-46.84,1.02-2.63,3.61-4.65,6.95-8.77,20.82,42.15,28.43,85.89,33.82,130.19,7.19,59.03,5.77,118.44,6.96,177.7.32,16.11,4.68,24.78,21.14,28.98,19.04,4.86,37.68,11.99,54.32,23.02,11.47,7.6,21.36,16.59,23.49,32.51-43.08,9.96-84.5-12.62-126.85-3.66,27.18,18.23,39.71,46.69,62.61,69.45-30.62,28.23-55.97,58.99-71.99,96.47-15.78,36.92-19.37,75.99-19.64,115.85h-103.86c-9.64-43.18,1.94-87.87-12.62-130.65-15.85,7.28-11.45,17.6-11.33,25.83.58,40.98,7.05,82-.22,122.92-2.65,14.91-6.22,29.7-10.26,44.3-2.44,8.81-6.23,17.99-17.24,18.91-12.16,1.01-17.44-8.43-21.35-17.42-13.21-30.42-16.32-63.11-19.75-95.59-4.47-42.32-8.23-84.72-12.55-127.06-.72-7.03.54-15.95-14.72-17.79-3.41,28.5,1.02,56.47,3.19,84.41,2.22,28.7,4.36,57.41,6.76,88.99-25.82,0-49.96.49-74.07-.17-16.99-.46-25.39-11.65-29.39-27.05-30.5-117.39-17.33-226.18,63.7-321.38,9.62-11.31,15.3-22.04,15.11-38.4-.9-75.26.32-150.54,1.01-225.82.15-15.98,1.87-31.82,10.56-48.12ZM408.39,284.47c14.98-16.85,13.7-36.58,24.51-49.91.48-.59-4.43-6.56-4.55-6.49-11.9,7.66-24.61-3.92-39,1.13,11.44,15.85,14.09,33.43,19.04,55.27ZM353.18,179.93c-9.66.86-12.88,7.13-12.52,15.62.34,7.93,2.67,15.77,11.89,16.78,9.75,1.07,13.02-6.29,13.57-14.44.63-9.22-2.61-16.34-12.95-17.96ZM471.11,198.47c.03-8.23-1.78-16.15-12.35-17.53-8.62-1.12-12.51,4.74-13.05,12.04-.7,9.68,2.16,18.61,13.58,19.59,8.59.74,10.97-6.15,11.82-14.1Z" fill="#fff" stroke-width="0"/><path d="M146.46,643.26c4.88,10.59,8.37,21.78,9.42,33.62-2.76,1.87-4.44,3.78-6.45,4.25-67.27,15.42-93.55,76.05-73.01,144.92,24.61,82.52,84.93,130.33,171.47,135.46,52.61,3.12,104.86-2.16,157.14-6.61,57.2-4.87,113.96-4,169.7,11.77,26.63,7.54,51.73,18.07,71.13,38.82,22.62,24.18,19.18,45.08-10.79,59.68-30.79,15-64.83,16.24-97.97,18.86-129.25,10.2-254.96-8.55-376.57-52.44-133.38-48.13-186.23-219.03-103.36-329.82,25.61-34.24,57.64-55.45,89.3-58.49Z" fill="#fff" stroke-width="0"/><path d="M622.53,783.03c-9.56-23.54-15.17-47.63-31.25-66.75-7.06-8.4-14.18-16.25-26.92-11.3-14.11,5.47-13.12,17-11.66,28.63,3.33,26.36,15.61,48.52,35.39,69.05-14.27,1.99-20.52-6.49-27.32-12.83-59.7-55.66-70.73-163.72-23.81-231.17,12.64-18.17,30.59-22.04,49.53-10.33,5.14,3.18,9.81,7.17,14.49,11.05,34.11,28.23,47.18,28.57,81.81,1.94q28.49-21.9,56.96,2.53c27.55,23.63,42.71,24.18,67.79,2.45,35.03-30.36,32.48-26.09,72.65-2.11,39.08,23.33,49.28,56.9,53.24,96.15,4.19,41.54-5.04,80.12-30.34,114.04-9.61,12.89-21.45,23.43-36.64,32.63-19.45-21.41-43.73-8.35-65.93-8.4-20.9-33.91-39.85-47.34-54.75-37.12-23.47,16.11-2.44,31.37,4.48,48h-87.73c2.79-14.16,24.14-26.76,7.39-40.61-19.02-15.73-30.43,8.16-47.4,14.16ZM778.63,695.59c-13.91-16.2-24.05-32.57-39.58-44.02-15.68-11.56-34.96-16.57-49.68-30.84-10.98-10.64-27.27-7.23-36.41,5.07-8.73,11.76-19.41,18.05-32.31,23.33-14.19,5.81-17.94,15.39-6.13,28.12,24.52,26.43,53.57,44.71,89.49,50.89,20.65,3.55,44.01-9.15,60.01-2.6,16.95,6.94,26.44,31.41,40.03,47.52,6.44,7.63,16.11,9.63,24.86,4.05,9.23-5.9,11.62-14.76,8.53-25.9-2.76-9.94-12.11-17.17-12.13-29.04,6.94-.94,12.94-1.64,18.91-2.58,29.54-4.66,43.14-15.43,39.56-31.25-3.62-15.98-25.5-24.3-50.56-18.32-8.76,2.09-17.24,5.89-25.43,9.79-9.55,4.54-18.65,10.05-29.15,15.8Z" fill="#fff" stroke-width="0"/><path d="M669.67,437.78h186.12c.35,2.37,1.23,4.15.69,5.19q-19.89,37.81,8.5,70.25c7.18,8.26,16.11,15.44,19.78,27.07-7.64,1.21-11.45-4.49-16.15-7.44-18.3-11.49-35.64-11.06-52.58,2.49-5.33,4.27-10.79,8.37-16.07,12.7-25.22,20.69-27.28,20.67-51.3-1.04-30.51-27.57-42.89-27.98-74.58-2.47-28.89,23.25-34.63,23.61-62.27.13-13.5-11.47-28.64-18.92-46.67-22.77,4.72-11.67,12.85-17.99,22.56-24.49,2.44,2.04,4.76,3.68,6.71,5.67,21.95,22.3,44.08,19.31,56.87-9.38,7.66-17.18,11.94-35.87,18.39-55.89Z" fill="#fff" stroke-width="0"/><path d="M596.63,430.98c17.55,1.08,33.16,2.03,49.31,3.02,3.28,19.84-2.53,36.02-10.1,51.76-3.42,7.1-8.75,13.82-17.13,12.92-7.34-.79-10.37-8.07-12.48-14.86-4.96-16.03-8.35-32.34-9.61-52.83Z" fill="#fff" stroke-width="0"/><path d="M647.42,832.05c46.89-1.42,93.62-6.11,139.52,6.37-47.31,15.95-93.77,9.75-139.52-6.37Z" fill="#fff" stroke-width="0"/><path d="M572.75,726.91c17.15,14.87,22.23,31.81,26.04,53.82-19.19-14.54-26.24-30.52-26.04-53.82Z" fill="#fff" stroke-width="0"/><path d="M408.39,284.47c-4.95-21.84-7.6-39.42-19.04-55.27,14.4-5.05,27.1,6.53,39-1.13.12-.08,5.03,5.9,4.55,6.49-10.81,13.33-9.53,33.06-24.51,49.91Z" stroke-width="0"/><path d="M353.18,179.93c10.33,1.62,13.57,8.74,12.95,17.96-.56,8.15-3.83,15.51-13.57,14.44-9.22-1.01-11.56-8.85-11.89-16.78-.36-8.49,2.86-14.76,12.52-15.62Z" stroke-width="0"/><path d="M471.11,198.47c-.85,7.96-3.23,14.85-11.82,14.1-11.41-.99-14.28-9.92-13.58-19.59.53-7.29,4.43-13.16,13.05-12.04,10.57,1.38,12.38,9.3,12.35,17.53Z" stroke-width="0"/><path d="M778.63,695.59c10.51-5.75,19.6-11.26,29.15-15.8,8.19-3.9,16.66-7.69,25.43-9.79,25.06-5.98,46.94,2.34,50.56,18.32,3.59,15.82-10.01,26.59-39.56,31.25-5.96.94-11.96,1.64-18.91,2.58.01,11.87,9.37,19.1,12.13,29.04,3.09,11.14.7,20-8.53,25.9-8.75,5.58-18.41,3.59-24.86-4.05-13.59-16.1-23.08-40.58-40.03-47.52-16-6.55-39.36,6.15-60.01,2.6-35.92-6.17-64.97-24.46-89.49-50.89-11.81-12.73-8.06-22.31,6.13-28.12,12.9-5.28,23.58-11.57,32.31-23.33,9.13-12.3,25.43-15.71,36.41-5.07,14.71,14.27,34,19.28,49.68,30.84,15.53,11.45,25.67,27.82,39.58,44.02ZM756.9,701.47c-12.44-21.57-26.01-38.87-50.05-43.76-22.28,24.82-29.85,26.2-53.46,7.26-8.35-6.69-14.04-6.86-20.9.44,25.57,38.87,78.48,54.81,124.4,36.06ZM865.33,690.02c-21.62-4.38-37.52-3.83-53,11.3,19.07,1.48,34.9,2.11,53-11.3Z" stroke-width="0"/><path d="M756.9,701.47c-45.92,18.75-98.83,2.81-124.4-36.06,6.86-7.3,12.55-7.13,20.9-.44,23.61,18.94,31.18,17.56,53.46-7.26,24.04,4.89,37.61,22.19,50.05,43.76Z" fill="#fff" stroke-width="0"/><path d="M865.33,690.02c-18.1,13.41-33.93,12.78-53,11.3,15.48-15.14,31.38-15.68,53-11.3Z" fill="#fff" stroke-width="0"/><path d="M148.13,630.75c-67.74,13.61-121.57,77.67-134.6,150.67-21.83,122.31,41.34,228.34,166.55,267.08,86.3,26.7,173.97,43.71,264.78,46.3,61.89,1.76,122.76-.06,182.62-16.68,12.68-3.52,23.15-10.7,32-20.47,13.94-15.37,13.77-32.86.02-50.3-25.74-32.66-62.36-45.29-100.52-54.63-69.74-17.07-139.91-7.23-209.99-2.43-55.29,3.79-110.61,7.49-164.35-11.37-56.71-19.9-106.08-87.94-106.74-159.8-.44-47.23,41.11-89.58,86.16-95.07,10.07-1.23,14.04,7.36,22.73,9.06,31.38,6.12,62.44,4.54,93.73,1.55" fill="none" stroke="#000" stroke-linecap="round" stroke-linejoin="round" stroke-width="9.13"/><path d="M517.93,411.61c39.09-.67,58.28,22.25,73.01,63.93,1.16,3.27,1.29,6.09,3.88,9.65,7.73,10.64,12.5,26.27,28,23.82,13.79-2.18,21.06-15.22,25.31-28.89,22.21-71.56,5.17-107.35-68.69-129.72-17.98-5.45-21.86-14.1-23.47-32.31-7.26-82.2,1.66-165.95-22.17-246.57-6.51-22.04-8.83-46.34-29.55-63.47-21.3,17.82-26.17,43.03-33.66,65.92-6.1,18.65-16.16,25.43-34.84,25.14-31.51-.5-62.61-1.53-93.76-8.61-17.15-3.9-27.75-12.74-36.22-25.94-12.21-19.01-23.9-38.23-46.84-49.57-11.56,16.08-17.28,32.86-17.25,51.94.11,75.33-.1,150.66.17,225.99.05,14.87-2.87,27.03-13.44,39.14-38.46,44.04-64.06,95.13-75.56,152.64-8.46,42.34-8.64,84.89-2.89,127.86,3.16,23.59,14.54,44.79,16.44,68.42" fill="none" stroke="#000" stroke-linecap="round" stroke-linejoin="round" stroke-width="9.13"/><path d="M554.46,528.03c22.31,4.84,42.27,13.72,59.54,29.47,20.12,18.35,35.73,18.34,56.85,2.45,7.78-5.86,14.78-12.88,22.96-18.05,13.02-8.23,26.47-7.76,38.62,2.21,5.8,4.75,10.41,10.94,16.12,15.81,19.75,16.84,32.48,16.76,52.43.05,6.2-5.19,11.93-10.97,18.33-15.89,14.54-11.17,27.78-9.89,45.95-3.31,63.18,22.87,75.36,76.15,78.45,131.14,3.21,57.11-18.63,108.21-68.11,140.35-16.72,10.86-45,17.28-62.59,10.88-46.75-17.03-92.07,5.48-137.63-2.55-10.58-1.86-21.69-.05-29.61-9.49" fill="none" stroke="#000" stroke-linecap="round" stroke-linejoin="round" stroke-width="9.13"/><path d="M896.86,555.42c4.33-27.85-21.56-39.44-32.42-59.1-3.6-6.52-12.6-10.05-16.8-13.2,3.56-22.58,21.91-31.38,22.76-50.34-6.58-5.45-16.25-5.27-26.05-5.25-49.46.11-98.92.21-148.38-.05-12.94-.07-25.87-1.42-38.81-2.18" fill="none" stroke="#000" stroke-linecap="round" stroke-linejoin="round" stroke-width="9.13"/><path d="M606.96,795.11c-33.66-15.57-50.24-44.81-43.37-76.47,16.43-5.63,22.17,5.61,30,16.89,17.39,25.04,11.09,56.3,24.01,82.78,6.72,13.78,13.51,23.13,28.15,27.09,44.44,12.02,88.9,15.07,134.84,7.63,18.35-2.97,24.25-15.46,34.1-25.97" fill="none" stroke="#000" stroke-linecap="round" stroke-linejoin="round" stroke-width="9.13"/><path d="M271.4,521.18c4.18,58.59,7.3,117.29,13.14,175.71,2.02,20.15,9.02,40.41,17.18,59.13,5.21,11.95,13.78,28.11,28.94,26.73,15.61-1.43,24.49-15.29,30.02-30.91,14.57-41.08,15.32-83.23,10.8-125.6-2.28-21.39-1.67-42.63-1.93-63.95" fill="none" stroke="#000" stroke-linecap="round" stroke-linejoin="round" stroke-width="9.13"/><path d="M588.7,484.66c-63.7,56.47-101.16,126.12-88.8,212.1,7.16,49.85,35.12,92.86,82.04,118.74,12.24,6.75,49.49-3.41,59.05-15.98,6.57-8.64,13.95-15.85,23.04-21.52" fill="none" stroke="#000" stroke-linecap="round" stroke-linejoin="round" stroke-width="9.13"/><path d="M618.37,664.99c31.42,48.57,98.3,68.12,148.38,43.37" fill="none" stroke="#000" stroke-linecap="round" stroke-linejoin="round" stroke-width="9.13"/><path d="M376.4,699.23c39.57-1.4,79.13,6.71,118.7,0" fill="none" stroke="#000" stroke-linecap="round" stroke-linejoin="round" stroke-width="9.13"/><path d="M791.86,715.21c-12.59-.28-18.79-6.39-25.86-17.8-19.74-31.88-43.67-60.41-88.28-50.68" fill="none" stroke="#000" stroke-linecap="round" stroke-linejoin="round" stroke-width="9.13"/><path d="M652.61,423.02c-25.88,2.2-52.65-5.74-77.61,6.85" fill="none" stroke="#000" stroke-linecap="round" stroke-linejoin="round" stroke-width="9.13"/><path d="M673.16,644.45c-21.77-.35-39.94,10.95-59.35,18.26" fill="none" stroke="#000" stroke-linecap="round" stroke-linejoin="round" stroke-width="9.13"/><path d="M422.06,238.12c-18.12,9.72-4.15,28.35-11.41,41.09" fill="none" stroke="#000" stroke-linecap="round" stroke-linejoin="round" stroke-width="9.13"/></g></svg>