<?xml version="1.0" encoding="utf-8"?>
<!-- Generator: Adobe Illustrator 28.1.0, SVG Export Plug-In . SVG Version: 6.00 Build 0)  -->
<svg version="1.1" xmlns="http://www.w3.org/2000/svg" xmlns:xlink="http://www.w3.org/1999/xlink" x="0px" y="0px"
	 viewBox="0 0 1073.9 1044.6" style="enable-background:new 0 0 1073.9 1044.6;" xml:space="preserve">
<style type="text/css">
	.st0{fill:#F6F6F6;}
	.st1{fill:#FEFEFE;}
	.st2{fill:#FDFDFD;}
	.st3{fill:#F7F7F7;}
	.st4{fill:none;stroke:#000000;stroke-width:11.4838;stroke-miterlimit:10;}
	.st5{fill:none;stroke:#000000;stroke-width:11.3491;stroke-miterlimit:10;}
	.st6{fill:none;stroke:#000000;stroke-width:15.7875;stroke-miterlimit:10;}
</style>
<g id="b">
	<g id="c">
		<path d="M801.6,810.1c-19.5-4.9-25.4,8.3-34.1,22.3C721.9,905.7,656.1,951.8,579,992c-144.4,75.3-295.1,29.5-442.4,36.2
			c-36.9,1.7-75.8-34.5-119.7-37.6C7,990-1.8,978.2,0.3,965.7c2.6-15.8,15.5-24.1,29.2-26.9c34.7-7,69.9-11.8,109.4-18.2
			c-29.6-45.4-69.3-81.7-66.5-137.6c2.8-55.4,4.3-110.8,7.7-166.2c1-15.9-3.1-39.7,19.9-41.4c20.6-1.5,38.1,10.7,40.2,35.4
			c-27,0.7-37.3,13.9-35.6,41.2c2.3,35.8-1.5,71.4-6.3,107.1c-7.7,57.7,45.1,144.4,98.9,168.8c16.9,7.7,33.8,7.3,50,0.9
			C312.6,903,358,857.9,368,786.5c6-42.8,4.2-86.7,16.8-124.2c-4.6-8.1-8.3-10.9-10.5-9.2c-57.3,47-125.5,21.6-188.7,27.4
			c-29.8,2.7-48.1-29.7-46.2-70.5c38.1,67.7,105.5,36.9,160.4,47.8c14.5,2.9,23.1-7,32.9-14.2c22.2-16.2,41.3-37.3,74.2-30
			c12,2.7,21.2-11.3,29.8-20.3c70.5-74.1,140.6-148.6,217.5-216.1c-6.9-13.6-19.8-10.2-29.4-13.4c-95.9-31.4-131.1-73.6-130.1-157.5
			c1.1-93,56-170.9,139.1-195c43.9-12.7,88.3-22.4,126.3,15.6c-2,4.8-5.6,7.7-10.6,8.8c-39.9-6-79-12.5-118.8,5.6
			c-66.3,30-110.1,92.9-110.5,165.2c-0.3,54.6,29,98.8,80.4,120.8c28.8,12.3,59.8,17.8,89.4,27.3c10.2,3.3,21.9,6.7,23.2,20
			c1.4,13.9-10,18.3-19.9,22.5c-79.7,33.2-128.1,102.3-185.3,161.3c-13,13.4-22.2,31.1-37.5,41.5c-47,32.2-54.9,80-56.6,131.3
			c-5,148.8-80.3,231.2-225.7,247.7c-16.7,1.9-33.5,3.6-51.3,17.3c24.1,15.5,47.8,16.1,69.6,12.6c85.4-13.4,173.2,4.3,256.4-10.9
			c119.7-21.9,226.2-76,285.3-193.4c10.3-20.5,10.7-41.9,3.9-63.7c-4.2-13.5-7-27.3-3-41.4c2.6-9.5,7.2-17.7,18.9-16.7
			c9.3,0.8,13.6,8.4,14,16.1c3,55.7,43.3,74.8,87.3,91.3c23.4,8.8,45.2,21.1,67.5,32.2c60.7,30.3,81.6,74.1,71.7,140.1
			c-3,20.4-20.2,29.4-31.9,48.8c44.7,2.3,63.7-18.5,66.5-53.9c6.7-85.8,5.5-168.8-75.2-227.3c-42.2-30.5-57.1-76.1-54.7-127.9
			c1.3-29.6,0.7-59.3,0.1-88.9c-2-103.4-56.3-169.5-157.4-190.6c-37-7.7-72.8-18-104.9-38.2c-18.5-11.7-37.2-23.8-39.2-49
			c0.7-5.2,3.4-8.9,8.1-11.1c36.4,39,81.1,59.4,133.8,68.8c122.9,21.9,190.6,105.6,192.2,231.8c0.1,9.3,1.2,18.9-0.3,28
			c-14.4,85.1,11.1,152.2,84.8,200.8c27.4,18,39.6,47.1,38.3,80.9c-1.9,49.5,13.3,99.1-1,148.7c-14,48.4-52.3,70.9-100.2,57.7
			c-15.9-4.4-28.7-12.8-32-30.2c-3.4-18.1,6.8-28.2,21.6-37.1c25.2-15.2,31.6-86.4,10.2-105.3c-14.8-13-20.8-1.5-27.8,9.8
			c-18,29.1-36.2,58.1-55.2,86.5c-26,38.8-86.3,50.1-124,24.2c-9.9-6.8-16.9-15.5-12.9-27.3c6.5-18.7,19.6-30.5,40.1-34.7
			c46.2-9.4,60.2-41.7,57.5-84.8c35.8,1.3,24.7,25.8,19,43.3c-12.4,37.5-39.3,62.1-86.5,74.8c34,17.9,58.3,15.8,77.9-4.5
			c21.6-22.4,36-50.6,52.8-76.8c6.4-10,3.7-19.8-1.1-25.3c-12.1-13.8-48.8,7-59.5-6.5c-6-7.7,2.8-18-3.1-27.7
			C837.9,808.7,818.6,808.3,801.6,810.1L801.6,810.1z"/>
		<path class="st0" d="M803.8,798.1c-6.2-2.9-12.5-5.9-18.7-8.8c1.5-2.2,3-4.5,4.5-6.7c26.8,13,49.2,20.5,64.8,24.9
			c0,0,55.3,15.7,71,33.4c1.5,1.7,5,5.8,5.8,11.7c0.9,7.6-3.3,13.8-4.7,16c-21.6,34-39.9,70.8-66.1,100.9
			c-24.5,28.1-59.7,17.5-91.2,7.5c-4.1-1.3-7.3-3.9-8-7.4c-0.6-2.8,0.7-5.4,1.5-6.8c8.3-14.4,18.6-20.7,18.6-20.7
			c16-9.8,21-4.2,34.4-11.5c21.5-11.7,29.7-37.2,32.3-45.4c3.2-9.9,4.7-21.4,4.7-21.4c0.7-5.2,0.9-9.6,1-12.7
			c0.7-8.8,0.7-16.2,0.5-21.7c-0.2-8.8-0.8-10.9-1.8-12.6c-3-5.4-8.8-7.3-19-10.3C822.3,803.1,812.2,800.3,803.8,798.1L803.8,798.1z
			"/>
		<path d="M760.3,26.9c18.5,14.4,23.2,33.4,12.7,53.3c-10.1,19.3-30.3,18.4-49.2,18.2c-82.7-0.9-123.4,48.3-104,125.7
			c-2,1.6-4,3.2-6,4.8c-28.1-11.3-27.7-35.2-24-58.6c8.8-55.5,60.8-102.1,117.4-100c30.8,1.2,42-11.3,46.8-37.3
			C756.2,31,758.2,29,760.3,26.9L760.3,26.9z"/>
		<path class="st1" d="M754.2,33c15.8,44.7,9.5,53.9-41.7,48.8c-45.6-4.6-73.6,17.7-95.9,52.7c-19.7,30.8-29,62.2-2.7,94.4
			c32,56.2,87.8,69.7,144.9,81.6c106.7,22.4,160.5,84.8,167.6,193.9c1.4,21.7,3.5,44,0.3,65.3c-12,79.5,16.4,140,81.6,185.2
			c27.1,18.8,42.9,44.9,44.1,78.4c1.5,43.6,5.5,87.4,2.4,130.7c-3.3,46.1-33.9,69.3-75,64c-12.6-1.6-25.8-4.7-26.7-20.7
			c-0.7-13.1,8.8-21.4,20.4-20.9c23.7,1.1,21.4-13.2,22.3-29.2c4.8-89.5,1.3-96-78-131.8c-18.4-8.3-36-19.1-55.1-25.3
			c-54.5-17.7-100.5-41.8-95.2-112.8c-14.2,19.9-9.5,38-2.3,54.5c8.7,20,8.9,39.2-0.3,58C722.6,886.2,652,936,566.2,979
			c-127.6,64-260.4,18.2-389,39.2c-21.1,3.4-60.4,7.6-61.2-20.4c-0.7-26.3,37.1-26.2,61.5-28.6c148.1-14.6,219.2-91.6,223.7-239.5
			c1.6-52.5,10.9-101.1,57.5-139c46.8-38.2,85.6-86.1,128.2-129.5c34.4-35,66-74.3,121.7-83.1c-72-31.1-162.7-28.2-192.8-120
			c-16-48.7-6.8-95.5,15.7-140.1C576,29.7,670.1-6,754.2,33L754.2,33z"/>
		<path class="st2" d="M139.5,610.1c13.3,37.2,24.2,74,79.3,59.5c22.7-6,49.4-4.9,73.7,3.2c32.5,10.8,45.6-20.4,67.8-31.7
			c10.9-5.5,21.9-17.3,33.8-9.8c12.5,7.9,6.2,22.8,2.9,34.1c-10,34.6-12.5,69.7-13.6,105.6C381,846.4,320,921.7,247.5,943.4
			c-25.3,7.6-48.2,6.1-69.7-12c-63.9-54-108.3-114.6-86.7-205.8c6.7-28,0.8-58.8,2.2-88.2c0.7-14.7-6.8-33.7,8-43.2
			c17.4-11.2,22.5,18.2,38.8,16.6L139.5,610.1L139.5,610.1z"/>
		<path class="st3" d="M176.9,954.2C134,943.6,108.3,992,66.8,984.3c-12.1-2.2-25.2-0.2-36.9-3.6c-12.7-3.6-17.6-12.3-5-23.4
			C43.4,941,157.6,935.7,176.9,954.2L176.9,954.2z"/>
		<path d="M204.4,914.5c12.3-12.2-0.4-38.5,21.7-40c13-0.9,7.9,13.6,9.5,22C241.1,925.9,214.9,907.3,204.4,914.5L204.4,914.5z"/>
	</g>
</g>
<g id="Layer_2">
	<path class="st4" d="M154.7,741.5c1.6,6.2,4.9,13.7,11.3,13.5c2.1,0,4.1-1,6-2c5.5-2.8,11-5.6,16.5-8.3"/>
	<path class="st5" d="M291.1,740.8c1.1,6.2,3.8,13.8,10.1,14.3c2.1,0.2,4.2-0.6,6.1-1.4c5.7-2.2,11.4-4.4,17-6.5"/>
	<path d="M260.2,822.1c37.5-0.2,74.9,1.9,112,6.3"/>
	<path d="M257.8,809.3c36.3-7.3,73.4-12.2,110.7-14.9"/>
	<path d="M257.8,833.1c36.3,7.3,73.4,12.2,110.7,14.9"/>
	<path d="M192.8,822.6c-25.7-0.2-51.3,1.6-76.7,5.4"/>
	<path d="M194.5,811.6c-24.9-6.2-50.2-10.5-75.8-12.8"/>
	<path d="M194.5,832.1c-24.9,6.2-50.2,10.5-75.8,12.8"/>
	<path class="st6" d="M220.3,820.3c-1.3,0.7-2.4,1.5-3.3,2.3c-0.7,0.7-1.3,1.4-1.1,2.2c0.6,2.1,5.4,2.1,8.4,1.2
		c4.3-1.3,8.2-4.3,6.6-7.1c-3.7,0-7.4,0-11.2-0.1"/>
</g>
</svg>
