<?xml version="1.0" encoding="UTF-8"?><svg id="b" xmlns="http://www.w3.org/2000/svg" viewBox="0 0 1015.55 506"><g id="c"><path d="M107.99,422.18c-34.71-35.68-48.37-78.93-51.5-126.75-.51-7.82-6.11-15.62-10.4-22.81-14.01-23.52-30.87-45.68-42.14-70.41-10.83-23.77,1.35-40.25,27.7-40.1,20.1.11,40.13,5.02,60.29,6.25,7.37.45,17.5-1.15,22.14-5.92,38.33-39.42,86.12-58.64,139.24-64.26,22-2.33,36.05-8.16,42.58-30.68,3.53-12.19,11.24-23.58,18.78-34.1,18.46-25.76,37.58-24.23,53.13,3.75,4.53,8.16,7.76,17.04,10.86,23.97,50.43-14.59,99.62-31.64,150.12-42.81,84.06-18.59,169.43-28.07,253.98-3.53,118.31,34.34,189.23,118.68,224.82,231.72,19.53,62.02,4.98,137.86-63.7,175.98-3.15,1.75-6.47,3.65-8.84,6.27-67.7,75.11-156.77,80.36-248.31,74.34-42.58-2.8-84.69-12.51-127.27-15.69-46.81-3.49-93.92-3.03-140.89-4.38-28.88-.83-59.58,10.61-85.23-13.37-2.3-2.15-10.7.57-15.35,2.87-14.27,7.07-27.8,15.68-42.17,22.53-26.76,12.77-53.69,16-81.25.81-5.32-2.93-13.53-1.25-20.34-.72-15.03,1.17-30.34,5.72-44.94,3.94-38.25-4.65-51.04-37.24-28.19-68.2,2.08-2.82,4.35-5.51,6.88-8.7ZM716.69,100.13c.42,3.63.84,7.26,1.26,10.89-20.28,2.53-40.65,4.51-60.83,7.67-77.36,12.14-146.64,40.3-197.7,102.86-5.64,6.91-12.22,16.61-11.61,24.5,3.49,45.28-4.04,87.81-27.95,127.25,16.12,0,30.49-1.34,44.54.23,61.12,6.84,122.28,13.59,183.17,22.2,53.42,7.55,105.52,10.59,153.31-21.07,2.3-1.52,6.28-.5,13.17-.85-7.03,20.2-23.25,23.95-36.81,29.39-47.9,19.24-97.07,12.72-145.88,4.53-65.06-10.91-129.99-25.84-196.33-17.96-26.58,3.15-53.11,12.53-77.82,23.29-14.27,6.22-19.56,22.71-14.37,39.59,4.91,15.96,18.68,16.63,31.66,17.49,9.35.62,18.82-1,28.23-.86,52.08.8,104.28-.14,156.19,3.33,58.48,3.91,116.62,16.02,175.04,16.99,70.61,1.18,139.24-11.13,189.12-69.98,2.74-3.24,6.56-5.79,10.29-7.94,42.6-24.52,63.02-60.81,65.23-110.39,1.45-32.56-5.8-61.5-19.29-90.08-48.87-103.58-124.68-174.16-241.19-191.16-86.03-12.55-170.69.37-253.64,23.87-34.39,9.74-67.82,22.86-101.71,34.46,4.87,23.36,5.03,43.59,13.33,59.61,13.63,26.3,32.54,49.87,49.97,75.7,30.66-39.34,72.73-67.87,121.62-86.52,48.27-18.41,97.8-28.53,148.99-27.04ZM140.25,194.67c-13.43-2.38-20.57-3.51-27.64-4.93-23.36-4.7-46.5-11.37-70.08-13.77-27.44-2.79-33.81,7.22-21.53,31.37,7.83,15.4,14.87,34.67,28.07,43.12,26.68,17.07,21.98,41.64,24.39,65.49,6.69,66.08,48.81,114.83,111.53,128.22,44.41,9.49,87.88,3.36,130.38-10.88,5.62-1.88,12.03-6.21,14.72-11.21,11.15-20.73,29.59-30.26,50.38-38.55,10.52-4.19,21.68-12.12,27.67-21.49,43.77-68.43,31.26-160.25-27.89-216.4-3.58-3.39-6.1-8.82-7.21-13.73-6.7-29.62-11.23-59.85-19.81-88.89-4.89-16.56-18.14-16.39-26.27-1.31-11.97,22.2-21.75,45.57-32.63,68.36-3.05,6.39-6.65,12.53-12.78,23.98-3.88-12.01-5.67-17.56-8-24.77-55.6,7.71-108.82,20.46-148.94,64.51,4.4,5.87,7.89,10.54,15.63,20.88ZM115.33,432.77c-3.3,11.39-12.02,25.08-8.42,33.54,3.82,9,18.65,15.65,29.89,18.47,9.7,2.43,21.34-1.09,31.66-3.75,4.16-1.07,10.1-7.04,9.89-10.46-.32-5.2-4.09-12.52-8.5-14.71-15.99-7.94-32.85-14.12-54.52-23.09ZM194.96,466.3c-.22,15.75,11.42,21.64,27.08,23.75,41.84,5.63,69.7-23.12,104.61-39.33-45.09,5.33-87.7,10.38-131.69,15.58Z" stroke-width="0"/><path d="M716.69,100.13c-51.19-1.49-100.72,8.63-148.99,27.04-48.89,18.65-90.96,47.18-121.62,86.52-17.43-25.83-36.34-49.4-49.97-75.7-8.3-16.02-8.47-36.25-13.33-59.61,33.89-11.59,67.32-24.71,101.71-34.46,82.95-23.5,167.62-36.42,253.64-23.87,116.51,17,192.31,87.57,241.19,191.16,13.48,28.58,20.74,57.52,19.29,90.08-2.22,49.58-22.64,85.87-65.23,110.39-3.73,2.15-7.54,4.7-10.29,7.94-49.88,58.85-118.51,71.16-189.12,69.98-58.42-.97-116.56-13.08-175.04-16.99-51.91-3.47-104.11-2.52-156.19-3.33-9.4-.15-18.88,1.48-28.23.86-12.98-.86-26.76-1.53-31.66-17.49-5.19-16.88.1-33.37,14.37-39.59,24.71-10.76,51.25-20.14,77.82-23.29,66.33-7.87,131.26,7.06,196.33,17.96,48.81,8.18,97.97,14.71,145.88-4.53,13.57-5.45,29.78-9.19,36.81-29.39-6.89.35-10.87-.67-13.17.85-47.8,31.66-99.89,28.62-153.31,21.07-60.89-8.61-122.05-15.36-183.17-22.2-14.05-1.57-28.42-.23-44.54-.23,23.91-39.44,31.44-81.96,27.95-127.25-.61-7.89,5.97-17.59,11.61-24.5,51.06-62.56,120.33-90.71,197.7-102.86,20.18-3.17,40.55-5.15,60.83-7.67-.42-3.63-.84-7.26-1.26-10.89Z" fill="#fff" stroke-width="0"/><path d="M140.25,194.67c-7.73-10.33-11.23-15-15.63-20.88,40.12-44.05,93.34-56.81,148.94-64.51,2.33,7.21,4.12,12.76,8,24.77,6.13-11.45,9.73-17.58,12.78-23.98,10.87-22.79,20.66-46.16,32.63-68.36,8.13-15.09,21.38-15.25,26.27,1.31,8.58,29.04,13.11,59.27,19.81,88.89,1.11,4.91,3.64,10.34,7.21,13.73,59.15,56.15,71.66,147.98,27.89,216.4-5.99,9.36-17.15,17.29-27.67,21.49-20.78,8.29-39.22,17.82-50.38,38.55-2.69,5-9.1,9.33-14.72,11.21-42.5,14.24-85.98,20.36-130.38,10.88-62.72-13.4-104.84-62.15-111.53-128.22-2.42-23.85,2.29-48.42-24.39-65.49-13.21-8.45-20.25-27.72-28.07-43.12-12.28-24.16-5.91-34.16,21.53-31.37,23.58,2.4,46.73,9.08,70.08,13.77,7.07,1.42,14.21,2.55,27.64,4.93ZM355.7,356.47c-3.21-11.28-29.64-6.66-19.69-28.44,1.73-3.8-11.52-19.31-12.62-18.77-10.86,5.34-20.61,12.92-30.68,19.87,5.23,5.51,9.7,14.5,15.84,15.83,13.91,3.02,17.35,8.03,10.72,20.65-1.67,3.17-.8,7.68-1.34,14.86,14.12-8.97,25.62-16.28,37.79-24ZM322.7,105.7c5.69-11.22,11.16-21.18,15.75-31.53,1.43-3.23.49-7.51.63-11.32-4.22,1.14-10.45.93-12.3,3.67-5.6,8.28-10.88,17.3-13.67,26.8-2.62,8.9-4.32,26.35-2.27,27,14.16,4.51,29.4,5.61,44.29,7.8.54-2.87,1.07-5.74,1.61-8.6-10.11-4.11-20.22-8.21-34.03-13.82ZM38.14,197.29c14.78,5.23,27.58,9.76,38.57,13.65-1.21,12.19-2.17,21.86-3.13,31.53,2.62.71,5.25,1.42,7.87,2.13,5.68-12.57,11.36-25.15,16.88-37.36-27.73-18.72-43.49-21.79-60.2-9.94ZM258.9,346.02c-16.21-10.65-66.95,5.04-69.61,20.38-.38,2.18,6.72,8.39,8.23,7.75,20.05-8.56,39.72-18.01,61.38-28.13ZM347.9,293.64c-.26-2.46-.51-4.92-.77-7.39,12.58-8.37,25.47-16.33,37.53-25.39,2.89-2.17,3.04-8,4.46-12.15-4.49.16-10.62-1.5-13.18.81-9.96,8.99-19.4,18.76-27.66,29.31-2.44,3.12-.38,9.77-.38,14.81Z" fill="#fff" stroke-width="0"/><path d="M115.33,432.77c21.66,8.97,38.53,15.15,54.52,23.09,4.41,2.19,8.18,9.51,8.5,14.71.21,3.41-5.74,9.38-9.89,10.46-10.33,2.66-21.96,6.19-31.66,3.75-11.24-2.82-26.06-9.47-29.89-18.47-3.59-8.46,5.12-22.15,8.42-33.54Z" fill="#fff" stroke-width="0"/><path d="M194.96,466.3c43.99-5.21,86.6-10.25,131.69-15.58-34.91,16.22-62.77,44.96-104.61,39.33-15.66-2.11-27.31-8-27.08-23.75Z" fill="#fff" stroke-width="0"/><path d="M355.7,356.47c-12.16,7.73-23.66,15.03-37.79,24,.55-7.19-.32-11.69,1.34-14.86,6.62-12.62,3.18-17.63-10.72-20.65-6.13-1.33-10.61-10.32-15.84-15.83,10.07-6.95,19.82-14.54,30.68-19.87,1.1-.54,14.36,14.97,12.62,18.77-9.94,21.78,16.49,17.17,19.69,28.44Z" stroke-width="0"/><path d="M322.7,105.7c13.81,5.61,23.92,9.72,34.03,13.82-.54,2.87-1.07,5.74-1.61,8.6-14.89-2.19-30.13-3.29-44.29-7.8-2.05-.65-.34-18.1,2.27-27,2.8-9.5,8.07-18.52,13.67-26.8,1.86-2.74,8.08-2.53,12.3-3.67-.14,3.8.8,8.09-.63,11.32-4.59,10.35-10.05,20.3-15.75,31.53Z" stroke-width="0"/><path d="M38.14,197.29c16.71-11.85,32.46-8.78,60.2,9.94-5.52,12.21-11.2,24.79-16.88,37.36-2.62-.71-5.25-1.42-7.87-2.13.96-9.67,1.92-19.34,3.13-31.53-11-3.89-23.79-8.42-38.57-13.65Z" stroke-width="0"/><path d="M258.9,346.02c-21.66,10.11-41.33,19.57-61.38,28.13-1.51.64-8.61-5.57-8.23-7.75,2.66-15.34,53.4-31.03,69.61-20.38Z" stroke-width="0"/><path d="M347.9,293.64c0-5.03-2.07-11.69.38-14.81,8.26-10.55,17.7-20.32,27.66-29.31,2.55-2.31,8.69-.64,13.18-.81-1.41,4.15-1.56,9.97-4.46,12.15-12.06,9.06-24.95,17.03-37.53,25.39.26,2.46.51,4.92.77,7.39Z" stroke-width="0"/></g></svg>