<?xml version="1.0" encoding="UTF-8"?><svg id="b" xmlns="http://www.w3.org/2000/svg" viewBox="0 0 1151.01 722.69"><g id="c"><path d="M292.63,178.56c12-14.07,22.17-27.07,33.45-39.03,52.78-55.95,114.04-99.58,188.51-121.15,72.61-21.03,146.86-26.49,219.77-3.21,59.73,19.08,105.55,59.26,143.99,108.37,47.6,60.82,57.36,129.94,44.22,203.27-4.93,27.52,2.66,46.64,37.63,66.96,32.07,18.64,67.83,30.86,100.55,48.51,22.39,12.07,46.03,25.32,62.67,43.83,37.03,41.19,34.07,86.5,7.24,134.65-29.67,53.25-76.07,86.5-134.87,100.44-15.25,3.62-33.48.06-49.07-4.53-17.85-5.25-26.99-30.67-16.08-46.02,9.61-13.51,23.51-24.86,37.53-34.12,19.44-12.83,44.61-18.99,60.44-34.86,27.64-27.73,36.51-61.78-8.84-83.24-36.02-17.04-73.15-31.71-109.66-47.73-9.5-4.17-18.53-9.41-28.98-14.78-17.39,37.14-51.13,51.26-86.43,62.96-35.13,11.65-67.15,28.81-97.46,50.12-13.93,9.79-30.96,18.24-48.32,5.7-6.16-4.45-10.51-11.41-15.56-17.08-46.39,12.29-92.56,24.44-138.68,36.78-13.2,3.53-26.42,7.11-39.3,11.6-7.21,2.51-15.35,5.38-13.36,16.35,2.97,16.43-7.52,23.64-20.54,28.93-45.44,18.44-93.18,27.14-141.71,28.19-46.37,1-93.04-.07-139.18-4.4-43.24-4.05-86.97-9.6-126.08-31.75-12.47-7.06-17.03-15.21-13.18-30.93,9.83-40.12,17.24-80.84,25.1-121.42,4.3-22.18,22.17-26.04,39.5-30.45,16.79-4.28,33.85-7.53,50.79-11.24.04-1.65.08-3.3.12-4.96-7.68-1.79-15.32-3.73-23.04-5.34-11.84-2.47-23.94-4.01-35.48-7.46-3.76-1.13-6.1-6.99-9.09-10.69,4.33-1.35,8.91-4.38,12.93-3.77,16.03,2.46,31.88,6.05,47.8,9.23,1.29-1.24,2.57-2.47,3.86-3.71-3.11-4.34-5.28-10.69-9.5-12.66-13.27-6.2-27.71-9.92-40.85-16.34-5.34-2.61-8.51-9.67-12.67-14.7,6.01.13,12.48-1.14,17.94.65,13.62,4.48,26.79,10.36,39.8,15.54,6.29-27.37,10.1-52.49,18.12-76.18,6.8-20.07,17.38-39.14,28.22-57.51,18.35-31.1,38.07-61.41,57.57-91.83,5.64-8.8,11.89-17.39,18.93-25.09,18.92-20.67,38.56-17.82,51.15,7.3,3.72,7.43,5.94,15.61,10.09,26.77ZM677.68,491.62c-12.52-20.94-22.88-42.2-17.69-65.31,3.76-16.77,13.36-32.38,21.61-47.84,1.45-2.72,9.07-2.16,13.84-3.11-1.07,4.38-1.38,9.15-3.37,13.06-4,7.84-10.24,14.72-13.21,22.85-10.19,27.88-1.19,52.79,14.17,76.11,7.12,10.8,5.56,15.92-7.68,20.15-10.37,3.32-20.31,10.27-28.44,17.78-9.99,9.23-10.59,22.04-2.83,33.02,8.44,11.94,19.92,7.74,29.32,1.05,39.29-28,82.52-47.07,128.03-62.88,27.09-9.41,52.54-24.6,57.66-58.6,1.63-10.81,9.15-6.01,15.5-1.91,13.49,8.71,26.85,17.98,41.33,24.74,35.65,16.64,72.28,31.21,107.78,48.15,22.59,10.78,34.63,29.95,28.77,55.53-8.86,38.59-31.09,65.07-70.56,77.54-15.54,4.91-30.44,15.72-42.35,27.23-14.43,13.94-8.53,32.79,11.09,37.29,11.85,2.72,25.76,2.89,37.29-.61,47.7-14.48,87.85-40.98,114.73-83.75,19.22-30.58,30.74-63.57,15.84-100.19-12.06-29.64-35.39-47.74-63.05-60.93-34.1-16.26-69.77-29.6-102.65-47.97-44.68-24.95-65.93-46.57-53.48-101.09,8.14-35.63,5-72.79-5.62-108.1-11.88-39.52-35.42-72.55-63.78-101.99-35.22-36.56-76.42-64.75-125.91-77.29-60.03-15.2-120.2-10.41-180.02,4.44-83.2,20.66-148.96,68.54-205.88,130.26-11.45,12.41-20.29,27.23-31.68,42.77,5.67.93,8.12,1.25,10.53,1.73,31.82,6.43,63.68,12.66,95.42,19.43,12.17,2.6,22.94,6.89,35.74-1.67,21.57-14.43,44.19-27.8,67.76-38.56,24.11-11,38.04-1.68,35.58,24.63-3.16,33.9-10.36,67.43-16.49,101-.64,3.52-5.8,6.22-8.87,9.3-1.97-4.26-6.2-8.92-5.52-12.7,3.65-20.18,9.45-39.99,12.68-60.23,2.58-16.17,2.55-32.75,3.9-52.34-10.29,2.79-16.8,3.25-21.91,6.17-23.62,13.5-46.74,27.85-70.29,41.47-4.45,2.57-11.45,5.98-14.9,4.26-37.83-18.91-78.79-21.75-119.74-25.83-6.07-.6-13.82-7.25-16.59-13.09-5.1-10.77-6.11-23.43-10.69-34.53-3.56-8.61-9.97-16.05-15.11-24.01-8.09,5.85-16.26,11.61-24.21,17.65-1.57,1.19-2.34,3.47-3.41,5.28-14.6,24.87-26.69,51.7-44.34,74.18-27.58,35.15-47.82,72.49-55.44,116.8-3.53,20.53,11.3,42.39,32.04,41.78,13.34-.39,26.57-3.88,39.89-5.71,2.71-.38,5.59.41,8.39.66-1.28,2.91-1.75,7.15-3.98,8.5-16.09,9.74-33.55,14.84-52.25,9.95-8.69-2.28-16.73-7.03-26.98-11.5.92,40.57,14.89,76.06,30.14,112.09,11.92.68,25.12.94,38.21,2.27,59.52,6.03,117.9,1.2,175.13-16.86,4.33-1.37,9.86,1.08,14.83,1.76-3.43,4.27-6.12,11.18-10.4,12.36-23.29,6.43-46.73,13.01-70.56,16.66-62.31,9.54-124.34,2.34-186.03-6.94-16.48-2.48-32.6-8.24-48.35-13.98-4.35-1.59-6.75-8.52-10.05-13,5.35.19,10.89-.42,16.03.72,19.96,4.45,39.8,9.46,63.16,15.1-7.58-21.06-13.32-37.01-18.92-52.57-21.78,4.86-41.84,8.64-61.46,14.01-10.28,2.81-16.76,8.82-18.95,21.94-6.4,38.28-14.94,76.25-24.17,113.97-2.6,10.62-.75,16.55,8.51,19.93,17.74,6.47,35.35,15.17,53.73,17.63,49.58,6.62,99.43,12.39,149.35,14.9,60.88,3.06,121.15-3.75,179.26-23.75,10.2-3.51,22.58-6.89,20.32-21.75-5.99-39.5-12.73-78.89-18.81-118.38-.59-3.85,1.32-8.08,2.07-12.13,3.97,2.84,9.47,4.85,11.57,8.72,3.87,7.12,5.75,15.33,6.92,18.67,27.22-2.99,51.98-5.92,76.81-8.16,3.33-.3,6.99,2.91,10.49,4.5-2.88,3.13-5.22,7.46-8.79,9.08-4.1,1.86-9.3,1.31-14.01,1.85-13.07,1.48-26.82,1.02-38.98,5.17-8.14,2.78-19.54,11.87-19.83,18.57-.67,15.21,4.61,30.69,7.39,45.59,2.53.33,3.67.8,4.6.55,57.8-15.73,115.61-31.44,173.33-47.46,4.31-1.2,10.35-3.86,11.55-7.27,8.02-22.82,24.67-36.99,45.93-46.82Z" stroke-width="0"/><path d="M677.68,491.62c-21.27,9.83-37.91,24-45.93,46.82-1.2,3.4-7.24,6.07-11.55,7.27-57.72,16.02-115.53,31.73-173.33,47.46-.93.25-2.07-.22-4.6-.55-2.78-14.91-8.06-30.38-7.39-45.59.29-6.69,11.69-15.79,19.83-18.57,12.17-4.15,25.91-3.69,38.98-5.17,4.72-.53,9.91.02,14.01-1.85,3.57-1.62,5.91-5.95,8.79-9.08-3.5-1.59-7.16-4.8-10.49-4.5-24.82,2.24-49.59,5.18-76.81,8.16-1.17-3.34-3.04-11.54-6.92-18.67-2.1-3.86-7.6-5.87-11.57-8.72-.75,4.05-2.66,8.29-2.07,12.13,6.08,39.49,12.82,78.88,18.81,118.38,2.25,14.86-10.13,18.24-20.32,21.75-58.11,19.99-118.38,26.81-179.26,23.75-49.92-2.51-99.77-8.27-149.35-14.9-18.38-2.46-35.99-11.16-53.73-17.63-9.25-3.38-11.11-9.3-8.51-19.93,9.24-37.72,17.77-75.69,24.17-113.97,2.19-13.12,8.67-19.13,18.95-21.94,19.62-5.37,39.68-9.15,61.46-14.01,5.6,15.56,11.34,31.5,18.92,52.57-23.37-5.64-43.2-10.65-63.16-15.1-5.14-1.15-10.68-.53-16.03-.72,3.3,4.48,5.7,11.41,10.05,13,15.75,5.74,31.87,11.51,48.35,13.98,61.69,9.27,123.72,16.47,186.03,6.94,23.83-3.65,47.27-10.23,70.56-16.66,4.28-1.18,6.97-8.1,10.4-12.36-4.97-.68-10.5-3.13-14.83-1.76-57.23,18.06-115.61,22.88-175.13,16.86-13.09-1.33-26.29-1.59-38.21-2.27-15.25-36.03-29.22-71.52-30.14-112.09,10.25,4.47,18.29,9.23,26.98,11.5,18.7,4.9,36.16-.2,52.25-9.95,2.23-1.35,2.7-5.6,3.98-8.5-2.8-.25-5.68-1.03-8.39-.66-13.32,1.84-26.55,5.32-39.89,5.71-20.73.6-35.57-21.25-32.04-41.78,7.62-44.3,27.85-81.65,55.44-116.8,17.64-22.48,29.74-49.31,44.34-74.18,1.07-1.82,1.84-4.09,3.41-5.28,7.95-6.04,16.12-11.79,24.21-17.65,5.14,7.96,11.55,15.4,15.11,24.01,4.58,11.1,5.59,23.76,10.69,34.53,2.77,5.84,10.52,12.49,16.59,13.09,40.95,4.07,81.91,6.92,119.74,25.83,3.45,1.72,10.44-1.69,14.9-4.26,23.55-13.61,46.68-27.97,70.29-41.47,5.11-2.92,11.62-3.38,21.91-6.17-1.35,19.59-1.32,36.17-3.9,52.34-3.23,20.23-9.03,40.04-12.68,60.23-.68,3.78,3.56,8.44,5.52,12.7,3.07-3.08,8.23-5.78,8.87-9.3,6.13-33.57,13.32-67.11,16.49-101,2.46-26.31-11.47-35.64-35.58-24.63-23.57,10.76-46.19,24.14-67.76,38.56-12.8,8.56-23.56,4.27-35.74,1.67-31.74-6.77-63.6-13.01-95.42-19.43-2.42-.49-4.87-.81-10.53-1.73,11.39-15.54,20.23-30.36,31.68-42.77,56.91-61.72,122.68-109.6,205.88-130.26,59.82-14.85,119.99-19.65,180.02-4.44,49.49,12.53,90.68,40.72,125.91,77.29,28.36,29.44,51.9,62.47,63.78,101.99,10.62,35.31,13.76,72.47,5.62,108.1-12.46,54.53,8.8,76.14,53.48,101.09,32.89,18.37,68.55,31.71,102.65,47.97,27.66,13.19,50.99,31.29,63.05,60.93,14.9,36.62,3.38,69.61-15.84,100.19-26.88,42.77-67.03,69.27-114.73,83.75-11.53,3.5-25.44,3.33-37.29.61-19.62-4.5-25.52-23.36-11.09-37.29,11.92-11.51,26.81-22.32,42.35-27.23,39.47-12.47,61.71-38.94,70.56-77.54,5.87-25.58-6.18-44.75-28.77-55.53-35.5-16.94-72.13-31.51-107.78-48.15-14.48-6.76-27.84-16.03-41.33-24.74-6.35-4.1-13.87-8.91-15.5,1.91-5.12,34.01-30.57,49.2-57.66,58.6-45.5,15.8-88.74,34.88-128.03,62.88-9.39,6.69-20.88,10.89-29.32-1.05-7.76-10.98-7.16-23.79,2.83-33.02,8.12-7.51,18.06-14.46,28.44-17.78,13.23-4.23,14.79-9.35,7.68-20.15-15.36-23.32-24.36-48.23-14.17-76.11,2.97-8.13,9.21-15.02,13.21-22.85,1.99-3.91,2.3-8.68,3.37-13.06-4.77.95-12.39.38-13.84,3.11-8.25,15.46-17.85,31.08-21.61,47.84-5.19,23.11,5.17,44.36,17.69,65.31ZM358.75,450.09c8.35-3.51,24.91-9.68,40.59-17.6,4.03-2.03,5.27-9.57,7.8-14.58-5.11.96-10.33,1.53-15.32,2.94-14.89,4.19-29.45,10.65-44.6,12.53-13.96,1.74-24.71-6.72-31.18-19.94-.87-1.78-7.89-2.97-8.65-1.93-2.04,2.78-3.81,7.41-2.88,10.43,5.08,16.52,24.64,28.41,54.24,28.15ZM242.96,463c8.36-1.02,14.35-.82,19.69-2.6,9.07-3.02,11.84-14.72,4.13-17.88-12.64-5.17-26.37-8.41-39.94-10.08-3.98-.49-11.11,6.34-12.74,11.18-1.15,3.39,3.46,11.23,7.47,13.32,7.1,3.72,15.69,4.58,21.39,6.05Z" fill="#fff" stroke-width="0"/><path d="M358.75,450.09c-29.6.26-49.16-11.63-54.24-28.15-.93-3.03.84-7.65,2.88-10.43.76-1.04,7.78.15,8.65,1.93,6.47,13.22,17.23,21.68,31.18,19.94,15.15-1.89,29.71-8.34,44.6-12.53,4.99-1.4,10.2-1.98,15.32-2.94-2.52,5.01-3.77,12.55-7.8,14.58-15.68,7.92-32.23,14.09-40.59,17.6Z" stroke-width="0"/><path d="M242.96,463c-5.7-1.47-14.29-2.33-21.39-6.05-4-2.1-8.62-9.93-7.47-13.32,1.64-4.84,8.76-11.67,12.74-11.18,13.57,1.67,27.3,4.91,39.94,10.08,7.71,3.15,4.94,14.86-4.13,17.88-5.34,1.78-11.33,1.58-19.69,2.6Z" stroke-width="0"/></g></svg>