<?xml version="1.0" encoding="UTF-8"?><svg id="b" xmlns="http://www.w3.org/2000/svg" viewBox="0 0 976.07 896.14"><g id="c"><path d="M770.52,762.19c-24.45,12.22-39.25,28.95-54.45,45.14-13.04,13.89-25.28,28.59-38.97,41.78-14.67,14.13-32.18,27.21-53.19,17.49-21.21-9.82-21.17-32.09-20.61-52.11.7-25.13,7.87-48.95,18.63-71.61,5.64-11.88,11.71-23.54,18.76-37.64-9.68.38-14.2,6.39-19.16,10.89-25.16,22.83-51.11,44.88-74.98,69-48.62,49.12-107.08,77.4-175.31,84.66-96.7,10.29-193.65,5.7-290.25-.86-44.04-2.99-70.04-31.18-79.82-73.3-5.05-21.77,6.48-40.65,31.07-53.13,14.89-7.55,31.78-7.32,46.13-11.77-39.28-108.03-5.36-206.44,35.23-302.86,15.82-37.58,39-36.89,59.75-.29,20.24,35.7,45.65,60.03,88.83,61.78,16.17.65,26.87-3.43,32.75-19.56,6.51-17.87,14.05-35.54,25.97-50.65,14.28-18.1,26.05-17.93,39.26,1.11,17.14,24.71,25.01,53.96,38.02,80.71,1.35,2.77,3.14,5.32,5.82,9.8,23.96-29.64,45.93-58.4,71.51-84.05,47.11-47.23,98.42-88.64,159.42-116.9,70.91-32.86,142.4-41.99,214.46-4.58,30.97-37.37,30.43-84.58-2.15-119.77-32.92-35.56-75.2-49.3-122.8-50.1-81.04-1.36-157.19,19.5-231.43,49.58-67.58,27.38-132.11,61.23-197.39,93.46-21.81,10.77-44.47,18.15-68.46,21.05-44.71,5.4-75.67-21.33-77.62-66.37-1.26-29.16,7.3-55.38,23.13-79.71,35.65-54.78,84.59-93.96,145.82-114.57,160.34-53.97,320.57-52.47,478.71,9.69,49.88,19.6,93.52,49.64,128.82,90.73,62.65,72.93,66.87,156.24,10.48,234.05-9.69,13.37-11.67,24.63-8.46,40.77,32.57,163.67-4.15,313.58-92.3,452.83-2.2,3.48-4.73,6.9-7.72,9.69-12.16,11.31-24.66,24.53-43.14,17.72-17.64-6.5-18.61-23.44-19.37-39.57-1.41-29.83,1.16-59.46,5.02-92.51ZM334.13,790.75c-8.92,7.45-19.94,6.21-30.36,6.05-39.84-.64-79.16-6.92-118.68-11.11-42.15-4.47-84.28-6.23-125.58,7.11-12.39,4-20.67,11.23-21.43,24.24-.78,13.41,7.67,20.93,19.57,25.54,15.62,6.05,31.73,9.34,48.41,10.05,80.36,3.41,160.81,3.34,241.07.02,70.02-2.89,132-28.52,182.53-79.14,35.13-35.19,71.37-69.29,112.44-97.69,39.3-27.18,81.59-47.28,129.6-53.38,9.4-1.19,20.24-5.69,23.04,8.22-2.38,10.82-15.21,7.98-19.23,19.23,22.65,57.21,18.26,117.97,8.65,179.09-2.54,16.18-3.66,32.88,9.14,46,13.37-.98,18.85-10.62,25.4-19.16,30.71-40.06,48.99-86.25,65.06-133.34,30-87.93,48.61-177.43,31.48-270.82-22.75-124.07-118.99-179.68-237.99-137.89-39.42,13.84-75.18,34.54-108.71,59.1-57.94,42.45-107.99,92.7-149,151.87-14.37,20.73-21.07,20.24-32.04-2.21-10.53-21.56-19.71-43.77-29.99-65.46-4.69-9.89-8.35-20.74-17.65-29-14.78,17.63-20.2,37.99-29.7,56.16-5.99,11.47-13.12,21.2-26.32,24.5-32.13,8.02-86.63-12.56-106.71-39.81-11.66-15.82-19.62-34.38-36.44-49.71-37.64,77.37-64.3,155.77-59.39,241.85,2.26,39.52,21.29,68.89,58.3,85.54,15.89,7.15,32.04,13.21,48.95,17.58,40.52,10.48,82.08,10.02,123.36,12.65,9.18.58,21.08-2.34,22.22,13.92ZM912.39,371.54c54.43-64.35,57.53-139.32,9.95-204.52-28.5-39.06-65.46-68.61-108.88-88.31C648.49,3.84,480.53-.43,311.65,64.23c-54.64,20.92-98.39,57.4-127.47,109.6-8.6,15.43-14.44,31.49-14.99,49.33-1.28,41.73,20.97,61.04,62.13,55.18,32.79-4.67,61-20.35,89.73-34.9,96.78-48.98,193.73-97.46,301.38-118.82,67.74-13.44,134.9-17.23,199.25,14.43,55.34,27.23,86.15,90.76,62.31,145.45-13.94,31.98-5.78,50.02,14.4,70.41,4.6,4.65,8.47,10.02,14,16.64ZM749.31,648.83c-23.28,6.11-47.97,8.22-63.22,27.12-29.21,36.2-52.55,76.02-60.55,122.93-2.89,16.95-9.01,38.47,7.94,47.73,17.54,9.58,28.52-11.25,39.83-21.98,23.88-22.64,41.88-51.17,69.41-70.26,33.09-22.94,34.1-25.12,23.74-64.65-3.53-13.5-7.5-26.95-17.16-40.9ZM117.93,762.3c-15.2-12.9-55.54-12.42-78.91-.17-11.53,6.04-22.2,13.06-16.78,32.03,27.07-27.9,60.93-29.31,95.69-31.86Z" stroke-width="0"/><path d="M334.13,790.75c-1.14-16.26-13.04-13.34-22.22-13.92-41.28-2.63-82.84-2.17-123.36-12.65-16.91-4.37-33.06-10.44-48.95-17.58-37.01-16.65-56.04-46.02-58.3-85.54-4.92-86.08,21.75-164.48,59.39-241.85,16.82,15.33,24.78,33.89,36.44,49.71,20.09,27.25,74.58,47.84,106.71,39.81,13.2-3.29,20.32-13.03,26.32-24.5,9.5-18.17,14.92-38.54,29.7-56.16,9.3,8.25,12.96,19.1,17.65,29,10.28,21.69,19.46,43.9,29.99,65.46,10.97,22.45,17.68,22.93,32.04,2.21,41.01-59.17,91.06-109.42,149-151.87,33.53-24.57,69.3-45.26,108.71-59.1,119-41.78,215.23,13.82,237.99,137.89,17.13,93.4-1.48,182.9-31.48,270.82-16.07,47.09-34.35,93.28-65.06,133.34-6.55,8.54-12.03,18.18-25.4,19.16-12.8-13.12-11.69-29.83-9.14-46,9.61-61.12,14-121.88-8.65-179.09,4.02-11.26,16.85-8.42,19.23-19.23-2.8-13.9-13.64-9.41-23.04-8.22-48.01,6.1-90.3,26.2-129.6,53.38-41.07,28.4-77.31,62.5-112.44,97.69-50.53,50.62-112.51,76.25-182.53,79.14-80.26,3.32-160.71,3.39-241.07-.02-16.68-.71-32.8-4-48.41-10.05-11.9-4.61-20.35-12.13-19.57-25.54.76-13.01,9.04-20.24,21.43-24.24,41.3-13.34,83.43-11.58,125.58-7.11,39.52,4.19,78.85,10.48,118.68,11.11,10.43.17,21.44,1.4,30.36-6.05ZM180.6,628.88c-1.84,1.44-3.68,2.89-5.51,4.33,4.28,18.78,8.56,37.55,13.05,57.24,15.31-6.91,13.59-20.07,19.91-28.37,6.44-8.46,23.09-8.76,19.83-26.22-15.3-4.97-33.55,13.33-47.28-6.98ZM238.05,583.32c-3.05,24.93,7.09,36.42,27.48,37.81,18.72,1.28,43.34-13.82,42.54-26.63-.53-8.47-7.76-13.39-13.28-7.15-18.85,21.34-36.61,16-56.74-4.04ZM188.89,582.62c-25.77,2.9-46.17-1.61-62.85-18.44-3.09,22.11,8.9,31.68,24.83,37.76,15.44,5.9,26.32-.57,38.02-19.32Z" fill="#fff" stroke-width="0"/><path d="M912.39,371.54c-5.53-6.62-9.4-11.99-14-16.64-20.18-20.39-28.34-38.43-14.4-70.41,23.84-54.69-6.96-118.22-62.31-145.45-64.34-31.66-131.51-27.87-199.25-14.43-107.65,21.37-204.6,69.84-301.38,118.82-28.73,14.54-56.94,30.23-89.73,34.9-41.16,5.86-63.41-13.45-62.13-55.18.55-17.83,6.39-33.89,14.99-49.33,29.09-52.19,72.83-88.67,127.47-109.6C480.53-.43,648.49,3.84,813.46,78.7c43.42,19.7,80.38,49.26,108.88,88.31,47.58,65.2,44.48,140.17-9.95,204.52Z" fill="#fff" stroke-width="0"/><path d="M749.31,648.83c9.66,13.95,13.62,27.41,17.16,40.9,10.35,39.53,9.35,41.71-23.74,64.65-27.53,19.08-45.53,47.61-69.41,70.26-11.31,10.72-22.29,31.55-39.83,21.98-16.96-9.26-10.84-30.78-7.94-47.73,8-46.91,31.34-86.73,60.55-122.93,15.25-18.9,39.94-21,63.22-27.12Z" fill="#fff" stroke-width="0"/><path d="M117.93,762.3c-34.75,2.55-68.62,3.96-95.69,31.86-5.42-18.96,5.25-25.99,16.78-32.03,23.36-12.25,63.71-12.73,78.91.17Z" fill="#fff" stroke-width="0"/><path d="M180.6,628.88c13.73,20.32,31.98,2.01,47.28,6.98,3.26,17.46-13.39,17.77-19.83,26.22-6.32,8.3-4.6,21.46-19.91,28.37-4.49-19.69-8.77-38.47-13.05-57.24,1.84-1.44,3.68-2.89,5.51-4.33Z" stroke-width="0"/><path d="M238.05,583.32c20.13,20.03,37.9,25.37,56.74,4.04,5.52-6.25,12.74-1.32,13.28,7.15.8,12.81-23.82,27.91-42.54,26.63-20.4-1.39-30.53-12.88-27.48-37.81Z" stroke-width="0"/><path d="M188.89,582.62c-11.7,18.75-22.58,25.22-38.02,19.32-15.93-6.09-27.92-15.65-24.83-37.76,16.68,16.83,37.09,21.34,62.85,18.44Z" stroke-width="0"/><path d="M910.73,385.65c68.34-68.65,77.34-165.38,4.98-243.67-53.54-57.93-122.14-88.18-196.34-109.7-79.33-23.01-160.79-24.9-241.15-18.19-99.12,8.27-196.26,30.09-268.44,108.19-28.28,30.6-52.09,63.76-50.19,109.23,1.84,43.99,30.72,62.57,75.03,55.76,43.83-6.73,78.75-30.47,116.49-48.73,86.83-42.01,173.61-84.32,268.83-103.45,55.04-11.06,111.14-17.33,166.49,1.88,93.8,32.55,119.28,98.74,69.6,181.55" fill="none" stroke="#000" stroke-linecap="round" stroke-linejoin="round" stroke-width="9.95"/><path d="M326.45,785.95c-30.86,6.54-61.32-3.08-91.94-4.14-15.57-.54-34.37-6.36-49.82-6.71-39.69-.89-68.1-23.27-90.62-47.57-27.12-29.27-28.02-71.55-23.31-110.6,7.11-59.01,21.92-116.4,44.46-171.56,5.72-14.01,13.09-27.21,26.62-35.11,17.79,5.93,25.71,21.79,32.28,35.39,19.74,40.87,55.21,50.98,95.17,54.23,14.46,1.18,22.8-5.3,30.66-19.27,12.53-22.28,17.69-49.88,42.4-66.85,28.52,32.27,34.22,76.64,60.94,113.92,21.72-27.15,39.35-52.4,60.2-74.63,63.81-68.02,135.2-126.27,226.12-153.94,55.69-16.95,112.43-13.79,160.89,20.24,42.31,29.71,67.85,73.69,75.04,126,19.6,142.63-16.59,273.74-84.98,397.47-7.06,12.77-15.92,26.03-29.09,35.36-20.32,14.4-28.49,10.72-35.25-15.08-6.17-23.54-1.59-47.04,1.19-69.58,6.44-52.31,5.3-102.81-15.83-151.78" fill="none" stroke="#000" stroke-linecap="round" stroke-linejoin="round" stroke-width="9.95"/><path d="M649.67,691.47c-13.17-3.59-21.72,5.76-29.58,12.72-32.93,29.15-64.78,59.52-97.25,89.19-49.24,44.99-108.93,66.62-174.04,68.95-81.11,2.91-162.41.93-243.63.61-49.79-.19-80.59-22.67-94.2-69.61-5.55-19.14,6.71-31.52,22.25-39.4,10.66-5.41,21.95-12.04,34.62-10.01,11.58,1.86,18.96-4.96,27.39-10.18" fill="none" stroke="#000" stroke-linecap="round" stroke-linejoin="round" stroke-width="9.95"/><path d="M783.93,629.31c-15.12,13.73-34.89,8.07-52.31,12-53.51,12.06-79.77,49.07-97.42,97.2-8.16,22.25-16.5,44.39-21.37,67.43-2.74,12.96-1.58,27.05,4.56,39.67,9.81,20.16,26.49,15.23,39.41,6.96,22.41-14.35,37.7-36.68,55.3-56.43,17.16-19.24,34.93-38.74,61.89-45" fill="none" stroke="#000" stroke-linecap="round" stroke-linejoin="round" stroke-width="9.95"/><path d="M138.74,766.05c-17.31,14.33-39.32,7.15-58.73,10.86-22.69,4.35-39.12,13.89-54.4,28.92" fill="none" stroke="#000" stroke-linecap="round" stroke-linejoin="round" stroke-width="9.95"/><path d="M241.92,587.04c9.99,31.23,28.69,33.67,57.18,7.46" fill="none" stroke="#000" stroke-linecap="round" stroke-linejoin="round" stroke-width="9.95"/><path d="M132.52,574.61c10.01,16.53,22.39,26.34,42.27,14.92" fill="none" stroke="#000" stroke-linecap="round" stroke-linejoin="round" stroke-width="9.95"/><path d="M182.25,631.79c7.89,24.65,9.53,25.06,39.78,9.95" fill="none" stroke="#000" stroke-linecap="round" stroke-linejoin="round" stroke-width="9.95"/></g></svg>