<?xml version="1.0" encoding="UTF-8"?><svg id="b" xmlns="http://www.w3.org/2000/svg" viewBox="0 0 723.79 1133.95"><g id="c"><path d="M514.89.29c115.32.28,181.7,90.81,152.9,201.82-21.26,81.96-76.64,135.51-144.95,177.44-27.2,16.7-19.77,21.97.7,36.82,153.82,111.62,223.65,261.54,193.3,451.01-16.11,100.56-78.57,175.28-157.04,236.44-21.51,16.77-47.74,25.13-75.56,26.99-24.01,1.61-44.32-3.6-55.91-27.24-3.07-6.26-7.04-12.43-14.71-12.49-32.88-.28-65.78-.45-98.66.17-11.73.22-14.37,11.43-19.14,19.67-11.78,20.33-29.26,26.54-51.79,21.23-31.99-7.54-58.58-24.98-83.44-45.34C66.72,1009.96,2.85,916.12.12,790.45c-3.78-173.45,84.23-292.24,228.55-376.1,54.62-31.74,114.88-51.07,171.97-77.37,61.19-28.19,119.81-59.7,156.11-120.37,8.04-13.43,14.89-27.25,17.95-42.58,5.65-28.33-2.19-52-26.5-68.61-23.15-15.83-46.83-14.99-70.86-.95-33.92,19.82-60.04,18.86-72.17-1.88-11.95-20.43.53-59.32,25.35-76.42C456.73,8.1,485.64-1.86,514.89.29ZM362.76,1068.58v-.15c34.83,0,69.66-.18,104.49.14,7.89.07,19.69-4.5,21,8.42,1.03,10.19-9.43,10.09-16.77,11.97-6.46,1.65-18.17-2.45-16.16,9.99,1.38,8.54,10.64,10.45,18.69,10.53,32.59.31,60.73-12.59,84.84-32.85,167.53-140.78,180.46-326.78,85.34-498.18-38.03-68.52-93.98-119.51-159.86-160.78-30.22-18.93-29.19-27.03,3.41-44.39,28.34-15.1,54.7-33.19,78.85-54.07,54.72-47.3,85.69-106.27,84.78-180.15-.67-54.18-33-85.78-78.6-104.32-46.53-18.93-93.22-16.15-134.31,16.19-11.13,8.76-22.56,22.31-12.33,37.5,12.34,18.34,25.52,3.83,37.17-3.36,35.49-21.89,72.26-21.22,102.51,2.48,31.99,25.07,43.35,62.38,30.04,101.39-9.15,26.81-23.6,50.5-42.12,72.2-47.41,55.56-111.49,84.47-176.35,112.14-55.14,23.53-110.81,45.53-163.13,75.48C72.48,529.9-2.4,692.27,31.41,851.99c23.6,111.45,95.22,187.64,187.65,247.2,8.63,5.56,19.65,8.14,29.95,10.2,9.44,1.89,21.95,2.41,24.76-9.01,3.55-14.42-10.82-8.92-17.61-11.59-6.24-2.45-14.57-3.56-13.83-12.16.81-9.34,9.4-7.98,15.93-8,34.83-.12,69.67-.06,104.5-.06Z" stroke-width="0"/><path d="M362.76,1068.58c-34.83,0-69.67-.07-104.5.06-6.53.02-15.12-1.34-15.93,8-.74,8.6,7.59,9.71,13.83,12.16,6.79,2.67,21.16-2.83,17.61,11.59-2.81,11.42-15.32,10.89-24.76,9.01-10.29-2.06-21.31-4.63-29.95-10.2-92.43-59.56-164.06-135.75-187.65-247.2-33.81-159.72,41.07-322.09,182.83-403.23,52.32-29.95,107.99-51.95,163.13-75.48,64.86-27.67,128.93-56.58,176.35-112.14,18.52-21.7,32.98-45.39,42.12-72.2,13.31-39.01,1.94-76.32-30.04-101.39-30.25-23.71-67.02-24.37-102.51-2.48-11.65,7.19-24.83,21.69-37.17,3.36-10.22-15.19,1.2-28.75,12.33-37.5,41.1-32.34,87.78-35.12,134.31-16.19,45.6,18.55,77.93,50.14,78.6,104.32.91,73.88-30.06,132.84-84.78,180.15-24.15,20.88-50.51,38.97-78.85,54.07-32.6,17.36-33.63,25.46-3.41,44.39,65.88,41.27,121.83,92.26,159.86,160.78,95.12,171.4,82.19,357.39-85.34,498.18-24.11,20.26-52.25,33.16-84.84,32.85-8.05-.08-17.31-1.99-18.69-10.53-2.01-12.44,9.69-8.33,16.16-9.99,7.35-1.88,17.8-1.78,16.77-11.97-1.3-12.92-13.11-8.35-21-8.42-34.83-.32-69.66-.14-104.49-.14v.15ZM599.76,732.65c-11.68-38.54-25.26-78.67-54.73-111.3-17.74-19.64-35.09-17.52-51.83.57-6.51,7.03-12.19,15.13-16.81,23.53-9.42,17.11-22.78,24.28-42.61,23.56-34.78-1.26-69.76-2.6-104.4-.18-36.61,2.56-63.96-2.45-80.5-41.94-11.81-28.21-38.25-33.82-56.8-16.68-39.76,36.74-55.53,87.25-72.13,136.78-1.57,4.7.21,9.8,5.83,11.64,5.63,1.84,9.49-1.34,11.62-5.96,3.64-7.87,6.7-16.02,9.85-24.12,12.29-31.62,25.63-62.74,46.47-89.87,13.24-17.24,26.64-18.09,38.61,1.57,4.02,6.6,8.1,13.32,10.88,20.47,9.32,24,26.17,33.1,51.96,32.15,39.59-1.44,79.5-2.61,118.88.78,39.11,3.36,66.06-7.69,85.6-43.21,14.43-26.23,24.67-24.39,41.1,1.15,16.92,26.31,26.92,55.58,37.03,84.87,2.35,6.81,4.98,16.08,15.55,13.33,7.07-1.84,6.3-8.76,6.44-17.15ZM605.75,926.85c5.8,0,11.62.33,17.39-.08,8.36-.59,19.64,2.44,23.01-7.61,4.07-12.14-8.17-10.97-14.91-15.48-11.08-7.41,2.59-4.91,4.24-5.49,5.63-1.99,11.79-3.23,11.3-10.73-.48-7.35-6.77-9.32-12.56-9.22-16.38.3-32.92.22-49.07,2.55-18.61,2.68-19.91,21.58-21.36,33.73-1.7,14.19,14.63,11.13,24.58,12.15,5.74.58,11.59.11,17.38.18ZM112.56,926.78c12.93,0,17.77.2,22.58-.03,28.02-1.32,30.58-5.54,19.28-31.32-6.17-14.07-53.64-24.47-66.47-14.6-4.48,3.44-6.83,9.37-2.24,11.92,11.59,6.45,7.85,9.63.54,17.33-8.05,8.47.06,14.09,8.44,15.57,8.48,1.5,17.29,1.12,17.87,1.15ZM390.31,929.68c14.91-.85,26.06-5.44,33.43-16.98,3.8-5.95,6.62-12.78.34-18.24-5.54-4.81-10.68-.35-14.95,3.65-11.13,10.44-22.23,9.66-33.37.13-5.54-4.74-12.52-8.18-18.07-2.53-11.46,11.67-21.75,9.03-32.94.34-3.9-3.02-8.74-4.79-12.89-.32-4.68,5.04-3.28,10.69-.16,15.87,5.95,9.87,15.27,15.16,26.41,14.79,18.12-.61,36.26-3.81,52.2,3.29ZM539.44,866.83c-2.6-16.1-11.5-26.3-28.44-26.18-17.71.12-29.71,9.35-29.69,27.81.02,18.13,11.9,28.63,29.24,28.41,17.76-.22,26.83-12.36,28.89-30.04ZM220.25,897.5c16.84-3.32,29.76-11.8,28.93-30.24-.74-16.4-11.93-26.73-28.56-26.96-18.48-.26-29.12,10.62-28.31,29.09.73,16.6,11.49,25.64,27.94,28.11Z" fill="#fff" stroke-width="0"/><path d="M599.76,732.65c-.14,8.39.63,15.3-6.44,17.15-10.56,2.75-13.19-6.52-15.55-13.33-10.12-29.29-20.11-58.56-37.03-84.87-16.43-25.54-26.67-27.38-41.1-1.15-19.54,35.52-46.49,46.58-85.6,43.21-39.37-3.39-79.28-2.22-118.88-.78-25.79.94-42.64-8.15-51.96-32.15-2.78-7.16-6.86-13.88-10.88-20.47-11.97-19.65-25.37-18.81-38.61-1.57-20.84,27.13-34.18,58.25-46.47,89.87-3.15,8.1-6.21,16.25-9.85,24.12-2.13,4.61-5.99,7.8-11.62,5.96-5.62-1.84-7.41-6.94-5.83-11.64,16.61-49.53,32.38-100.04,72.13-136.78,18.55-17.14,44.99-11.53,56.8,16.68,16.53,39.49,43.89,44.5,80.5,41.94,34.64-2.42,69.62-1.08,104.4.18,19.83.72,33.19-6.46,42.61-23.56,4.62-8.4,10.31-16.5,16.81-23.53,16.74-18.09,34.09-20.21,51.83-.57,29.47,32.63,43.05,72.75,54.73,111.3Z" stroke-width="0"/><path d="M605.75,926.81c-5.8-.03-11.64.44-17.38-.14-9.94-1.01-26.28,2.04-24.58-12.15,1.45-12.15,2.75-31.05,21.36-33.73,16.15-2.33,32.69-2.25,49.07-2.55,5.79-.11,12.08,1.87,12.56,9.22.49,7.5-5.67,8.74-11.3,10.73-1.65.58-15.32-1.92-4.24,5.49,6.74,4.51,18.98,3.34,14.91,15.48-3.37,10.04-14.64,7.02-23.01,7.61-5.77.41-11.59.08-17.39.04Z" stroke-width="0"/><path d="M112.56,926.78c-.58-.03-9.39.35-17.87-1.15-8.38-1.48-16.49-7.09-8.44-15.57,7.31-7.69,11.06-10.88-.54-17.33-4.59-2.55-2.24-8.48,2.24-11.92,12.82-9.87,60.3.53,66.47,14.6,11.31,25.79,8.74,30-19.28,31.32-4.82.23-9.65.03-22.58.03Z" stroke-width="0"/><path d="M390.31,929.68c-15.94-7.1-34.08-3.9-52.2-3.29-11.13.37-20.45-4.92-26.41-14.79-3.12-5.18-4.52-10.83.16-15.87,4.15-4.47,8.99-2.7,12.89.32,11.19,8.68,21.48,11.33,32.94-.34,5.55-5.65,12.53-2.21,18.07,2.53,11.15,9.53,22.24,10.31,33.37-.13,4.27-4,9.41-8.46,14.95-3.65,6.28,5.46,3.46,12.29-.34,18.24-7.37,11.54-18.52,16.13-33.43,16.98Z" stroke-width="0"/><path d="M539.44,866.83c-2.07,17.68-11.13,29.82-28.89,30.04-17.34.21-29.23-10.28-29.24-28.41-.02-18.46,11.99-27.69,29.69-27.81,16.94-.12,25.84,10.08,28.44,26.18Z" stroke-width="0"/><path d="M220.25,897.5c-16.45-2.48-27.22-11.51-27.94-28.11-.81-18.47,9.82-29.35,28.31-29.09,16.63.24,27.82,10.56,28.56,26.96.83,18.44-12.09,26.92-28.93,30.24Z" stroke-width="0"/><path d="M437.15,1085.23c6.22,33.14,25.67,40.83,64.02,32.51,58.72-12.74,94.92-55.87,129.69-97.23,59.69-71,88.44-154.79,82.41-249.21-7.96-124.54-58.12-227.97-151.04-311.19-20.85-18.67-44.71-32.76-66.98-49.23-20.82-15.41-20.39-15.55,2.84-29.16,73.6-43.13,135.36-96.35,160.1-182.94,17.8-62.29,1.53-120.48-49.81-159.74-39.36-30.09-115.31-38.48-160.02-9.56-12.94,8.37-24.92,16.47-31.16,29.88-6.58,14.12-13.35,30.63,2.7,43.18,14.39,11.26,29.01,7.37,43.55-2.43,11.46-7.71,21.71-16.84,37.55-18.23,36.5-3.21,64.32,11.65,80.59,41.67,16.01,29.54,7.74,61.4-8.15,89.54-34.94,61.9-91.46,98.48-153.7,128.09-68.47,32.58-140.68,56.72-206.44,95.57C50.11,533.21-35.95,719.37,37.48,910.37c35.93,93.47,103.46,164.81,196.64,206.12,39.62,17.57,54,2.08,57.78-31.26" fill="none" stroke="#000" stroke-linecap="round" stroke-linejoin="round" stroke-width="11.63"/><path d="M126.33,750.97c16.36-36.37,29.4-74.14,51.72-107.92,9.52-14.41,18.48-30.35,35.44-30.63,19.31-.32,29.28,17.44,34.46,34.03,9.39,30.1,28.88,37.42,58.52,35.39,37.59-2.59,75.71-3.21,113.18.13,34.53,3.09,56.02-10,72.97-38.38,20.86-34.93,32.75-35.54,54.66-2.9,20.77,30.94,34.71,65.33,43.83,101.56" fill="none" stroke="#000" stroke-linecap="round" stroke-linejoin="round" stroke-width="11.63"/><path d="M483.63,1067.79c-10.21,26.12-35.33,13.56-49.29,12.78-61.12-3.39-122.14,2.18-183.1-1.16" fill="none" stroke="#000" stroke-linecap="round" stroke-linejoin="round" stroke-width="11.63"/><path d="M161.19,913.74c-23.67-9.43-46.9-8.09-69.72,2.91" fill="none" stroke="#000" stroke-linecap="round" stroke-linejoin="round" stroke-width="11.63"/><path d="M315.15,893.39c2.63,14.6,10.69,23.02,26.14,23.28,12.35.21,22.65-2.1,23.24-17.46" fill="none" stroke="#000" stroke-linecap="round" stroke-linejoin="round" stroke-width="11.63"/><path d="M649.21,887.58c-20.33-2.52-38.75,2.24-55.19,14.53" fill="none" stroke="#000" stroke-linecap="round" stroke-linejoin="round" stroke-width="11.63"/><path d="M416.82,902.11c-13.72,25.25-31.13,19.07-49.38,5.81" fill="none" stroke="#000" stroke-linecap="round" stroke-linejoin="round" stroke-width="11.63"/></g></svg>