<?xml version="1.0" encoding="UTF-8"?><svg id="b" xmlns="http://www.w3.org/2000/svg" viewBox="0 0 998.41 969.31"><g id="c"><path d="M208.08,723.56c0,.05,0,.11,0,.16.01-.12.02-.23.03-.34,0,.06-.02.12-.03.18Z" stroke-width="0"/><path d="M997.73,102.02c-8.79-35.16-21.3-79.25-54.24-98.89-19.61-9.53-48.92,3.77-52.63,25.78-4.68,22.59,9.23,36.06,16.25,55.51,3.88,11.9,2.24,24.56,1.01,36.76-1.73,26.74-6.57,52.28-17.36,77.09-7.24,17.45-17.5,33.35-27.85,49.07-11.61,17.21-22.14,35.24-36.11,50.72-8.12,8.17-15.52,17.05-23.8,25.05-19.31,16.7-45.18,25.34-70.65,23.68-43.25-1.46-84.72-15.68-127.61-20.26-38.48-4.27-76.87,1.29-115.33,2.85-29.67,2.51-59.4,4.42-88.77,9.68-18.21,3.35-36.79,3.46-55.09,6.5-21.99-.06-47.16-3.16-64.14-18.31-27.47-25.43-18.08-66.78-17.21-100.37,1.77-16.14,1.15-32.3.78-48.49-.12-21.47-.08-42.61-3.36-64.05-3.51-16.29-9.66-31.91-13.82-48.05-10.64-32.54-21.7-17.06-34.77,3.01-4.04,5.58-7.88,11.52-11.37,17.72-1.74-6.04-4.1-12.39-6.76-17.78-3.91-8.53-11.59-33.37-24.44-23.78-6.41,9.88-7.48,23.9-9.36,35.41-1.51,10.61-2.43,21.61-1.19,32.29-.02,0-.04,0-.07.01-22.91,3.95-41.85,15.7-62.85,25.27-27.5-21.82-55.97-23.62-76.06,8.39C8.26,163.52.37,183.9.07,204.98c-.75,23.93,4.81,48.13,16.01,69.3,8.24,20,21.46,37.94,40.89,48.19.88,12.32-1.08,24.57-2.82,36.73-3.06,26.48-4.61,53.33-2.34,79.94,8.15,64.12,26.94,126.36,37.81,190.04,9.88,64.42,11.99,130.1,10.6,195.19.79,17.94-.7,35.96-3.49,53.68-.2.3-.37.61-.52.92-.55,0-1.1,0-1.65,0-7.8.77-14.73,4.51-21.72,7.76-15.27,4.06-23.64,19.02-17.43,33.91,8.18,20.81,35.87,23.33,55.31,24.71,19.04,2.25,37.71-2.03,55.68-7.7,6.15-1.52,6.47-8.27,6.97-13.47.95-7.33,2.4-14.59,3.86-21.83,8.82-40.41,24.31-79.24,29.81-120.33.59-4.55.92-9.1,1.11-13.66,9.82,28.87,16.77,58.71,19.72,89.07.93,11.19,3.35,22.26,3.18,33.53.26,2.08-.04,4.56-.27,7.03-14.01,3.54-30.03,9.1-37.57,21.97-9.29,23.64,7.34,42.55,29.7,48.41,16.24,2.66,32.68-1.12,49.03-1.28,6.15-.38,14.62-.61,20.9-2.95,15.77-12.01,17.62-34.61,24.83-52,5.08-19.44,11.92-38.63,14.6-58.58,1.82-17.26,1.86-34.8,2.56-52.29,3.09-30.98,5.4-62.2,4.26-93.32,2.43-1.07,4.78-2.48,7.51-2.76,7.84-1.31,16.03-.74,23.47-4,11.3-4.69,23.06-8.21,33.59-14.56,8.87-3.87,18.23-6.5,27.14-10.34,38.83-11.8,80.19-15.6,120.61-12.5,6.09.49,12.04,1.91,18.1,2.58,1.41.2,2.65.03,3.7-.41,3.33,11.89,6.79,23.75,9.49,35.77,2.84,9.72,6.21,19.29,9.9,28.72,4.3,11.49,11.83,21.04,15.92,32.99-.32,22-10.35,42.27-16.81,62.91-5.82,14.86-12.66,29.31-19.41,43.77-1.19,3.19-3.77,5.85-5.11,8.92-7.75-.04-14.86.62-17.82,1.1-10.29.05-18.47,6.2-27.03,11.07-13.99,6.25-18.2,23.03-16.21,37.09.77,12.58,9.62,22.18,20.79,27.03,22.36,14.09,49.07,5.89,73.78,9.25,13.23-.02,27.64-2.25,38.88-9.57,5.75-4.88,9.86-11.37,14.79-17.02,20.05-23.44,30.38-52.65,40.27-81.38,6.93-22.47,13.81-44.98,19.3-67.86,4.63-15.86,8.17-31.88,7.73-48.48,8.23-7.09,16.21-14.49,23.86-22.22,1.76,2.24,3.75,4.34,5.18,6.15,8.49,10.43,19.98,17.54,31.86,23.53,15.5,8.1,31.09,16.53,48.28,20.42-4.04,26.53-5.41,53.75-.62,80.27-14.55.93-25.67,7.69-33.94,24.49-14.08,28.29,9.69,47.06,36.1,50.44,15.39-.28,34.77-2.06,47.48-11.35,7.07-7,10.11-17.07,15.35-25.4,13.64-21.12,19.69-45.71,28.95-68.86,11.78-30.75,14.47-63.89,12.18-96.52-16.23-45.51-40.18-87.96-64.02-129.92-9.99-19.94-22.43-38.72-29.78-59.88-1.24-3.63-2.13-7.37-3.16-11.07-.62-2.33-2.01-3.78-3.68-4.5.44-2.06.88-4.12,1.29-6.19,4.74-20.33,9.12-41.3,4.87-62.07,26.73-20.59,46.42-48.17,64.01-76.6,23.86-34.82,41.07-73.62,56.51-112.77,9.55-21.29,16.22-43.26,22.74-65.78,9.38-28.83,15.4-60.12,12.61-90.43ZM173.64,95.7c1.19-9.97,2.02-20.04,4.45-29.79,2.28,6.02,5.29,11.73,7.61,17.72,2.34,6.25,3.32,11.81,5.23,18.36.17,1.66.71,3.11,1.49,4.29-1.49,3.77-2.81,7.6-3.92,11.45-4.71-1.57-9.44-3.2-14.26-4.19-.51-5.91-.93-11.88-.62-17.84ZM63.72,137.02c-4.48,3.81-9.32,6.68-15.86,7.67-3.7,1.44-6.61,2.17-9.58,2.37,7.44-8.69,16.22-11.57,25.44-10.04ZM852.64,584.57c19.91,37.74,42.94,73.93,59.12,113.54,2.86,9.87,9.75,18.62,10.86,28.82.96,28.93-.94,58.01-11.54,85.24-6.82,17.25-12.25,35.05-19.55,52.11-6.73,11.91-13.32,23.9-19.9,35.89-5.95,5.89-14.92,5.95-22.66,7.53-9.5,2.4-19.13,2.04-28.07-2.18-4.66-1.78-10.76-4.87-12.98-9.84-4.77-10.75,3.37-23.17,11.75-29.76,6.45-4.97,14.44-3.16,21.91-2.62,16.29,4.29,18.6-11.79,7.23-13.54-1.34-.23-2.65-.43-3.94-.61-.3-1.44-.71-2.89-.94-4.33-.97-6.42-1.66-12.9-2.26-19.37-.74-11.42-.05-22.84.4-34.25-.09-10.96,7.83-25.32-1.04-34.28-8.15-3.84-17.55-4.61-25.63-8.93-16.14-7.01-32.39-14.92-46.58-25.43-4.36-4.13-8.53-8.54-12.14-13.34-.23-.68-.53-1.33-.89-1.95,8.45-9.27,16.4-18.98,23.69-29.17,18.5-30.94,31.03-65.11,40.66-99.75,3.4-12.99,6.88-25.95,10.11-38.97,5.86,15.74,14.59,30.3,22.39,45.19ZM983.44,128.74c-1.42,20.39-5.08,40.67-12.01,59.94-7.04,26.1-16.51,51.48-27.03,76.45-13.18,31.25-26.76,62.63-45.75,90.87-10.94,17.01-21.63,34.17-34.26,49.99-10.18,12.92-23.5,22.9-34.92,34.45-3.64,5.98-.76,12.78-.28,19.15.94,11.33-.82,22.6-3.14,33.66-10.8,49.4-21.85,99.36-42.26,145.81-14.53,35.28-40.64,63.79-69.19,88.5-11.2,7.32-5.73,21.97-8.31,32.98-9.91,41.9-21.18,83.62-36.94,123.74-6.01,16.53-15.53,31.77-26.56,45.42-11.02,15.26-15.73,18.12-34.64,20.57-18.36-.45-36.76-1.07-55.16-.59-5.86-.46-11.3-2.94-16.59-5.35-9.48-3.74-16.8-10.1-16.53-20.8-1-11.45,4.17-18.67,14.76-22.97,9.68-7.46,22.38-7.27,34.09-7.5,8.21-1.21,20.73,8.72,25.57-.93,2.34-6.58-3.29-10.01-11.35-11.68,1.11-2.43,2.14-4.92,3.49-6.97,12.65-26.59,23.95-53.92,31.88-82.3,10.79-35.03-.56-37.96-13.26-67.7-11.05-29.24-17.47-60.42-25.78-90.6-3.52-26.05-3.88-52.43-3.05-79,.46-7.38.94-14.83,2.89-22,2.59-5.58-3.86-11.75-9.34-9.21-9.35,5.46-7.36,36.28-8.09,47.19-.37,19.53.95,38.78,2.49,58.44,1.37,7.98,3.19,15.86,5.22,23.69-20.3-3.3-40.95-4.8-61.46-2.48-28.37.39-56.45,5.27-83.41,13.98-8.21,3.59-16.89,5.99-25.12,9.46-11.19,6.48-23.38,10.52-35.34,15.34-8.35,2.75-17.53,1.55-25.83,4.4-.26-3.4-.54-6.79-.89-10.19-3.69-36.54-4.8-73.63-12.35-109.65-5.49-19.02-12.06-37.7-17.65-56.7-2.9-5.81-2.97-18.29-7.14-21.96-2.97-2.4-7.68-1.76-9.96,1.28-3.34,5.08.2,11.39,1.09,16.82,4.1,13.42,8.14,26.85,12.53,40.18,8.24,22.32,11.99,45.71,13.84,69.35,2.6,30.71,5.89,61.36,7.66,92.13-.35,26.24-1.07,52.59-4.05,78.68-2.66,26.94.62,54.64-7.78,80.83-4.72,17.63-9.2,35.3-15.55,52.43-2.58,8.96-5.65,17.86-11.37,25.35-10.7,2.08-21.37,2-32.42,2.53-10.75.43-22.16,3.47-32.53-.62-4.86-2.95-10.39-5.58-14.11-9.94-2.57-6.03-4.86-14.83.69-19.82,8.76-6.49,23.32-13.52,34.33-11.5,8.4,2.39,15.14-7.86,7.19-13.13-1.38-.57-2.84-.92-4.33-1.13.56-9.01-1.37-20.4-1.48-25.15-2.06-14.36-3.05-28.88-5.28-43.21-5.62-24.87-10.47-50.15-20.11-73.89-3.87-9.42-7.11-19.1-10.56-28.69.01-.98.03-1.97.05-2.95-.04.35-.11.7-.26,1.01.12-.38.2-.77.26-1.17.01-.63.02-1.27.04-1.9-.23-2.53-1.88-4.39-3.96-5.35-2.29-5.87-4.78-11.65-7.67-17.28-22.55-41.34-43.15-84.57-49.39-131.75,1.72-9.68-12.55-12.88-14.31-3.03.19,10.05,2.9,20.01,4.95,29.83,4.65,19.69,11.3,38.83,18.89,57.56,11.57,25.83,26.72,50,36.99,76.37-.14,5.49.69,11.22.31,16.54,4.19,62.3-27.61,119.21-34.92,180.12-26.37,9.71-60.94,10.47-86.03-3-4.35-3.57-6.75-10.42-4.48-15.73,2.56-4.33,8.23-4.94,12.33-7.23,10.16-6.53,21.88-6.11,33.46-5.46,7.83,2.77,13.13-8.69,5.89-12.87-2.86-.96-5.88-1.4-8.96-1.58.65-4.3.78-8.92,1.43-12.25,1.92-16.48,2.23-32.99,1.72-49.55,1.5-33.54.37-67.21-1.99-100.69-1.83-27.14-3.03-54.39-7.26-81.29-5.87-33.9-13.77-67.39-20.65-101.08-6.29-29.63-14.28-58.96-17.6-89.13-3.35-24.04-1.94-48.5.12-72.6,1.39-17.97,6.42-36.14,3.55-54.17-2.75-8.54-13.01-10.55-18.97-16.34-15.18-14.4-26.95-36.78-32.95-60.07,4.95,5.54,11.05,9.95,18.14,12.02,6.08.97,10.51-6.59,6.58-11.37-1.53-2.28-4.52-2.5-6.7-3.87-9.45-6.04-14.81-15.8-17.98-26.31-1.24-4.25-2.87-8.4-3.91-12.71-.01-.14-.03-.28-.05-.42.31-3.22.76-6.38,1.39-9.42,2.2-10.38,6.75-20.03,12.5-28.89,1.37.12,2.76.2,4.05.44,6.65,1.26,13.09-.74,19.33-2.82,10.52-1.55,19.02-8.14,26.33-15.5,2.26,1.38,4.51,2.96,6.76,4.75,9.55,8.45,16.36,4.92,26.42-.15,21.14-9.36,46.63-27.73,70.15-16.83,3.45,1.05,8,2.72,11.4,1.48,5.46,1.21,12.19-2.36,8.99-10.15,6.12-20.76,17.96-38.63,30.73-55.95,4.95,16.18,9.92,32.39,14.51,48.68,4.81,33.22,3.75,67.18,3.66,100.67-2.94,47.18-14.13,110.01,38.35,134.11,19.88,7.8,41.83,12.25,63.19,9.67,20.12-3,40.45-3.71,60.48-7.39,28.4-5.09,57.35-6.48,86.08-8.47,22.03-1.02,43.92-3.92,65.98-3.81,39.88-2.1,79.07,8.02,117.84,15.98,42.88,7.1,84.33,11.99,121.74-15.33,27.25-22.33,48.76-50.94,67.3-80.71,35.45-49.11,49.42-93.9,51.82-154.2.63-12.92-2.26-25.69-8.01-37.25-9.61-15.62-21.25-40.82,1.92-50.6C950.41,0,972.05,63.62,979.35,87.22c4.46,13.39,6.71,27.52,4.09,41.52Z" stroke-width="0"/><path d="M173.51,157.46c-.23-7.38.98-20.4-9.45-20.44-8.1-.76-16.04.7-23.57,3.71-8.18,1.88-14.38,7.59-21.57,11.52-6.93,3.3-13.39,7.41-18.06,13.63-4.52,4.21-2.95,12.6,3.62,13.3,13.1,13.85,30.91,22.56,49.83,24.75,9.26,3.02,16.96,1.84,17.48-9.43,2.1-12.03,1.69-24.8,1.72-37.04ZM155.63,189.75c-7.38-.85-14.55-2.93-21.2-6.09,3.63-.95,7.15-2.45,10.64-3.79,4.96-1.69,9.76-3.8,14.21-6.53-.15,5.66-.47,11.32-1.12,16.94-.84-.19-1.68-.37-2.53-.52Z" stroke-width="0"/><path d="M235.79,92.36c-3.28-5.06-10.72-4.78-13.96.15-3.92,5.61-5.95,12.22-8.41,18.54-2.96,8.79-6.91,17.64-7.83,26.91-2.4,10.64,19.59,34.36,30.02,35.47,7.65.18,8.51-8.9,8.64-14.71.83-6.28.85-12.62,1-18.94.25-10.65-3.56-20.78-4.55-31.31-.94-5.48-1.77-11.39-4.9-16.1ZM230.47,154c-4.51-4.24-8.33-9-10.85-14.68,1.4-8.45,4.67-16.57,7.59-24.61.78,7,3.11,13.72,3.68,20.74.21,6.17.13,12.4-.42,18.55Z" stroke-width="0"/><path d="M148.52,226.81c-11.5-11.51-24.14-21.76-37.81-30.66-9.36-6.59-17.77-14.37-27.13-20.94-9.27-8.66-19.22,6.41-7.37,12.1,12.98,9.99,25.51,20.55,39.31,29.44,9.57,6.31,16.8,15.41,25.84,22.31,7.98,4.66,15.16-7.48,7.16-12.25Z" stroke-width="0"/><path d="M121.11,253.86c-14.35-18.1-29.85-35.33-45.15-52.66-3.92-3.94-9.09-11.92-14.87-12.32-3.87,0-7.1,3.23-7.1,7.1-.01,5.44,5.85,7.66,8.7,11.56,11.16,12.53,22.01,25.32,33.27,37.76,5.73,6.19,9.93,13.73,16.12,19.48,7.03,5.54,15.78-5.04,9.03-10.92Z" stroke-width="0"/><path d="M58.3,215.78c-1.78-2.94-3.56-5.87-5.36-8.8-.18-1.59-.9-3.1-2.04-4.23-3.56-3.67-10.12-2.14-11.91,2.6-1.97,4.99,2.19,9.2,4.44,13.29,11.7,17.16,16.75,37.64,25.78,56.07,5.64,7.19,16.55-1.03,11.41-8.47-7.05-16.96-12.65-34.72-22.31-50.45Z" stroke-width="0"/></g></svg>