<?xml version="1.0" encoding="UTF-8"?><svg id="b" xmlns="http://www.w3.org/2000/svg" viewBox="0 0 1111.11 1187.53"><g id="c"><path d="M993.98,670.81c-32.3,0-32.7-.01-31.81-31.94.67-24.06-2.13-48.01,5.86-72.1,6.32-19.07-9.67-29.04-23.2-37.86-64.39,32.69-87.51,100.81-132.39,148.91-37.53-14.72-56.12-44.25-68-76.46-17.65-47.86-29.14-97.96-46.28-146.03-33.8-94.82-95.39-160.58-199.38-175.12-28.79-4.03-50.97-11.02-61.26-40.57-11.06-31.78-4.28-59.86,16.16-85.18,61.32-75.95,164.96-64.97,231.31-5.14,38.09,34.35,61.51,75.99,56.48,130.23-2.31,24.91,1.31,49.24,23.52,66.6,27.61,21.56,52.23,13.02,61.36-21.36,11.8-44.45,6-88.22-8.43-130.32C779.22,81.55,667.92,4.18,549.45,5.34c-96.85.95-186.1,81.71-197.76,162.27-5.7,39.37-6.86,76.94,6.44,114.9-13.41,13.46-32.32,15.69-48.06,24-63.34,33.42-101.2,88.31-125.24,154.04-2.21,6.05-4.76,12.32-5.2,18.62-3.1,45.28-37.52,53.26-72.06,61.18-15.96,3.66-30.66,9.1-42.71,21.2-20.81,20.88-35.73,45.31-48.06,71.87-5.69,12.27-4.05,23.19.27,34.73" fill="none" stroke="#000" stroke-linecap="round" stroke-linejoin="round" stroke-width="10.65"/><path d="M1105.78,910.38c-18.42-5.95-4.19-30.57-21.02-38.11-17.85,1.2-30.73,12.94-42.45,22.64-69.17,57.24-150.98,82.75-237.43,94.56-39.32,5.37-79.76,2.36-119.68,3.55-10.03.3-17.6-5.95-26.62-8.11" fill="none" stroke="#000" stroke-linecap="round" stroke-linejoin="round" stroke-width="10.65"/><path d="M448.29,604.27c4.96,24.04,16.17,46.04,16.58,71.86,1.1,68.34-56.69,127.29-128.38,127.67-16.53.09-32.4,2.7-47.91,8.1" fill="none" stroke="#000" stroke-linecap="round" stroke-linejoin="round" stroke-width="10.65"/><path d="M512.18,841.17c-7.02,30.42-16.01,60.47-22.78,90.77-5.06,22.63-1.01,47.85,1.9,71.56,3.62,29.49,8.26,59.16,16.14,87.73,7.46,27.05,17.41,53.58,44.53,69.62,44.73,26.45,70,34.81,108.98-13.18-6.44-16.65-16.35-30.56-28.85-43.09-27.51-27.57-30.94-58.36-4.89-87.23,26.12-28.95,46.12-60.68,60.55-96.38,2.7-6.68,9.28-4.8,13.44-7.93" fill="none" stroke="#000" stroke-linecap="round" stroke-linejoin="round" stroke-width="10.65"/><path d="M456.28,939.66c-9.81,51.09-19.52,102-8.24,154.44,7.52,34.97,32.96,51.97,61.61,66.23,7.28,3.62,13.8-1.54,18.5-7.72" fill="none" stroke="#000" stroke-linecap="round" stroke-linejoin="round" stroke-width="10.65"/><path d="M972.69,561.68c13.63,2.51,27.57,3.35,37.51,15.78,5.52,6.91,8.12,17.26,4.52,20.94-17.69,18.07-15.05,40.03-15.64,61.77-.07,2.71-3.31,5.33-5.09,7.99,24.74,28.56,48.46,55.85,49.52,98.45.54,21.53,15.78,44.02,28.4,63.45,8.71,13.4,10.05,26.11,9.91,40.41" fill="none" stroke="#000" stroke-linecap="round" stroke-linejoin="round" stroke-width="10.65"/><path d="M166.13,521.75c16.71,39.47,11.41,50.79-29.27,63.93-37.32,12.05-63.93,39.19-94.15,62.6-50.85,39.4-35.16,91.26-34.94,139.66.09,19.94,15.79,39.66,36.1,50.22,4.01,2.08,6.77,7.32,13.15,5.84,31.51-7.32,61.33-19.51,87.26-38.18,10.75-7.74,3.45-26.12,6.64-39.61,2.45-10.35,3.26-26.83-3.08-39.61-35.56,12.72-49.95,41.42-42.94,93.29" fill="none" stroke="#000" stroke-linecap="round" stroke-linejoin="round" stroke-width="10.65"/><path d="M152.82,729.38c14.59-.55,22.98,9.62,31.92,18.66,20.69,20.91,42.59,38.66,71.52,48.95,16.82,5.98,30.93,19.22,44.51,34.87,30.92,35.6,73.31,59.88,115.96,80.39,21.26,10.23,37.99,33.53,66.16,27.43" fill="none" stroke="#000" stroke-linecap="round" stroke-linejoin="round" stroke-width="10.65"/><path d="M911.46,809.23c13.57,26.69,6.65,40.54-21.26,39.14-5.79-.29-12.54-.46-18.67-1.87" fill="none" stroke="#000" stroke-linecap="round" stroke-linejoin="round" stroke-width="10.65"/><path d="M935.42,785.27c7.9-1.44,16.57.14,20.96,5.59,18.53,22.96,35.82,11.63,53.57-.27" fill="none" stroke="#000" stroke-linecap="round" stroke-linejoin="round" stroke-width="10.65"/></g></svg>