<?xml version="1.0" encoding="UTF-8"?><svg id="b" xmlns="http://www.w3.org/2000/svg" viewBox="0 0 1124.07 871.81"><g id="c"><path d="M147.64,509.66c-39.84-13.63-62.22-43.63-78.62-79.94-19.31,7.68-36.74,14.61-54.65,21.74-5.59-11.34-3.44-17.35,7.06-21.08,12.88-4.58,25.43-10.07,38.39-15.27-2.23-19.93-4.31-38.57-6.62-59.24-16.76-5.32-34.47-10.94-53.18-16.87,5.08-12.05,11.48-15.38,22.4-11.58,9.74,3.39,20,5.32,31.4,8.25,3.32-18.17,5.62-34.97,9.6-51.35,4.62-19.05,9-38.47,16.65-56.38,8.05-18.85,13.58-37.97,18.12-57.83,4.2-18.33,11-36.11,17.28-53.92,5-14.2,10.37-28.33,16.61-42.02,6.23-13.66,12.56-27.54,20.95-39.9,18.94-27.92,51.38-31.91,75.89-8.54,9.54,9.09,15.83,22.09,21.92,34.16,5.51,10.92,8.73,23,13.38,35.72,60.57-13.74,120.2-18.78,181.92-6.95,3.79-8.3,7.36-15.82,10.69-23.45,9.28-21.28,21.18-40.72,39.26-55.74,14.22-11.82,21.5-12.44,37.2-2.47,18.6,11.82,29.73,29.7,35.98,50.08,6.71,21.88,11.02,44.48,17.13,66.55,2.19,7.92,4.88,16.81,10.23,22.58,39.62,42.77,66.95,91.94,80.5,148.72.24,1.02,1.76,1.73,4.24,4.03,11.72-6.52,24.06-13.4,37.93-21.12,3.74,4.03,7.45,8.03,11.12,11.99-2.15,2.93-2.95,5-4.46,5.92-11.74,7.17-23.47,14.39-35.51,21.04-7,3.86-10.69,8.69-10.56,17.07.16,10.31-.82,20.65-1.32,31.2,18.11,0,34.89-.1,51.67.03,11.82.09,11.82.23,20.74,14.05-24.91,1.87-48.57,3.65-74.18,5.58-1.42,5.7-2.89,11.61-4.64,18.63,9.3,3.36,17.08,6.48,25.05,8.99,45.19,14.24,80.63,43.1,112.74,76.36,53.81,55.73,88.1,121.68,100.98,198.41,1.06,6.31,2.89,12.48,4.34,18.63,19.73,4.15,37.75,3.06,55.9-.58,28.24-5.67,56.45-11.67,84.92-15.93,28.17-4.22,49.76,6.7,61.83,28.41,8.92,16.04,8.47,31.5-3.2,45.76-5.34,6.52-11.51,12.68-18.28,17.65-25.61,18.79-54.46,28.14-86.34,27.93-33.54-.22-66.46-4.82-98.3-14.92-20.64,26.33-46.33,39.41-78.86,44.14-57.63,8.37-114.73,20.32-172.07,30.7-5.78,1.05-11.64,1.71-17.48,2.42-27.67,3.38-46.47-9.55-59.67-32.61-2.56-4.47-4.79-9.13-7.27-13.9h-28.21c-9.79,27.14-25.1,45.41-57.29,43.93-31.06-1.43-52.84-13.25-61.35-46.27-47.4,14.85-93.91,23.99-139.88-7.83-2.88,4.92-5.99,9.48-8.37,14.39-22.71,47.01-64.46,41.57-91.56,21.35-15.52-11.58-27.71-26.11-34.7-44.35-17.1-44.56-26.56-90.33-22.81-138.47,2.64-33.95,3.36-68.06,6.18-101.99,1.46-17.5,5.63-34.78,9.21-55.87ZM264.31,117c-16.59-16.61-22.31-36.14-29.31-55.17-3.8-10.34-8.34-20.8-14.64-29.72-8.82-12.49-22.41-14.54-34.28-4.93-8.44,6.84-16.65,15.51-21.37,25.13-20.2,41.1-40.15,82.59-49.02,127.89-3.44,17.53-8.94,33.73-16.02,49.94-15.33,35.11-21.14,72.45-25.41,111.49,15.61,4.84,29.62,9.19,45.31,14.05-12.33,24.46-30.59,3-44.88,9.22-.61,13.52-1.78,26.88,6.45,39.91,10.26-3.18,19.88-6.17,30.23-9.38,5.03,22.65-17.68,18.77-24.38,29.31,14.87,40.07,38.46,71.22,82.77,82.92-16.03,55.39-15.25,110.56-18.1,165.45-2.32,44.7,5.58,87.38,20.79,129.08,7.19,19.72,19.39,35.61,36.58,47.51,14.44,9.99,23.83,9.14,36.99-2.69,11.62-10.44,19.24-23.77,21.92-38.73,3.21-17.94,3.98-36.33,5.61-54.55.67-7.54.84-15.12,1.2-21.99,16.41-4.21,17.57,6.17,19.08,15.12,2.82,16.78,4.27,33.82,7.56,50.5,3.21,16.28,14.99,26.03,31.16,28.01,29.41,3.61,57.29-1.8,83.8-14.6,8.14-3.93,13.15-9.95,13.02-20.01-.18-13.75.57-27.52,1.41-41.26.37-6.1,1.93-12.13,3.02-18.6,12.43,1.08,12.89,8.67,13.15,15.73.65,17.67.1,35.42,1.47,53.02,1.06,13.55,2.1,27.8,7.04,40.2,9.46,23.75,38.71,28.09,56.73,9.92,10.14-10.23,15.83-22.26,15.44-36.97-.45-17.03-.91-34.08-.75-51.11.09-9.36,1.43-18.72,2.2-27.9,10.35-.68,13.16,3.35,13.67,10.29,1.24,16.97,2.71,33.93,4.06,50.89.49,6.24.9,12.49,1.34,18.72,13.43,1.7,25.99,4.27,33.49-5.59,10.08-13.24,23.9-19.87,37.49-27.61,6.03-3.44,11.37-8.09,16.75-12-1.42-3.59-1.9-5.55-2.89-7.2-30.23-50.03-22.39-100.77-1.07-150.77,8.75-20.51,24.87-35.71,48.59-38.81,31.21-4.07,61.5-.5,89.65,14.48,7.13,3.79,14.87,7.93,16.81,17.56-8.21,6.06-14.13,3.55-19.67-2.27-13.92-14.63-31.93-19.16-51.16-22.15-28.68-4.46-50.8-1.43-67.64,39.3-18.57,44.92-24.24,91.05,1.08,136.45,7.22,12.95,5.59,21.48-5.52,31.49-7.23,6.52-15.87,11.46-23.9,17.08-7.5,5.25-15.64,9.79-22.41,15.86-9.81,8.78-9.19,15.56.47,24.68,7.67,7.24,17.04,10.31,27.11,9.05,24.63-3.09,49.13-7.13,73.72-10.52,40.79-5.62,80.69-16.35,122.15-18.85,18.42-1.11,36.73-8.88,54.37-15.54,6.48-2.45,14.11-9.61,15.66-15.98,5.23-21.51,10.41-43.29,6.75-65.99-6.7-41.48-15.34-82.51-30.39-121.81-7.65-20-17.85-38.92-32.72-56.48-5.34,5.61-9.39,10.63-14.21,14.76-7.99,6.85-15.15,6.58-22.99.26-7.76-6.26-7.08-13.04-2.13-20.7,5.6-8.66,10.75-17.62,16.48-27.07-6.87-7.76-12.75-14.4-20.05-22.65-5.19,8.66-8.82,15.53-13.24,21.85-4.46,6.39-8.96,13.1-14.79,18.1-8.25,7.07-18.65,5.52-26.7-1.88-7.91-7.28-4.1-14.1.34-20.96,4.63-7.15,9.68-14.04,14.06-21.34,4.26-7.1,7.9-14.57,12.4-22.95-10.26-7.37-18.92-13.58-28.75-20.64-6.09,11.55-10.62,20.94-15.89,29.89-4.3,7.29-9.03,14.43-14.39,20.97-5.91,7.21-13.26,7.57-20.87,2.01-6.88-5.03-8.62-11.18-4.52-18.79,2.8-5.19,5.76-10.3,8.34-15.59,5.63-11.54,11.07-23.17,17.49-36.65-12.62-4.56-22.58-8.16-33.33-12.05-3.04,9.8-5.36,17.25-7.65,24.7-7.01,22.71-21.27,40.35-38.88,55.66-7.15,6.21-14.43,9.12-23.81-.27,34.08-26.64,50.69-61.89,51.5-105.16-13.14-5.85-32.45,7.03-39.32-14.94,14.83-2.26,28.68-4.36,42.96-6.54,1.28-11.24,2.36-20.68,3.84-33.74-11.29,4.57-18.93,7.8-26.67,10.77-12.35,4.75-12.38,4.68-19.73-10.78,14.86-7.55,29.78-15.12,44.86-22.78-2.47-29.71-11.59-55.48-23.42-80.42-13.85-29.21-31.71-55.67-53.73-79.5-6.32-6.84-11.7-15.88-14.05-24.81-6.81-25.82-10.81-52.4-18.02-78.1-3.99-14.23-11.75-27.58-25.79-36.74-18.21,9.8-30.44,25.11-39.77,42.48-9.25,17.21-16.72,35.37-25.94,55.2-65.14-12.33-130.07-11.15-194.15,7.37ZM916.47,776.71c6.53,1.99,12.53,4.78,18.79,5.55,24.01,2.96,48.06,6.71,72.17,7.48,31.11.99,59.33-9.6,83.88-28.71,7.09-5.52,13.33-12.67,18.39-20.13,6.36-9.37,4.92-14.77-3.56-22.19-9.98-8.74-22.36-10.63-34.9-11.08-21.72-.78-28.45,5.87-28.22,27.34.05,4.54,1.38,9.06,1.64,13.62.19,3.47-.38,6.98-.67,11.45-25.21-5.79-15.43-30.48-25.84-42.85-29.61-.29-36.77,4.86-27.92,38.8.66,2.51,2.31,4.83,2.66,7.35.47,3.44.12,6.99.12,12.16-23.92-8.48-20.35-33.04-31.09-47.56h-41.8c-1.24,16.57-2.39,32.04-3.64,48.78Z" stroke-width="0"/><path d="M264.31,117c64.08-18.52,129.01-19.7,194.15-7.37,9.22-19.83,16.69-37.99,25.94-55.2,9.33-17.37,21.57-32.68,39.77-42.48,14.04,9.16,21.8,22.52,25.79,36.74,7.2,25.7,11.21,52.28,18.02,78.1,2.36,8.94,7.73,17.97,14.05,24.81,22.02,23.84,39.88,50.29,53.73,79.5,11.82,24.94,20.95,50.71,23.42,80.42-15.08,7.66-30,15.24-44.86,22.78,7.35,15.46,7.38,15.53,19.73,10.78,7.74-2.97,15.38-6.2,26.67-10.77-1.49,13.06-2.56,22.5-3.84,33.74-14.28,2.17-28.13,4.28-42.96,6.54,6.87,21.97,26.18,9.1,39.32,14.94-.8,43.26-17.42,78.52-51.5,105.16,9.38,9.39,16.66,6.48,23.81.27,17.61-15.31,31.87-32.95,38.88-55.66,2.3-7.45,4.62-14.9,7.65-24.7,10.75,3.88,20.71,7.48,33.33,12.05-6.42,13.48-11.85,25.11-17.49,36.65-2.58,5.29-5.54,10.4-8.34,15.59-4.11,7.62-2.36,13.77,4.52,18.79,7.61,5.56,14.96,5.2,20.87-2.01,5.36-6.54,10.09-13.68,14.39-20.97,5.27-8.95,9.8-18.33,15.89-29.89,9.84,7.06,18.49,13.27,28.75,20.64-4.49,8.39-8.14,15.85-12.4,22.95-4.38,7.3-9.43,14.19-14.06,21.34-4.44,6.86-8.26,13.69-.34,20.96,8.05,7.4,18.45,8.95,26.7,1.88,5.83-5,10.32-11.71,14.79-18.1,4.42-6.32,8.05-13.19,13.24-21.85,7.3,8.25,13.18,14.89,20.05,22.65-5.72,9.45-10.88,18.41-16.48,27.07-4.95,7.66-5.63,14.44,2.13,20.7,7.84,6.32,15,6.6,22.99-.26,4.81-4.13,8.87-9.14,14.21-14.76,14.88,17.56,25.07,36.48,32.72,56.48,15.04,39.3,23.68,80.33,30.39,121.81,3.67,22.7-1.51,44.48-6.75,65.99-1.55,6.36-9.17,13.53-15.66,15.98-17.64,6.66-35.95,14.43-54.37,15.54-41.45,2.5-81.35,13.23-122.15,18.85-24.59,3.39-49.09,7.43-73.72,10.52-10.07,1.26-19.45-1.81-27.11-9.05-9.66-9.12-10.28-15.9-.47-24.68,6.78-6.06,14.91-10.6,22.41-15.86,8.03-5.62,16.68-10.57,23.9-17.08,11.1-10.01,12.74-18.53,5.52-31.49-25.32-45.4-19.65-91.53-1.08-136.45,16.84-40.73,38.97-43.76,67.64-39.3,19.22,2.99,37.24,7.52,51.16,22.15,5.54,5.82,11.46,8.33,19.67,2.27-1.94-9.63-9.68-13.77-16.81-17.56-28.15-14.98-58.44-18.55-89.65-14.48-23.72,3.1-39.84,18.29-48.59,38.81-21.31,50-29.15,100.73,1.07,150.77.99,1.65,1.47,3.6,2.89,7.2-5.39,3.91-10.72,8.57-16.75,12-13.59,7.74-27.41,14.37-37.49,27.61-7.5,9.86-20.07,7.29-33.49,5.59-.44-6.24-.85-12.48-1.34-18.72-1.34-16.96-2.82-33.92-4.06-50.89-.51-6.94-3.31-10.97-13.67-10.29-.76,9.18-2.11,18.53-2.2,27.9-.16,17.03.3,34.08.75,51.11.39,14.71-5.3,26.74-15.44,36.97-18.02,18.16-47.27,13.83-56.73-9.92-4.94-12.39-5.98-26.65-7.04-40.2-1.37-17.6-.82-35.35-1.47-53.02-.26-7.05-.72-14.65-13.15-15.73-1.09,6.47-2.65,12.5-3.02,18.6-.84,13.73-1.59,27.51-1.41,41.26.13,10.06-4.88,16.09-13.02,20.01-26.51,12.8-54.39,18.21-83.8,14.6-16.17-1.98-27.95-11.73-31.16-28.01-3.29-16.68-4.74-33.71-7.56-50.5-1.5-8.95-2.67-19.33-19.08-15.12-.36,6.87-.52,14.45-1.2,21.99-1.63,18.22-2.4,36.61-5.61,54.55-2.68,14.96-10.3,28.29-21.92,38.73-13.16,11.83-22.55,12.68-36.99,2.69-17.19-11.89-29.39-27.78-36.58-47.51-15.21-41.7-23.11-84.37-20.79-129.08,2.85-54.89,2.08-110.06,18.1-165.45-44.31-11.7-67.9-42.84-82.77-82.92,6.7-10.55,29.42-6.67,24.38-29.31-10.35,3.21-19.97,6.19-30.23,9.38-8.23-13.03-7.06-26.39-6.45-39.91,14.29-6.22,32.55,15.24,44.88-9.22-15.69-4.87-29.71-9.21-45.31-14.05,4.27-39.04,10.09-76.37,25.41-111.49,7.07-16.21,12.58-32.4,16.02-49.94,8.87-45.3,28.82-86.79,49.02-127.89,4.73-9.62,12.93-18.29,21.37-25.13,11.87-9.61,25.45-7.55,34.28,4.93,6.31,8.92,10.84,19.39,14.64,29.72,7,19.04,12.72,38.57,29.31,55.17ZM453.92,407.07c-1.17,5.02-1.57,8.21-2.66,11.15-6.7,18.15-19.43,20.7-32.1,5.95-8.47-9.86-16.07-20.52-16.68-33.73,18.82-21.91,15.14-32.75-12.23-38.89-1.27-.29-2.51-.76-3.8-.98-12.08-2.02-21.12.84-23.69,8.46-3.18,9.46-1.83,18.58,7.25,24.21,9.53,5.91,8.51,13.72,5.47,22.16-1.53,4.25-3.35,8.62-6.01,12.21-7.1,9.6-17.33,13.75-28.95,13.89-9.92.12-11.91-8.06-15.24-15.32-3.51-7.66-9.9-9.1-17.97-4.89.99,14.18,9.46,21.97,20.98,26.09,25.16,8.99,47.07,2.03,65.11-16.64,25.38,24.28,52.82,28.33,70.37,11.3,7.13-6.92,9.72-18.18,4.12-23.75-3.16-.28-7.5-.66-13.97-1.23ZM531.67,340.79c1.11-16.01-4.52-29.8-13.97-41.91-13.46-17.24-36.43-14.72-43.25,5.73-4.17,12.51-4.64,26.77-4.17,40.16.45,12.71,7.17,23.5,18.51,30.62,15.12,9.49,34.18,3.38,39.73-13.49,2.19-6.66,2.17-14.05,3.16-21.11ZM311.06,344.06c1.08-14.42-4.03-26.81-11.66-38.62-6.32-9.79-15.63-13.92-26.5-13.45-11.35.49-16.79,9.17-20.12,18.77-5.26,15.16-6.73,30.96-.75,45.95,3.21,8.05,8.83,16.24,15.58,21.54,15.38,12.08,36.53,4.11,41.48-14.83,1.62-6.21,1.37-12.9,1.98-19.37ZM185.93,148.67c7.19-2.05,21.05-5.69,34.68-10.03,7.26-2.31,10.83-8.76,8.44-15.57-6.02-17.19-11.62-34.89-20.51-50.62-8.51-15.07-24.64-14.27-35.56-.61-11.49,14.39-15.05,31.73-17.84,49.27-3.32,20.87,2.79,27.87,30.79,27.56ZM541.23,138.36c6.04-22.63,5.08-41.36-.36-59.88-2.87-9.77-8-18.16-19.29-20.02-11.63-1.91-18.72,5.37-23.9,13.86-6.44,10.57-11.74,21.87-16.96,33.12-6.93,14.94-4.66,22.27,10.91,26.12,15.58,3.85,31.95,4.52,49.59,6.79ZM421.58,156.5c5-13.16,2.62-19.95-8.15-22.38-34.23-7.74-68.43-8.91-102.31,1.7-12.31,3.85-12.17,4.3-8.66,21.76,39.25-12.25,78.96-13.57,119.13-1.08ZM403.83,198.28c4.19-15.95,2.69-20.31-10.39-20.66-17.39-.47-34.93.96-52.26,2.94-10.04,1.15-10.52,4.17-6.62,17.72h69.27Z" fill="#fff" stroke-width="0"/><path d="M916.47,776.71c1.25-16.73,2.41-32.2,3.64-48.78h41.8c10.75,14.51,7.17,39.07,31.09,47.56,0-5.17.35-8.72-.12-12.16-.34-2.52-2-4.83-2.66-7.35-8.85-33.94-1.69-39.1,27.92-38.8,10.41,12.37.63,37.07,25.84,42.85.3-4.46.87-7.97.67-11.45-.26-4.56-1.59-9.07-1.64-13.62-.23-21.47,6.49-28.13,28.22-27.34,12.54.45,24.92,2.33,34.9,11.08,8.48,7.43,9.91,12.83,3.56,22.19-5.06,7.46-11.3,14.61-18.39,20.13-24.54,19.11-52.77,29.7-83.88,28.71-24.12-.76-48.16-4.52-72.17-7.48-6.25-.77-12.26-3.56-18.79-5.55Z" fill="#fff" stroke-width="0"/><path d="M453.92,407.07c6.47.57,10.81.95,13.97,1.23,5.6,5.57,3.01,16.82-4.12,23.75-17.55,17.04-44.99,12.99-70.37-11.3-18.05,18.66-39.95,25.63-65.11,16.64-11.53-4.12-19.99-11.9-20.98-26.09,8.07-4.21,14.46-2.77,17.97,4.89,3.33,7.27,5.33,15.45,15.24,15.32,11.62-.14,21.85-4.29,28.95-13.89,2.66-3.59,4.48-7.96,6.01-12.21,3.03-8.44,4.05-16.25-5.47-22.16-9.07-5.63-10.43-14.75-7.25-24.21,2.57-7.63,11.61-10.48,23.69-8.46,1.28.21,2.52.69,3.8.98,27.37,6.13,31.05,16.98,12.23,38.89.61,13.21,8.22,23.87,16.68,33.73,12.67,14.75,25.4,12.2,32.1-5.95,1.09-2.94,1.49-6.13,2.66-11.15Z" stroke-width="0"/><path d="M531.67,340.79c-.99,7.06-.97,14.44-3.16,21.11-5.55,16.87-24.61,22.98-39.73,13.49-11.34-7.12-18.05-17.91-18.51-30.62-.48-13.38,0-27.65,4.17-40.16,6.83-20.45,29.79-22.97,43.25-5.73,9.45,12.1,15.08,25.9,13.97,41.91Z" stroke-width="0"/><path d="M311.06,344.06c-.61,6.47-.36,13.17-1.98,19.37-4.94,18.94-26.1,26.9-41.48,14.83-6.75-5.3-12.37-13.5-15.58-21.54-5.98-14.99-4.51-30.8.75-45.95,3.33-9.6,8.77-18.28,20.12-18.77,10.87-.47,20.18,3.67,26.5,13.45,7.63,11.81,12.74,24.19,11.66,38.62Z" stroke-width="0"/><path d="M185.93,148.67c-28,.31-34.11-6.69-30.79-27.56,2.79-17.54,6.35-34.88,17.84-49.27,10.91-13.66,27.05-14.46,35.56.61,8.89,15.73,14.48,33.43,20.51,50.62,2.39,6.81-1.18,13.26-8.44,15.57-13.63,4.34-27.48,7.98-34.68,10.03ZM211.82,129.74c-5.52-19.66-7.84-36.89-20.12-52.64-13.94,20.01-17.19,39.67-17.55,63.64,13.81-4.03,24.71-7.22,37.67-11Z" stroke-width="0"/><path d="M541.23,138.36c-17.65-2.27-34.01-2.93-49.59-6.79-15.56-3.85-17.84-11.19-10.91-26.12,5.22-11.25,10.53-22.55,16.96-33.12,5.17-8.49,12.27-15.78,23.9-13.86,11.29,1.86,16.42,10.25,19.29,20.02,5.43,18.52,6.4,37.25.36,59.88ZM520.86,74.22c-13.54,15.97-20.61,31.56-24.31,50.7,9.95,1.03,18.17,1.88,26.89,2.78,4.03-18.07,4.03-34.3-2.59-53.48Z" stroke-width="0"/><path d="M421.58,156.5c-40.16-12.49-79.88-11.17-119.13,1.08-3.5-17.47-3.64-17.91,8.66-21.76,33.88-10.61,68.08-9.44,102.31-1.7,10.76,2.43,13.15,9.23,8.15,22.38Z" stroke-width="0"/><path d="M403.83,198.28h-69.27c-3.89-13.55-3.41-16.58,6.62-17.72,17.32-1.98,34.86-3.41,52.26-2.94,13.08.35,14.58,4.71,10.39,20.66Z" stroke-width="0"/><path d="M211.82,129.74c-12.97,3.79-23.86,6.97-37.67,11,.37-23.96,3.62-43.63,17.55-63.64,12.28,15.74,14.6,32.97,20.12,52.64Z" fill="#fff" stroke-width="0"/></g></svg>