<?xml version="1.0" encoding="UTF-8"?><svg id="b" xmlns="http://www.w3.org/2000/svg" viewBox="0 0 1039.93 992.01"><g id="c"><path d="M585.41,198.73c10.94-50.94,20.33-98.27,31.55-145.17,4.8-20.05,7.55-46.48,32.83-49.52,23.63-2.84,31.15,22.16,42.61,38.31.56.78.83,1.77,1.42,2.53,14.48,18.75,12.43,51.93,38.37,58.53,34.65,8.82,71.15,1.24,106.4-3.78,18.09-2.58,29.13-17.78,37.91-33.47,8.96-16.01,17.04-32.72,27.71-47.53,18.64-25.87,37.34-24.72,53.71,2.95,25.88,43.74,42.14,91.52,51.07,141.11,18.85,104.78,31.2,210.46,30.94,317.09-.21,85.3-45.73,134.43-130.75,144.22-14.35,1.65-29.67,4.07-43.34.91-53.08-12.29-104.14-4.9-157.38,3.42-76.52,11.96-154.35-.22-231.48-6.57-86.71-7.14-173.47-17.05-260.41-3.34-71.19,11.23-90.7,59.37-48.95,119.68,19.96,28.83,48.59,43.16,82.32,49.08,72.8,12.79,144.61.22,216.52-8.52,89.14-10.83,177.86-28.39,268.37-15.33,36.88,5.32,71.66,16.19,101.94,38.62,31.03,22.99,34.27,56.22,8.15,84.94-22.05,24.24-50.4,39.92-80.66,49.92-159.63,52.77-322.27,74.01-488.25,35.53-104.94-24.33-191.23-78.43-245.35-174.76-31.64-56.31-40.15-116.43-19.15-179.02,7.52-22.43,18.06-44.95,37.48-57.42,29.06-18.66,29.91-42.81,24.98-71.89C38.51,280.03,224.05,153.72,369.88,157.74c56.69,1.56,111.21,12.67,165.44,27.32,15.78,4.27,31.55,8.61,50.09,13.67ZM599.1,234.87c-9.03-3.88-13.38-5.73-17.7-7.61-86.94-37.78-176.8-55.72-271.43-38.45-114.54,20.9-200.52,108.44-214.44,218.04-5.17,40.73.62,81.15,5.92,121.4,1.81,13.72.99,23.86-12.05,32.2-61.38,39.27-76.84,97.1-60.85,164.25,27.5,115.47,107.69,179.74,216.45,212.43,114.91,34.53,232.29,38.09,350.46,20.6,80.05-11.85,157.26-32.45,223.73-81.54,27.55-20.35,27.14-39.89-.8-59.7-26.79-19-58.19-25.51-89.97-29.59-88.48-11.35-175.5,4.08-262.74,15.05-71.93,9.04-143.68,21.06-216.52,8.57-75.68-12.98-117.77-57.32-121.68-129.07-2.78-50.99,9.07-66.38,59.15-80.15,67.7-18.61,136.38-12.04,204.86-8.78,93.72,4.46,187.36,10.47,281.09,14.86,30.67,1.44,61.8,2.08,92.11-12.95-2.83-8.47-8.83-16.96-7.56-24.19,7.01-40.06-22.87-44.41-48.92-53.55-11.63-4.08-27.46-2.2-33.78-22.3,29.85-8.95,54.23,3.67,76.95,15.65,16.43,8.67,27.94,10.19,44.37-.25,39.01-24.77,83.77-19.02,127.11-18.95,7.16.01,13.96,3.39,13.27,11.97-.68,8.49-8,9.94-15,10.18-16.44.55-32.89.54-49.32,1.27-25.47,1.14-49.66,7.13-71.91,20.06-11.42,6.64-21.25,14.91-19.87,29.35,1.34,14.07,11.5,21.42,24.18,26.02,39.25,14.24,79.16,17.11,119.75,7.04,67.01-16.62,93.74-47.72,92.92-116.92-1.32-112.33-11.88-224.03-36.04-333.93-9.4-42.76-23.94-84.24-49.86-123.17-3.99,5.49-6.41,8.36-8.33,11.53-59.23,98.03-48.55,89.63-171.04,95.54-.97.05-1.93.05-2.9.11-27.35,1.63-46-9.99-57.18-35.34-10.06-22.81-19.26-46.37-40.9-69-26.12,68.35-29.92,139.36-51.54,209.3Z" stroke-width="0"/><path d="M599.1,234.87c21.61-69.93,25.42-140.94,51.54-209.3,21.64,22.63,30.84,46.19,40.9,69,11.18,25.36,29.83,36.97,57.18,35.34.97-.06,1.93-.06,2.9-.11,122.49-5.91,111.81,2.49,171.04-95.54,1.92-3.17,4.34-6.04,8.33-11.53,25.92,38.93,40.46,80.41,49.86,123.17,24.16,109.89,34.71,221.6,36.04,333.93.82,69.19-25.91,100.3-92.92,116.92-40.59,10.07-80.5,7.2-119.75-7.04-12.68-4.6-22.83-11.95-24.18-26.02-1.38-14.44,8.45-22.71,19.87-29.35,22.25-12.93,46.44-18.92,71.91-20.06,16.43-.73,32.88-.72,49.32-1.27,7-.23,14.32-1.69,15-10.18.68-8.58-6.12-11.96-13.27-11.97-43.35-.07-88.1-5.82-127.11,18.95-16.43,10.43-27.94,8.91-44.37.25-22.72-11.98-47.1-24.6-76.95-15.65,6.31,20.1,22.14,18.22,33.78,22.3,26.05,9.14,55.93,13.48,48.92,53.55-1.26,7.23,4.73,15.72,7.56,24.19-30.31,15.02-61.44,14.38-92.11,12.95-93.72-4.39-187.37-10.4-281.09-14.86-68.48-3.26-137.17-9.84-204.86,8.78-50.08,13.77-61.93,29.16-59.15,80.15,3.91,71.74,46,116.08,121.68,129.07,72.84,12.49,144.59.47,216.52-8.57,87.24-10.97,174.27-26.39,262.74-15.05,31.79,4.08,63.18,10.59,89.97,29.59,27.94,19.81,28.35,39.35.8,59.7-66.47,49.09-143.68,69.69-223.73,81.54-118.18,17.49-235.55,13.93-350.46-20.6-108.76-32.68-188.95-96.95-216.45-212.43-15.99-67.15-.53-124.98,60.85-164.25,13.04-8.34,13.85-18.49,12.05-32.2-5.3-40.26-11.09-80.67-5.92-121.4,13.92-109.6,99.9-197.13,214.44-218.04,94.64-17.27,184.49.67,271.43,38.45,4.33,1.88,8.67,3.73,17.7,7.61ZM793.77,356.58c12.83-27.83,18.49-56.39,28.41-85.11-17.76,12.99-36.17,6.89-59.19,9.97,30.43,18.95,16.17,50.66,30.78,75.15ZM890.21,237c-1.25-12.81-3.98-28.31-20.32-28.64-17.03-.35-20,15.81-19.96,29.3.04,12.86,4.68,26.01,20.31,26.31,16.23.32,19.16-12.65,19.96-26.97ZM740.83,236.5c-1.72-12.15-3.45-25.13-19.59-23.24-13.55,1.58-19.42,12.02-18.63,25.14.73,12.17,4.57,24.57,18.97,24.84,17.29.32,17.85-14.27,19.24-26.73Z" fill="#fff" stroke-width="0"/><path d="M793.77,356.58c-14.61-24.48-.35-56.19-30.78-75.15,23.03-3.08,41.43,3.02,59.19-9.97-9.92,28.72-15.58,57.29-28.41,85.11Z" stroke-width="0"/><path d="M890.21,237c-.8,14.32-3.73,27.28-19.96,26.97-15.64-.3-20.28-13.45-20.31-26.31-.04-13.49,2.93-29.65,19.96-29.3,16.34.34,19.07,15.83,20.32,28.64Z" stroke-width="0"/><path d="M740.83,236.5c-1.39,12.46-1.95,27.05-19.24,26.73-14.4-.27-18.24-12.67-18.97-24.84-.79-13.12,5.07-23.55,18.63-25.14,16.13-1.88,17.87,11.1,19.59,23.24Z" stroke-width="0"/><path d="M926.93,499.64c-30.38,9.29-62.06-1.97-93.24,7.71-21.07,6.54-39.42,16.7-57.51,27.57-18.87,11.34-10.42,46.65,14.33,60.41,51.8,28.8,161.92,25.48,206.48-22.75,21.22-22.96,29.81-48.98,31.58-78.75,2.89-48.6-.9-97.1-6.45-145.13-6.72-58.17-9.61-116.97-22.71-174.29-13.11-57.34-27.72-114.24-61.54-163.66-23.16,3.33-28.35,21.79-36.81,36.03-8.96,15.09-18.17,29.71-29,43.65-13.06,16.81-28.99,25.22-49.67,22.77-22.85-2.7-43.98,7.04-66.82,6.79-30.77-.34-48.73-12.76-58.29-41.36-8.4-25.1-22.74-46.81-46.45-69.92-42.02,65.15-33.37,141.49-60.92,206.67-82.2-31.55-167.02-52.76-255.33-43.2-114.58,12.41-208.13,80.82-245.79,197.14-18.19,56.19-4.53,115.89,1.79,173.88C-14.8,608.75-4.37,728.5,56.2,818.77c59.71,88.99,150.74,130.45,252.3,147.76,157.5,26.84,312.27,14.47,461.54-45.99,24.84-10.06,48.26-23.48,66.77-43.47,20.73-22.4,20.13-45.43-2.99-63.55-27.89-21.87-60.94-32.12-95.63-38.09-93.13-16.04-184.24,5.04-275.86,14.94-70.58,7.63-140.3,20.5-212.12,9.02-69.46-11.1-123.42-73.43-113.15-137.11,5.44-33.73,25.12-48.89,72.6-55.14,96.11-12.65,191.61-1.72,287.56,4.71,77.1,5.17,154.64,13.17,232.27,4.18,18.79-2.17,35.21-8.13,49.34-20.55" fill="none" stroke="#000" stroke-linecap="round" stroke-linejoin="round" stroke-width="11.62"/><path d="M771.56,534.49c-28.69-19.12-59.71-31.92-94.38-34.85" fill="none" stroke="#000" stroke-linecap="round" stroke-linejoin="round" stroke-width="11.62"/><path d="M796.25,299.27v55.18" fill="none" stroke="#000" stroke-linecap="round" stroke-linejoin="round" stroke-width="11.62"/></g></svg>