<?xml version="1.0" encoding="UTF-8"?><svg id="b" xmlns="http://www.w3.org/2000/svg" viewBox="0 0 869.22 1168.75"><g id="c"><path d="M296.42,777.94c27.25-25.99,26.38-65.31,47.24-93.38,43.81-58.92,88-118.63,151.72-156.45,66.31-39.36,74.07-96.41,62.15-162.38-9.95-55.07-24.42-109.36-33.34-164.56-13.55-83.77,19.53-158.45,80.14-188.73,20.24-10.12,43.1-20.45,61.78-3.16,20.43,18.92,1.28,38.94-9.61,53.96-29.99,41.38-26.1,86.35-18.97,132.12,11.27,72.33,37.83,140.7,55.68,211.1,26.77,105.54,72.9,202.45,117.26,300.14,47.9,105.48,41.96,218.89,57.63,329.06,4.8,33.74-6.48,68.21-25.1,97.03-16.47,25.5-43.85,36.02-70.58,17.86-27.45-18.65-21.2-40.32,1.35-63.27,22.6-23.01,10.46-72.55-21.98-89.64-27.22-14.34-51.56-32.3-80.17-52.61-5.9,22.22-11.08,42.42-16.61,62.52-27.81,100.96-103.5,162.17-207.2,161.2-96.6-.9-193.74,1.02-289.13-19.13-12.71-2.69-22.64,1.4-34.18,4.27-40.92,10.17-100.01-18.35-113.97-55.97-10.3-27.75,1.74-49.25,31.25-51.34,54.53-3.88,51.31-38.65,27.44-64.03-52.69-56.04-23.48-135.75-65.35-194.85-15.35-21.68,19.21-21.19,27.59-16.83,51.96,26.99,101.19,6.81,152.1-2.31,29.57-5.3,55.56-11.38,76.13-35.15,8.92-10.31,19.22-29.47,36.35-18.71,13.5,8.48,2.42,24.94,1.23,38-.69,7.6-10.28,14.31-.86,25.28Z" stroke-width="0"/><path d="M657.69,902.67c-25.88,220.6-124.81,263.38-291.39,245.31-72.07-7.82-146.05,6.89-216.91-19.43-19.31-7.17-36.48,14.87-58.08,10-15.04-3.39-33.62-2.49-35.85-21.09-2.53-21.06,17.45-22.28,31.89-24.5,41.1-6.33,82.4-11.36,124.25-21.61-47.79-10.63-114.55,14.39-116.6-72.56,27.54,5.03,55.14,10.3,82.82,15.09,87.74,15.19,178.47-87.23,145.31-169.76-13.73-34.17-11.1-55.2,3.19-88.14,35.79-82.52,88.16-153.47,161.22-198.94,94.75-58.96,98.22-137.37,77.24-228.64-14.48-62.97-30.29-125.36-23.39-190.92,5.81-55.26,32.45-95.57,83.08-119.03,9.11-4.22,20.62-7.24,28.31,1.57,3.07,3.52,2.51,14.08-.58,18.51-73.94,105.78-16.66,209.22,6.88,312.14,32.5,142.08,100,271.75,150.76,407.38,37.55,100.33,31.84,206.68,36.45,311.13,1.18,26.76-4.4,59.01-39.9,69.2-12.05,3.46-23.74,4.78-32.24-6.84-10.12-13.84,1.41-20.41,9.4-29.39,29.38-33.01,20.42-92.74-20.33-116.55-36.82-21.52-71.37-45.05-105.53-82.95Z" fill="#fdfdfd" stroke-width="0"/><path d="M14.34,779.62c99.74,41.1,178.08,6.4,259.43-25.14-5.24,21.15-1.21,42.28,18.02,64.37,28.54,32.8,34.79,74.43,6.59,112.19-29.56,39.58-61.84,77.82-120.64,65.76-19.82-4.07-40.66-4.74-59.61-11.17-34.65-11.76-67.65-29.58-67.67-72.09-.02-43.34-12.85-82.55-36.12-133.93Z" fill="#fcfcfc" stroke-width="0"/><path d="M105.61,1066.24c-18.98,13.69-42.28,7.47-55.99,23.78-6.55,7.79-16.97,14.41-24.68,3.07-7.7-11.32-3.79-22.97,10.36-27.08,21.87-6.36,44.29-22.95,70.3.24Z" fill="#eeeded" stroke-width="0"/><path d="M214.39,929.1q-39.97,6.81-26.65-38.08c18.47,6.49,14.02,27.7,26.65,38.08Z" fill="#5a5859" stroke-width="0"/></g></svg>