<?xml version="1.0" encoding="UTF-8"?><svg id="b" xmlns="http://www.w3.org/2000/svg" viewBox="0 0 968.69 888.58"><g id="c"><path d="M499.04,845.37c-7.31,2.62-14.61,5.25-21.92,7.87-31.67,13.72-72.15.56-84.64-27.49-1.36-4.74-1.23-9.57-.7-14.43.09-.81.08-1.62.26-2.4-.12.29-.25.58-.37,1.03-3.39,12.65-6.11,25.44-15.51,35.27l-.03-.02c-.8,8.6-5.07,15.03-12.28,19.61-1.49,1.28-2.98,2.55-4.47,3.83-2.62,5.47-6.92,8.32-13.02,8.38-19.62,1.7-39.56.2-58.8,5.93-26.52-2.46-45.54-20.48-48.09-45.21-.36-3.48-.07-6.57,1.51-9.6,1.04-4,2.08-8,3.12-12,2.29-12.48,11.73-19,21.43-25.01,3.5-2.17,7.37-3.51,8.85-7.8,2.61-7.31.05-15.11,2.15-22.44.41-1.17,1.05-2.21,1.87-3.13,6.82-.22,3.9,5.04,4.13,8.02.39,5,2.76,9.68,1.96,15.87,1.54-4.8-1.02-8.08-1.05-11.5-.07-7.77,1.38-15.49.34-23.36-.43-3.25,1.03-6.64,5.08-7.64,1.34-.02,2.51.4,3.53,1.27,3.88,5.98,1.4,13.16,3.7,19.43.53,2.64.55,5.29.11,7.95-1.74,5.57-1.4,11.32-1.37,17.04-.14,4.86-.01,9.72.56,14.55-.21,3.81-.62,7.83-5.24,8.61-2.81.48-3.77-2.57-5.39-4.39-1.36-1.52-.05-6.6-4.55-4.21-3.41,1.81-7.99,3.48-5.1,9.07-3.13,7.77-13.36,11.2-12.85,21.17-.22,3.55-.11,7.07.43,10.58,5.22,13.05,16.28,19.17,28.85,21.09,16.02,2.44,32.44,3.35,47.76-4.36,13.25-5.79,18.1-17.87,22.55-30.24.36-1.12.81-2.19,1.3-3.25,4.32-8.53,5.75-17.97,8.54-26.98,2.69-10.65,4.66-21.46,7.58-32.05,1.39-3.9,1.99-7.98,2.59-12.06.2-1.18.5-2.33.83-3.47,1.89-4.15.19-10.24,6.48-12.02,2.68.06,5.09.92,7.26,2.49,5.14,6.02,3.69,13.92,5.95,20.77-.07,19.75,3.28,24.15,22.18,32.38,30.96,13.47,62.94,14.36,95.57,8.72,4.94-.85,9.86-1.73,14.89-1.25,2.85.45,6.59.73,7.02,3.93.46,3.46-3.42,4.46-6.03,5.06-10.41,2.39-11.88,8.39-7.5,17.12-6.97,10.8-17.4,16.33-29.49,19.3Z" fill="#1f1f1f" stroke-width="0"/><path d="M18.02,178.51c.45-.72.71-1.51.78-2.36,5.59,5.26,11.75,9.96,16.2,16.37,1.02,5.19-.95,10-1.82,14.96-3.43,16.66-8.6,32.9-9.33,50.16-1.1,25.93,5.9,49.3,19.74,70.9,3.79,7.49,9.97,12.99,15.83,18.75,6.13,7.33,14.46,11.89,22.01,17.43,2.73,2.54,6.02,4.53,7.88,7.92,1.67,3.82,5.11,2.58,8.05,2.75,8.56,1.81,16.2,6.16,24.47,8.74,3.43,1.2,6.93,2.2,10.44,3.17,12.59,4.84,26.82,4,38.71,11.19.71,1.17.68,2.34-.07,3.48-6.52,4.86-13.99,2.55-20.75,2.68,3.65,1.29,9.61.69,10.3,5.91.52,3.9-4.49,3.72-7.59,4.43-9.75.49-18.81-2.66-27.95-5.33-11.89-3.47-14.07-2.05-12.8,10.61,2.11,21,4.23,42.03,9.26,62.62.39,3.86,1.11,7.66,2.33,11.36,4.29,18.58,11.36,36.41,15.12,55.14.78,2.93,1.73,5.82,2.61,8.73.69,2.25,1.4,4.5,1.49,6.88-3.95,5.86-8.18,11.35-16.21,11.56-9.85-25.1-21.18-49.73-23.28-77.15-.99-4.94-1.99-9.89-2.98-14.83-4.14-2.91-4.73-7.43-5.62-11.93-4.72-23.96-5.43-48.34-7.78-72.53-.22-8.97-8-11.31-13.83-14.51-36.07-19.81-58.23-50.05-69.07-89.35-1.52-5.5,1.33-10.79-.78-16-.01-11.31-.02-22.61-.03-33.92.68-23.52,6.19-46,14.68-67.83Z" fill="#212121" stroke-width="0"/><path d="M908.06,536.94c-2.37,1.71-4.74,3.41-7.11,5.12-14.17,13.89-32.11,19.15-50.97,22.31-11.82,2.25-23.01,6.5-34.18,10.8-4.64,6.16-12.06,4.96-18.3,6.88-6.98,1.31-13.58,3.56-19.45,7.68-18.28,11.13-34.07,25.56-51.01,38.46-.38-.16-1.09-.33-1.1-.51-.09-13.84-7.44-26.9-5.09-40.82,1.62-9.61,2.62-17.57-.48-26.58-2.79-8.1-1.42-13.01,8.14-13.2,8.3,13,3.21,28.24,6.52,43.56,13.78-9.87,27.42-17.53,42.19-22.99,6.89-2.64,13.75-5.32,20.54-8.21,12.32-4.03,24.53-8.43,37.1-11.66,5.19-1.29,10.03-3.54,14.97-5.51,11.5-3.74,22.79-8,33.56-13.54.97-.62,1.97-1.18,2.97-1.73,19.97-12.93,36.74-29.08,49.59-49.17,3.63-5.11,4.05-11.68,7.54-16.86,1.37-1.69,2.85-3.28,4.67-4.48,3-.79,4.42,1.28,5.9,3.2,8.5-4.78,9.38-4.62,9.64,1.67-4.01,2.96-.99,7.44-2.35,10.97-2.58,11.74-6.33,22.81-17.11,29.86-1.14,1.4-2.29,2.8-3.43,4.2-2.98,8.83-9.23,14.47-17.58,18.08-2.75,2.41-5.51,4.81-8.26,7.22-.84,3.67-4.06,4.22-6.91,5.26Z" fill="#201f1f" stroke-width="0"/><path d="M953.69,461.94c-1.59-1.67-3.18-3.34-4.77-5.01-2.89-5.97-.6-12.22-.86-18.32-.46-10.57-2.91-20.26-13.59-24.4-10.75-4.17-20.37-1.24-27.43,8.36-1.6,2.47-3,5.06-4.51,7.58-13.72,21.39-29.46,40.94-50.58,55.6-3.45,2.22-6.85,4.51-10.37,6.62-10.02,5.09-19.86,10.6-30.6,14.15-5.11,1.46-9.89,3.8-14.82,5.73-5.61,1.79-11.21,3.68-17.18,3.86-2.77-.64-5.19-2.64-2.8-4.93,6.75-6.48.36-6.98-3.5-8.83-.48-1.14-.53-2.29-.16-3.47,6.67-6,14.12-9.84,23.44-8.55,5.53-.59,10.25-3.09,14.71-6.21,8.47-6.43,17.49-11.81,27.9-14.52,3.04-.75,5.62-2.19,7.37-4.88,4.08-9,14.74-11.46,19.57-19.72,10.06-15.65,18.37-32.59,32.2-45.48,22.02-20.53,63.93-10.5,70.24,23.16-.26,2.49-1.37,4.63-2.82,6.6-5.24,10.39-1.95,23.78-11.46,32.67Z" fill="#202020" stroke-width="0"/><path d="M129.05,577.3c.75-7.48,11.09-6.15,12.21-13.29,6.93,2.09,7.07,8.68,8.82,13.91,5.4,16.15,8.42,32.9,11.67,49.59.17,7.74,1.97,15.28,2.81,22.93-.24,14.03,4.63,27.84,1.86,41.96-1.15,5.29-3.54,10.57-.04,15.89,2.57,5.21,6.07,9.34,11.69,11.62,4.99,2.03,9.18,5.12,10.07,11.06-4.66,12.86-8.21,13.96-24.55,7.65-4.8-2.65-8.87-6.32-13.17-9.66-2.62-3-5.56-4.61-9.89-3.78-6.22,1.2-8.37-2.08-7.46-7.95,10.44-6.41,12.9-15.2,10.88-27.3-1.67-10.01,1.81-20.56-.1-30.9.39-10.68-1.24-21.14-3.3-31.56-6.64-5.85-1.76-14.1-4.31-20.8-.21-1.41-.42-2.83-.63-4.24-5.99-7.39-8.79-15.62-6.55-25.15Z" fill="#222" stroke-width="0"/><path d="M288.97,740.34c-2.31,1.67-3.16,4.36-2.38,6.64,3.37,9.89-4.16,20.44,2.09,30.18.95,1.47.21,4.07.14,6.14-.1,2.91-1.89,5-4.52,5.07-3.84.09-2.38-3.38-2.87-5.54-1.82-8.07,4.15-17.31-3.66-24.48-6.06,2.27-10.19-.82-13.91-5.02-2.59-1.78-5.18-3.55-7.77-5.33-7.06-3.07-10.88-8.34-10.98-15.16.18-2.67-1.95-1.78-.28-1.86.2,0,.36.27.24.77-1.21,5.12,2.39,12.87-7.29,13.39-6.6-8.48-9.02-18.6-11.44-28.74.88-9.98-1.29-20.6,6.11-29.21,3.64,1.82,3.13,4.32,1.46,7.01,3.61-5.07-1.41-8.66-2.55-12.93-1.05-8.05-3.02-16.19,2.29-23.6q4.03,4,3.23,13.48c.92-5.78.75-11.47-.44-17.36-.69-3.42-.76-8.69,4.29-8.59,4.63.09,10.67,1.33,9.9,8.41-.67,6.2-1.38,12.38-1.1,18.6.33,7.43-.49,14.83.34,22.33.77,6.99,9.24,10.13,7.58,16-.09-.92.32-3.24,3.25-4.29,2.5-.51,4.69-.13,6.21,2.15-1.92,10.42,7.13,9.98,12.79,12.89,1.16,6.7-5.14,5.9-8.23,8.29-2.15,6.49,4.73,5.98,6.88,8.95-.38-6.05,1.91-11.9.79-17.91-3.39-2-7.92-2.65-8.89-7.51.75-7.03-3.96-13.27-3.03-20.34,1.66-5.95,5.02-11.39,4.66-17.97-.12-2.2,2.12-6.38,4.04-4.15,3.57,4.14,2.43-3.06,4.26-1.13,8.16,8.1,7.21,19.49,10.7,29.28.08,1.24-.02,2.47-.25,3.68-2.49,7.97-2.89,15.89-.23,24,1.53,4.66,2.6,9.6-1.43,13.84Z" fill="#252424" stroke-width="0"/><path d="M344.29,8.15c6.72-2.16,13.39-4.51,20.19-6.43,11.89-3.37,21.5-.95,26.81,11.37-1.2,4.38-3.22,8.79.79,12.89.9.92,1.63,2.52,1.27,3.43-5.8,14.25,2.83,29.61-3.41,43.78-1.55,3.51-2.13,7.18-2.24,10.97-.42,14.49,1.01,29.1-4.43,43.19-1.21,3.13-1.09,7.43.68,11,.13,1.69.25,3.38.38,5.07-11.18,7.94-11.5,7.85-14.61-4.82-.96-3.92-2.59-7.72-2.5-11.89,6.14-31.03,8.32-62.45,9.95-93.92,3.62-5.27,5.43-2.63,5.67,1.72.46,8.29.21,16.62.13,23.17.73-12.91.61-27.5-5.49-42.13-2.92,1.61-9.46-6.03-12.2,3.5-27.57,14.45-52.39,33.18-78.19,50.38-6.68-1.23-15.31,3.06-19-6.69,5.29-4.89,10.57-9.77,15.86-14.66,16.17-19.32,36.65-32.11,60.42-39.95l-.07.03Z" fill="#242424" stroke-width="0"/><path d="M622.28,785.35c-.86-.17-1.54.1-2.06.8-1,.65-2.1.92-3.29.82-6.02-2.97-3.13-10.76-7.8-14.47,6.15-10.96,19.13-13.88,26.95-22.9,1.82-1.31,3.76-2.45,5.54-3.83,4.31-3.62,8.2-7.64,11.43-12.26,3.52-4.31,7.94-7.82,11.08-12.49,14.39-16.55,25.04-35.33,33.2-55.59.31-1.09.72-2.15,1.14-3.2,1.74-4.14,3.05-8.43,4.24-12.76.26-1.12.61-2.21.97-3.31,1.82-4.84,1.8-10.52,6.39-14.11,8.08,2.16,7.51,9.55,8.55,15.38.7,3.91.17,7.95,3.1,11.21-1.53,17.67-10.07,32.44-19.3,46.93-16.74,29.43-39.49,53.38-66.82,73.17-4.08,2.95-8.39,5.38-13.32,6.59Z" fill="#202020" stroke-width="0"/><path d="M582.44,326.51c2.44,1.04,4.87,2.08,7.31,3.11,11.14,2.05,18.73,10.27,26.91,16.75,15.15,11.99,29.89,24.64,42.49,39.48,7.17,8.44,13.57,17.5,20.52,26.11,2.8,3.46,5.53,7.25,4.94,12.22-4.82,5.27,1.43,15.97-9.04,18.49-4.28-1.55-6.13-5.47-8.39-8.87-22.56-34.05-51.58-61.62-85.03-84.72-1.91-1.28-3.86-2.52-5.8-3.75-5.61-4.82-13.88-6.32-17.39-13.8-.14-1.2.13-2.31.73-3.35,4.97-4.51,11.56-5.9,15.6-1.07,4.13,4.93,4.76-3.23,7.14-.6Z" fill="#1f1f1f" stroke-width="0"/><path d="M100.1,45.91c5.76-.07,14.03-2.62,16.84.22,13.23,13.42,24.69-1.76,37.12-1.15,35.78,1.75,71.71.62,107.58.62,4.12,0,8.25,0,12.34,0,1.62,7.85-6,10.1-7.73,15.45-4.4,3.53-9.24,2.46-14.2,1.59-11.81-2.05-23.66-3.88-35.72-3.31-7.23-.41-14.47-.22-21.7-.14-20.11-.42-39.52,4.15-58.96,8.39-3.71,1.2-7.36,2.82-11.42,2.1-8.52-7.44-20.41-11.47-24.15-23.78Z" fill="#f5f5f5" stroke-width="0"/><path d="M13.26,38.51c-.22-1.63-.44-3.26-.98-7.27-4.76,14.81-4.32,27.32-2.04,40.39,2.1,12.06,2.87,24.69-8.13,34.87-4.5-6.15-.33-13.21-.8-19.45C-.29,65.94.15,44.62.72,23.41,1.03,12.31,9.69,5.78,25.45,5.74c13.3-.04,27.33-3.9,39.89,4.44,1.23.81,3.56-.04,7.16-.2-3.51-1.66-5.19-2.46-7.28-3.45,12.71-1.4,18.52,5.82,13.6,16.45-.23.49-3.34-.13-5.01-.58-3.04-.82-3.01-.93-3.03,4.93-2.18,2.37-4.25.67-6.36-.13-6.56-3.38-12.7-7.8-20.43-8.32-5.72.07-11.52-1.01-17.01,1.49-4.83,2.28-6.63,6.7-8.21,11.36-.98,2.88-1.08,6.64-5.51,6.81Z" fill="#f5f5f5" stroke-width="0"/><path d="M394.06,823.15c11.83,23.12,40.21,35.85,70.81,31.75,4.08-.55,8.17-1.1,12.25-1.65,2.33,3.69,6.9,1.65,10.78,3.49-5.5,3.31-11.26-.54-16.81,3.65,10.57.39,20.04,1.75,29.42-2.01-8.89,4.63-17.82,9.43-28,9.75-16.21.51-32.46-.02-48.69.21-5.06.07-9.7-.76-11.3-5.75-6.03-18.93-22.23-15.84-36.37-17.36,4.62-13.11,9.23-26.22,13.85-39.33,6.74,4.49.46,12.03,4.05,17.26Z" fill="#f6f6f6" stroke-width="0"/><path d="M3.37,280.26c9.02,50.75,37.71,86.7,82.92,110.26,2.46,1.28,5.79,2.12,4.51,6.21-6.04,3.73-7.21-2.28-10.01-5.02-10.22-4.25-20.26-8.53-31.97-5.83-3.85.89-8.52.66-6.32-7.22,1.77-6.34,4.22-17.07-10.67-12.7-5.81,1.7-14.07.69-10.67-10.2,2.72-8.73-1.43-11.98-9.65-10.28-9.01,1.87-9.91.16-9.76-9.76.17-10.91.02-22.26-.89-33.32-.64-7.74.46-14.89,2.52-22.13Z" fill="#f6f6f6" stroke-width="0"/><path d="M471.97,271.37c5.02,6.9,10.95,12.31,20.19,12.24,5.67,1.84,11.34,3.68,17.01,5.53,3.07,1.48,8.04-1.15,9.27,4.29-2.61,10.74-10.77,6.86-17.52,6.66-.54-.49-1.09-1-1.64-1.52.13.23.34.4.54.69.83,2.28-.98,3.74-1.46,5.59,2.06,9.04,7.73,16.5,10.68,25.16,2.56,7.51,5.19,15.23-3.77,19.49-10.05,4.78-14.62-3.43-17.68-10.64-6.83-16.12-14.83-31.54-24.37-46.19-1.5-2.72-2.77-5.52-2.6-8.73.14-3.75,8.62-3.22,4.75-9.56-.61-1,3.24-4.19,6.58-2.99Z" fill="#1f1f1f" stroke-width="0"/><path d="M622.28,785.35c31.18-21.7,57.77-47.88,78.22-80.06,2.16-.52,3.17.06,2.34,2.43-.48,8.35,2.68,17.64-6.41,23.79-.69.47-.02,2.97.02,4.52,1.05-.1,2.11-.13,3.15-.31,1.11-.2,1.25-5.76,2.93-.99,1.12,3.19.07,7.36-.77,10.92-.43,1.83-2.86,1.49-4.15.29-12.65-11.81-15.78-1.94-16.14,8.11-.19,5.34-13.17,6.32-1.07,14.99-11.23-3.31-17.22-4.08-18.52,8.27-1.21,11.45-13.9,8.33-21.62,10.14-5.44,1.28-12.26.9-17.98-2.1Z" fill="#f6f6f6" stroke-width="0"/><path d="M129.05,577.3c2.18,8.38,4.37,16.77,6.55,25.15-1.45,4.24-2.89,8.48-4.34,12.72-.8,2.33.71,6.43-4.51,5.25-3.96-.89-4.14-2.64-4.64-6.7-1.47-12.01-1.2-23.98-1.1-35.97.06-7.35-1.79-13.62-6.6-19.05-4.91,2.55.9,5.08-.47,7.27-5.63,4.08-4.05-14.17-12.6-1.91,1.39-22.64-3.95-43.77,2.1-64.68,8.54,25.97,17.08,51.93,25.62,77.9Z" fill="#f6f6f6" stroke-width="0"/><path d="M133.16,65.53c19.62-6.77,39.79-10.06,60.55-9.71,7.49,1.76,14.98,1.72,22.47.02,17.03-1.54,33.37,3.49,50.07,5.2.18.64.47,1.23.87,1.77-2.4,11.41-12.02,9.14-19.17,8.91-23.09-.77-46.2-.92-69.19.42-13.42.78-26.49,1.54-39.57-1.83-2.53-.94-4.76-2.25-6.03-4.77Z" fill="#262626" stroke-width="0"/><path d="M138.5,68.12c31.05,4.22,62.08-1.7,93.16-.21,8.95.43,18.14-1.65,26.93,1.07,6.28,1.94,2.6-8.5,8.53-6.17l.97-.08c4.63,6.85,13.3.13,18.38,5.45,1.25,3.33-.61,5.71-2.86,7.45-8.82,6.8-16.16,15.15-24.35,22.6-5.54,5.05-11.33,6.59-17.32.58-2.72-3.41-3.48-7.15-1.89-11.28,5.92-9.81,5.76-8.95-5.44-11.02-26.58-4.91-52.84.93-79.27,1.27-3.57-1.12-7.37-.8-10.93-1.69-3.97-.99-8.59-1.89-5.9-7.98Z" fill="#1e1e1e" stroke-width="0"/><path d="M727.68,627.42c13.43-17.05,29.46-30.63,50.37-37.69,4.96,3.68,6.42,8.89,4.55,14.33-1.9,5.54-7.33,1.46-10.92,2.18-6.78,1.36-13.78-.44-9.36,10.68,2.14,5.37-.1,9.24-7.01,6.71-4.03-1.47-8.11-1.52-12.34-.62,1.5,3.71,5.52.54,8.02,3.7-6.01.24-9.92,3.92-8.82,8.93,2.26,10.36-2.03,13.6-11.43,13.55-3.95-.02-4.21,4.78-7.13,6.28-.55-.4-1.1-.8-1.66-1.2-1.74-9.73-.34-18.79,5.72-26.85Z" fill="#f5f5f5" stroke-width="0"/><path d="M13.26,38.51c3.7-7.23,2.18-17.41,11.97-21.22,6.74-.99,13.63.33,20.33-1.35,7.62,1.58,14.65,4.48,20.86,9.23-.54,2.93-2.18,7.61-4.05,6.95-5.63-2-6.37,3.75-9.8,4.78-4.66.67-8.26-.71-10.15-5.25-2.8-6.67-8.5-1.83-12.32-2.02-2.93-.15-5.37,6.19-4.78,10.18,1.16,7.81.17,16.2,2.68,23.3,2.42,6.84,1.62,12.86,1.14,19.36-.42,5.66-2.26,11.17-.06,17.08,1.48,3.97.88,8.44-4.94,9.33-4.09-2.23-1.11-6.53-2.8-9.62-.19-1.51-2.58.5-.99-.01.64-.21.94,0,1.06.58.5,2.34.88,4.64-1.11,6.55-5.16-22.33-7.28-44.98-7.04-67.88Z" fill="#262626" stroke-width="0"/><path d="M80.79,391.71c3.47,1.41,5.66,5.38,10.01,5.02,1.69,29.45,4.15,58.81,9.66,87.85-6.08.06-11.79,2.07-14.96-7.06-8.58-24.72-3.33-49.94-4.29-74.89-.14-3.59-.08-7.28-.42-10.91Z" fill="#f6f6f6" stroke-width="0"/><path d="M499.04,845.37c9.3-6.75,20.19-11.23,28.21-19.81,4.75-9.8,12.04-13.56,22.62-9.52,1.83,10.37,7.41,5.04,11.91,2.66,9.97-5.29,17.69-2.05,19.13,9.08-12.59-7.98-24.22,3.48-36.86.89-4.57-.94-2.39,6.16-2.47,9.17-.1,3.86,1.09,9.28-3.37,9.12-13.04-.48-26.4,4.96-39.16-1.58Z" fill="#f4f4f4" stroke-width="0"/><path d="M712.25,482.13c3.08,7.22,5.94,14.5,6.36,22.48-.89,1.71.2,2.23,1.56,2.57,4.57,5.16,5.15,11.44,5.07,17.91-11.57,10.71-5.29,24.26-4.59,36.25.97,16.64-1.25,33.17.02,49.74.18,2.41-1.28,4.68-4.14,6.82-5.47-4.36-4.13-10.44-4.81-15.83-.93-26.24-2.5-52.4-8.34-78.1-1.88-7.65-3.22-15.45-5.69-22.96-1.52-6.7-5.05-12.93-4.77-20.06.2-1.19.62-2.32,1.24-3.36,7.22-3.28,10.78,8.14,18.1,4.54Z" fill="#202020" stroke-width="0"/><path d="M216.23,780.42c-25.08,13.73-50.16,12.79-75.25.05-2.8-1.2-5.22-2.77-5.81-6.08.06-1.21.56-2.22,1.41-3.07,5.54-6.74,13.1,2.67,18.86-2.37,1.11,0,2.17.24,3.17.73,4.4,2.88,8.84-.5,13.27.03,10.47.26,20.82-1.07,31.2-2.21,7.17,1.47,14.38,2.91,13.15,12.92Z" fill="#1e1e1e" stroke-width="0"/><path d="M20.31,106.39c.26-2.72.51-5.43.81-8.56,3.75,2.93.26,8.3,4.48,10.45,3.25,3.45,6.69,6.63,11.4,8.03.96.6,1.75,1.36,2.41,2.27,1.09,1.99,1.51,4.19,2.04,6.35,2.56,5.13,4.99,9.75,11.36,3.51,2.39-2.34,5.24-1.53,6.61,1.97.09,5.66-4.08,9.25-6.59,13.65-1.33,1.91-2.66,3.81-4.58,5.2-6.89,2.95-12.88,3.74-13.76-1.98,1.68,4.47.82,13.79,5.65,21.74.31,5.61-2.43,10.52-3.6,15.79-.6,2.43-1.33,4.78-3.59,6.25-6.5-3.27-12.59-6.93-14.13-14.91-.08-.88-.16-1.76-.24-2.64,7-3.78,4.45,4.76,7.48,5.86-3.07-6.25-.77-12.8-.73-19.24,1.51-18.21-5.18-35.65-5-53.74Z" fill="#212121" stroke-width="0"/><path d="M100.1,45.91c8.1,7.23,16.2,14.47,24.3,21.7-2.77,6.22-.09,13.23-2.8,19.46-2.19,4.14-6.07,4.71-10.17,4.83-9.33-1.39-3.56-10.89-8.05-14.9-4.95-6.57-11.08-11.81-17.83-16.45-3.57-2.45-8.05-4.39-8.06-9.85-1.03-2.61,6.44-2.16,1.97-6.64-3.7-3.72-1.6-7.4,3.13-9.3,2.68-.5,4.56.59,5.84,2.91,3.89,2.74,7.79,5.49,11.68,8.23Z" fill="#232323" stroke-width="0"/><path d="M344.36,8.12c-21.57,11.15-41.03,25.5-60.42,39.95-3.24-3.56-1.22-7.98-1.76-11.95-1.09-7.94,2.08-12.37,10.97-10.65,2.01.39,4.18.19,6.25.01,5-.43,5-.49,2.59-5.29-2.08-4.14,3.77-14.38,8.94-14.5,11.19-.25,22.54-1.67,33.44,2.43Z" fill="#f4f4f4" stroke-width="0"/><path d="M263.86,753.33c4.64,1.67,9.28,3.35,13.91,5.02,0,0,.32.62.32.62h.7c-2.95,8.66.62,17.83-2.14,26.5-.81,2.74-1.38,5.69-4.78,6.48-13.56,3.14-20.58,13.76-27.77,24.2-4.06-7.21-2.93-15.31-2.39-22.75.55-7.47,7.98-5.24,12.75-4.7,3.68.41,6.81,1.56,6.81-3.59,0-10.67-.43-21.36,2.59-31.78Z" fill="#f3f3f3" stroke-width="0"/><path d="M240.98,828.14c1.18,30.57,16.53,47.39,48,52.6,3.88-2.26,7.02-.23,10.17,1.75.74,1.14.66,2.25-.14,3.32-14.22-1.88-30.6,10.61-42.65-5.95-1.26,6.03-4.42,8.33-11.04,6.99-5.33-1.08-2.69-5.39-2.82-8.46-.52-12.97.18-26.13-4.43-38.57-1.81-4.88-2.36-8.84,2.9-11.68Z" fill="#f4f4f4" stroke-width="0"/><path d="M18.02,178.51c-2.24,23.18-10.17,45.14-14.68,67.83C-.42,224.19-.11,202,1.83,179.22c6.11,2.85,1.94,8.29,4.82,11.57,4.21-7.59-1.39-14.79-.97-22.38q5.24,3.93,10.22-1.41c1.23,3.83-2.48,8.52,2.13,11.52Z" fill="#f5f5f5" stroke-width="0"/><path d="M549.87,816.04c-8.72.36-15.89,4.44-22.62,9.52-8.81-10.12-7.2-14.07,9.15-19.79,5.68-1.99,4.06-2.29-.11-3.24,5.45-7.92,14.29-7.33,22.28-8.89,5.32,1,10.43,2.65,15.24,5.15,2.24,1.77,1.17,5.51,4.04,6.94-8.48,5.75-18.88,6.26-27.98,10.31Z" fill="#252525" stroke-width="0"/><path d="M134.13,720.3c1.84,1.8,2.71,4.75,6.63,1.91,5.67-4.09,9.04-1.03,10.23,5.14-2.97,8.09-7.89,15.3-10.55,23.53.84,2.9-6.59,0-3.44,5.82,2.46,4.55,1.93,10.9-.95,16.15l-.89.88c-5.55-.6-7.94-4.19-8.77-9.26-4.7-13.22-4.73-26.18,2.25-38.72,1.39-2.26,1.84-5.47,5.49-5.45Z" fill="#1f1f1f" stroke-width="0"/><path d="M702.85,707.72c-.78-.81-1.56-1.62-2.34-2.43,6.87-15.77,17.09-30.15,19.65-47.69-.37-2.14.51-3.02,2.65-2.63,0,0,.8.5.81.5.76,15.38-.31,30.43-7,45.18,1.69-2.02,3.39-4.04,5.36-6.39,3.4,19.76-11.96,10.37-19.12,13.46Z" fill="#f5f5f5" stroke-width="0"/><path d="M134.13,720.3c-1.83,1.82-3.66,3.63-5.49,5.45-.32-2.06-.64-3.65-3.37-4.32-5.74-1.4-4.69-6.29-3.85-10.19.96-4.45,5.34-4.17,8.21-3.18,11.52,3.95,11.11-3.26,11.45-11,.57-12.68,1.8-25.34,2.76-38,3.62,15.47,2.88,31.34,4.02,47.03.66,8.99-11.31,7.32-13.74,14.22Z" fill="#f0f0f0" stroke-width="0"/><path d="M610.73,772.96c5.63,2.48,1.22,10.89,7.63,12.91.04,6.05-4.97,5.7-8.76,6.9-4.05,1.65-8.1,3.3-12.15,4.95-5.11-1.47-10.47-1.33-15.64-2.48-3.03-.93-5.89-2.11-7.46-5.16,10.2-9.8,22.21-15.76,36.38-17.12Z" fill="#252525" stroke-width="0"/><path d="M299.01,885.81c0-.76,0-1.52,0-2.27,1.58-2.16,3.94-3.33,6.39-3.22,14.03.62,27.54-2.83,41.24-4.85,4.25-2.28,8.49-4.56,12.74-6.83,5.3,19.27,3.56,20.24-15.48,18.71-14.84-1.19-29.95.4-44.88-1.54Z" fill="#f2f2f2" stroke-width="0"/><path d="M83.3,35.54c-.64,2.5-7.63,3.45-.04,8.04,5.62,3.4-3.16,4.67-5.22,7.11-10.61-1-19.01-5.79-25.04-14.64,1.43-7.38,10.83-4.92,13.42-10.87,1.79.01,1.96,3.35,4.35,2.13,2.46,1.1,4.92,2.19,7.39,3.29,1.71,1.65,6.4.19,5.14,4.94Z" fill="#1e1e1e" stroke-width="0"/><path d="M216.23,780.42c-2.21-5.86-6.19-9.48-12.63-10.02-.79-1.93.25-3.23,1.52-4.45,6.77-3.47,10.35-9.6,13.42-16.17.64-.97,1.42-1.8,2.35-2.51,1.13-.4,2.26-.4,3.4-.07,3.17,1.93,4.77,5.01,6.07,8.32,1.75,5.08-2.15,9.98-.48,15.08-.14,4.16-2.94,5.98-6.37,7.24-2.55.51-3.95,4.23-7.27,2.59Z" fill="#252424" stroke-width="0"/><path d="M223.5,777.83c1.7-2.48,3.4-4.97,5.1-7.45,1.02-6.45,3.65-12.24,7.16-17.69,1.16-.52,2.24-.38,3.23.4,6.57,9.22.87,19.22.9,28.65.03,7.83-7.48,6.7-16.39-3.91Z" fill="#f1f1f1" stroke-width="0"/><path d="M238.99,753.1c-.68-.09-1.35-.16-2.04-.2-1.01-.42-1.52-1.17-1.52-2.27.58-2.06,1.61-3.72,3.85-4.3,4.45-8.18,3.12-18.15,8-26.62-2.25,11.38.82,20.6,8.81,28.29.54,4.29-7.58,8.38-.3,12.87.22.14-.07,1.11-.12,1.7-1.62-.17-3.98.27-4.74-.63-2.61-3.09-4.71-6.63-6.9-10.05-2.9-4.51-3.23,1.35-5.03,1.2Z" fill="#eae9e9" stroke-width="0"/><path d="M126.39,764.48c2.93,3.09,5.85,6.17,8.77,9.26,1.94,2.25,3.87,4.49,5.81,6.74-1.49,6.9-7.33,6.61-12.27,6.78-3.49.12-6.35-2.47-6.45-6.24-.17-5.82-3.09-12.51,4.14-16.53Z" fill="#ededed" stroke-width="0"/><path d="M363.84,864.81c4.1-6.53,8.19-13.07,12.29-19.61.82,1.4,1.68,2.79,2.47,4.21,3.06,5.53,6.04,12.77,1.47,16.88-3.25,2.92-11.04,2.39-16.22-1.49Z" fill="#f1f1f1" stroke-width="0"/><path d="M863.28,446.69c.79.06,1.59.1,2.39.12-5.18,7.49-11.79,13.42-19.7,17.9-4-15.11-2.71-16.96,11.58-16.99,1.91,0,3.82-.68,5.73-1.04Z" fill="#ececec" stroke-width="0"/><path d="M953.69,461.94c2.1-10.84,7.52-21.06,5.76-32.69-.21-1.37,2.72-.28,4.19.12,5.57,7.88.35,16.79,2.4,25,.23,2.68.66,5.42-2.36,7-3.57-5.42-5.36-1.47-7.32,1.41-.55.8-.22,2.91-2.12,1.52-.49-.36-.38-1.55-.55-2.35Z" fill="#272727" stroke-width="0"/><path d="M582.44,793.04c5.36.41,11.57-1.91,15.01,4.68-6.12,3.68-12.45,6.84-19.6,8.01-3.93-.02-4.67-1.88-2.97-5.15.73-4.31,4.1-5.97,7.56-7.54Z" fill="#1d1d1d" stroke-width="0"/><path d="M567.27,317.2c2.57,1.18,5.14,2.36,7.71,3.54,2.49,1.92,4.98,3.85,7.46,5.77-2.65.31-.48,11.29-7.27,3.03-4.21-5.12-9.95-1.56-15.05-.7-1.56-6.3,1.41-9.82,7.15-11.64Z" fill="#2b2b2b" stroke-width="0"/><path d="M901.04,391.71c-6.05-1.35-8.13,9.33-15.17,5,1.04-3.16-4.89-7.67.81-9.4,5.04-1.53,10.94-1.47,14.36,4.4Z" fill="#ededed" stroke-width="0"/><path d="M25.3,160.13c.14,4.72,4.4,8.95,1.32,14.14-1.18,1.99.03,3,2.3,1.99,1.26-.56,3.25-2.23,3.31.53.04,1.72-1.54,3.72-2.86,5.17-1.35,1.49-2.95.49-4.26-.62-2.64-2.23-1.35-7.75-6.56-7.83,2.25-4.46,4.5-8.92,6.75-13.38Z" fill="#212121" stroke-width="0"/><path d="M966.04,454.37c-4.8-7.95-1.15-16.71-2.4-25,.75-1.66,1.5-3.32,2.26-4.98.93,3.32,1.86,6.64,2.78,9.95-1.13,6.64.45,13.64-2.64,20.02Z" fill="#121212" stroke-width="0"/><path d="M136.23,606.7c3.07,6.59,3.58,13.72,4.31,20.8-14.25-4.28-2.69-13.9-4.31-20.8Z" fill="#f6f6f6" stroke-width="0"/><path d="M83.3,35.54c-1.71-1.65-3.42-3.29-5.14-4.94,3.67-2.73,6.77-5.07,11.6-.81,4.87,4.3-1.42,5.24-1.33,7.89-1.71-.71-3.42-1.42-5.13-2.14Z" fill="#e8e8e8" stroke-width="0"/><path d="M739.41,665.27c-5.86-7.34-2.22-10.59,2.49-13.71-.71,3.91-1.42,7.82-2.49,13.71Z" fill="#f5f5f5" stroke-width="0"/><path d="M609.59,792.77c2.92-2.3,5.84-4.6,8.76-6.9.63.05,1.25.14,1.87.28,1.24,9.89-3.52,10.14-10.63,6.62Z" fill="#ebebeb" stroke-width="0"/><path d="M747.61,491.09c-1.86.26-3.24.11-2.56-1.54.39-.95,1.77-1.81,2.85-2.05.93-.2,2.07.54,3.11.86-1.26,1.01-2.53,2.02-3.4,2.72Z" fill="#f5f5f5" stroke-width="0"/><path d="M703.09,412.73c-.7.75-1.41,1.51-2.12,2.26-.58-.91-1.71-1.9-1.61-2.72.18-1.44.61-3.44,2.69-3.19.44.05.64,2.15,1.05,3.65Z" fill="#f4f4f4" stroke-width="0"/><path d="M221.37,748.16c.3.85.12,1.57-.55,2.17-4.57,5.03-9.82,4.85-15.24,1.41-1.43,5.87,4.53,10.74.61,16.12-.86.85-1.73,1.7-2.59,2.55-11.3,2.22-22.68,3.28-34.2,2.26-3.28-2.22-7.66.62-10.77-2.36l.07.02c-4.38-2.1-10.94-.99-11.92-8.1.02-5.99,5.11-6.68,8.99-8.65,6.62-12.04,18.72-8.22,28.88-10.02,5.16.16,10.49.23,11.74-6.38,1.71-9.03,1.01-20.68-6.38-23.92-17.29-7.59-11.47-20.86-11.3-32.84.05-3.47.95-7.26,1.44-10.91.24-1.65-2.31.67-.7.21.4-.11.63.29.37,1.11-.75,2.34,1.79,6.74-3.04,6.48-2.78-.15-3.1-3.57-3.09-6.06.02-2.88,1.55-5.58,1.18-8.55-.22,1.67.06,3.97-1.69,4.54-2.57.83-3.65-1.45-4.16-3.46-1.34-5.31.34-12.24-7.74-13.74-.87-7.52-1.73-15.04-2.6-22.56-1.68-19.34-.4-38.74-1.15-58.09-.15-3.76-.54-7.5-3.37-10.41-.86-.76-1.51-1.68-1.98-2.71-1.08-3.55-2.48-4.97-5.28-1.1-1.83,2.53-2.42,7.5-7.61,4.56-.79-2.55-1.57-5.09-2.36-7.64.7-16.31,1.47-32.63-.92-48.87,0-1.23.16-2.46.37-3.67.14-2.28,1.89-4.69-.53-6.79-1.65-.12-1.76,1.12-1.92,2.22-.62,4.23,1.07,11.21-4,11.44-5.54.25-4.25-6.65-4.53-10.86-.36-5.54-3.37,1.31-4.3-1.04-2.93-2.83-3-6.35-2.46-10.03.86-12.73-1.9-25.27-1.7-38.01.37-24.08.24-24.24,24.02-23.25,12.22.34,24.44-.2,36.65.07,15.64-.57,31.32.55,46.93-.93,4.43-.03,8.96-.51,13.69,2.15-4.52-6.05-2.98-14.35-9.28-19.07-5.28-3.21-11.12-2.96-16.94-2.87-3.97-.48-10.03.53-10.29-4.44-.28-5.39,6.64-4.94,10.65-7.39-27.37-2.4-54.52,2.33-81.54-1.22-3.65.13-6.9-1.1-9.93-3.02-3.89-16.65-15.17-19.67-30.03-16.47-3.9.84-7.21-1.49-10.53-3.21-8.28-4.74-16.15-10.01-22.27-17.5-3.51-4.76-4.51-9.62-.26-14.81,1.22-.47-2.29-1.44-.93-.47-6.35,6.46-8.99.05-12.44-3.57-.85-.89-1.79-1.7-2.76-2.5-4.54-5.61-4.6-12.33-4.72-18.99-.19-10.41-.03-20.8-1.31-31.21-1.45-11.71,2.96-16.13,14.92-15.69,7.08.26,14.17.37,21.24.89,5.88.44,10.98,2.49,11.81,8.99,1.07,8.37,6.5,10.88,13.68,11.67,10.88,4.82,6.34,14.91,7.84,22.96.05,3.83-3.97,8.06-.08,11.39,4.24,3.62,7.27-.65,10.45-2.92,3.15-2.25,6.34-4.16,9.03.64-1.32,8.51,3.98,7.29,9.17,6.22,3.08-.08,5.71,1.01,7.96,3.06,2.44,3.15,4.27,8.03,9.5,5.6,3.02-1.4.51-4.38.1-6.65.36-10.09-11.77-11.03-14.06-19.17-.37-4.98.03-9.91.9-14.82,1.09-6.12,4.19-10.42,10.91-8.65,7.08,1.86,7.31-1.99,7.93-7.09.81-6.72-1.36-13.08-1.61-19.69-.29-7.58-6.79-3.05-10.54-3.9-3.19,0-5.91-1.24-8.39-3.11-4.37-1.33-1.25-7.11-4.79-8.49-2.76-1.08,4.41-3.14-1.18-4.35-7.56-1.64-14.62-5.4-22.7-5.56-6.48-.13-9.58-4.12-9.99-10.44-.22-3.32-.23-6.63-.25-9.95-.12-18.65-.16-18.78-18.39-19.26-7.46-.2-14.95-.53-22.33,1.06-8.45.59-16.21-1.11-22.72-6.9,1.37-4.98,2.74-9.97,4.11-14.95.94-7.83,1.86-15.67,9.62-20.27.98-1.59,1.95-3.18,2.93-4.77,9.22,4.52.92,11.61,1.67,17.22,4.6.5,4.96-2.44,4.97-4.73.05-10.58,3.01-17.83,15.7-17.25,5.16.23,4.05-4.47,3.12-7.52-2-6.59,2.12-8.51,7-8.85,6.08-.43,10.12-.13,11.08-8.93.83-7.62,4.88-17.6,17.48-11.38,2.85,1.41,6.44-.79,9.39-2.45,1.81-1.02,3.97-1.51,5.62-2.55,5.27-3.31,3.76,8.34,8.09,3.83,3.25-3.38-3.1-7.4-1.49-11.64,1.44-3.8,2-8.23,6.83-9.7,1.43.07,2.74.45,4,1.1,24.17,2.43,48.38.39,72.54,1.03,5.42.15,10.9-.39,16.26.52,3.83.65,8.82.38,8.64,6.56-.36,3.44.17,6.7,2.04,9.67,1.67,5.45,5.97,4.83,10.2,4.46,11.6-1,23.2-1.87,34.86-1.29,1.86.46,3.19,1.51,3.76,3.39-5.59,10.59-1.32,17.15,10.49,17.35,7.04.12,14-.34,21-.65,1.83.4,3.2,1.43,4.13,3.05,2.65,5.4-.58,10.41-1.31,16.5,7.14.85,11.06-4.71,16.18-7.31,2.03-1.25,4.14-2.26,6.61-2.12,6.78,3.02,8.84,6.7.89,10.68-9.12,4.56-8.9,7.89-.13,13.2,6.14,3.71,10.37,10.21,13.74,16.82,1.25,2.9,3.55,5.23,2.23,9.19-.8,2.43-.19,4.86,4.87,3.29,9.03-2.81,10.27,5.82,12.99,11.65,1,3.15,2.22,6.23,2.93,9.47,1.46,14.52,1.22,29.03-.04,43.54-3.46,9.59-1.03,20.81-8.03,29.43-8.67,1.18-6.51-5.03-6.51-9.68,0-2.07,2.62-3.86-2.93-3.03-6.71,1-3.19-6.26-3.74-10.75-1.13,13.95-.46,27.5-.87,40.99-.27,8.84-2.34,14.81-12.7,13.8-6.29-.62-7.68,2.81-7.61,8.38.09,7.51.65,14.97,1.17,22.45-.51,3.29-2.44,5.47-5.34,6.91-6.17,2.67-13.31,1.01-19.34,4.24-6.9,3.7-16.11,4.4-17.34,15.2-.43,3.8-4.86,5.32-9.01,4.98-3.45-1.96-6.82-4.09-11.56-4.91-.89-.29-.8.87-.02.63,3.35-1.02,5.84,1.92,8.84,2.86,2.47,3.5,8.65-.96,10.11,4.71-.46,2.6-2.27,4.14-4.28,5.53-6.53,3.94-13.66,6.64-20.59,9.73-2.55,1.53-5.56,3.23-4.06,6.68,1.86,4.27,6.45,2.68,9.91,3.47,4.15-1.34,9.65,5.79,12.77-2.1.67-.87,1.49-1.48,2.51-1.84,5.68-1.65,9.88,3.65,15.89,3.28-.62-4.21-7.25-4.76-5.79-9.7,2.38-4.04,6.31-5.66,10.53-6.85,9.93-.57,19.83-2.05,29.79-1.95,5.74.06,7.73-1.91,8.55-7.79,1.6-11.48,9.88-17.66,20.19-21.46,1.04,1.3-.14-.52,1.04.6,1.18,1.12,1.39,2.5,1.89,3.84-.16-1.63-.8-3.01-2.16-4.01-5.29-12.62.36-27.61,11.7-30.73,1.91-.53,4.65,0,4.06-3-1.5-7.74,4.21-14.17,3.58-21.69.14-10.55,1.97-21.11-.4-31.63-.49-2.36-.49-4.73-.06-7.09q3.72-17.93,27.46-16.66c7.52,1.26,11,7.9,16.26,12.19,3.12,3.48,7,6.46,7.6,11.59-.02,1.63-.47,3.18-.91,4.75-.95,3.4-3.85,7.43-.75,10.24,4.65,4.23,6.16-3.68,10.04-3.68,4.17.17,3.69,3.96,4.97,6.38.96,2.26,1.92,4.51,2.88,6.77-1.81,9.3,9.07,17.82-.39,28.91,8.91-6.15,16.55-1.18,19.83,10.31.68,2.37.96,4.94.92,7.44-.18,10.71,1.21,19.65,15.76,16.74,2.42-.48,7.55.73,5.7,4.11-1.83,3.33-.14,1.47,1.13,1.95,3.55,1.36,2.13-.39,1.96-2.33-.65-7.46,1.84-12.77,10.31-13.31.34-.02.33-.06-.03-2.26-2.53-15.1,2.22-20.57,15.96-18.79,7,.91,10.64,4.49,10.33,11.55-.26,5.99,1.98,7.87,8.19,7.45,7.83-.53,15.78-.03,23.62,1.1,1.47.9,2.94,1.79,4.41,2.69,2.78,9.82,5.77,18.94,19.03,18.72,4.21-.07,7.27,3.68,5.63,9.09-2.05,6.78,1.17,9.38,7.69,8.85,8.65-.69,12.95,3.41,14.62,11.8.84,4.19,2.27,9.05,8.81,8.51,7-.58,8.49,4.12,7.73,9.82-.9,6.8,1.19,10.04,8.64,9.97,8.69-.09,10.75,6,11.17,13.52.89,16.06,1.05,16.05,15.67,17.97.9.63,1.57,1.47,2.03,2.44.53,1.49-2.08,4.39,1.97,4.44.72.81,1.17,1.72,1.4,2.77-.8,8.68-1.24,17.34-1.09,26.04.24,13.75.8,14.17,14.03,9.27,2.95,6.93,4.98,14.11,5.95,21.58,1.2,42.15,1.26,84.3-.01,126.44-.2.79-.39,1.58-.59,2.37-5.87,2.98-3,8.91-4.53,13.36.34.69.19,1.25-.46,1.67q-10.11,2.66-15.92-11.13c5.47,10.88,1.69,21.9,1.18,32.46-.39,8.02-8.47,7.16-16.45,4.55,3.56,8.9,7.35,16-1.78,21.75-2.63,1.66-.07,7.17-1.73,10.66-1.71,5.71-8.38,6.84-10.9,11.79-8.28-.07-7.66,8.6-12.09,12.31-1.4,1.08-2.79,2.16-4.19,3.24-9.39,2.01-18.9-.7-28.27.77-.96.31-1.86.77-2.61,1.42-2.69,3.92,1.67,4.92,3,7.18.44,1.09.52,2.2.31,3.35-2.62,6.58-8.81,7.45-14.4,7.85-6.21.44-12.45,1.71-18.62,1.27-7.81-.55-12.38.39-9.01,9.93,1.47,4.16-2.15,5.08-5.55,6.4-8.51,3.29-17.26,1.9-25.92,2.36-13.91.74-28.1-2.32-41.48,5.29-4.66,2.65-11.61,1.86-13.79-5.82,3.07-1.87,6.18-2.2,7.62-1.39-2.01-.42-5.59-.78-8.8,2.35-17.01-.26-34.01-.35-51.02-.36-8.96,0-12.61-4.2-12.43-13.1.1-4.71,1.78-9.3-4.49-13.72-5.89-4.15-2.7-11.7,4.4-14.19,2.32-.81.29-2.1.34-3.08,1.49-29.9,1.43-59.81-.32-89.68.1-7.34-5.38-4.1-8.86-4.6-2.08,0-4.13-.33-6.19-.52q-18.08-1.6-15.6,16.45c-.65,5.83-1.97,11.59-1.33,17.52.08,5.7.29,11.39.07,17.09.95,15.74-.82,31.43-.76,47.15l.03-.14c-3.73,3.72.02,8.98-2.66,12.91-1.08,11.89-4.21,23.32-7.93,34.61-6.94,2.35-7.72-2.92-7.88-7.23-.15-4.07.41-8.2-.13-12.11-.66,15.65-1.04,31.51-1.26,47.37l.05-.1c-3.23,4.07-7.12,6.31-12.63,6.1-4.4-.17-7.79,2.36-5.39,7.07,5.96,11.72-1.89,13.03-10.16,14.39-17.33-3.33-34.85-.42-52.25-1.7-9.95-.73-18.9-2.54-25.14-11.12-1.94-4.18-1.72-8.38-.13-12.59,2.97-6.03,8.46-4.41,13.25-4.04,10.86.83,21.69.5,32.55.19,8.65-.25,13.82-2.45,11.89-12.38-.55-2.86-.06-5.84.15-8.75.42-5.68-1.06-9.84-7.51-10.87-9.59-1.53-11.21-8.43-11.3-16.68-.27-22.97.76-45.95-.66-68.91,1.65-11.57-.75-23.23.94-36.87-1.59,7.05.5,12.41-1.76,17.35-12.29-4.59-19.03-22.84-19.41-33.25-.15-4.11,1.33-8.45-4.04-10.36-4.4-5.37-11.01-8.21-15.52-13.47-1.14-2.83-.58-5.74-.3-8.61.81-8.2-3.19-11.36-10.99-11.02-4.14.18-8.32-.26-12.44.06-9.5.74-16.2-2.4-18.56-12.29-.63-2.66-.21-6.33-4.66-5.75-3.79.49-4.36,3.31-4.03,6.48.45,4.33-2.31,6.86-5.1,9.4-2.81,2.26-6.13,1.71-9.41,2.11-7.7.94-8.43,4.61-2.94,12.29.95-.19,1.35-.8,1.59-1.73.86-3.32-5.93-7.05-.33-9.55,5.01-2.24,8.7,1.16,10.32,6.15,1.03,3.18,1.86,6.39,4.52,8.71,1.26,6.83.05,14.27,11.66,14.31,7.72.02,7.12,9.2,7.35,15.13.77,20.32.31,40.67.26,61.01-.01,6.24,1.56,12.4.82,18.59-.53,4.46-.74,9.19-4.13,12.81Z" fill="#fefefe" stroke-width="0"/><path d="M384.29,667.59c-2.18-3.74-2.4-7.81-2.59-12.04-.32-7.09,3.33-8.63,9.37-7.8,6.1.84,12.21,1.54,18.32,2.3,2.4,3.56,7.65,1.44,10.04,5.03,4.91,33.25,1.82,66.65,1.75,100.93-2.97-2.16-5.59-4.08-9.55-6.97,2.17,13.29,12.33,22.67,9.64,35.85-1.06,5.22,4.83,2.82,7.56,3.01,17.75,1.19,35.72-2.24,53.3,2.62h0c6.17,4.62,12,6.55,18.47-.09,3.39-3.48,8.65-2.21,13.22-2.45,17.74-.92,35.75,2.49,53.15-2.76.26-2.83-1.87-3.91-2.79-5.63-4.13-7.7-1.84-11.31,7.14-10.92,11.31.5,22.5.48,33.67-2.93,3.76-1.15,3.36-3.65,5.07-5.31,1.68-.97,3.07-2.55,7.89-2.41-4.98-.49-6.18,1.51-7.88,2.41-8.23-.07-9.87-3.43-5.02-10.04,3.34,4.42,8.67-.96,12.23,2.4-3.55-3.43-8.82,1.67-12.23-2.4,11.14-4.38,22.24-3.84,33.29.33-7.59,9.42-19.2,13.83-27.59,22.26-11.99,5.83-23.97,11.65-35.96,17.48-3.58,5.57-9.24,5.37-14.84,5.35-7.88,2.25-15.76,4.49-23.64,6.74-25.13,3.6-50.16,7.2-75.73,3.54-15.38-2.21-29.88-6.39-43.56-13.49-18.18-9.44-19.01-11.16-17.29-31.04.74-7.18-.32-14.45,1.1-21.58.26-3.89.12-7.8.71-11.66,2.28-16.35,7.24-32.25,8.69-48.7.44-4.99,4.3-12.98-5.85-14.2-4.87,3.57-3.99,8.92-4.31,13.9-1.3,9.18-2.12,18.49-7.62,26.46-4.57,2.62-8.05,1.38-10.63-3.01,0-5.86,0-11.73,0-17.59,1.21-5.8,4.58-11.29,2.49-17.55Z" fill="#f8f8f8" stroke-width="0"/><path d="M299.01,705.23c4.11,6.95,2.35,14.6,2.45,21.96.23,17.03.47,34.08-.12,51.09-.27,7.66,3.82,12.26,9.68,11.03,9.36-1.96,8.55,3.12,9.64,8.91.68,3.6-.55,6.4-1,9.59-.91,6.42,5.42,14.9-1.13,18.85-5.18,3.12-13.47.76-20.31,1.52-13.05,1.44-26.05-3.17-39.07-.08,1.08-9.52,7.61-15,14.8-19.99,5.1-3.69,8.14.95,11.64,3.07,3.82,2.32,7.62,4.53,11.94,5.72,4.29-.38,11.61,3.61,9.09-6.4-3.68-3.94-10.28-3.92-12.75-9.45-4.18-4.19-.59-9.58-2.21-14.17,2.5-6.11-.18-12.76,1.94-18.91.05-2.54.09-5.08.14-7.62-2.05-8.98-.08-18.28-2.22-27.23-.02-1.32-.05-2.65-.1-3.97-.29-2.47-.47-4.94.2-7.38,1.38-4.63,3.05-9.32-2.27-12.81-1.64-1.88-2.14-3.92-.82-6.19.18-.86.35-1.71.53-2.57.8-.77,1.73-.97,2.78-.61,2.14,1.39,4.22,2.86,6.28,4.38.3.41.59.83.89,1.25Z" fill="#f3f3f3" stroke-width="0"/><path d="M494.63,823.01c4.16,1.18,4.93,2.97.53,4.85-10.06,4.28-20.21,8.33-30.32,12.48l.1.08c-4.63-4.19-10.17-1.29-15.23-1.76-14.06-1.31-26.9-5.16-36.72-15.85-2.81-3.06-5.17-7.66-2.68-11.35,3-4.43,6.59.36,9.74,1.38,16.17,5.19,32.23,10.79,49.6,10,8.34-1.43,16.67-1.75,24.99.17Z" fill="#f0f0f0" stroke-width="0"/><path d="M259.27,840.69c17.67,11.04,37.37,6.77,56.45,7.89,7.82.46,17.32-5.27,23.42,4.58,2.38,1.27,4.41,2.71,2.86,5.89-23.82,11.91-47.35,10-70.25-2.27-6.13-3.29-11.45-8.31-12.48-16.09Z" fill="#f8f8f8" stroke-width="0"/><path d="M391.36,705.2c1.95-9.16,3.91-18.33,5.86-27.49,8.29,7.49,9.27,19.41,2.44,29.71-2.54,2.28-1.04,5.52-1.83,8.21.94-2.47-.56-5.41,1.39-7.68,9.67-7.26,3.31-17.2,4.17-25.89.65-6.52-1.84-12.96-1.58-19.55,9.13-5.25,12.98-.08,12.25,7.85-1.17,12.66-.77,25.7-5.9,37.79-2.67,6.29,2.38,14.24-4.22,19.69-.7.72-1.51,1.28-2.4,1.76-3.74,2.7-3.56,8.03-7.22,10.74-2.42-.17-4.48-.91-5.44-3.41-5.68-11.08-1.71-21.41,2.47-31.72Z" fill="#252525" stroke-width="0"/><path d="M296.59,820.04c-9.58-.13-13.52-10.95-22.65-11.93-8.61-9.45,3.58-8.41,6.31-11.9,1.68-2.15,5.97-.05,7.16,4.88,2.67,11.03,4.36,2.79,6.45-.04,5.22,2.26,10.44,4.52,15.67,6.78,3.36,12.2-6.23,10.69-12.94,12.22Z" fill="#272727" stroke-width="0"/><path d="M342,859.05c-.95-1.96-1.91-3.93-2.86-5.89,4.25-4.35,9.64-7.67,3.24-15.25-2.85-3.39-.41-8.16,6.22-8.85,5.39-.56,11.45.96,16.24-3.12-3.85,13.64-9.55,25.99-22.84,33.11Z" fill="#f3f3f3" stroke-width="0"/><path d="M346.63,875.47c-14.84,8.82-31.35,7.75-47.63,8.06-3.34-.93-6.68-1.86-10.02-2.8,12.59-9.21,27.39-3.05,40.99-5.6,5.16-.97,11.37-7.12,16.66.33Z" fill="#1f1f1f" stroke-width="0"/><path d="M364.8,826.04c-7.63-16.74-.55-33.53-.23-52.59,2.79,5.69,4.92,8.94,4.03,13.91-.77,4.31-.86,9.43,5.46,10.65-1.67,9.81-4.55,19.22-9.26,28.03Z" fill="#f3f3f3" stroke-width="0"/><path d="M391.36,705.2c2.04,10.8-3.92,20.97-2.47,31.72-1.42,4.57-2.85,9.14-4.27,13.71-5.85-15.68-1.42-31.96-2.82-47.89,2.99,1.57,6.05,2.9,9.56,2.47Z" fill="#f0f0f0" stroke-width="0"/><path d="M464.55,843.21c-1.79,3.17-2.81,7.75-7.45,7.27-10.36-1.07-20.65-2.77-31.04-5.45,6.43,1.79,10.94-2.13,15.93-4.37,7.23,3.44,15.32-.81,22.56,2.54Z" fill="#292929" stroke-width="0"/><path d="M394.32,740.34c1.1-5.01-1.04-12,7.56-12.47,2.77,3.78-.2,8.51,2.05,12.38-.33,7.31-1.3,14.49-4.23,21.29-3.38-6.66-1.08-14.77-5.38-21.2Z" fill="#272727" stroke-width="0"/><path d="M288.53,702.78c.99,1.65,1.98,3.3,2.97,4.95,1.92,1.99,2.46,4.44,2.38,7.09-.04,4.31-2.63,8.58-.22,12.94.01.87.03,1.74.04,2.62-2.33,2.96.46,7.08-2.26,9.96-.82,0-1.65,0-2.47,0,1.43-10.77-6.07-20.5-3.53-31.61.6-2.61.82-4.57,3.09-5.95Z" fill="#1f1f1f" stroke-width="0"/><path d="M394.06,823.15c-5.44-4.79-.07-12.12-4.05-17.26.85-2.84.04-6.57,5.18-8.29.12,8.93-2.94,17.23-1.12,25.55Z" fill="#c8c8c8" stroke-width="0"/><path d="M291.44,740.34c.38-3.4-1.06-7.22,2.26-9.96,1.21,9.99,1.29,19.98.04,29.97-4.53-6.24-1.23-13.38-2.29-20.01Z" fill="#141414" stroke-width="0"/><path d="M464.31,851.14c5.74-6.84,9.8-9.18,16.71-4.06-5.48,1.33-9.82,2.39-16.71,4.06Z" fill="#292929" stroke-width="0"/><path d="M276.65,785.46c.06-8.88-.49-17.81,2.14-26.48-.81,8.82,2.7,17.99-2.14,26.48Z" fill="#252424" stroke-width="0"/><path d="M494.63,823.01c-8.34,1.57-16.67.92-24.99-.17,8.35-3.44,16.69-3.64,24.99.17Z" fill="#0c0c0c" stroke-width="0"/><path d="M464.55,843.21c-7.48-1.18-15.51,2.5-22.56-2.54,7.65-.08,15.3-.17,22.94-.25,0,0-.1-.08-.1-.08-.1.96-.19,1.92-.29,2.88Z" fill="#1a1a1a" stroke-width="0"/><path d="M293.6,767.97c.43,6.41.42,12.78-1.93,18.91.53-6.31-2.21-12.96,1.93-18.91Z" fill="#252424" stroke-width="0"/><path d="M381.99,763.4c.18-4.45-2.05-9.39,2.66-12.91,0,4.48.11,8.99-2.66,12.91Z" fill="#f0f0f0" stroke-width="0"/><path d="M55.7,188.51c13.99-5.9,28.33-.93,42.5-1.21,2.56-.05,2.54,2.87,2.59,4.9.1,3.74-.02,7.48.08,11.22.17,6.63-1.38,14.06,1.13,19.66,2.93,6.56,11.29,2.13,17.12,3.55,6.43,1.57,10.74,8.1,18.03,7.18-2.75,2.26.81,5.26-.97,7.74-1.99,2.76,2.3,2.64,2.31,4.56-3.53,3.75-7.79,1.41-11.79,1.44-8.22.06-15.7,1.86-20.69,9.18-2.88,4.71-1.93,9.64-.82,14.58.29,1.77.26,3.54-.04,5.3-.94,3.46-1.23,7.22-4.29,9.75-3.75,0-7.52-.22-11.26.04-6.35.45-9.68-2.09-8.75-8.64,1.39-9.86-3.46-12.97-12.27-11.4-9.36,1.66-20.23-5.37-27.63.87-7.99,6.74.33,17.12.29,25.96-.06,11.8-5.75,24.99,4.45,35.69.5,2.58-.43,3.65-3.07,2.89-19.9-25.86-25.62-55.37-21.12-86.96,1.86-13.06,6.15-25.78,9.33-38.66,6.05-.05,6.28,4.69,6.47,8.66.27,5.71,2.07,10.56,5.81,14.79,4.22,7.55,8.01,16.32,18.71,14.94,10.05-1.3,17.22-7.22,20.36-17.26.54-3.35.58-6.71.31-10.08-1.37-8.16-4.22-15.17-13.23-17.56-3.47-.58-7-.39-10.49-.79-1.23-.18-2.4-.53-3.54-1.04-4.76-3.37-2.04-6.33.5-9.3Z" fill="#f9f9f9" stroke-width="0"/><path d="M228.78,424.31c-16.5,5.27-33.47,1.28-50.18,2.5-12.54-6.51-25.08-2.44-37.62.02-20.04-.01-19.6,0-20.21,19.97-.39,12.55,2.79,25.36-2.09,37.67-7.48-26.91-9.69-54.43-10.37-82.91,15.4,2.88,28.81,10.36,43.89,10.52,4.01,1.5,7.97.98,11.92-.31,2.14-.25,4.24-.04,6.32.47,18.82,2.63,37.84-1.03,56.64,1.89,5.93,2.49,5.92,5.98,1.71,10.18Z" fill="#f7f7f7" stroke-width="0"/><path d="M227.87,416.37c-19.98.54-40.02,2.8-59.84-1.8,2.79-2.42,5.94-1.53,6.75-1.39-2.2.42-6.77-1.35-11.18.94-3.97.29-7.88.18-11.41-2.04,2.02-.19,4.04-.38,6.07-.56.07-.47.14-.94.21-1.41-5.98-1.51-11.96-3.02-17.94-4.53,9.76-5.5,20.35-3.05,30.55-3.84.56-.09,1.13-.18,1.69-.27,13.57-1.39,26.92.57,40.28,2.59,1.63.25,2.6-.54.94-.51-.21,0-.55-1.43-1.02-2.16-.09-1.21.49-1.77,1.63-1.81,5.96.56,12.39-.6,17.09,4.62.66,4.67,3.44,10-3.83,12.17Z" fill="#262626" stroke-width="0"/><path d="M214.61,399.59c-.56.61-1.17,1.17-1.82,1.68-7.28,6.35-15.45-.22-23.04,1.6-5.98-2.46-12.97.68-18.68-3.33-13.33-3.66-27.56-3.7-40.22-10.04,10.57-7.01,22.03.05,33.4-2.07,15.64-2.92,32.24-.76,48.42-.72,3.68,0,9.02-.68,9.46,3.71.61,6.07-5.36,2.83-8.38,3.84-3.41,1.14-6.87,2.14-13.01,4.04,6.57.61,10.22.95,13.87,1.28Z" fill="#f0f0f0" stroke-width="0"/><path d="M152.69,558.12c3.34-1.36,5.78-5.64,6.93,1.64,2.3,14.6,1.83,29.16.88,43.57-.53,7.99,4.16,16.58-1.8,24.13-4.96-21.38-8.45-43.17-17.43-63.44.07-1.76-3.35-1.94-1.95-4.3,3.73-.35,4.21-3.38,4.81-6.11,1.25-5.64,6.21-5.66,9.45-4.42,4.3,1.65-1.21,5.26-.88,8.94-.75,1.4-.41,1.46.2,1.06,1.4-.92-.83.46-.27-1.11.56-1.58,2.46-.24.88-.72-.55-.17-1.26.9-.81.77Z" fill="#f5f5f5" stroke-width="0"/><path d="M121.13,494.51c1.08-1.66,2.16-3.33,3.44-5.29,5.68,3.68,2.74,10.24,4.67,15.45,2.94-2.42.82-5.49,1.79-7.76,1.34-3.14-3.96-7.55,1.67-9.47,1.57-.54,4.36.25,5.62,1.45,3.41,3.25,3.96,7.06.16,10.68-1.37-1.03-2.98-1.29-3.2.68-.11,1.06.41,1.03.58-.12.17-1.16,1.57-1.08,2.62-.57,2.05,17.58,6.45,35.22-1.52,52.51-4.48-19.4-12.81-37.75-15.82-57.56Z" fill="#f7f7f7" stroke-width="0"/><path d="M55.7,188.51c.81,2.54-3.02,5.3.35,7.73-5.82,11.24-10.38,23.02-14.95,34.8-4.74-4.54-8.23-9.33-6.34-16.64.82-3.16-1.38-6.08-3.95-8.24.71-5.03,1.42-10.06,2.12-15.1.39-2.49.77-4.97,1.16-7.46,7.2,1.64,14.4,3.27,21.6,4.91Z" fill="#f0f0f0" stroke-width="0"/><path d="M80.37,366.8c9.48-.06,18.96-.12,28.44-.16,6.34-.03,13.85-1.71,9.44,9.59-1.04,2.66,1.69,6.79,2.68,10.25-9.14-1.15-16.63-6.71-25.18-9.42-3.06.58-5.3-.47-6.61-3.35-2.92-2.3-5.85-4.61-8.77-6.91Z" fill="#f2f2f2" stroke-width="0"/><path d="M42.6,331.77c1.02-.96,2.05-1.93,3.07-2.89,4.75,5.66,9.55,7.84,14.43-1.69,1.62,8.85-5.63,14.93-2,22.11-6.81-4.39-11.54-10.62-15.5-17.53Z" fill="#ececec" stroke-width="0"/><path d="M171.07,399.54c6.24.07,12.53-.38,18.58,1.72-6.12,2.87-12.33,2.18-18.56.49,0,0,0,0,0,0,0-.73,0-1.47-.01-2.2Z" fill="#262626" stroke-width="0"/><path d="M89.14,373.71c2.2,1.12,4.41,2.23,6.61,3.35-2.34,2.59-4.91,2.64-7.4.39-1.58-1.43-.88-2.78.79-3.74Z" fill="#161616" stroke-width="0"/><path d="M900.04,428.99c1.42-2.33,2.84-4.66,4.26-6.99,11.57,2.03,23.19.26,34.78.31,5.86.03,8.48,2.48,8.15,8.2-.61,10.29.76,20.64-1.1,30.88-2.25,6.18-2.89,13.09-8.12,17.93-5.07.31-4.24-7.1-10.01-7.04.73,10.25-1.41,18.24-14.21,19.24-5.94.46-5.82,7.15-6.75,12.03-1.41,7.36-2.75,14.82-13.41,9.08-4.5-2.43-5.68.88-6.14,4.73-.49,4.08.57,8.36-1.57,12.22l-.06.02c-9.24,2.97-18.81-.26-28.25,1.8-10.16,2.21-11.3,3.43-6.77,13.27-4.62,2.79-9.6,4.51-14.96,5.1-8.66-.8-17.06,2.09-25.81,1.43-7.05-.54-6.28,9.05-11.9,11.04-6.7,2.51-13.41,5.02-20.11,7.53-4.88.4-10.07.09-14.51,1.94-8.15,3.4-15.56.83-20.37-4.48-5.77-6.37-4.13-15.57-2.9-23.69.52-3.41,3-5.48,7.36-4.26,12.32,3.45,12.37,3.3,9.87-9.74-.32-1.64-.5-3.25,0-4.88.87-.82,1.89-1.36,3.05-1.62,9.51.89,18.99,1.28,28.55-.03,9.99-1.37,11.19-3.36,6.57-13.27,4.51-2.86,9.46-4.48,14.71-5.32,4.42-.44,8.99-.98,13.28-.48,11.13,1.29,17.29-2.44,17.17-14.24,3.22-2.05,6.44-4.11,9.65-6.16,8.26-.52,16.58,0,26.24-1.23-9.77-14.53,3.97-19.62,10.75-24.57,10.72-7.83,15.55-15.98,12.54-28.74Z" fill="#fefefe" stroke-width="0"/><path d="M758.07,525.16c1.33,2.59,3.01,5.06,3.92,7.78,1.64,4.92,2.42,9.79-3.6,12.78-6.33,3.14-10.71,1.42-13.19-5.65-6.09,14.39-1.98,23.98,8.8,30.18,6.04,3.47,5.5-5.1,9.89-2.69,4.23,2.32,9.9-1.83,14.17,2.2-15.53,8.33-31.96,15.09-46.62,28.68-1.32-18.61-.1-35.13-3.8-51.19-2.91-6.61,2.67-8.72,6.27-11.89,7.99-3.54,13.55-12.89,24.17-10.2Z" fill="#f3f3f3" stroke-width="0"/><path d="M735.6,537.24c-2.17,3.72-8.11,4.46-7.96,10.02-7.28,3.84-5.6,7.4-3.08,14.84,3.41,10.06-.32,22.17-.16,33.2.15,10.55,3.95,21.18,3.28,32.12-1.63,9.18-3.25,18.37-4.88,27.55-.88.88-1.76,1.75-2.65,2.63-3.97,1.91-5.55-.02-4.65-3.61,2-8.04-2.14-14.54-4.64-21.49-3.68-11.03-4.53-21.69,4.01-31.14.38,4.45.76,8.9,1.14,13.36.72-25.41,4.71-50.82-.75-76.03-2.51-11.59-2.67-11.54,7.67-12.83.23-.03.28-1.54.42-2.36,4.08,1.2,6.23-2.96,9.69-3.48,8.86,4.54,1.35,11.52,2.57,17.2Z" fill="#262525" stroke-width="0"/><path d="M885.91,529.58c-4.49-6.05-1.46-12.97-1.11-19.12.36-6.47,6.83-3.56,9.49-1.37,10.35,8.49,9.85-1.33,9.77-6.24-.2-11.04,4.42-16.33,15.29-15.74,5.01.28,4.32-2.58,5.14-5.94,1.13-4.63-3.74-12.19,3.42-13.54,7.4-1.4,7.57,6.93,10.09,11.69-13.01,21.26-29.76,38.64-52.08,50.26Z" fill="#f4f4f4" stroke-width="0"/><path d="M946.12,461.39c-4.01-11.62-2.22-23.57-2.05-34.92-13.05-3.99-27.45,6.14-39.77-4.48,6.25-11.49,16.26-15.45,28.41-12.46,12.73,3.13,17.36,13.36,18.61,25.34.78,7.46.15,14.89-2.39,22.05-.91,1.51-.09,4.1-2.81,4.47Z" fill="#f2f2f2" stroke-width="0"/><path d="M850.84,544.66c-5.3-3.12-8.2-8.46-6.9-13.79,1.82-7.48,7.64-.35,11.42-1.64,10.23-3.48,20.37-2.63,30.5.36-10.63,7.44-22.41,12.23-35.02,15.06Z" fill="#f4f4f4" stroke-width="0"/><path d="M798.17,562.23c2.06-4.97,5.14-14.44,6.03-14.24,10.54,2.37,21.55-4.02,31.67,1.77-12.24,5.15-24.74,9.52-37.71,12.47Z" fill="#efefef" stroke-width="0"/><path d="M377.16,279.04c4.55-8.96,3.3-19.3,6.78-28.52,1.45,1.13,1.63,2.67,1.39,4.34,1.63-.43-.02-1.21.12-1.9,3.3-16.61.44-35.02,14.38-48.49.61-.24,1.22-.46,1.83-.69,18.28,10.49,33.97,24.04,47.6,40.05-1.84,5.19-2.93,10.98-9.71,12.26-4.99-4.29-9.97-8.59-14.96-12.88-9.51-3.08-15.7-10.48-20.95-15.72,5.11,10-6.05,20.12-3.99,31.27-.28,2.46-.56,4.92-.84,7.38,1.04,6.19.53,12.22-1.71,18.1-.97,7.29-4.26,13.81-6.85,20.56-1.21,3.4-2.6,6.73-4.16,9.99-11.47,23.18-25.55,44.37-46.45,60.27-3.57,2.71-6.91,6.06-11.89,6.09-7.25-.99-7.4-8.86-12.01-12.44,5.42-10.16,14.29-16.52,24.09-21.86,1.5-1.67,2.99-3.34,4.49-5.01,3.58-8.56,8.47-16.1,16.39-21.33q12.06-1.04,7.42-16.65c-.3-4.67,1.71-8.84,2.86-13.2.43-1.63.97-3.23,1.56-4.81,1.03-2.61,1.92-5.33,4.63-6.8Z" fill="#222" stroke-width="0"/><path d="M383.94,138.34c-2.75-6.1-3.3-11.75-1-18.68,3.43-10.31.93-21.47,1.31-32.26.23-6.61-.96-13.51,4.47-18.84,1.82-1.79,1.21-3.73.84-5.77-.59-3.26-1.45-6.54-1.48-9.81-.13-13.38.12-26.76,3.21-39.9,1.07,4.5,2.14,9,3.21,13.5,2.21,5.3-.11,11.13,1.89,16.45,0,.88,0,1.75,0,2.63-2.36,8.7.75,17.78-1.9,26.46-.4,18.57-2.36,36.89-9.24,54.33-1.56,3.96,1.68,8.23-1.31,11.89Z" fill="#222" stroke-width="0"/><path d="M383.85,204.5c-.79-2.81-1.59-5.63-2.38-8.44-1.51-3.04-.56-6.57-1.91-9.65,1.05-9.2,2.43-18.24,12.08-22.92,6.21,12.71,4.51,27.39,10.02,40.28l-.69.49c-4.67,6.25-9.64,5.45-14.84.69-.56-.51-.12-7.56-2.27-.46Z" fill="#222" stroke-width="0"/><path d="M369.69,130.88c3.86,4.58,3.44,10.42,4.11,15.57,4.96,2.48,5.34-7.66,10.52-3.03.93,2.21,1.86,4.42,2.79,6.63.96,6.14,1.29,11.38-7.57,11.8-3.49.16-6.5,3.3-4.62,7.98-3.59,7.08-7.83,4.8-12.19.87-5.71-11.28-2.64-28.82,6.96-39.82Z" fill="#222" stroke-width="0"/><path d="M461.94,284.1c-1.75-1.7-3.5-3.4-5.25-5.1-3.88-1.73-6.37-4.53-6.91-8.86-.38-4.04,1.29-7.3,3.88-10.22.66-.78,1.39-1.49,2.16-2.16,1.15-1.01,2.48-1.69,3.97-2.05,4.78,4.66,9.31,9.51,12.18,15.66-6.98,1.38-3.66,10.88-10.03,12.73Z" fill="#272727" stroke-width="0"/><path d="M375.18,169.04c-8.24-3.4.6-6.58.48-9.99-.13-3.71,1.71-1.85,4.75-.6,6.03,2.48,5.25-4.75,6.71-8.41,2.64,4.11,4.4,8.51,4.52,13.46-4.47,7.37-8.58,14.89-10.3,23.46-7.65-4.05-5.42-11.49-6.15-17.92Z" fill="#242424" stroke-width="0"/><path d="M459.79,255.71c-.93,1.02-1.85,2.04-2.77,3.06-1.8,3.7-5.51,6.48-5.45,11.1-2.38.01-3.59-1.57-4.65-3.38-2.46-3.47-4.92-6.93-7.38-10.4,3.36-3.99,4.44-9.78,9.71-12.26,4.48,3.1,7.84,7.19,10.54,11.87Z" fill="#1e1e1e" stroke-width="0"/><path d="M394.49,72.12c.77-8.81-2.43-17.9,1.9-26.46.23,8.88,1.31,17.82-1.9,26.46Z" fill="#242424" stroke-width="0"/><path d="M399.34,5.46c-.97,1.45-2.38,2.32-3.97,1.48-2.71-1.44-3.76-3.77-3.05-6.88,4.64-.71,4.04,4.58,7.02,5.4,0,0,0,0,0,0Z" fill="#fefefe" stroke-width="0"/><path d="M396.39,43.04c-3.9-5.11-1.37-10.95-1.89-16.45,2.72,5.24,2.2,10.86,1.89,16.45Z" fill="#242424" stroke-width="0"/><path d="M900.04,428.99c6.68,6.15,2.14,14.14,3.47,21.16-6.71-2.92-2.77,11.19-12.15,7.39-2.47-1-10.54,8.54-14.9,13.76-3.41,4.07,5.75,7.68,6.11,14.18-10.75-.89-21.57,4.56-32.07-1.95,20.69-14.39,36.05-33.61,49.54-54.54Z" fill="#f2f2f2" stroke-width="0"/><path d="M735.6,537.24c-2.51-1.4-5.61-2.83-2.61-6.23,3.36-3.82,2.32-7.31.04-10.97,12.42-8.54,25.74-15.29,40.07-20.02,0,.67,0,1.34,0,2.01-.93,5.96-7.77,10.5-4.22,17.54-1.51,4.2-5.58,3.74-8.79,4.84-.84-.22-1.51.03-2,.75-7.49,4.03-14.98,8.05-22.48,12.08Z" fill="#212121" stroke-width="0"/><path d="M760.07,524.41c2.64-1.71,5.29-3.43,7.93-5.14,1.83-5.14,6.84-3.1,10.31-4.56,5.38-3.08,11.47-3.71,17.38-4.98,5.37,2.99,8.03,8.35,6.86,13.6-1.51,6.8-7.24,1.81-11.17,2.3-10.57,1.32-21.03,3.6-31.31-1.21Z" fill="#f4f4f4" stroke-width="0"/><path d="M840.85,489.69c5.2,15.47,3.98,17.43-11.37,17.35-6.45-.03-13.13,1.19-19.08-2.63,10.15-4.91,20.3-9.82,30.45-14.72Z" fill="#f3f3f3" stroke-width="0"/><path d="M778.31,514.71c-3.44,1.52-6.87,3.04-10.31,4.56-9.79-9.13-.69-12.69,5.08-17.24,3.83,1.56,9.36-4.42,11.8,1.98,2.42,6.34-5.33,4.58-7.12,7.7-.39.67.34,1.98.55,3Z" fill="#292929" stroke-width="0"/><path d="M161.29,650.01c22.5-8.76,3.21,12.19,12.57,14.1,1.87-.26-2.16-5.5,2.24-6.57v18.23c4.69-4.2.49-9.46,5.02-14.2,0,13.16-.08,24.92.05,36.68.04,3.52-.97,7.36,4.04,9.28,12.36,4.74,17.45,16.37,14.79,30.46-1.69,8.95-5.58,11.81-13.87,7.37-1.1-5.05,4.15-9.87.52-15.01-1.56-4.97-5.36-6.79-10.1-8.06-6.23-1.67-11.36-5.01-12.52-12.16-2.97-4.83-1.94-9.85-.68-14.88,1.63-15.18-2.43-30.11-2.05-45.23Z" fill="#f8f8f8" stroke-width="0"/><path d="M158.55,757.88c-4.1.4-9.42-1.53-10.14,5.31-9.8-.11-8.97-7.47-9.5-13.92,1.32-8.8,4.04-16.84,12.09-21.92,5.47.8,8.07,5.96,12.54,8.28,3.07,4.18-.06,6.88-2.37,9.73-3.62,4.45-4.48,8.44-2.62,12.52Z" fill="#f6f6f6" stroke-width="0"/><path d="M158.55,757.88c-1.83-5.45-9.47-5.17-11.03-11.51,9.76,2.85,13.66-2.86,16.03-10.74,8.39,1.24,18.83,11.42,23.11-5.29,10.2,5.36,2.79,10.11-.52,15.01-3.65,2.08-7.64,3.17-11.73,2.43-8.57-1.56-13.41,2.27-15.85,10.1Z" fill="#efefef" stroke-width="0"/><path d="M163.34,695.24c.23,4.96.46,9.92.68,14.88-4.82-4.75-3.81-9.77-.68-14.88Z" fill="#101010" stroke-width="0"/><path d="M258.89,629.64c6.35,2.76,13.54,4.53,15.15,12.86,5.38,8.4,6.25,17.63,5.05,27.25-6.29,6.35-2.82,16.91-9.91,22.92-10.58-9.51-8.21-23.87-13.62-35.52-2.89,17.46-4.81,34.68,6.77,50.17-3.95,1.27-2.64,5.49-4.05,7.59-17-15.69-12.62-36.38-11.21-55.57.56-7.72-.94-10.18-8.17-12.54v28.23c-.69,0-1.38,0-2.07,0-.29-6.04-.58-12.08-.87-18.12-1.65-11.75-9.35-19.45-17.83-26.63-.27-3.13,1.78-4.22,4.29-4.92,5.99-.85,9.82,3.11,14.24,6.48,1.26-3.61-8.21-7.81.51-10.75,7.61,1.93,15.61,2.88,21.73,8.57Z" fill="#1e1e1e" stroke-width="0"/><path d="M218.87,629.47c.96.78,1.8,1.95,2.9,2.28,12.84,3.85,16.49,12.8,14.2,25.15-2.53,8.42-2.34,17.08-2.26,25.73,1.35,1.53,1.84,2.98-.39,4.18-2.79,10.14-3.46,20.58-4.28,31-.07,10.1,2.61,20.74-5.72,29.22-.62.42-1.27.8-1.94,1.14-.04-30.12-.12-60.25-.11-90.37,0-9.75.27-18.18-14.6-14.75-6.5,1.5-4.12-7.02-4.46-11.22-.13-1.62,4.28-3.79-1.01-4.35-2.3-3.31-.54-5.7,1.82-7.95,7.59-.35,12.25,3.96,15.87,9.95Z" fill="#f4f4f4" stroke-width="0"/><path d="M262.34,707.32c-10.76-8.13-14.65-18.62-12.03-32,1.26-6.45.76-13.22,1.52-19.79.33-2.84-1.6-7.7,3.26-7.9,3.66-.16,3.05,4.23,3.77,6.87,3.47,12.72,6.89,25.45,10.33,38.18-.7,6.72,6.67,12.46,2.35,19.61-2.1.36-3.74-.31-4.8-2.21-1.47-.92-2.93-1.84-4.4-2.76Z" fill="#efefef" stroke-width="0"/><path d="M279.1,669.75c-1.68-9.08-3.37-18.17-5.05-27.25,3.81-2.06,7.64-.93,6.99,3.18-2.24,14.32,1.4,26.01,12.66,35.31,1.02.84-.26,3.39,2.09,4.17,1.12-4.45,1.13-8.84-.15-13.22-.41-1.41-4.2-3.11.17-4.03,1.29-.27,2.89.95,4.35,1.49-4.76,11.8,6,24.09-1.15,35.81h0c-1.9-2.6-5.61-2.47-7.54-5.02h-1.2s-1.2,0-1.2,0c-3.32-10.15-6.64-20.3-9.96-30.45Z" fill="#f5f5f5" stroke-width="0"/><path d="M223.31,747.03c1.91-9.74,3.81-19.48,5.72-29.22,3.42,9.51,6.83,19.01,10.25,28.52.17,2.03-.24,3.7-2.58,4.19-2.95,1.12-3.24,6.58-7.93,4.87-1.82-2.79-3.64-5.57-5.46-8.36Z" fill="#1f1f1f" stroke-width="0"/><path d="M278.67,739.76c-6.07.72-10.04-3.12-13.31-7.1-3.43-4.17-.59-5.52,3.62-5.2,9.78-1.06,13.56,2.6,9.69,12.29Z" fill="#d5d3d4" stroke-width="0"/><path d="M266.74,710.08c1.6.74,3.2,1.47,4.8,2.21,2.47,2.66,4.93,5.33,7.4,7.99h0c-5.78,3.61-10.83,2.6-14.88-2.7-2.74-3.58-.92-5.95,2.67-7.49Z" fill="#1c1a1b" stroke-width="0"/><path d="M278.67,739.76c1.18-7.57-3.37-10.63-9.69-12.29,2.28-3.84,10-.15,9.97-7.2,0,0,0,0,0,0,4.97,7.99,1.67,16.51,2.31,25.24-3.25-1.51-1.94-3.98-2.58-5.75Z" fill="#1c1a1b" stroke-width="0"/><path d="M233.31,686.81c.13-1.39.26-2.78.39-4.18,4.39,3.46,1.8,7.95,2.78,12.9-3.89-2.88-1.88-6.25-3.17-8.73Z" fill="#121212" stroke-width="0"/><path d="M369.69,130.88c-2.61,9.58-5.09,19.19-7.87,28.71-1.29,4.42-.32,8.11,2.33,11.6.48,2.12-.26,2.97-2.42,2.32-7.02-5.17-7.42-17.34-19.45-17.67-2.51-.07,1.65-15.28,5.83-16.15,10.72-2.25,3.62-4.37.2-6.66-5.65-15.48-17.57-24.8-31.35-32.55-10.26-5.77-11.07-9.44-3.61-18.56,5.69-6.94,10.77-15.08,20.61-17.26,6.99,1.57,11.84,5.39,9.19,12.99-2.51,7.2,1.19,13.41,1.29,20.1.06,4.13,1.75,6.16,5.96,6.05,4.17-.12,7.46-1.48,7.91-6.12.56-5.76,1.25-11.51,1.1-17.34-.18-7.18-2.82-11.73-10.65-12.57-3.55-.38-7.57-.59-10.07-4.05-.27-9.66,8.71-10.99,14.07-15.57,2.96-2.53,8.75-4.27,5.53-9.27-2.84-4.4-7.85-1.88-11.15.4-24.42,16.81-47.57,34.87-58.39,64.09-14.1,2.6-28.35,2.75-42.6,2.27-5.8-.19-3.73-3.96-2.45-7.06,5.52,2.97,9.99,1.84,14.42-2.66,9.25-9.44,18.89-18.5,28.36-27.71,19.13-14.54,37.27-30.52,59.06-41.24,6.28-3.09,12.74-5.84,19.12-8.74,12.05-4.5,14.53-2.46,15.09,12.39,1.87,33.95-4.02,67.12-10.05,100.28Z" fill="#f5f5f5" stroke-width="0"/><path d="M379.74,30.6c-2.52-7.19-3.6-16.13-15.09-12.39-1.08-8.87.22-9.75,7.21-7.92,8.92,2.34,10,7.66,11.15,16.05,1.92,14.07.41,27.8.59,41.68-4.19-12.25,1.29-25.31-3.85-37.43Z" fill="#212121" stroke-width="0"/><path d="M714.87,601.37c-1.34,10.38-2.67,20.76-4.01,31.14-1.69,5.06-3.38,10.11-5.07,15.17-4.4-2.04-1.98-6.1-2-8.85-.28-39.21-3.99-78.49,2.01-117.59,7.87,26.16,8.31,53.17,9.07,80.14Z" fill="#f3f3f3" stroke-width="0"/><path d="M665.5,723.36c-1.41-6.32-9.26-14.12,4.39-16.83,3.26-.65.53-2.94-.3-4.59-1.98-3.96-3.69-8.05-5.54-12.14.52-.48,1.09-1.47,1.64-1.45,16.21.37,15.81.35,17.27-15.82.69-7.58,1.9-15.05-.53-24.47,5.83,7.94,6.1,18.64,17.77,17.01-7.43,21.9-19.02,41.32-34.71,58.29Z" fill="#f5f5f5" stroke-width="0"/><path d="M642.51,747.46c.68-2.33,2.33-4.87,1.87-6.95-3.22-14.8,4.72-7.62,10.22-5.36-2.56,5.55-7.26,8.99-12.09,12.31Z" fill="#e7e7e7" stroke-width="0"/><path d="M700.67,663.39c.75-4.71-8.79-12.9,4.53-13.36-.18,4.9-1.6,9.38-4.53,13.36Z" fill="#f5f5f5" stroke-width="0"/><path d="M578.1,343.74c-10.02,6.22-21,.71-31.53,2.29-5.41.81-3.33-6.91-2.98-10.01,1.11-9.97-4.84-9.3-11.49-9.65-7.76-.41-10.03,2.7-10.06,10.17-.03,6.47,3.18,14.15-4.42,19.87-2.19-4.13,4.36-6.69,1.06-10.25-6.73,6.15-13.33,12.22,1.07,19.51-8.08-1.29-13.59-5.14-23.17-3.96,4.67-2.16,6.37-2.95,8.26-3.83-.74-.49-1.31-1.19-1.82-1.15-20.48,1.47-20.36,1.47-21.01-19.85-.14-4.69,2.69-11.04-6.79-11.56-5.85-.33,1.73-6.39-1.9-9.04-2.84,1.36-2.92,4.4-3.95,6.88-.9,2.17-2.38,3.44-4.8,2.52-2.4-.91-3.15-3.64-2.32-5.14,4.03-7.31,2.72-14.19.11-21.56-.76-2.14,1.56-5.38,2.47-8.11,11.91,14.58,19.1,31.75,26.52,48.76,2.47,5.66,5.16,11.5,12.44,8.57,7.22-2.9,5.46-9.16,3.11-14.8-4.39-10.56-8.85-21.09-13.29-31.64,14.27-.09,26.01,7.67,38.72,12.41,8.91,6.2,20.88,7.54,27.55,17.31,6.07,4.09,12.15,8.17,18.22,12.26Z" fill="#f4f4f4" stroke-width="0"/><path d="M682.74,456.95c-.39-.14-.78-.41-1.17-.41q-18.4.17-18.84-19.25c-.13-5.89.79-12.63-8.65-11.07-10.8,1.79-12.55-4.04-11.4-12.85.39-2.98,3.52-9.2-3.45-7.07-12.03,3.69-14.92-10-14.61-11.91,1.94-11.61-5-8.6-10.59-7.78-9.69,1.43-14.32-3.05-10.77-11.73,2.52-6.15.21-8.3-4.02-7.81-17.07,1.97-18.19-8.1-16.75-20.65,38.91,24.12,69.11,56.75,93.2,95.36,2.66,1.22,4.98,2.85,6.49,5.45,1.47,3.16,3.47,6.3.55,9.71Z" fill="#f4f4f4" stroke-width="0"/><path d="M559.88,331.49c-9.26-4.87-18.53-9.74-27.79-14.6.31-7.06,4.48-7.21,9.28-6.12-2.1-3.14-11.3-1.18-8.48-9.62.06-.17.63-.26.95-.22.4.05.77.27,1.15.41,11.31,4.17,22.04,9.51,32.28,15.87-2.39,3.88-4.77,7.76-7.16,11.64-.08.88-.15,1.77-.23,2.65Z" fill="#1e1e1e" stroke-width="0"/><path d="M679.13,447.24c-1.14-1.82-2.29-3.63-3.43-5.45,7.94-3.8-1.67-14.8,7.43-18.13,5.12,6.29,9.42,13.05,12.21,20.71-4.27,7.39-10.11,5.85-16.21,2.86Z" fill="#292929" stroke-width="0"/><path d="M140.98,80.82c-.83.13-1.65.26-2.48.4-5.18,4.08-10.37,8.08-17.52,4.53.02-6.26-4.52-13.38,3.43-18.14,2.92-.69,5.84-1.39,8.76-2.08,1.78.86,3.56,1.73,5.34,2.59,2.47,10.35,13.39,1.08,17.53,7.54-3.44,6.33-8.93,6.67-15.06,5.16Z" fill="#1c1c1c" stroke-width="0"/><path d="M216.18,55.84c-7.49,3.67-14.98,3.66-22.47-.02,7.49,0,14.98.01,22.47.02Z" fill="#161616" stroke-width="0"/><path d="M45.56,15.95c-6.61,2.94-13.39,3.29-20.33,1.35,6.57-3.49,13.48-2,20.33-1.35Z" fill="#111" stroke-width="0"/><path d="M534.99,301.33c-2.2,7,6.62,4.18,7.14,9.28-2.5,2.39-7.94,1.9-10.04,6.27-12.82-5.04-25.65-10.08-38.47-15.12,2.29-.38,4.71-.5,6.07-2.86h0c4.99-4.71,13.87,3.92,17.61-5.12,6.34,1.49,12.26,3.96,17.71,7.54Z" fill="#252525" stroke-width="0"/><path d="M499.68,298.91c-3.08-.46-6.26-.72-7.91-4.26,4.29-1.34,7.32-.78,7.9,4.27h0Z" fill="#252525" stroke-width="0"/><path d="M679.13,447.24c5.47-.59,11.21.37,16.21-2.86,5.31,8.66,10,17.6,12.56,27.51,1.98,4.68-1.18,7.7-3.77,4.1-4.88-6.79-6.12-.78-8.78.98-.16,1.17-.33,2.33-.49,3.5-9.05-3.14-6.62-12.22-9.58-18.51h-.01c-2.01-1.07-1.01-3.66-2.52-4.98v-.03c-1.21-3.24-2.42-6.47-3.62-9.71Z" fill="#1f1f1f" stroke-width="0"/><path d="M695.35,476.97c1.49-2.84,2.78-5.74,1.75-8.09,5.87-4.07,4.18,9.93,10.8,3.01,1.45,3.41,2.9,6.83,4.35,10.24-9.56,11.11-11.32-3.28-16.9-5.16Z" fill="#272727" stroke-width="0"/><path d="M140.98,80.82c5.02-1.72,10.04-3.44,15.06-5.16,25.86-3.43,51.75-6.04,77.84-2.54,5.99.8,11.95,1.77,19.45,2.9-4.61,5.08-8.14,8.98-11.67,12.87-3.28-4.67-8.24-3.09-12.59-3.11-25.71-.12-51.43.02-77.14-.13-4.12-.02-9.66,2.09-10.95-4.82Z" fill="#f2f2f2" stroke-width="0"/><path d="M53,36.05c8.35,4.88,16.7,9.76,25.04,14.64,8.56,8.99,21.07,13.55,27.7,24.7-5.29,6.99-13.71,9.08-20.87,13.04-6.11,3.38-9.14-1.4-11.19-6.23-3.76-8.84-8.61-17.04-14.27-24.73-8.34-11.34-10.33-11.61-21.9-3.99-5.83-.4-7.5-4.83-9.11-9.36.61-14.22,2.62-16.13,13.74-13.02,3.62,1.65,7.24,3.31,10.86,4.96Z" fill="#f3f3f3" stroke-width="0"/><path d="M42.14,31.09c-13.13-2.43-11.48,6.62-11.3,14.54,3.45,8.19,3.57,16.81,3.36,25.47-.19,4.68-.48,9.37,1.02,13.94.51,1.92.82,3.87.99,5.84.14,4.58.44,9.15,1.9,13.56.85,4.83,1.28,9.61-2.16,13.76-5.5-1.17-11.96-1.34-10.36-9.92.62-1.54,2.04-3.29,1.72-4.6-1.76-7.07-4.53-14.13-2.35-21.42,4.25-14.24-1.49-27.62-3.46-41.21-.95-6.56,7.8-10.1,3.58-16.85-.2-.33,2.72.27,4.05,1.08,3.78,2.34,7.97,1.29,11.79.69,2.52-.39,5.62-4.57,7.25-.73,1.78,4.18-3.88,3.89-6.02,5.84Z" fill="#202020" stroke-width="0"/><path d="M685.29,461.95c3.19,6.17,6.39,12.34,9.58,18.51,1.66,6.39,3.32,12.79,4.98,19.18-2.94,6.29-8.17,7.55-14.17,5.77-5.99-1.78-2.65-7-2.69-10.42-.14-11.04-1.59-22.26,2.3-33.04Z" fill="#f2f2f2" stroke-width="0"/><path d="M709.54,505.4c-2.51-2.17-4.1-3.95-2.63-6.63.19-.35,1.7-.48,2.06-.14,1.67,1.59,1.46,3.62.57,6.77Z" fill="#272727" stroke-width="0"/><path d="M138.91,749.28c2.68,4.97,2.67,11.78,9.5,13.92,3.43,2.38,6.86,4.75,10.3,7.13-6.98,5.97-15.27.2-22.65,2.53-2.81-7.99,2.28-17.92-6.6-23.73,4.19-6.13,5.66,7.21,9.45.16Z" fill="#242424" stroke-width="0"/><path d="M158.63,770.3c3.75.06,7.48.19,10.77,2.36-2.82.56-5.66,1.07-8.47,1.68-5.17,1.12-2.71-2.03-2.29-4.04Z" fill="#242424" stroke-width="0"/><path d="M194.16,784.1c-3.81,2.08-7.17,1.79-11.05.27,3.8-2.1,7.16-1.8,11.05-.27Z" fill="#252424" stroke-width="0"/><path d="M186.59,778.05c2.22.2,6.3.18,6.36.65.38,3.09-2.33,1.37-3.72,1.64-.99.19-2.13-.43-3.21-.68.19-.54.38-1.07.57-1.61Z" fill="#252424" stroke-width="0"/><path d="M120.98,85.75c5.84-1.51,11.68-3.02,17.52-4.53.42,5.08-5.85,10.89,1.66,15.19-2.83,2.46,1.99,8.43-3.68,8.96-1.77.17-7.98,4.49-6.98-3.98.5-4.25-3.44-1.62-5.04-.24-6.17,5.33-12.62,7.33-19.74,2.06-1.05-.78-2.85-1.29-2.72-.79,1.92,7.6-14,12.86-1.57,21.79-4.23.57-7.33,1.62-10.27,1.27-7.21-.86-13.56-2.42-9.8,9.19,1.12,3.46,1.8,12.06-8.5,7.43-6.36-2.86-11.18,1.15-11.15,8.91.02,3.34.2,6.71-.17,10.01-.59,5.4-4.39,5.33-8.36,4.23-4.61-1.27-6.42-4.18-3.14-8.18,3.54-4.31,5.24-8.45,1.71-13.47,2.58-4.04,5.15-8.08,7.73-12.12,1.01-4.75,3.67-8.54,6.91-12.01,10.23-8.52,19.16-18.65,31.43-24.63,4.5-2.19,8.61-5.19,13.99-4.49,3.39-1.54,6.78-3.07,10.17-4.61Z" fill="#f6f6f6" stroke-width="0"/><path d="M33.33,90.15c-.15-1.48-.31-2.97-.46-4.45-2.1-4.42.04-9.46-2-13.89,0-8.73-.02-17.45-.03-26.18,2.91,2.03,3.37,6.49,7.37,7.44.35.45.71.91,1.07,1.36,2.33,7.09-2.2,14.82,2.38,21.97-2.47-6.52-5.46-13.31,6.22-11.7,1.08.49,2.05,1.15,2.94,1.92,7.95,6.04,11.21,14.88,14.28,23.84,4.75,10.78-2.11,16.47-9.58,21.9-2.55,2.21-4.12,5.56-7.62,6.68-3.04-4.84-6.71.58-9.99-.6-.65-.09-1.31-.16-1.96-.23-.17-4.98-.34-9.97-.5-14.95-2.43-4.09.35-9.02-2.11-13.11Z" fill="#f9f9f9" stroke-width="0"/><path d="M47.46,118.15c1.97-2.16,3.94-4.33,5.91-6.49,7.17-.19,15.45-1.75,12.73,10.29-2.54,3.18-5.08,6.36-7.62,9.54-.84-1.54-2.77-3.17-3.72-1.81-9.67,13.78-12.28,2.07-16.38-4.36,3.4-1.92,5.46-5.53,9.08-7.17Z" fill="#212121" stroke-width="0"/><path d="M47.83,148.38c-3.21,6.76-6.41,13.51-9.62,20.27-8.21-5.66-4.55-15.28-7.06-22.83-.72-2.16-3.15-4.67-1.86-8.56,6.85,2.71,7.93,15.77,18.54,11.12Z" fill="#212121" stroke-width="0"/><path d="M47.46,118.15c-2.95,2.48-1.84,10.13-9.08,7.17-.16-2.29-.31-4.59-.47-6.88,4.83-1.06,3.46-5.19,3.87-8.45,5.06.78,2.71,6.27,5.68,8.17Z" fill="#e6e6e6" stroke-width="0"/><path d="M66.1,121.95c.96-9.86-9.02-6.2-12.73-10.29,5.1-5.93,14.92-9.64,9.61-20.46-1.2-3.23.13-6.45.15-9.67.07-11.31-3.83-15.18-14.33-13.41-.39-.79-.78-1.58-1.17-2.38-5.86-2.24-8.08-7.16-9.41-12.74v.07c4.55-12.29,9.67-13.72,18.06-4.67,9.12,9.84,15.88,21.26,20.3,33.88,2.07,5.9,3.94,6.7,9.34,3.13,6.13-4.07,13.19-6.74,19.84-10.02,7.52,3.02-.66,11.34,5.06,14.97-16.6,8.13-31.09,19.25-44.7,31.6Z" fill="#1f1f1f" stroke-width="0"/><path d="M559.92,795.79c4.97-1.72,9.2-5.49,14.84-5.35,2.56.87,5.11,1.73,7.67,2.6-1.65,3.39-4.18,5.89-7.56,7.54-5.43-.21-10.52-1.48-14.95-4.79Z" fill="#1c1c1c" stroke-width="0"/><path d="M206.19,767.86c-.32-6.46-7.66-12-2.14-19.67,5.16,3.03,10.71,5.2,16.77,2.15-2.27,8.02-6.52,14.38-14.63,17.52Z" fill="#efefef" stroke-width="0"/><path d="M228.77,755.39c2.62-1.65,3.85-5.57,7.93-4.87-.39.84-.31,1.64.25,2.38-.75,6.8-3.19,12.79-8.36,17.48-8.68-5.1,3.63-9.95.18-14.99Z" fill="#1e1e1e" stroke-width="0"/><path d="M288.73,103.35c-1.85-5.15-.21-9.47,2.5-14,14.02-23.43,33.95-40.59,57.03-54.47,4.81-2.89,10.26-5.14,14.13.96,4.49,7.08-1.11,10.26-6.16,13.61-6.16,4.1-12.96,7.42-17.66,13.45-.36,2.55-1.69,3.81-4.36,3.29-2.28,1.7-4.87,3.1-6.77,5.15-5.88,6.34-15.29,12.43-16.22,19.54-1.04,7.97,12.35,7.61,17.79,13.31,8.12,8.51,22,13.09,19.29,28.83-1.38.98-2.77,1.96-4.15,2.94-10.36,3.84-14.69-2.04-17.27-10.73-.78-.7-1.55-1.4-2.33-2.11-11.07-5.7-23.03-9.67-33.1-17.28-.91-.83-1.82-1.66-2.72-2.5Z" fill="#212121" stroke-width="0"/><path d="M260.83,243.49c-3.45,1.9-1.59,8.03-6.8,8.54-1.13.48-2.29.61-3.5.35-1.54-.49-3.02-1.13-4.33-2.09-9.5-6.99-9.61-8.73-1.27-19.35-.91-2.39,1.43-5.32-1.28-7.63-1.37,3.39,1.07,6.18.92,9.24-2.46,3.12-5.98,4.93-7.94,8.99-2.72,5.64-8.94,7.56-14.92,6.21-6.69-1.51-5.88-8.17-4.85-12.35,2.29-9.24-.9-16.9-4.49-24.77,3.99-11.64,14.3-12.84,24.24-14.67,18.08,4.44,27.52,15.16,29.34,33.27.56,5.56-.08,10.7-5.11,14.26Z" fill="#1e1e1e" stroke-width="0"/><path d="M387.19,303.99c2.48-6.69,4.96-13.38,7.44-20.07,9.46,2.51,3.26,9.95,4.73,14.98,3.55,2.78,2.47,5.76.17,8.54-4.56,5.51-2.14,11.75-1.9,18.42-12.35-2.42-19.54.72-16.03,15.01,1.12,4.58-7.17,7.78-2.32,13.21h0c-8.81,6.02-20,9.96-18.17,24.36.5,3.93-2.3,9.06-7.54,7.85-11.63-2.67-22.97,2.12-34.45.4-.56-6.47,4.82-5.82,8.56-7.14,21.47-13.56,36.95-32.59,49.58-54.24,2.27-3.89,4.62-7.73,6.93-11.59,2.72-2.72,4.87-5.62,3.01-9.75Z" fill="#f4f4f4" stroke-width="0"/><path d="M103.03,255.38c4.06-11.56,14.51-9.84,23.36-10.8,3.93-.43,8.06.97,12.1,1.54,2.38,1.24,4.77,2.47,7.15,3.71,2.03-.07,3.15,1.11,3.9,2.82.61,5.66,2.32,11.16,2.67,16.87-1.17,5.91-5.65,8.64-10.62,10.66-4.14,1.68-8.41,2.99-11.41,6.58-6.73,7.4-11.48-3.08-17.55-1.93-4.8-.98-8.05-3.59-9.05-8.56-.14-1.47-.27-2.94-.41-4.41-1.68-5.48-.61-10.97-.13-16.47Z" fill="#212121" stroke-width="0"/><path d="M113.1,284.52c.42-3.42,1.32-5.65,4.93-2.26,3.01,2.84,5.47,7.37,10.81,4,6.46,4.31,5.33,12.26,8.66,18.07,1.79,3.62,5.38,4.87,8.73,5.93,7.2,2.27,9.48,6.77,7.32,13.81-3.07,5.91-7.65,5.09-12.56,2.83-2.43-1.01-4.87-2.02-7.3-3.04-4.55-.89-8.81-2.19-10.29-7.38-3.22-4.44-4.94-.02-6.49,1.47-4.25,4.09-8.18,9.19-14.54,3.86-6.25-5.25-1.95-10.27,1.09-15.14,4.25-6.93,6.25-14.85,9.62-22.16Z" fill="#252525" stroke-width="0"/><path d="M494.63,461.92c3.36-1.59,6.72-3.18,10.09-4.77,4.7-1.79,7.36.24,8.74,4.66,3.39,9.12-2.79,13.94-8.52,18.97-12.28,7.38-19,20.39-29.68,29.4-5.15-4.93-11.18,3.32-16.39-1.07-1.08-.58-1.92-1.41-2.57-2.44,6.78-20.05,18.87-35.55,38.33-44.75Z" fill="#212121" stroke-width="0"/><path d="M361.36,320.78c-6.13,6.66-9.69,15.41-17.06,21.07-4.96-9.47-2.02-19.66-2.54-29.51-.35-6.74,5.64-5.5,8.94-4.89,10.14,1.89,11.48-2.71,11.24-11.45-.34-12.72-.35-25.52,2.11-38.21.95-4.92,2.32-8.67,8.4-11.42-1.13,6.77-8.09,11.54-4.55,18.34,5.72.66,2.12-6.94,6.56-7.13,4.3,6.75-2.79,14.9,2.7,21.47-.18,2.95.07,6.03-2.41,8.31-3.57-1.28-3.58-4.95-5.16-7.95.4,4.56,2.59,8.12,4.13,11.9-1.38,4.22-2.76,8.45-4.14,12.67.38,7.13-2.34,12.74-8.24,16.8Z" fill="#f4f4f4" stroke-width="0"/><path d="M494.63,461.92c-14.93,12.94-28.93,26.66-37.06,45.17,1.17,3.09-.35,5.71-1.43,8.42-4.01,5.37-2.82,14.09-10.84,16.88-6.76-14.27-3.88-28.02,2.38-41.53.47-1.01,1.87-2.44,2.66-2.34,13.09,1.72,13.76-5.61,11.88-15.49-.76-4.02,2.02-6.85,5.96-5.88,14.74,3.64,16.02-5.06,15.35-15.96-.07-1.14.25-2.3.66-5.58,4.11,6.42,7.28,11.36,10.45,16.31Z" fill="#f3f3f3" stroke-width="0"/><path d="M246.2,230.83c-11.29,10.52-.25,15.32,5.5,21.48-.31,5.6-4.93,5.19-8.57,6.13-1.43.22-2.87.45-4.3.67-14.38,5.02-26.52-.27-35.16-15.33-2.83-5.77.06-11.45.24-17.17,1.94-5.98.57-14.08,9.85-15.35,5.34,5.62,10.55,10.59,6.05,20.03-1.57,3.3-2.48,12.09,2.04,13.83,4.44,1.71,12.04-.06,13.98-6.76,1.34-4.62,5.96-3.95,7.98-6.91.61-.9,1.42-1.08,2.38-.62Z" fill="#242424" stroke-width="0"/><path d="M258.89,629.64c-7.39-1.89-15.36-2.15-21.45-7.67-4.68-.36-8.69-2.53-12.67-4.75-6.75-5.13-13.5-10.26-22.78-9.06-.43-.38-.85-.77-1.28-1.16,1.15-2.46,3.87-5.52,3.19-7.3-5.01-13.24,3.69-10.95,11.28-10.73,4.35.13,5.32.59,4.22,5.58-1.44,6.55-.37,13.27,9.29,12.9,4.55-.18,9.1-.04,13.66-.03,20.29.02,21.89,2.17,16.55,22.24Z" fill="#f5f5f5" stroke-width="0"/><path d="M260.83,243.49c5.16-23.87-1.65-36.34-24.53-44.91,7.53-10.92,15.06-3.81,22.58,0,2.75,4.72,5.86,7.86,12.27,8.08,7.41.26,14.85,14.6,9.64,18.03-5.9,3.89-3.3,6.39-1.93,9.3,4.64,9.85-.29,11.16-8.61,11.19-3.43.01-6.46-.05-9.42-1.7Z" fill="#f8f8f8" stroke-width="0"/><path d="M258.88,198.59c-7.53,2.04-15.06-6.7-22.58,0-8.83,1.89-17.89,3.35-22.54,12.67-5.29,3.83-5.85,10.69-9.85,15.35-5.73-12.05-1.39-23.59,1.84-35.16.51-1.83.9-2.05,4.92-.69,1.73.58,5.53-1.6,4.99,2.41-.2,1.46-7.18,2.35-.34,4.11,1.22.31,8.13.56,6.18-4.98-2.58-7.33,2.06-6.37,6.19-6.22,7.76.28,15.51.89,23.27,1.02,8.28.14,10.87,3.82,7.91,11.5Z" fill="#f2f2f2" stroke-width="0"/><path d="M474.39,509.54c8.3-11,15.16-23.34,28.07-30.04,1.86-1.57,4.02-2.21,6.42-2.09,2.9.43,5,2.39,7.36,3.86,1.42.82,2.53,2.01,3.64,3.2-3.29,5.77-8.47,2.23-12.53,2.01-7.45-.4-10.45.49-6.52,8.7,3.32,6.93,2.82,11.84-7.63,10.31-7.57-1.1-14.56.92-11.13,11.64,2.45,7.67-6.01,12.69-4.97,20.04h-.01c-4.54-3.11-.96-8.57-3.83-12.89-2.35,9.27-2.91,19.2-13.48,22.95-4.38-7.23,1.35-13.12,2.57-19.61,3.71-6.22,4.88-14.15,12.03-18.08Z" fill="#f3f3f3" stroke-width="0"/><path d="M327.67,379.57c-2.85,2.38-5.7,4.76-8.56,7.14-3.32,1.84-6.63,3.68-9.95,5.51-2.56,5.61-8.61,4.59-12.96,6.78l.07-.04c-2.59,5.61-8.53,3.1-12.57,5.18-5.75.13-12.94,3.48-15.19-5.24-1.44-5.58,1.19-9.44,7.44-9.95,9.5,4.81,20.47-.09,20.68-9.23,1.59-1.17,3.19-2.34,4.78-3.52,3.63-4.7,7.33-9.28,14.35-7.43,6.94.32,6.01,9.32,11.91,10.8Z" fill="#1f1f1f" stroke-width="0"/><path d="M137.5,304.33c-8.44-3.36-6.64-11.63-8.66-18.07.55-4.91,3.82-6.23,8.2-7.22,5.88-1.32,11.69-3.44,13.64-10.29-1.23-4.9-1.19-10.02-2.71-14.87-.78-1.35-1.56-2.71-2.34-4.06,3.47-5.49,9.82-3.67,13.14-2.36,5.05,2-1.69,6.87-.84,9.04,3.14,8.04.81,16.13,1.83,24,.89,6.89-1.98,6.49-6.02,4.74-11.25-4.88-13.16,1.42-13.76,10.51-.19,2.83,2.34,6.93-2.48,8.58Z" fill="#efefef" stroke-width="0"/><path d="M315.76,368.77c-4.78,2.48-9.57,4.95-14.35,7.43-2.42-3.49-7.76-.55-9.96-4.52.82-.97,1.65-1.03,2.5-.03,3.12.06,5.7-1.27,7.38-3.74,12.51-18.46,14.71-19.71,38.49-21.06-6.41,9.07-16.03,14.62-24.05,21.92Z" fill="#f3f3f3" stroke-width="0"/><path d="M291.46,105.85c12.65,2.66,24.08,7.67,33.1,17.28-9.99,6.04-20.98.17-31.27,2.63.3-7.51-10.15-4.27-10.39-9.69-.22-4.76,4.32-7.93,8.57-10.22Z" fill="#f6f6f6" stroke-width="0"/><path d="M464.92,527.93c-1.71,6.44-3.42,12.87-5.14,19.31-1.74,1.76-3.47,3.53-5.21,5.29-4.41,3.05-7.66,1.65-10.16-2.65-2.73-5.97.45-11.66.87-17.47,2.97-6.17,5.93-12.34,8.9-18.51.98.57,1.74,1.35,2.28,2.35-1.02,6.66,9.38,5.1,8.45,11.69Z" fill="#212121" stroke-width="0"/><path d="M383.85,204.5c.3-2.81.6-5.62.9-8.44,1.84,9.97,7.25,12.58,16.21,8.2-9.84,15.91-9.28,34.87-15.97,53.29-.48-3.18-.76-5.11-1.05-7.04-.03-15.34-.06-30.68-.09-46.02Z" fill="#1b1b1b" stroke-width="0"/><path d="M203.67,243.78c9.84,9.43,20.57,16.82,35.16,15.33-3.5,4.36-30.73,10.57-34.58,6.39-5.66-6.14-1.9-14.37-.59-21.72Z" fill="#efefef" stroke-width="0"/><path d="M399.64,258.76c.63-11.22,1.26-22.45,1.95-34.86,8.97,5.84,17.04,11.25,22.99,19.31-.22,4.66-2.01,3.05-5.35,2.32-10.57-2.3-18.34,1.01-19.59,13.23Z" fill="#f1f1f1" stroke-width="0"/><path d="M203.74,619.8c-.85,2.56-1.7,5.11-2.55,7.67-5.37-3.35,1.1-14.54-11.03-14.56,3.57,4.36,9.42,8.4,3.94,13.26-3.14,2.79-8.04,2.19-11.22-1.33-3.96-4.38-.12-14.86,5.87-16.14,3.93-.84,7.98-1.15,11.97-1.7,0,0,.51.45.51.45,3.24,3.63,4.34,7.7,2.51,12.36Z" fill="#f7f7f7" stroke-width="0"/><path d="M361.72,173.51c.81-.77,1.61-1.54,2.42-2.32,3.95.68,8.1,2.38,11.04-2.15,4.48,5.14,2.7,12.43,6.15,17.92.05,3.03.09,6.07.14,9.1-3.43-2.66-1.95-9.69-8.38-9.61-4.8.06-2.76,5.22-5.04,7.28-4.04-6.2-4.16-13.54-6.33-20.23Z" fill="#efefef" stroke-width="0"/><path d="M113.1,284.52c1.35,9.36.46,17.76-9.62,22.16-3.12-6.48-.61-13.69-2.63-20.31.4-3.51-1.21-7.55,2.72-10.11,3.18,2.75,6.36,5.51,9.54,8.26Z" fill="#ebebeb" stroke-width="0"/><path d="M512.48,461.94c-2.59-1.59-5.18-3.18-7.76-4.78.38-3.51-1.88-3.41-4.48-4.14-2.16-.61-7.29,4.4-6.64-2.86.53-6.02,4.43-1.43,6.41-1.73,3.08-.48,6.62-.98,9.5-.61,4.14.53,10.3-2.22,12.26,2.45,2.23,5.34-2.44,9.03-6.91,11.72-.81,1.17-1.6,1.16-2.37-.05Z" fill="#efefef" stroke-width="0"/><path d="M444.43,549.87c3.06,2.12,6.51,2.76,10.16,2.65,4.4,3.12,9.99,7.06,5.59,12.46-3.33,4.08-10.05.4-15.25.77-.6.04-1.33-1.81-2-2.78,12.57-2.98-4.85-9.4,1.5-13.1Z" fill="#f3f3f3" stroke-width="0"/><path d="M296.62,379.72c6.82,2.72,4.01,7.31.86,9.92-5.89,4.88-14.01,3.72-21.04,4.98-4.74.85,4.17-4.04-.49-5.67,6.89-3.08,13.78-6.15,20.68-9.23Z" fill="#292929" stroke-width="0"/><path d="M140.98,426.83c.08-.41.02-.98.26-1.19,6.75-5.79,31.14-7.34,37.93-2.27.43.32-.35,2.26-.57,3.45-12.54,0-25.08.01-37.62.02Z" fill="#f1f1f1" stroke-width="0"/><path d="M326.88,125.23c4.97,4.85,8.81,11.51,17.27,10.73-2.48,2.06-5.34,3.8-7.36,6.24-3.89,4.71-9.48,3.68-13.11,2.08-2.54-1.12-.12-6.2,1.7-9.56,1.44-2.65,1.06-6.29,1.49-9.49Z" fill="#ededed" stroke-width="0"/><path d="M446.92,266.49c1.55,1.13,3.1,2.25,4.65,3.38,1.71,3.04,3.42,6.09,5.13,9.13-.58,7.38-6.63,7.9-11.13,6.7-4.22-1.12-3.58-6.64-2.77-10.38.67-3.1,2.7-5.9,4.13-8.84Z" fill="#efefef" stroke-width="0"/><path d="M512.48,461.94c.79,0,1.58.01,2.37.04,2.58,7.3,11.41,13.2,5.04,22.5-1.74,0-3.47,0-5.21,0-1.33-1.96.35-6.89-4.91-4.99-2.43,0-4.86,0-7.29.01,2.92-6.1,13.53-7.81,10.01-17.57Z" fill="#ededed" stroke-width="0"/><path d="M296.21,399.01c3.76-3.33,8.26-5.24,12.96-6.78,2.21,4.42,12.53,2.12,9.94,8.79-3.57,9.17-9.61,1.79-14.67-.15-2.6-.99-5.47-1.26-8.22-1.86Z" fill="#f1f1f1" stroke-width="0"/><path d="M399.35,298.91c-2.55-.5-5.7-1.3-2.88-4.47,4.17-4.69.66-7.36-1.84-10.52,1.39-5.93,2.78-11.86,4.17-17.79,5.6,10.83,2.86,21.8.55,32.77Z" fill="#efefef" stroke-width="0"/><path d="M243.14,258.44c2.86-2.04,5.71-4.09,8.57-6.13.78-.07,1.56-.16,2.33-.27,4.91,2.43,8.81,6.61,5.39,11.5-4.37,6.24-8.43.64-12.15-2.41-1.26-1.04-2.76-1.8-4.14-2.68Z" fill="#f1f1f1" stroke-width="0"/><path d="M227.87,416.37c3.32-3.41,4.58-7.47,3.83-12.17,6.85,5.18,3.14,14.79,9.8,20.24-5.1,1.72-8.98,2.48-12.73-.13-.72-2.6,3.16-5.72-.91-7.94Z" fill="#ececec" stroke-width="0"/><path d="M422.02,253.11c6.28,1.54,12.85,1.3,13.16,9.91.11,3.18-1.77,3.46-3.9,3.11-7.04-1.15-9.51-5.69-9.26-13.02Z" fill="#f2f2f2" stroke-width="0"/><path d="M141,326.9c4.54.64,8.89.4,12.56-2.83,1.15,2.57,5.72,3.12,3.23,7.95-3.52,6.86-8.34,1.17-12.37,1.91-5.53,1.02-.41-5.45-3.42-7.03Z" fill="#f4f4f4" stroke-width="0"/><path d="M123.42,316.48c3.43,2.46,6.86,4.92,10.29,7.38-4.09,2-8.52,4.55-12.57.9-3.81-3.44,1.92-5.36,2.28-8.28Z" fill="#ebebeb" stroke-width="0"/><path d="M159.53,345.04c-5.33-1.43-10.67-2.86-16-4.29,5.91-1.68,11.74-3.13,16,4.29Z" fill="#f4f4f4" stroke-width="0"/><path d="M283.7,404.14c3.71-2.89,7.91-4.6,12.57-5.18,1.37,1.47,2.75,2.95,4.62,4.95-5.95,2.67-11.55,1.94-17.19.22Z" fill="#f1f1f1" stroke-width="0"/><path d="M419.42,655.08c-3.92-.53-9.25,1.76-10.04-5.03,1.54,5.28,13.91-11.06,10.04,5.03Z" fill="#ebebeb" stroke-width="0"/><path d="M228.78,394.25c-.72.05-1.43.1-2.14.15.45-1.48.44-3.66,1.44-4.32,3.3-2.18,6.83-5.49,10.82-.92-1.6,5.21-7.2,2.49-10.11,5.1Z" fill="#f0f0f0" stroke-width="0"/><path d="M384.29,667.59c5.5,6.75.32,11.98-2.49,17.55-.79-6.08,1.07-11.79,2.49-17.55Z" fill="#f0f0f0" stroke-width="0"/><path d="M477.11,537.18c2.41,2.25,5.17,4.68,3.54,8.21-.46.98-4.57,1.6-5.69.72-5.09-4.04,4.52-5.1,2.14-8.92,0,0,.01,0,.01,0Z" fill="#f3f3f3" stroke-width="0"/><path d="M379.27,354.09c4.81,5.41,1.14,8.35-3.07,12.14-2.26-5.68,4.16-7.82,3.08-12.15,0,0,0,0,0,0Z" fill="#f4f4f4" stroke-width="0"/><path d="M228.78,394.25c3.37-1.7,6.74-3.4,10.11-5.09,3.48,15.29-8.41.09-10.11,5.09Z" fill="#efefef" stroke-width="0"/><path d="M682.75,456.97c1.82,1.16,2.62,2.85,2.52,4.98-2.55,1.53-5.09,3.07-10.78,6.49,4.23-5.88,6.24-8.68,8.26-11.47Z" fill="#f4f4f4" stroke-width="0"/><path d="M293.94,371.65c-.83,0-1.67,0-2.5.03-3.09-.41-6.17-.83-8.06-4.27,4.75-1.11,7.8,1.19,10.56,4.23Z" fill="#ececec" stroke-width="0"/><path d="M379.35,205.57c-3.9-3.79-5.19-6.37-4.58-10.23,3.63,2.13,4.04,4.95,4.58,10.23Z" fill="#efefef" stroke-width="0"/><path d="M694.19,649.35c1.49,2.48,1.89,5.78-.2,6.49-4.15,1.41-2.94-1.73-2-3.79.45-.98,1.39-1.73,2.2-2.7Z" fill="#f5f5f5" stroke-width="0"/><path d="M482.12,790.5c2.86-3.29,6.25-3,10.36-1.48-3.48,2.7-7.09.92-10.36,1.49h0Z" fill="#f8f8f8" stroke-width="0"/><path d="M401.81,662.51c8.46,12.66,3.5,26.61,3.61,40.02.02,2.79-2.62,5.12-6.08,5.2,3.7-10.32,2.83-20.32-2.12-30.02.37-5.42-1.3-11.45,4.6-15.2Z" fill="#272727" stroke-width="0"/><path d="M605.02,750.37h14.49c-4.77-1.22-10.03,10.04-14.48,0h0Z" fill="#fefefe" stroke-width="0"/><path d="M389.65,692.61c-.14-7.3-1.35-11.29,1.09-15.53,1.5,4.75,1.81,8.96-1.09,15.53Z" fill="#f0f0f0" stroke-width="0"/><path d="M610.04,760.41c2.07-4.17,5.24-5.87,11.93-3.76-5.09,1.6-8.51,2.68-11.94,3.75,0,0,0,0,0,0Z" fill="#fefefe" stroke-width="0"/><path d="M407.95,768.33c-1.13-5.47-.51-7.32,1.52-8.45.29-.16,1.62.77,1.58.88-.65,1.85-1.45,3.66-3.09,7.57Z" fill="#fefefe" stroke-width="0"/><path d="M403.93,740.24c-3.57-3.65-1.55-8.22-2.05-12.38.69-.03,1.38-.04,2.07-.03,1.85,4.14,1.35,8.27-.01,12.41Z" fill="#131313" stroke-width="0"/><path d="M296.59,820.04c4.69-3.67,13.56-2.92,12.94-12.22,4.29,3.28,3.89,7.66,1.05,10.97-3.83,4.47-9.13,2.8-14,1.24Z" fill="#1b1b1b" stroke-width="0"/><path d="M291.68,714.72c-.06-2.33-.12-4.66-.18-6.99,7.79,2.73,5.83,7.5,2.63,12.54-1.91-1.37-1.18-3.9-2.44-5.55Z" fill="#fefefe" stroke-width="0"/><path d="M291.47,700.21c3.66-.04,7.3-.06,7.54,5.02-3.67.07-7.26,0-7.54-5.02Z" fill="#fefefe" stroke-width="0"/><path d="M291.68,714.72c.81,1.85,1.63,3.7,2.44,5.55-.16,2.5-.31,5-.47,7.5-3.68-3.89-1.8-8.63-1.97-13.05Z" fill="#252424" stroke-width="0"/><path d="M399.01,707.48v9.87c-.6.11-1.06.27-1.1.19-2.15-3.64-1.03-6.83,1.1-10.06Z" fill="#272727" stroke-width="0"/><path d="M41.1,231.04c.05-13.72,3.16-26.12,14.95-34.8.79-.03,1.55.09,2.3.35,4.08,1.27,8.17,1.15,12.27.07,9.46,3.11,13.53,10.29,14.81,19.58-1.39,4.14-1.6,8.27.13,12.38-3.11,9.9-10.24,15.62-19.81,18.46-11.24,3.34-18.66-1.63-24.64-16.05Z" fill="#222" stroke-width="0"/><path d="M103.03,255.38c2.13,5.47.5,10.97.13,16.47-3.42-5.46-3.98-10.95-.13-16.47Z" fill="#252525" stroke-width="0"/><path d="M70.62,196.66c-4.11,2.84-8.2,2.86-12.27-.07,4.1-1.56,8.2-2.35,12.27.07Z" fill="#0f0f0f" stroke-width="0"/><path d="M85.55,228.63c-3.42-4.09-3.21-8.22-.13-12.38,1.24,4.11,2.33,8.23.13,12.38Z" fill="#0f0f0f" stroke-width="0"/><path d="M126.2,235.58h-11.53c3.41-2.47,5.96-2.15,11.53,0Z" fill="#fefefe" stroke-width="0"/><path d="M163.6,414.13c4.69-4.37,9.94-1.41,15.04-.63l-10.61,1.08c-1.48-.15-2.95-.3-4.43-.45Z" fill="#111" stroke-width="0"/><path d="M171.09,401.75c6.19-.16,12.38-.33,18.56-.49,7.71,0,15.43.01,23.14.02,3.31,1.02,9.52-.5,8.94,4.27-.73,5.99-6.01,2.04-9.11,1.29-13.67-3.3-28.08-.3-41.53-5.09Z" fill="#242424" stroke-width="0"/><path d="M151.58,564.98c-.76-2.6-1.53-5.2-2.29-7.79,1.03-.12,2.44-.72,3.02-.27,2.74,2.17.84,5-.73,8.06Z" fill="#fefefe" stroke-width="0"/><path d="M138.47,499.56c-1.17,1.61-2.33,3.22-3.78,5.22-1.48-4.19-3.4-8.88,1.46-11.02,2.38-1.05,1.92,3.57,2.32,5.8h0Z" fill="#fefefe" stroke-width="0"/><path d="M361.36,320.78c1.03-6.44,5.58-11.16,8.24-16.8,5.14,1.81,1.5,8.93,6.55,10.79-1.44,2.98-2.14,7.02-4.51,8.69-3.49,2.45-7.16-.38-10.27-2.68Z" fill="#1b1b1b" stroke-width="0"/><path d="M373.73,291.31q-7.59-7.26-2.73-15.77c1.32,4.15,2.54,7.99,3.75,11.82-.34,1.32-.68,2.63-1.02,3.95Z" fill="#fefefe" stroke-width="0"/><path d="M387.19,303.99c3.49,4.64,2.18,7.79-3.01,9.75,1-3.25,2.01-6.5,3.01-9.75Z" fill="#fefefe" stroke-width="0"/><path d="M457.02,258.77c-3.23-.37-6.35-.87-6.65-5.68,3.77.41,5.17,3.09,6.64,5.68,0,0,0,0,0,0Z" fill="#2b2b2b" stroke-width="0"/><path d="M203.74,619.8c-2.8-3.72-3.52-7.86-2.51-12.36,12.16-9.47,17.1,3.82,24.96,7.91.82,2.13.19,4.73-1.43,5.26-5.43,1.8-.91,4.55-1.02,6.81-1.63.68-3.25,1.36-4.88,2.04-5.04-3.22-10.09-6.45-15.13-9.67Z" fill="#262626" stroke-width="0"/><path d="M223.74,627.43c-7.34-5.68,1.13-8.15,2.45-12.07,3.75,2.2,7.5,4.4,11.25,6.61-3.66,6.33,6.45,8.63,3.78,14.67-7.27.34-10.09-8.96-17.48-9.2Z" fill="#262626" stroke-width="0"/><path d="M334.21,66.19c1.45-1.1,2.91-2.19,4.36-3.29,2.81.57,5.59,1.25,8.42,1.69,14.81,2.3,17.64,6.23,15.66,21.89-.31,2.46-.78,4.91-.91,7.38-.64,12.12-5.61,15.7-17.64,13.06-1.89-.41-3.99-1.52-3.36-2.48,5.3-8.14-5.95-15.71-.1-24.53,3.36-5.06-.21-11-6.44-13.73Z" fill="#fefefe" stroke-width="0"/><path d="M135.86,67.76c-3.8,5.77-7.14,6.48-12.3,7.65,2.57-5.8,6.76-5.22,12.3-7.65Z" fill="#232323" stroke-width="0"/><path d="M30.87,71.81c2.31,4.39,2.22,9.13,2,13.89-3.93-4.16-1.79-9.2-2-13.89Z" fill="#262626" stroke-width="0"/><path d="M33.33,90.15c2.21,4.13,2.57,8.55,2.11,13.11-3.9-3.86-1.94-8.66-2.11-13.11Z" fill="#262626" stroke-width="0"/><path d="M48.8,68.13c4.72-1.81,11.81-5.12,14.06-2.47,2.63,3.09,6,8.82,3.2,15.09-1.38,3.1-1.31,7.15-3.08,10.46-4.77-7.67-6.59-17.15-14.19-23.08Z" fill="#272727" stroke-width="0"/><path d="M38.21,53.01c2.89,4.43,7.92,7.28,9.41,12.74-.38,2.47-14.41-.96-2.81,7.09,4.54,3.15,1.78,7.96-3.26,12.06-4.64-10.76-5.42-21.13-3.34-31.89Z" fill="#efefef" stroke-width="0"/><path d="M246.2,230.83c-.84.01-1.64.22-2.38.62-1.62-1.19-3.93-2.03-4.71-3.63-1.75-3.55-1.44-7.37,1.79-10.12.99-.85,3.29-1.29,4.36-.72,3.87,2.04,4.47,5.66,3.28,9.56-.46,1.53-1.54,2.87-2.34,4.29Z" fill="#ececec" stroke-width="0"/><path d="M129.25,269.52c-5.03.6-8.6,8.11-13.93,3.72-1.55-1.28-1.48-7.87,0-8.91,5.61-3.89,9.1,2.41,13.92,5.19Z" fill="#252525" stroke-width="0"/><path d="M131.2,256.82c2.21.15,4.73,1.28,4.61,3.15-.17,2.7-2.94,3.46-5.55,3.37-2.21-.08-4.71-1.23-4.6-3.14.16-2.73,2.95-3.41,5.53-3.39Z" fill="#f6f6f6" stroke-width="0"/><path d="M147.97,253.88c4.35,4.33,4.8,9.37,2.71,14.87-2.3-4.7-4.43-9.43-2.71-14.87Z" fill="#141414" stroke-width="0"/><path d="M464.92,527.93c-3.41-3.63-12.79-1.49-10.38-10.75,5.74-1.36,1.26-7.69,4.9-10.08,4.48,3.93,10.95-4.39,14.96,2.44-3.16,6.13-6.31,12.25-9.47,18.38Z" fill="#292929" stroke-width="0"/><path d="M459.44,507.1c.04,3.24.48,6.54.03,9.72-.95,6.77-3.27.06-4.93.35-.12-1.1-.23-2.19-.35-3.29,1.12-2.26,2.25-4.53,3.37-6.79.62,0,1.25,0,1.87,0Z" fill="#1e1e1e" stroke-width="0"/><path d="M509.76,479.5c1.16-2.06,2.81-2.48,4.7-1.13,2.65,1.89.93,4.05.21,6.12-1.64-1.66-3.27-3.33-4.91-4.99Z" fill="#fefefe" stroke-width="0"/><path d="M74.42,215.06c-.47,4.26-1.7,7.81-5.59,7.63-4.41-.2-6.03-3.96-5.6-7.97.36-3.33,1.75-6.7,6.06-6.08,3.87.55,5.06,3.61,5.14,6.42Z" fill="#e4e4e4" stroke-width="0"/></g></svg>