<?xml version="1.0" encoding="UTF-8"?><svg id="b" xmlns="http://www.w3.org/2000/svg" viewBox="0 0 1093.89 2641.47"><g id="c"><path d="M.48,2641.47C.48,1760.98.56,880.49,0,0" fill="#fff" stroke-width="0"/><path d="M175.1,1021.53c-1.53,51.91,4.5,101.31,15.56,150.27,51.97,230.02,195.96,377.34,412.26,459.68,26.84,10.22,54.69,15.53,83.58,12.72,22.07-2.14,39.86-12.08,49.49-32.44,9.67-20.45-1.46-36.86-14.18-51.48-10.72-12.32-23.1-23.16-34.29-35.09-3.45-3.68-12.03-6.31-5.17-14.24,11.06-12.77,44.16-14.8,57.84-3.34,45.47,38.08,93.99,70.25,154.7,77.75,68.78,8.5,128.25-6.88,170.29-67.05,40.93-58.59,34.03-118.2,4.76-178.51-4.97-10.25-12.06-18.86-21.24-25.64-14.04-10.38-28.41-10.83-43.26-1.49-14.56,9.16-18.09,22.22-13.78,38.03,3.62,13.29,7.85,26.41,11.44,39.7,14.33,52.99-20.39,99.38-75.25,100.99-36.11,1.06-67.27-12.98-96.55-31.95-39.18-25.38-39.81-29.89-22.15-72.39,5.1-12.27,10.21-14.62,20.24-6.12,15.22,12.9,32.18,23.29,50.12,31.68,22.52,10.54,46.53,17.76,67.93-.96,22.19-19.41,19.07-45.08,10.35-69.49-14.72-41.2-41.45-75.03-69.34-108.03-48.36-57.22-107.78-104.39-150.75-166.47-3.82-5.52-11.11-11.05-8.36-17.84,3.46-8.56,12.19-2.57,18.45-2.71,23.13-.51,43.27-6.38,51.76-30.48,8.44-23.95,4.43-45.78-14.95-63.69-27.24-25.18-59.92-33.48-95.62-28.4-34.01,4.84-23.83-24.78-31.67-39.4-8.56-15.96,5.07-19.44,17.26-23.96,10.01-3.71,30.65,1.29,27.3-15.59-3.54-17.82-21.29-6.08-33.04-6.02-.85,0-1.7.49-2.54.44-6.2-.37-15.56,7.21-17.71-.65-1.85-6.79,9.63-7.67,15.44-10.59,9.94-4.99,30.3-3.05,26.08-17.94-4.81-16.98-21.71-4.01-33.43-2.84-1.68.17-3.45.7-4.91,1.54-12.81,7.36-18.05,1.8-25.64-9.89-20.1-30.93-36.6-61.37-24.65-100.07,2.42-7.84.89-17.21-.09-25.72-3.08-26.64-17.86-35.59-43.45-26.47-24.26,8.65-42.31,26.05-59.94,43.87-6.7,6.77-12.87,14.27-23.78,13.39-23.13-1.85-46.29-3.45-69.37-5.74-12.17-1.21-13.84-11.06-15.13-20.84-2.27-17.22-6.85-33.86-14.97-49.21-14.6-27.61-34.79-31.95-58.69-12.41-7.93,6.49-15.05,14.23-21.5,22.24-41.54,51.61-72.39,109.2-90.78,172.74-6.64,22.93-13.65,38.16-41.29,30.02-6.1-1.8-13.64.53-20.35,1.82-5.24,1.01-10.02,4.11-10.02,10.17,0,6.35,5.05,8.33,10.46,9.15,10.2,1.54,20.41,3.01,30.62,4.49,6.91,1,14.53,1.22,12.95,11.64-1.22,8.03-6.16,11.87-14.02,12.57-11.14,1-22.35,1.62-33.36,3.41-6.74,1.1-14.26,3.65-13.18,12.8,1,8.37,7.76,10.77,15.14,11,5.15.16,10.59.52,15.43-.87,21.88-6.29,26.02,5.14,23.53,23.09-3.8,27.37-5.77,54.83-4.6,80.79Z" fill="#fff" stroke-width="0"/><path d="M175.1,1021.53c-1.17-25.96.8-53.42,4.6-80.79,2.49-17.95-1.65-29.38-23.53-23.09-4.83,1.39-10.28,1.02-15.43.87-7.38-.22-14.15-2.62-15.14-11-1.09-9.15,6.43-11.7,13.18-12.8,11.01-1.8,22.22-2.41,33.36-3.41,7.87-.71,12.8-4.55,14.02-12.57,1.58-10.42-6.04-10.64-12.95-11.64-10.21-1.48-20.42-2.95-30.62-4.49-5.41-.82-10.47-2.8-10.46-9.15,0-6.05,4.78-9.16,10.02-10.17,6.71-1.29,14.25-3.62,20.35-1.82,27.64,8.14,34.65-7.09,41.29-30.02,18.39-63.54,49.24-121.13,90.78-172.74,6.45-8.01,13.56-15.76,21.5-22.24,23.9-19.54,44.1-15.2,58.69,12.41,8.11,15.35,12.7,31.99,14.97,49.21,1.29,9.78,2.96,19.63,15.13,20.84,23.09,2.29,46.24,3.89,69.37,5.74,10.91.87,17.08-6.62,23.78-13.39,17.63-17.82,35.67-35.22,59.94-43.87,25.59-9.13,40.37-.18,43.45,26.47.98,8.52,2.51,17.89.09,25.72-11.96,38.7,4.55,69.15,24.65,100.07,7.6,11.69,12.83,17.25,25.64,9.89,1.46-.84,3.23-1.37,4.91-1.54,11.71-1.17,28.61-14.14,33.43,2.84,4.22,14.89-16.14,12.95-26.08,17.94-5.82,2.92-17.3,3.8-15.44,10.59,2.15,7.86,11.51.29,17.71.65.83.05,1.69-.44,2.54-.44,11.75-.06,29.5-11.8,33.04,6.02,3.35,16.88-17.28,11.87-27.3,15.59-12.18,4.52-25.81,8-17.26,23.96,7.84,14.62-2.34,44.24,31.67,39.4,35.7-5.08,68.37,3.22,95.62,28.4,19.37,17.91,23.39,39.74,14.95,63.69-8.49,24.09-28.63,29.97-51.76,30.48-6.27.14-14.99-5.85-18.45,2.71-2.75,6.8,4.54,12.32,8.36,17.84,42.97,62.07,102.39,109.25,150.75,166.47,27.89,33,54.62,66.83,69.34,108.03,8.72,24.41,11.84,50.08-10.35,69.49-21.4,18.72-45.41,11.5-67.93.96-17.94-8.4-34.9-18.79-50.12-31.68-10.03-8.5-15.14-6.14-20.24,6.12-17.66,42.5-17.03,47.01,22.15,72.39,29.27,18.97,60.43,33.01,96.55,31.95,54.86-1.61,89.59-48,75.25-100.99-3.6-13.29-7.82-26.41-11.44-39.7-4.31-15.8-.78-28.86,13.78-38.03,14.85-9.34,29.22-8.89,43.26,1.49,9.17,6.78,16.26,15.39,21.24,25.64,29.27,60.31,36.17,119.91-4.76,178.51-42.03,60.18-101.51,75.56-170.29,67.05-60.71-7.51-109.23-39.67-154.7-77.75-13.68-11.46-46.78-9.43-57.84,3.34-6.86,7.93,1.72,10.56,5.17,14.24,11.19,11.93,23.58,22.77,34.29,35.09,12.72,14.62,23.85,31.03,14.18,51.48-9.63,20.36-27.42,30.29-49.49,32.44-28.89,2.81-56.74-2.5-83.58-12.72-216.3-82.34-360.29-229.67-412.26-459.68-11.06-48.96-17.09-98.36-15.56-150.27ZM197.46,1023.71c-3.31,92.63,17.66,178.79,52.19,261.18,69.02,164.68,197.97,264.83,360.85,326.35,20.95,7.91,42.95,12.26,65.76,11.29,16.08-.69,32.43-2.02,38.96-19.23,5.97-15.73-6.55-26.17-16.45-35.1-28.98-26.16-52.48-56.98-76.67-87.23-5.99-7.49-17.62-17.51-6.11-26.24,10.79-8.19,15.37,6.46,20.83,13.01,24.48,29.32,25.96,30.32,59.81,13.76,65.45-32.04,99.08-85.36,103.34-157.77.42-7.12-3.15-17.82,8.81-17.68,10.79.13,9.24,10.39,9.93,17.86.79,8.43-2,18.27,5.41,24.47,25.74,21.52,51.13,44.35,85.77,50.22,20.2,3.42,31.26-6.25,30.88-27.39-.36-19.66-8.41-36.76-18.28-53.12-32.79-54.36-75.57-100.49-121.32-143.74-83.16-78.59-137.14-173.64-165.95-283.95-8.91-34.12-15.75-70.68-38.02-98.21-21.36-26.4-25.22-52.58-18.09-83.19.78-3.33.85-6.84,1.21-10.27,1.08-10.18,5.04-22.35-4.91-28.85-11.41-7.45-24.67,1.54-29.6,8.95-35.57,53.44-87.04,50.77-140.61,43.02-3.36-.49-6.92-.23-10.32.2-14.92,1.87-21.81-4.16-23.7-19.58-2.08-17-5.82-34.03-10.97-50.37-9.29-29.49-19.17-31.99-40.28-9.03-48.82,53.1-78.39,116.87-98.87,185.28-2.23,7.45-3.99,15.26,2.63,21.81,9.93,9.83,9.34,17.09-4.16,23.42-9.63,4.52-14.5,9.57.06,16.65,14.64,7.12,12.45,16.43-3.07,19.34-11.68,2.19-13.06,9.35-13.7,18.31-2.32,32.63-7.86,65.07-5.36,95.84ZM1029.58,1417.83c-.33,57.7-57.77,102.74-120.85,94.98-44.4-5.46-81.72-25.26-114.41-55.12-5.68-5.19-9.59-15.23-21.13-9.21-29.46,15.37-31.61,33.58-5.85,53.79,4.07,3.19,8,6.55,12.14,9.65,55.12,41.34,115.55,66.41,185.39,51.05,92.81-20.41,142.16-125.89,82.83-218.78-6.15-9.63-15.05-19.56-27.46-13.77-14.08,6.57-6.65,19.56-3.76,29.73,5.4,19.02,13.6,37.33,13.1,57.68ZM749.44,1025.46c12.86.63,24.83-1.45,29.35-15.47,5.49-17.04,2.3-33.29-11.9-44.52-20.42-16.14-44.74-21.41-70.45-19.33-7.92.64-14.93,3.25-14.69,14.06.79,34.78,32.39,65.53,67.69,65.26Z" stroke-width="0"/><path d="M197.46,1023.71c-2.5-30.76,3.04-63.21,5.36-95.84.64-8.97,2.02-16.13,13.7-18.31,15.52-2.9,17.71-12.22,3.07-19.34-14.56-7.09-9.7-12.13-.06-16.65,13.49-6.33,14.09-13.59,4.16-23.42-6.62-6.55-4.86-14.36-2.63-21.81,20.49-68.41,50.05-132.18,98.87-185.28,21.11-22.97,31-20.46,40.28,9.03,5.15,16.34,8.89,33.37,10.97,50.37,1.88,15.42,8.78,21.45,23.7,19.58,3.4-.43,6.95-.68,10.32-.2,53.57,7.74,105.03,10.41,140.61-43.02,4.93-7.4,18.2-16.39,29.6-8.95,9.96,6.5,5.99,18.67,4.91,28.85-.36,3.43-.43,6.93-1.21,10.27-7.13,30.62-3.26,56.79,18.09,83.19,22.27,27.54,29.11,64.09,38.02,98.21,28.81,110.32,82.8,205.36,165.95,283.95,45.76,43.24,88.53,89.38,121.32,143.74,9.87,16.36,17.91,33.46,18.28,53.12.39,21.14-10.68,30.81-30.88,27.39-34.64-5.87-60.03-28.7-85.77-50.22-7.42-6.2-4.62-16.04-5.41-24.47-.7-7.46.85-17.73-9.93-17.86-11.95-.14-8.39,10.56-8.81,17.68-4.26,72.41-37.89,125.73-103.34,157.77-33.84,16.57-35.33,15.56-59.81-13.76-5.47-6.55-10.04-21.2-20.83-13.01-11.5,8.73.12,18.74,6.11,26.24,24.18,30.25,47.69,61.07,76.67,87.23,9.9,8.93,22.42,19.37,16.45,35.1-6.53,17.21-22.88,18.55-38.96,19.23-22.81.97-44.81-3.37-65.76-11.29-162.88-61.52-291.83-161.67-360.85-326.35-34.53-82.39-55.5-168.55-52.19-261.18ZM463.61,980.55c28.46-1.19,50.5,10.05,64.1,35.17,6.87,12.68,9,27.16-2.74,38.28-11.17,10.56-24.61,15.02-40.26,7.59-11.95-5.67-21.28-14.45-31.19-22.69-4.82-4.01-10.46-7.47-15.94-1.73-5.28,5.53-3.11,12.15,2.12,15.73,14.87,10.19,11.07,23.16,7.3,36.76-1.59,5.74-2.76,11.91-2.44,17.79.51,9.33.96,21.67,13.1,21.68,12.88.01,8.99-12.39,8.69-20.15-.8-20.96,5.38-27.75,28.81-24.79,43.24,5.45,71.07-36.44,51.83-75.51-14.7-29.84-39.44-47.6-73.14-50.08-62.34-4.6-116.08,36.39-130.93,101.03-3.26,14.19-16.02,37.99,4.22,42.47,18.28,4.05,12.02-22.2,15.18-34.53,13.55-52.79,52.28-87.27,101.28-87.01ZM388.7,849.69c-3.87-16.94-12.59-29.6-31.24-27.94-18.37,1.64-26.95,14.88-25.46,32.4,1.47,17.43,12.11,29.73,30.33,27.87,17.49-1.79,26.14-14.64,26.37-32.33ZM571.03,851.98c-.97-18.67-9.39-31.16-27.77-31.12-16.85.04-26.32,11.42-26.96,28.27-.68,17.91,8.62,31.02,26.2,31.88,18.08.89,26.56-12.55,28.53-29.03ZM465.2,861.4c-11.73,1.25-24.15,3.9-23.55,18.22.54,12.89,11.85,15.18,23.21,14.45,11.4-.72,25.12-.89,25.11-15.72,0-14.07-13.03-16.14-24.77-16.96Z" fill="#fff" stroke-width="0"/><path d="M1029.55,1417.84c.53-20.35-7.68-38.66-13.08-57.68-2.89-10.17-10.32-23.16,3.76-29.73,12.41-5.79,21.31,4.14,27.46,13.77,59.33,92.89,9.98,198.37-82.83,218.78-69.84,15.36-130.27-9.72-185.39-51.05-4.13-3.1-8.07-6.46-12.14-9.65-25.76-20.2-23.61-38.42,5.85-53.79,11.54-6.02,15.45,4.02,21.13,9.21,32.69,29.86,70,49.66,114.41,55.12,63.08,7.76,120.52-37.29,120.82-94.98Z" fill="#fff" stroke-width="0"/><path d="M749.46,1025.49c-35.31.24-66.92-30.51-67.71-65.29-.24-10.8,6.77-13.42,14.69-14.06,25.71-2.08,50.04,3.19,70.45,19.33,14.2,11.23,17.39,27.48,11.9,44.52-4.52,14.02-16.49,16.11-29.34,15.5Z" fill="#fff" stroke-width="0"/><path d="M463.63,980.52c-49.01-.24-87.75,34.25-101.3,87.04-3.17,12.34,3.09,38.58-15.18,34.53-20.25-4.48-7.48-28.28-4.22-42.47,14.85-64.65,68.59-105.63,130.93-101.03,33.7,2.48,58.44,20.24,73.14,50.08,19.24,39.07-8.58,80.97-51.83,75.51-23.43-2.95-29.62,3.83-28.81,24.79.3,7.77,4.19,20.16-8.69,20.15-12.13,0-12.59-12.35-13.1-21.68-.32-5.88.84-12.05,2.44-17.79,3.77-13.6,7.57-26.58-7.3-36.76-5.23-3.58-7.4-10.19-2.12-15.73,5.48-5.74,11.12-2.28,15.94,1.73,9.91,8.24,19.24,17.01,31.19,22.69,15.65,7.43,29.1,2.97,40.26-7.59,11.75-11.11,9.61-25.59,2.74-38.28-13.6-25.12-35.64-36.36-64.09-35.2Z" stroke-width="0"/><path d="M388.7,849.69c-.24,17.7-8.88,30.55-26.37,32.33-18.22,1.86-28.85-10.44-30.33-27.87-1.48-17.52,7.1-30.76,25.46-32.4,18.64-1.66,27.37,10.99,31.24,27.94Z" stroke-width="0"/><path d="M571.03,851.98c-1.97,16.48-10.45,29.91-28.53,29.03-17.58-.86-26.88-13.98-26.2-31.88.64-16.85,10.11-28.23,26.96-28.27,18.39-.04,26.8,12.45,27.77,31.12Z" stroke-width="0"/><path d="M465.2,861.4c11.75.82,24.77,2.89,24.77,16.96,0,14.82-13.71,14.99-25.11,15.72-11.36.72-22.68-1.57-23.21-14.45-.6-14.32,11.83-16.98,23.55-18.22Z" stroke-width="0"/><path d="M189.23,908.09c-.86,50.88-4.87,101.94-1.97,152.61,7.34,127.97,46.27,244.81,122.86,349.76,72.23,98.98,173.11,156.33,280.13,205.96,30.25,14.03,63.86,17.84,98.01,16.64,20.54-.72,32.09-13.75,40.36-27.05,7.15-11.5-3.09-26.1-12.21-35.33-28.8-29.12-57.8-57.97-82.46-90.82-5.18-6.89-10.34-13.8-15.51-20.7" fill="none" stroke="#000" stroke-linecap="round" stroke-linejoin="round" stroke-width="10.35"/><path d="M727.02,1479.84c51.58,50.36,107.61,90.66,183.53,96.26,66.02,4.87,117.1-16.48,152.58-72.98,33.01-52.58,21.9-105.25-.17-157.73-2.06-4.9-6.52-8.88-10.19-12.98-10.42-11.62-21.59-20.66-38.78-13.05-19.94,8.83-12.2,24.97-9.93,38.82,1.47,8.95,6.82,17.2,9.92,25.95,26.37,74.44-48.52,133.2-113.86,116.97-48.11-11.95-87.54-35.07-118.79-73.01" fill="none" stroke="#000" stroke-linecap="round" stroke-linejoin="round" stroke-width="10.35"/><path d="M196.99,897.74c13.87-101.73,50.94-193.21,121.81-268.8,21.59-23.02,37.44-17.77,48.87,12.66,3.27,8.69,8.07,16.98,10.11,25.93,10,43.88,9.76,43.78,51.91,44.04,11.36.07,22.3.37,33.92,4.1,11.38,3.65,25.25,3.73,36.29-9.02,17.33-20.02,35.81-39.72,61.67-49.44,15.08-5.68,25.13-5.09,29.09,15.33,4.19,21.61-2.47,41.55-3.84,62.18-.59,8.86-5.2,18.78.86,25.67,37.39,42.45,49.09,95.7,64.52,147.66,29.32,98.78,80.09,184.52,154.69,256.47,46.33,44.68,91.37,90.94,124.48,147.12,10.94,18.57,21.02,37,20.71,59.56-.45,32.92-20.81,46.35-54.45,36.35-33.12-9.84-58-32.89-85.02-52.25-14.03-10.05,1.88-25.76-2.85-38.44" fill="none" stroke="#000" stroke-linecap="round" stroke-linejoin="round" stroke-width="10.35"/><path d="M442.61,1040.03c12.85,10.45,21.91,24.41,38.5,31.7,23.32,10.25,40.4,1.8,54.16-13.96,15.76-18.05,9.56-39.52-2.58-56.24-29.54-40.67-91.67-42.43-133.93-10.53-34.05,25.7-48.19,62.05-51.81,103.36" fill="none" stroke="#000" stroke-linecap="round" stroke-linejoin="round" stroke-width="10.35"/><path d="M711.51,1034.85c6.89,0,13.92-.85,20.66.15,22.91,3.41,45.81,7.47,56.88-20.86,10.02-25.63-.11-47.82-28.37-64.74-29.07-17.41-59.03-20.79-90.54-7.68" fill="none" stroke="#000" stroke-linecap="round" stroke-linejoin="round" stroke-width="10.35"/><path d="M809.76,1358.25c-22.05,75.35-72,123.74-144.79,150.05" fill="none" stroke="#000" stroke-linecap="round" stroke-linejoin="round" stroke-width="10.35"/><path d="M230.6,861.52c-31.36,1.4-61.21-15.25-93.08-7.76" fill="none" stroke="#000" stroke-linecap="round" stroke-linejoin="round" stroke-width="10.35"/><path d="M217.67,900.32c-28.44,1.72-56.88,3.45-85.32,5.17" fill="none" stroke="#000" stroke-linecap="round" stroke-linejoin="round" stroke-width="10.35"/><path d="M685.65,812.36c-18.7,1.86-35.46,9.27-51.71,18.11" fill="none" stroke="#000" stroke-linecap="round" stroke-linejoin="round" stroke-width="10.35"/><path d="M465.88,1071.07c-10.67,16.03-13.62,33.23-7.76,51.74" fill="none" stroke="#000" stroke-linecap="round" stroke-linejoin="round" stroke-width="10.35"/><path d="M693.41,845.99c-16.53,3.71-33.64,5.25-49.13,12.94" fill="none" stroke="#000" stroke-linecap="round" stroke-linejoin="round" stroke-width="10.35"/><path d="M356,833.06c1.29,6.9,2.59,13.8,3.88,20.7" fill="none" stroke="#000" stroke-linecap="round" stroke-linejoin="round" stroke-width="10.35"/></g></svg>