<?xml version="1.0" encoding="UTF-8"?><svg id="b" xmlns="http://www.w3.org/2000/svg" viewBox="0 0 1073.86 1044.59"><g id="c"><path d="M801.58,810.12c-19.52-4.89-25.44,8.27-34.13,22.26-45.56,73.35-111.33,119.47-188.46,159.66-144.42,75.27-295.06,29.45-442.4,36.21-36.9,1.69-75.84-34.5-119.71-37.56-9.91-.69-18.65-12.46-16.58-24.99,2.61-15.82,15.48-24.1,29.16-26.86,34.71-7.02,69.87-11.82,109.4-18.25-29.58-45.38-69.29-81.73-66.49-137.63,2.78-55.39,4.32-110.84,7.69-166.18.97-15.9-3.06-39.67,19.91-41.37,20.62-1.53,38.13,10.7,40.17,35.41-27,.69-37.3,13.88-35.56,41.22,2.27,35.76-1.48,71.38-6.26,107.11-7.72,57.68,45.11,144.39,98.87,168.8,16.89,7.67,33.82,7.3,49.99.91,65.43-25.85,110.83-70.98,120.79-142.37,5.97-42.79,4.18-86.67,16.78-124.18-4.6-8.14-8.3-10.93-10.45-9.16-57.28,47.05-125.51,21.62-188.69,27.4-29.76,2.72-48.06-29.72-46.16-70.47,38.09,67.7,105.46,36.87,160.45,47.79,14.53,2.89,23.09-7.05,32.94-14.22,22.18-16.15,41.3-37.33,74.22-29.99,11.98,2.68,21.2-11.3,29.79-20.34,70.5-74.08,140.56-148.6,217.49-216.13-6.92-13.61-19.85-10.25-29.36-13.36-95.88-31.39-131.11-73.59-130.13-157.54,1.09-93.01,56-170.9,139.08-195,43.87-12.73,88.31-22.37,126.34,15.64-2.02,4.78-5.57,7.72-10.61,8.85-39.92-6.01-79-12.46-118.82,5.57-66.34,30.03-110.14,92.93-110.54,165.24-.3,54.65,29,98.8,80.37,120.78,28.81,12.33,59.75,17.77,89.43,27.31,10.24,3.29,21.86,6.72,23.2,19.96,1.4,13.88-9.98,18.32-19.94,22.47-79.68,33.19-128.15,102.3-185.3,161.27-12.95,13.36-22.21,31.1-37.48,41.55-47.04,32.2-54.88,80.04-56.61,131.27-5.05,148.77-80.26,231.19-225.68,247.68-16.74,1.9-33.49,3.64-51.31,17.27,24.14,15.47,47.75,16.06,69.62,12.64,85.39-13.36,173.18,4.35,256.37-10.9,119.74-21.94,226.22-76.02,285.27-193.39,10.3-20.47,10.65-41.88,3.87-63.74-4.17-13.45-6.98-27.34-3.04-41.44,2.64-9.46,7.2-17.72,18.86-16.74,9.33.79,13.61,8.36,14.03,16.12,2.96,55.7,43.35,74.81,87.27,91.28,23.38,8.77,45.22,21.08,67.54,32.21,60.69,30.26,81.61,74.08,71.74,140.06-3.05,20.38-20.2,29.43-31.93,48.82,44.73,2.31,63.73-18.52,66.48-53.93,6.66-85.82,5.49-168.85-75.19-227.28-42.17-30.54-57.06-76.07-54.7-127.9,1.35-29.57.67-59.27.09-88.89-2.02-103.39-56.27-169.46-157.43-190.6-36.95-7.72-72.75-17.95-104.87-38.24-18.49-11.68-37.18-23.81-39.23-48.97.68-5.18,3.39-8.87,8.09-11.09,36.37,38.98,81.11,59.37,133.82,68.77,122.89,21.91,190.64,105.61,192.18,231.82.11,9.35,1.2,18.92-.34,28.01-14.44,85.09,11.11,152.21,84.84,200.77,27.41,18.05,39.61,47.14,38.3,80.91-1.92,49.55,13.34,99.12-.98,148.73-13.97,48.38-52.29,70.89-100.16,57.68-15.93-4.4-28.73-12.83-31.96-30.24-3.36-18.09,6.83-28.23,21.58-37.09,25.24-15.15,31.61-86.38,10.18-105.29-14.78-13.04-20.79-1.52-27.8,9.84-17.99,29.1-36.16,58.11-55.21,86.51-26.04,38.82-86.32,50.09-123.95,24.23-9.89-6.79-16.92-15.52-12.86-27.26,6.47-18.71,19.63-30.48,40.13-34.65,46.25-9.41,60.24-41.65,57.47-84.79,35.84,1.31,24.72,25.82,18.96,43.28-12.37,37.49-39.32,62.13-86.52,74.82,33.97,17.87,58.35,15.81,77.91-4.46,21.57-22.37,36.03-50.6,52.79-76.79,6.42-10.03,3.72-19.81-1.08-25.28-12.12-13.79-48.84,7.04-59.45-6.55-6-7.68,2.85-18-3.13-27.65-6.67-10.76-25.91-11.2-42.95-9.37Z" stroke-width="0"/><path d="M803.83,798.1c-6.25-2.94-12.5-5.87-18.74-8.81,1.51-2.24,3.01-4.48,4.52-6.73,26.75,13.03,49.21,20.5,64.83,24.93,0,0,55.27,15.67,70.96,33.39,1.48,1.68,5.02,5.77,5.75,11.71.94,7.6-3.27,13.82-4.67,16.02-21.56,34-39.91,70.85-66.07,100.88-24.47,28.08-59.68,17.51-91.21,7.49-4.07-1.29-7.27-3.9-7.99-7.37-.59-2.82.72-5.36,1.55-6.8,8.31-14.41,18.64-20.71,18.64-20.71,16.05-9.79,20.97-4.16,34.43-11.48,21.46-11.66,29.71-37.23,32.35-45.39,3.19-9.89,4.7-21.39,4.7-21.39.68-5.2.93-9.58,1.02-12.71.67-8.85.69-16.25.55-21.72-.23-8.85-.85-10.86-1.84-12.63-3.02-5.41-8.79-7.29-19.03-10.33-11.31-3.35-21.33-6.12-29.74-8.35Z" fill="#f6f6f6" stroke-width="0"/><path d="M760.28,26.92c18.51,14.36,23.15,33.36,12.74,53.28-10.07,19.27-30.32,18.44-49.24,18.23-82.74-.93-123.38,48.31-103.95,125.74-1.99,1.58-3.98,3.17-5.97,4.78-28.09-11.26-27.67-35.23-23.96-58.58,8.83-55.54,60.85-102.14,117.42-99.99,30.85,1.18,42.03-11.3,46.83-37.32,2.05-2.04,4.09-4.09,6.13-6.14Z" stroke-width="0"/><path d="M754.16,33.05c15.83,44.69,9.46,53.92-41.65,48.81-45.61-4.57-73.59,17.68-95.88,52.65-19.67,30.84-29,62.17-2.74,94.43,31.95,56.22,87.81,69.66,144.87,81.62,106.65,22.37,160.52,84.75,167.6,193.92,1.41,21.73,3.54,44.05.34,65.34-11.98,79.55,16.41,140.01,81.59,185.19,27.1,18.78,42.95,44.87,44.09,78.39,1.49,43.56,5.48,87.38,2.4,130.66-3.28,46.11-33.86,69.28-75.03,63.98-12.6-1.62-25.83-4.69-26.66-20.69-.68-13.06,8.75-21.42,20.41-20.86,23.66,1.14,21.44-13.17,22.3-29.23,4.83-89.46,1.26-95.96-78.05-131.8-18.42-8.32-35.99-19.08-55.07-25.29-54.5-17.73-100.47-41.79-95.18-112.78-14.18,19.92-9.47,37.96-2.31,54.46,8.67,20,8.9,39.22-.31,58.03-42.27,86.31-112.88,136.07-198.67,179.1-127.57,63.98-260.42,18.2-388.96,39.15-21.09,3.44-60.38,7.57-61.15-20.38-.72-26.3,37.1-26.21,61.46-28.61,148.11-14.61,219.19-91.57,223.71-239.52,1.6-52.53,10.93-101.06,57.5-139.03,46.82-38.17,85.64-86.11,128.24-129.5,34.41-35.04,65.96-74.33,121.74-83.08-72.05-31.14-162.68-28.2-192.78-120.05-15.97-48.73-6.76-95.48,15.71-140.14,44.36-88.16,138.42-123.84,222.5-84.76Z" fill="#fefefe" stroke-width="0"/><path d="M139.46,610.07c13.26,37.16,24.19,74.02,79.35,59.53,22.73-5.97,49.43-4.94,73.73,3.17,32.54,10.85,45.57-20.44,67.84-31.73,10.92-5.54,21.86-17.35,33.76-9.84,12.46,7.87,6.16,22.76,2.88,34.1-10.01,34.59-12.49,69.69-13.64,105.6-2.42,75.5-63.41,150.78-135.91,172.53-25.33,7.6-48.22,6.11-69.68-12.05-63.86-54.03-108.33-114.56-86.67-205.75,6.65-27.98.83-58.77,2.22-88.21.7-14.73-6.77-33.73,7.99-43.22,17.36-11.16,22.5,18.16,38.81,16.63,0,0-.68-.74-.68-.74Z" fill="#fdfdfd" stroke-width="0"/><path d="M176.88,954.16c-42.84-10.53-68.6,37.87-110.06,30.18-12.12-2.25-25.22-.25-36.91-3.58-12.66-3.6-17.59-12.28-5.03-23.38,18.52-16.38,132.72-21.72,152.01-3.23Z" fill="#f7f7f7" stroke-width="0"/><path d="M204.42,914.52c12.27-12.23-.4-38.47,21.68-39.98,13.04-.89,7.91,13.6,9.48,21.98,5.48,29.36-20.7,10.75-31.16,17.99Z" stroke-width="0"/></g></svg>