<?xml version="1.0" encoding="UTF-8"?><svg id="b" xmlns="http://www.w3.org/2000/svg" viewBox="0 0 1178.14 1179.89"><g id="c"><path d="M979.63,169.22c11.02-33.33,6.58-67.19,6-103.96-32.71-3.01-54.63,13.84-75.41,31.13-16.34,13.59-29.71,30.71-45.69,44.79-25.18,22.16-39.15,20.08-55.19-10.45-17.85-33.99-32.8-69.5-49.2-104.26-2.88-6.1-6.69-11.77-11.14-19.5-26.24,9.48-43.35,31.36-57.59,51.42-54.63,76.95-103.87,157.01-137.62,246.31-17.56,46.46-39.42,94.43-100.05,101.44-46.49,5.38-93.39,8.93-139.22,17.86-103.23,20.11-190.25,68.28-246.98,159.92-38.61,62.37-60.27,129.86-60.57,205.23-.31,79.97,8.41,155.25,48.99,226.8,55.46,97.78,138.73,147.33,248.05,155.87,52.86,4.13,104.2-2.93,153.5-26.81,54.29-26.3,76.99-73.31,93.68-126.01,9.9-31.25,6.88-62.2.59-94.12-10.72-54.33-63.55-95.24-108.53-90.75-18.39,1.84-37.15-.37-55.69.47-26.08,1.17-33.99,22.53-41.21,41.85-4.01,10.72-.14,21.57,13.03,28.26,7.66,3.89,14.29,2.43,21.22,2.65,32.45,1.05,68.67-.73,82.64,35.41,14.95,38.66,2.98,76.31-23.63,107.45-59.87,70.1-198.7,57.07-258.62-23.42-29.17-39.18-44.7-82.39-61.61-126.18" fill="none" stroke="#000" stroke-linecap="round" stroke-linejoin="round" stroke-width="13.93"/><path d="M606.97,879.7c19.32,92.82,54.86,177.72,125.63,243.52,50.19,46.67,97.35,43.77,156.33,13.92,27.6-13.97,64.44-15.16,75.2-50.42-8.31-46.48-43.58-62.4-82.03-74.68" fill="none" stroke="#000" stroke-linecap="round" stroke-linejoin="round" stroke-width="13.93"/><path d="M1111.97,482.67c-41.59,50.31-72.42,108.82-121.49,153.69-36.89,33.73-69.44,72.17-105.1,107.31-25.64,25.26-43.53,56.45-64.79,84.68-44.76,59.44-20.16,195.31,41.26,234.97,25.68,16.58,20.08,45.72,37.68,63.67" fill="none" stroke="#000" stroke-linecap="round" stroke-linejoin="round" stroke-width="13.93"/><path d="M962.21,162.26c79.49,78.1,151.07,160.18,146.63,282.12-.39,10.81-6.81,22.97,5.74,32.46,16.04,14.61,36.76,5.22,56.59,5.83" fill="none" stroke="#000" stroke-linecap="round" stroke-linejoin="round" stroke-width="13.93"/><path d="M843.8,813.53c6.59,21.61,7.72,43.84,6.89,66.17-1.3,34.95,4.61,68.85,17.86,100.85,11.62,28.08,14.02,55.37,3.12,83.74" fill="none" stroke="#000" stroke-linecap="round" stroke-linejoin="round" stroke-width="13.93"/><path d="M617.42,980.7c-24.91,23.25-16.14,47.37-3.79,73.28,21.87,45.87-3.36,83.58-55.42,83.09-19.76-.18-39.47-4.3-59.21-6.62" fill="none" stroke="#000" stroke-linecap="round" stroke-linejoin="round" stroke-width="13.93"/><path d="M878.63,378.19c-30.25-13.31-61.35-17.64-94.09-10.69-12.45,2.65-25.49,2.56-38.26,3.72" fill="none" stroke="#000" stroke-linecap="round" stroke-linejoin="round" stroke-width="13.93"/><path d="M1021.42,444.36c-33.67,1.16-67.33,2.32-101,3.48" fill="none" stroke="#000" stroke-linecap="round" stroke-linejoin="round" stroke-width="13.93"/><path d="M732.35,113.5c-13.33,18.72-3.29,51.19-34.83,59.21" fill="none" stroke="#000" stroke-linecap="round" stroke-linejoin="round" stroke-width="13.93"/><path d="M829.87,479.19c-13.02,11.38-36.27-10.5-45.28,13.93" fill="none" stroke="#000" stroke-linecap="round" stroke-linejoin="round" stroke-width="13.93"/><path d="M739.32,479.19c18.85,9.47,52.4.22,48.76,38.31" fill="none" stroke="#000" stroke-linecap="round" stroke-linejoin="round" stroke-width="13.93"/></g></svg>