<?xml version="1.0" encoding="UTF-8"?><svg id="b" xmlns="http://www.w3.org/2000/svg" viewBox="0 0 1011.74 917.13"><g id="c"><path d="M1004.59,849.48c-7.1-85.49-15.85-170.4-38.69-253.85-40.58-148.27-125.26-259.94-261.38-332.24-23.08-12.26-44.2-29.07-68.34-38.15-16.64-6.26-16.05-18.66-20.95-29.66-21.68-48.72-41.71-98.24-65.08-146.13-8.69-17.8-16.54-43.67-42.16-42.24-22.57,1.26-27.77,26.16-39.45,41.84-20.15,27.05-29.56,59.28-41.97,89.73-8.86,21.73-20.92,37.34-43.58,34.55-25.75-3.17-55.31-2.51-68.3-34.76-12.15-30.19-26.59-59.42-46.03-85.96-16.56-22.61-37.02-48.23-64.08-44.09-23.39,3.57-21.95,36.76-29.62,58.22-6.8,19.01-8.76,37.77-10.29,57.4-4.67,59.97-51.47,94.49-86.07,135.3C31.57,314.9,12.26,378.7,7.33,449.27c-1.5,21.43,6.5,41.31,15.81,56.5,35.98,58.66,66.65,124.16,134.89,153.76,41.35,17.93,85.14,30.23,129.05,45.48-11.7,26.9-26.94,54.44-35.75,83.91-14.65,49.02,2.99,107.15,62.68,121.06,33.49-17.53,39.44-51.28,51.18-81.88,19.14-49.9,32.01-103.07,71.29-142.99" fill="none" stroke="#000" stroke-linecap="round" stroke-linejoin="round" stroke-width="14.29"/><path d="M93.47,627.95c-31.41,47.91-58.08,97.44-57.35,157.22.22,18.11,4.78,34.26,18.22,46.24,13.97,12.46,31.15,28.29,49.32,20.44,20.53-8.86,36.81-26.48,40.06-52.36,5.45-43.38,7.14-87.59,24.77-128.66" fill="none" stroke="#000" stroke-linecap="round" stroke-linejoin="round" stroke-width="14.29"/><path d="M397.18,760.15c51.13,39.31,80.74,95.94,117.91,146.49" fill="none" stroke="#000" stroke-linecap="round" stroke-linejoin="round" stroke-width="14.29"/><path d="M329.29,495.75c-19.96,1.13-39.24,9.64-56.46,16.17-35.02,13.27-56.71-18.42-86.46-16.17" fill="none" stroke="#000" stroke-linecap="round" stroke-linejoin="round" stroke-width="14.29"/><path d="M468.64,549.34c20.32,15.01,43.53,23.17,67.89,28.58" fill="none" stroke="#000" stroke-linecap="round" stroke-linejoin="round" stroke-width="14.29"/><path d="M472.21,520.76c28.99-2.53,57.78-2.53,85.75,7.15" fill="none" stroke="#000" stroke-linecap="round" stroke-linejoin="round" stroke-width="14.29"/><path d="M318.57,159.88c-17.84,15.01-41.33,5.99-60.74,14.29" fill="none" stroke="#000" stroke-linecap="round" stroke-linejoin="round" stroke-width="14.29"/><path d="M340.01,656.53c-15.48,14.29-30.97,28.58-46.45,42.88" fill="none" stroke="#000" stroke-linecap="round" stroke-linejoin="round" stroke-width="14.29"/></g></svg>