<?xml version="1.0" encoding="UTF-8"?><svg id="b" xmlns="http://www.w3.org/2000/svg" viewBox="0 0 949.25 767.18"><g id="c"><path d="M770.38,301.86c44.55,39.35,59.2,91.95,70.68,146.4,5.7,27.02,13.23,53.68,20.93,80.21,1.97,6.77,6.93,13.22,11.92,18.47,25.96,27.35,50.2,55.92,65.46,90.89,7.66,17.55,12.65,35.7,8.2,55.34-4.12,18.19-16.15,27.76-33.3,31.09-18.5,3.6-36.92,2.75-49.87-13.33-10.53-13.08-5.66-26.66,3.83-40.04-43.14-37.77-98.87-46.58-146.09-68.29-26.15,29.19-50.93,57.25-76.19,84.88-14.01,15.32-29.4,29.02-51.6,30.69-14.55,1.1-28.08-1.74-36.23-15.06-6.92-11.31-6.74-24.25,1.01-34.76,5.07-6.87,13.75-11.07,20.84-16.41,3.27-2.46,8.52-4.14,9.63-7.32,8.86-25.24,16.95-50.76,25.94-78.21-50.55,11.96-98.58,23.32-147.48,34.89,9.03,13.43,18.65,26.36,26.74,40.19,6.73,11.51,12.88,23.67,17.13,36.27,6.17,18.3.35,35.06-13.2,44.39-15.48,10.65-41.59,11.17-54.89,1.1-9.55-7.24-13.98-20.39-8.4-31.82,3.75-7.68,1.17-11.87-3.83-16.22-6.54-5.7-13.11-11.41-20.11-16.52-10.83-7.92-22.13-15.19-33.04-23.01-19.71-14.14-21.11-15.94-39.97.19-29.9,25.58-57.98,53.37-86.16,80.91-20.44,19.97-40.16,41.27-69.08,47.82-13.78,3.12-29.1,3.44-43,.96-18.19-3.24-29.44-19.9-28.31-35.88,1.22-17.35,13.88-31.95,32.14-34.48,9.01-1.25,13.56-5.4,17.97-12.67,23.79-39.27,33.08-83.36,44.35-127.04,5.13-19.9,5.54-35.25-11.47-49.83-7.41-6.35-12.78-11.21-23.33-11.87-16.36-1.01-33-3.74-48.67-8.55-45.53-13.99-73.45-44.7-77.09-93-2.14-28.47-8.45-53.73-24.57-78-10.35-15.58-15.14-35.44-19.93-54.02-4.73-18.37,3.12-25.76,21.53-21.92,18.1,3.79,35.99,8.69,53.81,13.69,7.33,2.06,12.98,1.91,19.54-3.12,23.55-18.04,50.1-29.53,79.39-35,5.2-.97,10.62-5.58,14.14-9.96,14.31-17.77,26.53-37.43,42.16-53.86,16.33-17.16,28.56-13.95,36.74,8.33,7.06,19.22,11.4,39.43,17.55,59.02,1.54,4.9,4.53,10.05,8.34,13.4,28.74,25.32,48.9,55.76,56.05,93.82,1.66,8.86,7.2,7.89,12.97,7.92,50.54.27,99.74-7.87,147.62-24.02,32.49-10.95,64.75-22.65,97.48-32.85,27.4-8.54,55.57-10.51,84.28-6.7,5.86.78,14.09-2.31,18.42-6.52,18.38-17.89,21.1-41.08,17.28-64.95-4.81-30.05-11.55-59.78-16.56-89.79-3.8-22.79-4.38-45.7,3.94-67.95,9.89-26.45,34.22-42.91,58.08-39.23,26,4.01,41.29,30.51,31.57,55.28-3.6,9.18-8.55,17.83-12.11,27.02-8.6,22.21-5.41,45.11-3.77,68.04,2.03,28.34,3.81,56.77,3.97,85.16.14,23.9-7.94,45.8-23.4,65.84ZM216.88,510.42c1.64-3.79,2.19-6.77,3.91-8.69,3.21-3.58,7.1-6.55,10.7-9.77.73,4.82,2.98,10.01,1.92,14.4-4.53,18.8-10.76,37.2-15.04,56.05-9.57,42.12-19.62,83.96-41.63,121.79-7.07,12.15-12.46,24.34-30.68,24.25-12.71-.06-21.09,12.08-20.95,23.26.13,10.34,8.58,19.8,21.11,22.31,6.1,1.22,12.56,1.28,18.81.91,26.64-1.59,46.18-17.04,64.14-34.64,26.79-26.23,52.33-53.78,79.71-79.35,20.65-19.28,44.62-34.05,73.26-38.88,79.74-13.46,159-29.21,236.57-52.36,15.37-4.59,28.47-5.91,41.26,6.05,5.9,5.52,13.79,9.34,21.36,12.54,38.45,16.27,77.05,32.2,115.69,48.01,28.48,11.66,57.4,22.38,80,44.68,7.34,7.25,9.95,12.84.5,21.32-10.15,9.12-7.36,21.06,5.14,26.63,14.28,6.36,28.63,5.42,41.85-2.98,11.71-7.43,12.05-19.69,11.14-31.77-.44-5.83-1.82-11.75-3.72-17.3-12.08-35.16-33.23-64.77-59.28-90.4-15.94-15.68-25.64-33.57-30.82-54.7-1.98-8.06-4.17-16.07-6.18-24.12-8.55-34.1-14.65-69.04-26.08-102.13-25.59-74.06-80.69-110.61-158.57-102.93-32,3.15-63.63,14.46-94.37,25.12-49.75,17.25-99.66,32.89-152.45,36.89-16.75,1.27-33.57,1.56-50.05,2.28-16.38,73.92-57.61,113.92-151.66,147.08,4.84,5.51,9.31,10.62,14.41,16.44ZM172.04,228.82c-25.88,4.7-49.46,17.47-71.81,33.68-24.96,18.1-38.94,42.26-42.08,72.5-1.5,14.48-1.72,29.3-.61,43.82,4.22,55.6,30.19,85.45,84.29,98.29,69.18,16.42,150.74-22.53,182.6-86.59,8.75-17.59,16.69-34.97,14.23-55.3-4.13-34.13-20.91-61.72-44.27-85.83-1.62-1.68-4.98-1.53-7.03-2.95-3.6-2.51-8.72-4.97-9.86-8.52-4.08-12.77-6.33-26.13-10.09-39.02-4.48-15.34-9.81-30.43-15.5-47.87-7.02,5.81-12.54,8.75-15.77,13.33-15.19,21.54-29.62,43.61-44.64,65.28-2.64,3.81-6.79,6.58-10.24,9.84-2.79-3.21-5.57-6.43-9.22-10.64ZM759.03,292.29c11.6-12.82,17.02-24.94,20.16-44.76,5.42-34.11.51-67.93-3.54-101.65-3.79-31.52-.9-61.36,14.87-89.59,7.68-13.75,4.39-29.73-5.99-37.46-10.81-8.05-27.84-6.69-39.35,3.36-21.46,18.72-24.24,43.72-21.23,69.57,2.6,22.33,7.61,44.39,11.68,66.55,4.42,24.05,12.19,48.2,5.98,72.64-3.93,15.47-11.96,29.9-18.08,44.62,10.49,4.95,22.57,10.65,35.49,16.74ZM706.23,598.15c-22.56-12.99-42.97-24.87-63.51-36.5-7.45-4.22-12.16-2.29-14.75,6.55-7.31,25-15.14,49.86-22.92,74.72-3.4,10.87-7.81,19.73-21.53,21.93-11.78,1.89-18.53,14.65-16.52,25.25,1.86,9.8,10.68,15.39,23.61,15.06,15.69-.4,27.65-8.27,37.98-19.21,15.71-16.65,31.58-33.17,46.81-50.25,10.7-12,20.46-24.85,30.83-37.54ZM376.55,617.53c13.47,9.38,25.1,16.68,35.81,25.15,12.28,9.71,24.17,20.02,35.39,30.94,5.55,5.41,6.84,12,1.68,20.22-2.55,4.07-1.24,13.36,1.9,17.64,5.85,7.97,26.54,7.57,37.78,1.13,10.91-6.26,13.14-16.2,10.91-27.5-1.06-5.36-2.63-10.99-5.47-15.56-12.68-20.38-25.67-40.58-39.18-60.41-1.8-2.64-7.44-4.42-10.87-3.87-21.73,3.47-43.34,7.72-67.94,12.25ZM43.49,326.07c13.01-30.13,11.55-34.49-14.31-52.07-2.98-2.02-3.86-7.16-5.71-10.85,4.09-.34,9.24-2.44,12.07-.71,8.95,5.47,17.04,12.36,25.98,19.1,3.98-4.83,8.16-9.91,13.53-16.43-20.74-5.29-39.9-10.18-60.9-15.53,2.3,30.1,14.2,53.41,29.34,76.5Z" stroke-width="0"/><path d="M216.88,510.42c-5.1-5.82-9.58-10.92-14.41-16.44,94.05-33.16,135.27-73.16,151.66-147.08,16.48-.72,33.3-1.02,50.05-2.28,52.8-4,102.71-19.64,152.45-36.89,30.74-10.66,62.37-21.97,94.37-25.12,77.88-7.67,132.98,28.87,158.57,102.93,11.43,33.09,17.54,68.04,26.08,102.13,2.02,8.05,4.21,16.06,6.18,24.12,5.18,21.13,14.88,39.02,30.82,54.7,26.05,25.63,47.2,55.24,59.28,90.4,1.91,5.55,3.28,11.46,3.72,17.3.91,12.07.57,24.33-11.14,31.77-13.22,8.39-27.57,9.33-41.85,2.98-12.5-5.57-15.29-17.5-5.14-26.63,9.44-8.49,6.84-14.08-.5-21.32-22.61-22.31-51.52-33.02-80-44.68-38.64-15.82-77.24-31.75-115.69-48.01-7.57-3.2-15.46-7.02-21.36-12.54-12.79-11.96-25.89-10.64-41.26-6.05-77.58,23.15-156.83,38.91-236.57,52.36-28.64,4.83-52.61,19.6-73.26,38.88-27.38,25.57-52.92,53.12-79.71,79.35-17.97,17.6-37.5,33.05-64.14,34.64-6.24.37-12.71.31-18.81-.91-12.53-2.51-20.98-11.97-21.11-22.31-.15-11.18,8.24-23.32,20.95-23.26,18.22.09,23.61-12.1,30.68-24.25,22.01-37.82,32.06-79.67,41.63-121.79,4.28-18.85,10.51-37.25,15.04-56.05,1.06-4.39-1.19-9.58-1.92-14.4-3.61,3.22-7.5,6.19-10.7,9.77-1.72,1.92-2.27,4.9-3.91,8.69Z" fill="#fff" stroke-width="0"/><path d="M172.04,228.82c3.65,4.21,6.44,7.42,9.22,10.64,3.45-3.25,7.59-6.02,10.24-9.84,15.02-21.66,29.45-43.74,44.64-65.28,3.23-4.58,8.76-7.52,15.77-13.33,5.69,17.44,11.02,32.53,15.5,47.87,3.76,12.89,6.01,26.24,10.09,39.02,1.14,3.56,6.25,6.01,9.86,8.52,2.05,1.43,5.41,1.28,7.03,2.95,23.35,24.11,40.13,51.7,44.27,85.83,2.46,20.33-5.48,37.7-14.23,55.3-31.86,64.06-113.42,103-182.6,86.59-54.1-12.84-80.07-42.69-84.29-98.29-1.1-14.52-.89-29.34.61-43.82,3.14-30.24,17.12-54.4,42.08-72.5,22.35-16.21,45.93-28.98,71.81-33.68ZM188.43,423.11c4.25.29,7.82,1,11.29.67,6.68-.64,17.06,1.36,16.79-8.2-.26-9.13-9.74-4.76-15.48-4.74-17.64.06-25.93-11.6-18.8-27.11,2.72-5.91,2.91-12.68-3.36-13.73-7.87-1.32-17.03-.37-24.38,2.67-4.48,1.85-10.28,11.13-8.94,14.12,2.35,5.26,9.27,9.25,15.11,11.97,8.17,3.8,15.12,14.57,13.48,22.12-1,4.57-.2,9.54-.21,14.33,4.17-3.31,8.36-6.61,12.51-9.95.6-.48,1.06-1.14,1.99-2.16ZM227.66,221.11c5.95-12.95,11.58-24.12,16.08-35.72,1.16-3-1.22-7.39-1.98-11.14-3.23,1.51-8.28,2.18-9.4,4.66-6.69,14.67-12.84,29.62-18.4,44.76-2.58,7.03.86,11.15,8.67,11.74,7.84.59,15.64,2.56,23.44,2.52,3.27-.02,6.53-3.64,9.79-5.62-2.45-2.57-4.47-6.43-7.45-7.43-5.8-1.96-12.13-2.32-20.76-3.76ZM266.07,311.13c-5.15-2.59-8.67-5.98-11.16-5.34-20.23,5.2-37.82,15.17-50.39,32.32-1.49,2.03.68,6.76,1.16,10.24,3.1-.66,7.44-.25,9.11-2.17,11.45-13.16,25.59-21.67,42.02-26.99,2.82-.91,4.89-4.15,9.26-8.06ZM116.16,370.76c-12.19,2.63-22.58,4.39-32.62,7.34-2.76.81-4.48,5.16-6.67,7.89,3.41,1.65,6.95,4.9,10.21,4.65,9.27-.71,18.58-2.32,27.58-4.69,3.95-1.04,7.19-4.81,10.76-7.35-3.19-2.71-6.38-5.41-9.25-7.85Z" fill="#fff" stroke-width="0"/><path d="M759.03,292.29c-12.92-6.09-25-11.8-35.49-16.74,6.12-14.71,14.14-29.14,18.08-44.62,6.22-24.44-1.56-48.59-5.98-72.64-4.07-22.16-9.07-44.21-11.68-66.55-3.01-25.84-.24-50.84,21.23-69.57,11.51-10.04,28.54-11.41,39.35-3.36,10.37,7.73,13.67,23.71,5.99,37.46-15.78,28.23-18.66,58.07-14.87,89.59,4.05,33.73,8.95,67.54,3.54,101.65-3.15,19.82-8.56,31.95-20.16,44.76Z" fill="#fff" stroke-width="0"/><path d="M706.23,598.15c-10.36,12.69-20.12,25.54-30.83,37.54-15.23,17.08-31.11,33.59-46.81,50.25-10.33,10.95-22.29,18.81-37.98,19.21-12.94.33-21.76-5.26-23.61-15.06-2.01-10.6,4.74-23.36,16.52-25.25,13.73-2.2,18.13-11.06,21.53-21.93,7.78-24.86,15.61-49.72,22.92-74.72,2.58-8.84,7.3-10.77,14.75-6.55,20.54,11.63,40.95,23.51,63.51,36.5Z" fill="#fff" stroke-width="0"/><path d="M376.55,617.53c24.6-4.53,46.21-8.78,67.94-12.25,3.43-.55,9.08,1.23,10.87,3.87,13.51,19.83,26.5,40.03,39.18,60.41,2.84,4.57,4.41,10.2,5.47,15.56,2.23,11.3,0,21.24-10.91,27.5-11.23,6.44-31.93,6.84-37.78-1.13-3.14-4.28-4.45-13.57-1.9-17.64,5.16-8.22,3.87-14.81-1.68-20.22-11.21-10.93-23.11-21.23-35.39-30.94-10.71-8.47-22.34-15.77-35.81-25.15Z" fill="#fff" stroke-width="0"/><path d="M43.49,326.07c-15.14-23.09-27.04-46.39-29.34-76.5,21,5.36,40.15,10.24,60.9,15.53-5.37,6.52-9.55,11.6-13.53,16.43-8.94-6.73-17.03-13.63-25.98-19.1-2.83-1.73-7.98.36-12.07.71,1.85,3.69,2.73,8.83,5.71,10.85,25.87,17.58,27.32,21.94,14.31,52.07Z" fill="#fff" stroke-width="0"/><path d="M188.43,423.11c-.94,1.02-1.4,1.68-1.99,2.16-4.16,3.34-8.34,6.64-12.51,9.95,0-4.79-.79-9.76.21-14.33,1.64-7.55-5.3-18.32-13.48-22.12-5.84-2.72-12.76-6.71-15.11-11.97-1.34-3,4.47-12.28,8.94-14.12,7.35-3.03,16.51-3.99,24.38-2.67,6.27,1.05,6.08,7.82,3.36,13.73-7.12,15.51,1.16,27.16,18.8,27.11,5.75-.02,15.22-4.39,15.48,4.74.27,9.56-10.1,7.56-16.79,8.2-3.47.33-7.04-.38-11.29-.67Z" stroke-width="0"/><path d="M227.66,221.11c8.63,1.44,14.96,1.8,20.76,3.76,2.98,1.01,5,4.86,7.45,7.43-3.26,1.98-6.52,5.6-9.79,5.62-7.81.04-15.6-1.93-23.44-2.52-7.8-.59-11.25-4.71-8.67-11.74,5.56-15.14,11.71-30.09,18.4-44.76,1.13-2.47,6.17-3.15,9.4-4.66.75,3.75,3.14,8.14,1.98,11.14-4.5,11.61-10.13,22.77-16.08,35.72Z" stroke-width="0"/><path d="M266.07,311.13c-4.37,3.91-6.44,7.15-9.26,8.06-16.43,5.32-30.56,13.82-42.02,26.99-1.67,1.92-6.01,1.5-9.11,2.17-.47-3.48-2.65-8.21-1.16-10.24,12.57-17.15,30.15-27.12,50.39-32.32,2.49-.64,6.01,2.76,11.16,5.34Z" stroke-width="0"/><path d="M116.16,370.76c2.87,2.44,6.06,5.14,9.25,7.85-3.56,2.53-6.8,6.3-10.76,7.35-9,2.38-18.31,3.98-27.58,4.69-3.27.25-6.8-3-10.21-4.65,2.2-2.73,3.92-7.08,6.67-7.89,10.05-2.95,20.44-4.72,32.62-7.34Z" stroke-width="0"/></g></svg>